<?xml version="1.0" standalone="no"?>
<!DOCTYPE svg PUBLIC "-//W3C//DTD SVG 20010904//EN"
 "http://www.w3.org/TR/2001/REC-SVG-20010904/DTD/svg10.dtd">
<svg version="1.0" xmlns="http://www.w3.org/2000/svg"
 width="752.000000pt" height="752.000000pt" viewBox="0 0 752.000000 752.000000"
 preserveAspectRatio="xMidYMid meet">
<metadata>
Created by potrace 1.14, written by Peter Selinger 2001-2017
</metadata>
<g transform="translate(0.000000,752.000000) scale(0.100000,-0.100000)"
fill="#000000" stroke="none">
<path d="M3275 7494 c-20 -13 -38 -24 -40 -24 -3 0 -39 -20 -81 -45 -41 -25
-80 -45 -85 -45 -5 0 -9 -4 -9 -10 0 -5 -4 -10 -9 -10 -9 0 -172 -89 -181 -99
-3 -3 -19 -13 -35 -22 -25 -13 -214 -121 -342 -195 -65 -38 -289 -167 -333
-192 -25 -14 -61 -35 -80 -47 l-35 -22 0 -731 c0 -402 3 -733 6 -736 11 -11
352 -206 360 -206 5 0 9 -4 9 -10 0 -5 4 -10 9 -10 5 0 49 -23 98 -51 48 -28
104 -61 123 -71 19 -11 54 -31 78 -45 29 -18 46 -22 55 -15 11 9 35 23 137 80
25 14 56 32 70 41 14 10 46 28 73 42 26 13 47 27 47 31 0 5 4 8 10 8 5 0 95
50 200 110 105 61 195 110 200 110 5 0 10 3 12 8 2 6 145 90 348 204 19 11 40
24 45 28 6 4 35 21 65 37 66 36 279 159 300 173 8 6 24 15 35 20 11 6 43 24
70 41 28 16 58 33 68 36 9 3 17 9 17 14 0 5 4 9 10 9 5 0 30 12 55 27 l45 28
0 417 0 417 -27 13 c-36 18 -496 284 -543 313 -19 12 -66 40 -105 61 -38 22
-94 54 -125 72 -30 18 -63 35 -72 39 -10 3 -18 9 -18 14 0 5 -4 9 -9 9 -5 0
-64 32 -132 72 -68 39 -142 81 -164 92 -22 12 -42 24 -45 27 -16 18 -42 15
-75 -7z"/>
<path d="M4779 5429 c-85 -48 -159 -93 -166 -99 -7 -5 -15 -10 -19 -10 -3 0
-40 -20 -81 -45 -40 -25 -75 -45 -77 -45 -4 0 -321 -184 -346 -200 -8 -6 -22
-13 -30 -17 -8 -4 -48 -26 -88 -50 -40 -24 -77 -43 -82 -43 -6 0 -10 -4 -10
-10 0 -5 -5 -10 -10 -10 -6 0 -55 -27 -110 -60 -55 -33 -104 -60 -110 -60 -5
0 -10 -4 -10 -10 0 -5 -4 -10 -10 -10 -5 0 -65 -32 -132 -71 -68 -39 -136 -79
-153 -89 l-30 -17 0 -932 0 -933 60 -35 c33 -20 80 -47 105 -61 25 -13 50 -28
55 -32 6 -4 30 -19 55 -32 40 -23 110 -63 275 -160 28 -16 62 -34 78 -41 15
-6 27 -15 27 -19 0 -4 7 -8 15 -8 8 0 15 -4 15 -10 0 -5 5 -10 10 -10 9 0 88
-44 228 -127 20 -12 53 -29 72 -39 19 -9 42 -23 50 -29 8 -7 35 -24 60 -37 25
-14 61 -34 81 -46 20 -11 47 -26 60 -34 13 -7 27 -17 31 -23 4 -5 8 -6 8 -1 0
5 8 2 18 -6 15 -13 176 -108 222 -131 8 -4 29 -16 45 -26 17 -11 37 -20 45
-20 8 0 73 33 144 74 71 41 133 75 137 75 5 0 9 4 9 9 0 5 8 11 18 14 9 3 40
20 67 36 28 17 57 34 65 38 8 3 31 16 50 28 19 12 55 33 80 47 53 29 73 41
240 138 69 40 143 82 165 95 22 12 91 52 154 88 62 37 115 67 116 67 2 0 32
17 66 38 35 22 84 50 109 64 104 58 126 71 153 90 15 11 27 16 27 11 0 -4 5
-1 10 7 6 9 10 362 10 946 0 878 -1 932 -17 938 -10 3 -27 11 -38 18 -49 32
-143 88 -147 88 -3 0 -47 25 -97 55 -51 30 -96 55 -101 55 -6 0 -10 5 -10 10
0 6 -4 10 -9 10 -5 0 -49 23 -98 51 -48 29 -108 63 -133 77 -25 14 -126 73
-225 130 -99 58 -205 119 -235 135 -30 17 -66 37 -80 46 -53 34 -65 41 -79 48
-7 3 -89 50 -181 103 l-168 97 -153 -88z"/>
<path d="M2740 4471 c0 -6 -4 -11 -10 -11 -5 0 -52 -25 -105 -55 -52 -30 -99
-55 -104 -55 -5 0 -11 -4 -13 -8 -3 -7 -83 -55 -213 -127 -27 -16 -67 -39 -87
-52 -21 -12 -42 -23 -47 -23 -5 0 -11 -3 -13 -7 -1 -5 -16 -15 -33 -24 -28
-14 -256 -146 -455 -262 -47 -27 -106 -61 -132 -76 -25 -14 -73 -41 -105 -60
-32 -19 -78 -45 -103 -59 -25 -14 -49 -28 -55 -32 -5 -5 -37 -23 -70 -41 -33
-18 -62 -35 -65 -38 -5 -6 -50 -32 -137 -78 l-33 -17 0 -1148 0 -1148 37 -23
c21 -13 58 -35 83 -49 54 -30 100 -57 303 -174 34 -20 87 -50 117 -67 30 -17
83 -48 118 -69 34 -21 67 -38 72 -38 6 0 10 -4 10 -8 0 -4 12 -13 28 -19 15
-7 45 -23 67 -37 22 -14 47 -29 55 -33 8 -4 78 -43 155 -88 77 -45 160 -93
185 -107 38 -22 136 -78 335 -194 22 -13 93 -54 158 -91 65 -37 131 -75 145
-84 15 -9 49 -28 75 -43 l48 -26 57 34 c120 72 379 220 456 261 45 23 113 62
151 87 39 25 90 56 115 70 25 14 61 35 80 46 19 12 46 27 60 35 22 12 227 130
335 194 22 13 52 29 68 35 15 7 27 16 27 20 0 4 4 8 9 8 4 0 60 30 122 66 63
37 134 78 159 92 25 13 70 39 100 57 30 18 97 58 149 88 92 54 93 55 70 70
-21 13 -308 178 -394 227 -16 9 -102 59 -190 110 -88 51 -173 100 -190 110
-16 9 -133 77 -260 150 -126 73 -250 144 -275 158 -25 13 -49 28 -55 32 -5 4
-30 19 -55 32 -25 14 -112 64 -194 112 -82 47 -151 86 -152 86 -2 0 -28 16
-58 35 -30 19 -60 35 -66 35 -5 0 -10 4 -10 9 0 5 -11 12 -24 15 -14 3 -31 12
-38 19 -13 12 -81 51 -125 72 -13 5 -23 13 -23 18 0 4 -7 7 -15 7 -8 0 -16 8
-16 18 -1 9 -2 478 -3 1041 -1 810 -4 1025 -13 1028 -7 3 -13 0 -13 -6z"/>
</g>
</svg>
