<svg width="1440" height="1385" fill="none" xmlns="http://www.w3.org/2000/svg"><mask id="a" style="mask-type:alpha" maskUnits="userSpaceOnUse" x="239" y="138" width="962" height="1109"><path d="M240.178 968.687L720.61 1246.06l479.74-276.262-.57-553.677-480.313-277.41L239.606 415.01l.572 553.677z" fill="#004F9F"/></mask><g mask="url(#a)"><path d="M240.178 968.687L720.61 1246.06l479.74-276.262-.57-553.677-480.313-277.41L239.606 415.01l.572 553.677z" fill="#004F9F"/><g opacity=".1" fill="#0081C9"><path d="M314.472 657.405c-39.343 1.803-36.86 51.758 21.165 65.857 58.586 14.248 98.786 31.363 98.786 31.363s-68.193-99.585-119.951-97.22zm283.856 327.751c0-20.366-16.494-36.86-36.86-36.86-20.367 0-36.861 16.494-36.861 36.86 0 20.364 16.494 36.864 36.861 36.864 20.366 0 36.86-16.5 36.86-36.864zm18.032 94.084c18.622 0 33.727-15.1 33.727-33.72 0-18.63-15.105-33.7-33.727-33.7-18.623 0-33.727 15.1-33.727 33.7.029 18.62 15.134 33.72 33.727 33.72zm18.828 25.1c0 15.16 12.297 27.43 27.431 27.43 15.164 0 27.431-12.3 27.431-27.43 0-15.17-12.296-27.43-27.431-27.43-15.163 0-27.431 12.29-27.431 27.43zm53.325 85.45c13.419 0 24.297-10.87 24.297-24.29s-10.878-24.3-24.297-24.3c-13.42 0-24.298 10.88-24.298 24.3s10.878 24.29 24.298 24.29zm8.631 55.69c11.676 0 21.164-9.49 21.164-21.16 0-11.68-9.458-21.17-21.164-21.17-11.676 0-21.164 9.49-21.164 21.17 0 11.67 9.459 21.16 21.164 21.16z"/><path d="M750.173 1047.35c-3.133-6.33-6.237-12.59-9.311-18.8-3.458-6.65-7.271-11.71-10.848-17.56-4.759-8.13-10.553-15.725-16.376-23.203-26.514-43.807-78.45-97.87-176.881-111.024-50.546-6.739-101.772 8.957-137.036 51.167-35.885 42.92-58.971 107.45-16.819 165.12 47.442 64.88 137.538 49.95 157.372 10.73 26.012-51.41-8.808-103.52-53.502-108.81-44.693-5.291-65.266 20.57-65.266 20.57 28.82-87.048 111.142-97.039 159.382-88.201 48.211 8.808 102.334 51.758 109.96 95.861 7.094 40.91 31.865 29.71 45.285 25.06.798 1.69 1.596 3.32 2.423 5.03 1.538 3.31 3.193 6.62 4.819 9.93-11.558-.32-32.515 1.83-32.515 22.32 0 28.23 26.455 55.27 42.328 108.21 15.873 52.95-12.149 85.4-10.582 95.27 3.074 19.51 29.914 22.88 46.467 24.21-.207 4.2-.414 8.43-.621 12.59-.029.45-.148.89-.177 1.36-23.529-17.73-58.882 3.02-50.931 18.89 8.809 17.65 6.474 78.22-14.129 114.69-.236.45-.384.8-.62 1.21 4.463-19.36 2.157-43.95-18.386-69.05-28.229-34.49-64.291-42.35-64.291-42.35 47.826-145.05-30.594-222.7-30.594-222.7 5.498 52.52-3.133 92.52-26.662 260.32-16.908 120.69 24.889 196.1 49.748 229.09-8.631-4.38-17.174-8.99-25.835-13.39-16.583-25.9-52.083-87.2-54.477-141.21 0 0 22.553-30.38 12.355-67.24-10.197-36.86-24.12-57.64-29.588-79.4-28.318 127.4 24.091 233.01 51.847 277.56-1.035-.53-2.07-1.06-3.104-1.63-38.959-32.21-54.98-57.19-54.98-57.19 6.266-55.69-24.593-104.35-47.827-131.75-35.293-41.56-39.993-76.85-39.993-76.85-13.863 103.52 45.166 188.41 84.361 232.16-14.809-9.58-29.115-19.87-42.505-31.19-27.165-23.05-49.748-49.54-67.75-80.58-17.026-29.11-28.554-62.34-30.83-94.14-.65-15.96 0-31.75 3.872-46.56 3.961-14.72 9.902-28.55 17.972-40.64 8.306-11.91 18.297-22.05 29.234-30.36 10.878-7.6 23.943-14.39 35.146-17.59 11.824-3.45 23.47-3.9 33.195-.62 9.843 3.05 16.996 10.47 21.282 18.57 3.843 8.66 4.789 16.73 2.188 25.54-2.04 6.82-6.769 13.53-12.031 16.4-11.085 6.47-20.928 0-25.096-5.65-4.345-5.94-5.35-10.31-5.557-10.13-.946-2.78-3.99-4.26-6.769-3.31-2.778.94-4.256 3.99-3.31 6.76.325-.08 1.005 4.97 6.384 13.39 3.015 3.97 7.242 9.08 14.573 12.24 7.183 3.19 17.351 3.34 26.278-1.36 8.986-4.82 15.962-13.15 19.893-24.77 3.488-9.66 3.518-23.91-1.655-35.82-5.321-11.98-15.637-23.53-29.795-28.79-13.982-5.56-30.033-5.5-44.723-1.6-15.46 4.14-28.318 10.55-42.211 19.45-.65.44-1.212 1.06-1.862 1.54.266-1.1.591-1.92.828-3.08 2.305-10.93 3.576-24.56.414-39.37-2.927-14.78-11.854-30.24-24.594-40.79-5.971-5.09-13.508-9.96-22.287-12.8-8.75-2.78-19.391-2.93-28.407 1.06-9.045 3.79-15.814 10.61-20.011 17.86-4.138 7.33-6.178 15.25-5.971 22.82.207 7.53 2.483 14.63 5.971 20.01 3.429 5.44 7.744 9.1 11.351 11.44 3.635 2.36 6.71 3.6 8.749 4.31 2.069.71 3.133 1.1 3.133 1.1 6.356 2.07 13.184-1.42 15.253-7.78 2.069-6.35-1.419-13.18-7.774-15.22.443-.33-10.848-2.75-10.553-14.16-.236-5.7 3.813-13.71 10.021-15.99 3.015-1.21 6.562-1.42 10.907-.41 4.316 1.18 8.868 3.66 13.597 7.33 8.986 6.88 14.839 16.52 18.15 26.98 3.192 10.53 3.813 21.64 3.547 31.31-.444 9.51-1.656 17.64-2.631 23.35-4.641 4.82-9.223 9.72-13.331 15.22-9.991 13.98-17.558 30.09-22.702 47.33-5.025 17.32-6.562 35.73-6.148 54.24 2.483 37.18 14.543 73.18 33.786 106.82 18.061 31.99 43.422 62.76 72.302 87.53 28.879 25.24 61.601 44.96 94.145 61.95 3.134 1.66 6.208 3.08 9.341 4.7-5.202.65-10.553 1.78-16.021 3.17-11.705 2.6-23.706 6.85-35.412 11.64-23.47 9.58-44.752 23.18-59.886 34.23-15.105 11.03-24.239 19.98-24.239 19.98l-.089.09c-1.951 1.92-2.069 5.09-.207 7.16 1.922 2.12 5.173 2.27 7.302.38 0 0 8.808-7.95 23.942-18.06 15.016-9.99 36.033-22.17 58.527-30.21 11.203-4.05 22.613-7.54 33.52-9.46 5.41-1.15 10.671-2.07 15.726-2.39 5.025-.51 9.754-1.19 14.129-1.01 4.375-.03 8.395-.06 11.942-.09.709.06 1.182.12 1.862.18 18.741 9.19 37.185 18.21 54.684 27.49 30.003 15.84 57.375 33.22 79.248 53.71 2.424 2.27 4.493 4.79 6.769 7.15-33.106-13.15-80.578-12.21-136.06 11.21-50.753 21.43-72.154 17.26-72.154 17.26 25.864 47.06 116.049 7.83 164.674 8.63 32.899.53 66.123 17.56 84.184 28.52 8.424 23.21 11.026 45.88 7.419 65.06-3.724 20.25-13.863 36.09-24.12 47.15-10.345 11.11-20.455 18.12-27.46 22.43-7.094 4.35-10.967 5.92-10.967 5.95-2.542 1.03-3.901 3.9-3.044 6.56.916 2.78 3.902 4.31 6.68 3.43l.177-.06s4.848-1.57 12.829-5.65c7.981-4.14 19.657-10.7 31.983-22.61 12.237-11.74 25.303-29.47 31.214-53.35 6.267-23.77 3.636-52.18-5.97-79.52-2.365-7.09-5.026-13.33-8.336-20.96-3.193-6.44-6.237-12.91-10.701-20.04-4.226-6.97-8.897-13.65-13.951-20.16-4.878-22.52-8.395-57.37 8.483-80.66 26.662-36.86 51.758-86.26 3.133-116.85 10.967 11-9.813 55.1-31.746 91.96-13.597 22.85-12.297 54.3-9.341 74.96-7.478-6.53-15.282-12.74-23.558-18.53 0-.09-.03-.12-.03-.21-.709-6.33-1.567-16.05-1.005-28.47.65-12.38 2.01-27.6 6.355-44.6 1.005-4.26 1.833-8.69 3.074-13.18 1.508-4.41 3.074-8.96 4.7-13.63 3.104-9.37 6.356-19.21 11.44-28.91 4.7-10.08 9.606-20.57 14.69-31.45 4.966-10.94 10.08-22.23 15.371-33.87 2.513-5.92 5.616-11.53 7.715-17.86 1.951-6.44 3.961-12.95 5.971-19.51 3.931-13.18 8.277-26.57 12.031-40.32 2.364-13.95 4.759-28.14 7.182-42.5 1.035-7.18 2.838-14.37 3.222-21.7.296-7.36.621-14.72.946-22.17.207-14.84 2.129-29.79.946-44.78-1.212-14.96-2.453-30-3.695-45.02-.295-7.57-1.566-14.95-3.31-22.32l-4.582-22.08c-3.133-14.66-5.528-29.47-11.085-43.3-4.818-14.01-9.606-27.93-14.306-41.68-5.823-13.3-12.711-25.92-18.8-38.66zM709.5 1557.77c-1.744 4.94-3.429 9.73-5.055 14.4-1.359 4.76-2.305 9.52-3.429 14.04-4.788 18.06-6.443 34.5-7.242 47.97-.325 6.18-.325 11.65-.147 16.62a490.864 490.864 0 00-13.775-8.19c-15.311-27.96-43.333-88.23-37.569-146.97 7.862-79.99 74.488-58.02 42.358-19.6 0 0-5.469 29.8 13.331 24.3 4.434-1.3 12.119-8.84 18.119-20.39-2.276 15.46 7.065 23.14 16.022 26.04-3.459 7.24-6.947 14.54-10.228 21.43-5.439 10.05-9.015 20.45-12.385 30.35zm-64.912-705.926c124.03 136.829 145.047 245.426 145.047 245.426s51.758-68.81 17.646-172.888C773.17 820.305 642.016 786.755 642.016 786.755s30.594-19.982 12.356-67.04c-18.238-47.058-71.74-96.835-71.74-96.835s32.929-7.833 45.492-36.86c9.341-21.608.827-54.862 30.593-61.956 24.712-5.882 36.063 14.099 36.063 14.099-18.416 1.183-19.598 18.032-12.533 32.929 7.064 14.898 43.126 22.731 48.624-16.464 5.498-39.225-46.26-72.154-97.22-61.158-101.417 21.874-133.341 199.228 10.937 358.374zm-110.433-18.858c-4.374-5.291-9.813-11.617-16.907-18.061-6.917-6.532-15.282-13.479-25.067-19.982-9.665-6.769-20.809-12.799-33.431-18.74-11.676-5.084-25.657-10.405-40.023-13.804-14.572-3.488-30.357-5.528-47.176-4.139-8.365.828-17.026 2.306-25.716 6.001-8.543 3.695-17.647 9.015-24.268 19.095-7.035 9.902-7.301 25.953-1.035 36.062 5.823 10.464 14.336 16.376 22.288 20.573 16.257 8.247 32.278 10.228 47.294 11.203 14.987.798 29.648-.355 42.536-1.833 6.059-.443 11.971-.886 17.705-1.3 5.794.059 11.41.148 16.79.207 21.667 1.123 39.787 4.522 52.29 7.242 12.533 2.926 19.42 5.113 19.42 5.113l19.539 6.267-14.75-21.194c-2.306-2.808-4.936-7.597-9.489-12.71zm-65.414-3.813c-5.853-.503-11.912-1.035-18.208-1.567-6.385.029-13.006.029-19.805.029-12.799.503-25.391.503-38.427-1.123-12.769-1.655-26.1-4.847-35.825-10.907-4.848-2.897-8.484-6.71-9.577-9.607-1.212-3.015-.355-3.842.621-6.651 2.808-6.089 15.045-12.326 27.342-13.922 12.562-2.01 26.071-1.389 38.988.798 13.213 2.217 25.007 5.764 37.304 10.109 10.966 4.316 21.725 9.134 30.918 14.662a168.952 168.952 0 0124.091 16.582c5.262 4.168 9.429 8.425 13.124 12.179-12.592-3.577-29.677-7.952-50.546-10.582z"/><path d="M682.837 630.093c-4.552 12.148-3.428 23.056-1.389 32.219 4.464 18.474 13.597 32.16 22.731 44.427 9.282 12.09 19.834 22.642 29.352 31.481 4.257 4.256 8.365 8.394 12.356 12.414 3.695 4.405 7.242 8.661 10.671 12.77 13.154 16.996 22.317 32.87 28.377 44.102 2.808 5.675 5.025 10.109 6.532 13.154 1.419 3.133 2.158 4.788 2.158 4.788l9.843 21.726 7.685-27.844c.799-3.577 2.809-8.75 3.843-15.578 1.271-6.798 2.66-15.134 3.104-24.77.621-9.607.621-20.574-.68-32.397-.975-11.883-3.458-24.416-7.065-38.161-3.517-12.208-8.454-26.633-15.104-39.993-6.74-13.627-15.401-27.342-27.579-39.669-6.178-6.118-13.065-11.971-21.874-16.494-8.69-4.374-19.184-8.217-32.219-6.71-13.065.917-26.81 12.238-30.742 24.535zm62.045 23.203c9.341 7.893 17.529 18.327 24.209 29.382 6.828 11.351 11.735 22.317 16.435 34.525 3.783 10.907 7.153 22.11 8.868 32.574 2.069 10.405 2.896 20.16 3.074 28.761.147 3.754-.266 7.213-.414 10.523-5.114-11.055-11.765-24.563-21.194-39.343-3.37-4.848-6.887-9.932-10.523-15.164-4.138-4.966-8.425-10.109-12.829-15.4-8.542-9.548-16.405-19.066-23.351-29.973-6.74-10.7-12.593-22.79-13.923-33.372-.798-5.202-.059-9.843 1.153-11.587 1.271-1.892 1.153-.591 2.867-1.685 4.464-1.774 16.79 2.719 25.628 10.759zM377.994 929.111c13.538-39.402 64.114-58.793 64.114-58.793-38.22 1.183-69.996-2.364-107.034 42.329-37.037 44.634 18.593 87.317 42.92 16.464zm121.784-376.995c-5.971 66.035 11.883 100.116 41.797 130.917 0 0-14.632-67.838 6.089-111.113 37.244-77.888-41.945-85.751-47.886-19.804zm-49.334-22.495c1.448 48.27 17.292 71.385 41.649 91.042 0 0-16.494-47.797-5.291-80.903 20.159-59.562-37.807-58.38-36.358-10.139zM607.788 858.85s-4.73-11.676-13.805-31.776c-9.34-19.953-22.317-48.684-40.2-82.145-17.794-33.49-39.727-72.035-67.779-111.201-14.277-19.45-29.529-39.432-49.245-57.611-9.991-8.986-20.839-17.883-35.442-24.504-7.33-3.163-15.932-5.853-25.952-5.676-10.051.089-20.514 3.636-28.673 10.11-2.66 2.039-3.547 2.985-4.67 3.99-2.542 2.542-3.961 4.286-5.705 6.74-3.222 4.759-5.439 10.227-6.444 15.518-2.069 10.7-.266 19.627 1.862 27.313 4.612 15.341 11.765 27.076 19.036 38.279 14.75 22.11 31.717 40.496 48.3 57.906 33.461 34.466 67.129 63.256 96.599 87.081 29.352 23.943 55.098 42.181 72.863 55.187 17.942 12.828 28.613 19.656 28.613 19.656l19.155 12.267-8.513-21.134zm-93.88-86.904c-27.047-25.716-58.438-55.926-89.328-90.007-15.341-16.997-30.416-35.323-43.038-54.33-6.089-9.429-11.587-19.479-13.981-28.17-1.212-4.227-1.478-8.069-.976-9.695.207-.857.444-1.242.71-1.685.059-.089.709-.709.325-.443 1.153-1.124 2.513-2.365 2.424-2.158 3.34-2.572 7.685-3.34 16.464.236 8.277 3.577 17.263 10.228 25.569 17.677 16.73 15.134 32.16 33.106 46.142 51.137 28.022 36.269 51.698 72.833 71.769 104.255a3974.743 3974.743 0 0140.2 65.296c-15.104-13.775-34.288-31.54-56.28-52.113zm233.398-294.94c-14.129 37.628 8.454 69.05 29.411 46.467 22.347-24.121 14.721-94.087 29.411-122.316 0-.029-44.693 38.19-58.822 75.849z"/><path d="M617.926 398.201s45.875 20.573 85.869-39.993c0 0-42.329-49.393-101.151-3.518-58.823 45.876-42.329 104.669-129.972 125.863 0 0 49.926 27.519 98.225-2.956 49.393-31.185 47.029-79.396 47.029-79.396zM362.299 273.107c14.809-30.239 17.262-42.328 17.262-42.328s-61.955 1.566-70.587 39.993c-8.601 38.427 32.959 43.925 53.325 2.335z"/><path d="M549.704 365.273c54.093-84.687 125.862-99.969 167.009-59.975 41.175 39.993-2.365 82.322-2.365 82.322s57.049-32.929 20.011-90.569c-30.268-47.088-126.453-42.359-172.891-17.056-53.443 29.086-55.659 63.7-55.659 63.7-88.618 2.365-83.919 67.424-83.919 67.424-57.226-51.758-101.535-4.7-101.535-4.7 75.287 131.745 175.256 43.511 229.349-41.146zm-142.889-32.574c0-9.903-5.882-18.268-14.247-22.288 1.182-5.114 2.719-10.996 4.877-17.322 1.921.503 3.754 1.183 5.823 1.183 13.095 0 23.706-10.612 23.706-23.707 0-7.626-3.842-14.129-9.459-18.474 4.139-6.267 8.454-12.651 13.952-18.534.237-.325.591-.591.857-.916 2.809 1.36 5.853 2.247 9.164 2.247 11.794 0 21.371-9.578 21.371-21.372 0-2.66-.621-5.172-1.508-7.537 6.208-4.523 12.504-8.986 19.332-12.651 3.311 3.103 7.686 5.084 12.592 5.084 10.169 0 18.416-8.247 18.416-18.416 0-.325-.178-.591-.178-.916 7.272-2.424 14.307-5.321 21.46-7.36 2.956 4.641 7.892 7.863 13.804 7.863 8.365 0 15.016-6.267 16.199-14.337 2.66-.502 5.35-1.152 7.981-1.478 6.089-.62 11.557-1.152 17.173-1.744 2.336 4.759 7.124 8.129 12.77 8.129 6.414 0 11.646-4.286 13.449-10.079 9.459-.148 17.706.325 24.032.029 9.813 0 15.43.03 15.43.03h.354a3.874 3.874 0 003.873-3.813c.059-2.158-1.656-3.902-3.784-3.961 0 0-5.705-.119-15.666-.296-6.385.177-14.721-.414-24.239-.473-1.832-5.793-7.064-10.05-13.449-10.05-6.946 0-12.474 5.055-13.775 11.617-5.616.473-11.38.946-17.469 1.448-2.572.266-5.232.857-7.863 1.301-2.66-5.676-8.335-9.666-15.016-9.666-8.927 0-16.08 7.065-16.494 15.903-7.419 1.98-14.779 4.847-22.346 7.212-3.341-4.611-8.513-7.803-14.662-7.803-10.168 0-18.415 8.247-18.415 18.415 0 1.3.473 2.424.739 3.636-7.39 3.842-14.307 8.542-21.105 13.331-3.636-2.838-7.981-4.818-12.947-4.818-11.794 0-21.371 9.577-21.371 21.371 0 4.049 1.448 7.626 3.399 10.848-.355.414-.828.769-1.153 1.212-6.621 6.887-11.794 14.425-16.76 21.726-.798-.089-1.507-.473-2.335-.473-13.095 0-23.706 10.612-23.706 23.706 0 6.06 2.453 11.44 6.177 15.637-3.103 8.217-5.231 15.725-6.769 22.199-12.296 1.507-21.932 11.587-21.932 24.297 0 13.745 11.143 24.889 24.888 24.889 13.686.089 24.83-11.084 24.83-24.829zM518.341 80.234S374.063 44.941 336.405-82.873c-29.795 54.093 0 101.92 0 101.92-23.499 10.878-37.717 67.956 9.4 87.051 0 0-27.431 15.696-20.396 58.823 7.065 43.127 50.192 56.458 50.192 56.458s7.862-117.616 142.74-141.145z"/><path d="M750.173-473.91l-9.311-18.799c-3.458-6.651-7.271-11.706-10.848-17.558-4.759-8.129-10.553-15.726-16.376-23.204-26.514-43.807-78.45-97.87-176.881-111.024-50.546-6.74-101.772 8.956-137.036 51.167-35.885 42.919-58.971 107.447-16.819 165.117 47.442 64.882 137.538 49.954 157.372 10.73 26.012-51.404-8.808-103.516-53.502-108.807-44.693-5.292-65.266 20.573-65.266 20.573 28.82-87.052 111.142-97.043 159.382-88.205 48.211 8.809 102.334 51.758 109.96 95.861 7.094 40.909 31.865 29.706 45.285 25.066.798 1.684 1.596 3.31 2.424 5.025 1.537 3.31 3.192 6.621 4.818 9.931-11.558-.325-32.515 1.833-32.515 22.318 0 28.229 26.455 55.275 42.328 108.215 15.874 52.941-12.149 85.397-10.582 95.269 3.074 19.509 29.914 22.879 46.467 24.209-.207 4.198-.414 8.425-.621 12.592-.029.444-.148.887-.177 1.36-23.529-17.735-58.882 2.986-50.93 18.888 8.808 17.647 6.473 78.214-14.13 114.69-.236.413-.384.798-.62 1.212 4.463-19.362 2.157-43.955-18.386-69.051-28.229-34.495-64.291-42.358-64.291-42.358 47.826-145.046-30.594-222.698-30.594-222.698 5.498 52.556-3.133 92.52-26.662 260.327-16.908 120.69 24.889 196.095 49.748 229.083-8.631-4.375-17.174-8.986-25.835-13.39-16.582-25.894-52.083-87.23-54.477-141.204 0 0 22.553-30.387 12.355-67.247-10.197-36.86-24.12-57.64-29.588-79.396-28.318 127.4 24.091 233.015 51.847 277.56l-3.104-1.596c-38.959-32.22-54.98-57.197-54.98-57.197 6.266-55.66-24.593-104.344-47.827-131.745-35.293-41.56-39.993-76.853-39.993-76.853C426.945-91.533 485.974-6.639 525.17 37.108c-14.81-9.577-29.116-19.864-42.506-31.185-27.165-23.056-49.748-49.57-67.75-80.578-17.026-29.116-28.554-62.34-30.83-94.146-.65-15.962 0-31.746 3.872-46.555 3.961-14.721 9.902-28.555 17.972-40.644 8.306-11.913 18.297-22.051 29.234-30.357 10.878-7.597 23.943-14.396 35.146-17.588 11.824-3.458 23.47-3.902 33.195-.621 9.843 3.045 16.996 10.464 21.282 18.563 3.843 8.661 4.789 16.731 2.188 25.539-2.04 6.829-6.769 13.538-12.031 16.406-11.085 6.473-20.928 0-25.096-5.646-4.345-5.941-5.35-10.316-5.557-10.139-.946-2.778-3.99-4.227-6.769-3.31-2.778.945-4.256 3.99-3.31 6.739.325-.089 1.005 4.966 6.384 13.39 3.015 3.961 7.242 9.075 14.573 12.238 7.183 3.192 17.351 3.34 26.278-1.36 8.986-4.818 15.962-13.154 19.893-24.771 3.488-9.665 3.518-23.913-1.655-35.825-5.321-11.972-15.637-23.529-29.795-28.791-13.982-5.557-30.033-5.498-44.723-1.596-15.46 4.138-28.318 10.582-42.211 19.45-.65.473-1.212 1.064-1.862 1.537.266-1.094.591-1.921.828-3.074 2.305-10.937 3.576-24.564.414-39.373-2.927-14.779-11.854-30.239-24.594-40.791-5.971-5.084-13.508-9.962-22.287-12.799-8.75-2.749-19.391-2.927-28.407 1.064-9.045 3.783-15.814 10.611-20.011 17.853-4.138 7.331-6.178 15.253-5.971 22.82.207 7.538 2.483 14.632 5.971 20.012 3.429 5.438 7.744 9.104 11.351 11.439 3.635 2.365 6.71 3.606 8.749 4.316 2.069.709 3.133 1.093 3.133 1.093 6.356 2.069 13.184-1.419 15.253-7.774 2.069-6.355-1.419-13.183-7.774-15.223.443-.325-10.848-2.749-10.553-14.159-.236-5.704 3.813-13.715 10.021-15.991 3.015-1.212 6.562-1.419 10.907-.414 4.316 1.183 8.868 3.666 13.597 7.331 8.986 6.887 14.839 16.523 18.15 26.987 3.192 10.523 3.813 21.638 3.547 31.303-.444 9.518-1.656 17.647-2.631 23.352-4.641 4.818-9.223 9.725-13.331 15.223-9.991 13.981-17.558 30.091-22.702 47.354-5.025 17.321-6.562 35.736-6.148 54.24 2.483 37.186 14.543 73.189 33.786 106.827 18.061 31.983 43.422 62.754 72.302 87.525 28.879 25.273 61.601 44.959 94.145 61.955 3.134 1.656 6.208 3.074 9.341 4.7-5.202.65-10.553 1.774-16.021 3.163-11.705 2.601-23.706 6.858-35.412 11.646-23.47 9.577-44.752 23.175-59.886 34.23-15.105 11.025-24.239 19.982-24.239 19.982l-.089.088a5.19 5.19 0 00-.207 7.154c1.922 2.128 5.173 2.276 7.302.384 0 0 8.808-7.952 23.942-18.031 15.016-9.991 36.033-22.169 58.527-30.21 11.203-4.02 22.613-7.537 33.52-9.458 5.41-1.153 10.671-2.07 15.726-2.395 5.025-.502 9.754-1.182 14.129-1.005 4.375-.029 8.395-.088 11.942-.118.709.059 1.182.118 1.862.177 18.741 9.193 37.185 18.209 54.684 27.49 30.003 15.874 57.375 33.225 79.248 53.709 2.424 2.276 4.493 4.789 6.769 7.153-33.224-13.124-80.696-12.207-136.149 11.203-50.753 21.431-72.153 17.233-72.153 17.233 25.864 47.058 116.048 7.863 164.673 8.632 32.899.532 66.124 17.558 84.184 28.524 8.425 23.204 11.026 45.876 7.42 65.06-3.725 20.248-13.863 36.091-24.121 47.146-10.345 11.115-20.454 18.12-27.46 22.436-7.094 4.345-10.966 5.911-10.966 5.941-2.542 1.035-3.902 3.902-3.045 6.562.917 2.779 3.902 4.316 6.68 3.429l.178-.059s4.848-1.567 12.828-5.646c7.981-4.138 19.657-10.7 31.983-22.613 12.238-11.734 25.303-29.47 31.215-53.354 6.266-23.765 3.636-52.142-5.971-79.514-2.365-7.094-5.025-13.331-8.336-20.957-3.192-6.444-6.237-12.917-10.7-20.041-4.227-6.976-8.897-13.656-13.952-20.159-4.877-22.524-8.395-57.375 8.483-80.667 26.663-36.86 51.758-86.254 3.134-116.847 10.966 10.966-9.814 55.098-31.747 91.929-13.597 22.819-12.296 54.3-9.341 74.961-7.478-6.532-15.281-12.74-23.558-18.533 0-.059-.03-.118-.03-.207-.709-6.296-1.566-16.051-1.005-28.465.651-12.386 2.01-27.609 6.356-44.576 1.005-4.256 1.832-8.72 3.074-13.213 1.507-4.404 3.074-8.956 4.7-13.626 3.103-9.37 6.355-19.214 11.439-28.909 4.7-10.08 9.607-20.573 14.691-31.48 4.966-10.937 10.079-22.229 15.37-33.875 2.513-5.912 5.617-11.499 7.716-17.854 1.95-6.444 3.96-12.947 5.97-19.509 3.932-13.183 8.277-26.573 12.031-40.318 2.365-13.952 4.759-28.141 7.183-42.506 1.034-7.183 2.838-14.366 3.222-21.697.295-7.36.621-14.75.946-22.169.207-14.839 2.128-29.796.946-44.782a28247.164 28247.164 0 00-3.695-45.018c-.296-7.538-1.567-14.957-3.311-22.318l-4.582-22.08c-3.133-14.662-5.527-29.471-11.084-43.304-4.818-14.011-9.607-27.934-14.307-41.679-5.734-13.242-12.622-25.864-18.711-38.604zM709.5 36.516a3348.123 3348.123 0 00-5.055 14.396c-1.359 4.759-2.305 9.518-3.429 14.04-4.788 18.06-6.443 34.496-7.242 47.975a186.41 186.41 0 00-.147 16.612 495.687 495.687 0 00-13.775-8.188c-15.311-27.963-43.333-88.234-37.569-146.968 7.862-79.987 74.489-58.024 42.358-19.597 0 0-5.469 29.795 13.331 24.297 4.434-1.3 12.119-8.838 18.12-20.396-2.277 15.46 7.064 23.145 16.021 26.042-3.459 7.242-6.947 14.543-10.228 21.43-5.439 10.05-9.015 20.455-12.385 30.357z"/></g></g></svg>