<svg xmlns="http://www.w3.org/2000/svg" width="31" height="31" fill="none"><g clip-path="url(#clip0_363_4623)" fill="#fff"><path d="M15.45 15.45c2.05 0 3.8-.725 5.25-2.175 1.45-1.45 2.175-3.2 2.175-5.25s-.725-3.8-2.175-5.25C19.25 1.325 17.5.6 15.45.6s-3.8.725-5.25 2.175c-1.45 1.45-2.175 3.2-2.175 5.25s.725 3.8 2.175 5.25c1.45 1.45 3.2 2.175 5.25 2.175z"/><path d="M28.996 23.29a19.789 19.789 0 00-.27-2.107 16.396 16.396 0 00-.513-2.098 9.953 9.953 0 00-.832-1.885 6.79 6.79 0 00-1.199-1.567A5.047 5.047 0 0024.53 14.6a5.813 5.813 0 00-2.156-.387c-.116 0-.387.139-.812.416-.425.277-.905.587-1.44.928-.535.342-1.232.651-2.089.928a8.346 8.346 0 01-2.581.416 8.345 8.345 0 01-2.582-.416c-.857-.277-1.553-.586-2.088-.928-.535-.341-1.015-.65-1.44-.928-.426-.277-.696-.416-.812-.416a5.82 5.82 0 00-2.156.387 5.046 5.046 0 00-1.654 1.034A6.8 6.8 0 003.521 17.2a9.966 9.966 0 00-.832 1.885 16.395 16.395 0 00-.512 2.098 19.68 19.68 0 00-.27 2.108 28.975 28.975 0 00-.069 2.001c0 1.547.471 2.768 1.412 3.664.941.896 2.192 1.344 3.751 1.344h16.9c1.56 0 2.81-.448 3.752-1.344.941-.895 1.411-2.117 1.411-3.664 0-.683-.022-1.35-.068-2.001z"/></g><defs><clipPath id="clip0_363_4623"><path fill="#fff" transform="translate(.6 .6)" d="M0 0h29.7v29.7H0z"/></clipPath></defs></svg>