<svg width="64" height="64" fill="none" xmlns="http://www.w3.org/2000/svg"><mask id="a" style="mask-type:alpha" maskUnits="userSpaceOnUse" x="0" y="0" width="64" height="64"><path fill="#D9D9D9" d="M0 0h64v64H0z"/></mask><g mask="url(#a)"><path d="M46.8 24.467L56.2 15c.533-.533 1.167-.8 1.9-.8.733 0 1.367.267 1.9.8.533.534.8 1.167.8 1.9 0 .734-.267 1.367-.8 1.9L48.667 30.134c-.534.533-1.156.8-1.867.8-.711 0-1.333-.267-1.867-.8l-5.666-5.667c-.534-.533-.8-1.167-.8-1.9 0-.733.266-1.367.8-1.9.533-.533 1.155-.8 1.866-.8.711 0 1.334.267 1.867.8l3.8 3.8zM24 32c-2.933 0-5.445-1.044-7.533-3.133-2.09-2.089-3.134-4.6-3.134-7.533 0-2.934 1.045-5.445 3.134-7.534 2.088-2.089 4.6-3.133 7.533-3.133 2.933 0 5.444 1.044 7.533 3.133 2.09 2.09 3.134 4.6 3.134 7.534 0 2.933-1.045 5.444-3.134 7.533C29.444 30.956 26.933 32 24 32zM2.667 48v-2.133c0-1.511.389-2.9 1.166-4.167a7.777 7.777 0 013.1-2.9c2.756-1.377 5.556-2.41 8.4-3.1A36.689 36.689 0 0124 34.667c2.933 0 5.822.344 8.667 1.033a39.657 39.657 0 018.4 3.1 7.777 7.777 0 013.1 2.9 7.811 7.811 0 011.166 4.167V48c0 1.467-.522 2.722-1.566 3.767-1.045 1.044-2.3 1.567-3.767 1.567H8c-1.467 0-2.722-.523-3.767-1.567-1.044-1.045-1.566-2.3-1.566-3.767z" fill="#004F9F"/></g></svg>