<svg width="65" height="64" fill="none" xmlns="http://www.w3.org/2000/svg"><mask id="a" style="mask-type:alpha" maskUnits="userSpaceOnUse" x="0" y="0" width="65" height="64"><path fill="#D9D9D9" d="M.333 0h64v64h-64z"/></mask><g mask="url(#a)"><path d="M11 53.334c-1.467 0-2.722-.523-3.767-1.567-1.044-1.045-1.566-2.3-1.566-3.767V16c0-1.466.522-2.722 1.566-3.766 1.045-1.045 2.3-1.567 3.767-1.567h42.667c1.466 0 2.722.522 3.766 1.567C58.478 13.278 59 14.534 59 16v11.6L42.933 43.667 39.067 39.8c-1.023-1.022-2.29-1.533-3.8-1.533-1.511 0-2.778.511-3.8 1.533L27.8 43.467c-1.022 1.022-1.533 2.289-1.533 3.8 0 1.511.51 2.778 1.533 3.8l2.267 2.267H11zm21.333-24l-17.866-11.2c-.756-.49-1.523-.512-2.3-.067-.778.444-1.167 1.111-1.167 2 0 .4.089.767.267 1.1.178.333.444.611.8.833l18.866 11.8c.445.267.912.4 1.4.4a2.68 2.68 0 001.4-.4L52.6 22c.356-.222.622-.5.8-.833a2.3 2.3 0 00.267-1.1c0-.889-.39-1.556-1.167-2-.778-.445-1.544-.422-2.3.067l-17.867 11.2zM42.867 51.2l13.2-13.2c.489-.489 1.11-.733 1.866-.733s1.378.244 1.867.733c.489.49.733 1.111.733 1.867s-.244 1.378-.733 1.867L44.733 56.8c-.533.534-1.155.8-1.866.8-.711 0-1.334-.266-1.867-.8l-7.6-7.6c-.489-.489-.733-1.11-.733-1.866s.244-1.378.733-1.867c.489-.489 1.111-.733 1.867-.733.755 0 1.377.244 1.866.733l5.734 5.733z" fill="#004F9F"/></g></svg>