<svg width="65" height="64" fill="none" xmlns="http://www.w3.org/2000/svg"><mask id="a" style="mask-type:alpha" maskUnits="userSpaceOnUse" x="0" y="0" width="65" height="64"><path fill="#D9D9D9" d="M.667 0h64v64h-64z"/></mask><g mask="url(#a)"><path d="M14 56c-1.467 0-2.722-.522-3.767-1.566-1.044-1.045-1.566-2.3-1.566-3.767V13.334c0-1.467.522-2.723 1.566-3.767C11.278 8.523 12.533 8 14 8h11.2c.622-1.6 1.6-2.889 2.933-3.866 1.334-.978 2.845-1.467 4.534-1.467 1.688 0 3.2.489 4.533 1.467C38.533 5.11 39.511 6.4 40.133 8h11.2c1.467 0 2.723.523 3.767 1.567s1.567 2.3 1.567 3.767v37.333c0 1.467-.523 2.722-1.567 3.767C54.056 55.478 52.8 56 51.333 56H14zm18.667-44.666c.577 0 1.055-.19 1.433-.567.378-.378.567-.856.567-1.433 0-.578-.19-1.056-.567-1.434-.378-.377-.856-.566-1.433-.566-.578 0-1.056.189-1.434.566-.378.378-.566.856-.566 1.434 0 .577.188 1.055.566 1.433.378.378.856.567 1.434.567zm0 23.333c2.577 0 4.777-.911 6.6-2.733C41.089 30.11 42 27.91 42 25.334c0-2.578-.911-4.778-2.733-6.6C37.444 16.91 35.244 16 32.667 16c-2.578 0-4.778.911-6.6 2.734-1.823 1.822-2.734 4.022-2.734 6.6 0 2.577.911 4.777 2.734 6.6 1.822 1.822 4.022 2.733 6.6 2.733zM14 50.667h37.333V47.6c-2.4-2.355-5.189-4.21-8.366-5.566C39.789 40.678 36.356 40 32.667 40c-3.69 0-7.123.678-10.3 2.034C19.189 43.389 16.4 45.244 14 47.6v3.067z" fill="#004F9F"/></g></svg>