<svg width="663" height="3615" fill="none" xmlns="http://www.w3.org/2000/svg"><path d="M89.457 3345.48c17.606-46.99-10.557-86.23-36.726-58.03-27.905 30.12-18.345 117.5-36.727 152.75 0 .04 55.846-47.73 73.453-94.72zm246.749 139.54c-67.547 105.76-157.167 124.84-208.547 74.9-51.38-49.95 2.953-102.81 2.953-102.81s-71.238 41.12-24.989 113.1c37.797 58.81 157.905 52.87 215.892 21.3 66.735-36.32 69.504-79.55 69.504-79.55 110.659-2.95 104.79-84.24 104.79-84.24 71.459 64.64 126.789 5.87 126.789 5.87-93.975-164.49-218.845-54.34-286.392 51.43z" fill="#0069B4" fill-opacity=".04"/><path d="M573.58 3302.25c-17.643 46.99 10.557 86.23 36.726 58.03 27.905-30.12 18.382-117.5 36.727-152.75-.037 0-55.847 47.73-73.453 94.72zm-161.56-98.41s57.286 25.69 107.226-49.95c0 0-52.857-61.68-126.309-4.39-73.453 57.29-52.857 130.71-162.298 157.18 0 0 62.343 34.37 122.655-3.69 61.642-38.91 58.726-99.15 58.726-99.15zM92.815 3047.65c18.493-37.76 21.556-52.9 21.556-52.9s-77.365 1.96-88.143 49.95c-10.778 47.99 41.119 54.85 66.587 2.95zM65.39 2482.63c-39.79-28.9-59.02 28.95-21.408 72.87 27.314 31.94 40.012 40.72 40.012 40.72s21.187-84.72-18.603-113.59zm-32.334-854.87c-49.128 2.25-46.027 64.64 26.429 82.25 73.157 17.79 123.356 39.17 123.356 39.17s-85.154-124.37-149.785-121.42zm354.492 409.31c0-25.43-20.596-46.03-46.028-46.03-25.431 0-46.027 20.6-46.027 46.03 0 25.44 20.596 46.04 46.027 46.04 25.395 0 46.028-20.64 46.028-46.04zm22.517 117.5c23.254 0 42.115-18.86 42.115-42.12 0-23.25-18.861-42.08-42.115-42.08s-42.116 18.86-42.116 42.08c0 23.26 18.862 42.12 42.116 42.12zm23.476 31.34c0 18.94 15.355 34.26 34.253 34.26 18.935 0 34.253-15.36 34.253-34.26 0-18.93-15.355-34.25-34.253-34.25s-34.253 15.35-34.253 34.25zm66.586 106.72c16.758 0 30.341-13.58 30.341-30.34 0-16.76-13.583-30.34-30.341-30.34-16.758 0-30.341 13.58-30.341 30.34 0 16.76 13.583 30.34 30.341 30.34zm10.778 69.51c14.58 0 26.428-11.85 26.428-26.43s-11.811-26.43-26.428-26.43c-14.58 0-26.428 11.85-26.428 26.43 0 14.62 11.848 26.43 26.428 26.43zm-.997 57.81c12.439 0 22.516-10.07 22.516-22.52 0-12.44-10.077-22.51-22.516-22.51-12.439 0-22.515 10.07-22.515 22.51.037 12.45 10.076 22.52 22.515 22.52z" fill="#0069B4" fill-opacity=".04"/><path d="M326.829 3162.71c67.547-105.76 157.167-124.84 208.547-74.9 51.38 49.95-2.953 102.81-2.953 102.81s71.238-41.12 24.989-113.11c-37.797-58.8-157.905-52.86-215.892-21.3-66.735 36.33-69.503 79.56-69.503 79.56-110.659 2.95-104.79 84.2-104.79 84.2-71.46-64.64-126.79-5.87-126.79-5.87 93.976 164.53 218.808 54.37 286.392-51.39zm-178.463-40.64c0-12.37-7.345-22.81-17.791-27.83 1.476-6.39 3.396-13.74 6.09-21.63 2.399.62 4.688 1.47 7.272 1.47 16.351 0 29.602-13.25 29.602-29.6 0-9.53-4.798-17.65-11.811-23.08 5.167-7.82 10.556-15.8 17.422-23.14.332-.41.738-.74 1.07-1.15 3.507 1.7 7.309 2.81 11.443 2.81 14.727 0 26.686-11.96 26.686-26.69 0-3.32-.775-6.46-1.882-9.41 7.751-5.65 15.613-11.22 24.14-15.84 4.134 3.88 9.596 6.35 15.724 6.35 12.697 0 22.995-10.3 22.995-23 0-.4-.221-.74-.221-1.14 9.08-3.03 17.865-6.65 26.797-9.19 3.691 5.79 9.855 9.85 17.237 9.85 10.446 0 18.751-7.82 20.228-17.9 3.322-.67 6.68-1.44 9.966-1.85 7.603-.77 14.432-1.44 21.445-2.17 2.916 5.98 8.895 10.15 15.945 10.15 8.01 0 14.543-5.36 16.795-12.59 11.811-.19 22.109.41 30.008.04 12.255 0 19.268.03 19.268.03h.443c2.621 0 4.798-2.1 4.835-4.76.074-2.66-2.067-4.87-4.724-4.95 0 0-7.124-.14-19.563-.36-7.973.22-18.382-.52-30.267-.56-2.289-7.23-8.822-12.59-16.795-12.59-8.674 0-15.576 6.32-17.2 14.51-7.013.59-14.211 1.18-21.815 1.81-3.211.33-6.533 1.07-9.818 1.62-3.322-7.08-10.409-12.07-18.751-12.07-11.147 0-20.079 8.83-20.596 19.86-9.265 2.51-18.455 6.06-27.905 9.01-4.171-5.76-10.63-9.75-18.307-9.75-12.698 0-22.996 10.3-22.996 23 0 1.63.591 3.03.923 4.54-9.228 4.8-17.865 10.67-26.355 16.65-4.54-3.54-9.965-6.02-16.167-6.02-14.727 0-26.686 11.96-26.686 26.69 0 5.06 1.808 9.53 4.245 13.55-.443.52-1.034.96-1.44 1.52-8.268 8.6-14.727 18.01-20.928 27.13-.997-.11-1.883-.59-2.917-.59-16.351 0-29.602 13.25-29.602 29.6 0 7.57 3.063 14.33 7.714 19.53-3.875 10.26-6.533 19.68-8.452 27.72-15.355 1.92-27.388 14.47-27.388 30.35 0 17.16 13.915 31.08 31.079 31.08 17.09.07 31.005-13.84 31.005-31.01zm139.303-315.32s-180.163-44.08-227.187-203.7c-37.207 67.55 0 127.32 0 127.32-29.345 13.58-47.099 84.87 11.737 108.68 0 0-34.253 19.6-25.468 73.46 8.821 53.85 62.674 70.5 62.674 70.5s9.819-146.88 178.244-176.26z" fill="#0069B4" fill-opacity=".04"/><path d="M577.123 2114.74c-3.913-7.9-7.789-15.72-11.627-23.48-4.319-8.3-9.08-14.61-13.547-21.92-5.942-10.16-13.177-19.68-20.448-29.02-33.109-54.71-97.962-122.22-220.875-138.65-63.118-8.42-127.085 11.18-171.119 63.9-44.81 53.6-73.638 134.18-21.003 206.2 59.242 81.03 171.747 62.39 196.514 13.4 32.482-64.19-10.999-129.27-66.809-135.88-55.809-6.61-81.499 25.69-81.499 25.69 35.988-108.67 138.785-121.19 199.024-110.15 60.238 11 127.785 64.64 137.308 119.72 8.859 51.09 39.79 37.09 56.548 31.3.997 2.1 1.993 4.13 3.027 6.27 1.919 4.14 3.986 8.27 6.016 12.41-14.432-.41-40.602 2.29-40.602 27.87 0 35.25 33.036 69.03 52.857 135.14 19.821 66.12-15.171 106.65-13.214 118.98 3.838 24.36 37.353 28.57 58.023 30.23-.258 5.24-.516 10.52-.775 15.73-.036.55-.184 1.11-.221 1.7-29.381-22.15-73.527 3.72-63.598 23.58 11 22.04 8.084 97.68-17.643 143.23-.295.52-.48 1-.775 1.52 5.573-24.18 2.694-54.89-22.959-86.24-35.25-43.07-80.281-52.89-80.281-52.89 59.722-181.14-38.203-278.12-38.203-278.12 6.865 65.63-3.912 115.54-33.294 325.11-21.113 150.72 31.079 244.89 62.121 286.09-10.778-5.5-21.445-11.23-32.26-16.73-20.707-32.33-65.037-108.89-68.027-176.34 0 0 28.163-37.95 15.429-83.98s-30.119-71.98-36.948-99.15c-35.36 159.1 30.12 291 64.742 346.63-1.292-.67-2.583-1.33-3.875-1.99-48.649-40.24-68.655-71.43-68.655-71.43 7.825-69.55-30.71-130.31-59.722-164.53-44.071-51.91-49.94-95.98-49.94-95.98-17.311 129.27 56.4 235.29 105.344 289.93-18.493-11.96-36.358-24.81-53.078-38.95-33.922-28.79-62.121-61.87-84.6-100.63-21.261-36.36-35.656-77.85-38.498-117.57-.812-19.94 0-39.65 4.835-58.14 4.946-18.39 12.365-35.66 22.442-50.76 10.372-14.88 22.848-27.54 36.505-37.91 13.583-9.49 29.898-17.98 43.887-21.97 14.764-4.31 29.307-4.87 41.451-.77 12.291 3.8 21.224 13.07 26.576 23.18 4.798 10.82 5.979 20.9 2.731 31.9-2.547 8.52-8.453 16.9-15.023 20.48-13.841 8.09-26.133 0-31.337-7.05-5.426-7.42-6.681-12.88-6.939-12.66-1.181-3.47-4.983-5.31-8.453-4.13-3.469 1.18-5.315 4.98-4.134 8.41.406-.11 1.255 6.2 7.973 16.73 3.765 4.94 9.043 11.33 18.197 15.28 8.969 3.95 21.667 4.17 32.814-1.7 11.221-6.02 19.932-16.43 24.841-30.93 4.355-12.08 4.392-29.87-2.067-44.75-6.644-14.95-19.526-29.38-37.206-35.95-17.459-6.94-37.502-6.87-55.847-1.96-19.304 5.17-35.36 13.18-52.709 24.29-.812.56-1.513 1.33-2.325 1.92.332-1.36.738-2.4 1.034-3.84 2.879-13.65 4.466-30.67.516-49.17-3.654-18.45-14.801-37.76-30.709-50.94-7.456-6.35-16.869-12.44-27.831-15.98-10.926-3.47-24.214-3.66-35.472 1.33-11.295 4.72-19.747 13.25-24.989 22.29-5.167 9.16-7.714 19.05-7.456 28.5.259 9.41 3.1 18.27 7.456 24.99 4.282 6.79 9.671 11.37 14.174 14.29 4.54 2.95 8.38 4.5 10.926 5.39 2.584.88 3.913 1.36 3.913 1.36 7.935 2.59 16.462-1.77 19.046-9.71 2.583-7.93-1.772-16.46-9.708-19.01.554-.4-13.546-3.43-13.177-17.68-.296-7.12 4.761-17.13 12.513-19.97 3.764-1.51 8.194-1.77 13.62-.52 5.389 1.48 11.073 4.58 16.979 9.16 11.221 8.6 18.529 20.63 22.663 33.7 3.986 13.14 4.762 27.02 4.429 39.09-.553 11.89-2.067 22.04-3.285 29.17-5.795 6.01-11.516 12.14-16.647 19.01-12.476 17.46-21.925 37.58-28.347 59.1-6.275 21.63-8.194 44.63-7.677 67.74 3.1 46.44 18.16 91.4 42.189 133.41 22.552 39.94 54.222 78.37 90.284 109.3 36.062 31.56 76.922 56.15 117.561 77.37 3.913 2.07 7.751 3.84 11.664 5.87-6.496.82-13.177 2.22-20.006 3.95-14.616 3.25-29.602 8.57-44.219 14.55-29.307 11.96-55.883 28.94-74.782 42.75-18.861 13.76-30.267 24.95-30.267 24.95l-.11.11c-2.437 2.4-2.584 6.35-.259 8.93 2.399 2.66 6.46 2.85 9.117.48 0 0 11-9.93 29.898-22.55 18.751-12.48 44.995-27.69 73.084-37.73 13.989-5.06 28.237-9.41 41.857-11.81 6.755-1.44 13.325-2.58 19.636-2.99 6.275-.63 12.181-1.48 17.644-1.26 5.463-.03 10.483-.07 14.912-.11.886.08 1.476.15 2.325.22 23.402 11.49 46.434 22.74 68.286 34.34 37.464 19.82 71.644 41.49 98.958 67.07 3.027 2.84 5.61 5.98 8.452 8.93-41.34-16.42-100.619-15.24-169.901 13.99-63.376 26.77-90.099 21.52-90.099 21.52 32.297 58.77 144.912 9.79 205.631 10.78 41.082.67 82.569 21.93 105.122 35.63 10.52 28.97 13.805 57.29 9.265 81.25-4.651 25.28-17.311 45.07-30.12 58.91-12.918 13.88-25.542 22.63-34.29 28.02-8.859 5.43-13.694 7.38-13.694 7.42-3.174 1.29-4.872 4.87-3.802 8.19 1.145 3.47 4.873 5.39 8.342 4.29l.222-.08s6.053-1.95 16.019-7.05c9.966-5.17 24.546-13.36 39.938-28.24 15.281-14.65 31.595-36.8 38.977-66.63 7.826-29.68 4.541-65.15-7.455-99.3-2.953-8.86-6.275-16.65-10.409-26.17-3.987-8.05-7.788-16.13-13.362-25.03-5.278-8.71-11.11-17.05-17.422-25.18-6.09-28.12-10.483-71.65 10.593-100.74 33.294-46.03 64.631-107.71 3.913-145.92 13.694 13.7-12.255 68.81-39.642 114.84-16.98 28.5-15.355 67.81-11.664 93.62-9.339-8.16-19.083-15.91-29.418-23.15 0-.07-.037-.15-.037-.26-.886-7.86-1.956-20.04-1.255-35.54.812-15.47 2.51-34.48 7.936-55.71 1.255-5.31 2.288-10.85 3.838-16.46 1.883-5.5 3.839-11.19 5.869-17.02 3.876-11.7 7.936-24 14.285-36.1 5.869-12.59 11.996-25.7 18.345-39.28 6.201-13.66 12.586-27.76 19.193-42.3 3.138-7.39 7.013-14.4 9.634-22.3 2.436-8.05 4.946-16.17 7.456-24.37 4.909-16.46 10.335-33.18 15.023-50.35 2.953-17.42 5.942-35.14 8.969-53.08 1.292-8.97 3.544-17.94 4.023-27.1.369-9.19.776-18.38 1.182-27.68.258-18.53 2.657-37.21 1.181-55.93-1.514-18.68-3.064-37.47-4.614-56.22-.369-9.41-1.956-18.68-4.134-27.87l-5.721-27.57c-3.913-18.31-6.903-36.81-13.842-54.08-6.016-17.5-11.996-34.89-17.865-52.05-7.271-16.62-15.872-32.42-23.475-48.29zm-50.79 637.41a3594.53 3594.53 0 00-6.311 17.98c-1.698 5.94-2.88 11.88-4.282 17.53-5.98 22.55-8.047 43.08-9.043 59.91a233.39 233.39 0 00-.185 20.75 631.395 631.395 0 00-17.2-10.23c-19.12-34.92-54.112-110.19-46.914-183.54 9.781-99.89 93.015-72.46 52.856-24.47 0 0-6.828 37.21 16.647 30.34 5.537-1.62 15.134-11.03 22.627-25.47-2.843 19.31 8.821 28.91 20.005 32.52-4.318 9.05-8.674 18.17-12.771 26.77-6.718 12.58-11.221 25.54-15.429 37.91zm-81.019-881.56c154.879 170.88 181.122 306.5 181.122 306.5s64.632-85.94 22.036-215.91c-42.595-129.98-206.369-171.88-206.369-171.88s38.203-24.95 15.429-83.72c-22.774-58.77-89.583-120.93-89.583-120.93s41.119-9.79 56.806-46.04c11.664-26.98 1.034-68.51 38.203-77.37 30.857-7.35 45.031 17.61 45.031 17.61-22.995 1.48-24.472 22.52-15.65 41.12 8.822 18.61 53.853 28.39 60.718-20.56 6.866-48.99-57.765-90.11-121.4-76.38-126.641 27.32-166.542 248.77 13.657 447.56zm-137.935-23.55c-5.463-6.61-12.254-14.51-21.113-22.56-8.637-8.16-19.083-16.83-31.3-24.95-12.07-8.46-25.986-15.99-41.747-23.41-14.58-6.35-32.038-12.99-49.977-17.24-18.197-4.35-37.908-6.9-58.91-5.16-10.446 1.03-21.26 2.88-32.112 7.49-10.668 4.61-22.036 11.26-30.304 23.85-8.785 12.36-9.117 32.41-1.292 45.03 7.271 13.07 17.902 20.45 27.83 25.7 20.302 10.29 40.307 12.77 59.058 13.99 18.714.99 37.022-.45 53.115-2.29 7.567-.56 14.949-1.11 22.11-1.63 7.234.08 14.247.19 20.965.26 27.056 1.4 49.682 5.65 65.296 9.05 15.65 3.65 24.25 6.38 24.25 6.38l24.398 7.83-18.418-26.47c-2.842-3.54-6.165-9.52-11.849-15.87zm-81.684-4.77c-7.308-.62-14.875-1.29-22.737-1.95-7.973.03-16.241.03-24.73.03-15.983.63-31.707.63-47.984-1.4-15.946-2.07-32.593-6.05-44.737-13.62-6.053-3.62-10.593-8.38-11.959-12-1.513-3.76-.442-4.8.776-8.3 3.506-7.61 18.787-15.4 34.142-17.39 15.687-2.51 32.555-1.73 48.686 1 16.499 2.77 31.226 7.2 46.581 12.62 13.694 5.39 27.13 11.41 38.609 18.31 11.664 6.61 21.704 13.81 30.083 20.71 6.57 5.21 11.774 10.52 16.388 15.21-15.724-4.5-37.022-9.97-63.118-13.22z" fill="#0069B4" fill-opacity=".04"/><path d="M493.04 1593.65c-5.685 15.18-4.282 28.8-1.735 40.24 5.574 23.07 16.979 40.16 28.385 55.48 11.59 15.1 24.767 28.28 36.652 39.32 5.315 5.31 10.446 10.48 15.429 15.5 4.614 5.5 9.043 10.82 13.325 15.95 16.425 21.23 27.868 41.05 35.434 55.08 3.507 7.08 6.275 12.62 8.158 16.42 1.771 3.92 2.694 5.98 2.694 5.98l12.292 27.14 9.596-34.78c.997-4.46 3.507-10.92 4.799-19.45 1.587-8.49 3.322-18.9 3.875-30.94.775-11.99.776-25.69-.849-40.46-1.218-14.83-4.318-30.49-8.821-47.65-4.393-15.25-10.557-33.26-18.862-49.95-8.415-17.02-19.23-34.14-34.438-49.54-7.714-7.64-16.314-14.95-27.314-20.6-10.852-5.46-23.955-10.26-40.233-8.38-16.277 1.15-33.441 15.25-38.387 30.64zm77.476 28.98c11.664 9.86 21.888 22.89 30.23 36.7 8.527 14.17 14.654 27.87 20.523 43.11 4.724 13.62 8.932 27.61 11.073 40.68 2.584 13 3.617 25.18 3.839 35.92.184 4.69-.333 9.01-.517 13.14-6.386-13.8-14.691-30.67-26.465-49.13-4.208-6.06-8.601-12.41-13.141-18.94-5.167-6.2-10.519-12.62-16.019-19.23-10.667-11.93-20.486-23.81-29.16-37.43-8.415-13.37-15.724-28.46-17.385-41.68-.996-6.5-.074-12.29 1.44-14.47 1.587-2.36 1.439-.74 3.58-2.11 5.574-2.21 20.966 3.36 32.002 13.44zm-458.137 344.42c16.905-49.21 80.06-73.43 80.06-73.43-47.726 1.48-87.406-2.95-133.655 52.86-46.212 55.78 23.217 109.09 53.595 20.57zm152.071-470.78c-7.456 82.47 14.838 125.03 52.192 163.5 0 0-18.271-84.72 7.604-138.76 46.507-97.27-52.377-107.13-59.796-24.74zm-61.568-28.13c1.809 60.29 21.593 89.15 52.008 113.7 0 0-20.596-59.69-6.607-101.03 25.136-74.39-47.246-72.87-45.401-12.67zm196.441 411.2s-5.906-14.58-17.238-39.69c-11.664-24.91-27.868-60.8-50.199-102.58-22.22-41.83-49.608-89.96-84.637-138.88-17.828-24.29-36.874-49.24-61.493-71.94-12.476-11.22-26.023-22.34-44.257-30.6-9.153-3.95-19.894-7.31-32.407-7.09-12.55.11-25.617 4.54-35.804 12.62-3.322 2.55-4.43 3.73-5.832 4.99-3.174 3.17-4.946 5.35-7.124 8.41-4.023 5.95-6.791 12.78-8.046 19.38-2.584 13.37-.332 24.51 2.325 34.11 5.758 19.16 14.69 33.82 23.77 47.81 18.42 27.61 39.606 50.57 60.313 72.31 41.783 43.05 83.825 79 120.625 108.75 36.653 29.9 68.802 52.68 90.986 68.92 22.405 16.02 35.73 24.55 35.73 24.55l23.918 15.32-10.63-26.39zM282.13 1770.81c-33.773-32.12-72.973-69.85-111.545-112.41-19.156-21.22-37.981-44.11-53.742-67.85-7.604-11.77-14.469-24.32-17.459-35.18-1.513-5.28-1.845-10.07-1.218-12.1.258-1.08.554-1.56.886-2.11.074-.11.886-.88.406-.55 1.44-1.41 3.137-2.96 3.027-2.7 4.17-3.21 9.596-4.17 20.559.3 10.335 4.46 21.556 12.77 31.928 22.07 20.892 18.9 40.159 41.35 57.618 63.87 34.992 45.29 64.557 90.95 89.62 130.19a4965.503 4965.503 0 0150.199 81.55c-18.899-17.2-42.854-39.39-70.279-65.08zm291.45-368.37c-17.643 46.99 10.557 86.23 36.726 58.03 27.905-30.13 18.382-117.5 36.727-152.76-.037 0-55.847 47.73-73.453 94.73z" fill="#0069B4" fill-opacity=".04"/><path d="M412.02 1304.02s57.286 25.69 107.226-49.94c0 0-52.857-61.69-126.309-4.4-73.453 57.29-52.857 130.72-162.298 157.19 0 0 62.343 34.36 122.655-3.7 61.642-38.9 58.726-99.15 58.726-99.15zM92.815 1147.84c18.493-37.77 21.556-52.87 21.556-52.87s-77.365 1.96-88.143 49.95c-10.778 47.95 41.119 54.82 66.587 2.92z" fill="#0069B4" fill-opacity=".04"/><path d="M326.829 1262.9c67.547-105.76 157.167-124.85 208.547-74.9 51.417 49.94-2.953 102.81-2.953 102.81s71.238-41.13 24.989-113.11c-37.797-58.81-157.905-52.9-215.892-21.3-66.735 36.32-69.503 79.55-69.503 79.55-110.659 2.95-104.79 84.24-104.79 84.24-71.46-64.64-126.79-5.87-126.79-5.87 93.976 164.53 218.808 54.34 286.392-51.42zm-178.464-40.64c0-12.37-7.345-22.82-17.791-27.84 1.477-6.38 3.396-13.73 6.09-21.63 2.4.63 4.688 1.48 7.272 1.48 16.352 0 29.602-13.26 29.602-29.61 0-9.52-4.798-17.64-11.811-23.07 5.168-7.83 10.557-15.8 17.422-23.15.332-.4.738-.73 1.07-1.14 3.507 1.7 7.309 2.8 11.443 2.8 14.727 0 26.686-11.96 26.686-26.68 0-3.33-.775-6.46-1.882-9.42 7.751-5.65 15.613-11.22 24.14-15.8 4.134 3.88 9.597 6.35 15.724 6.35 12.697 0 22.995-10.3 22.995-23 0-.4-.221-.73-.221-1.14 9.08-3.03 17.865-6.65 26.797-9.19 3.691 5.79 9.856 9.82 17.238 9.82 10.445 0 18.75-7.83 20.227-17.91 3.322-.62 6.681-1.44 9.966-1.84 7.603-.78 14.432-1.44 21.445-2.18 2.916 5.94 8.896 10.15 15.946 10.15 8.009 0 14.543-5.35 16.794-12.59 11.812-.18 22.11.41 30.009.04 12.254 0 19.267.04 19.267.04h.443c2.621 0 4.799-2.11 4.836-4.76.073-2.7-2.068-4.878-4.725-4.951 0 0-7.124-.148-19.563-.37-7.973.222-18.382-.516-30.267-.59-2.288-7.235-8.822-12.551-16.794-12.551-8.674 0-15.577 6.312-17.201 14.507-7.013.591-14.211 1.182-21.814 1.809-3.212.336-6.533 1.066-9.818 1.626-3.322-7.089-10.409-12.073-18.751-12.073-11.147 0-20.08 8.823-20.597 19.863-9.264 2.47-18.455 6.05-27.904 9-4.171-5.75-10.631-9.74-18.308-9.74-12.697 0-22.996 10.3-22.996 23 0 1.62.591 3.02.923 4.54-9.228 4.8-17.865 10.67-26.354 16.65-4.54-3.55-9.966-6.02-16.167-6.02-14.728 0-26.687 11.96-26.687 26.69 0 5.06 1.809 9.52 4.245 13.55-.443.51-1.034.96-1.44 1.51-8.268 8.6-14.727 18.01-20.928 27.13-.997-.11-1.883-.59-2.916-.59-16.352 0-29.603 13.25-29.603 29.61 0 7.56 3.064 14.28 7.715 19.52-3.876 10.27-6.534 19.64-8.453 27.73-15.429 1.99-27.462 14.54-27.462 30.42 0 17.16 13.916 31.08 31.079 31.08 17.164 0 31.079-13.92 31.079-31.08z" fill="#0069B4" fill-opacity=".04"/><path d="M577.123 214.926l-11.627-23.478c-4.318-8.305-9.08-14.618-13.546-21.927-5.942-10.152-13.177-19.639-20.448-28.978C498.392 85.835 433.54 18.318 310.626 1.891c-63.117-8.453-127.084 11.185-171.119 63.9-44.81 53.6-73.637 134.185-21.002 206.205 59.242 81.028 171.747 62.386 196.514 13.4 32.481-64.194-11-129.275-66.809-135.883-55.809-6.608-81.499 25.693-81.499 25.693C202.699 66.492 305.496 54.015 365.734 65.052c60.239 11 127.786 64.638 137.309 119.715 8.859 51.09 39.79 37.099 56.548 31.303.996 2.105 1.993 4.135 3.026 6.239 1.92 4.134 3.987 8.269 6.017 12.403-14.432-.406-40.602 2.289-40.602 27.871 0 35.254 33.035 69.03 52.856 135.145 19.822 66.114-15.17 106.646-13.214 118.976 3.839 24.364 37.354 28.572 58.024 30.233-.258 5.242-.516 10.521-.775 15.726-.037.553-.184 1.107-.221 1.698-29.381-22.149-73.527 3.728-63.598 23.588 10.999 22.038 8.084 97.677-17.643 143.229-.296.517-.48.997-.776 1.514 5.574-24.179 2.695-54.892-22.958-86.233-35.25-43.079-80.318-52.862-80.318-52.862 59.722-181.14-38.203-278.115-38.203-278.115 6.865 65.634-3.913 115.543-33.294 325.108-21.113 150.722 31.079 244.892 62.121 286.089-10.778-5.464-21.445-11.222-32.26-16.723-20.707-32.337-65.037-108.935-68.027-176.341 0 0 28.163-37.949 15.429-83.981-12.734-46.033-30.119-71.984-36.948-99.153-35.36 159.102 30.12 290.999 64.742 346.629l-3.876-1.993c-48.648-40.237-68.654-71.43-68.654-71.43 7.825-69.511-30.71-130.309-59.722-164.529-44.072-51.902-49.94-95.979-49.94-95.979-17.312 129.276 56.399 235.295 105.343 289.929-18.492-11.961-36.357-24.807-53.078-38.945-33.921-28.794-62.121-61.906-84.599-100.63-21.261-36.361-35.656-77.853-38.499-117.573-.812-19.934 0-39.647 4.836-58.141 4.946-18.383 12.365-35.66 22.442-50.758 10.372-14.876 22.847-27.538 36.504-37.911 13.584-9.487 29.898-17.978 43.888-21.964 14.764-4.319 29.307-4.873 41.451-.775 12.291 3.802 21.223 13.067 26.576 23.182 4.798 10.816 5.979 20.894 2.731 31.894-2.547 8.528-8.453 16.907-15.023 20.488-13.842 8.084-26.133 0-31.337-7.051-5.426-7.42-6.681-12.883-6.94-12.662-1.181-3.47-4.982-5.315-8.452-4.134-3.47 1.181-5.315 4.983-4.134 8.417.406-.111 1.255 6.201 7.973 16.722 3.765 4.946 9.043 11.333 18.197 15.283 8.969 3.986 21.666 4.171 32.814-1.698 11.22-6.018 19.932-16.428 24.841-30.935 4.355-12.071 4.392-29.864-2.067-44.741-6.644-14.95-19.526-29.384-37.207-35.955-17.458-6.94-37.501-6.866-55.846-1.993-19.304 5.168-35.361 13.215-52.709 24.29-.812.591-1.513 1.329-2.325 1.92.332-1.366.738-2.4 1.033-3.84 2.88-13.658 4.467-30.676.517-49.17-3.654-18.457-14.801-37.764-30.71-50.942-7.456-6.35-16.868-12.441-27.831-15.984-10.925-3.47-24.213-3.655-35.471 1.328-11.295 4.726-19.747 13.253-24.989 22.297-5.167 9.155-7.714 19.048-7.456 28.498.259 9.413 3.1 18.273 7.456 24.991 4.282 6.793 9.67 11.37 14.174 14.286 4.54 2.954 8.379 4.504 10.926 5.39 2.584.886 3.912 1.366 3.912 1.366 7.936 2.584 16.462-1.772 19.046-9.709 2.584-7.936-1.771-16.464-9.707-19.011.553-.406-13.547-3.433-13.178-17.682-.295-7.125 4.762-17.128 12.513-19.971 3.765-1.513 8.195-1.772 13.62-.517 5.389 1.477 11.074 4.578 16.98 9.155 11.221 8.601 18.529 20.636 22.663 33.703 3.986 13.142 4.761 27.022 4.429 39.093-.554 11.887-2.067 22.038-3.285 29.163-5.795 6.017-11.516 12.145-16.647 19.011-12.476 17.46-21.925 37.579-28.347 59.137-6.275 21.632-8.195 44.63-7.678 67.739 3.1 46.438 18.16 91.4 42.189 133.409 22.553 39.942 54.222 78.37 90.284 109.305 36.062 31.562 76.923 56.147 117.562 77.373 3.913 2.067 7.751 3.839 11.664 5.87-6.497.812-13.177 2.214-20.006 3.949-14.617 3.249-29.602 8.565-44.219 14.545-29.307 11.96-55.883 28.941-74.782 42.747-18.861 13.769-30.267 24.953-30.267 24.953l-.11.11c-2.437 2.4-2.584 6.35-.259 8.94 2.399 2.65 6.459 2.84 9.117.48 0 0 11-9.93 29.898-22.523 18.751-12.477 44.994-27.686 73.084-37.726 13.989-5.021 28.236-9.414 41.857-11.813 6.754-1.44 13.324-2.584 19.636-2.99 6.275-.628 12.181-1.477 17.644-1.255 5.463-.037 10.482-.074 14.912-.111.886.074 1.476.148 2.325.221 23.402 11.481 46.434 22.74 68.285 34.331 37.465 19.823 71.645 41.496 98.959 67.076 3.026 2.84 5.61 5.98 8.452 8.93-41.34-16.43-100.619-15.24-169.901 13.99-63.376 26.77-90.1 21.52-90.1 21.52 32.298 58.77 144.913 9.82 205.631 10.78 41.082.67 82.57 21.93 105.123 35.63 10.519 28.97 13.804 57.29 9.264 81.24-4.65 25.29-17.311 45.08-30.119 58.88-12.919 13.88-25.542 22.63-34.29 28.02-8.859 5.43-13.694 7.38-13.694 7.42-3.174 1.29-4.872 4.87-3.802 8.2 1.144 3.47 4.872 5.39 8.342 4.28l.221-.08s6.054-1.95 16.02-7.05c9.966-5.16 24.546-13.4 39.938-28.24 15.281-14.65 31.595-36.8 38.977-66.63 7.826-29.68 4.54-65.11-7.456-99.3-2.952-8.86-6.274-16.65-10.409-26.17-3.986-8.05-7.788-16.13-13.361-25.03-5.279-8.71-11.111-17.05-17.422-25.17-6.091-28.13-10.483-71.655 10.593-100.744 33.294-46.033 64.631-107.717 3.913-145.924 13.694 13.696-12.255 68.809-39.643 114.805-16.979 28.498-15.355 67.812-11.663 93.613-9.339-8.155-19.083-15.908-29.418-23.143 0-.074-.037-.148-.037-.258-.886-7.863-1.957-20.045-1.255-35.549.812-15.467 2.51-34.478 7.936-55.668 1.255-5.315 2.288-10.889 3.838-16.5a3477.74 3477.74 0 015.869-17.018c3.876-11.702 7.936-23.995 14.285-36.103 5.869-12.588 11.996-25.692 18.344-39.314 6.201-13.658 12.587-27.76 19.194-42.304 3.137-7.383 7.013-14.36 9.634-22.297 2.436-8.047 4.946-16.168 7.456-24.363 4.909-16.464 10.335-33.187 15.023-50.352 2.953-17.424 5.942-35.143 8.969-53.083 1.292-8.971 3.543-17.941 4.023-27.096.369-9.192.775-18.42 1.181-27.686.259-18.531 2.658-37.21 1.181-55.926a34502.093 34502.093 0 00-4.613-56.221c-.369-9.413-1.957-18.679-4.134-27.87l-5.722-27.576c-3.912-18.309-6.902-36.804-13.841-54.08a31345.55 31345.55 0 01-17.865-52.049c-7.235-16.575-15.835-32.338-23.439-48.248zm-50.789 637.406a4079.143 4079.143 0 00-6.312 17.978c-1.698 5.943-2.879 11.886-4.281 17.534-5.98 22.555-8.047 43.08-9.044 59.913a232.876 232.876 0 00-.184 20.746 618.715 618.715 0 00-17.201-10.225c-19.119-34.922-54.111-110.191-46.914-183.54 9.782-99.892 93.016-72.464 52.857-24.475 0 0-6.828 37.21 16.647 30.344 5.537-1.624 15.133-11.037 22.626-25.471-2.842 19.306 8.822 28.904 20.006 32.522-4.319 9.044-8.674 18.162-12.771 26.763-6.718 12.588-11.221 25.582-15.429 37.911z" fill="#0069B4" fill-opacity=".04"/></svg>