<svg width="1440" height="871" fill="none" xmlns="http://www.w3.org/2000/svg"><g opacity=".5" clip-path="url(#clip0_291_3693)"><path d="M204.13 804.27V676.135l110.969-64.067 110.968 64.067V804.27l-110.968 64.067L204.13 804.27zM88.508 603.981V475.847l110.778-63.953 111.159 64.182v127.905l-110.968 64.067-110.969-64.067zm231.264 0V476.076l111.159-64.182 110.778 63.953v128.134L430.74 668.048l-110.968-64.067zM204.13 403.711V275.806l110.969-64.067 110.968 64.067v127.905l-110.968 64.068-110.969-64.068zm111.427-202.482l-120.753 69.179v133.303L79.181 470.468V609.36l115.623 66.756v133.532l120.295 69.446 120.295-69.446V676.116l115.622-66.756V470.468l-115.622-66.757V270.408l-119.837-69.179z" fill="#EDEDED"/><mask id="a" style="mask-type:alpha" maskUnits="userSpaceOnUse" x="227" y="237" width="177" height="205"><path d="M227.456 288.337v101.928l88.271 50.963 88.252-50.963V288.337l-88.252-50.964-88.271 50.964z" fill="#EDEDED"/></mask><g mask="url(#a)"><path d="M227.456 288.337v101.928l88.271 50.963 88.252-50.963V288.337l-88.252-50.964-88.271 50.964z" fill="#EDEDED"/><path d="M392.535 359.385c12.455-6.543 4.082-22.335-16.822-18.101-21.114 4.272-36.716 4.826-36.716 4.826s37.135 21.877 53.538 13.275zm-141.503-63.058c3.09 6.58 10.929 9.422 17.509 6.352 6.581-3.09 9.422-10.93 6.352-17.51-3.09-6.58-10.929-9.422-17.51-6.332-6.599 3.071-9.441 10.91-6.351 17.49zm-20.105-27.712c-6.027 2.822-8.621 9.994-5.798 16.021 2.823 6.027 9.994 8.621 16.022 5.798 6.027-2.822 8.621-9.994 5.798-16.021-2.823-6.008-9.994-8.621-16.022-5.798z" fill="#F6F8F9"/><path d="M192.476 299.208c1.964 1.583 3.929 3.128 5.855 4.673 2.136 1.621 4.12 2.689 6.161 4.044 2.766 1.907 5.798 3.49 8.812 5.035 15.22 10.166 40.206 19.779 74.061 9.136 17.376-5.474 31.567-18.31 36.583-37.307 5.112-19.322 2.804-43.697-19.569-55.981-25.177-13.809-52.07 4.673-52.547 20.371-.63 20.58 18.539 32.157 33.798 27.103 15.258-5.054 18.005-16.556 18.005-16.556 3.853 32.52-21.267 48.237-38.204 52.681-16.937 4.444-40.95-1.24-50.105-14.363-8.488-12.168-14.82-4.787-18.444-1.258l-1.545-1.259c-.992-.839-2.041-1.66-3.071-2.48 3.796-1.64 10.242-5.512 7.133-12.149-4.272-9.136-16.937-13.886-30.097-28.591-13.161-14.725-9.003-29.468-11.006-32.425-3.948-5.855-13.141-2.88-18.71-.801a365.772 365.772 0 01-1.698-4.177c-.057-.153-.095-.305-.153-.458 10.3 2.175 18.597-9.899 13.619-13.828-5.531-4.368-13.943-24.337-12.798-39.253.019-.171 0-.324.019-.496 1.487 6.943 5.97 14.553 16.422 19.551 14.362 6.885 27.217 3.967 27.217 3.967 6.485 54.187 43.64 67.424 43.64 67.424-9.727-16.174-13.008-30.422-30.803-88.271-12.799-41.618-37.765-59.681-50.793-66.585 3.453.114 6.905.305 10.395.42 9.289 5.874 30.06 20.332 39.024 37.44 0 0-2.689 13.256 6.18 23.632 8.888 10.376 16.537 14.992 21.61 21.21-10.147-45.509-43.105-71.754-58.822-81.958l1.259.057c17.49 4.52 26.455 10.166 26.455 10.166 6.408 18.959 23.765 30.04 35.438 35.381 17.719 8.106 24.585 18.806 24.585 18.806-11.196-35.591-43.163-54.111-62.465-62.331 6.256.858 12.436 2.021 18.482 3.662 12.283 3.338 23.613 8.506 34.141 15.811 9.919 6.829 18.673 15.85 24.243 25.788 2.632 5.054 4.806 10.28 5.798 15.659.954 5.359 1.125 10.738.343 15.869a48.374 48.374 0 01-4.864 14.247c-2.365 4.101-5.569 8.278-8.716 11.025-3.3 2.899-7 4.806-10.643 5.226-3.643.515-7.095-.82-9.689-2.785-2.556-2.231-4.082-4.692-4.578-7.934-.381-2.518.134-5.398 1.412-7.134 2.613-3.776 6.771-3.166 8.983-1.964 2.308 1.259 3.3 2.537 3.338 2.441a1.882 1.882 0 002.689.038 1.883 1.883 0 00.039-2.689c-.096.076-1.088-1.469-4.101-3.376-1.564-.82-3.72-1.831-6.561-1.755-2.804.057-6.123 1.545-8.297 4.425-2.175 2.918-3.166 6.676-2.671 11.025.344 3.662 2.48 8.258 5.97 11.348 3.529 3.071 8.621 5.245 14 4.807 5.36-.325 10.548-2.766 14.706-6.256 4.387-3.681 7.553-7.706 10.719-12.684.133-.248.229-.534.362-.782.096.4.096.706.21 1.125.916 3.891 2.556 8.488 5.836 12.798 3.186 4.349 8.412 7.992 14.134 9.48 2.708.744 5.874 1.182 9.155.763 3.261-.439 6.714-2.003 9.041-4.654 2.365-2.594 3.509-5.837 3.776-8.812.229-2.994-.305-5.875-1.526-8.278-1.201-2.403-3.013-4.349-4.959-5.569a13.539 13.539 0 00-5.397-1.984 14.734 14.734 0 00-3.491-.076 36.91 36.91 0 00-1.182.133c-2.365.287-4.044 2.461-3.758 4.826a4.343 4.343 0 004.826 3.757c-.096.172 3.929-.763 5.55 2.995.935 1.812.839 5.016-.82 6.695-.801.858-1.907 1.449-3.471 1.793-1.564.267-3.415.152-5.513-.306-3.948-.858-7.305-3.09-9.956-5.989-2.632-2.918-4.52-6.427-5.894-9.594-1.296-3.147-2.136-5.95-2.689-7.953.763-2.251 1.507-4.54 2.003-6.943 1.125-6.046 1.125-12.397.171-18.768-.991-6.37-3.28-12.55-6.236-18.482-6.428-11.654-15.793-21.476-27.123-29.449-10.681-7.61-23.555-13.733-36.659-17.357-13.16-3.795-26.74-5.226-39.863-5.798-1.259-.057-2.479-.057-3.738-.095 1.583-.992 3.147-2.175 4.711-3.453 3.395-2.613 6.638-5.817 9.689-9.136 6.142-6.656 10.967-14.286 14.191-20.141 3.223-5.856 4.806-10.147 4.806-10.147l.019-.038a1.846 1.846 0 00-1.011-2.346 1.842 1.842 0 00-2.422.992s-1.659 3.91-5.016 9.46c-3.338 5.512-8.297 12.626-14.362 18.634-3.014 3.014-6.18 5.856-9.403 8.126-1.584 1.182-3.148 2.288-4.731 3.166-1.545.915-2.975 1.85-4.425 2.46-1.411.668-2.708 1.297-3.852 1.85a6.155 6.155 0 00-.63.23c-7.458-.134-14.782-.268-21.858-.611-12.111-.591-23.613-2.06-33.779-5.379-1.125-.381-2.174-.858-3.28-1.297 12.703-.763 27.923-8.259 42.323-24.223 13.18-14.629 20.733-16.517 20.733-16.517-15.507-11.31-38.738 15.049-54.588 22.144-10.719 4.806-24.051 4.33-31.566 3.528-6.237-6.237-10.529-13.18-12.245-19.931-1.85-7.114-.992-13.771.667-18.92a46.396 46.396 0 015.494-11.407c1.64-2.48 2.65-3.585 2.65-3.585a1.906 1.906 0 000-2.575 1.919 1.919 0 00-2.688-.096l-.058.038s-1.335 1.24-3.3 3.777c-1.945 2.556-4.73 6.447-6.923 12.169-2.174 5.645-3.72 13.37-2.022 21.991 1.583 8.64 6.733 17.433 13.98 24.834 1.832 1.926 3.644 3.547 5.876 5.512 2.002 1.602 3.967 3.242 6.504 4.863a72.58 72.58 0 007.572 4.406c4.978 6.543 11.405 17.3 9.479 27.39-3.052 15.964-3.681 35.743 16.689 38.28-5.226-1.889-5.169-19.322-3.662-34.561.935-9.441-4.253-19.436-8.335-25.673 3.414.973 6.885 1.812 10.433 2.423.019.019.019.038.038.057a63.233 63.233 0 014.635 9.06c1.679 4.1 3.529 9.231 4.692 15.392.324 1.526.725 3.09 1.011 4.73.172 1.659.362 3.376.553 5.112.42 3.49.858 7.19.687 11.081 0 3.986 0 8.125.019 12.398.057 4.291.114 8.716.152 13.294.096 2.289-.076 4.577.21 6.943.344 2.384.687 4.787 1.03 7.209.725 4.864 1.354 9.861 2.213 14.858 1.354 4.864 2.727 9.823 4.119 14.839.763 2.48 1.259 5.074 2.251 7.515 1.011 2.423 2.041 4.864 3.052 7.305 2.174 4.826 3.834 9.957 6.466 14.63 2.67 4.653 5.34 9.326 8.01 13.999 1.24 2.404 2.766 4.616 4.445 6.714l4.825 6.447c3.243 4.272 6.256 8.697 10.147 12.321 3.681 3.815 7.343 7.591 10.948 11.311 3.815 3.471 7.973 6.523 11.864 9.708zm-64.163-171.316c-.191-1.85-.362-3.662-.534-5.417-.286-1.755-.686-3.433-1.011-5.074-1.182-6.561-3.128-12.13-4.921-16.612a67.756 67.756 0 00-2.46-5.398c1.888.21 3.796.4 5.703.572 9.193 6.733 27.389 21.991 34.427 41.866 9.575 27.065-15.316 30.059-10.738 12.76 0 0-2.747-10.471-7.992-5.837-1.24 1.088-2.575 4.692-2.765 9.346-1.603-5.34-5.799-6.427-9.137-5.989l.058-8.487c.19-4.12-.229-8.011-.63-11.73zm127.944 218.58c-60.863-25.482-84.113-57.449-84.113-57.449s-6.313 30.098 20.485 58.613c26.798 28.514 74.328 19.493 74.328 19.493s-6.866 11.1 6.161 23.555 37.88 20.466 37.88 20.466-9.461 7.534-9.136 18.825c.248 8.411 8.048 17.872-.515 24.681-7.096 5.646-13.809.896-13.809.896 5.779-3.166 3.604-8.812-.935-12.55-4.54-3.757-17.395-.82-13.237 12.684 4.158 13.523 25.902 16.327 40.722 5.054 29.487-22.392 12.969-84.609-57.831-114.268zm38.586-10.624c2.212 1.049 4.94 2.27 8.201 3.281 3.224 1.068 6.981 2.06 11.139 2.67 4.158.725 8.678.992 13.656.992 4.54-.115 9.88-.515 15.049-1.583 5.245-1.087 10.662-2.804 15.888-5.818 2.594-1.526 5.169-3.337 7.42-5.836 2.212-2.48 4.349-5.589 4.959-9.861.782-4.272-1.564-9.498-5.131-11.825-3.471-2.499-7.114-3.128-10.338-3.281-6.504-.21-11.997 1.583-17.013 3.548-4.978 2.021-9.537 4.596-13.485 7.038-1.888 1.068-3.738 2.098-5.531 3.109-1.888.858-3.719 1.678-5.474 2.479-7.172 2.918-13.561 4.559-18.005 5.57-4.502.953-7.057 1.278-7.057 1.278l-7.267.934 7.991 4.616c1.183.591 2.766 1.736 4.998 2.689zm21.743-8.678c1.965-.725 4.006-1.469 6.142-2.251 2.06-.973 4.215-1.983 6.408-3.013 4.063-2.098 8.145-4.006 12.608-5.455 4.387-1.393 9.174-2.385 13.237-1.889 2.002.21 3.757.878 4.558 1.66.859.782.706 1.182.82 2.25 0 2.404-2.994 6.276-6.752 8.641-3.757 2.555-8.22 4.387-12.741 5.645-4.615 1.278-8.964 1.927-13.599 2.385-4.215.267-8.411.343-12.226-.058-3.833-.286-7.305-.953-10.299-1.716-2.346-.554-4.33-1.297-6.104-1.965 4.616-.744 10.796-1.907 17.948-4.234zm14.229-46.081c1.583 14.801-11.826 28.744-11.826 28.744 12.188-6.18 23.003-9.842 28.21-29.907 5.226-20.066-19.245-25.444-16.384 1.163z" fill="#F6F8F9"/><path d="M348.514 421.526c-8.068-22.278-19.016-30.594-33.359-36.03 0 0 15.011 19.741 14.858 36.869-.248 30.86 26.569 21.4 18.501-.839zm19.379-.192c-7.782-15.393-16.422-20.466-27.274-23.155 0 0 12.588 12.97 13.961 25.386 2.518 22.335 21.076 13.161 13.313-2.231zM267.11 338.632s3.299 3.071 9.288 8.182c6.046 5.036 14.61 12.379 25.444 20.485 10.834 8.144 23.765 17.3 38.776 25.711 7.572 4.12 15.526 8.278 24.662 11.177 4.596 1.392 9.441 2.632 15.182 2.556 2.861-.077 6.046-.515 9.251-2.098 3.242-1.545 6.084-4.292 7.743-7.611.554-1.068.687-1.487.916-2.002.439-1.202.629-1.984.82-3.052.324-2.022.21-4.139-.267-6.008-.954-3.777-2.899-6.39-4.749-8.564-3.815-4.272-7.896-6.981-11.959-9.498-8.125-4.921-16.403-8.297-24.395-11.425-16.04-6.085-31.299-10.3-44.441-13.542-13.122-3.3-24.223-5.303-31.947-6.829-7.744-1.43-12.245-2.021-12.245-2.021l-8.068-1.069 5.989 5.608zm43.525 13.904c12.645 4.235 27.389 9.251 42.533 15.602 7.534 3.167 15.202 6.829 22.163 11.063 3.395 2.117 6.695 4.539 8.793 7 1.03 1.182 1.698 2.384 1.793 2.994.076.305.038.477.019.649 0 .038-.114.343-.038.191-.21.534-.458 1.144-.458 1.068-.686 1.335-1.983 2.25-5.359 2.422-3.224.095-7.134-.687-10.948-1.85-7.706-2.365-15.412-5.837-22.679-9.556-14.572-7.496-27.77-15.735-39.024-22.85a1341.393 1341.393 0 01-22.887-15.049c6.98 2.137 15.869 4.979 26.092 8.316z" fill="#F6F8F9"/></g><mask id="b" style="mask-type:alpha" maskUnits="userSpaceOnUse" x="508" y="185" width="343" height="395"><path d="M508.44 283.988v190.867l170.907 105.119 170.906-105.119.019-190.867-170.935-98.704-170.897 98.704z" fill="#EDEDED"/></mask><g mask="url(#b)"><path d="M508.44 283.988v190.867h341.813l.019-190.867-170.935-98.704-170.897 98.704z" fill="#EDEDED"/><path d="M508.44 479.596V288.729h341.813l.019 190.867L679.337 578.3 508.44 479.596z" fill="#EDEDED"/><path d="M791.222 503.656c-9.117 24.28 5.455 44.555 18.978 29.983 14.419-15.564 9.498-60.71 18.978-78.925 0-.019-28.839 24.643-37.956 48.942zm-83.484-50.85S737.34 466.081 763.146 427c0 0-27.313-31.871-65.269-2.27-37.956 29.602-27.313 67.539-83.865 81.214 0 0 32.215 17.758 63.38-1.907 31.872-20.122 30.346-51.231 30.346-51.231zm-164.945-80.719c9.556-19.512 11.139-27.313 11.139-27.313s-39.978 1.011-45.547 25.807c-5.551 24.776 21.266 28.323 34.408 1.506z" fill="#F6F8F9"/><path d="M663.716 431.539c34.905-54.645 81.215-64.506 107.765-38.7 26.55 25.807-1.526 53.119-1.526 53.119s36.811-21.247 12.912-58.44c-19.531-30.384-81.595-27.313-111.559-11.005-34.485 18.768-35.915 41.103-35.915 41.103-57.182 1.525-54.149 43.506-54.149 43.506-36.926-33.398-65.517-3.033-65.517-3.033 48.58 85.029 113.085 28.095 147.989-26.55zm-92.199-20.997c0-6.371-3.795-11.787-9.193-14.381.763-3.3 1.754-7.096 3.147-11.177 1.24.324 2.422.763 3.757.763 8.45 0 15.297-6.848 15.297-15.297 0-4.921-2.479-9.117-6.103-11.921 2.67-4.044 5.455-8.182 9.002-11.978.153-.21.382-.382.553-.591 1.812.877 3.777 1.449 5.913 1.449 7.61 0 13.79-6.18 13.79-13.79 0-1.716-.401-3.338-.973-4.863 4.006-2.919 8.068-5.78 12.474-8.164 2.136 2.003 4.959 3.281 8.126 3.281 6.561 0 11.882-5.322 11.882-11.883 0-.21-.114-.381-.114-.591 4.692-1.564 9.231-3.433 13.847-4.749 1.907 2.994 5.092 5.092 8.907 5.092 5.398 0 9.689-4.043 10.452-9.25 1.717-.344 3.453-.744 5.15-.954 3.929-.401 7.458-.744 11.082-1.125 1.506 3.07 4.596 5.245 8.239 5.245 4.139 0 7.515-2.766 8.679-6.523 6.103-.096 11.425.21 15.506.019 6.333 0 9.957.019 9.957.019h.228a2.499 2.499 0 002.499-2.461c.038-1.373-1.068-2.517-2.441-2.555 0 0-3.682-.077-10.109-.191-4.12.114-9.499-.267-15.64-.286-1.183-3.739-4.559-6.504-8.679-6.504-4.482 0-8.049 3.261-8.888 7.496-3.624.305-7.343.61-11.272.934-1.66.172-3.376.553-5.074.839-1.716-3.662-5.378-6.237-9.689-6.237-5.76 0-10.376 4.559-10.643 10.262-4.787 1.297-9.536 3.128-14.419 4.654-2.155-2.976-5.493-5.036-9.46-5.036-6.562 0-11.883 5.322-11.883 11.883 0 .839.305 1.564.477 2.346-4.769 2.48-9.232 5.512-13.619 8.602-2.346-1.831-5.149-3.109-8.354-3.109-7.61 0-13.79 6.18-13.79 13.79 0 2.613.935 4.921 2.194 7-.229.267-.534.496-.744.782-4.273 4.444-7.61 9.308-10.815 14.019-.515-.057-.973-.305-1.507-.305-8.449 0-15.296 6.847-15.296 15.297 0 3.91 1.583 7.4 3.986 10.089a117.628 117.628 0 00-4.368 14.324c-7.934.992-14.152 7.477-14.152 15.679 0 8.869 7.19 16.059 16.06 16.059 8.83.058 16.021-7.133 16.021-16.002zm71.964-162.907s-93.097-22.773-117.396-105.246c-19.226 34.904 0 65.764 0 65.764-15.164 7.019-24.338 43.85 6.065 56.171 0 0-17.7 10.128-13.161 37.956 4.559 27.828 32.387 36.43 32.387 36.43s5.073-75.912 92.105-91.075z" fill="#F6F8F9"/><path d="M793.072-109.932l-6.008-12.13c-2.232-4.292-4.692-7.553-7-11.33-3.071-5.245-6.809-10.147-10.567-14.972-17.109-28.267-50.62-63.152-114.134-71.64-32.616-4.348-65.67 5.78-88.424 33.016-23.155 27.695-38.051 69.332-10.853 106.544 30.613 41.866 88.748 32.233 101.546 6.923 16.785-33.168-5.683-66.794-34.522-70.209-28.839-3.414-42.114 13.276-42.114 13.276 18.596-56.171 71.715-62.618 102.843-56.915 31.109 5.684 66.032 33.397 70.953 61.855 4.577 26.397 20.561 19.168 29.22 16.174.515 1.087 1.03 2.136 1.564 3.242.992 2.136 2.06 4.272 3.109 6.409-7.458-.21-20.981 1.182-20.981 14.4 0 18.215 17.071 35.667 27.313 69.827 10.243 34.16-7.839 55.103-6.828 61.474 1.984 12.588 19.302 14.762 29.983 15.62l-.4 8.126c-.019.286-.096.572-.115.877-15.182-11.444-37.994 1.946-32.863 12.188 5.684 11.387 4.177 50.468-9.117 74.004-.153.287-.248.515-.401.782 2.88-12.493 1.393-28.362-11.863-44.555-18.215-22.258-41.485-27.332-41.485-27.332 30.861-93.592-19.74-143.698-19.74-143.698 3.547 33.893-2.022 59.7-17.205 167.978-10.909 77.877 16.06 126.533 32.101 147.818-5.57-2.822-11.082-5.798-16.67-8.64-10.7-16.708-33.607-56.266-35.152-91.113 0 0 14.553-19.607 7.972-43.392-6.58-23.784-15.564-37.192-19.092-51.23-18.272 82.205 15.545 150.354 33.454 179.098-.667-.344-1.335-.687-2.002-1.049-25.139-20.79-35.477-36.907-35.477-36.907 4.044-35.934-15.869-67.329-30.86-85.01-22.774-26.817-25.806-49.59-25.806-49.59-8.946 66.794 29.144 121.573 54.435 149.801-9.556-6.179-18.787-12.817-27.428-20.122-17.528-14.877-32.1-31.967-43.715-51.994-10.987-18.787-18.425-40.225-19.894-60.748-.42-10.3 0-20.485 2.499-30.04 2.556-9.5 6.389-18.425 11.596-26.226 5.36-7.687 11.807-14.23 18.864-19.589 7.019-4.902 15.449-9.288 22.678-11.348 7.629-2.232 15.144-2.518 21.419-.4 6.352 1.964 10.967 6.751 13.733 11.977 2.479 5.589 3.09 10.796 1.411 16.48-1.316 4.406-4.367 8.735-7.763 10.585-7.152 4.177-13.503 0-16.193-3.643-2.803-3.833-3.452-6.656-3.586-6.542-.61-1.793-2.574-2.747-4.367-2.136-1.793.61-2.747 2.575-2.136 4.368.209-.058.648 3.204 4.119 8.64 1.946 2.556 4.673 5.855 9.403 7.896 4.635 2.06 11.197 2.156 16.957-.877 5.798-3.11 10.299-8.488 12.836-15.984 2.251-6.237 2.27-15.43-1.068-23.116-3.433-7.725-10.09-15.183-19.226-18.578-9.022-3.586-19.378-3.547-28.858-1.03-9.975 2.67-18.272 6.81-27.237 12.55-.419.287-.782.687-1.201.992.171-.705.381-1.24.534-1.983 1.488-7.057 2.308-15.85.267-25.406-1.888-9.537-7.648-19.512-15.869-26.321-3.853-3.28-8.717-6.428-14.381-8.259-5.646-1.793-12.512-1.888-18.33.687-5.836 2.441-10.204 6.847-12.912 11.52-2.671 4.73-3.987 9.842-3.853 14.725.133 4.863 1.602 9.44 3.853 12.912 2.212 3.51 4.997 5.875 7.324 7.382 2.346 1.525 4.329 2.326 5.645 2.784 1.336.458 2.022.706 2.022.706 4.101 1.335 8.507-.915 9.842-5.016 1.335-4.101-.916-8.507-5.016-9.823.286-.21-7-1.774-6.809-9.136-.153-3.681 2.46-8.85 6.465-10.319 1.946-.782 4.235-.915 7.038-.267 2.785.763 5.722 2.365 8.774 4.73 5.798 4.444 9.575 10.662 11.711 17.414 2.06 6.79 2.461 13.962 2.289 20.199-.286 6.142-1.068 11.387-1.698 15.068-2.994 3.109-5.95 6.275-8.602 9.823-6.446 9.021-11.329 19.416-14.648 30.536-3.242 11.177-4.234 23.06-3.967 35 1.602 23.994 9.384 47.225 21.801 68.93 11.653 20.638 28.018 40.493 46.653 56.476 18.635 16.289 39.749 29.011 60.748 39.978 2.022 1.068 4.006 1.984 6.028 3.033-3.357.419-6.81 1.144-10.338 2.04-7.553 1.679-15.297 4.425-22.85 7.515-15.144 6.18-28.877 14.954-38.642 22.087-9.747 7.114-15.641 12.894-15.641 12.894l-.057.057a3.348 3.348 0 00-.133 4.616 3.344 3.344 0 004.711.248s5.684-5.131 15.449-11.654c9.689-6.447 23.251-14.305 37.765-19.493 7.229-2.613 14.591-4.864 21.629-6.104 3.491-.743 6.886-1.335 10.147-1.544 3.243-.325 6.295-.763 9.117-.649 2.823-.019 5.417-.038 7.706-.057.458.038.763.076 1.202.114 12.092 5.932 23.994 11.749 35.285 17.738 19.36 10.224 37.022 21.439 51.136 34.657 1.564 1.468 2.899 3.089 4.367 4.615-21.362-8.487-51.993-7.877-87.794 7.229-32.749 13.828-46.558 11.139-46.558 11.139 16.689 30.365 74.882 5.054 106.258 5.569 21.228.344 42.666 11.33 54.32 18.406 5.436 14.973 7.115 29.602 4.788 41.98-2.404 13.066-8.946 23.289-15.564 30.422-6.676 7.172-13.199 11.692-17.719 14.477-4.578 2.804-7.076 3.815-7.076 3.834a3.442 3.442 0 00-1.965 4.234c.591 1.793 2.518 2.785 4.311 2.212l.114-.038s3.128-1.011 8.278-3.643c5.15-2.67 12.684-6.904 20.637-14.591 7.896-7.572 16.327-19.016 20.142-34.427 4.043-15.335 2.346-33.664-3.853-51.307-1.526-4.578-3.243-8.602-5.379-13.523-2.06-4.158-4.024-8.335-6.904-12.932-2.728-4.501-5.742-8.812-9.003-13.008-3.147-14.534-5.417-37.021 5.474-52.051 17.204-23.784 33.397-55.656 2.022-75.397 7.076 7.096-6.333 35.553-20.485 59.337-8.774 14.744-7.934 35.038-6.027 48.37-4.826-4.215-9.861-8.22-15.202-11.959 0-.057-.019-.076-.019-.133-.457-4.082-1.01-10.357-.648-18.368.42-7.991 1.297-17.814 4.101-28.781.648-2.747 1.182-5.608 1.983-8.507.973-2.842 1.984-5.779 3.033-8.793 2.003-6.046 4.101-12.397 7.381-18.654 3.033-6.504 6.199-13.275 9.48-20.294 3.204-7.057 6.504-14.343 9.918-21.858 1.621-3.814 3.624-7.438 4.978-11.52 1.259-4.158 2.556-8.354 3.853-12.588 2.537-8.507 5.34-17.147 7.763-26.016 1.526-9.003 3.07-18.158 4.634-27.428.668-4.634 1.831-9.27 2.079-14 .191-4.749.401-9.498.611-14.304.133-9.575 1.373-19.226.61-28.896-.782-9.651-1.583-19.36-2.384-29.049-.191-4.883-1.011-9.651-2.136-14.4l-2.957-14.248c-2.021-9.46-3.566-19.016-7.152-27.942-3.109-9.041-6.199-18.025-9.232-26.894-3.757-8.583-8.201-16.727-12.13-24.948zm-26.245 329.358a2146.428 2146.428 0 00-3.262 9.289c-.877 3.07-1.487 6.141-2.212 9.06-3.09 11.653-4.158 22.258-4.673 30.955-.21 3.987-.21 7.515-.095 10.72a321.764 321.764 0 00-8.889-5.284c-9.88-18.043-27.961-56.933-24.242-94.832 5.074-51.612 48.065-37.441 27.332-12.646 0 0-3.528 19.226 8.602 15.679 2.861-.84 7.82-5.703 11.692-13.161-1.468 9.975 4.559 14.934 10.338 16.804a15165.31 15165.31 0 00-6.599 13.828c-3.51 6.485-5.818 13.198-7.992 19.588z" fill="#F6F8F9"/></g></g><defs><clipPath id="clip0_291_3693"><path fill="#fff" d="M0 0h1439.51v870.704H0z"/></clipPath></defs></svg>