<svg width="465" height="92" fill="none" xmlns="http://www.w3.org/2000/svg"><g opacity=".39" fill="#DADADA"><path d="M455.221 12.328c6.478 2.432 11.887-1.455 7.999-5.063-4.152-3.847-16.197-2.535-21.057-5.064-.005 0 6.575 7.694 13.058 10.127zm-13.567 22.273s3.542-7.898-6.885-14.783c0 0-8.503 7.287-.606 17.414 7.898 10.127 18.02 7.287 21.668 22.375 0 0 4.738-8.595-.509-16.91-5.368-8.503-13.668-8.096-13.668-8.096zm-21.536 44.007c-5.206-2.55-7.287-2.972-7.287-2.972s.27 10.666 6.885 12.152c6.61 1.481 7.557-5.674.402-9.18zm-77.887 3.776c-3.985 5.486 3.989 8.137 10.045 2.951 4.402-3.765 5.613-5.516 5.613-5.516s-11.679-2.92-15.658 2.565zm-117.845 4.458c.31 6.773 8.91 6.346 11.338-3.644 2.452-10.085 5.399-17.006 5.399-17.006s-17.144 11.74-16.737 20.65zm56.423-48.867a6.343 6.343 0 00-6.345 6.346 6.343 6.343 0 006.345 6.345 6.343 6.343 0 006.346-6.345 6.343 6.343 0 00-6.346-6.346zm16.199-3.105a5.804 5.804 0 10-11.608 0 5.807 5.807 0 005.802 5.807c3.205-.005 5.806-2.605 5.806-5.806zm4.32-3.24a4.723 4.723 0 10-.001-9.446 4.723 4.723 0 00.001 9.445zm14.711-9.18a4.183 4.183 0 10-8.366 0 4.183 4.183 0 008.366 0zm9.587-1.487a3.643 3.643 0 10-3.644 3.643 3.643 3.643 0 003.644-3.643zm7.964.137a3.103 3.103 0 10-6.208 0 3.103 3.103 0 106.208 0z"/><path d="M435.98 46.346c-14.579-9.313-17.21-21.668-10.325-28.751 6.885-7.084 14.172.407 14.172.407s-5.669-9.822-15.592-3.445c-8.106 5.21-7.287 21.769-2.936 29.763 5.007 9.2 10.966 9.582 10.966 9.582.407 15.256 11.608 14.447 11.608 14.447-8.911 9.852-.81 17.48-.81 17.48 22.686-12.961 7.496-30.171-7.083-39.483zm-5.602 24.599c-1.7 0-3.145 1.013-3.837 2.453a30.337 30.337 0 01-2.982-.84c.086-.33.203-.646.203-1.003a4.08 4.08 0 00-4.081-4.08c-1.313 0-2.432.66-3.18 1.628-1.079-.713-2.183-1.456-3.196-2.402-.056-.04-.102-.102-.158-.148.234-.483.387-1.007.387-1.577 0-2.03-1.649-3.68-3.679-3.68-.458 0-.891.108-1.298.26-.778-1.069-1.542-2.152-2.178-3.328.535-.57.876-1.323.876-2.168 0-1.75-1.42-3.17-3.171-3.17-.056 0-.102.03-.157.03-.418-1.251-.916-2.462-1.268-3.694.799-.509 1.359-1.358 1.359-2.376 0-1.44-1.079-2.585-2.468-2.789-.091-.458-.198-.92-.254-1.374-.107-1.048-.199-1.99-.301-2.956.82-.402 1.4-1.227 1.4-2.199 0-1.104-.738-2.005-1.741-2.315-.025-1.628.056-3.048.006-4.137 0-1.69.005-2.656.005-2.656v-.061a.67.67 0 00-1.339-.015s-.02.981-.051 2.696c.031 1.1-.071 2.534-.076 4.173-.997.316-1.735 1.216-1.735 2.315 0 1.196.87 2.148 2 2.372.081.966.163 1.959.249 3.007.046.443.148.9.224 1.354-.977.458-1.664 1.435-1.664 2.585 0 1.537 1.216 2.768 2.738 2.84.346 1.277.834 2.544 1.241 3.846-.793.575-1.343 1.466-1.343 2.524a3.17 3.17 0 003.17 3.17c.224 0 .417-.08.626-.127.662 1.273 1.471 2.463 2.295 3.634-.488.626-.829 1.374-.829 2.229a3.68 3.68 0 003.679 3.679c.697 0 1.313-.25 1.867-.585.072.06.133.142.209.198 1.186 1.14 2.483 2.03 3.74 2.885-.015.138-.081.26-.081.402a4.08 4.08 0 004.081 4.081c1.043 0 1.974-.422 2.692-1.063 1.414.534 2.712.9 3.821 1.165.265 2.117 1.995 3.776 4.183 3.776a4.285 4.285 0 004.285-4.285c.015-2.356-1.903-4.274-4.269-4.274zm-43.464-19.2s-6.075 24.838-28.079 31.32c9.312 5.13 17.546 0 17.546 0 1.872 4.046 11.699 6.494 14.986-1.617 0 0 2.702 4.722 10.127 3.51 7.424-1.215 9.719-8.64 9.719-8.64s-20.253-1.353-24.299-24.573z"/><path d="M291.517 11.834l-3.237 1.603c-1.145.596-2.015 1.252-3.022 1.868-1.4.819-2.708 1.816-3.995 2.819-7.542 4.565-16.849 13.505-19.113 30.45-1.161 8.703 1.542 17.521 8.808 23.592 7.389 6.178 18.498 10.152 28.426 2.895 11.17-8.167 8.6-23.677 1.847-27.092-8.849-4.478-17.821 1.517-18.732 9.21-.91 7.695 3.542 11.237 3.542 11.237-14.986-4.962-16.706-19.134-15.185-27.439 1.517-8.3 8.911-17.617 16.503-18.93 7.043-1.221 5.114-5.485 4.315-7.796.29-.137.57-.274.865-.417.57-.264 1.14-.55 1.71-.83-.056 1.99.316 5.598 3.842 5.598 4.86 0 9.516-4.554 18.63-7.287 9.114-2.732 14.701 2.092 16.401 1.822 3.359-.53 3.939-5.15 4.168-8l2.167.107c.077.005.153.026.234.03-3.053 4.052.52 10.138 3.252 8.769 3.038-1.517 13.465-1.115 19.744 2.432.077.04.138.066.209.107-3.333-.768-7.567-.372-11.887 3.165-5.939 4.86-7.292 11.068-7.292 11.068-24.971-8.233-38.339 5.267-38.339 5.267 9.043-.947 15.928.54 44.817 4.59 20.777 2.91 33.758-4.285 39.437-8.564-.753 1.486-1.547 2.956-2.305 4.447-4.458 2.855-15.012 8.967-24.309 9.379 0 0-5.231-3.883-11.577-2.127-6.345 1.755-9.923 4.152-13.668 5.093 21.932 4.875 40.114-4.147 47.783-8.925-.092.178-.183.356-.28.534-5.547 6.707-9.847 9.465-9.847 9.465-9.587-1.079-17.963 4.234-22.68 8.234-7.155 6.076-13.231 6.885-13.231 6.885 17.821 2.386 32.436-7.776 39.967-14.524-1.649 2.55-3.419 5.013-5.368 7.318-3.97 4.677-8.529 8.564-13.872 11.663-5.013 2.931-10.732 4.916-16.208 5.308-2.748.112-5.465 0-8.014-.667-2.535-.682-4.916-1.704-6.997-3.094a23.322 23.322 0 01-5.227-5.032c-1.307-1.873-2.478-4.122-3.027-6.05-.596-2.036-.672-4.041-.107-5.715.524-1.695 1.801-2.926 3.195-3.664 1.491-.662 2.881-.825 4.397-.377 1.176.351 2.331 1.165 2.824 2.071 1.115 1.909 0 3.603-.972 4.32-1.022.749-1.776.922-1.745.957a.92.92 0 00-.57 1.166.919.919 0 001.165.57c-.015-.057.855-.174 2.306-1.1.681-.519 1.562-1.246 2.106-2.508.55-1.237.575-2.987-.234-4.524-.829-1.547-2.264-2.748-4.264-3.425-1.664-.6-4.117-.605-6.168.285-2.061.916-4.05 2.692-4.956 5.13-.957 2.406-.947 5.17-.275 7.699.713 2.661 1.817 4.875 3.349 7.266.076.112.183.209.264.32-.188-.045-.331-.1-.529-.142-1.883-.396-4.229-.615-6.778-.07-2.545.503-5.206 2.04-7.023 4.233-.875 1.028-1.715 2.325-2.203 3.837-.478 1.506-.504 3.338.183 4.89.651 1.557 1.827 2.723 3.074 3.445 1.262.713 2.625 1.064 3.928 1.028 1.298-.036 2.519-.427 3.445-1.028a6.457 6.457 0 001.97-1.954c.407-.626.62-1.155.743-1.506.122-.356.188-.54.188-.54a2.084 2.084 0 00-1.339-2.625 2.076 2.076 0 00-2.62 1.338c-.056-.076-.473 1.868-2.438 1.817-.982.04-2.361-.657-2.753-1.725-.208-.52-.244-1.13-.071-1.878.204-.743.631-1.527 1.262-2.34 1.186-1.548 2.845-2.556 4.646-3.125 1.812-.55 3.725-.657 5.389-.611 1.639.076 3.038.285 4.02.453.83.799 1.674 1.587 2.621 2.295 2.407 1.72 5.18 3.022 8.147 3.908 2.982.865 6.152 1.13 9.338 1.058 6.401-.427 12.599-2.503 18.39-5.816 5.506-3.11 10.804-7.475 15.068-12.447 4.346-4.972 7.74-10.605 10.666-16.208.285-.539.529-1.068.809-1.608.112.896.305 1.817.544 2.758.448 2.016 1.181 4.082 2.005 6.097 1.649 4.04 3.99 7.704 5.893 10.31 1.898 2.6 3.44 4.172 3.44 4.172l.015.016a.892.892 0 001.298-1.221s-1.369-1.517-3.109-4.123c-1.72-2.585-3.817-6.203-5.201-10.075-.697-1.929-1.298-3.893-1.628-5.77-.199-.932-.357-1.838-.413-2.708-.086-.865-.203-1.68-.173-2.433l-.015-2.055c.01-.122.021-.204.031-.32 1.582-3.227 3.134-6.403 4.732-9.415 2.728-5.165 5.72-9.877 9.246-13.643.392-.417.825-.773 1.232-1.165-2.265 5.7-2.102 13.872 1.929 23.423 3.689 8.738 2.971 12.422 2.971 12.422 8.102-4.453 1.349-19.979 1.486-28.35.092-5.663 3.023-11.383 4.911-14.492 3.994-1.45 7.898-1.898 11.2-1.277 3.486.64 6.213 2.386 8.117 4.152a22.525 22.525 0 013.862 4.727c.748 1.222 1.018 1.888 1.023 1.888a.918.918 0 001.129.525.92.92 0 00.591-1.15l-.01-.031s-.27-.835-.972-2.209c-.713-1.374-1.842-3.384-3.893-5.506-2.02-2.106-5.074-4.356-9.185-5.373-4.092-1.08-8.982-.626-13.689 1.028-1.221.407-2.295.865-3.608 1.435-1.109.55-2.224 1.073-3.45 1.842a36.407 36.407 0 00-3.471 2.402c-3.877.84-9.877 1.445-13.887-1.46-6.345-4.59-14.848-8.911-20.115-.54 1.893-1.888 9.485 1.69 15.831 5.465 3.933 2.34 9.348 2.117 12.905 1.608a47.874 47.874 0 00-3.191 4.056c-.015 0-.02.005-.036.005a30.58 30.58 0 01-4.9.173c-2.132-.112-4.753-.346-7.679-1.094-.733-.173-1.496-.316-2.269-.53-.759-.259-1.542-.529-2.346-.808-1.613-.535-3.308-1.095-4.977-1.97-1.735-.809-3.542-1.654-5.415-2.529-1.882-.855-3.826-1.735-5.831-2.646-1.018-.433-1.985-.967-3.074-1.328-1.109-.336-2.229-.682-3.358-1.028-2.27-.677-4.575-1.425-6.941-2.071-2.402-.407-4.845-.82-7.318-1.237-1.236-.178-2.473-.488-3.735-.554-1.267-.051-2.534-.107-3.817-.163-2.554-.036-5.129-.367-7.709-.163-2.575.208-5.165.422-7.75.636-1.303.05-2.575.27-3.842.57l-3.801.789c-2.524.539-5.074.951-7.455 1.908-2.412.83-4.809 1.654-7.175 2.463-2.29 1.002-4.463 2.188-6.656 3.236zm87.872 7.002c.849.3 1.674.59 2.478.87.819.235 1.638.397 2.417.59 3.109.825 5.938 1.11 8.259 1.248a32.7 32.7 0 002.86.025 84.105 84.105 0 00-1.41 2.371c-4.814 2.636-15.19 7.46-25.301 6.468-13.77-1.354-9.989-12.824-3.374-7.292 0 0 5.13.941 4.183-2.295-.224-.763-1.521-2.086-3.511-3.12 2.661.392 3.984-1.216 4.483-2.758l3.689 1.761c1.731.936 3.522 1.552 5.227 2.132zM257.86 30.011c23.555-21.352 42.251-24.97 42.251-24.97s-11.846-8.91-29.764-3.038c-17.917 5.872-23.693 28.45-23.693 28.45s-3.44-5.266-11.541-2.126-16.67 12.35-16.67 12.35-1.349-5.669-6.346-7.831c-3.72-1.608-9.445-.143-10.666-5.267-1.013-4.255 2.427-6.209 2.427-6.209.204 3.17 3.104 3.374 5.669 2.158 2.565-1.216 3.913-7.424-2.834-8.37-6.753-.947-12.422 7.963-10.529 16.736 3.766 17.46 34.298 22.955 61.696-1.883zm-3.247 19.012c-.911.753-2 1.69-3.109 2.91a32.469 32.469 0 00-3.44 4.316c-1.166 1.664-2.204 3.582-3.227 5.755-.875 2.01-1.791 4.417-2.376 6.89-.6 2.509-.952 5.226-.712 8.122.142 1.44.397 2.93 1.033 4.427.636 1.47 1.552 3.038 3.287 4.178 1.705 1.21 4.468 1.257 6.208.178 1.802-1.003 2.819-2.468 3.542-3.837 1.42-2.799 1.761-5.557 1.929-8.142.137-2.58-.062-5.104-.316-7.323-.076-1.043-.153-2.06-.224-3.048.01-.997.026-1.964.036-2.89.193-3.73.778-6.85 1.247-9.002.503-2.158.88-3.343.88-3.343l1.079-3.364-3.649 2.54c-.483.396-1.308.85-2.188 1.633zm-.657 11.261c-.086 1.008-.178 2.05-.269 3.135.005 1.099.005 2.239.005 3.41.086 2.203.086 4.37-.194 6.615-.284 2.198-.834 4.493-1.877 6.167-.499.834-1.155 1.46-1.654 1.649-.519.208-.662.06-1.145-.107-1.048-.484-2.122-2.59-2.397-4.707-.346-2.163-.239-4.488.138-6.712.381-2.275.992-4.305 1.74-6.422.743-1.888 1.572-3.74 2.524-5.323a29.063 29.063 0 012.855-4.147c.717-.906 1.45-1.624 2.096-2.26-.616 2.168-1.369 5.11-1.822 8.702z"/><path d="M219.684 23.426c2.092.784 3.97.59 5.547.24 3.181-.77 5.537-2.341 7.648-3.914 2.082-1.598 3.898-3.414 5.42-5.053a856.68 856.68 0 012.137-2.127c.758-.636 1.491-1.247 2.198-1.837 2.926-2.265 5.659-3.842 7.593-4.885.977-.484 1.74-.865 2.264-1.125.54-.244.825-.371.825-.371l3.74-1.695-4.794-1.323c-.615-.137-1.506-.483-2.681-.662-1.171-.218-2.606-.457-4.265-.534a32.116 32.116 0 00-5.577.117c-2.046.168-4.203.596-6.57 1.216-2.101.606-4.584 1.456-6.885 2.6-2.345 1.161-4.707 2.652-6.829 4.749-1.053 1.063-2.061 2.249-2.839 3.765-.753 1.496-1.415 3.303-1.155 5.547.157 2.25 2.106 4.615 4.223 5.292zm3.995-10.681c1.359-1.608 3.155-3.018 5.058-4.168 1.954-1.175 3.842-2.02 5.944-2.83 1.878-.65 3.806-1.23 5.608-1.526a28.39 28.39 0 014.951-.529c.646-.025 1.242.046 1.811.071-1.903.88-4.228 2.026-6.773 3.649l-2.61 1.812-2.651 2.208c-1.644 1.47-3.283 2.824-5.16 4.02-1.842 1.16-3.924 2.168-5.745 2.397-.896.137-1.695.01-1.995-.199-.326-.218-.102-.198-.29-.493-.306-.769.468-2.89 1.852-4.412zm47.482 63.161c-6.783-2.33-10.121-11.037-10.121-11.037.204 6.58-.407 12.05 7.287 18.426 7.684 6.376 15.032-3.2 2.834-7.389zM206.26 54.94c11.369 1.029 17.236-2.045 22.538-7.195 0 0-11.678 2.52-19.128-1.048-13.409-6.412-14.762 7.22-3.41 8.244zm-3.872 8.494c8.31-.25 12.289-2.977 15.673-7.17 0 0-8.228 2.84-13.928.91-10.253-3.47-10.05 6.51-1.745 6.26zm56.678-27.087s-2.01.814-5.471 2.376c-3.434 1.608-8.381 3.842-14.141 6.92-5.766 3.064-12.401 6.84-19.144 11.67-3.348 2.457-6.788 5.083-9.918 8.477-1.547 1.72-3.078 3.587-4.218 6.101-.545 1.262-1.008 2.743-.977 4.468a8.19 8.19 0 001.74 4.936c.351.458.514.61.687.804.438.438.738.682 1.16.982.82.555 1.761.937 2.672 1.11 1.842.356 3.379.046 4.702-.32 2.641-.795 4.661-2.026 6.59-3.278 3.806-2.54 6.971-5.46 9.968-8.315 5.934-5.76 10.89-11.557 14.992-16.63 4.122-5.053 7.261-9.485 9.5-12.544 2.209-3.088 3.384-4.925 3.384-4.925l2.112-3.298-3.638 1.466zm-14.961 16.161c-4.427 4.656-9.628 10.06-15.495 15.378-2.926 2.642-6.081 5.237-9.353 7.41-1.623 1.048-3.354 1.994-4.85 2.407-.727.208-1.389.254-1.669.168-.147-.036-.214-.077-.29-.123-.015-.01-.122-.122-.076-.056-.194-.198-.407-.432-.372-.417-.442-.575-.575-1.323.041-2.834.616-1.425 1.761-2.972 3.043-4.402 2.606-2.88 5.699-5.537 8.804-7.944 6.243-4.824 12.538-8.9 17.947-12.355a689.496 689.496 0 0111.241-6.92c-2.371 2.6-5.429 5.902-8.971 9.688zm-50.775-40.18c6.478 2.432 11.887-1.455 8-5.063-4.153-3.847-16.198-2.535-21.058-5.064-.005 0 6.575 7.694 13.058 10.127z"/><path d="M179.763 34.601s3.542-7.898-6.885-14.783c0 0-8.503 7.287-.605 17.414 7.897 10.127 18.019 7.287 21.668 22.375 0 0 4.737-8.595-.509-16.91-5.369-8.503-13.669-8.096-13.669-8.096zm-21.535 44.007c-5.205-2.55-7.287-2.972-7.287-2.972s.27 10.666 6.885 12.152c6.616 1.481 7.562-5.674.402-9.18z"/><path d="M174.094 46.346c-14.579-9.313-17.21-21.668-10.325-28.751 6.885-7.09 14.172.407 14.172.407s-5.668-9.822-15.591-3.445c-8.107 5.21-7.293 21.769-2.937 29.763 5.008 9.2 10.967 9.582 10.967 9.582.407 15.256 11.607 14.447 11.607 14.447-8.91 9.852-.809 17.48-.809 17.48 22.68-12.961 7.49-30.171-7.084-39.483zm-5.607 24.599c-1.705 0-3.145 1.013-3.837 2.453a30.414 30.414 0 01-2.982-.84c.086-.33.203-.646.203-1.003a4.08 4.08 0 00-4.081-4.08c-1.313 0-2.432.66-3.18 1.628-1.079-.713-2.178-1.456-3.191-2.402-.056-.04-.101-.102-.157-.148a3.593 3.593 0 00.386-1.577 3.68 3.68 0 00-3.679-3.68c-.458 0-.89.108-1.297.26-.779-1.069-1.547-2.152-2.178-3.328.534-.57.875-1.323.875-2.168a3.17 3.17 0 00-3.17-3.17c-.056 0-.102.03-.158.03-.417-1.251-.916-2.462-1.267-3.694.799-.509 1.353-1.358 1.353-2.376 0-1.44-1.079-2.585-2.468-2.789-.086-.458-.198-.92-.254-1.374-.107-1.048-.199-1.99-.3-2.956.819-.402 1.399-1.227 1.399-2.199 0-1.104-.738-2.005-1.735-2.315-.026-1.628.056-3.048.005-4.137 0-1.69.005-2.656.005-2.656v-.061a.667.667 0 00-.657-.667.665.665 0 00-.681.651s-.021.982-.051 2.697c.03 1.1-.072 2.534-.082 4.173-.997.316-1.73 1.216-1.73 2.315 0 1.196.87 2.148 2 2.372.081.966.163 1.959.249 3.007.046.443.148.9.224 1.354-.977.458-1.664 1.435-1.664 2.585 0 1.537 1.216 2.768 2.738 2.84.341 1.277.835 2.544 1.242 3.846-.794.575-1.344 1.466-1.344 2.524a3.17 3.17 0 003.17 3.17c.224 0 .418-.08.626-.127.662 1.273 1.471 2.463 2.295 3.634-.488.626-.829 1.374-.829 2.229a3.681 3.681 0 003.679 3.679c.697 0 1.313-.25 1.868-.585.071.06.132.142.208.198 1.186 1.14 2.484 2.03 3.74 2.885-.015.138-.081.26-.081.402a4.08 4.08 0 004.081 4.081c1.043 0 1.97-.422 2.692-1.063 1.415.534 2.707.9 3.822 1.165.259 2.117 1.994 3.776 4.183 3.776a4.284 4.284 0 004.284-4.285c.016-2.356-1.908-4.274-4.274-4.274zm-43.463-19.2s-6.076 24.838-28.08 31.32c9.313 5.13 17.546 0 17.546 0 1.873 4.046 11.699 6.494 14.986-1.617 0 0 2.703 4.722 10.127 3.51 7.424-1.215 9.719-8.64 9.719-8.64s-20.248-1.353-24.298-24.573z"/><path d="M29.626 11.834l-3.236 1.603c-1.145.596-2.015 1.252-3.023 1.868-1.4.819-2.707 1.816-3.995 2.819C11.831 22.689 2.524 31.629.26 48.574-.9 57.278 1.801 66.096 9.068 72.167c7.388 6.178 18.497 10.152 28.425 2.895 11.17-8.167 8.6-23.677 1.847-27.092-8.849-4.478-17.82 1.517-18.731 9.21-.911 7.695 3.542 11.237 3.542 11.237C9.164 63.454 7.444 49.282 8.966 40.977c1.516-8.3 8.91-17.617 16.502-18.93 7.043-1.221 5.115-5.485 4.316-7.796.29-.137.57-.274.865-.417.57-.264 1.14-.55 1.71-.83-.056 1.99.315 5.598 3.842 5.598 4.86 0 9.516-4.554 18.63-7.287 9.113-2.732 14.7 2.092 16.4 1.822 3.359-.53 3.939-5.15 4.168-8l2.168.107c.076.005.152.026.234.03-3.053 4.052.514 10.138 3.251 8.769 3.038-1.517 13.465-1.115 19.745 2.432.071.04.137.066.208.107-3.333-.768-7.566-.372-11.887 3.165-5.938 4.86-7.292 11.068-7.292 11.068-24.97-8.233-38.338 5.267-38.338 5.267 9.047-.947 15.927.54 44.816 4.59 20.777 2.91 33.758-4.285 39.437-8.564-.753 1.486-1.546 2.956-2.305 4.447-4.457 2.855-15.017 8.967-24.308 9.379 0 0-5.232-3.883-11.577-2.127-6.346 1.755-9.923 4.152-13.669 5.093 21.933 4.875 40.115-4.147 47.783-8.925l-.274.534c-5.547 6.707-9.847 9.465-9.847 9.465-9.582-1.079-17.963 4.234-22.68 8.234-7.155 6.076-13.231 6.885-13.231 6.885 17.82 2.386 32.435-7.776 39.967-14.524-1.649 2.55-3.42 5.013-5.369 7.318-3.969 4.677-8.534 8.564-13.872 11.663-5.012 2.931-10.732 4.916-16.207 5.308-2.748.112-5.466 0-8.015-.667-2.534-.682-4.916-1.704-6.997-3.094a23.32 23.32 0 01-5.226-5.032c-1.308-1.873-2.478-4.122-3.028-6.05-.595-2.036-.672-4.041-.107-5.715.524-1.695 1.802-2.926 3.196-3.664 1.491-.662 2.88-.825 4.397-.377 1.175.351 2.33 1.165 2.824 2.071 1.114 1.909 0 3.603-.972 4.32-1.023.749-1.776.922-1.746.957a.923.923 0 00-.57 1.166.916.916 0 001.16.57c-.014-.057.856-.174 2.306-1.1.682-.519 1.562-1.246 2.107-2.508.55-1.237.575-2.987-.234-4.524-.83-1.547-2.265-2.748-4.265-3.425-1.664-.6-4.117-.605-6.167.285-2.061.916-4.05 2.692-4.957 5.13-.956 2.406-.946 5.17-.274 7.699.712 2.661 1.821 4.875 3.348 7.266.081.112.183.209.264.32-.188-.045-.33-.1-.529-.142-1.883-.396-4.228-.615-6.778-.07-2.544.503-5.206 2.04-7.022 4.233-.876 1.028-1.715 2.325-2.204 3.837-.473 1.506-.503 3.338.184 4.89.65 1.557 1.826 2.723 3.073 3.445 1.262.713 2.626 1.064 3.929 1.028 1.297-.036 2.519-.427 3.445-1.028a6.464 6.464 0 001.969-1.954c.407-.626.62-1.155.743-1.506.122-.356.188-.54.188-.54a2.084 2.084 0 00-1.338-2.625 2.077 2.077 0 00-2.62 1.338c-.057-.076-.474 1.868-2.438 1.817-.983.04-2.361-.657-2.753-1.725-.209-.52-.245-1.13-.072-1.878.204-.743.631-1.527 1.262-2.34 1.186-1.548 2.845-2.556 4.646-3.125 1.812-.55 3.725-.657 5.39-.611 1.638.076 3.037.285 4.02.453.829.799 1.674 1.587 2.62 2.295 2.407 1.72 5.18 3.022 8.152 3.908 2.982.865 6.153 1.13 9.338 1.058 6.402-.427 12.6-2.503 18.391-5.816 5.506-3.11 10.803-7.475 15.067-12.447 4.351-4.972 7.74-10.605 10.666-16.208.285-.539.529-1.068.809-1.608.112.896.306 1.817.545 2.758.448 2.016 1.18 4.082 2.005 6.097 1.649 4.04 3.989 7.704 5.893 10.31 1.898 2.6 3.44 4.172 3.44 4.172l.015.016a.891.891 0 001.297-1.221s-1.368-1.517-3.104-4.123c-1.72-2.585-3.816-6.203-5.2-10.075-.692-1.929-1.298-3.893-1.629-5.77-.198-.932-.356-1.838-.412-2.708-.086-.865-.203-1.68-.173-2.433-.005-.753-.015-1.445-.02-2.055.01-.122.02-.204.03-.32 1.583-3.227 3.135-6.403 4.733-9.415 2.732-5.165 5.719-9.877 9.246-13.643.392-.417.824-.773 1.231-1.165-2.259 5.72-2.101 13.892 1.929 23.439 3.689 8.737 2.967 12.421 2.967 12.421 8.101-4.453 1.353-19.978 1.486-28.35.091-5.663 3.022-11.383 4.91-14.492 3.995-1.45 7.898-1.898 11.2-1.277 3.486.641 6.214 2.386 8.117 4.152a22.525 22.525 0 013.862 4.728c.748 1.221 1.018 1.888 1.023 1.888a.919.919 0 001.13.524.92.92 0 00.59-1.15l-.01-.03s-.27-.835-.972-2.21c-.712-1.373-1.842-3.383-3.893-5.505-2.02-2.107-5.073-4.356-9.185-5.374-4.091-1.079-8.976-.626-13.689 1.028-1.221.407-2.295.865-3.608 1.435-1.109.55-2.223 1.074-3.45 1.842a36.265 36.265 0 00-3.47 2.402c-3.878.84-9.877 1.445-13.887-1.46-6.346-4.59-14.849-8.91-20.116-.54 1.888-1.888 9.485 1.69 15.826 5.465 3.928 2.341 9.348 2.117 12.905 1.608a48.061 48.061 0 00-3.191 4.056c-.01 0-.02.005-.035.005a30.56 30.56 0 01-4.901.173c-2.132-.112-4.753-.346-7.674-1.094-.732-.173-1.501-.315-2.274-.53a420.8 420.8 0 01-2.346-.808c-1.613-.535-3.308-1.094-4.977-1.97l-5.419-2.529c-1.883-.855-3.827-1.735-5.832-2.646-1.018-.432-1.979-.967-3.074-1.328-1.109-.336-2.228-.682-3.358-1.028-2.27-.677-4.575-1.425-6.941-2.071-2.402-.407-4.845-.82-7.318-1.237-1.236-.178-2.473-.488-3.735-.554-1.267-.051-2.54-.107-3.816-.163-2.555-.036-5.13-.366-7.71-.163-2.575.209-5.165.422-7.75.636-1.297.051-2.575.27-3.842.57l-3.801.789c-2.524.54-5.074.952-7.455 1.908-2.412.83-4.809 1.654-7.175 2.463-2.28.987-4.453 2.173-6.646 3.221zm87.872 7.002c.85.3 1.674.59 2.478.87.819.235 1.639.397 2.417.59 3.109.825 5.939 1.11 8.259 1.248 1.064.055 2.005.055 2.86.025a86.571 86.571 0 00-1.41 2.371c-4.813 2.636-15.189 7.46-25.301 6.468-13.77-1.354-9.989-12.824-3.373-7.292 0 0 5.129.941 4.183-2.295-.224-.763-1.522-2.086-3.512-3.12 2.662.392 3.985-1.216 4.483-2.758l3.69 1.761c1.73.936 3.521 1.552 5.226 2.132z"/></g></svg>