<svg width="80" height="80" fill="none" xmlns="http://www.w3.org/2000/svg"><g clip-path="url(#clip0_240_38312)" fill="#0081C9"><path d="M23.906 40.04c0 8.932 7.268 16.2 16.201 16.2 8.934 0 16.202-7.268 16.202-16.2 0-8.934-7.268-16.202-16.202-16.202-8.933 0-16.2 7.268-16.2 16.201zm16.201-11.573c6.381 0 11.573 5.191 11.573 11.572 0 6.381-5.192 11.572-11.573 11.572-6.38 0-11.572-5.191-11.572-11.572 0-6.38 5.192-11.572 11.572-11.572z"/><path d="M40.107 46.982a6.951 6.951 0 006.944-6.943 6.951 6.951 0 00-6.944-6.943 6.951 6.951 0 00-6.943 6.943 6.951 6.951 0 006.943 6.943zm0-9.257a2.317 2.317 0 012.315 2.314 2.317 2.317 0 01-2.315 2.314 2.317 2.317 0 01-2.314-2.314 2.317 2.317 0 012.314-2.314zM65.566.54h14.041v4.628h-14.04V.539zm0 9.257h14.041v4.629h-14.04v-4.63zM10.02 65.652h13.886v4.63H10.02v-4.63zm0 9.258h13.886v4.63H10.02v-4.63zm-9.413 0h4.63v4.63H.606v-4.63zm0-9.258h4.63v4.63H.606v-4.63zM56.309 9.797h4.629v4.629h-4.63v-4.63zm0-9.257h4.629v4.628h-4.63V.539zM26.701 18.387a25.437 25.437 0 00-2.784 1.997l2.944 3.572a20.667 20.667 0 017.673-3.988l-1.237-4.46c-.836.232-1.654.504-2.453.814L23.028.54H.608v4.629h19.547l6.546 13.22zm26.813 43.304a25.478 25.478 0 002.681-1.912l-2.925-3.588a20.672 20.672 0 01-7.694 3.948l1.214 4.467a25.83 25.83 0 002.581-.85l7.815 15.783h22.421V74.91H60.06l-6.546-13.219zm12.055-21.63a25.5 25.5 0 00-1.7-9.17l-4.322 1.66a20.86 20.86 0 011.367 8.545l4.623.23c.021-.419.032-.845.032-1.265zm-9.238 13.045l3.61 2.899a25.563 25.563 0 004.777-9.426l-4.473-1.19a20.94 20.94 0 01-3.914 7.717zm-8.956-32.593l1.62-4.337a25.255 25.255 0 00-10.46-1.548l.289 4.62a20.645 20.645 0 018.551 1.265zm-28.619 5.66a25.432 25.432 0 00-3.294 7.455l4.48 1.166a20.811 20.811 0 012.696-6.1c.366-.564.762-1.115 1.177-1.637l-3.623-2.88a25.82 25.82 0 00-1.436 1.996zm7.597 35.29l2.502-3.895c-.395-.316-3.52-2.068-6.154-6.076l-3.868 2.542c3.188 4.85 6.893 6.925 7.52 7.429zM14.646 40.017c0 3.192.588 6.319 1.749 9.294l4.312-1.682a20.86 20.86 0 01-1.412-8.538l-4.624-.205c-.016.374-.025.755-.025 1.131zm25.44 20.855c-2.524 0-4.996-.453-7.348-1.345l-1.642 4.328a25.251 25.251 0 0010.452 1.604l-.266-4.621c-.396.022-.799.034-1.196.034zM53.75 18.544l-2.481 3.907.183.118a20.676 20.676 0 016.121 6.108l3.882-2.521a25.274 25.274 0 00-7.705-7.612z"/></g><defs><clipPath id="clip0_240_38312"><path fill="#fff" transform="translate(.607 .54)" d="M0 0h79v79H0z"/></clipPath></defs></svg>