<svg width="80" height="80" fill="none" xmlns="http://www.w3.org/2000/svg"><g clip-path="url(#clip0_240_38272)" fill="#0081C9"><path d="M78.65 38.644l-6.714-9.11.078-11.318a2.35 2.35 0 00-1.641-2.257l-10.79-3.417-6.58-9.21a2.353 2.353 0 00-2.658-.863L39.607 6.054 28.87 2.468a2.351 2.351 0 00-2.658.864l-6.58 9.208-10.79 3.419a2.35 2.35 0 00-1.64 2.256l.076 11.318-6.713 9.11c-.61.83-.61 1.961 0 2.79l6.713 9.11-.077 11.319a2.35 2.35 0 001.641 2.257l10.79 3.416 6.58 9.21a2.352 2.352 0 002.658.863l10.737-3.584 10.738 3.585a2.352 2.352 0 002.657-.863l6.58-9.209 10.79-3.418a2.35 2.35 0 001.642-2.256l-.078-11.319 6.714-9.11c.61-.83.61-1.961 0-2.79zm-10.964 9.74c-.3.409-.461.904-.458 1.41l.07 10.366-9.884 3.13a2.35 2.35 0 00-1.203.875l-6.024 8.433-9.835-3.283a2.346 2.346 0 00-1.49 0l-9.834 3.283-6.026-8.434a2.358 2.358 0 00-1.203-.875l-9.883-3.13.07-10.365a2.353 2.353 0 00-.458-1.411l-6.15-8.344 6.15-8.345c.3-.41.461-.904.457-1.41l-.07-10.366 9.884-3.13c.486-.154.908-.46 1.203-.876l6.025-8.433 9.835 3.283a2.348 2.348 0 001.49 0l9.834-3.283 6.026 8.434c.295.414.718.722 1.203.876l9.883 3.13-.07 10.365a2.353 2.353 0 00.458 1.41l6.15 8.345-6.15 8.345z"/><path d="M51.17 29.56L35.2 45.53l-7.155-7.154a2.35 2.35 0 10-3.325 3.325l8.818 8.817a2.35 2.35 0 003.325 0l17.634-17.634a2.35 2.35 0 000-3.325 2.353 2.353 0 00-3.326 0z"/></g><defs><clipPath id="clip0_240_38272"><path fill="#fff" transform="translate(.107 .54)" d="M0 0h79v79H0z"/></clipPath></defs></svg>