<svg width="80" height="82" fill="none" xmlns="http://www.w3.org/2000/svg"><path d="M34.24 19.014v0a3.784 3.784 0 01-3.78 3.78 3.784 3.784 0 01-3.778-3.78 3.784 3.784 0 013.779-3.779 3.784 3.784 0 013.78 3.78zM16.158 55.97H5.464c-.866 0-1.568.702-1.568 1.568v22.21c0 .867.702 1.568 1.568 1.568h10.694c.866 0 1.567-.701 1.567-1.567V57.537c0-.866-.701-1.568-1.567-1.568zM14.59 78.18H7.031V59.104h7.56V78.18zm21.351-42.99H25.247c-.866 0-1.567.702-1.567 1.567v42.487c0 .866.701 1.568 1.567 1.568h10.694c.866 0 1.568-.702 1.568-1.568V36.756c0-.865-.701-1.567-1.568-1.567zm-1.567 42.487h-7.559V38.324h7.56v39.352zm21.351-35.42H45.031c-.866 0-1.567.703-1.567 1.568V78.74c0 .865.701 1.567 1.567 1.567h10.694c.866 0 1.568-.701 1.568-1.567V43.824c0-.865-.702-1.567-1.568-1.567zm-1.567 34.915h-7.56v-31.78h7.56v31.78zm21.351-54.603H64.815c-.866 0-1.568.702-1.568 1.568v54.098c0 .866.702 1.567 1.568 1.567h10.694c.866 0 1.568-.701 1.568-1.567V24.136c0-.866-.702-1.568-1.568-1.568zm-1.567 54.098h-7.56V25.704h7.56v50.962zm-23.697-43.25a6.922 6.922 0 006.914-6.914 6.857 6.857 0 00-1.088-3.708l9.982-8.914a6.87 6.87 0 003.976 1.264 6.922 6.922 0 006.914-6.915 6.922 6.922 0 00-6.914-6.914 6.922 6.922 0 00-6.915 6.915c0 1.2.312 2.327.853 3.31l-10.138 9.053a6.867 6.867 0 00-3.584-1.006 6.904 6.904 0 00-5.703 3.02l-7.216-2.802c.032-.257.05-.52.05-.79A6.922 6.922 0 0030.46 12.1a6.922 6.922 0 00-6.914 6.914c0 1.314.37 2.54 1.008 3.587l-10.46 10.236a6.863 6.863 0 00-3.418-.91 6.922 6.922 0 00-6.914 6.914 6.922 6.922 0 006.914 6.915 6.922 6.922 0 006.915-6.915 6.86 6.86 0 00-1.195-3.87L26.751 24.84a6.857 6.857 0 003.71 1.09 6.91 6.91 0 005.808-3.171l7.13 2.768a6.921 6.921 0 006.846 7.89zM10.677 42.62a3.784 3.784 0 01-3.78-3.779 3.784 3.784 0 013.78-3.779 3.784 3.784 0 013.78 3.78 3.784 3.784 0 01-3.78 3.778zM70.029 4.45a3.784 3.784 0 013.779 3.78 3.784 3.784 0 01-3.78 3.78 3.784 3.784 0 01-3.779-3.78 3.784 3.784 0 013.78-3.78zM50.245 22.723a3.784 3.784 0 013.779 3.78 3.784 3.784 0 01-3.78 3.779 3.784 3.784 0 01-3.779-3.78 3.784 3.784 0 013.78-3.779z" fill="#0081C9" stroke="#0081C9"/></svg>