<svg width="80" height="80" fill="none" xmlns="http://www.w3.org/2000/svg"><g clip-path="url(#clip0_240_38338)" fill="#0081C9"><path d="M43.219 19.154a2.913 2.913 0 11-5.825 0 2.913 2.913 0 015.825 0zm1.176-4.229l3.935-2.44a9.388 9.388 0 00-8.024-4.472 9.39 9.39 0 00-8.024 4.471l3.935 2.44a4.786 4.786 0 014.09-2.282c1.673 0 3.202.854 4.088 2.283z"/><path d="M40.306 5.169c4.432 0 8.478 2.256 10.822 6.036l3.935-2.44C51.867 3.614 46.35.538 40.306.538S28.745 3.614 25.55 8.764l3.935 2.44c2.344-3.779 6.39-6.035 10.822-6.035zM71.434 55.73a10.862 10.862 0 002.537-6.986c0-6.018-4.897-10.915-10.915-10.915-5.262 0-9.666 3.743-10.69 8.707a12.491 12.491 0 00-3.682-2.044 10.863 10.863 0 002.537-6.986c0-6.02-4.896-10.916-10.914-10.916-6.02 0-10.916 4.897-10.916 10.916 0 2.655.955 5.092 2.537 6.986a12.481 12.481 0 00-3.67 2.036c-1.028-4.96-5.43-8.699-10.69-8.699-6.017 0-10.914 4.897-10.914 10.915 0 2.656.954 5.092 2.537 6.987C4.318 57.438.812 62.08.812 67.53v11.993h79V67.53c0-5.449-3.505-10.092-8.378-11.8zm-8.378-13.27a6.292 6.292 0 016.285 6.285 6.292 6.292 0 01-6.285 6.285 6.293 6.293 0 01-6.286-6.285 6.292 6.292 0 016.286-6.285zm-22.75-11.24a6.293 6.293 0 016.286 6.287 6.292 6.292 0 01-6.286 6.285 6.292 6.292 0 01-6.285-6.285 6.293 6.293 0 016.285-6.286zM17.569 42.46a6.293 6.293 0 016.286 6.285 6.293 6.293 0 01-6.286 6.285 6.292 6.292 0 01-6.285-6.285 6.292 6.292 0 016.285-6.285zM5.442 74.893V67.53c0-4.34 3.53-7.87 7.87-7.87h8.513c.593 0 1.17.066 1.725.19v15.043H5.442zm46.99 0H28.18V56.291c0-4.34 3.53-7.87 7.87-7.87h8.513c4.34 0 7.87 3.53 7.87 7.87v18.602zm22.751 0h-18.12V59.856a7.855 7.855 0 011.737-.197h8.513c4.34 0 7.87 3.531 7.87 7.87v7.364z"/></g><defs><clipPath id="clip0_240_38338"><path fill="#fff" transform="translate(.813 .54)" d="M0 0h79v79H0z"/></clipPath></defs></svg>