<svg width="895" height="596" fill="none" xmlns="http://www.w3.org/2000/svg"><path d="M207.498 3l68.166 118.067-68.166 118.067H71.166L3 121.067 71.166 3h136.332z" stroke="#EDEDED" stroke-width="5"/><path d="M209.498 239l68.166 118.067-68.166 118.067H73.166L5 357.067 73.166 239h136.332z" stroke="#EDEDED" stroke-width="5"/><path d="M412.498 120l68.166 118.067-68.166 118.067H276.166L208 238.067 276.166 120h136.332z" stroke="#EDEDED" stroke-width="5"/><path d="M413.498 356l68.166 118.067-68.166 118.067H277.166L209 474.067 277.166 356h136.332zm204-353l68.166 118.067-68.166 118.067H481.166L413 121.067 481.166 3h136.332z" stroke="#EDEDED" stroke-width="5"/><path d="M618.498 238l68.166 118.067-68.166 118.067H482.166L414 356.067 482.166 238h136.332z" stroke="#EDEDED" stroke-width="5"/><path d="M822.498 121l68.166 118.067-68.166 118.067H686.166L618 239.067 686.166 121h136.332z" stroke="#EDEDED" stroke-width="5"/><path d="M823.498 357l68.166 118.067-68.166 118.067H687.166L619 475.067 687.166 357h136.332z" stroke="#EDEDED" stroke-width="5"/></svg>