<svg width="80" height="80" fill="none" xmlns="http://www.w3.org/2000/svg"><g clip-path="url(#clip0_240_38303)" fill="#0081C9"><path d="M6.748 67.686v9.066c0 1.804 1.978 2.913 3.517 1.978l3.873-2.355 3.873 2.355c1.54.937 3.517-.177 3.517-1.978v-8.615H56.96a2.314 2.314 0 002.314-2.314V2.383A2.314 2.314 0 0056.961.07H9.24a7.127 7.127 0 00-7.12 7.12v53.828c0 3.05 1.927 5.657 4.628 6.67zm10.15 4.95l-1.558-.947a2.314 2.314 0 00-2.405 0l-1.558.947v-4.499h5.522v4.5zm37.748-9.128h-4.629V4.698h4.63v58.81zM6.748 7.19A2.495 2.495 0 019.24 4.698h36.149v58.81H9.239a2.495 2.495 0 01-2.491-2.491V7.19zm57.156-2.474c0 53.874-.09 50.57.187 51.218l4.63 10.8c.798 1.864 3.453 1.87 4.254 0l4.629-10.8c.278-.65.187 2.556.187-51.218A4.652 4.652 0 0073.144.07H68.55a4.652 4.652 0 00-4.647 4.647zm6.944 55.232l-2.315-5.4V16.762h4.63v37.784l-2.315 5.4zm2.302-55.25c.003.002.01.009.012.018v7.419h-4.628V4.71c0-.003.008-.01.017-.012h4.6z"/><path d="M24.433 45.925a2.315 2.315 0 003.272 0l10.721-10.72c3.106-3.106 3.106-8.16 0-11.266a7.965 7.965 0 00-11.266 0l-1.091 1.09-1.091-1.091a7.962 7.962 0 00-11.279.012 7.962 7.962 0 00.011 11.255l10.723 10.72zm-7.45-18.713l.009-.01a3.336 3.336 0 014.712.008l2.728 2.728c.904.904 2.37.904 3.273 0l2.728-2.727a3.337 3.337 0 114.72 4.72l-9.084 9.084-9.086-9.084a3.336 3.336 0 010-4.72z"/></g><defs><clipPath id="clip0_240_38303"><path fill="#fff" transform="translate(.462 .07)" d="M0 0h79v79H0z"/></clipPath></defs></svg>