<svg width="80" height="80" fill="none" xmlns="http://www.w3.org/2000/svg"><g clip-path="url(#clip0_240_38291)" fill="#0081C9"><path d="M.608 65.667c0 1.788 1.288 4.33 7.427 6.285 4.124 1.314 9.636 2.067 15.122 2.067 5.518 0 10.727-.738 14.668-2.076C43.54 70 44.74 67.458 44.74 65.667V41.583h7.146v23.27c0 .851.69 1.542 1.543 1.542h10.368v4.82c0 .851.69 1.542 1.543 1.542h12.724c.852 0 1.543-.69 1.543-1.543V58.49c0-.852-.691-1.543-1.543-1.543H65.34c-.852 0-1.543.691-1.543 1.543v4.82h-8.825V41.581h8.69c.045 0 .09-.003.135-.007V46.4c0 .852.69 1.543 1.543 1.543h12.724c.852 0 1.543-.69 1.543-1.543V33.677c0-.852-.691-1.542-1.543-1.542H65.34c-.852 0-1.543.69-1.543 1.543v4.825a1.603 1.603 0 00-.136-.007h-8.689V16.77h8.825v4.819c0 .852.69 1.543 1.543 1.543h12.724c.852 0 1.543-.69 1.543-1.543V8.864c0-.852-.691-1.543-1.543-1.543H65.34c-.852 0-1.543.691-1.543 1.543v4.82H53.43c-.852 0-1.543.69-1.543 1.542v23.27h-7.146V14.411c0-5.483-10.858-8.351-21.584-8.351-10.931 0-22.55 2.927-22.55 8.35v51.256zm22.55-30.09c7.226 0 14.512-1.302 18.497-3.829v8.292c0 .854-1.492 2.221-4.823 3.353-3.63 1.233-8.486 1.912-13.675 1.912-5.181 0-10.352-.7-14.185-1.921-4.17-1.328-5.275-2.765-5.278-3.342v-8.44c4.18 2.604 11.982 3.975 19.463 3.975zm-19.464-8.35v-8.44c4.18 2.605 11.982 3.976 19.463 3.976 7.227 0 14.513-1.302 18.498-3.829v8.292c0 .853-1.492 2.221-4.823 3.353-3.63 1.233-8.486 1.912-13.675 1.912-5.181 0-10.352-.7-14.185-1.921-4.172-1.33-5.277-2.767-5.278-3.343zM23.157 48.39c7.227 0 14.513-1.302 18.498-3.83v8.293c-.001.854-1.493 2.221-4.823 3.353-3.63 1.233-8.486 1.912-13.675 1.912-5.181 0-10.352-.7-14.185-1.921-4.166-1.327-5.274-2.763-5.278-3.34v-8.442c4.18 2.604 11.982 3.975 19.463 3.975zM8.972 11.067c3.833-1.221 9.004-1.921 14.185-1.921 5.189 0 10.045.679 13.675 1.912 3.332 1.132 4.823 2.5 4.823 3.353 0 .854-1.491 2.222-4.823 3.354-3.63 1.233-8.486 1.912-13.675 1.912-5.181 0-10.352-.7-14.185-1.922-4.175-1.33-5.278-2.768-5.278-3.344 0-.575 1.103-2.014 5.278-3.344zm27.86 57.954c-3.63 1.233-8.486 1.912-13.675 1.912-5.181 0-10.352-.7-14.185-1.921-4.175-1.33-5.278-2.77-5.278-3.345V57.23c4.18 2.604 11.982 3.975 19.463 3.975 7.227 0 14.513-1.302 18.498-3.829v8.291c0 .854-1.491 2.222-4.823 3.354zm30.052-8.987h9.638v9.637h-9.638v-9.637zm0-24.813h9.638v9.637h-9.638v-9.637zm0-24.814h9.638v9.638h-9.638v-9.638z"/><path fill-rule="evenodd" clip-rule="evenodd" d="M36.832 30.579c3.331-1.132 4.822-2.5 4.823-3.353v-8.292c-.26.165-.535.325-.823.48-4.115 2.211-10.92 3.349-17.675 3.349-7.015 0-14.312-1.206-18.64-3.503-.288-.153-.563-.31-.823-.473v8.44c.001.576 1.106 2.014 5.278 3.343 3.833 1.22 9.004 1.921 14.185 1.921 5.189 0 10.045-.679 13.675-1.912zm-27.61-.793c3.733 1.189 8.815 1.882 13.935 1.882 5.128 0 9.89-.672 13.41-1.868 1.613-.548 2.733-1.138 3.433-1.66.35-.263.573-.492.702-.67.12-.167.13-.248.13-.248v-6.88c-1.954.982-4.389 1.731-7.05 2.261-3.283.653-6.965.983-10.625.983-3.787 0-7.662-.347-11.128-1.027-2.84-.557-5.446-1.345-7.513-2.374v6.997c.009.02.031.068.086.145.108.15.31.368.66.63.7.525 1.928 1.181 3.96 1.829zm0-17.935c-2.034.648-3.261 1.304-3.961 1.83-.35.262-.552.48-.66.63a.978.978 0 00-.064.1.99.99 0 00.064.1c.108.151.31.369.66.631.7.525 1.927 1.182 3.96 1.83 3.734 1.188 8.816 1.882 13.936 1.882 5.129 0 9.89-.672 13.41-1.869l.265.78c-3.63 1.233-8.486 1.912-13.675 1.912-5.181 0-10.352-.7-14.185-1.922-4.175-1.33-5.278-2.768-5.278-3.344 0-.575 1.103-2.014 5.278-3.344 3.833-1.221 9.004-1.921 14.185-1.921 5.189 0 10.045.679 13.675 1.912l-.265.779c-3.52-1.196-8.281-1.869-13.41-1.869-5.12 0-10.202.694-13.936 1.883zm27.61 5.914c3.332-1.132 4.823-2.5 4.823-3.354 0-.853-1.491-2.221-4.823-3.353l-.265.779c1.613.548 2.734 1.138 3.433 1.66.35.263.574.492.703.67a.694.694 0 01.128.244.694.694 0 01-.128.244c-.13.179-.353.408-.703.67-.7.522-1.82 1.113-3.433 1.66l.265.78zM9.222 55.414c3.733 1.189 8.815 1.882 13.935 1.882 5.129 0 9.89-.672 13.41-1.868C38.18 54.88 39.3 54.29 40 53.768c.35-.262.574-.492.703-.67.12-.166.13-.246.13-.248v-6.88c-1.954.982-4.389 1.731-7.05 2.261-3.283.653-6.965.983-10.625.983-3.787 0-7.662-.347-11.128-1.027-2.84-.557-5.446-1.345-7.512-2.374v6.998c.008.02.03.069.086.146.109.151.312.368.662.63.701.525 1.928 1.18 3.956 1.827zm-5.528-2.557c.004.578 1.112 2.014 5.278 3.34 3.833 1.222 9.004 1.922 14.185 1.922 5.189 0 10.046-.679 13.675-1.912 3.33-1.132 4.822-2.499 4.823-3.353v-8.292c-.26.165-.535.325-.823.48-4.115 2.211-10.92 3.349-17.675 3.349-7.015 0-14.312-1.206-18.64-3.503-.288-.153-.563-.31-.823-.472v8.441zm0 12.81c0 .576 1.103 2.015 5.278 3.345 3.833 1.22 9.004 1.921 14.185 1.921 5.189 0 10.046-.679 13.675-1.912 3.332-1.132 4.823-2.5 4.823-3.354v-8.29c-.26.164-.535.324-.823.479-4.115 2.211-10.92 3.35-17.675 3.35-7.015 0-14.312-1.207-18.64-3.504a13.73 13.73 0 01-.823-.472v8.437zm.823-7.04v6.997c.008.02.03.068.084.144.108.15.31.368.66.63.7.525 1.927 1.182 3.96 1.83 3.734 1.189 8.816 1.882 13.936 1.882 5.129 0 9.89-.672 13.41-1.868 1.613-.548 2.734-1.139 3.433-1.661.35-.262.573-.491.702-.67.12-.167.13-.247.13-.247v-6.88c-1.954.982-4.389 1.732-7.05 2.261-3.283.654-6.965.983-10.625.983-3.787 0-7.662-.347-11.128-1.026-2.84-.558-5.446-1.346-7.512-2.375zm-4.732 7.04V14.411c0-1.684.91-3.096 2.286-4.228C3.44 9.055 5.34 8.14 7.525 7.42c4.377-1.445 10.107-2.183 15.632-2.183 5.422 0 10.915.723 15.083 2.165 2.081.72 3.883 1.636 5.18 2.773 1.305 1.145 2.144 2.562 2.144 4.236v23.262h5.5V15.226a2.366 2.366 0 012.366-2.366h9.545V8.864a2.366 2.366 0 012.366-2.366h12.724a2.366 2.366 0 012.365 2.366v12.724a2.366 2.366 0 01-2.365 2.366H65.34a2.366 2.366 0 01-2.366-2.366v-3.996h-7.18v20.081h7.18v-3.995a2.366 2.366 0 012.366-2.366h12.724a2.366 2.366 0 012.365 2.366V46.4a2.366 2.366 0 01-2.365 2.366H65.34a2.366 2.366 0 01-2.366-2.366v-3.996h-7.18v20.081h7.18V58.49a2.366 2.366 0 012.366-2.366h12.724a2.366 2.366 0 012.365 2.366v12.724a2.366 2.366 0 01-2.365 2.366H65.34a2.366 2.366 0 01-2.366-2.366v-3.996H53.43a2.366 2.366 0 01-2.366-2.366V42.405h-5.5v23.262c0 1.1-.376 2.382-1.532 3.638-1.14 1.238-3.007 2.42-5.943 3.417-4.048 1.375-9.352 2.12-14.932 2.12-5.55 0-11.149-.76-15.372-2.106-3.14-1-5.134-2.179-6.351-3.411-1.237-1.253-1.65-2.541-1.649-3.658zm63.877-24.085c.046 0 .091-.003.136-.007v4.826c0 .852.69 1.543 1.543 1.543h12.724c.852 0 1.543-.69 1.543-1.543V33.677c0-.852-.691-1.542-1.543-1.542H65.34c-.852 0-1.543.69-1.543 1.543v4.825a1.603 1.603 0 00-.136-.007h-8.689V16.77h8.825v4.819c0 .852.69 1.543 1.543 1.543h12.724c.852 0 1.543-.69 1.543-1.543V8.864c0-.852-.691-1.543-1.543-1.543H65.34c-.852 0-1.543.691-1.543 1.543v4.82H53.43c-.852 0-1.543.69-1.543 1.542v23.27h-7.146V14.411c0-5.483-10.858-8.351-21.584-8.351-10.931 0-22.55 2.927-22.55 8.35v51.256c0 1.788 1.29 4.33 7.428 6.285 4.124 1.314 9.636 2.067 15.122 2.067 5.518 0 10.727-.738 14.668-2.076C43.54 70 44.74 67.458 44.74 65.667V41.582h7.146v23.27c0 .852.69 1.543 1.543 1.543h10.368v4.82c0 .851.69 1.542 1.543 1.542h12.724c.852 0 1.543-.69 1.543-1.543V58.49c0-.852-.691-1.543-1.543-1.543H65.34c-.852 0-1.543.691-1.543 1.543v4.82h-8.825V41.581h8.69zm-29.88-6.165c-3.283.653-6.965.983-10.625.983-3.787 0-7.662-.347-11.128-1.027-2.84-.557-5.446-1.345-7.513-2.374v6.998a.78.78 0 00.087.145c.108.151.31.368.66.63.701.525 1.928 1.181 3.958 1.828 3.734 1.189 8.816 1.882 13.936 1.882 5.128 0 9.89-.672 13.41-1.868 1.613-.548 2.733-1.138 3.432-1.66.35-.262.574-.492.703-.67.12-.167.13-.248.13-.248v-6.88c-1.954.982-4.389 1.731-7.05 2.261zm7.05-3.19c-4.115 2.212-10.92 3.35-17.675 3.35-7.015 0-14.312-1.206-18.64-3.503-.288-.153-.563-.31-.823-.472v8.44c.003.577 1.108 2.014 5.278 3.342 3.833 1.22 9.004 1.921 14.185 1.921 5.189 0 10.045-.679 13.675-1.912 3.33-1.132 4.822-2.5 4.823-3.353v-8.292c-.26.165-.535.325-.823.48zm0 7.813zm34.867 20.816h-7.992v7.992h7.992v-7.992zm0-24.813h-7.992v7.992h7.992v-7.992zm0-24.813h-7.992v7.992h7.992V11.23zm-8.815 48.804v9.637h9.638v-9.637h-9.638zm0-24.813v9.637h9.638v-9.637h-9.638zm0-24.814v9.638h9.638v-9.638h-9.638z"/></g><defs><clipPath id="clip0_240_38291"><path fill="#fff" transform="translate(.607 .54)" d="M0 0h79v79H0z"/></clipPath></defs></svg>