<svg width="604" height="1742" fill="none" xmlns="http://www.w3.org/2000/svg"><path d="M361.5 210.116l.5-.289V71.173l-.5-.289-119-68.75-.5-.289-.5.29-119 68.75-.5.288v138.654l.5.289 119 68.75.5.289.5-.289 119-68.75zm120 1043.004l.5-.29v-138.66l-.5-.29-119-68.75-.5-.28-.5.28-119 68.75-.5.29v138.66l.5.29 119 68.75.5.28.5-.28 119-68.75zm.002-834.255l.498-.289V279.424l-.498-.289-119-69-.502-.291-.502.291-119 69-.498.289v139.152l.498.289 119 69 .502.291.502-.291 119-69zm-120 1043.005l.498-.29v-139.16l-.498-.29-119-69-.502-.29-.502.29-119 69-.498.29v139.16l.498.29 119 69 .502.29.502-.29 119-69zm0-834.005l.498-.289V488.424l-.498-.289-119-69-.502-.291-.502.291-119 69-.498.289v139.152l.498.289 119 69 .502.291.502-.291 119-69z" stroke="#EDEDED" stroke-width="2"/><path d="M480.502 1670.87l.498-.29v-139.16l-.498-.29-119-69-.502-.29-.502.29-119 69-.498.29v139.16l.498.29 119 69 .502.29.502-.29 119-69zm1-834.005l.498-.289V697.424l-.498-.289-119-69-.502-.291-.502.291-119 69-.498.289v139.152l.498.289 119 69 .502.291.502-.291 119-69zM361.5 1045.12l.5-.29V906.173l-.5-.289-119-68.75-.5-.289-.5.289-119 68.75-.5.289v138.657l.5.29 119 68.75.5.28.5-.28 119-68.75z" stroke="#EDEDED" stroke-width="2"/><path d="M601.5 210.834l.5-.289V71.891l-.5-.29-119-68.75-.5-.288-.5.289-119 68.75-.5.289v138.654l.5.289 119 68.75.5.289.5-.289 119-68.75zm-361 625l.5-.289V696.891l-.5-.289-119-68.75-.5-.289-.5.289-119 68.75-.5.289v138.654l.5.289 119 68.75.5.289.5-.289 119-68.75zm362 209.996l.5-.29V906.891l-.5-.289-119-68.75-.5-.289-.5.289-119 68.75-.5.289v138.649l.5.29 119 68.75.5.29.5-.29 119-68.75z" stroke="#E30613" stroke-width="2"/><path d="M241.5 417.834l.5-.289V278.891l-.5-.289-119-68.75-.5-.289-.5.289-119 68.75-.5.289v138.654l.5.289 119 68.75.5.289.5-.289 119-68.75zm-1 834.996l.5-.29v-138.65l-.5-.29-119-68.75-.5-.29-.5.29-119 68.75-.5.29v138.65l.5.29 119 68.75.5.29.5-.29 119-68.75z" stroke="#004F9F" stroke-width="2"/><path d="M601.5 626.834l.5-.289V487.891l-.5-.289-119-68.75-.5-.289-.5.289-119 68.75-.5.289v138.654l.5.289 119 68.75.5.289.5-.289 119-68.75z" fill="#004F9F" stroke="#004F9F" stroke-width="2"/><path d="M240.5 1669.83l.5-.29v-138.65l-.5-.29-119-68.75-.5-.29-.5.29-119 68.75-.5.29v138.65l.5.29 119 68.75.5.29.5-.29 119-68.75z" fill="#E30613" stroke="#E30613" stroke-width="2"/></svg>