<svg width="1590" height="812" fill="none" xmlns="http://www.w3.org/2000/svg"><path d="M328.264 81.8l93.692 162.279-93.692 162.279H140.88L47.188 244.079 140.88 81.8h187.384zm560.741-.04l93.692 162.28-93.692 162.279H701.622L607.93 244.04l93.692-162.28h187.383zm560.105.277l93.69 162.279-93.69 162.279h-187.38l-93.69-162.279 93.69-162.28h187.38z" stroke="#EDEDED" stroke-width="5"/><path d="M608.652 243.243l93.692 162.279-93.692 162.279H421.268l-93.692-162.279 93.692-162.279h187.384zm560.348.797l93.7 162.279-93.7 162.279H981.62l-93.691-162.279L981.62 244.04H1169z" stroke="#EDEDED" stroke-width="5"/><path d="M328.654 405.29l93.692 162.28-93.692 162.279H141.27l-93.692-162.28L141.27 405.29h187.384zm560.069-.016l93.692 162.279-93.692 162.279H701.34l-93.692-162.279 93.692-162.279h187.383zm560.607.276l93.7 162.279-93.7 162.279h-187.38l-93.69-162.279 93.69-162.279h187.38z" stroke="#EDEDED" stroke-width="5"/></svg>