<svg width="362" height="1742" fill="none" xmlns="http://www.w3.org/2000/svg"><path d="M240.5 210.346l.5-.288V71.403l-.5-.288-119-68.75-.5-.29-.5.29-119 68.75-.5.288v138.655l.5.288 119 68.75.5.289.5-.289 119-68.75zm120 1043.004l.5-.29V1114.4l-.5-.29-119-68.75-.5-.28-.5.28-119 68.75-.5.29v138.66l.5.29 119 68.75.5.29.5-.29 119-68.75zm.002-834.254l.498-.289V279.654l-.498-.289-119-69-.502-.29-.502.29-119 69-.498.289v139.153l.498.289 119 69 .502.29.502-.29 119-69zm-120 1043.004l.498-.29v-139.16l-.498-.28-119-69-.502-.3-.502.3-119 69-.498.28v139.16l.498.29 119 69 .502.29.502-.29 119-69zm0-834.004l.498-.289V488.654l-.498-.289-119-69-.502-.29-.502.29-119 69-.498.289v139.153l.498.289 119 69 .502.29.502-.29 119-69z" stroke="#EDEDED" stroke-width="2"/><path d="M359.502 1671.1l.498-.29v-139.16l-.498-.28-119-69-.502-.3-.502.3-119 69-.498.28v139.16l.498.29 119 69 .502.29.502-.29 119-69zm1-834.004l.498-.289V697.654l-.498-.289-119-69-.502-.29-.502.29-119 69-.498.289v139.153l.498.289 119 69 .502.29.502-.29 119-69zM240.5 1045.35l.5-.29V906.403l-.5-.288-119-68.75-.5-.289-.5.289-119 68.75-.5.288v138.657l.5.29 119 68.75.5.29.5-.29 119-68.75z" stroke="#EDEDED" stroke-width="2"/></svg>