<svg width="81" height="80" fill="none" xmlns="http://www.w3.org/2000/svg"><path d="M53.388 18.32l-.176-.177.176.177a6.104 6.104 0 000-8.623c-2.345-2.345-6.28-2.342-8.622 0l.177.177-.177-.177a6.1 6.1 0 00-1.553 5.97l-2.299 1.294-11.399-6.581h0a1.797 1.797 0 00-1.796 0h0l-12.287 7.092a1.797 1.797 0 001.797 3.113h0l11.388-6.575 10.489 6.057v12.112l-10.49 6.055L17.23 31.66h0a1.797 1.797 0 00-2.455.658h0a1.797 1.797 0 00.658 2.454l.125-.216-.125.216L26.79 41.33v9.086l-6.214 3.587-7.377-4.142a6.285 6.285 0 00-1.584-6.206l-.002-.002c-2.435-2.393-6.447-2.433-8.881.002l.176.176-.176-.176a6.289 6.289 0 000 8.883c2.286 2.287 6.055 2.429 8.509.345l7.55 4.24v8.183c0 .642.343 1.235.899 1.556l.125-.217-.125.217 7.997 4.618h0a1.81 1.81 0 001.797 0l-.125-.217.125.217 7.998-4.617-.125-.217.125.217a1.8 1.8 0 00.899-1.557V56.07c0-.642-.343-1.235-.898-1.556h0l-7.1-4.099v-9.05l10.516-6.072 5.462 3.173a17.709 17.709 0 00-1.595 7.364c0 9.823 7.991 17.815 17.814 17.815s17.814-7.992 17.814-17.815-7.99-17.814-17.814-17.814c-5.915 0-11.165 2.897-14.406 7.346l-5.474-3.18V20.08l2.472-1.391c2.384 1.988 6.013 1.835 8.217-.37zM5.272 49.996l-.176.175.176-.175a2.691 2.691 0 010-3.802c1.033-1.032 2.767-1.033 3.801 0a2.691 2.691 0 010 3.802 2.691 2.691 0 01-3.801 0zm42.035-37.758l.073-.073v-.096c.002-.004.019-.043.121-.11a2.24 2.24 0 01.477-.219 4.87 4.87 0 01.899-.22h0a2.51 2.51 0 011.97.718l.176-.175-.176.175a2.506 2.506 0 010 3.54h0a2.506 2.506 0 01-3.54 0l-.177.177.177-.176a2.506 2.506 0 010-3.54zm-12.52 44.87v7.16l-6.202 3.58-6.201-3.581v-7.16l6.201-3.58 6.201 3.58zm27.792 2.943c-7.841 0-14.22-6.38-14.22-14.221s6.38-14.22 14.22-14.22c7.841 0 14.221 6.379 14.221 14.22 0 7.841-6.38 14.22-14.22 14.22z" fill="#0081C9" stroke="#0081C9" stroke-width=".5"/><path d="M15.332 27.389h0a1.812 1.812 0 01-.694-2.099h0c.564-1.578 2.873-1.55 3.397.042h0a1.808 1.808 0 01-.6 1.98l-2.103.077zm0 0l.002.001m-.002-.001l.002.001m0 0c.642.42 1.49.395 2.1-.078l-2.1.078zm40.93 12.669h-2.168a1.797 1.797 0 100 3.593h2.168a1.797 1.797 0 100-3.593zm0 7.538h-2.168a1.797 1.797 0 100 3.594h2.168a1.797 1.797 0 100-3.594zm14.786-7.538h-9.244a1.797 1.797 0 000 3.593h9.245a1.797 1.797 0 000-3.593zm0 7.538h-9.244a1.797 1.797 0 000 3.594h9.245a1.797 1.797 0 000-3.594z" fill="#0081C9" stroke="#0081C9" stroke-width=".5"/></svg>