<svg width="343" height="836" fill="none" xmlns="http://www.w3.org/2000/svg"><g opacity=".05" fill="#1B1B1B"><path d="M349.361 767.221c-9.808 109.011 19.614 165.214 69.028 215.948 0 0-24.141-111.84 9.996-183.32 61.484-128.438-69.217-141.451-79.024-32.628zm-81.287-37.156c2.451 79.589 28.478 117.687 68.65 150.126 0 0-27.158-78.835-8.675-133.341 33.194-98.261-62.427-96.187-59.975-16.785zM372.747 1129.9c-44.51-42.44-96.375-92.23-147.298-148.429-25.272-28.102-50.168-58.278-70.914-89.586-9.996-15.465-19.049-32.062-23.009-46.396-1.886-6.978-2.452-13.391-1.698-16.031.378-1.509.755-2.075 1.132-2.829 0 0 1.132-1.132.566-.755 1.886-1.886 4.149-3.96 3.96-3.583 5.47-4.337 12.637-5.469 27.159.377 13.579 5.847 28.479 16.786 42.247 29.233 27.535 24.896 52.997 54.506 76.006 84.305 46.207 59.787 85.248 120.144 118.442 172.004a6651.358 6651.358 0 0166.199 107.69c-24.896-22.63-56.581-52.05-92.792-86zm154.841 143.34s-7.732-19.24-22.82-52.43c-15.466-32.82-36.778-80.35-66.199-135.42-29.422-55.26-65.445-118.819-111.841-183.509-23.575-32.062-48.659-65.067-81.287-95.055-16.408-14.899-34.326-29.422-58.466-40.361-12.071-5.281-26.216-9.619-42.813-9.43-16.597 0-33.76 6.035-47.339 16.597-4.338 3.395-5.846 4.904-7.732 6.601-4.15 4.149-6.602 7.167-9.43 11.128-5.281 7.921-9.053 16.785-10.75 25.649-3.396 17.729-.378 32.44 3.017 45.076 7.544 25.273 19.426 44.699 31.308 63.182 24.329 36.4 52.242 66.764 79.778 95.432 55.26 56.77 110.709 104.3 159.368 143.53 48.471 39.41 90.906 69.59 120.139 91.09 29.61 21.12 47.15 32.44 47.15 32.44l31.685 20.18-14.145-34.7h.377z"/><path d="M544.186 513.362s75.629 33.948 141.64-66.011c0 0-69.783-81.476-166.912-5.847-96.942 75.63-69.783 172.759-214.44 207.65 0 0 82.23 45.453 162.008-4.903 81.476-51.488 77.516-130.889 77.516-130.889m-421.336-206.33c24.519-49.791 28.479-69.783 28.479-69.783s-102.222 2.64-116.367 66.01c-14.145 63.37 54.317 72.423 87.888 3.961"/><path d="M431.779 459.045c89.208-139.753 207.65-164.837 275.546-99.015 67.897 66.01-3.96 135.792-3.96 135.792s94.112-54.317 33.005-149.372c-49.98-77.703-208.593-69.782-285.165-28.101-88.077 47.905-91.849 105.05-91.849 105.05-146.166 3.961-138.433 111.276-138.433 111.276-94.49-85.437-167.478-7.733-167.478-7.733 124.099 217.269 289.125 71.857 378.334-67.897zM196.03 405.294c0-16.22-9.619-30.177-23.387-36.778 1.886-8.487 4.526-18.105 8.11-28.478 3.206.754 6.224 1.886 9.619 1.886 21.689 0 39.04-17.54 39.04-39.04 0-12.637-6.412-23.199-15.654-30.366 6.79-10.373 13.957-20.934 23.009-30.553.378-.566.943-.943 1.321-1.508 4.715 2.263 9.618 3.771 15.088 3.771 19.426 0 35.268-15.842 35.268-35.268 0-4.338-.943-8.487-2.452-12.448 10.185-7.355 20.747-14.71 31.874-20.934 5.469 5.092 12.636 8.486 20.746 8.486 16.786 0 30.365-13.579 30.365-30.364 0-.566-.189-.944-.377-1.509 12.07-3.961 23.575-8.676 35.457-12.07 4.903 7.544 13.013 13.013 22.821 13.013 13.767 0 24.706-10.373 26.781-23.575 4.338-.943 8.864-1.886 13.202-2.452 9.996-.943 19.049-1.886 28.29-2.829 3.772 7.921 11.694 13.391 21.124 13.391 10.561 0 19.237-7.167 22.254-16.597 15.654-.189 29.234.565 39.607 0h26.027c3.395 0 6.412-2.829 6.412-6.224 0-3.583-2.64-6.413-6.224-6.601 0 0-9.43-.189-25.838-.566-10.562.189-24.33-.755-39.984-.755-3.017-9.618-11.693-16.597-22.254-16.597-11.505 0-20.558 8.3-22.633 19.238-9.241.755-18.86 1.509-28.856 2.452-4.337.377-8.675 1.509-13.013 2.263-4.338-9.43-13.768-16.031-24.707-16.031-14.711 0-26.593 11.694-27.158 26.216-12.259 3.206-24.33 7.921-36.966 11.881-5.47-7.544-14.145-12.824-24.141-12.824-16.786 0-30.365 13.579-30.365 30.365 0 2.074.754 3.96 1.132 6.034-12.26 6.224-23.576 14.146-34.703 22.067-6.035-4.715-13.202-7.921-21.312-7.921-19.426 0-35.268 15.843-35.268 35.268 0 6.601 2.263 12.636 5.658 17.917-.566.755-1.321 1.321-1.886 2.075-10.939 11.316-19.426 23.764-27.536 35.834-1.32 0-2.452-.754-3.961-.754-21.689 0-39.04 17.54-39.04 39.04 0 9.996 3.96 18.86 10.184 25.839-5.092 13.579-8.676 26.027-11.127 36.588-20.181 2.452-36.212 19.049-36.212 39.984 0 22.632 18.295 41.115 41.115 41.115a40.97 40.97 0 0041.115-41.115M379.914-11.136S141.899-69.414 79.85-280.082c-49.225 89.208 0 168.044 0 168.044C40.998-94.121 17.61-.009 95.315 31.487c0 0-45.264 25.839-33.571 96.942 11.693 71.102 82.796 93.169 82.796 93.169S157.553 27.527 379.914-11.136z"/><path d="M695.257-83.183c-2.83 8.11-5.659 16.031-8.299 23.764-2.263 7.921-3.772 15.653-5.658 23.197-7.921 29.8-10.75 56.958-11.882 79.024-.566 10.185-.566 19.238-.188 27.348-7.545-4.527-15.089-9.053-22.821-13.58-25.273-46.207-71.48-145.6-61.861-242.352 13.013-131.833 122.779-95.621 69.782-32.251 0 0-9.053 49.225 22.066 40.172 7.356-2.075 19.992-14.523 29.799-33.571-3.772 25.461 11.694 38.097 26.405 43.001-5.659 11.882-11.505 23.953-16.786 35.269-8.864 16.597-14.711 33.76-20.369 49.979M762.587-925.1c-5.092-10.373-10.184-20.745-15.277-30.93-5.658-10.939-12.07-19.237-17.917-29.045-7.921-13.39-17.351-26.025-26.97-38.285-43.755-72.23-129.38-161.44-291.766-183.13-83.362-11.13-167.855 14.9-225.944 84.49-59.221 70.73-97.318 177.286-27.725 272.341 78.27 106.937 226.888 82.419 259.516 17.729 42.812-84.682-14.523-170.68-88.266-179.36-73.743-8.68-107.691 33.948-107.691 33.948 47.528-143.528 183.32-160.118 262.91-145.408 79.59 14.52 168.798 85.43 181.435 158.045 11.693 67.519 52.619 49.035 74.686 41.303 1.32 2.829 2.64 5.469 3.96 8.298l7.922 16.409c-19.049-.566-53.563 3.017-53.563 36.777 0 46.584 43.755 91.283 69.782 178.417 26.216 87.322-19.991 140.885-17.54 157.105 5.093 32.251 49.414 37.72 76.573 39.983-.378 6.978-.755 13.957-1.132 20.746 0 .755-.189 1.509-.377 2.264-38.852-29.234-97.13 4.903-83.928 31.119 14.522 29.044 10.562 129.003-23.386 189.167-.378.754-.566 1.32-.943 2.075 7.355-31.874 3.583-72.423-30.365-113.916-46.585-56.957-105.994-69.782-105.994-69.782 78.835-239.335-50.545-367.395-50.545-367.395 9.053 86.756-5.092 152.578-43.944 429.445-27.913 198.974 41.115 323.451 82.041 377.957C553.806 8.1 539.849.367 525.515-6.8c-27.347-42.812-85.813-143.903-89.774-232.923 0 0 37.155-50.167 20.369-110.897-16.785-60.729-39.795-95.055-48.848-130.889-46.773 210.102 39.795 384.37 85.437 457.735-1.698-.943-3.395-1.697-5.092-2.64-64.314-53.186-90.718-94.301-90.718-94.301 10.373-91.848-40.549-172.193-78.835-217.269-58.278-68.651-66.011-126.74-66.011-126.74-22.82 170.684 74.498 310.815 139.188 382.861-24.518-15.842-48.093-32.817-70.159-51.488-44.888-38.098-82.042-81.664-111.841-132.964-28.102-47.905-47.15-102.788-50.922-155.219-1.132-26.404 0-52.431 6.412-76.761 6.601-24.329 16.408-47.15 29.611-66.953a226.37 226.37 0 0148.281-50.168c17.918-12.448 39.418-23.764 57.901-29.045 19.426-5.658 38.663-6.412 54.694-.943 16.22 5.093 28.102 17.163 35.08 30.554 6.413 14.334 7.921 27.536 3.584 42.058-3.395 11.316-11.128 22.255-19.804 26.97-18.294 10.75-34.514-.001-41.303-9.242-7.167-9.807-8.864-16.974-9.242-16.785-1.508-4.527-6.601-6.979-11.127-5.47-4.527 1.509-6.978 6.601-5.47 11.128.566 0 1.698 8.298 10.562 22.066 4.904 6.601 11.882 14.9 23.953 20.181 11.881 5.281 28.667 5.469 43.378-2.263 14.899-7.922 26.404-21.69 32.816-40.927 5.847-16.031 5.847-39.418-2.829-59.032-8.675-19.803-25.838-38.852-49.036-47.528-23.009-9.241-49.602-9.053-73.743-2.64-25.461 6.789-46.773 17.351-69.594 32.062-1.132.754-2.075 1.697-3.018 2.64.378-1.886.943-3.206 1.321-5.092 3.772-18.106 6.035-40.549.754-64.879-4.904-24.329-19.614-49.979-40.549-67.331-9.807-8.298-22.255-16.408-36.777-21.123-14.523-4.526-32.063-4.715-46.962 1.698-14.9 6.223-26.027 17.539-33.005 29.421-6.79 12.071-10.185 25.085-9.808 37.532.378 12.448 4.15 24.141 9.808 33.006 5.658 9.052 12.825 15.088 18.671 18.86 6.035 3.96 11.128 6.035 14.334 7.167l5.092 1.697c10.562 3.395 21.689-2.264 25.084-12.825 3.395-10.562-2.263-21.689-12.825-25.084.755-.566-17.917-4.526-17.351-23.386-.377-9.43 6.224-22.633 16.597-26.405 4.903-2.075 10.75-2.263 18.105-.754 7.167 2.075 14.523 6.035 22.444 12.07 14.9 11.316 24.518 27.159 29.988 44.51 5.28 17.352 6.223 35.646 5.846 51.677-.754 15.654-2.64 29.045-4.338 38.475-7.732 7.921-15.276 16.031-22.066 25.083-16.408 23.01-29.044 49.603-37.532 78.082-8.298 28.667-10.75 58.843-10.184 89.396 4.149 61.296 23.952 120.705 55.826 176.154 29.799 52.808 71.668 103.542 119.196 144.28 47.527 41.68 101.656 74.12 155.219 102.222l15.465 7.733a198.17 198.17 0 00-26.404 5.28c-19.237 4.338-39.041 11.316-58.466 19.238-38.664 15.842-73.744 38.286-98.828 56.392-24.895 18.106-39.983 33.005-39.983 33.005-3.395 3.206-3.583 8.298-.377 11.693 3.206 3.584 8.487 3.772 12.07.566 0 0 14.523-13.202 39.418-29.799 24.707-16.409 59.409-36.589 96.564-49.79 18.483-6.602 37.343-12.449 55.26-15.655 8.864-1.886 17.54-3.395 26.027-3.96 8.298-.755 16.031-1.886 23.387-1.698h19.614c1.132 0 1.886.189 3.018.377 30.93 15.088 61.295 29.988 90.151 45.453 49.414 26.216 94.678 54.883 130.701 88.643 3.96 3.772 7.355 7.921 11.127 11.882-54.694-21.689-132.964-20.181-224.435 18.483-83.739 35.457-119.008 28.479-119.008 28.479 42.624 77.515 191.431 13.013 271.586 14.145 54.317.943 109.012 29.044 138.811 47.15 13.956 38.286 18.105 75.629 12.259 107.314-6.224 33.383-22.821 59.598-39.795 77.704-17.163 18.294-33.76 29.799-45.264 36.965-11.694 7.167-18.106 9.808-18.106 9.808-4.149 1.697-6.413 6.412-5.092 10.75 1.508 4.526 6.412 7.167 11.127 5.658h.377s7.922-2.64 21.124-9.43c13.202-6.789 32.439-17.728 52.808-37.343 20.18-19.426 41.681-48.659 51.488-88.076 10.373-39.23 6.035-86.003-9.807-131.079-3.961-11.693-8.299-22.066-13.768-34.513-5.281-10.562-10.184-21.312-17.54-33.006a335.642 335.642 0 00-23.009-33.194c-8.11-37.154-13.768-94.677 13.956-133.152 43.944-60.73 85.437-142.206 5.092-192.751 18.106 18.106-16.219 90.906-52.431 151.636-22.443 37.72-20.369 89.585-15.465 123.722-12.259-10.75-25.273-20.935-38.852-30.554v-.376c-1.132-10.374-2.64-26.404-1.697-46.962 1.131-20.369 3.395-45.453 10.561-73.555 1.698-6.978 3.018-14.334 5.093-21.69 2.451-7.354 5.092-14.71 7.732-22.443 5.092-15.465 10.562-31.685 18.86-47.716 7.733-16.597 15.843-33.948 24.141-51.865 8.11-18.106 16.597-36.777 25.462-55.826 4.149-9.619 9.241-19.049 12.824-29.422 3.207-10.561 6.602-21.312 9.808-32.25 6.412-21.69 13.579-43.756 19.803-66.388 3.96-23.01 7.921-46.396 11.882-70.16 1.697-11.882 4.715-23.764 5.28-35.834.566-12.071.943-24.33 1.509-36.589.377-24.518 3.395-49.225 1.509-73.743-2.074-24.707-3.961-49.413-6.035-74.308-.566-12.448-2.641-24.707-5.47-36.778l-7.544-36.4c-5.092-24.141-9.052-48.659-18.294-71.48-7.921-23.198-15.842-46.019-23.575-68.651-9.43-22.066-20.746-42.812-30.742-63.936"/></g></svg>