<svg width="82" height="83" fill="none" xmlns="http://www.w3.org/2000/svg"><path d="M64.32 2.456a5.5 5.5 0 014.671 2.697l8.484 14.322a5.5 5.5 0 01.031 5.553l-8.004 13.864a5.5 5.5 0 01-4.825 2.75l-16.645-.187a5.5 5.5 0 01-4.67-2.697l-8.484-14.321a5.5 5.5 0 01-.032-5.553L42.852 5.02a5.5 5.5 0 014.825-2.75l16.645.186zm1.824 39.859a5.5 5.5 0 014.67 2.696l8.484 14.322a5.5 5.5 0 01.031 5.553L71.325 78.75A5.5 5.5 0 0166.5 81.5l-16.645-.187a5.5 5.5 0 01-4.67-2.696L36.7 64.295a5.5 5.5 0 01-.031-5.553l8.004-13.864a5.5 5.5 0 014.825-2.75l16.645.187z" stroke="#3C93E5" stroke-width="3"/><path d="M31.717 23.487a6 6 0 015.095 2.941l8.484 14.322a6 6 0 01.034 6.058l-8.005 13.864a6 6 0 01-5.263 3l-16.645-.187a6 6 0 01-5.095-2.941L1.838 46.222a6 6 0 01-.034-6.058L9.808 26.3a6 6 0 015.264-3l16.645.187z" fill="#EDEDED" stroke="#E30613" stroke-width="2"/></svg>