<svg width="64" height="65" fill="none" xmlns="http://www.w3.org/2000/svg"><path fill="#fff" d="M22 12.77h20v36H22z"/><mask id="a" style="mask-type:alpha" maskUnits="userSpaceOnUse" x="0" y="0" width="64" height="65"><path fill="#D9D9D9" d="M0 .77h64v64H0z"/></mask><g mask="url(#a)" fill="#004F9F"><path d="M33.8 32.77l-6.333 6.333c-.49.489-.733 1.1-.733 1.833 0 .734.244 1.367.733 1.9.533.534 1.167.8 1.9.8.733 0 1.366-.266 1.9-.8l8.2-8.2c.533-.533.8-1.155.8-1.866 0-.711-.267-1.334-.8-1.867L31.2 22.636c-.533-.533-1.155-.788-1.866-.766-.712.022-1.334.3-1.867.833a2.813 2.813 0 00-.767 1.867c-.022.71.233 1.333.767 1.866L33.8 32.77zM32 59.436c-3.689 0-7.155-.7-10.4-2.1-3.244-1.4-6.067-3.3-8.467-5.7-2.4-2.4-4.3-5.222-5.7-8.466-1.4-3.245-2.1-6.711-2.1-10.4 0-3.69.7-7.156 2.1-10.4 1.4-3.245 3.3-6.067 5.7-8.467 2.4-2.4 5.223-4.3 8.467-5.7 3.245-1.4 6.711-2.1 10.4-2.1 3.69 0 7.156.7 10.4 2.1 3.245 1.4 6.067 3.3 8.467 5.7 2.4 2.4 4.3 5.222 5.7 8.467 1.4 3.244 2.1 6.71 2.1 10.4 0 3.689-.7 7.155-2.1 10.4-1.4 3.244-3.3 6.066-5.7 8.466-2.4 2.4-5.222 4.3-8.467 5.7-3.244 1.4-6.71 2.1-10.4 2.1z"/><path d="M33.8 32.77l-6.333 6.333c-.49.489-.733 1.1-.733 1.833 0 .734.244 1.367.733 1.9.533.534 1.167.8 1.9.8.733 0 1.366-.266 1.9-.8l8.2-8.2c.533-.533.8-1.155.8-1.866 0-.711-.267-1.334-.8-1.867L31.2 22.636c-.533-.533-1.155-.788-1.866-.766-.712.022-1.334.3-1.867.833a2.813 2.813 0 00-.767 1.867c-.022.71.233 1.333.767 1.866L33.8 32.77zM32 59.436c-3.689 0-7.155-.7-10.4-2.1-3.244-1.4-6.067-3.3-8.467-5.7-2.4-2.4-4.3-5.222-5.7-8.466-1.4-3.245-2.1-6.711-2.1-10.4 0-3.69.7-7.156 2.1-10.4 1.4-3.245 3.3-6.067 5.7-8.467 2.4-2.4 5.223-4.3 8.467-5.7 3.245-1.4 6.711-2.1 10.4-2.1 3.69 0 7.156.7 10.4 2.1 3.245 1.4 6.067 3.3 8.467 5.7 2.4 2.4 4.3 5.222 5.7 8.467 1.4 3.244 2.1 6.71 2.1 10.4 0 3.689-.7 7.155-2.1 10.4-1.4 3.244-3.3 6.066-5.7 8.466-2.4 2.4-5.222 4.3-8.467 5.7-3.244 1.4-6.71 2.1-10.4 2.1z"/></g></svg>