<svg width="32" height="32" fill="none" xmlns="http://www.w3.org/2000/svg"><mask id="a" style="mask-type:alpha" maskUnits="userSpaceOnUse" x="0" y="0" width="32" height="32"><path fill="#D9D9D9" d="M0 0h32v32H0z"/></mask><g mask="url(#a)"><path d="M14.667 22.667H9.333c-1.844 0-3.416-.65-4.716-1.95-1.3-1.3-1.95-2.872-1.95-4.717 0-1.844.65-3.416 1.95-4.716 1.3-1.3 2.872-1.95 4.716-1.95h5.334V12H9.333c-1.11 0-2.055.39-2.833 1.167-.778.778-1.167 1.722-1.167 2.833 0 1.111.39 2.056 1.167 2.834C7.278 19.61 8.222 20 9.333 20h5.334v2.667zm-4-5.334v-2.666h10.666v2.667H10.667zm6.666 5.334V20h5.334c1.11 0 2.055-.389 2.833-1.166.778-.778 1.167-1.723 1.167-2.834 0-1.11-.39-2.055-1.167-2.833-.778-.778-1.722-1.167-2.833-1.167h-5.334V9.334h5.334c1.844 0 3.416.65 4.716 1.95 1.3 1.3 1.95 2.872 1.95 4.716 0 1.845-.65 3.417-1.95 4.717-1.3 1.3-2.872 1.95-4.716 1.95h-5.334z" fill="#004F9F"/></g></svg>