<svg width="264" height="117" fill="none" xmlns="http://www.w3.org/2000/svg"><path d="M.284 98.4l30.788 17.678L61.692 98.4v-.053l-.063.035-33.356-19.26v-.08L.507 63.008l-.223.134V98.4z" stroke="#fff" stroke-width=".5" stroke-miterlimit="10" stroke-linecap="round"/><path d="M12.692 86.197c-1.59-1.147-1.52-3.022-.062-2.675 1.555.373 3.137 3.413 4.488 4.16 0 0-2.844-.347-4.426-1.485zm16.158 23.5s-1.99 1.422-4.48-1.084c0 0 1.547-2.765 4.791-1.138 3.245 1.627 3.022 4.586 7.404 4.755 0 0-2.115 1.795-4.71.8-2.658-1.013-3.005-3.333-3.005-3.333z" fill="#fff"/><path d="M25.18 110.727c-1.53.942.15 2.4 2.16 1.742 1.457-.48 1.928-.782 1.928-.782s-2.569-1.893-4.088-.96zM3.52 97.628a2.086 2.086 0 01-2.09-2.09c0-1.155.934-2.088 2.09-2.088 1.155 0 2.088.933 2.088 2.089a2.086 2.086 0 01-2.088 2.089zm5.341 1.021a1.908 1.908 0 01-1.91 1.911 1.908 1.908 0 01-1.911-1.911c0-1.058.853-1.911 1.91-1.911 1.058 0 1.911.853 1.911 1.91zm1.422 1.066c.863 0 1.556.694 1.556 1.556a1.557 1.557 0 01-3.11 0 1.55 1.55 0 011.554-1.556zm4.853 3.023c0 .764-.613 1.377-1.377 1.377a1.379 1.379 0 010-2.755c.755 0 1.377.622 1.377 1.378zm3.155.488a1.2 1.2 0 01-1.2 1.2c-.657 0-1.2-.542-1.2-1.2 0-.657.543-1.2 1.2-1.2.658 0 1.2.543 1.2 1.2zm2.622-.044a1.022 1.022 0 11-2.044 0 1.022 1.022 0 012.044 0zm29.597-3.28c.107-.195.214-.409.338-.622.098-.222.196-.462.302-.702a9.65 9.65 0 01.623-1.342c.257-.427.568-.845.933-1.102.177-.125.364-.196.489-.196.124 0 .142.044.222.124.169.196.204.72.07 1.174a4.86 4.86 0 01-.621 1.368c-.276.436-.587.791-.925 1.165-.32.32-.648.631-.986.871a6.521 6.521 0 01-.951.595c-.231.125-.445.205-.631.276.32-.391.738-.924 1.146-1.627m-1.128 2.249c.248-.071.56-.169.897-.32a7.21 7.21 0 001.085-.578c.382-.24.764-.542 1.173-.897a9.696 9.696 0 001.093-1.2c.347-.462.658-.987.862-1.6.098-.311.178-.64.178-.995 0-.356-.053-.765-.302-1.147-.24-.4-.8-.649-1.254-.587-.453.045-.8.258-1.066.471-.533.445-.853.987-1.12 1.502-.258.516-.435 1.05-.587 1.53-.08.221-.15.435-.222.648-.089.204-.178.4-.266.587a13.057 13.057 0 01-1.05 1.733c-.292.4-.48.604-.48.604l-.515.596.97-.196c.133-.035.346-.053.595-.142M2.533 71.924c.116-.187.24-.383.365-.587.142-.196.293-.391.453-.596.31-.373.595-.755.844-1.182.24-.426.445-.897.489-1.324.027-.213-.009-.409-.071-.507-.062-.106-.107-.097-.213-.133-.25-.053-.711.169-1.04.507-.347.328-.631.755-.862 1.19-.232.445-.4.88-.543 1.352a7.634 7.634 0 00-.266 1.262c-.054.4-.062.773-.045 1.102 0 .258.036.48.071.675.178-.462.436-1.075.827-1.76m-1.378 2.054a7.511 7.511 0 01-.196-2.124c.019-.445.09-.916.196-1.432.116-.47.267-1.013.498-1.52.231-.515.524-1.04.951-1.51a3.21 3.21 0 01.764-.64c.303-.178.676-.33 1.13-.294.453.01.95.374 1.11.791.187.418.17.81.116 1.138-.125.676-.427 1.2-.738 1.68A9.81 9.81 0 013.973 71.3c-.151.17-.302.338-.444.507-.134.178-.258.347-.374.507a11.567 11.567 0 00-.969 1.742c-.195.444-.284.702-.284.702l-.258.729-.302-.925c-.035-.133-.124-.32-.169-.578m39.17 23.687c-.187 2.036-2.365 3.556-2.365 3.556 1.805-.507 3.36-.703 4.605-3.271 1.244-2.56-1.911-3.947-2.24-.285zm16.38 3.066c-2.489 2.053-4.346 2.276-6.408 1.92 0 0 3.129-1.28 4.293-3.297 2.106-3.635 4.595-.676 2.115 1.377zm-6.888-7.324c.649 2.258.258 3.565-.578 4.836 0 0 .054-2.462-.96-3.831-1.822-2.462.88-3.271 1.538-1.013" fill="#fff"/><path d="M41.49 103.546c-4.471.32-6.427 2.701-5.547 5.048.871 2.355 3.413 1.573 3.413 1.573s-2.409 1.475-4.08-1.084c-1.368-2.089.605-5.6 2.507-6.826 2.177-1.413 3.644-.8 3.644-.8 1.733-3.28 4.31-1.787 4.31-1.787-1.057-3.19 1.69-3.901 1.69-3.901 3.999 5.483-1.467 7.448-5.929 7.768" fill="#fff"/><path d="M43.338 103.893c4.062.186 6.204-.978 6.204-.978s-.445 1.84-2.684 2.729c-2.249.88-4.658-.871-4.658-.871s.09.8-.96 1.146c-1.057.356-2.648.142-2.648.142s.329.667.009 1.289c-.231.462-.916.782-.623 1.387.25.506.747.417.747.417-.24-.328.036-.586.382-.675.356-.089.996.418.4 1.058-.586.64-1.875.231-2.4-.791-1.048-2.027 1.511-5.058 6.24-4.844m-23.189 2.861c.311-.222.684-.4 1.066-.515a6.466 6.466 0 012.222-.267c.33.018.631.062.898.116.116.017.213.062.311.088a9.755 9.755 0 00-1.35.356c-.17.062-.356.133-.543.204-.178.089-.373.178-.56.276a7.965 7.965 0 01-1.084.489c-.373.124-.782.213-1.12.178-.16-.018-.302-.072-.347-.125-.044-.053-.009-.035-.026-.098-.018-.151.204-.488.515-.702m-1.155 1.716c.337.231.675.275.968.275.596 0 1.076-.178 1.52-.364a8.552 8.552 0 001.174-.658c.16-.098.31-.196.462-.284l.462-.231a9.473 9.473 0 011.546-.534c.196-.044.347-.08.445-.098.106-.017.16-.035.16-.035l.729-.142-.791-.436c-.107-.053-.25-.151-.445-.231a5.059 5.059 0 00-.729-.275 5.66 5.66 0 00-.986-.214c-.365-.062-.765-.071-1.209-.071-.4.018-.871.062-1.324.169a4.843 4.843 0 00-1.405.542 2.878 2.878 0 00-.666.542c-.196.231-.391.525-.436.925-.062.409.178.906.525 1.12zm25.002-16.718c-1.618-.106-2.178-.302-2.178-.302s1.556-2.542 3.36-1.973c1.804.569 1.04 2.426-1.182 2.275zM25.704 79.984c-.195-1.885 2.098-1.405 2.835.684.534 1.52.587 2.115.587 2.115s-3.226-.924-3.422-2.8zm-21.029 2.16a1.772 1.772 0 01-.649-2.417 1.772 1.772 0 012.418-.649 1.772 1.772 0 01.649 2.418 1.772 1.772 0 01-2.418.648zm3.475 3.013a1.625 1.625 0 01-2.213.596 1.625 1.625 0 01-.595-2.213 1.625 1.625 0 012.213-.596c.773.444 1.04 1.44.595 2.213zm.596 1.378a1.32 1.32 0 01.48 1.804 1.312 1.312 0 01-1.796.48 1.312 1.312 0 01-.48-1.796 1.32 1.32 0 011.805-.48m2.266 4.267a1.165 1.165 0 11-2.017-1.164 1.165 1.165 0 012.017 1.165zm2.107 1.689a1.02 1.02 0 01-1.387.373 1.015 1.015 0 111.387-.373zm1.937 1.084a.871.871 0 01-1.182.32.864.864 0 01-.32-1.182.87.87 0 011.182-.32c.409.24.551.764.32 1.182zM45.4 95.04a1.195 1.195 0 01-.587-1.128 9.43 9.43 0 00-.835-.213c-.027.089-.045.186-.09.275a1.144 1.144 0 01-1.554.418 1.114 1.114 0 01-.543-.835 5.923 5.923 0 00-1.102.133c-.017 0-.035.009-.062.009a.977.977 0 01-.124.435 1.03 1.03 0 01-1.405.373 1.188 1.188 0 01-.275-.24 7.875 7.875 0 00-.987.498.88.88 0 01-.089.65.887.887 0 01-1.208.328c-.018 0-.018-.018-.036-.027-.276.25-.569.471-.827.72a.78.78 0 010 .765.797.797 0 01-.986.328c-.089.098-.178.196-.249.294-.169.24-.329.453-.48.675a.693.693 0 01.036.729.681.681 0 01-.747.32c-.231.391-.409.747-.578.995-.23.409-.373.64-.373.64v.018a.2.2 0 01-.258.071c-.089-.053-.124-.16-.07-.249l.363-.657c.16-.258.338-.622.56-1.022a.683.683 0 01-.097-.8.683.683 0 01.817-.294c.152-.222.312-.453.48-.693.072-.098.16-.195.24-.293a.8.8 0 01-.044-.854.793.793 0 011.058-.302c.257-.257.55-.497.835-.755-.107-.249-.124-.542.027-.8a.875.875 0 011.209-.32c.053.027.088.08.133.115.337-.213.702-.39 1.057-.56a1.07 1.07 0 01.107-.657 1.028 1.028 0 011.404-.373c.17.097.285.24.374.4.026 0 .053-.018.08-.018.444-.107.88-.142 1.306-.178.018-.036.018-.071.036-.107a1.144 1.144 0 011.555-.417c.249.142.418.373.507.63.417.072.782.16 1.084.25a1.19 1.19 0 011.538-.33 1.2 1.2 0 01.435 1.636 1.2 1.2 0 01-1.635.436m-13.181-1.441s2-6.843-2.418-11.483c2.97.063 4.24 2.444 4.24 2.444 1.022-.71 3.733.063 3.395 2.48 0 0 1.307-.764 2.933.56 1.627 1.333 1.147 3.44 1.147 3.44S36.44 88.56 32.219 93.6" fill="#fff"/><path d="M25.81 100.516c.25.045.49.089.72.133.232.063.454.134.667.196.871.231 1.591.56 2.169.853.267.134.489.267.693.391 0-.257-.009-.515-.009-.773-.79-1.306-2.63-3.92-5.208-5.093-3.51-1.59-4.204 1.707-1.83 1.289 0 0 1.368.489.692 1.138-.16.15-.657.293-1.28.266.703.276.791.854.703 1.289.382.027.773.062 1.137.089.551.018 1.067.116 1.556.213M3.617 89.948a57.66 57.66 0 00-.56-.835c-.195-.302-.31-.587-.47-.871-.223-.391-.4-.818-.57-1.236-1.181-2.15-2.186-5.608-.373-10.016.934-2.267 2.818-4.018 5.422-4.471 2.649-.462 5.884.124 7.27 3.262 1.556 3.528-1.226 6.915-3.333 6.8-2.764-.152-4.088-2.854-3.235-4.836.853-1.982 2.427-2.222 2.427-2.222-4.311-.889-6.702 2.293-7.493 4.506-.791 2.213-.302 5.493 1.342 6.87 1.529 1.28.471 2.036-.044 2.48.053.072.097.143.15.223.099.142.196.293.294.435.267-.489.853-1.306 1.707-.818 1.173.676 1.662 2.427 3.484 4.356 1.822 1.928 3.84 1.546 4.213 1.848.737.596.23 1.796-.107 2.516.178.089.355.186.533.275.018.01.045.018.062.027-.168-1.404 1.538-2.373 2.01-1.662.523.79 3.092 2.142 5.11 2.168h.062c-.916-.275-1.876-.968-2.427-2.426-.755-2-.213-3.689-.213-3.689-7.181-1.493-8.523-6.621-8.523-6.621 2.053 1.493 3.92 2.089 11.465 5.137 5.422 2.196 7.555 5.742 8.328 7.564.027-.462.036-.933.062-1.395-.675-1.307-2.373-4.258-4.568-5.653 0 0-1.804.213-3.093-1.102-1.289-1.307-1.813-2.382-2.587-3.138 5.982 1.884 9.11 6.595 10.293 8.817v-.169c-.41-2.39-1.058-3.662-1.058-3.662-2.462-1.075-3.75-3.528-4.328-5.155-.88-2.462-2.231-3.51-2.231-3.51 4.64 1.91 6.746 6.399 7.626 9.083a19.8 19.8 0 00-.276-2.515 14.82 14.82 0 00-1.724-4.755c-.8-1.405-1.902-2.684-3.173-3.547-.649-.408-1.325-.764-2.027-.95a6.695 6.695 0 00-2.124-.232 6.506 6.506 0 00-1.964.49c-.578.266-1.173.648-1.573 1.039-.427.409-.73.88-.827 1.369-.107.48.027.96.258 1.333.267.364.578.604 1.013.702.329.08.729.044.969-.107.533-.302.507-.87.364-1.182-.142-.32-.302-.47-.284-.48a.253.253 0 01.382-.328c-.009.008.187.16.409.586.089.222.204.516.16.898a1.5 1.5 0 01-.684 1.058c-.418.257-.934.346-1.511.23-.49-.088-1.076-.426-1.45-.924-.372-.506-.604-1.217-.48-1.928.108-.711.49-1.378 1.005-1.902.542-.543 1.12-.925 1.822-1.29a.557.557 0 01.107-.035c-.053-.018-.098-.018-.151-.035-.507-.17-1.102-.436-1.644-.925a3.49 3.49 0 01-1.103-2 3.205 3.205 0 010-1.235c.098-.435.347-.88.73-1.155.373-.285.817-.4 1.226-.4.409 0 .782.106 1.093.302.311.187.551.453.684.729.143.275.196.542.205.746.009.205-.01.365-.027.462l-.027.16a.581.581 0 01-.693.445.572.572 0 01-.444-.684c-.027.008.142-.516-.338-.783-.231-.142-.658-.169-.907.036-.124.098-.213.24-.275.444a1.83 1.83 0 00-.018.738c.071.542.33 1.013.685 1.404.364.383.808.676 1.217.898.41.213.773.356 1.031.453.311-.08.622-.15.951-.186.818-.08 1.671 0 2.516.195.844.205 1.644.587 2.4 1.049 1.484.995 2.692 2.364 3.626 3.973.897 1.52 1.564 3.315 1.902 5.11.355 1.805.39 3.644.32 5.404 0 .17-.018.33-.027.498.151-.204.329-.4.515-.595.392-.427.854-.818 1.334-1.191.96-.747 2.035-1.307 2.862-1.671.817-.365 1.413-.525 1.413-.525a.251.251 0 01.302.16.243.243 0 01-.16.311s-.542.178-1.324.56c-.774.382-1.787.969-2.658 1.707a9.945 9.945 0 00-1.2 1.164 5.85 5.85 0 00-.48.596c-.142.195-.284.373-.382.56-.107.177-.204.346-.293.497a.566.566 0 00-.036.08 87.505 87.505 0 00-.169 2.933c-.062 1.627 0 3.182.33 4.586.035.152.088.303.133.454.248-1.689 1.422-3.644 3.733-5.386 2.106-1.6 2.453-2.587 2.453-2.587 1.333 2.205-2.462 5.013-3.591 7.057-.764 1.378-.853 3.173-.836 4.187.765.906 1.645 1.564 2.525 1.875a4.506 4.506 0 002.542.124 6.142 6.142 0 001.59-.604 4.04 4.04 0 00.507-.311.259.259 0 01.347.027.255.255 0 01-.018.364s-.178.169-.542.4c-.365.231-.916.56-1.707.791-.782.222-1.83.347-2.968.018-1.138-.311-2.258-1.102-3.164-2.16-.24-.267-.436-.533-.676-.853-.186-.285-.39-.569-.578-.925a10.645 10.645 0 01-.506-1.066c-.818-.747-2.187-1.724-3.555-1.582-2.17.222-4.827.08-4.933-2.676.195.72 2.524.916 4.586.889 1.28-.018 2.55.791 3.342 1.413-.089-.471-.16-.942-.204-1.422a8.496 8.496 0 00-1.156-.728c-.533-.276-1.2-.578-2.009-.809-.204-.062-.409-.134-.622-.187-.222-.044-.444-.089-.675-.133-.462-.098-.951-.196-1.476-.222-.533-.045-1.084-.098-1.662-.143-.577-.053-1.164-.115-1.777-.177-.303-.036-.614-.045-.925-.107-.31-.071-.63-.142-.95-.222-.64-.151-1.307-.294-1.965-.471-.64-.24-1.289-.48-1.938-.72-.32-.134-.666-.231-.977-.383-.311-.16-.631-.328-.942-.497-.623-.347-1.29-.631-1.885-1.031-.595-.409-1.19-.818-1.786-1.236a5.21 5.21 0 01-.844-.675l-.81-.72c-.533-.48-1.093-.933-1.537-1.502-.471-.533-.933-1.067-1.386-1.591-.418-.56-.783-1.147-1.165-1.707m4-18.301c-1.965-.382-3.982 1.253-3.982 1.253.969-1.564 1.582-2.969 4.328-3.43 2.747-.472 3.182 2.87-.346 2.177zm7.11-11.811c.578 1.12 1.218 2.133 1.769 2.995.453.693.844 1.289 1.164 1.76a232.44 232.44 0 00-.649-2.009c-.328-.969-.72-2.106-1.208-3.27a13.895 13.895 0 00-.854-1.707c-.16-.258-.346-.516-.542-.676-.089-.08-.186-.133-.23-.133h-.072a.363.363 0 00-.08.036c-.107.053-.169.15-.187.408 0 .25.054.552.143.845.177.595.453 1.182.737 1.742m11.457-2.951a3.2 3.2 0 00-.996.169 5.083 5.083 0 00-1.662.898c-.222.168-.4.346-.56.515a3.292 3.292 0 00-.293.364c.311-.142.729-.32 1.262-.462.151-.035.302-.071.462-.107.16-.026.338-.044.507-.07.329-.036.658-.08.987-.178.32-.09.648-.223.88-.418a.582.582 0 00.213-.285c.018-.08 0-.097-.045-.169-.097-.142-.435-.257-.755-.257z" fill="#fff"/><path d="M21.358 59.578c-.036-4.613-3.902-5.52-3.902-5.52s.684-1.36 2.15-1.35c1.476 0 1.84 1.004 1.84 1.004.898-1.458 2.712-.676 2.943.168 0 0 1.75-.728 3.386.56-4.453.543-6.426 5.147-6.426 5.147m6.364-2.054c-.107.294-.302.48-.498.614-.382.275-.791.382-1.173.47a6.2 6.2 0 01-1.102.116c-.16.01-.311.027-.463.036-.15.026-.293.044-.435.07a9.221 9.221 0 00-1.315.383c-.311.124-.48.204-.48.204l-.48.232.302-.605c.044-.08.098-.213.195-.364.098-.151.214-.338.365-.525.15-.195.338-.408.569-.613.222-.213.488-.409.79-.613a6.29 6.29 0 01.978-.507 3.954 3.954 0 011.2-.284c.222-.009.445 0 .685.053.23.062.489.17.693.4.222.231.284.64.16.925m-.445 12.15c-.88 1.653.045 3.91.045 3.91-1.138-1.289-2.231-2.222-1.902-4.817.329-2.587 3.44-2.08 1.857.897m-3.235 1.751a.662.662 0 01.889-.32c.338.16.48.551.32.89a.67.67 0 01-1.218-.56m-1.146-1.61a.75.75 0 011.004-.364.75.75 0 01.365 1.005.758.758 0 01-1.005.364.757.757 0 01-.364-1.004zm-1.547-2.666a1.004 1.004 0 01-.488-1.342c.24-.507.835-.729 1.341-.489.507.231.73.836.49 1.342-.24.507-.836.73-1.352.49m.454.755a.934.934 0 011.235-.454.934.934 0 01.453 1.236.934.934 0 01-1.235.453.927.927 0 01-.453-1.226m2.933-8.16c.24-.506.835-.728 1.35-.489.507.232.73.836.49 1.343-.24.506-.836.728-1.351.488a1.004 1.004 0 01-.49-1.342zm2.577 15.963s.045.018.063.027l-.08.426c-.125-.053-.24-.097-.365-.15-.373-.17-.764-.294-1.129-.498-.355-.205-.72-.41-1.075-.614a3.444 3.444 0 01-.516-.337l-.497-.374c-.33-.248-.667-.48-.951-.782-.294-.284-.587-.56-.871-.835-.267-.294-.507-.614-.747-.916-.125-.15-.24-.302-.364-.453-.125-.16-.205-.32-.312-.471-.15-.213-.266-.445-.39-.676-.783-1.173-1.53-3.093-.72-5.697.417-1.342 1.404-2.435 2.861-2.826 1.485-.4 3.36-.222 4.311 1.493 1.067 1.938-.347 4.008-1.555 4.044-1.582.053-2.48-1.422-2.089-2.595.391-1.173 1.271-1.387 1.271-1.387-2.506-.293-3.706 1.645-4.044 2.951-.338 1.307.107 3.146 1.111 3.858.933.648.373 1.137.098 1.422.035.035.062.08.098.115.062.08.124.16.195.231.125-.293.427-.79.933-.55.702.328 1.067 1.297 2.204 2.31 1.138 1.013 2.267.684 2.498.844.453.302.222 1.014.062 1.44zm-2.648.747c-1.174-.676-.347-2.08.782-.72.622.755 2.008 1.066 2.008 1.066-.826.294-1.617.33-2.79-.346zm-7.262-4.8c-2.204-2.053-1.51-5.715-1.51-5.715s-.854.534-1.814-.47c-.96-.996-1.582-2.916-1.582-2.916s-.578.729-1.449.702c-.649-.018-1.377-.613-1.902.045-.435.55-.062 1.066-.062 1.066.24-.444.675-.284.969.071.293.347.07 1.342-.978 1.022-1.04-.32-1.262-1.99-.4-3.128 1.716-2.276 6.515-1.013 8.808 4.426 1.973 4.675 4.435 6.462 4.435 6.462s-2.32.488-4.515-1.565zm-2.39-4.684c-.072.063-.16.17-.303.276-.133.106-.302.24-.506.373a5.27 5.27 0 01-1.635.667 6.02 6.02 0 01-1.04.133c-.374 0-.765-.027-1.174-.16a2.263 2.263 0 01-.604-.302 1.45 1.45 0 01-.507-.658c-.124-.31-.027-.764.204-1.004a1.35 1.35 0 01.694-.418c.453-.115.853-.071 1.226-.009.365.071.711.187 1.013.302.143.045.276.09.41.134a7.012 7.012 0 001.68.213h.479l.587-.035-.525.506v-.018zm.017 2.649a.927.927 0 01-1.226.453.927.927 0 01-.454-1.226.934.934 0 011.236-.454.934.934 0 01.453 1.236m-7.52-4.515a.75.75 0 01-1.004.364.758.758 0 01-.364-1.004.75.75 0 011.004-.365.75.75 0 01.365 1.005zm-5.599-2.427c2.036-1.75 3.458-.56 3.458-.56s.4-1.742 2.47-2.355c2.027-.595 3.53.88 3.53.88-3.334-.124-3.343 2.133-5.894 3.173-2.56 1.04-3.564-1.147-3.564-1.147m9.2-4.568c1.59.933 2.07 1.893 2.284 3.066 0 0-1.298-1.43-2.614-1.662-2.364-.417-1.262-2.337.33-1.404zm1.866-1.609a1.27 1.27 0 01.586-.595c.08-.045.116-.054.152-.071.088-.036.15-.045.23-.063.16-.026.32-.017.463.018.293.071.489.222.658.365.328.293.542.604.737.915.382.622.64 1.262.88 1.876a28.91 28.91 0 011.049 3.421c.258 1.014.409 1.867.533 2.453.107.596.16.943.16.943l.08.622-.427-.454s-.24-.257-.63-.71c-.392-.463-.951-1.12-1.583-1.956a26.556 26.556 0 01-1.99-2.977c-.32-.578-.64-1.191-.863-1.894-.106-.355-.204-.728-.204-1.164 0-.222.035-.462.16-.711m9.608 3.244c1.546-.4 1.964 1.476-.089 1.262-1.138-.115-2.213.916-2.213.916.47-.942.755-1.769 2.293-2.178m-2.169.658a6.692 6.692 0 01-.542 1.04c-.08.15-.16.284-.24.426l-.186.427a9.133 9.133 0 00-.427 1.387 9.223 9.223 0 00-.098.542l-.071.56-.355-.614c-.045-.088-.134-.213-.214-.382a5.097 5.097 0 01-.462-1.484 6.035 6.035 0 01.044-2.204c.08-.4.214-.827.445-1.227.115-.204.258-.4.444-.569.187-.169.427-.337.756-.382.329-.062.729.116.915.391.196.267.24.551.258.791.018.498-.116.925-.267 1.307m-3.208-5.324c.782-.96 2 .035 1.27 1.769-.737 1.75-1.048 3.084-1.048 3.084s-1.244-3.582-.222-4.853zm4.275-3.44a.66.66 0 01.889-.32c.337.16.48.551.32.889a.673.673 0 01-.89.329.662.662 0 01-.32-.889m1.53-1.084a.75.75 0 011.004-.365.75.75 0 01.364 1.005.75.75 0 01-1.004.364.75.75 0 01-.364-1.004zm1.884.364c.418-2.213 2.64-3.04 2.737-1.129.098 1.911-2.995 3.333-2.995 3.333s-.044-.595.258-2.213M0 63.044l28.104 16.23.338.195V46.637L.009 63.053 0 63.043z" fill="#fff"/><path d="M19.634 58.75c-.187 0-.48.232-.667.525a3.462 3.462 0 00-.435.978 5.392 5.392 0 00-.178 1.048c-.018.32-.027.65 0 .942a4.566 4.566 0 00.284 1.263c.053-.356.142-.836.32-1.387.053-.151.116-.311.169-.471.071-.16.151-.32.231-.498.16-.31.311-.63.418-.968.107-.338.178-.703.142-1.023-.018-.15-.071-.293-.124-.346-.063-.063-.09-.054-.17-.063m-6.505 8.249c-.143-.018-.294-.036-.454-.063a20.856 20.856 0 00-.48-.106 5.214 5.214 0 00-.915-.178c-.311-.026-.64-.018-.889.08-.124.045-.213.116-.24.169-.026.053 0 .035 0 .089.01.124.25.355.516.462.275.124.595.187.906.204.32.018.622 0 .934-.035a4.714 4.714 0 001.475-.462c.08-.045.151-.09.222-.134a6.574 6.574 0 01-1.093-.017" fill="#fff"/><path d="M36.734 45.48v28.754l24.904 14.38V31.1L36.734 45.48z" fill="#E30613"/><path d="M86.534 45.48L61.638 31.1v57.514l24.896-14.38V45.48z" fill="#AE0F0A"/><path d="M75.832 54.636h-8.976v-8.977H56.412v8.977h-8.977v10.443h8.977v8.977h10.444v-8.977h8.976V54.636zM36.778.25L17.18 11.564v22.63L28.282 40.6l8.496-4.906V.25zm-.444.773v34.415l-8.053 4.648-10.656-6.15V11.821L36.334 1.023zm20.043 10.541L36.779.25v35.445l19.598-11.314V11.564z" fill="#fff"/><path d="M31.864 5.218c-.56-1.27-2.17-.55-1.894 1.538.285 2.106.232 3.644.232 3.644s2.4-3.51 1.662-5.182zm-7.138 13.511a1.3 1.3 0 00.738-1.68 1.3 1.3 0 00-1.68-.738 1.3 1.3 0 00-.737 1.68 1.3 1.3 0 001.68.738zm6.977 14.548a1.3 1.3 0 00.738-1.68 1.3 1.3 0 00-1.68-.738 1.3 1.3 0 00-.737 1.68 1.3 1.3 0 001.68.738zm-9.83-12.753c.24.613.925.915 1.538.675s.915-.924.675-1.537a1.184 1.184 0 00-1.537-.676c-.613.24-.916.924-.676 1.538zm7.991 15.811c.24.614.924.916 1.537.676.613-.24.916-.925.676-1.538a1.184 1.184 0 00-1.538-.675c-.613.24-.915.924-.675 1.537zM34.29 3.636c.24.613.924.916 1.538.676.613-.24.915-.925.675-1.538a1.184 1.184 0 00-1.538-.676c-.613.24-.915.925-.675 1.538zm-13.003 17.83a.968.968 0 10.701 1.804.968.968 0 00-.701-1.804zM32.85 33.43a.968.968 0 10.702 1.803.968.968 0 00-.702-1.804zm1.938-18.427a.968.968 0 10.701 1.804.968.968 0 00-.701-1.804zM23.224 34.789a.968.968 0 10.702 1.804.968.968 0 00-.702-1.804zM19.162 24.31a.857.857 0 001.111.489.857.857 0 00.49-1.111.864.864 0 00-1.112-.49.857.857 0 00-.489 1.112zm14.204 7.625a.856.856 0 001.11.489.856.856 0 00.49-1.111.864.864 0 00-1.112-.489.856.856 0 00-.488 1.111zm1.608-11.198a.856.856 0 001.111.489.857.857 0 00.49-1.111.864.864 0 00-1.112-.489.856.856 0 00-.489 1.111zm-17.527 4.568a.748.748 0 101.396-.542.748.748 0 00-1.396.542zm7.413 12.372a.748.748 0 101.395-.542.748.748 0 00-1.395.542zm9.945-3.448a.64.64 0 00.827.364.64.64 0 00.364-.827.64.64 0 00-.826-.364.64.64 0 00-.365.827zM32.717 3.983a.64.64 0 00.826.364.64.64 0 00.365-.826.64.64 0 00-.827-.365.64.64 0 00-.364.827z" fill="#F6F6F6"/><path d="M27.5 15.324c-.427-1.742-1.6-3.226-3.431-3.848-1.867-.632-4.284-.56-5.635 1.564-1.52 2.39.124 5.155 1.662 5.306 2.017.195 3.288-1.618 2.888-3.146-.4-1.538-1.51-1.885-1.51-1.885 3.226-.169 4.612 2.409 4.932 4.107.329 1.697-.39 4.026-1.742 4.835-1.253.755-.569 1.422-.24 1.804-.044.044-.089.098-.133.142-.09.098-.178.187-.267.285-.133-.383-.48-1.04-1.146-.783-.925.365-1.671 1.36-3.013 2.773-1.502 1.582-.276 1.05-1.92 2.738.133-.053.266-.098.4-.16.48-.231.95-.462 1.43-.702.24-.107.472-.24.694-.391l.667-.436c.444-.293.897-.56 1.28-.915.4-.338.79-.676 1.181-1.005.365-.355.694-.746 1.032-1.11.168-.187.337-.365.497-.543.178-.195.294-.39.436-.578.204-.257.382-.55.55-.835 1.103-1.43 2.214-3.83 1.387-7.226m-2.293 10.453c-4.221 3.83-7.581 4.48-7.581 4.48s2.124 1.6 5.342.541c3.217-1.048 4.248-5.101 4.248-5.101s.622.942 2.071.382c1.449-.56 2.986-2.213 2.986-2.213s.24 1.013 1.138 1.404c.667.285 1.698.027 1.911.942.178.765-.435 1.111-.435 1.111-.036-.569-.56-.604-1.014-.39-.462.212-.702 1.332.507 1.501 1.209.17 2.222-1.43 1.884-3.004-.675-3.128-6.15-4.115-11.065.338m2.995-13.279c-.063-.196-.116-.41-.178-.623-.08-.213-.169-.426-.258-.648-.178-.418-.346-.827-.453-1.28-.107-.445-.178-.916-.098-1.316.036-.195.116-.364.196-.435.08-.08.124-.062.23-.062.232.017.596.337.81.72.222.39.382.835.47 1.288.098.462.134.898.143 1.351 0 .418-.018.827-.089 1.2a5.742 5.742 0 01-.24 1.005c-.071.23-.16.417-.231.586a11.198 11.198 0 00-.302-1.795m.71 2.195c.116-.213.259-.471.374-.782a7.04 7.04 0 00.338-1.075c.098-.4.15-.845.187-1.343a8.684 8.684 0 00-.063-1.493 5.039 5.039 0 00-.47-1.6 2.86 2.86 0 00-.525-.764c-.231-.231-.525-.462-.942-.551-.418-.107-.942.089-1.2.427-.267.32-.356.675-.391.995-.063.64.08 1.191.24 1.698.169.506.39.968.604 1.368.089.196.187.383.267.56.07.196.142.374.204.551.24.73.365 1.36.427 1.814.062.453.08.702.08.702l.044.72.507-.756c.062-.107.186-.258.302-.47m3.582 4.87c-.427.026-.88.142-1.307.31-.435.178-.8.383-1.2.623a6.611 6.611 0 00-.942.729 6.698 6.698 0 00-.702.746c-.089.098-.142.214-.213.302a12.54 12.54 0 011.43-.657c.196-.062.4-.134.623-.205.222-.053.453-.106.684-.16a7.867 7.867 0 001.29-.346c.417-.16.835-.373 1.101-.64.134-.134.214-.276.214-.347 0-.08-.018-.044-.045-.107-.089-.142-.533-.284-.95-.24m2.239.667c-.133.436-.391.72-.649.933-.515.427-1.066.614-1.582.765a8.934 8.934 0 01-1.493.258c-.213.026-.418.062-.614.088-.195.045-.39.09-.568.134-.73.195-1.325.444-1.733.63l-.463.232c-.106.062-.16.089-.16.089l-.737.4.373-.951c.053-.116.107-.302.222-.516a6.613 6.613 0 011.147-1.662 8.053 8.053 0 012.284-1.724c.48-.24 1.013-.445 1.618-.525.302-.035.622-.062.968 0 .338.063.711.178 1.05.498.346.311.497.916.346 1.351m-10.95-9.429c1.466-.063 2.755 1.35 2.755 1.35-.524-1.244-.818-2.328-2.764-2.977-1.938-.64-2.631 1.733.009 1.618" fill="#F6F6F6"/><path d="M31.037 16.266c-1.982 1.245-2.55 2.471-2.773 3.964 0 0 1.59-1.857 3.244-2.204 2.978-.622 1.511-3.004-.471-1.769m4.755 5.839c-1.244-.453-2-.284-2.755.134 0 0 1.386.07 2.124.693 1.315 1.12 1.875-.373.63-.827zm-5.146-8.86a62.423 62.423 0 011.813-4.089 17.09 17.09 0 011.235-2.106c.231-.32.49-.631.747-.818a.826.826 0 01.302-.16h.062s.036.018.018 0a.513.513 0 01.098.053c.124.08.204.214.204.543-.009.32-.115.702-.257 1.066-.285.747-.676 1.475-1.085 2.169-.835 1.386-1.733 2.63-2.506 3.688-.631.853-1.191 1.582-1.627 2.16.258-.675.596-1.529.987-2.515m-1.653 4.195s.32-.302.862-.862c.533-.56 1.315-1.36 2.186-2.373.871-1.014 1.858-2.231 2.782-3.644.453-.72.916-1.476 1.262-2.356.17-.444.32-.915.356-1.475a2.199 2.199 0 00-.142-.925 1.638 1.638 0 00-.703-.808c-.097-.063-.142-.08-.186-.107a1.469 1.469 0 00-.294-.098 1.683 1.683 0 00-.595-.018 2.04 2.04 0 00-.871.41c-.444.346-.738.728-1.013 1.11-.542.765-.925 1.565-1.28 2.329-.702 1.538-1.218 3.013-1.627 4.284-.408 1.271-.675 2.346-.88 3.102a34.19 34.19 0 00-.275 1.19l-.16.783.587-.551-.01.009zm-7.964 14.79s6.044 2.124 7.12 7.768c1.51-2.196.435-4.373.435-4.373 1.058-.365 1.902-2.755-.035-3.777 0 0 1.244-.56 1.12-2.436-.125-1.884-1.912-2.64-1.912-2.64s-.835 5.013-6.719 5.458m-1.271 1.856c-.231-1.715-2.133-2.915-2.133-2.915 1.547.355 2.87.47 4.017 2.595 1.147 2.124-1.466 3.413-1.884.32zm-.702-13.198c.035 1.414-1.351 2.631-1.351 2.631 1.209-.489 2.257-.755 2.915-2.613.649-1.866-1.626-2.569-1.564-.018zm13.847 7.475c-1.733-1.609-3.084-1.857-4.604-1.68 0 0 2.231 1.076 3.004 2.605 1.378 2.755 3.333.693 1.61-.916m1.723-14.896s.943.39 1.725-.862c0 0-.89-.987-2.062-.018-1.173.969-.8 2.16-2.578 2.64 0 0 1.031.533 2-.116.987-.667.916-1.644.916-1.644zm.952 4.132c-1.298-.346-2.045-.115-2.764.373 0 0 1.404-.053 2.195.516 1.422 1.013 1.857-.533.56-.889" fill="#F6F6F6"/><path d="M108.425 45.987v12.337h-2.862v-5.057h-5.6v5.057h-2.862V45.987h2.862v4.862h5.6v-4.862h2.862zm10.55 7.528l-1.956-4.728-1.955 4.728h3.911zm.897 2.169h-5.732l-1.094 2.649h-2.924l5.502-12.337h2.817l5.52 12.337h-2.995l-1.094-2.649zm18.674.311v4.942h-2.622v-2.613h-10.319V45.987h2.835v10.008h5.502V45.987h2.844v10.008h1.76zm1.893-10.008h2.835v8.035l5.893-8.035h2.676v12.337h-2.818v-8.017l-5.893 8.017h-2.693V45.987zm24.229 6.169c0-2.346-1.653-3.946-3.857-3.946-2.205 0-3.858 1.6-3.858 3.946s1.653 3.946 3.858 3.946c2.204 0 3.857-1.608 3.857-3.946zm-10.612 0c0-3.67 2.853-6.382 6.755-6.382 3.901 0 6.754 2.702 6.754 6.382 0 3.68-2.87 6.382-6.754 6.382-3.885 0-6.755-2.72-6.755-6.382zm27.037-6.169v12.337h-2.862v-5.057h-5.608v5.057h-2.853V45.987h2.853v4.862h5.608v-4.862h2.862zm10.541 7.528l-1.955-4.728-1.956 4.728h3.911zm.898 2.169h-5.733l-1.093 2.649h-2.925l5.502-12.337h2.818l5.519 12.337h-2.995l-1.093-2.649zm16.842-9.697v12.346h-2.817V48.316h-4.231l-.089 2.578c-.16 4.843-.844 7.634-3.742 7.634-.426 0-.879-.07-1.413-.195l.178-2.418c.178.053.338.071.516.071 1.448 0 1.813-1.83 1.937-4.986l.178-5.004h9.483v-.009zm10.87 8.088c0-1.36-.88-1.92-2.364-1.92h-2.577v4.054h2.577c1.467 0 2.364-.738 2.364-2.134zm2.871-.053c0 2.835-1.902 4.302-5.075 4.302h-5.573V45.978h2.844v4.053h3.138c2.977 0 4.675 1.325 4.675 3.982m13.385-8.026v12.337h-2.862v-5.057h-5.608v5.057h-2.853V45.987h2.853v4.862h5.608v-4.862h2.862zm12.835 6.169c0-2.346-1.653-3.946-3.858-3.946-2.204 0-3.857 1.6-3.857 3.946s1.653 3.946 3.857 3.946c2.205 0 3.858-1.608 3.858-3.946zm-10.613 0c0-3.67 2.853-6.382 6.755-6.382 3.902 0 6.755 2.702 6.755 6.382 0 3.68-2.871 6.382-6.755 6.382s-6.755-2.72-6.755-6.382zM264 56.03v2.294h-9.555V45.987h9.324v2.293h-6.488v2.676h5.732v2.222h-5.732v2.853H264zM104.123 70.26c0 1.947-1.947 3.084-4.089 3.084-1.36 0-2.8-.462-3.893-1.457l.32-.551c.97.906 2.267 1.315 3.475 1.315 1.796 0 3.387-.906 3.387-2.48 0-1.377-1.12-2.142-3.031-2.142h-2.204v-.675h2.177c1.645 0 2.605-.738 2.605-1.991 0-1.422-1.36-2.258-3.022-2.258-.996 0-2.098.294-3.076.934l-.293-.658a6.447 6.447 0 013.386-.978c2.071 0 3.804 1.076 3.804 2.871 0 1.182-.702 2.053-1.866 2.391 1.458.32 2.329 1.289 2.329 2.604m3.102 2.293h7.048v-9.314h-5.484l-.089 2.88c-.107 2.923-.382 5.688-1.475 6.434zm9.483 0v3.155h-.755v-2.453h-9.813l-.018 2.453h-.755l.018-3.155h.586c1.529-.124 1.885-3.004 1.991-6.497l.107-3.52h6.977v10.026h1.653l.009-.009zm9.875-6.407c0-1.858-1.227-2.916-3.529-2.916h-3.066v5.804h3.066c2.302 0 3.529-1.057 3.529-2.897m.799 0c0 2.248-1.626 3.6-4.319 3.6h-3.066v3.51h-.783V62.528h3.849c2.702 0 4.319 1.351 4.319 3.618zm8.453 3.448l-2.818-6.195-2.808 6.195h5.626zm.293.657h-6.221l-1.36 3.022h-.845l4.933-10.728h.782l4.933 10.728h-.844l-1.378-3.022zm12.106.116c0-1.547-1.058-2.222-3.031-2.222h-3.849v4.462h3.849c1.973 0 3.031-.703 3.031-2.24zm-6.88-2.862h3.529c1.778 0 2.791-.738 2.791-2.142s-1.013-2.16-2.791-2.16h-3.529v4.31-.008zm7.662 2.915c0 1.822-1.271 2.853-3.831 2.853h-4.613V62.545h4.32c2.204 0 3.573.934 3.573 2.729 0 1.289-.72 2.115-1.858 2.48 1.591.275 2.409 1.182 2.409 2.666zm12.425-2.514c0-2.711-2.053-4.72-4.781-4.72-2.729 0-4.8 2.009-4.8 4.72 0 2.71 2.053 4.72 4.8 4.72 2.746 0 4.781-2.01 4.781-4.72zm-10.354 0c0-3.111 2.373-5.44 5.582-5.44 3.208 0 5.581 2.311 5.581 5.44 0 3.128-2.391 5.44-5.581 5.44-3.191 0-5.582-2.33-5.582-5.44zm23.429 0c0-2.711-2.053-4.72-4.782-4.72s-4.8 2.009-4.8 4.72c0 2.71 2.054 4.72 4.8 4.72s4.782-2.01 4.782-4.72zm-10.355 0c0-3.111 2.373-5.44 5.582-5.44 3.208 0 5.581 2.311 5.581 5.44 0 3.128-2.39 5.44-5.581 5.44-3.191 0-5.582-2.33-5.582-5.44zm13.341-5.369l3.235 4.524 3.253-4.524h.933l-3.697 5.164 3.982 5.564h-.934l-3.537-4.897-3.511 4.897h-.915l3.955-5.546-3.68-5.182h.916zm17.056 3.618c0-1.858-1.227-2.916-3.529-2.916h-3.066v5.804h3.066c2.302 0 3.529-1.057 3.529-2.897m.8 0c0 2.248-1.627 3.6-4.32 3.6h-3.066v3.51h-.782V62.528h3.848c2.702 0 4.32 1.351 4.32 3.618zm8.461 3.448l-2.817-6.195-2.809 6.195h5.626zm.294.657H197.9l-1.36 3.022h-.844l4.933-10.728h.782l4.933 10.728h-.845l-1.377-3.022zm13.172-7.714v10.728h-.782v-5.102h-7.173v5.102h-.773V62.537h.773v4.942h7.173v-4.942h.782zm11.27 10.026v.702h-7.404V62.537h7.173v.711h-6.391v4.23h5.715v.685h-5.715v4.4h6.622zm11.341-10.026v10.728h-.783v-5.102h-7.172v5.102h-.782V62.537h.782v4.942h7.172v-4.942h.783zm3.857 0h.782v9.413l7.306-9.413h.693v10.728h-.782V63.87l-7.306 9.395h-.693V62.537zm20.042 10.026v.702h-7.394V62.537h7.163v.711h-6.39v4.23h5.724v.685h-5.724v4.4h6.621z" fill="#fff"/></svg>