<svg width="35" height="47" fill="none" xmlns="http://www.w3.org/2000/svg"><path d="M0 39.825L12.426 47l12.42-7.175v-.024l-.023.015-13.537-7.814v-.03L.019 25.468l-.019.01v14.348z" fill="#0081C9"/><path d="M4.963 34.872c-.645-.461-.616-1.226-.025-1.086.63.154 1.27 1.385 1.823 1.688 0 0-1.154-.14-1.798-.602zm6.559 9.536s-.808.577-1.818-.437c0 0 .63-1.12 1.943-.462 1.317.659 1.226 1.861 3.005 1.928 0 0-.86.726-1.914.327-1.077-.408-1.221-1.356-1.221-1.356" fill="#4195D1"/><path d="M10.031 44.827c-.62.38.063.971.875.707.592-.193.784-.318.784-.318s-1.039-.77-1.659-.39zm-8.786-5.314a.852.852 0 01-.85-.846.849.849 0 011.697 0c0 .466-.38.846-.847.846zm2.165.414a.774.774 0 11-1.548 0 .774.774 0 011.547 0zm.576.433c.347 0 .63.283.63.63a.632.632 0 01-.63.629.632.632 0 01-.63-.63c0-.346.284-.63.63-.63zm1.967 1.225a.558.558 0 11-1.116 0 .558.558 0 011.116 0zm1.284.203a.484.484 0 11-.971 0c0-.27.216-.486.486-.486.269 0 .485.216.485.486zm1.068-.02a.413.413 0 11-.827 0 .413.413 0 01.827 0zm12.007-1.332c.043-.081.086-.163.135-.25.038-.091.081-.187.12-.284.072-.187.149-.365.255-.543.1-.173.23-.341.375-.447.072-.053.149-.082.197-.077.048 0 .058.02.091.048.072.077.082.293.03.476-.049.192-.14.38-.256.553a3.293 3.293 0 01-.375.471 3.31 3.31 0 01-.784.597 2.161 2.161 0 01-.255.11c.13-.159.299-.375.462-.659m-.457.914c.101-.029.226-.067.361-.13a2.87 2.87 0 00.442-.235 3.34 3.34 0 00.476-.361c.145-.135.308-.303.448-.486.14-.187.269-.399.35-.649.04-.125.073-.26.073-.404a.805.805 0 00-.125-.466.538.538 0 00-.51-.236.82.82 0 00-.433.192c-.216.183-.346.4-.452.611a3.85 3.85 0 00-.235.62c-.03.092-.063.178-.092.26-.038.082-.072.164-.105.24-.15.303-.313.544-.428.703-.12.163-.193.245-.193.245l-.211.24.394-.081c.058-.015.14-.025.24-.058M.842 29.083c.048-.077.096-.154.149-.236.057-.077.12-.159.182-.24.125-.154.24-.308.342-.481.096-.173.182-.366.197-.539.01-.086 0-.163-.029-.206-.024-.044-.043-.039-.087-.053-.1-.024-.288.072-.423.206-.14.135-.26.308-.35.486a3.53 3.53 0 00-.222.548 2.967 2.967 0 00-.125.962c0 .101.014.192.029.274.072-.187.178-.438.337-.716m-.558.831a2.164 2.164 0 01-.063-.375 3.204 3.204 0 01.067-1.072c.049-.188.111-.409.202-.615a2.22 2.22 0 01.385-.616c.087-.096.188-.188.313-.26a.771.771 0 01.457-.12.535.535 0 01.452.322.834.834 0 01.048.462c-.048.274-.173.49-.298.683-.13.192-.28.36-.414.505-.063.067-.12.14-.178.202-.053.072-.1.14-.154.206a4.725 4.725 0 00-.394.707c-.082.183-.116.284-.116.284l-.105.298-.12-.375c-.015-.053-.049-.13-.068-.236m15.888 9.613c-.077.827-.962 1.443-.962 1.443.736-.202 1.366-.289 1.871-1.328.505-1.038-.774-1.6-.909-.115zm6.646 1.246c-1.01.831-1.765.923-2.602.779 0 0 1.27-.52 1.741-1.342.851-1.476 1.866-.274.856.558m-2.789-2.972c.264.919.106 1.448-.236 1.962 0 0 .024-1-.39-1.553-.735-1 .361-1.327.621-.409" fill="#4195D1"/><path d="M16.648 41.912c-1.813.13-2.607 1.097-2.25 2.049.355.952 1.384.64 1.384.64s-.976.596-1.654-.438c-.553-.846.245-2.27 1.015-2.77.884-.577 1.476-.322 1.476-.322.707-1.327 1.75-.726 1.75-.726-.428-1.294.683-1.582.683-1.582 1.625 2.226-.591 3.024-2.409 3.154" fill="#4195D1"/><path d="M17.398 42.057c1.65.077 2.515-.4 2.515-.4s-.178.75-1.092 1.107c-.909.356-1.89-.356-1.89-.356s.039.322-.389.466c-.428.145-1.077.058-1.077.058s.135.27 0 .524c-.096.188-.375.318-.25.563.1.202.303.168.303.168-.096-.134.014-.235.154-.274.144-.038.404.168.163.428-.24.26-.76.091-.976-.322-.428-.822.61-2.053 2.53-1.962m-9.392 1.159c.125-.092.279-.164.433-.212a2.5 2.5 0 011.269-.062c.048.01.087.024.13.038-.149.03-.337.072-.548.145-.072.028-.144.052-.217.081-.072.039-.149.072-.226.11a2.977 2.977 0 01-.437.198 1.11 1.11 0 01-.452.072.243.243 0 01-.14-.048c-.019-.02 0-.014-.014-.038-.01-.058.082-.198.207-.284m-.472.692c.135.092.275.11.395.116.24 0 .437-.072.615-.15.178-.076.337-.177.476-.269a3.1 3.1 0 00.188-.115c.067-.034.13-.063.187-.091a3.83 3.83 0 01.813-.26l.067-.015.299-.057-.323-.178c-.043-.02-.1-.063-.182-.096a2.606 2.606 0 00-.697-.197 2.837 2.837 0 00-1.03.038 1.876 1.876 0 00-.572.221 1.134 1.134 0 00-.27.221.687.687 0 00-.177.376.479.479 0 00.211.452m10.132-6.776c-.654-.043-.884-.12-.884-.12s.63-1.03 1.36-.803c.731.23.419.986-.48.923m-7.415-4.775c-.082-.765.85-.572 1.149.279.216.62.236.86.236.86s-1.309-.374-1.39-1.139m-8.526.875a.722.722 0 01-.264-.981.722.722 0 01.98-.264.717.717 0 11-.716 1.245zM3.12 34.45a.659.659 0 11-1.14-.661.659.659 0 011.14.66zm.241.562a.54.54 0 01.198.73.54.54 0 01-.731.198.54.54 0 01-.198-.731.54.54 0 01.731-.197zm.924 1.731a.476.476 0 01-.65.173.472.472 0 01-.173-.644.476.476 0 01.65-.173c.225.13.302.418.173.644zm.855.687a.41.41 0 01-.562.15.41.41 0 01-.15-.563.41.41 0 01.563-.149.41.41 0 01.15.563zm.79.438a.353.353 0 01-.612-.35.353.353 0 01.611.35zm12.305.592a.478.478 0 01-.236-.457 3.178 3.178 0 00-.341-.087c-.01.039-.015.077-.039.111a.459.459 0 01-.63.168.45.45 0 01-.221-.341c-.144.01-.298.02-.447.053-.01 0-.015 0-.024.005a.417.417 0 01-.62.332.371.371 0 01-.111-.102c-.135.063-.274.125-.4.202a.356.356 0 01-.529.39c-.004 0-.009-.01-.014-.015-.11.101-.23.193-.332.294a.318.318 0 010 .308.323.323 0 01-.399.134c-.033.039-.072.082-.1.12-.068.097-.13.183-.198.274a.28.28 0 01.015.294.285.285 0 01-.303.13c-.096.158-.169.303-.236.404-.096.163-.15.26-.15.26a.07.07 0 01-.1.033.073.073 0 01-.029-.101l.15-.27c.066-.105.134-.25.225-.413a.268.268 0 01-.038-.322.284.284 0 01.332-.12l.192-.28c.029-.042.067-.08.1-.12a.332.332 0 01-.018-.346.325.325 0 01.428-.125c.105-.105.226-.202.341-.307a.362.362 0 01.01-.323.356.356 0 01.49-.13c.02.015.034.034.053.049.135-.087.284-.159.428-.226a.425.425 0 01.043-.265.417.417 0 01.568-.154.406.406 0 01.149.164c.01 0 .019-.005.029-.01.182-.043.36-.057.529-.072.004-.014.004-.029.014-.043a.458.458 0 01.832.086c.168.03.317.068.442.101a.48.48 0 01.625-.134.486.486 0 01-.485.841m-5.343-.567s.808-2.78-.98-4.66c1.202.024 1.721.995 1.721.995.414-.288 1.515.025 1.375 1.006 0 0 .534-.308 1.193.23.659.539.461 1.395.461 1.395s-2.058-1.015-3.77 1.034z" fill="#4195D1"/><path d="M10.29 40.681c.102.02.198.039.294.053.091.024.183.053.27.077.35.096.644.226.88.346.105.053.201.111.283.16v-.313c-.322-.53-1.067-1.592-2.111-2.068-1.428-.65-1.707.692-.745.524 0 0 .557.197.279.462-.068.062-.27.12-.52.105.284.111.322.347.284.525.154.01.313.024.462.033.22.01.432.048.63.087m-9.007-4.285c-.077-.115-.154-.226-.226-.341-.077-.125-.125-.236-.193-.356a3.916 3.916 0 01-.23-.5c-.481-.875-.885-2.28-.15-4.068.38-.919 1.145-1.63 2.198-1.813 1.072-.188 2.385.053 2.948 1.322.63 1.433-.495 2.809-1.351 2.76-1.12-.062-1.66-1.158-1.313-1.961.346-.808.98-.9.98-.9-1.75-.36-2.72.928-3.038 1.832-.322.9-.125 2.232.548 2.79.62.519.192.826-.02 1.01l.063.09.12.178c.106-.197.347-.528.693-.331.476.274.673.986 1.414 1.77.735.783 1.558.624 1.712.75.298.24.096.726-.044 1.019.072.038.145.072.217.11.01 0 .019.005.024.01-.072-.567.625-.966.817-.673.212.322 1.255.87 2.073.88h.029c-.37-.116-.765-.394-.986-.981-.308-.813-.087-1.496-.087-1.496-2.914-.605-3.457-2.683-3.457-2.683.832.606 1.591.846 4.65 2.087 2.202.89 3.068 2.332 3.38 3.073.01-.188.015-.38.024-.568-.274-.533-.961-1.726-1.851-2.293 0 0-.73.086-1.255-.447-.524-.53-.736-.967-1.053-1.275 2.423.765 3.698 2.679 4.179 3.578v-.067c-.164-.972-.428-1.486-.428-1.486-1-.438-1.52-1.433-1.756-2.092-.355-1-.908-1.423-.908-1.423 1.88.774 2.736 2.596 3.096 3.683a9.046 9.046 0 00-.11-1.02 6.028 6.028 0 00-.697-1.928c-.327-.572-.775-1.087-1.29-1.438a3.135 3.135 0 00-.821-.39 2.642 2.642 0 00-.861-.09 2.739 2.739 0 00-.798.197 2.43 2.43 0 00-.64.423c-.173.168-.293.356-.332.553-.043.197.01.39.106.538a.67.67 0 00.409.284c.134.034.293.02.394-.043.216-.125.202-.351.15-.476-.059-.13-.121-.193-.116-.193a.099.099 0 01.01-.144.1.1 0 01.144.01c-.005.005.072.067.163.24a.72.72 0 01.067.366.626.626 0 01-.279.433.812.812 0 01-.61.09.993.993 0 01-.587-.374 1.064 1.064 0 01-.197-.784 1.42 1.42 0 01.409-.77c.22-.22.452-.374.74-.523l.043-.015-.057-.014a1.853 1.853 0 01-.669-.375 1.419 1.419 0 01-.447-.813 1.25 1.25 0 010-.5.823.823 0 01.293-.471.846.846 0 01.938-.043.75.75 0 01.36.6c0 .087 0 .15-.014.188l-.014.062a.238.238 0 01-.279.183.242.242 0 01-.183-.279c-.01 0 .058-.211-.134-.317-.096-.058-.27-.068-.366.014a.382.382 0 00-.115.178.777.777 0 00-.01.303c.03.216.135.414.28.568.143.158.326.274.494.365.164.087.313.144.419.183a2.51 2.51 0 01.384-.077 3.2 3.2 0 011.02.077c.341.081.668.235.976.423.606.404 1.092.957 1.472 1.61.365.616.634 1.347.774 2.073.144.731.159 1.477.13 2.193 0 .067-.01.135-.015.202a4.442 4.442 0 01.755-.726 5.78 5.78 0 011.16-.678c.33-.15.571-.216.571-.216a.103.103 0 01.125.067.098.098 0 01-.067.125s-.221.072-.539.226a5.451 5.451 0 00-1.082.692c-.178.15-.346.308-.485.477a2.09 2.09 0 00-.193.24c-.057.082-.115.154-.154.23-.043.073-.081.14-.12.203-.005.014-.01.019-.014.033-.029.404-.053.803-.067 1.193-.024.659 0 1.293.134 1.86.015.063.039.121.053.184.101-.688.577-1.477 1.515-2.188.856-.65.995-1.049.995-1.049.544.895-1 2.034-1.457 2.861-.312.563-.346 1.29-.336 1.698.307.37.668.635 1.024.76.38.134.745.115 1.029.053a2.51 2.51 0 00.644-.246c.145-.076.207-.13.207-.125.043-.033.106-.029.14.01a.1.1 0 01-.01.144s-.072.068-.221.164c-.15.096-.37.226-.693.322-.317.091-.745.14-1.202.005-.462-.125-.914-.448-1.284-.875a5.392 5.392 0 01-.274-.347c-.077-.115-.159-.23-.236-.375a3.547 3.547 0 01-.202-.432c-.331-.303-.884-.703-1.442-.645-.88.091-1.962.034-2-1.087.076.294 1.024.37 1.86.361.52-.005 1.034.322 1.357.572a4.619 4.619 0 01-.082-.577c-.101-.072-.255-.182-.472-.293a4.304 4.304 0 00-.812-.327c-.082-.024-.164-.053-.255-.077-.091-.02-.183-.034-.274-.053-.188-.038-.385-.082-.596-.087l-.674-.057a83.83 83.83 0 00-.721-.072c-.125-.015-.25-.02-.375-.044a25.412 25.412 0 00-.39-.086c-.26-.063-.529-.12-.798-.188-.26-.096-.52-.192-.788-.293-.13-.053-.27-.091-.4-.159-.125-.067-.254-.134-.384-.202-.255-.14-.524-.255-.765-.418-.24-.168-.48-.332-.726-.5a2.078 2.078 0 01-.341-.274l-.327-.294c-.217-.197-.443-.38-.626-.61l-.562-.65c-.168-.226-.317-.466-.471-.692m1.62-7.424c-.798-.154-1.616.51-1.616.51.395-.636.645-1.203 1.756-1.395 1.115-.188 1.293 1.163-.14.885z" fill="#4195D1"/><path d="M11.286 18.96L.02 25.468l11.267 6.506V18.961z" fill="#0056A4"/><path d="M6.804 22.25c.318-.39.808.014.515.716a9.14 9.14 0 00-.428 1.25s-.505-1.452-.092-1.966m1.684 4.895a.417.417 0 01-.202-.549.417.417 0 01.548-.201.417.417 0 01.202.548.411.411 0 01-.548.197m1.572-2.452a.417.417 0 01-.202-.548.417.417 0 01.548-.202.417.417 0 01.202.548.411.411 0 01-.548.197m-.707 3.087a.378.378 0 01-.5.183.378.378 0 01-.183-.5.378.378 0 01.5-.183c.188.087.27.313.183.5zm-3.424.38a.378.378 0 01-.5.183.378.378 0 01-.182-.5.378.378 0 01.5-.183.378.378 0 01.182.5zm3.593-.067a.308.308 0 11-.26.557.308.308 0 01.26-.557zm.047-7.819a.308.308 0 11-.259.557.308.308 0 01.26-.557zm-6.842 5.645a.308.308 0 11-.26.558.308.308 0 01.26-.558zm7.343 3.203a.269.269 0 01-.361.13.273.273 0 01-.13-.36.273.273 0 01.36-.13.273.273 0 01.13.36zM9.03 21.081a.269.269 0 01-.36.13.273.273 0 01-.13-.36.273.273 0 01.361-.13.273.273 0 01.13.36z" fill="#2768B1"/><path d="M9.954 27.116c-.644.02-1.005-.577-.851-1.053.159-.476.514-.563.514-.563-1.014-.12-1.505.669-1.644 1.198-.14.529.043 1.279.452 1.563.38.264.149.461.038.577.015.014.024.033.039.048.024.029.053.062.077.096.053-.12.173-.322.38-.226.283.134.432.529.894.938.462.408.923.279 1.015.341.182.125.091.409.024.582.01 0 .014.005.024.01-.015.057-.024.115-.034.173a3.386 3.386 0 01-.149-.063c-.149-.067-.313-.12-.457-.202l-.437-.25a1.24 1.24 0 01-.212-.14l-.202-.148c-.135-.101-.274-.193-.385-.318-.12-.115-.235-.23-.355-.341-.111-.12-.202-.25-.303-.37a2.654 2.654 0 00-.15-.183c-.052-.068-.081-.13-.124-.193a3.118 3.118 0 01-.16-.274c-.317-.476-.62-1.255-.292-2.313.168-.543.567-.985 1.163-1.144.606-.164 1.366-.091 1.75.606.433.784-.139 1.625-.63 1.644m-3.024-.125c.798 1.9 1.798 2.621 1.798 2.621s-.937.202-1.832-.635c-.894-.836-.615-2.317-.615-2.317s-.346.216-.736-.193c-.39-.404-.644-1.183-.644-1.183s-.236.298-.587.289c-.264-.005-.558-.25-.77.019-.173.221-.028.433-.028.433.1-.183.274-.116.394.029.115.14.029.543-.394.413-.423-.13-.515-.808-.164-1.27.698-.923 2.645-.413 3.573 1.8m.606-1.891c.024-.062.048-.125.067-.192.03-.063.063-.13.092-.202.067-.125.125-.255.168-.395.043-.139.072-.288.058-.413a.236.236 0 00-.053-.14c-.024-.028-.039-.024-.072-.024-.077 0-.198.097-.27.212a1.243 1.243 0 00-.173.4 2.596 2.596 0 00-.072.422c-.01.13-.01.265 0 .38.01.12.029.226.053.322.02.073.043.135.063.193.024-.145.057-.337.13-.563m-.27.678a1.48 1.48 0 01-.1-.255 2.343 2.343 0 01-.12-.774c-.001-.14.013-.308.047-.471.034-.164.087-.332.183-.495a.824.824 0 01.182-.231.584.584 0 01.308-.154.392.392 0 01.37.159c.077.11.097.22.101.322.005.202-.048.375-.11.529a3.465 3.465 0 01-.217.423c-.033.058-.067.115-.096.173a2.617 2.617 0 00-.077.173 3.83 3.83 0 00-.173.563c-.029.14-.038.22-.038.22l-.03.227-.143-.25c-.02-.039-.053-.087-.087-.154" fill="#2768B1"/><path d="M4.14 27.26c.11.048.24.077.37.082.13.01.25 0 .38-.014.116-.02.231-.039.332-.077a1.56 1.56 0 00.27-.11c.033-.015.062-.04.09-.054-.12.005-.268.01-.446-.005-.058-.01-.12-.014-.183-.024l-.192-.043a2.018 2.018 0 00-.37-.072.88.88 0 00-.361.034c-.048.019-.087.048-.096.067-.01.02 0 .014 0 .034 0 .048.1.144.211.187M3.66 26.8a.528.528 0 01.28-.169c.182-.048.346-.028.495 0 .149.03.288.077.408.12l.164.058c.058.015.11.024.163.039a3 3 0 00.52.048h.2l.235-.014-.211.206c-.03.024-.068.068-.12.11a1.806 1.806 0 01-.5.299 2.202 2.202 0 01-.37.12c-.126.024-.275.053-.424.053a1.51 1.51 0 01-.476-.062.848.848 0 01-.245-.125.548.548 0 01-.202-.27.431.431 0 01.081-.409m5.296-2.15c-.462-.048-.895.37-.895.37.193-.38.308-.716.933-.884.625-.164.794.6-.033.51m.871 6.275c.475.274.793.26 1.13.14 0 0-.564-.126-.818-.434-.457-.553-.794.02-.318.294m-5.491-7.449c.644.38.841.77.928 1.245 0 0-.53-.581-1.063-.673-.962-.168-.515-.947.135-.572zm2.39 1.813a20.818 20.818 0 00-.49-1.327 5.816 5.816 0 00-.347-.693 1.311 1.311 0 00-.221-.274c-.039-.034-.072-.053-.092-.053h-.024c-.019.005-.038.015-.033.015-.044.024-.072.062-.077.168 0 .101.024.221.057.341.077.24.183.481.299.707.235.457.495.866.716 1.217.183.284.341.524.471.712-.067-.217-.158-.496-.26-.813zm.437 1.356s-.096-.101-.255-.289c-.158-.187-.39-.456-.64-.793-.254-.337-.543-.74-.807-1.207a4.346 4.346 0 01-.351-.77 1.588 1.588 0 01-.082-.476c0-.09.015-.187.063-.288a.519.519 0 01.235-.24.402.402 0 01.159-.053.49.49 0 01.188.01c.12.028.201.09.269.148.134.12.216.246.298.375.154.255.26.51.36.76.193.5.323.976.429 1.385.105.409.168.755.216.995.048.241.062.38.062.38l.034.25-.173-.187H7.16zm-5.155-1.539s-.577-.486-1.404.226c0 0 .409.885 1.447.462 1.04-.424 1.04-1.342 2.39-1.29 0 0-.61-.6-1.433-.355-.841.25-1.005.957-1.005.957m9.036-5.001c-.038-.774-.942-.442-1.11.457-.126.654-.107.894-.107.894s1.255-.577 1.217-1.356" fill="#2768B1"/><path d="M8.482 24.072s.799-1.866 2.607-2.087c-.664-.524-1.376-.226-1.376-.226-.09-.341-.831-.659-1.192-.067 0 0-.15-.404-.745-.409-.597 0-.876.548-.876.548s1.568.37 1.582 2.241z" fill="#2768B1"/><path d="M9.531 23.572c.058-.014.12-.029.187-.043l.207-.03c.135-.014.265-.033.4-.071.13-.039.264-.092.355-.169a.249.249 0 00.087-.115c.01-.034 0-.038-.02-.067-.038-.058-.177-.106-.307-.101-.135 0-.274.024-.404.067a2.148 2.148 0 00-.673.366 1.62 1.62 0 00-.226.211 1.487 1.487 0 00-.12.15 3.2 3.2 0 01.51-.188m-.679.14a2.125 2.125 0 01.38-.463 2.53 2.53 0 01.716-.452c.145-.057.308-.105.486-.115.087 0 .183 0 .28.024a.541.541 0 01.283.164.38.38 0 01.067.375.536.536 0 01-.202.25c-.159.11-.322.158-.476.187a2.484 2.484 0 01-.447.048c-.063 0-.125.01-.188.015-.062.01-.12.019-.173.029-.226.043-.409.11-.534.158a2.431 2.431 0 00-.192.082l-.192.096.12-.245c.02-.034.038-.087.077-.15m2.029 4.449c-.356.673.02 1.587.02 1.587-.462-.524-.905-.904-.775-1.953.135-1.048 1.395-.841.755.366z" fill="#2768B1"/><path d="M14.72 18.355V30.02l10.103 5.833V12.517l-10.104 5.838z" fill="#E30613"/><path d="M34.93 18.355l-10.107-5.838v23.336L34.93 30.02V18.355z" fill="#AE0F0A"/><path d="M30.583 22.067h-3.64v-3.64h-4.236v3.64h-3.645v4.236h3.645v3.645h4.236v-3.645h3.64v-4.236z" fill="#fff"/><path d="M14.739 0L6.785 4.592v9.18l4.506 2.602 3.448-1.991V0z" fill="#EDEDED"/><path d="M22.688 4.592L14.738 0v14.383l7.95-4.592V4.592z" fill="#C6C6C6"/><path d="M12.743 2.014c-.226-.514-.88-.22-.77.625.116.856.097 1.482.097 1.482s.971-1.424.673-2.102M9.848 7.496a.527.527 0 10-.386-.981.527.527 0 00.386.981zm2.832 5.906a.527.527 0 10-.385-.982.527.527 0 00.386.982zM8.69 8.227a.481.481 0 10.9-.351.481.481 0 00-.627-.274.481.481 0 00-.274.625zm3.24 6.415a.48.48 0 00.625.274.48.48 0 00.274-.625.48.48 0 00-.625-.274.48.48 0 00-.274.625zM13.729 1.37a.48.48 0 00.625.274.48.48 0 00.274-.625.48.48 0 00-.625-.274.48.48 0 00-.274.625zM8.454 8.607a.39.39 0 00-.221.51.39.39 0 00.51.221.39.39 0 00.22-.51.39.39 0 00-.51-.22zm4.688 4.857a.39.39 0 00-.221.51.39.39 0 00.51.221.39.39 0 00.22-.51.39.39 0 00-.509-.22zm.788-7.477a.39.39 0 00-.22.51.39.39 0 00.51.22.39.39 0 00.22-.51.39.39 0 00-.51-.22zm-4.692 8.03a.39.39 0 00-.222.51.39.39 0 00.51.221.39.39 0 00.221-.51.39.39 0 00-.51-.22zM7.593 9.762c.067.177.27.269.452.197a.346.346 0 00.197-.452.346.346 0 10-.644.255m5.756 3.092a.346.346 0 00.452.197.346.346 0 00.197-.452.346.346 0 10-.645.255m.65-4.544a.346.346 0 00.452.196.346.346 0 00.197-.452.346.346 0 10-.644.255m-7.117 1.856a.307.307 0 00.39.174.306.306 0 00.172-.39.31.31 0 00-.394-.173.306.306 0 00-.173.39m3.01 5.02c.063.153.236.23.39.173a.306.306 0 00.173-.39.31.31 0 00-.395-.173.306.306 0 00-.173.39m4.044-1.4a.26.26 0 00.332.15.26.26 0 00.15-.332.253.253 0 00-.333-.145.253.253 0 00-.144.332M13.09 1.515a.26.26 0 00.331.149.26.26 0 00.15-.332.253.253 0 00-.333-.144.253.253 0 00-.144.331" fill="#F6F6F6"/><path d="M10.973 6.117c-.173-.707-.649-1.308-1.394-1.559-.76-.254-1.736-.226-2.289.635-.615.967.048 2.092.673 2.155.823.081 1.332-.654 1.174-1.28-.164-.625-.616-.764-.616-.764 1.308-.067 1.87.976 2.005 1.664.135.687-.158 1.635-.707 1.962-.51.307-.23.577-.1.73-.02.02-.034.039-.053.058-.034.039-.073.077-.106.116-.058-.154-.193-.424-.467-.318-.375.15-.678.553-1.221 1.126-.606.644-.11.428-.78 1.11.054-.019.111-.038.164-.062.193-.096.385-.188.582-.284.101-.043.193-.096.28-.159l.268-.178c.178-.115.366-.226.52-.37l.48-.409c.15-.144.28-.302.419-.447.067-.072.135-.149.202-.22.072-.083.12-.16.178-.237.082-.105.154-.22.226-.336.447-.582.894-1.553.563-2.934zm-.933 4.236c-1.71 1.553-3.072 1.817-3.072 1.817s.86.649 2.164.22c1.303-.427 1.726-2.067 1.726-2.067s.25.385.841.154c.592-.226 1.212-.9 1.212-.9s.097.414.462.568c.27.115.688.01.774.385.072.308-.178.452-.178.452-.014-.231-.226-.245-.413-.159-.188.087-.284.539.207.61.49.068.903-.576.764-1.216-.274-1.27-2.496-1.668-4.486.14m1.211-5.395a16.884 16.884 0 01-.072-.25c-.033-.086-.067-.173-.1-.264a3.168 3.168 0 01-.183-.52c-.044-.177-.072-.37-.039-.533a.363.363 0 01.077-.178c.034-.034.048-.024.091-.024.097.005.24.134.327.293.092.159.154.341.193.524a3.074 3.074 0 01.024 1.034 2.702 2.702 0 01-.096.409 1.603 1.603 0 01-.097.235 5.004 5.004 0 00-.12-.726m.289.89a2.46 2.46 0 00.154-.317c.053-.125.1-.275.134-.438a3.44 3.44 0 00.077-.543 3.769 3.769 0 00-.024-.606 1.995 1.995 0 00-.192-.65 1.283 1.283 0 00-.212-.312.747.747 0 00-.38-.226.502.502 0 00-.485.173.716.716 0 00-.159.404c-.024.26.029.486.096.688.068.202.159.394.245.557.039.077.073.154.111.231.029.077.058.154.087.226.096.294.149.553.173.736.024.183.033.284.033.284l.02.293.206-.308c.03-.043.077-.106.12-.192m1.438 1.972c-.173.01-.355.057-.529.125a3.562 3.562 0 00-.485.25 3.06 3.06 0 00-.385.293 2.311 2.311 0 00-.284.303c-.033.043-.057.087-.086.125a4.59 4.59 0 01.582-.264c.081-.025.163-.053.25-.082.091-.02.182-.044.278-.068.178-.033.352-.076.525-.139.168-.063.341-.15.447-.26.053-.053.086-.11.086-.14 0-.033-.01-.018-.019-.042-.033-.058-.216-.116-.385-.097m.91.27a.761.761 0 01-.265.38c-.212.173-.433.25-.645.312a3.827 3.827 0 01-.605.106c-.087.01-.169.024-.246.034-.081.019-.158.038-.23.053a4.36 4.36 0 00-.89.355l-.067.039-.299.163.154-.384c.02-.048.044-.125.092-.212a2.987 2.987 0 01.466-.673 3.321 3.321 0 01.928-.702 2.29 2.29 0 01.659-.217c.125-.014.255-.024.394 0a.781.781 0 01.423.202.55.55 0 01.14.549M9.454 4.27c.596-.024 1.116.548 1.116.548-.217-.505-.332-.942-1.12-1.207-.79-.26-1.068.702 0 .66" fill="#F6F6F6"/><path d="M12.411 6.497c-.803.504-1.038 1.005-1.125 1.61 0 0 .645-.755 1.318-.894 1.207-.25.61-1.221-.188-.716m1.924 2.37c-.505-.188-.813-.115-1.116.053 0 0 .563.029.86.279.534.457.76-.15.255-.337m-2.086-3.597c.202-.495.442-1.067.735-1.659.15-.293.313-.591.5-.856a1.49 1.49 0 01.303-.332.268.268 0 01.125-.062h.024s.015.005.005 0l.044.024c.052.029.086.086.081.221 0 .13-.048.284-.1.433a5.58 5.58 0 01-.443.88 19.492 19.492 0 01-1.015 1.495c-.255.347-.48.645-.663.876.105-.275.24-.62.399-1.02m-.669 1.702s.13-.125.351-.35c.217-.227.534-.549.885-.962a13.78 13.78 0 001.13-1.481 5.63 5.63 0 00.515-.957 2 2 0 00.144-.602c0-.115 0-.245-.058-.375a.65.65 0 00-.283-.327.804.804 0 00-.077-.043c-.048-.02-.077-.029-.12-.043a.58.58 0 00-.24-.005.846.846 0 00-.357.168c-.182.14-.298.298-.409.452a6.353 6.353 0 00-.519.943 15.366 15.366 0 00-.659 1.74c-.168.515-.274.953-.355 1.256-.077.307-.116.485-.116.485l-.062.318.235-.221-.005.004zm-3.236 5.997s2.453.86 2.89 3.155c.61-.89.173-1.775.173-1.775.428-.149.774-1.12-.014-1.534 0 0 .505-.226.457-.99-.049-.765-.78-1.068-.78-1.068s-.336 2.034-2.726 2.212zm-.51.755c-.096-.697-.865-1.183-.865-1.183.63.144 1.163.192 1.63 1.053.466.86-.596 1.385-.765.13zM7.55 8.367C7.564 8.944 7 9.434 7 9.434c.49-.197.919-.307 1.183-1.062.265-.755-.658-1.044-.634-.01m5.617 3.035c-.702-.654-1.25-.75-1.87-.683 0 0 .904.432 1.216 1.058.563 1.115 1.351.278.654-.37m.702-6.045s.385.158.702-.351c0 0-.36-.4-.836-.005-.476.394-.327.875-1.049 1.072 0 0 .419.217.813-.048.4-.27.37-.668.37-.668zm.39 1.678c-.53-.144-.827-.048-1.12.154 0 0 .572-.024.89.207.576.413.754-.217.23-.361z" fill="#F6F6F6"/></svg>