<svg width="306" height="135" fill="none" xmlns="http://www.w3.org/2000/svg"><path d="M0 114.116l35.605 20.558 35.604-20.558v-.069l-.069.042-38.787-22.39v-.084L.069 72.974l-.069.04v41.102z" fill="#0081C9"/><path d="M14.232 99.924c-1.846-1.323-1.763-3.513-.068-3.114 1.805.441 3.637 3.968 5.222 4.837 0 0-3.307-.4-5.153-1.723zm18.782 27.323s-2.315 1.654-5.208-1.254c0 0 1.805-3.21 5.566-1.322 3.776 1.887 3.514 5.332 8.612 5.525 0 0-2.466 2.081-5.484.937-3.086-1.171-3.5-3.886-3.5-3.886" fill="#4195D1"/><path d="M28.756 128.446c-1.778 1.089.179 2.784 2.507 2.026 1.695-.551 2.246-.91 2.246-.91s-2.976-2.204-4.753-1.116zM3.569 113.22c-1.337 0-2.44-1.088-2.44-2.425a2.432 2.432 0 012.44-2.425 2.42 2.42 0 012.425 2.425 2.428 2.428 0 01-2.425 2.425zm6.199 1.186a2.217 2.217 0 01-2.219 2.218 2.217 2.217 0 01-2.218-2.218c0-1.227.992-2.219 2.218-2.219 1.227 0 2.219.992 2.219 2.219zm1.667 1.24c.992 0 1.805.813 1.805 1.805s-.813 1.805-1.805 1.805a1.811 1.811 0 01-1.805-1.805c0-.992.813-1.805 1.805-1.805zm5.637 3.513a1.6 1.6 0 01-3.197 0 1.6 1.6 0 013.197 0zm3.665.579c0 .771-.62 1.391-1.391 1.391-.772 0-1.392-.62-1.392-1.391 0-.772.62-1.392 1.392-1.392.771 0 1.391.62 1.391 1.392zm3.06-.055c0 .661-.538 1.185-1.185 1.185a1.194 1.194 0 01-1.185-1.185c0-.648.537-1.185 1.185-1.185.647 0 1.185.537 1.185 1.185zm34.404-3.817c.124-.234.248-.468.386-.716.11-.262.234-.538.344-.813a10.13 10.13 0 01.73-1.557c.29-.496.662-.978 1.075-1.282.207-.151.428-.234.565-.22.138 0 .166.055.262.138.207.22.234.84.083 1.364-.138.551-.4 1.088-.73 1.584-.331.51-.676.924-1.075 1.351-.372.372-.758.73-1.144 1.006a8.06 8.06 0 01-1.102.702c-.262.138-.51.235-.73.317.372-.454.854-1.074 1.322-1.887m-1.309 2.618c.29-.083.648-.193 1.034-.372a8.23 8.23 0 001.267-.676c.455-.275.896-.62 1.364-1.033a11.52 11.52 0 001.282-1.392c.4-.537.772-1.143 1.006-1.86.11-.358.206-.744.206-1.157 0-.414-.055-.882-.358-1.337-.275-.468-.937-.758-1.46-.675-.538.055-.924.303-1.24.551-.62.524-.992 1.144-1.296 1.75-.303.606-.51 1.226-.675 1.778-.082.261-.179.509-.262.744-.11.234-.206.468-.303.689a13.676 13.676 0 01-1.226 2.011c-.344.469-.551.703-.551.703l-.606.689 1.13-.234c.165-.042.399-.069.688-.166M2.425 83.334c.137-.22.275-.44.427-.675.165-.22.344-.454.523-.689.359-.44.69-.882.979-1.377.275-.497.523-1.048.565-1.544.027-.248 0-.468-.083-.592-.069-.124-.124-.11-.248-.152-.29-.069-.827.207-1.213.593-.4.386-.744.882-1.005 1.391-.276.524-.455 1.034-.634 1.571-.138.496-.262 1.006-.303 1.474-.056.469-.07.896-.056 1.282 0 .29.042.551.083.785.207-.537.51-1.254.965-2.053M.826 85.732a6.202 6.202 0 01-.179-1.075 9.18 9.18 0 01-.041-1.405 8.484 8.484 0 01.234-1.667c.138-.538.317-1.172.579-1.764a6.366 6.366 0 011.102-1.764 3.69 3.69 0 01.896-.744c.358-.207.785-.386 1.309-.344.537.013 1.102.427 1.295.923.207.482.193.937.138 1.323-.138.785-.496 1.405-.855 1.956a11.866 11.866 0 01-1.185 1.447c-.179.193-.344.4-.51.579-.151.206-.289.4-.44.592a13.547 13.547 0 00-1.13 2.026c-.234.523-.33.813-.33.813l-.304.854-.344-1.075c-.042-.151-.138-.372-.193-.675m45.512 27.544c-.22 2.37-2.756 4.133-2.756 4.133 2.108-.578 3.913-.826 5.36-3.803 1.447-2.976-2.218-4.588-2.604-.33zm19.057 3.568c-2.894 2.384-5.057 2.646-7.455 2.233 0 0 3.638-1.489 4.988-3.845 2.44-4.23 5.347-.785 2.453 1.599m-8.008-8.516c.758 2.632.303 4.148-.675 5.622 0 0 .069-2.866-1.116-4.451-2.108-2.866 1.033-3.803 1.777-1.171" fill="#4195D1"/><path d="M47.702 120.096c-5.194.372-7.468 3.142-6.448 5.87 1.02 2.728 3.968 1.833 3.968 1.833s-2.797 1.708-4.74-1.254c-1.584-2.425.703-6.504 2.907-7.937 2.536-1.653 4.23-.923 4.23-.923 2.026-3.803 5.016-2.081 5.016-2.081-1.226-3.706 1.957-4.533 1.957-4.533 4.657 6.38-1.695 8.667-6.904 9.039" fill="#4195D1"/><path d="M49.865 120.51c4.727.22 7.207-1.144 7.207-1.144s-.51 2.149-3.128 3.169c-2.604 1.02-5.415-1.02-5.415-1.02s.11.924-1.116 1.337c-1.226.413-3.087.165-3.087.165s.386.772 0 1.502c-.275.538-1.074.91-.716 1.612.29.579.868.483.868.483-.276-.386.041-.676.44-.786.414-.11 1.158.483.47 1.227-.69.744-2.178.261-2.798-.924-1.226-2.356 1.75-5.883 7.248-5.621m-26.924 3.334c.358-.262.8-.469 1.24-.606.455-.152.882-.221 1.364-.29.414-.041.84-.069 1.226-.027.386.014.73.069 1.048.138.137.027.248.068.372.11-.427.082-.965.206-1.571.413-.207.083-.413.152-.62.234-.207.111-.427.207-.648.317a8.403 8.403 0 01-1.254.565c-.44.152-.909.248-1.295.207-.193-.014-.344-.083-.4-.138-.055-.055 0-.041-.04-.11-.028-.165.234-.565.592-.813m-1.35 1.984c.385.262.785.317 1.13.331.688 0 1.253-.207 1.763-.427.51-.221.965-.51 1.364-.772.193-.11.372-.22.537-.331.193-.096.372-.179.538-.261.716-.317 1.35-.51 1.805-.621a23.453 23.453 0 01.716-.165l.855-.165-.924-.51c-.123-.055-.289-.179-.523-.276-.234-.11-.51-.22-.854-.317a7.657 7.657 0 00-1.144-.248c-.427-.068-.896-.082-1.405-.082a8.154 8.154 0 00-1.544.193c-.537.124-1.102.303-1.64.633-.261.166-.537.359-.771.634-.234.276-.455.607-.51 1.075-.082.469.207 1.061.607 1.295M50.623 106.4c-1.874-.124-2.535-.344-2.535-.344s1.805-2.949 3.9-2.301c2.094.661 1.198 2.824-1.379 2.645M29.363 92.704c-.234-2.191 2.439-1.64 3.293.799.62 1.778.675 2.466.675 2.466s-3.747-1.074-3.982-3.265M4.907 95.225a2.068 2.068 0 01-.758-2.81 2.068 2.068 0 012.81-.758 2.068 2.068 0 01.759 2.81 2.056 2.056 0 01-2.811.758zm4.049 3.487a1.888 1.888 0 01-2.576.689 1.888 1.888 0 01-.69-2.577 1.888 1.888 0 012.577-.689 1.888 1.888 0 01.69 2.577zm.69 1.612c.73.427.978 1.364.564 2.094a1.548 1.548 0 01-2.094.565 1.547 1.547 0 01-.565-2.094 1.547 1.547 0 012.095-.565zm2.646 4.96a1.365 1.365 0 01-1.86.496 1.351 1.351 0 01-.496-1.846 1.363 1.363 0 011.86-.496c.647.372.868 1.198.496 1.846zm2.438 1.97a1.176 1.176 0 01-1.612.428 1.176 1.176 0 01-.427-1.613 1.176 1.176 0 011.612-.427c.565.331.758 1.047.427 1.612zm2.26 1.254a1.01 1.01 0 01-1.378.372 1.01 1.01 0 01-.372-1.377 1.01 1.01 0 011.378-.372c.482.275.647.895.372 1.377zm35.273 1.695a1.369 1.369 0 01-.675-1.309 9.308 9.308 0 00-.979-.248c-.027.11-.04.221-.11.317a1.314 1.314 0 01-1.805.482c-.372-.206-.579-.578-.634-.978-.413.028-.854.055-1.281.152a.13.13 0 00-.069.013 1.201 1.201 0 01-.151.51c-.331.565-1.061.772-1.626.441a1.065 1.065 0 01-.317-.289c-.386.179-.786.358-1.144.579.055.248.028.509-.11.744a1.02 1.02 0 01-1.406.372c-.014 0-.027-.028-.041-.042-.317.29-.661.551-.95.841.137.275.165.606 0 .882a.925.925 0 01-1.144.385c-.097.111-.207.235-.29.345-.193.275-.372.523-.565.785a.803.803 0 01.042.841.816.816 0 01-.868.372c-.276.455-.483.868-.676 1.157-.275.469-.427.744-.427.744a.204.204 0 01-.29.097c-.11-.055-.137-.193-.082-.29l.427-.771c.193-.303.386-.717.648-1.185a.769.769 0 01-.11-.923c.193-.331.592-.455.95-.345.18-.262.359-.523.552-.799.082-.124.193-.234.289-.344a.954.954 0 01-.055-.993.932.932 0 011.226-.358c.303-.303.648-.579.979-.882-.124-.289-.138-.633.027-.923a1.02 1.02 0 011.406-.372c.055.041.096.097.151.138.386-.248.813-.455 1.226-.648a1.22 1.22 0 01.124-.758c.331-.564 1.061-.771 1.626-.44.193.11.331.289.428.468a.193.193 0 00.082-.028c.524-.124 1.034-.165 1.516-.206.014-.042.014-.083.041-.124a1.307 1.307 0 012.384.248c.482.082.91.193 1.267.289.414-.551 1.172-.744 1.792-.386.661.386.895 1.227.51 1.902a1.397 1.397 0 01-1.902.51m-15.309-1.627s2.316-7.964-2.81-13.351c3.445.069 4.933 2.852 4.933 2.852 1.185-.827 4.34.069 3.94 2.88 0 0 1.53-.882 3.418.661 1.887 1.543 1.322 3.996 1.322 3.996s-5.897-2.907-10.802 2.962z" fill="#4195D1"/><path d="M29.487 116.583c.289.055.565.11.84.151.262.069.524.152.772.221a13.1 13.1 0 012.521.992c.303.151.579.317.813.455v-.896c-.923-1.516-3.059-4.561-6.049-5.925-4.092-1.86-4.891 1.984-2.135 1.502 0 0 1.598.565.799 1.323-.193.179-.772.344-1.488.303.813.317.923.992.813 1.502.44.027.895.069 1.322.096.634.028 1.24.138 1.805.248M3.693 104.278c-.22-.33-.441-.647-.648-.978-.22-.358-.358-.675-.551-1.02-.262-.454-.469-.95-.662-1.433-1.377-2.507-2.535-6.53-.427-11.656 1.089-2.632 3.28-4.672 6.297-5.195 3.073-.537 6.835.151 8.447 3.789 1.805 4.106-1.42 8.047-3.872 7.91-3.21-.18-4.754-3.322-3.762-5.623.992-2.315 2.811-2.576 2.811-2.576-5.015-1.034-7.799 2.659-8.708 5.25-.923 2.576-.358 6.393 1.57 7.991 1.778 1.488.552 2.37-.054 2.894.055.082.11.165.179.261.11.166.234.345.344.51.303-.565.992-1.515 1.984-.95 1.364.785 1.93 2.824 4.051 5.07 2.108 2.246 4.465 1.791 4.906 2.15.854.689.275 2.08-.125 2.921.207.11.414.206.62.317.028 0 .056.013.07.027-.207-1.626 1.79-2.769 2.342-1.929.606.923 3.596 2.494 5.939 2.522h.082c-1.06-.331-2.19-1.13-2.824-2.811-.882-2.329-.248-4.285-.248-4.285-8.35-1.737-9.907-7.689-9.907-7.689 2.383 1.736 4.56 2.425 13.324 5.98 6.31 2.549 8.79 6.683 9.686 8.805.028-.538.042-1.089.07-1.626-.786-1.53-2.757-4.947-5.306-6.573 0 0-2.094.248-3.596-1.281-1.502-1.516-2.108-2.77-3.018-3.652 6.945 2.191 10.596 7.675 11.974 10.252v-.193c-.468-2.783-1.226-4.258-1.226-4.258-2.866-1.253-4.354-4.106-5.03-5.993-1.019-2.866-2.604-4.079-2.604-4.079 5.388 2.218 7.84 7.441 8.874 10.555a25.904 25.904 0 00-.317-2.921 17.271 17.271 0 00-1.998-5.526c-.937-1.64-2.218-3.114-3.693-4.12-.757-.482-1.529-.881-2.356-1.116a7.57 7.57 0 00-2.466-.261 7.844 7.844 0 00-2.287.564c-.676.317-1.364.758-1.833 1.213-.496.482-.84 1.02-.95 1.585-.125.564.027 1.116.302 1.543.317.427.675.702 1.172.813.385.096.84.055 1.13-.124.62-.359.578-1.006.427-1.364-.166-.373-.345-.552-.331-.552-.11-.124-.097-.316.027-.413a.288.288 0 01.414.028c-.014.013.206.192.468.688.11.249.235.607.193 1.048-.055.44-.33.937-.799 1.24-.482.303-1.075.399-1.75.262-.565-.097-1.254-.496-1.68-1.075-.428-.593-.704-1.406-.566-2.246.124-.827.579-1.612 1.171-2.205.634-.633 1.296-1.074 2.122-1.502l.124-.04-.165-.042a5.315 5.315 0 01-1.915-1.075c-.634-.551-1.13-1.42-1.282-2.329a3.58 3.58 0 010-1.433c.11-.496.4-1.02.84-1.35.442-.33.951-.468 1.42-.468.468 0 .91.124 1.268.344a2.149 2.149 0 011.033 1.722c0 .248 0 .428-.041.538a7.729 7.729 0 01-.042.179.683.683 0 01-.799.523.694.694 0 01-.523-.799c-.028 0 .165-.606-.386-.91-.276-.164-.772-.192-1.047.042-.138.11-.248.276-.331.51-.069.234-.069.537-.028.868.083.62.386 1.185.8 1.626.413.455.936.785 1.419 1.047.468.248.895.414 1.198.524.359-.097.73-.18 1.103-.22.95-.097 1.943 0 2.921.22.978.234 1.915.675 2.797 1.212 1.736 1.158 3.128 2.742 4.216 4.616 1.048 1.764 1.82 3.858 2.219 5.939.413 2.094.455 4.23.372 6.283 0 .193-.028.386-.041.579a8.9 8.9 0 01.606-.689c.454-.496.992-.951 1.557-1.392 1.116-.868 2.37-1.515 3.32-1.943.951-.427 1.64-.62 1.64-.62a.297.297 0 01.358.193.279.279 0 01-.193.358s-.633.207-1.543.648c-.91.441-2.08 1.13-3.1 1.984-.51.427-.992.882-1.392 1.364-.206.235-.4.455-.55.689-.166.235-.331.441-.442.662-.124.206-.234.399-.344.578-.014.042-.028.056-.042.097a100.05 100.05 0 00-.192 3.417c-.07 1.888 0 3.706.385 5.332.042.18.11.345.152.524.29-1.97 1.653-4.23 4.34-6.269 2.453-1.861 2.853-3.004 2.853-3.004 1.556 2.563-2.866 5.828-4.175 8.198-.896 1.612-.993 3.693-.965 4.864.882 1.061 1.915 1.819 2.935 2.177 1.088.386 2.136.331 2.949.152a7.178 7.178 0 001.846-.703c.413-.22.592-.372.592-.358a.296.296 0 01.4.027c.11.124.096.317-.028.414 0 0-.206.193-.633.468a7.459 7.459 0 01-1.985.923c-.909.262-2.135.4-3.444.014-1.323-.358-2.618-1.281-3.68-2.508a15.7 15.7 0 01-.785-.992c-.22-.33-.454-.661-.675-1.074a10.2 10.2 0 01-.579-1.24c-.95-.869-2.535-2.012-4.133-1.847-2.522.262-5.622.097-5.732-3.114.22.841 2.935 1.061 5.332 1.034 1.488-.014 2.963.923 3.886 1.639a13.251 13.251 0 01-.234-1.653c-.29-.207-.73-.524-1.35-.841a12.35 12.35 0 00-2.33-.937c-.234-.069-.468-.151-.73-.22-.261-.055-.523-.097-.785-.152-.537-.11-1.102-.234-1.709-.248-.62-.055-1.267-.11-1.929-.165-.66-.069-1.35-.138-2.066-.207-.359-.041-.717-.055-1.075-.124-.358-.082-.73-.165-1.116-.248-.744-.179-1.516-.344-2.288-.537-.744-.276-1.488-.551-2.26-.841-.371-.151-.77-.261-1.143-.454-.358-.193-.73-.386-1.102-.579-.73-.4-1.502-.73-2.191-1.199-.689-.482-1.378-.951-2.08-1.433a5.953 5.953 0 01-.979-.785l-.937-.841c-.62-.565-1.268-1.088-1.791-1.75l-1.612-1.86c-.483-.647-.91-1.336-1.35-1.984M8.35 83.004c-2.287-.441-4.63 1.46-4.63 1.46 1.13-1.818 1.847-3.444 5.03-3.995 3.197-.538 3.707 3.334-.4 2.535z" fill="#4195D1"/><path d="M32.353 54.33L.07 72.973l32.284 18.642V54.33z" fill="#0056A4"/><path d="M19.498 63.755c.91-1.116 2.315.041 1.474 2.053-.854 2.039-1.226 3.582-1.226 3.582s-1.447-4.16-.262-5.635m4.822 14.04a1.196 1.196 0 01-.58-1.57c.276-.593.98-.841 1.572-.58.592.276.84.98.578 1.572-.275.592-.978.84-1.57.564m4.52-7.041a1.196 1.196 0 01-.579-1.57c.276-.593.979-.84 1.571-.579.593.276.84.978.579 1.57a1.178 1.178 0 01-1.57.566m-2.027 8.86a1.084 1.084 0 01-1.433.523 1.084 1.084 0 01-.524-1.433 1.084 1.084 0 011.433-.523c.538.248.772.895.524 1.433zm-9.826 1.074a1.084 1.084 0 01-1.433.524 1.084 1.084 0 01-.523-1.433 1.084 1.084 0 011.433-.524c.537.248.771.896.523 1.433zm10.294-.193a.881.881 0 11-.744 1.599.881.881 0 01.744-1.599zm.152-22.404a.881.881 0 11-.743 1.598.881.881 0 01.743-1.598zM7.813 74.24a.881.881 0 11-.744 1.598.881.881 0 01.744-1.598zm21.027 9.177a.77.77 0 01-1.034.372.781.781 0 01-.372-1.033.781.781 0 011.034-.372.78.78 0 01.372 1.033zm-2.95-23.011a.77.77 0 01-1.034.372.781.781 0 01-.372-1.033.781.781 0 011.034-.372c.386.179.55.648.372 1.033z" fill="#2768B1"/><path d="M28.536 77.713c-1.847.055-2.88-1.653-2.44-3.017.456-1.364 1.475-1.612 1.475-1.612-2.907-.345-4.313 1.915-4.712 3.43-.4 1.516.124 3.666 1.295 4.479 1.089.757.427 1.322.11 1.653.042.041.07.096.11.138.07.082.152.179.221.275.152-.344.496-.923 1.089-.647.813.385 1.24 1.515 2.562 2.687 1.323 1.17 2.646.799 2.908.978.523.358.262 1.171.069 1.667.027 0 .041.014.069.028-.042.165-.07.33-.097.496-.138-.055-.276-.11-.427-.18-.427-.192-.896-.344-1.309-.578-.413-.234-.84-.482-1.254-.717a3.542 3.542 0 01-.606-.4l-.579-.426c-.386-.29-.785-.552-1.102-.91-.345-.33-.675-.661-1.02-.978-.317-.344-.578-.716-.868-1.061a7.899 7.899 0 00-.427-.524c-.152-.192-.234-.372-.358-.55a8.959 8.959 0 01-.455-.786c-.91-1.364-1.777-3.596-.84-6.628.482-1.557 1.625-2.824 3.334-3.28 1.736-.468 3.913-.26 5.015 1.737 1.24 2.246-.4 4.657-1.805 4.712m-8.666-.372c2.288 5.442 5.154 7.51 5.154 7.51s-2.687.578-5.25-1.82c-2.563-2.397-1.764-6.64-1.764-6.64s-.992.62-2.108-.552c-1.116-1.157-1.846-3.39-1.846-3.39s-.675.855-1.681.827c-.758-.014-1.598-.716-2.205.055-.496.634-.082 1.24-.082 1.24.289-.523.785-.33 1.13.083.33.4.082 1.557-1.13 1.185-1.213-.372-1.475-2.315-.469-3.638 1.998-2.645 7.578-1.185 10.238 5.154m1.723-5.416c.068-.179.137-.358.192-.55.083-.18.18-.373.262-.58.193-.358.358-.73.482-1.13.125-.399.207-.826.166-1.184-.014-.18-.083-.331-.152-.4-.069-.083-.11-.069-.206-.069-.22 0-.565.276-.772.606-.234.331-.386.73-.496 1.144-.11.413-.165.8-.207 1.213a7.187 7.187 0 000 1.088c.028.345.083.648.152.923.055.207.124.386.179.551.069-.413.165-.964.372-1.612m-.772 1.943a4.234 4.234 0 01-.289-.73 5.792 5.792 0 01-.248-.992 6.711 6.711 0 01-.096-1.227c0-.399.04-.881.137-1.35.097-.468.248-.95.524-1.419.138-.234.29-.469.524-.661.22-.193.495-.386.881-.441.386-.07.855.138 1.061.454.22.317.276.634.29.924.013.578-.138 1.074-.317 1.515-.18.441-.414.855-.62 1.213-.097.165-.193.33-.276.496-.083.165-.152.33-.22.496-.262.647-.4 1.212-.496 1.612-.083.4-.11.634-.11.634l-.083.647-.414-.716c-.055-.11-.151-.248-.248-.441" fill="#2768B1"/><path d="M11.878 78.112c.317.138.689.22 1.06.234.373.028.717 0 1.09-.041.33-.055.66-.11.95-.22.29-.083.551-.207.772-.317.096-.042.179-.11.262-.152-.345.014-.772.028-1.282-.014-.165-.027-.344-.041-.524-.069-.179-.041-.358-.082-.55-.124a5.761 5.761 0 00-1.062-.206c-.358-.028-.744-.014-1.033.096-.138.055-.248.138-.276.193-.027.055 0 .041 0 .096 0 .138.29.414.607.538M10.5 76.789a1.51 1.51 0 01.8-.482c.523-.138.991-.083 1.418 0 .428.083.827.22 1.172.344.165.056.316.11.468.166.165.041.317.069.468.11.607.11 1.13.138 1.489.138h.578l.675-.042-.606.593c-.082.069-.193.193-.344.317a5.19 5.19 0 01-.593.427 4.777 4.777 0 01-.84.427 6.39 6.39 0 01-1.061.345c-.359.069-.786.151-1.213.151-.44 0-.895-.027-1.364-.179a2.427 2.427 0 01-.703-.358 1.57 1.57 0 01-.578-.772c-.138-.372-.028-.895.234-1.171m15.156-6.159c-1.323-.138-2.563 1.061-2.563 1.061.55-1.088.882-2.053 2.673-2.535 1.791-.469 2.273 1.722-.097 1.46m2.495 17.981c1.364.786 2.273.745 3.238.4 0 0-1.612-.358-2.343-1.24-1.309-1.585-2.273.055-.909.84M12.415 67.282c1.847 1.089 2.412 2.205 2.66 3.569 0 0-1.516-1.668-3.045-1.93-2.756-.482-1.475-2.714.386-1.639zm6.847 5.181c-.385-1.13-.84-2.453-1.405-3.803-.29-.675-.62-1.364-.992-1.984-.193-.303-.413-.593-.634-.786-.11-.096-.207-.151-.262-.151H15.9c-.055.013-.11.041-.096.041-.124.069-.207.18-.22.482 0 .29.068.634.165.978.22.69.523 1.378.854 2.026.675 1.309 1.42 2.48 2.053 3.486a76.86 76.86 0 001.35 2.04c-.192-.62-.454-1.42-.744-2.33zm1.254 3.885s-.275-.289-.73-.826c-.455-.538-1.116-1.31-1.833-2.274-.73-.964-1.557-2.122-2.314-3.458-.372-.676-.744-1.392-1.006-2.205-.124-.413-.235-.84-.235-1.364 0-.262.042-.538.18-.827.137-.29.385-.551.675-.689a.774.774 0 01.179-.082 1.403 1.403 0 01.813-.041c.344.082.578.261.771.426.386.345.62.703.855 1.075.44.73.744 1.46 1.033 2.177.551 1.433.923 2.797 1.226 3.968.304 1.172.483 2.164.62 2.853.138.689.18 1.088.18 1.088l.096.717-.496-.538h-.014zM5.744 71.94s-1.653-1.392-4.023.647c0 0 1.17 2.535 4.147 1.323 2.976-1.213 2.976-3.845 6.848-3.693 0 0-1.75-1.722-4.106-1.02-2.411.717-2.88 2.742-2.88 2.742M31.622 57.61c-.11-2.219-2.7-1.268-3.183 1.308-.358 1.874-.303 2.563-.303 2.563s3.596-1.653 3.486-3.885" fill="#2768B1"/><path d="M24.306 68.977s2.287-5.346 7.468-5.98c-1.902-1.502-3.94-.648-3.94-.648-.263-.978-2.385-1.887-3.418-.192 0 0-.427-1.158-2.136-1.172-1.708 0-2.508 1.571-2.508 1.571s4.492 1.061 4.534 6.421z" fill="#2768B1"/><path d="M27.325 67.544c.166-.041.345-.083.538-.124.192-.028.385-.055.592-.083a6.662 6.662 0 001.144-.207c.372-.11.758-.261 1.02-.482a.714.714 0 00.247-.33c.028-.097 0-.11-.055-.193-.11-.166-.51-.303-.882-.29-.385 0-.785.07-1.157.193a6.19 6.19 0 00-1.075.469 6.671 6.671 0 00-.854.578 4.64 4.64 0 00-.648.607 4.21 4.21 0 00-.344.427 9.332 9.332 0 011.46-.538m-1.942.4c.11-.18.248-.386.427-.62.179-.22.4-.469.661-.703a5.64 5.64 0 01.923-.703c.33-.206.717-.427 1.13-.592a4.39 4.39 0 011.392-.33c.248 0 .523 0 .799.068.276.07.565.193.813.469.248.261.33.744.193 1.075-.124.344-.358.55-.579.716-.455.317-.923.455-1.364.537a7.09 7.09 0 01-1.281.138c-.18 0-.359.028-.538.041-.179.028-.344.056-.496.083a8.748 8.748 0 00-1.53.455c-.358.138-.55.234-.55.234l-.552.276.345-.703c.055-.097.11-.248.22-.427m5.813 12.745c-1.02 1.93.055 4.547.055 4.547-1.323-1.502-2.59-2.59-2.218-5.594.386-3.004 3.996-2.412 2.163 1.047z" fill="#2768B1"/><path d="M42.179 52.594V86.02l28.963 16.714V35.866L42.179 52.594z" fill="#E30613"/><path d="M100.09 52.594L71.14 35.866v66.869l28.95-16.714V52.594z" fill="#AE0F0A"/><path d="M87.646 63.23H77.202V52.8h-12.14v10.43h-10.43v12.154h10.43v10.43h12.14v-10.43h10.444V63.23zM42.233 0L19.456 13.159v26.304l12.897 7.454 9.88-5.705V0z" fill="#fff"/><path d="M65.022 13.159L42.232 0v41.212l22.79-13.158V13.159z" fill="#C6C6C6"/><path d="M36.514 5.773c-.648-1.474-2.522-.634-2.205 1.791.33 2.453.276 4.244.276 4.244s2.783-4.078 1.929-6.021m-8.281 15.708a1.51 1.51 0 00-1.102-2.811 1.516 1.516 0 00-.855 1.957 1.516 1.516 0 001.957.854zm8.103 16.906a1.51 1.51 0 00-1.103-2.81 1.516 1.516 0 00-.854 1.956 1.516 1.516 0 001.957.854zM24.9 23.576a1.378 1.378 0 001.79.785 1.378 1.378 0 00.786-1.791 1.378 1.378 0 00-1.791-.785 1.378 1.378 0 00-.785 1.79zm9.3 18.38a1.378 1.378 0 001.79.786 1.378 1.378 0 00.786-1.791 1.378 1.378 0 00-1.791-.786 1.378 1.378 0 00-.786 1.791zm5.153-38.029a1.378 1.378 0 001.79.785 1.378 1.378 0 00.786-1.791 1.378 1.378 0 00-1.791-.786 1.378 1.378 0 00-.785 1.792zm-15.13 20.737c-.579.22-.868.882-.634 1.46.22.58.882.869 1.46.635.58-.22.869-.882.635-1.461a1.118 1.118 0 00-1.46-.634zM37.672 38.58a1.118 1.118 0 00-.633 1.461c.22.579.881.868 1.46.634.579-.22.868-.882.634-1.46a1.118 1.118 0 00-1.46-.634zm2.244-21.425c-.578.22-.868.881-.633 1.46.22.579.881.868 1.46.634.579-.22.868-.882.634-1.46a1.118 1.118 0 00-1.46-.634zM26.47 40.165c-.579.22-.868.882-.634 1.46.22.58.882.869 1.46.634.58-.22.869-.881.635-1.46a1.118 1.118 0 00-1.46-.634zm-4.713-12.194a.991.991 0 001.296.565.991.991 0 00.564-1.295.993.993 0 10-1.846.73m16.508 8.873a.992.992 0 001.295.566.992.992 0 00.565-1.296.993.993 0 10-1.846.73m1.844-13.021a.992.992 0 001.295.566.992.992 0 00.565-1.296.993.993 0 10-1.846.73m-20.393 5.305a.876.876 0 001.116.496.877.877 0 00.496-1.116.887.887 0 00-1.13-.496.877.877 0 00-.496 1.116m8.639 14.385a.877.877 0 001.116.496.877.877 0 00.496-1.116.887.887 0 00-1.13-.496.877.877 0 00-.496 1.116m11.576-4.009a.744.744 0 00.95.427.744.744 0 00.428-.95.726.726 0 00-.95-.414.726.726 0 00-.414.95M37.52 4.34a.744.744 0 00.951.427.744.744 0 00.427-.95.726.726 0 00-.95-.414.726.726 0 00-.414.95" fill="#EDEDED"/><path d="M31.444 17.527c-.497-2.026-1.86-3.748-3.996-4.465-2.178-.73-4.975-.647-6.56 1.82-1.763 2.769.139 5.993 1.93 6.172 2.356.234 3.817-1.874 3.362-3.665-.468-1.791-1.764-2.19-1.764-2.19 3.748-.194 5.36 2.796 5.746 4.767.386 1.97-.455 4.684-2.025 5.621-1.461.882-.662 1.654-.29 2.095-.055.055-.096.11-.151.165-.097.11-.207.22-.304.33-.165-.44-.55-1.212-1.336-.909-1.075.427-1.943 1.585-3.5 3.225-1.736 1.846-.317 1.226-2.232 3.183.151-.056.317-.11.468-.18.552-.275 1.103-.537 1.668-.813.289-.124.55-.275.799-.454l.771-.51c.51-.33 1.048-.648 1.489-1.061.468-.4.923-.786 1.377-1.171.428-.414.8-.868 1.2-1.282.192-.206.385-.427.578-.633.207-.235.344-.455.51-.676.234-.303.44-.634.647-.964 1.282-1.667 2.563-4.45 1.613-8.405zm-2.66 12.139c-4.905 4.45-8.804 5.208-8.804 5.208s2.466 1.86 6.2.634 4.947-5.925 4.947-5.925.716 1.102 2.41.44c1.696-.647 3.473-2.576 3.473-2.576s.276 1.185 1.323 1.626c.772.33 1.97.028 2.218 1.102.207.882-.51 1.296-.51 1.296-.04-.662-.647-.703-1.184-.455-.538.248-.813 1.543.592 1.75 1.405.193 2.59-1.654 2.19-3.486-.785-3.638-7.15-4.781-12.855.4m3.472-15.46a47.282 47.282 0 01-.206-.717 43.883 43.883 0 01-.29-.758c-.207-.482-.4-.964-.523-1.488-.124-.51-.207-1.06-.11-1.53.04-.233.137-.426.22-.509.096-.096.138-.069.262-.069.275.014.689.386.937.84.261.455.44.979.55 1.503.111.537.152 1.047.166 1.57 0 .483-.028.965-.096 1.392a7.733 7.733 0 01-.276 1.171 4.57 4.57 0 01-.276.675 14.334 14.334 0 00-.344-2.08m.827 2.549c.137-.248.303-.551.44-.91a6.75 6.75 0 00.386-1.253c.11-.469.18-.979.22-1.557.015-.524.015-1.13-.068-1.736-.083-.607-.234-1.24-.551-1.86a3.671 3.671 0 00-.606-.896c-.262-.276-.607-.538-1.089-.648-.482-.124-1.102.11-1.392.496-.317.372-.413.786-.454 1.158-.07.744.082 1.391.275 1.97s.455 1.13.703 1.598c.11.22.207.441.317.662.083.22.165.44.248.647.276.84.427 1.585.496 2.108.069.524.096.813.096.813l.056.84.592-.881c.083-.124.22-.303.345-.551m4.121 5.649c-.496.028-1.02.165-1.516.358-.496.207-.937.441-1.392.717a8.9 8.9 0 00-1.102.84c-.33.29-.592.593-.813.868-.096.124-.165.248-.248.359.441-.235.992-.51 1.667-.758.235-.07.469-.152.717-.235.262-.055.523-.123.8-.192a9.664 9.664 0 001.501-.4c.482-.18.978-.427 1.281-.744.152-.152.248-.317.248-.4 0-.096-.027-.055-.055-.124-.096-.165-.62-.33-1.102-.275m2.604.771c-.151.51-.455.84-.758 1.089-.606.496-1.24.716-1.846.896a11 11 0 01-1.736.303c-.248.027-.482.069-.703.096-.234.055-.455.11-.661.152-.855.234-1.544.523-2.012.744-.234.11-.413.206-.537.275l-.193.11-.855.47.441-1.103c.055-.138.124-.358.262-.607.124-.247.29-.564.51-.881.22-.331.496-.69.827-1.047.33-.359.716-.717 1.171-1.075a9.504 9.504 0 011.488-.937 6.47 6.47 0 011.888-.62c.358-.042.73-.07 1.13 0 .385.069.826.206 1.212.578.4.359.579 1.061.4 1.571M27.088 12.236c1.708-.07 3.196 1.57 3.196 1.57-.62-1.446-.95-2.7-3.21-3.458-2.26-.744-3.059 2.011 0 1.887" fill="#EDEDED"/><path d="M35.562 18.615c-2.3 1.447-2.976 2.88-3.224 4.616 0 0 1.846-2.163 3.775-2.563 3.459-.716 1.75-3.5-.537-2.053m5.511 6.793c-1.447-.537-2.328-.33-3.196.152 0 0 1.612.082 2.466.799 1.53 1.309 2.177-.427.73-.965M35.11 15.088c.579-1.42 1.268-3.06 2.108-4.754.427-.84.896-1.695 1.433-2.453.262-.372.565-.73.868-.95.138-.11.29-.18.358-.18h.07s.04.014.013 0c.055.028.124.07.124.07.152.082.248.247.234.633 0 .372-.137.813-.289 1.24-.33.868-.785 1.723-1.268 2.522-.964 1.612-2.011 3.059-2.907 4.285a93.24 93.24 0 01-1.901 2.508c.303-.786.688-1.778 1.143-2.921m-1.915 4.877s.372-.358 1.006-1.006c.62-.647 1.53-1.57 2.535-2.755 1.02-1.185 2.163-2.59 3.238-4.244.538-.84 1.061-1.709 1.474-2.742.193-.51.373-1.061.414-1.723 0-.33 0-.702-.166-1.074a1.86 1.86 0 00-.813-.937 2.257 2.257 0 00-.22-.124 5.286 5.286 0 00-.344-.124 1.664 1.664 0 00-.69-.014c-.44.083-.757.29-1.019.482-.524.4-.854.855-1.171 1.295-.62.896-1.075 1.82-1.488 2.701a44.013 44.013 0 00-1.888 4.988c-.482 1.474-.785 2.728-1.02 3.596-.22.882-.33 1.392-.33 1.392l-.18.91.676-.634-.014.013zm-9.274 17.196s7.027 2.467 8.281 9.04c1.75-2.55.496-5.085.496-5.085 1.227-.427 2.219-3.21-.041-4.395 0 0 1.447-.648 1.309-2.839-.138-2.19-2.232-3.059-2.232-3.059s-.965 5.829-7.813 6.338zm-1.46 2.149c-.276-1.997-2.48-3.389-2.48-3.389 1.805.414 3.334.551 4.67 3.018 1.337 2.466-1.708 3.968-2.19.372zm-.815-15.335c.042 1.654-1.57 3.06-1.57 3.06 1.405-.566 2.631-.883 3.39-3.046.757-2.163-1.889-2.99-1.82-.027m16.095 8.694c-2.012-1.874-3.582-2.15-5.36-1.957 0 0 2.59 1.24 3.486 3.031 1.612 3.197 3.872.8 1.874-1.06m2.013-17.32s1.102.454 2.01-1.006c0 0-1.032-1.144-2.397-.014-1.364 1.13-.937 2.508-3.003 3.073 0 0 1.198.62 2.328-.138 1.144-.772 1.061-1.915 1.061-1.915zm1.114 4.809c-1.516-.414-2.37-.138-3.21.44 0 0 1.64-.068 2.549.593 1.653 1.185 2.163-.62.661-1.033z" fill="#EDEDED"/><path d="M125.112 53.09v14.344h-3.321V61.55h-6.517v5.884h-3.335V53.09h3.335v5.65h6.517v-5.65h3.321zm12.264 8.75l-2.274-5.498-2.273 5.497h4.547zm1.047 2.52h-6.669l-1.268 3.073h-3.403l6.393-14.357h3.28l6.421 14.357h-3.486l-1.268-3.072zm21.715.373v5.732h-3.059v-3.031h-11.987V53.09h3.293v11.643h6.393V53.09h3.307v11.643h2.053zm2.192-11.643h3.307v9.342l6.848-9.342h3.114v14.344h-3.279v-9.328l-6.848 9.328h-3.142V53.09zm28.177 7.165c0-2.729-1.929-4.589-4.492-4.589-2.563 0-4.492 1.86-4.492 4.589 0 2.728 1.929 4.588 4.492 4.588 2.563 0 4.492-1.86 4.492-4.588zm-12.346 0c0-4.258 3.321-7.413 7.854-7.413 4.533 0 7.854 3.141 7.854 7.413 0 4.271-3.348 7.426-7.854 7.426s-7.854-3.155-7.854-7.426zm31.43-7.165v14.344h-3.32V61.55h-6.518v5.884h-3.32V53.09h3.32v5.65h6.518v-5.65h3.32zm12.262 8.75l-2.273-5.498-2.274 5.497h4.547zm1.048 2.52h-6.669l-1.268 3.073h-3.403l6.393-14.357h3.279l6.421 14.357h-3.486l-1.267-3.072zm19.592-11.27v14.343h-3.28V55.79h-4.919l-.096 2.99c-.179 5.636-.979 8.874-4.341 8.874-.496 0-1.019-.083-1.639-.22l.206-2.811c.207.069.386.082.593.082 1.681 0 2.108-2.136 2.26-5.8l.206-5.83h11.023l-.013.015zm12.637 9.41c0-1.57-1.02-2.231-2.742-2.231h-2.99v4.712h2.99c1.708 0 2.742-.854 2.742-2.48zm3.348-.054c0 3.307-2.218 5.002-5.911 5.002h-6.476V53.104h3.307v4.712h3.651c3.459 0 5.429 1.543 5.429 4.63zm15.556-9.356v14.344h-3.321V61.55h-6.517v5.884h-3.335V53.09h3.335v5.65h6.517v-5.65h3.321zm14.922 7.165c0-2.729-1.929-4.589-4.492-4.589-2.563 0-4.492 1.86-4.492 4.589 0 2.728 1.929 4.588 4.492 4.588 2.563 0 4.492-1.86 4.492-4.588zm-12.346 0c0-4.258 3.321-7.413 7.854-7.413 4.534 0 7.854 3.141 7.854 7.413 0 4.271-3.348 7.426-7.854 7.426-4.505 0-7.854-3.155-7.854-7.426zM306 64.774v2.66h-11.105V53.09h10.843v2.66h-7.55v3.113h6.669v2.59h-6.669v3.321H306zM120.109 81.309c0 2.26-2.26 3.582-4.753 3.582-1.585 0-3.266-.537-4.534-1.695l.372-.647c1.13 1.047 2.632 1.53 4.051 1.53 2.081 0 3.941-1.048 3.941-2.894 0-1.599-1.295-2.494-3.527-2.494h-2.563v-.786h2.535c1.902 0 3.031-.854 3.031-2.314 0-1.654-1.584-2.618-3.513-2.618-1.158 0-2.439.344-3.583 1.088l-.344-.772a7.535 7.535 0 013.941-1.143c2.411 0 4.423 1.24 4.423 3.334 0 1.378-.827 2.384-2.177 2.784 1.694.372 2.714 1.501 2.714 3.03m3.597 2.688h8.198v-10.83h-6.379l-.111 3.348c-.124 3.403-.441 6.614-1.708 7.482zm11.037 0v3.665h-.869v-2.852H122.48v2.852h-.896v-3.665h.689c1.777-.138 2.191-3.486 2.315-7.551l.124-4.106h8.102v11.657h1.943zm11.478-7.441c0-2.15-1.42-3.39-4.093-3.39h-3.568v6.752h3.568c2.673 0 4.093-1.226 4.093-3.362zm.923 0c0 2.618-1.888 4.189-5.029 4.189h-3.569v4.078h-.91v-12.47h4.479c3.141 0 5.029 1.571 5.029 4.203zm9.838 3.996l-3.279-7.192-3.266 7.192h6.545zm.345.772h-7.234l-1.585 3.514h-.978l5.732-12.47h.909l5.732 12.47h-.978l-1.598-3.514zm14.068.124c0-1.805-1.226-2.59-3.527-2.59h-4.479v5.18h4.479c2.301 0 3.527-.827 3.527-2.604m-8.006-3.334h4.093c2.067 0 3.238-.855 3.238-2.494 0-1.64-1.171-2.508-3.238-2.508h-4.093v5.002zm8.915 3.39c0 2.121-1.474 3.32-4.45 3.32h-5.36v-12.47h5.029c2.563 0 4.148 1.088 4.148 3.17 0 1.501-.841 2.452-2.164 2.879 1.847.317 2.797 1.378 2.797 3.1zm14.441-2.908c0-3.156-2.384-5.484-5.553-5.484s-5.581 2.328-5.581 5.484c0 3.155 2.384 5.484 5.581 5.484 3.196 0 5.553-2.329 5.553-5.484zm-12.043 0c0-3.61 2.756-6.325 6.49-6.325 3.734 0 6.489 2.687 6.489 6.325 0 3.637-2.783 6.324-6.489 6.324-3.707 0-6.49-2.714-6.49-6.324zm27.241 0c0-3.156-2.384-5.484-5.553-5.484s-5.581 2.328-5.581 5.484c0 3.155 2.384 5.484 5.581 5.484 3.197 0 5.553-2.329 5.553-5.484zm-12.043 0c0-3.61 2.756-6.325 6.49-6.325 3.734 0 6.49 2.687 6.49 6.325 0 3.637-2.784 6.324-6.49 6.324-3.707 0-6.49-2.714-6.49-6.324zm15.529-6.228l3.748 5.25 3.789-5.25h1.089l-4.299 5.993 4.63 6.477h-1.089l-4.12-5.705-4.078 5.704h-1.061l4.588-6.448-4.271-6.021h1.074zm19.828 4.202c0-2.15-1.419-3.39-4.093-3.39h-3.568v6.752h3.568c2.674 0 4.093-1.226 4.093-3.362zm.923 0c0 2.618-1.888 4.189-5.029 4.189h-3.569v4.078h-.909v-12.47h4.478c3.141 0 5.029 1.571 5.029 4.203zm9.837 3.996l-3.279-7.192-3.266 7.192h6.545zm.345.772h-7.234l-1.585 3.514h-.978l5.732-12.47h.909l5.732 12.47h-.978l-1.598-3.514zm15.322-8.97v12.47h-.909v-5.94h-8.337v5.94h-.909v-12.47h.909v5.732h8.337v-5.732h.909zm13.088 11.643v.826h-8.598v-12.47h8.337v.814h-7.427v4.919h6.641v.799h-6.641v5.112h7.688zm13.189-11.643v12.47h-.909v-5.94h-8.336v5.94h-.91v-12.47h.91v5.732h8.336v-5.732h.909zm4.492 0h.909v10.94l8.502-10.94h.799v12.47h-.909V73.881l-8.502 10.926h-.799v-12.47zm23.312 11.643v.826h-8.612v-12.47h8.336v.814h-7.427v4.919h6.642v.799h-6.642v5.112h7.703z" fill="#fff"/></svg>