<svg width="211" height="93" fill="none" xmlns="http://www.w3.org/2000/svg"><path d="M0 78.523L24.5 92.67l24.499-14.146v-.047l-.048.028-26.69-15.407v-.057L.048 50.212 0 50.241v28.282z" fill="#0081C9"/><path d="M9.794 68.757c-1.27-.91-1.213-2.417-.047-2.142 1.242.303 2.503 2.73 3.593 3.328 0 0-2.275-.275-3.546-1.186zm12.923 18.802s-1.593 1.137-3.584-.863c0 0 1.242-2.21 3.83-.91 2.598 1.299 2.418 3.669 5.926 3.802 0 0-1.697 1.431-3.773.644-2.124-.806-2.409-2.673-2.409-2.673" fill="#4195D1"/><path d="M19.787 88.383c-1.223.75.123 1.916 1.726 1.394 1.166-.38 1.545-.626 1.545-.626s-2.048-1.517-3.27-.768zM2.456 77.907a1.68 1.68 0 01-1.678-1.669c0-.92.749-1.669 1.678-1.669.929 0 1.668.75 1.668 1.669 0 .92-.749 1.669-1.668 1.669zm4.266.815a1.525 1.525 0 11-3.053 0 1.525 1.525 0 113.053 0zm1.148.854c.682 0 1.241.559 1.241 1.242 0 .682-.559 1.242-1.242 1.242-.682 0-1.242-.56-1.242-1.242 0-.683.56-1.242 1.242-1.242zm3.877 2.417a1.1 1.1 0 11-2.201-.002 1.1 1.1 0 012.201.002zm2.523.398a.955.955 0 01-.958.958.955.955 0 01-.958-.958c0-.53.427-.957.958-.957.53 0 .957.426.957.957zm2.104-.038a.815.815 0 11-1.63 0 .815.815 0 011.63 0zm23.674-2.626c.086-.161.171-.322.266-.493.076-.18.161-.37.237-.56.142-.369.294-.72.502-1.07.2-.342.456-.674.74-.882.142-.105.294-.161.389-.152.094 0 .113.038.18.095.142.151.161.578.057.938-.095.38-.275.75-.503 1.09a6.337 6.337 0 01-.74.93 6.528 6.528 0 01-.786.692c-.266.2-.522.36-.759.484-.18.094-.35.16-.502.218.256-.313.588-.74.91-1.3m-.9 1.802c.198-.057.445-.133.71-.256.266-.114.57-.265.873-.465a6.62 6.62 0 00.938-.71c.285-.266.607-.598.882-.958.275-.37.53-.787.692-1.28.076-.247.142-.512.142-.796 0-.285-.038-.607-.246-.92-.19-.323-.645-.522-1.005-.465-.37.038-.636.209-.854.38-.426.36-.682.786-.89 1.204-.21.417-.352.843-.465 1.223-.057.18-.124.35-.18.512-.076.16-.143.322-.21.474a9.445 9.445 0 01-.843 1.384c-.237.322-.38.483-.38.483l-.416.475.777-.162c.114-.028.275-.047.474-.113M1.669 57.342c.094-.151.19-.303.293-.464.114-.152.238-.313.36-.474.247-.304.475-.607.674-.949.19-.34.36-.72.389-1.061.019-.171 0-.323-.057-.408-.048-.085-.086-.076-.17-.104-.2-.048-.57.142-.835.407a3.693 3.693 0 00-.692.958c-.19.36-.313.71-.436 1.08a5.85 5.85 0 00-.21 1.015 5.774 5.774 0 00-.037.882c0 .199.028.38.057.54.142-.37.35-.862.664-1.412m-1.1 1.64a4.267 4.267 0 01-.123-.74 6.318 6.318 0 01-.029-.967c.01-.36.066-.73.161-1.147a7.85 7.85 0 01.398-1.213 4.38 4.38 0 01.759-1.214c.17-.19.37-.37.616-.512.247-.142.54-.266.9-.237.37.01.76.294.892.635.142.332.133.645.095.91-.095.54-.341.967-.588 1.347a8.19 8.19 0 01-.815.995c-.123.133-.237.275-.351.398-.104.143-.2.275-.303.408a9.322 9.322 0 00-.778 1.394c-.161.36-.227.56-.227.56l-.209.587-.237-.74c-.03-.104-.095-.256-.133-.464m31.317 18.953c-.152 1.63-1.897 2.844-1.897 2.844 1.451-.398 2.693-.569 3.689-2.617.995-2.048-1.527-3.157-1.792-.227zM45.026 80.4c-1.99 1.64-3.48 1.82-5.129 1.536 0 0 2.503-1.024 3.432-2.645 1.678-2.91 3.679-.54 1.688 1.1m-5.509-5.859c.521 1.81.209 2.853-.465 3.868 0 0 .048-1.972-.767-3.063-1.451-1.972.71-2.616 1.223-.805" fill="#4195D1"/><path d="M32.824 82.638c-3.574.256-5.139 2.162-4.437 4.039.701 1.877 2.73 1.261 2.73 1.261s-1.924 1.176-3.261-.863c-1.09-1.669.483-4.475 2-5.46 1.745-1.139 2.911-.636 2.911-.636 1.394-2.617 3.451-1.432 3.451-1.432-.844-2.55 1.347-3.12 1.347-3.12 3.204 4.39-1.167 5.964-4.75 6.22" fill="#4195D1"/><path d="M34.312 82.922c3.252.152 4.959-.787 4.959-.787s-.35 1.48-2.152 2.181c-1.792.702-3.726-.702-3.726-.702s.075.636-.768.92c-.844.285-2.124.114-2.124.114s.265.53 0 1.033c-.19.37-.74.626-.493 1.11.199.398.597.332.597.332-.19-.266.029-.465.303-.54.285-.077.797.33.323.843-.474.512-1.498.18-1.925-.635-.844-1.622 1.204-4.049 4.987-3.869m-18.526 2.295c.247-.18.55-.323.854-.417.313-.105.606-.152.938-.2a4.21 4.21 0 01.844-.018c.266.009.503.047.72.094.095.02.171.048.257.076a8.08 8.08 0 00-1.081.285c-.142.056-.285.104-.427.16-.142.077-.294.143-.445.219a5.86 5.86 0 01-.863.389c-.304.104-.626.17-.892.142a.479.479 0 01-.274-.095c-.038-.038 0-.029-.029-.076-.019-.114.161-.389.408-.56m-.93 1.366c.266.18.541.218.778.228.474 0 .863-.143 1.214-.294a6.32 6.32 0 00.938-.531c.133-.076.256-.152.37-.228.133-.066.256-.123.37-.18.493-.218.929-.35 1.242-.427.152-.038.275-.066.36-.085.085-.019.133-.028.133-.028l.588-.114-.636-.351c-.085-.038-.199-.123-.36-.19a3.697 3.697 0 00-.588-.218 5.151 5.151 0 00-.787-.17 6.162 6.162 0 00-.967-.057 5.57 5.57 0 00-1.061.133c-.37.085-.759.208-1.129.436-.18.113-.37.246-.53.436-.162.19-.314.417-.352.74-.056.322.143.73.418.89m19.986-13.358c-1.29-.086-1.745-.237-1.745-.237s1.242-2.03 2.683-1.584c1.442.455.825 1.944-.948 1.82m-14.62-9.423c-.16-1.508 1.679-1.129 2.266.55.427 1.222.465 1.696.465 1.696s-2.579-.74-2.74-2.247m-16.82 1.736a1.423 1.423 0 01-.521-1.935 1.423 1.423 0 011.934-.521c.673.389.91 1.26.521 1.934a1.415 1.415 0 01-1.934.522zm2.788 2.398a1.3 1.3 0 01-1.773.474 1.3 1.3 0 01-.474-1.773 1.3 1.3 0 011.773-.474 1.3 1.3 0 01.474 1.773zm.474 1.11c.502.293.673.938.389 1.44a1.065 1.065 0 01-1.442.39 1.065 1.065 0 01-.388-1.442 1.065 1.065 0 011.44-.388zm1.82 3.413a.939.939 0 01-1.28.34.93.93 0 01-.341-1.27.939.939 0 011.28-.34.93.93 0 01.341 1.27zm1.678 1.355a.808.808 0 01-1.109.294.809.809 0 01-.294-1.109.809.809 0 011.11-.294.81.81 0 01.293 1.11zm1.555.863a.696.696 0 01-.948.256.696.696 0 01-.256-.948.696.696 0 01.948-.256c.332.19.446.617.256.948zm24.272 1.166a.942.942 0 01-.464-.9 6.28 6.28 0 00-.673-.171c-.02.076-.029.152-.076.218a.904.904 0 01-1.242.332.888.888 0 01-.436-.673c-.285.019-.588.038-.882.104-.02 0-.029 0-.048.01a.828.828 0 01-.104.35.823.823 0 01-1.119.304.73.73 0 01-.218-.2c-.265.124-.54.247-.787.399.038.17.02.35-.076.512a.702.702 0 01-.967.256c-.01 0-.019-.02-.028-.029-.218.2-.455.38-.654.579.095.19.114.417 0 .606a.637.637 0 01-.787.266c-.067.076-.142.161-.2.237-.132.19-.255.36-.388.54.114.171.133.39.028.579a.561.561 0 01-.597.256c-.19.313-.332.597-.465.796-.19.323-.293.512-.293.512a.14.14 0 01-.2.067c-.075-.038-.094-.133-.056-.2 0 0 .104-.19.294-.53.132-.21.265-.493.445-.816a.53.53 0 01-.076-.635.559.559 0 01.654-.237c.124-.18.247-.36.38-.55.057-.085.133-.161.199-.237a.655.655 0 01-.038-.683.641.641 0 01.844-.246c.208-.209.445-.398.673-.607a.714.714 0 01.019-.635.702.702 0 01.967-.256c.038.028.066.066.104.095.266-.171.56-.313.844-.446a.84.84 0 01.085-.522.823.823 0 011.12-.303c.132.076.227.2.293.323.02 0 .038-.01.057-.02.36-.085.711-.113 1.043-.142.01-.028.01-.057.028-.085a.902.902 0 011.242-.332.9.9 0 01.399.503c.332.056.625.132.872.199a.946.946 0 011.233-.266.958.958 0 01-.958 1.66m-10.534-1.12s1.593-5.48-1.934-9.187c2.37.048 3.394 1.963 3.394 1.963.816-.569 2.987.047 2.712 1.981 0 0 1.052-.606 2.351.456 1.299 1.061.91 2.75.91 2.75s-4.058-2.002-7.433 2.037z" fill="#4195D1"/><path d="M20.29 80.22c.199.038.389.076.578.105.18.047.36.104.531.151.692.19 1.27.446 1.735.683.209.104.398.218.56.313v-.616c-.636-1.043-2.105-3.139-4.163-4.077-2.816-1.28-3.366 1.365-1.47 1.033 0 0 1.1.389.55.91-.132.124-.53.237-1.023.209.559.218.635.683.559 1.033.303.02.616.048.91.067.436.019.854.095 1.242.17M2.541 71.754c-.152-.228-.303-.446-.446-.673-.151-.247-.246-.465-.379-.702a7.717 7.717 0 01-.455-.986c-.948-1.726-1.745-4.494-.294-8.021.75-1.811 2.257-3.214 4.333-3.575 2.114-.37 4.703.105 5.812 2.608 1.242 2.825-.977 5.537-2.664 5.442-2.21-.123-3.271-2.285-2.589-3.868.683-1.593 1.935-1.773 1.935-1.773-3.452-.711-5.367 1.83-5.993 3.612-.635 1.773-.246 4.4 1.081 5.5 1.223 1.023.38 1.63-.038 1.99.038.057.076.114.124.18.075.114.16.237.237.351.208-.389.682-1.043 1.365-.654.939.54 1.327 1.944 2.787 3.489 1.451 1.545 3.072 1.232 3.376 1.479.588.474.19 1.432-.086 2.01.143.076.285.142.427.218.019 0 .038.01.047.019-.142-1.119 1.233-1.906 1.612-1.327.417.635 2.475 1.716 4.087 1.735h.056c-.73-.228-1.507-.778-1.943-1.934-.607-1.603-.17-2.95-.17-2.95-5.746-1.194-6.818-5.29-6.818-5.29 1.64 1.195 3.139 1.67 9.169 4.115 4.342 1.754 6.049 4.599 6.665 6.059.019-.37.028-.75.047-1.119-.54-1.052-1.896-3.404-3.65-4.523 0 0-1.441.171-2.475-.881-1.033-1.043-1.45-1.906-2.076-2.513 4.779 1.508 7.291 5.281 8.24 7.054v-.133c-.323-1.915-.845-2.93-.845-2.93-1.972-.862-2.996-2.825-3.46-4.124-.702-1.972-1.792-2.806-1.792-2.806 3.707 1.526 5.395 5.12 6.106 7.263a17.853 17.853 0 00-.218-2.01 11.887 11.887 0 00-1.375-3.802c-.645-1.129-1.527-2.143-2.541-2.835-.522-.332-1.053-.607-1.621-.768a5.212 5.212 0 00-1.698-.18c-.559.047-1.08.19-1.573.388-.465.218-.94.522-1.261.835-.342.331-.579.701-.655 1.09-.085.389.02.768.209 1.062.218.294.464.483.806.56.265.066.578.037.777-.086.427-.246.399-.692.294-.939-.114-.256-.237-.379-.227-.379-.076-.085-.067-.218.019-.284a.198.198 0 01.284.019c-.01.01.142.132.322.474.076.17.162.417.133.72a1.234 1.234 0 01-.55.854c-.332.208-.74.275-1.204.18-.389-.067-.863-.342-1.157-.74-.293-.407-.483-.967-.388-1.545.085-.57.398-1.11.806-1.517.436-.436.89-.74 1.46-1.034l.085-.028-.114-.029a3.656 3.656 0 01-1.318-.74 2.798 2.798 0 01-.881-1.601 2.464 2.464 0 010-.986c.075-.342.275-.702.578-.93.303-.227.654-.322.976-.322.323 0 .626.085.873.237a1.478 1.478 0 01.71 1.185c0 .17 0 .294-.027.37l-.029.123a.47.47 0 01-.55.36.478.478 0 01-.36-.55c-.02 0 .114-.417-.266-.625-.19-.114-.53-.133-.72.028a.753.753 0 00-.228.351c-.047.161-.047.37-.019.597.057.427.266.816.55 1.12.285.312.645.54.977.72.322.17.616.284.825.36a5.13 5.13 0 01.758-.152c.654-.066 1.337 0 2.01.152.673.161 1.318.465 1.925.834 1.194.797 2.152 1.887 2.901 3.177.72 1.213 1.252 2.654 1.526 4.086.285 1.441.313 2.91.256 4.323 0 .133-.018.266-.028.399.123-.162.266-.313.417-.474a8.75 8.75 0 011.072-.958c.768-.597 1.63-1.043 2.285-1.337a8.959 8.959 0 011.128-.427.204.204 0 01.246.133.192.192 0 01-.132.247s-.436.142-1.062.445c-.626.304-1.432.778-2.134 1.366-.35.293-.682.606-.957.938a4.153 4.153 0 00-.38.474c-.113.161-.227.304-.303.455-.085.143-.161.275-.237.399-.01.028-.019.037-.028.066a68.862 68.862 0 00-.133 2.351c-.047 1.3 0 2.55.266 3.67.028.123.075.237.104.36.199-1.356 1.137-2.91 2.986-4.314 1.688-1.28 1.963-2.067 1.963-2.067 1.071 1.763-1.972 4.01-2.873 5.641-.616 1.11-.683 2.541-.664 3.347.607.73 1.318 1.252 2.02 1.498.749.266 1.47.228 2.029.104a4.95 4.95 0 001.27-.483c.285-.152.408-.256.408-.247a.204.204 0 01.275.02.197.197 0 01-.019.284s-.142.133-.436.322c-.294.19-.73.446-1.365.635a4.25 4.25 0 01-2.37.01c-.91-.247-1.802-.882-2.532-1.726a10.74 10.74 0 01-.54-.682c-.152-.228-.313-.456-.465-.74a6.974 6.974 0 01-.398-.853c-.655-.597-1.745-1.385-2.845-1.27-1.735.18-3.868.066-3.944-2.143.152.578 2.02.73 3.67.71 1.023-.009 2.038.636 2.673 1.129a9.128 9.128 0 01-.161-1.138c-.2-.142-.503-.36-.93-.578a8.502 8.502 0 00-1.602-.645c-.16-.047-.322-.104-.502-.152-.18-.037-.36-.066-.54-.104-.37-.076-.759-.161-1.176-.17a234.21 234.21 0 00-1.328-.114c-.455-.048-.929-.095-1.422-.142-.246-.029-.493-.038-.74-.086a50.058 50.058 0 00-.767-.17c-.512-.124-1.043-.238-1.574-.37-.512-.19-1.024-.38-1.555-.579-.256-.104-.531-.18-.787-.313a64.917 64.917 0 00-.758-.398c-.503-.275-1.034-.502-1.508-.825-.474-.331-.948-.654-1.432-.986a4.104 4.104 0 01-.673-.54l-.645-.578c-.426-.39-.872-.75-1.232-1.204l-1.11-1.28c-.331-.446-.625-.92-.929-1.366m3.195-14.648C4.172 56.81 2.56 58.12 2.56 58.12c.777-1.252 1.27-2.37 3.46-2.75 2.2-.37 2.55 2.294-.275 1.745z" fill="#4195D1"/><path d="M22.262 37.384L.047 50.212 22.262 63.04V37.384z" fill="#0056A4"/><path d="M13.416 43.87c.626-.768 1.593.028 1.014 1.412-.588 1.403-.843 2.465-.843 2.465s-.996-2.863-.18-3.877m3.318 9.66a.823.823 0 01-.398-1.08.823.823 0 011.08-.398c.408.19.579.673.399 1.08a.811.811 0 01-1.081.39m3.109-4.846a.823.823 0 01-.398-1.08.823.823 0 011.081-.399c.408.19.579.673.398 1.081a.811.811 0 01-1.08.389m-1.394 6.096a.746.746 0 01-.986.36.746.746 0 01-.36-.985.746.746 0 01.986-.36c.37.17.53.616.36.985zm-6.761.74a.746.746 0 01-.985.36.746.746 0 01-.36-.986c.17-.37.616-.53.985-.36.37.17.531.616.36.986zm7.083-.133a.606.606 0 11-.512 1.1.606.606 0 01.512-1.1zm.105-15.416a.606.606 0 11-.512 1.1.606.606 0 01.512-1.1zM5.376 51.085a.606.606 0 11-.512 1.1.606.606 0 01.512-1.1zm14.468 6.314a.53.53 0 01-.71.256.538.538 0 01-.257-.711.538.538 0 01.711-.256c.266.123.38.445.256.711zm-2.029-15.834a.53.53 0 01-.711.256.538.538 0 01-.256-.71.537.537 0 01.711-.257c.265.123.38.446.256.711z" fill="#2768B1"/><path d="M19.635 53.474c-1.27.038-1.981-1.138-1.678-2.076.313-.939 1.015-1.11 1.015-1.11-2-.237-2.968 1.318-3.243 2.361-.275 1.043.086 2.522.891 3.081.75.522.294.91.076 1.138.029.029.048.067.076.095.048.057.104.123.152.19.104-.237.341-.636.749-.446.56.266.853 1.043 1.763 1.849.91.806 1.82.55 2 .673.361.247.181.806.048 1.147.02 0 .029.01.048.02-.029.113-.048.227-.067.34a6.648 6.648 0 01-.294-.123c-.293-.132-.616-.237-.9-.398-.285-.161-.579-.332-.863-.493a2.44 2.44 0 01-.417-.275l-.398-.294c-.266-.199-.54-.379-.759-.625-.237-.228-.465-.456-.702-.674-.218-.237-.398-.493-.597-.73a5.394 5.394 0 00-.294-.36c-.104-.133-.161-.256-.246-.38a6.12 6.12 0 01-.313-.54c-.626-.938-1.223-2.474-.579-4.56.332-1.072 1.12-1.944 2.295-2.257 1.195-.322 2.692-.18 3.451 1.195.853 1.545-.275 3.205-1.242 3.242m-5.964-.256c1.574 3.745 3.546 5.168 3.546 5.168s-1.848.398-3.612-1.252c-1.763-1.65-1.213-4.57-1.213-4.57s-.683.427-1.451-.38c-.768-.795-1.27-2.331-1.27-2.331s-.465.587-1.157.568c-.522-.01-1.1-.493-1.517.038-.342.437-.057.854-.057.854.199-.36.54-.228.777.056.228.276.057 1.072-.777.816-.835-.256-1.015-1.593-.323-2.503 1.375-1.82 5.215-.816 7.045 3.546m1.186-3.726c.047-.124.094-.247.132-.38.057-.123.123-.256.18-.398a4.36 4.36 0 00.332-.777c.085-.275.142-.57.114-.816a.465.465 0 00-.105-.275c-.047-.056-.075-.047-.142-.047-.151 0-.388.19-.53.417a2.449 2.449 0 00-.342.787 5.13 5.13 0 00-.142.834 4.95 4.95 0 000 .75c.019.236.057.445.104.635.038.142.085.265.123.379a7.71 7.71 0 01.256-1.11m-.53 1.337a2.912 2.912 0 01-.2-.502 3.988 3.988 0 01-.17-.683 4.618 4.618 0 01-.067-.843c0-.275.029-.607.095-.93a3.12 3.12 0 01.36-.976c.095-.161.2-.322.36-.455.152-.133.342-.266.607-.304a.774.774 0 01.73.313c.152.218.19.436.2.636.009.398-.095.739-.219 1.042a6.835 6.835 0 01-.426.835 6.122 6.122 0 00-.19.341c-.057.114-.104.228-.152.341-.18.446-.274.835-.34 1.11a5.444 5.444 0 00-.077.436l-.057.445-.284-.493c-.038-.075-.104-.17-.17-.303" fill="#2768B1"/><path d="M8.173 53.749c.218.095.474.151.73.16.256.02.493 0 .749-.027.227-.038.455-.076.654-.152.2-.057.38-.142.531-.218.066-.029.123-.076.18-.105-.237.01-.53.02-.881-.009-.114-.019-.238-.029-.36-.048l-.38-.085a3.98 3.98 0 00-.73-.142c-.247-.019-.512-.01-.711.066-.095.038-.17.095-.19.133-.019.038 0 .028 0 .066 0 .095.2.285.417.37m-.957-.92c.17-.199.37-.284.55-.331.36-.095.682-.057.976 0 .294.057.57.151.806.237.114.038.218.076.322.114.114.028.219.047.323.075.417.076.777.095 1.024.095h.398l.465-.028-.418.407c-.056.048-.132.133-.237.219-.104.085-.237.19-.407.293-.161.105-.36.209-.579.294a4.346 4.346 0 01-.73.237c-.246.048-.54.105-.834.105-.303 0-.616-.02-.939-.124a1.67 1.67 0 01-.483-.246 1.08 1.08 0 01-.398-.531.85.85 0 01.16-.806m10.43-4.238c-.91-.095-1.764.73-1.764.73.38-.749.607-1.413 1.84-1.745 1.232-.322 1.564 1.186-.067 1.005m1.717 12.373c.938.54 1.564.512 2.228.275 0 0-1.11-.246-1.612-.853-.9-1.09-1.564.038-.626.578M8.543 46.297c1.27.749 1.659 1.517 1.83 2.455 0 0-1.043-1.147-2.096-1.327-1.896-.332-1.014-1.868.266-1.128zm4.712 3.565a41.064 41.064 0 00-.968-2.617 11.356 11.356 0 00-.682-1.365 2.579 2.579 0 00-.436-.54c-.076-.067-.143-.105-.18-.105h-.048c-.038.01-.076.028-.066.028-.086.048-.142.123-.152.332 0 .2.047.436.114.673.152.474.36.948.588 1.394.464.9.976 1.707 1.412 2.399.36.56.674 1.033.93 1.403-.133-.427-.313-.977-.512-1.602zm.862 2.673s-.19-.199-.502-.569c-.313-.37-.768-.9-1.261-1.564a21.54 21.54 0 01-1.593-2.38c-.256-.464-.512-.957-.692-1.517a3.13 3.13 0 01-.161-.938c0-.18.028-.37.123-.57.095-.198.265-.379.464-.473a.582.582 0 01.124-.057.962.962 0 01.56-.028c.236.056.397.18.53.293.266.237.427.484.588.74.303.502.512 1.005.711 1.498.38.986.635 1.925.844 2.73.208.806.332 1.489.426 1.963.095.474.124.749.124.749l.066.493-.341-.37h-.01zM3.954 49.501s-1.138-.957-2.769.446c0 0 .806 1.744 2.854.91s2.048-2.645 4.712-2.54c0 0-1.204-1.186-2.825-.703-1.66.494-1.982 1.887-1.982 1.887M21.76 39.64c-.077-1.526-1.859-.871-2.19.902-.247 1.289-.21 1.763-.21 1.763s2.475-1.138 2.4-2.674" fill="#2768B1"/><path d="M16.725 47.463s1.574-3.679 5.139-4.115c-1.309-1.033-2.712-.446-2.712-.446-.18-.673-1.64-1.299-2.351-.132 0 0-.294-.797-1.47-.806-1.175 0-1.726 1.08-1.726 1.08s3.091.73 3.12 4.419z" fill="#2768B1"/><path d="M18.801 46.477c.114-.029.237-.057.37-.086.133-.018.266-.038.408-.056.265-.029.521-.067.787-.143.256-.075.521-.18.701-.331a.491.491 0 00.171-.228c.019-.066 0-.076-.038-.133-.076-.114-.35-.208-.607-.199-.265 0-.54.047-.796.133a4.26 4.26 0 00-.74.322 4.548 4.548 0 00-.587.398c-.18.133-.323.285-.446.418-.095.104-.17.199-.237.293a6.415 6.415 0 011.005-.37m-1.337.276c.076-.124.17-.266.294-.427.123-.152.275-.322.455-.483a3.86 3.86 0 01.635-.484c.228-.142.493-.294.778-.408.284-.114.607-.208.957-.227.171 0 .36 0 .55.047.19.047.389.133.56.322a.75.75 0 01.132.74c-.085.237-.246.38-.398.493a2.337 2.337 0 01-.938.37 4.903 4.903 0 01-.882.095c-.123 0-.247.019-.37.028a6.023 6.023 0 00-1.394.37c-.246.095-.379.161-.379.161l-.38.19.238-.484c.038-.066.076-.17.152-.294m4 8.77c-.701 1.328.038 3.129.038 3.129-.91-1.034-1.782-1.783-1.526-3.85.265-2.066 2.75-1.659 1.488.721z" fill="#2768B1"/><path d="M29.022 36.19v23l19.93 11.5V24.68l-19.93 11.51z" fill="#E30613"/><path d="M68.871 36.19l-19.92-11.51v46.012l19.92-11.5V36.19z" fill="#AE0F0A"/><path d="M60.31 43.509h-7.187v-7.177H44.77v7.177h-7.177v8.362h7.177v7.178h8.353V51.87h7.187v-8.36zM29.06 0L13.388 9.055v18.1l8.874 5.128 6.798-3.925V0z" fill="#fff"/><path d="M44.742 9.055L29.06 0v28.358l15.682-9.054V9.054z" fill="#C6C6C6"/><path d="M25.125 3.973c-.445-1.015-1.735-.437-1.517 1.232.228 1.688.19 2.92.19 2.92s1.915-2.806 1.327-4.143M19.427 14.79a1.04 1.04 0 00-.758-1.933 1.042 1.042 0 00-.588 1.346c.208.53.815.796 1.346.588zm5.575 11.634a1.04 1.04 0 00-.759-1.934c-.53.208-.796.815-.588 1.346.209.531.816.796 1.347.588zm-7.869-10.202c.19.493.74.73 1.232.54a.947.947 0 00.54-1.232.948.948 0 00-1.232-.54.948.948 0 00-.54 1.232zm6.399 12.648c.19.493.74.73 1.233.54.493-.19.73-.74.54-1.232a.948.948 0 00-1.232-.54.948.948 0 00-.54 1.232zm3.546-26.168c.19.493.74.73 1.233.54.493-.19.73-.74.54-1.232a.948.948 0 00-1.232-.54.948.948 0 00-.54 1.232zm-10.41 14.269a.77.77 0 00-.436 1.005.769.769 0 001.005.437.77.77 0 00.436-1.005.77.77 0 00-1.005-.437zm9.254 9.576a.77.77 0 00-.437 1.005.77.77 0 001.005.436.77.77 0 00.437-1.005.77.77 0 00-1.005-.436zm1.545-14.743a.77.77 0 00-.436 1.005.77.77 0 001.005.436.77.77 0 00.436-1.005.77.77 0 00-1.005-.436zm-9.254 15.834a.77.77 0 00-.436 1.005.77.77 0 001.005.436.77.77 0 00.436-1.005.77.77 0 00-1.005-.436zm-3.243-8.391c.134.35.532.53.892.388a.682.682 0 00.389-.89.683.683 0 10-1.27.502m11.358 6.106c.132.35.53.53.89.388a.682.682 0 00.39-.891.683.683 0 10-1.27.503m1.27-8.96c.132.35.53.53.89.389a.682.682 0 00.39-.892.683.683 0 10-1.27.503m-14.033 3.65a.603.603 0 00.768.341.603.603 0 00.341-.768.61.61 0 00-.777-.34.603.603 0 00-.342.767m5.945 9.898a.603.603 0 00.768.342.603.603 0 00.341-.768.61.61 0 00-.777-.342.603.603 0 00-.341.768m7.964-2.758a.512.512 0 00.654.293.512.512 0 00.294-.654.5.5 0 00-.654-.284.5.5 0 00-.285.654M25.817 2.986a.512.512 0 00.654.294.512.512 0 00.294-.654.5.5 0 00-.654-.284.5.5 0 00-.284.654" fill="#EDEDED"/><path d="M21.636 12.06c-.341-1.394-1.28-2.579-2.75-3.072-1.497-.502-3.422-.445-4.512 1.252-1.214 1.905.094 4.124 1.327 4.247 1.621.161 2.626-1.29 2.313-2.522-.322-1.232-1.213-1.507-1.213-1.507 2.579-.133 3.688 1.924 3.953 3.28.266 1.356-.312 3.224-1.393 3.869-1.005.606-.455 1.137-.2 1.44-.037.039-.066.076-.104.114-.066.076-.142.152-.208.228-.114-.303-.38-.834-.92-.626-.74.294-1.337 1.09-2.408 2.219-1.195 1.27-.218.844-1.536 2.19.104-.038.218-.076.322-.123.38-.19.759-.37 1.147-.56.2-.085.38-.19.55-.313l.531-.35c.351-.228.72-.446 1.024-.73l.948-.806c.294-.285.55-.598.825-.882.133-.142.266-.294.398-.436.143-.161.238-.313.351-.465.162-.208.304-.436.446-.664.882-1.147 1.763-3.062 1.11-5.783zm-1.83 8.353c-3.375 3.062-6.058 3.584-6.058 3.584s1.697 1.28 4.266.436c2.57-.844 3.404-4.077 3.404-4.077s.493.758 1.66.303c1.166-.445 2.389-1.773 2.389-1.773s.19.816.91 1.12c.53.227 1.356.018 1.526.758a.81.81 0 01-.35.89c-.029-.454-.446-.483-.816-.312-.37.17-.56 1.062.408 1.204.967.133 1.782-1.138 1.507-2.399-.54-2.503-4.92-3.29-8.846.275m2.389-10.638a33.4 33.4 0 01-.142-.493c-.066-.17-.132-.34-.199-.521a6.244 6.244 0 01-.36-1.024c-.085-.35-.142-.73-.076-1.052a.714.714 0 01.152-.351c.066-.067.095-.048.18-.048.19.01.474.266.645.579.18.313.303.673.379 1.033.076.37.104.72.114 1.081 0 .332-.02.664-.067.958a5.325 5.325 0 01-.19.806 3.14 3.14 0 01-.189.464 9.866 9.866 0 00-.237-1.432m.569 1.754c.095-.17.209-.379.303-.625.105-.247.2-.54.266-.863a6.7 6.7 0 00.151-1.072c.01-.36.01-.777-.047-1.194a3.934 3.934 0 00-.38-1.28 2.524 2.524 0 00-.416-.616c-.18-.19-.418-.37-.75-.446-.331-.085-.758.076-.957.341-.218.256-.284.54-.313.797-.047.512.057.957.19 1.356.132.398.313.777.483 1.1.076.151.143.303.218.454.057.152.114.304.171.446.19.579.294 1.09.341 1.45.048.361.067.56.067.56l.038.579.407-.607c.057-.086.152-.209.237-.38m2.835 3.888a3.48 3.48 0 00-1.043.246 7.023 7.023 0 00-.957.493c-.275.18-.54.38-.759.579a4.529 4.529 0 00-.56.597c-.066.085-.113.17-.17.246.303-.16.683-.35 1.147-.521.161-.047.323-.104.493-.161.18-.038.36-.085.55-.133.35-.066.692-.152 1.034-.275.331-.123.673-.294.881-.512.105-.104.171-.218.171-.275 0-.066-.019-.038-.038-.085-.066-.114-.427-.228-.759-.19m1.793.531a1.5 1.5 0 01-.522.75c-.417.34-.853.492-1.27.615a7.54 7.54 0 01-1.195.21c-.17.018-.332.046-.484.066-.16.037-.313.075-.455.104a8.592 8.592 0 00-1.384.512 6.016 6.016 0 00-.503.265l-.587.323.303-.759c.038-.095.085-.246.18-.417.086-.17.2-.389.351-.607.152-.227.341-.474.569-.72a6.86 6.86 0 01.806-.74 6.546 6.546 0 011.024-.645c.379-.19.815-.35 1.299-.426a2.67 2.67 0 01.777 0c.266.047.569.142.835.398.274.246.398.73.274 1.08M18.64 8.42c1.175-.048 2.2 1.08 2.2 1.08-.427-.995-.655-1.858-2.21-2.38-1.554-.512-2.104 1.385 0 1.3" fill="#EDEDED"/><path d="M24.471 12.809c-1.583.996-2.048 1.982-2.219 3.176 0 0 1.27-1.488 2.598-1.763 2.38-.493 1.204-2.409-.37-1.413m3.793 4.674c-.996-.37-1.602-.227-2.2.105 0 0 1.11.056 1.697.55 1.053.9 1.498-.294.503-.664m-4.115-7.092a48.4 48.4 0 011.45-3.271c.295-.579.617-1.166.987-1.688.18-.256.388-.502.597-.654.095-.076.2-.123.247-.123h.047s.028.01.01 0c.037.019.085.047.085.047.104.057.17.17.16.436 0 .256-.094.56-.198.854-.228.597-.54 1.185-.872 1.735-.664 1.109-1.385 2.104-2.001 2.948a64.04 64.04 0 01-1.308 1.726c.208-.54.474-1.223.787-2.01m-1.318 3.356s.256-.246.692-.692c.427-.446 1.052-1.08 1.744-1.896.702-.816 1.489-1.783 2.228-2.92.37-.579.73-1.176 1.015-1.887.133-.351.256-.73.284-1.185 0-.228 0-.484-.113-.74a1.28 1.28 0 00-.56-.645c-.076-.047-.114-.066-.151-.085a3.692 3.692 0 00-.238-.085 1.145 1.145 0 00-.474-.01c-.303.057-.521.2-.701.332-.36.275-.588.588-.806.891-.427.617-.74 1.252-1.024 1.859a30.279 30.279 0 00-1.299 3.432c-.332 1.014-.54 1.877-.702 2.474-.151.607-.227.958-.227.958l-.123.626.464-.436-.01.01zM16.45 25.57s4.835 1.698 5.698 6.22c1.204-1.754.341-3.498.341-3.498.844-.294 1.527-2.21-.028-3.025 0 0 .995-.445.9-1.953-.094-1.507-1.535-2.105-1.535-2.105s-.664 4.01-5.376 4.362zm-1.005 1.48c-.19-1.375-1.707-2.333-1.707-2.333 1.242.285 2.295.38 3.214 2.077.92 1.697-1.175 2.73-1.507.256zm-.559-10.553c.028 1.138-1.081 2.105-1.081 2.105.967-.389 1.81-.607 2.332-2.095.521-1.489-1.299-2.058-1.252-.02M25.96 22.47c-1.385-1.29-2.466-1.479-3.689-1.346 0 0 1.783.853 2.4 2.086 1.108 2.2 2.663.55 1.288-.73m1.385-11.918s.758.313 1.384-.692c0 0-.711-.787-1.65-.01-.938.778-.644 1.726-2.067 2.115 0 0 .825.426 1.603-.095.787-.531.73-1.318.73-1.318zm.768 3.309c-1.043-.284-1.631-.095-2.21.303 0 0 1.129-.047 1.755.408 1.137.816 1.488-.426.455-.71z" fill="#EDEDED"/><path d="M86.09 36.531v9.87h-2.286v-4.049H79.32v4.049h-2.295v-9.87h2.295v3.887h4.484v-3.887h2.285zm8.437 6.02l-1.564-3.782-1.564 3.782h3.128zm.72 1.736H90.66l-.872 2.114h-2.342l4.4-9.88H94.1l4.418 9.88H96.12l-.872-2.114zm14.943.256v3.944h-2.105V46.4h-8.248v-9.87h2.266v8.012h4.399V36.53h2.276v8.012h1.412zm1.508-8.012h2.275v6.428l4.713-6.428h2.142v9.87h-2.256v-6.419l-4.712 6.419h-2.162v-9.87zm19.389 4.93c0-1.877-1.327-3.157-3.091-3.157-1.763 0-3.091 1.28-3.091 3.157s1.328 3.157 3.091 3.157c1.764 0 3.091-1.28 3.091-3.157zm-8.495 0c0-2.93 2.285-5.1 5.404-5.1 3.119 0 5.404 2.16 5.404 5.1 0 2.94-2.304 5.11-5.404 5.11s-5.404-2.17-5.404-5.11zm21.626-4.93v9.87h-2.285v-4.049h-4.484v4.049h-2.285v-9.87h2.285v3.887h4.484v-3.887h2.285zm8.439 6.02l-1.565-3.782-1.564 3.782h3.129zm.72 1.736h-4.589l-.872 2.114h-2.342l4.399-9.88h2.257l4.418 9.88h-2.399l-.872-2.114zm13.482-7.756v9.87h-2.256v-8.012h-3.385l-.067 2.058c-.123 3.877-.673 6.106-2.986 6.106-.341 0-.702-.057-1.128-.152l.142-1.934c.142.047.265.057.408.057 1.156 0 1.45-1.47 1.554-3.992l.143-4.01h7.585l-.01.009zm8.695 6.476c0-1.081-.702-1.536-1.887-1.536h-2.058v3.242h2.058c1.176 0 1.887-.588 1.887-1.706zm2.304-.038c0 2.275-1.527 3.441-4.068 3.441h-4.456v-9.87h2.275v3.243h2.513c2.38 0 3.736 1.062 3.736 3.186zm10.704-6.438v9.87h-2.285v-4.049h-4.485v4.049h-2.294v-9.87h2.294v3.887h4.485v-3.887h2.285zm10.268 4.93c0-1.877-1.327-3.157-3.091-3.157-1.763 0-3.091 1.28-3.091 3.157s1.328 3.157 3.091 3.157c1.764 0 3.091-1.28 3.091-3.157zm-8.495 0c0-2.93 2.285-5.1 5.404-5.1 3.119 0 5.404 2.16 5.404 5.1 0 2.94-2.304 5.11-5.404 5.11s-5.404-2.17-5.404-5.11zm20.223 3.11v1.83h-7.642v-9.87h7.462v1.83h-5.196v2.143h4.589v1.782h-4.589v2.285h5.376zM82.647 55.948c0 1.555-1.555 2.465-3.27 2.465-1.091 0-2.248-.37-3.12-1.166l.256-.446c.777.721 1.811 1.053 2.787 1.053 1.432 0 2.712-.72 2.712-1.991 0-1.1-.891-1.716-2.427-1.716h-1.763v-.54h1.744c1.308 0 2.086-.588 2.086-1.593 0-1.138-1.09-1.802-2.418-1.802a4.57 4.57 0 00-2.465.75l-.237-.532a5.185 5.185 0 012.712-.787c1.659 0 3.043.853 3.043 2.295 0 .948-.569 1.64-1.498 1.915 1.166.256 1.868 1.033 1.868 2.086m2.475 1.849h5.64v-7.452h-4.389l-.076 2.303c-.085 2.342-.303 4.551-1.175 5.149zm7.594 0v2.522h-.597v-1.963h-7.85v1.963h-.617v-2.522h.474c1.223-.095 1.508-2.4 1.593-5.196l.085-2.825h5.575v8.02h1.337zm7.898-5.12c0-1.48-.977-2.332-2.816-2.332h-2.456v4.645h2.456c1.84 0 2.816-.843 2.816-2.313zm.635 0c0 1.801-1.299 2.882-3.46 2.882h-2.456v2.807h-.626v-8.58h3.081c2.162 0 3.461 1.08 3.461 2.89zm6.77 2.75l-2.257-4.95-2.247 4.95h4.504zm.237.53h-4.978l-1.09 2.418h-.673l3.944-8.58h.626l3.944 8.58h-.673l-1.1-2.417zm9.68.086c0-1.242-.844-1.783-2.427-1.783h-3.082v3.565h3.082c1.583 0 2.427-.569 2.427-1.792m-5.509-2.294h2.816c1.422 0 2.228-.588 2.228-1.716 0-1.129-.806-1.726-2.228-1.726h-2.816v3.442zm6.135 2.332c0 1.46-1.015 2.285-3.063 2.285h-3.688v-8.58h3.461c1.763 0 2.854.749 2.854 2.18 0 1.034-.579 1.688-1.489 1.982 1.27.218 1.925.948 1.925 2.133zm9.936-2c0-2.171-1.64-3.774-3.821-3.774s-3.84 1.603-3.84 3.774c0 2.17 1.64 3.773 3.84 3.773s3.821-1.602 3.821-3.773zm-8.287 0c0-2.484 1.897-4.352 4.466-4.352s4.466 1.849 4.466 4.352-1.915 4.352-4.466 4.352c-2.55 0-4.466-1.868-4.466-4.352zm18.745 0c0-2.171-1.64-3.774-3.821-3.774s-3.84 1.603-3.84 3.774c0 2.17 1.64 3.773 3.84 3.773s3.821-1.602 3.821-3.773zm-8.287 0c0-2.484 1.897-4.352 4.466-4.352s4.466 1.849 4.466 4.352-1.916 4.352-4.466 4.352c-2.551 0-4.466-1.868-4.466-4.352zm10.686-4.286l2.578 3.612 2.608-3.612h.749l-2.958 4.124 3.185 4.457h-.749l-2.835-3.926-2.806 3.926h-.73l3.157-4.438-2.939-4.143h.74zm13.643 2.892c0-1.48-.977-2.332-2.816-2.332h-2.456v4.645h2.456c1.839 0 2.816-.843 2.816-2.313zm.635 0c0 1.801-1.299 2.882-3.461 2.882h-2.455v2.807h-.626v-8.58h3.081c2.162 0 3.461 1.08 3.461 2.89zm6.77 2.75l-2.257-4.95-2.247 4.95h4.504zm.237.53h-4.978l-1.09 2.418h-.673l3.944-8.58h.626l3.944 8.58h-.673l-1.1-2.417zm10.543-6.172v8.58h-.626V54.27h-5.736v4.087h-.626v-8.58h.626v3.943h5.736v-3.944h.626zm9.007 8.012v.569h-5.916v-8.58h5.736v.559h-5.111v3.384h4.57v.55h-4.57v3.518h5.291zm9.074-8.012v8.58h-.626V54.27h-5.736v4.087h-.626v-8.58h.626v3.943h5.736v-3.944h.626zm3.09 0h.626v7.528l5.85-7.528h.55v8.58h-.626v-7.518l-5.85 7.519h-.55v-8.58zm16.042 8.012v.569h-5.925v-8.58h5.736v.559h-5.111v3.384h4.57v.55h-4.57v3.518h5.3z" fill="#0081C9"/></svg>