<svg width="1537" height="671" fill="none" xmlns="http://www.w3.org/2000/svg"><path d="M897.669 596.933V470.097l109.831-63.419 109.83 63.419v126.836l-109.83 63.419-109.831-63.419zm-114.438-198.26V271.836l109.643-63.305 110.016 63.532v126.61l-109.827 63.418-109.832-63.418zm228.899 0v-126.61l110.02-63.532 109.64 63.305v126.837l-109.83 63.418-109.83-63.418zM897.669 200.431V73.821L1007.5 10.403l109.83 63.418v126.61L1007.5 263.85l-109.831-63.419zM1007.95 0L888.437 68.478v131.953L774 266.512v137.485l114.437 66.081v132.18L1007.5 671l119.06-68.742v-132.18L1241 403.997V266.512l-114.44-66.081V68.478L1007.95 0z" fill="#EDEDED"/><mask id="a" style="mask-type:alpha" maskUnits="userSpaceOnUse" x="921" y="35" width="175" height="203"><path d="M921.021 86.2v100.756l87.259 50.377 87.23-50.377V86.2l-87.23-50.378L921.021 86.2z" fill="#000"/></mask><g mask="url(#a)"><path d="M921.021 86.2v100.756l87.259 50.377 87.23-50.377V86.2l-87.23-50.378L921.021 86.2z" fill="#EDEDED"/><path d="M1084.2 156.431c12.31-6.467 4.04-22.078-16.63-17.893-20.87 4.224-36.29 4.771-36.29 4.771s36.71 21.625 52.92 13.122zM944.324 94.1c3.054 6.505 10.803 9.314 17.308 6.278 6.505-3.054 9.314-10.803 6.278-17.308-3.054-6.504-10.803-9.313-17.308-6.26-6.523 3.036-9.332 10.785-6.278 17.29zm-19.872-27.395c-5.958 2.79-8.522 9.88-5.732 15.838 2.791 5.957 9.88 8.521 15.838 5.731 5.957-2.79 8.522-9.88 5.731-15.837-2.79-5.94-9.879-8.522-15.837-5.732z" fill="#DADADA"/><path d="M886.442 96.947c1.942 1.565 3.884 3.092 5.788 4.619 2.112 1.603 4.073 2.658 6.09 3.997 2.734 1.885 5.732 3.45 8.711 4.978 15.045 10.049 39.744 19.551 73.21 9.031 17.175-5.412 31.199-18.1 36.159-36.879 5.06-19.099 2.77-43.194-19.342-55.336-24.887-13.65-51.471 4.62-51.942 20.136-.623 20.343 18.326 31.788 33.409 26.791 15.083-4.996 17.798-16.365 17.798-16.365 3.807 32.146-21.022 47.682-37.764 52.075-16.743 4.393-40.48-1.226-49.53-14.197-8.39-12.03-14.649-4.733-18.232-1.245l-1.527-1.244c-.98-.83-2.017-1.64-3.035-2.451 3.752-1.621 10.124-5.449 7.051-12.01-4.223-9.031-16.742-13.726-29.751-28.262-13.009-14.555-8.899-29.13-10.879-32.052-3.903-5.788-12.99-2.847-18.496-.792-.565-1.376-1.131-2.752-1.678-4.129-.056-.15-.094-.301-.151-.452 10.182 2.15 18.383-9.785 13.462-13.67-5.467-4.317-13.782-24.057-12.651-38.8.019-.17 0-.321.019-.49 1.471 6.862 5.901 14.385 16.233 19.325 14.197 6.806 26.905 3.921 26.905 3.921 6.41 53.564 43.138 66.649 43.138 66.649-9.616-15.988-12.859-30.072-30.449-87.256-12.651-41.14-37.331-58.994-50.208-65.819 3.412.113 6.825.301 10.275.415 9.182 5.807 29.714 20.098 38.575 37.01 0 0-2.658 13.103 6.109 23.36 8.786 10.256 16.346 14.819 21.361 20.965-10.03-44.985-42.61-70.928-58.145-81.015l1.244.057c17.289 4.468 26.15 10.049 26.15 10.049 6.335 18.74 23.492 29.695 35.031 34.974 17.515 8.013 24.303 18.59 24.303 18.59-11.068-35.182-42.667-53.489-61.747-61.615 6.184.849 12.293 1.999 18.27 3.62 12.142 3.3 23.341 8.409 33.748 15.63 9.804 6.75 18.458 15.668 23.963 25.49 2.602 4.997 4.752 10.163 5.732 15.48.943 5.298 1.112 10.614.339 15.686a47.847 47.847 0 01-4.807 14.084c-2.338 4.054-5.506 8.183-8.617 10.898-3.261 2.865-6.919 4.75-10.52 5.166-3.601.509-7.014-.811-9.578-2.753-2.526-2.206-4.035-4.638-4.525-7.843-.377-2.49.132-5.336 1.395-7.052 2.583-3.733 6.694-3.13 8.881-1.942 2.281 1.245 3.261 2.508 3.299 2.414a1.86 1.86 0 002.658.037 1.86 1.86 0 00.038-2.658c-.094.075-1.075-1.452-4.053-3.337-1.546-.811-3.677-1.81-6.486-1.735-2.772.057-6.052 1.527-8.202 4.374-2.149 2.885-3.129 6.6-2.639 10.898.339 3.62 2.451 8.164 5.901 11.218 3.488 3.035 8.522 5.185 13.839 4.751 5.298-.32 10.426-2.734 14.536-6.184 4.337-3.639 7.466-7.617 10.596-12.538.132-.245.226-.528.358-.773.095.396.095.698.208 1.113.905 3.846 2.526 8.39 5.769 12.65 3.149 4.3 8.315 7.9 13.971 9.37 2.677.736 5.807 1.17 9.05.755 3.224-.434 6.64-1.98 8.94-4.6 2.33-2.564 3.47-5.77 3.73-8.71.23-2.96-.3-5.808-1.51-8.183-1.19-2.376-2.98-4.3-4.9-5.506a13.392 13.392 0 00-5.336-1.96 14.566 14.566 0 00-3.451-.076c-.754.075-1.169.132-1.169.132-2.338.283-3.997 2.432-3.714 4.77a4.293 4.293 0 004.77 3.714c-.094.17 3.884-.754 5.487 2.96.923 1.791.829 4.959-.811 6.618-.792.849-1.885 1.433-3.431 1.772-1.547.264-3.375.151-5.449-.301-3.903-.849-7.221-3.055-9.842-5.92-2.602-2.885-4.468-6.354-5.826-9.484-1.282-3.11-2.112-5.882-2.658-7.862.754-2.225 1.489-4.487 1.979-6.863 1.113-5.977 1.113-12.255.17-18.552-.98-6.297-3.243-12.406-6.165-18.27-6.354-11.52-15.611-21.23-26.81-29.11-10.559-7.523-23.285-13.575-36.238-17.157-13.009-3.752-26.433-5.166-39.404-5.732-1.245-.056-2.451-.056-3.696-.094 1.565-.98 3.111-2.149 4.657-3.413 3.356-2.583 6.561-5.75 9.578-9.031 6.071-6.58 10.841-14.121 14.027-19.909 3.187-5.789 4.751-10.031 4.751-10.031l.019-.037a1.825 1.825 0 00-3.393-1.339s-1.641 3.865-4.959 9.352c-3.299 5.448-8.201 12.481-14.197 18.42-2.979 2.979-6.109 5.788-9.295 8.032-1.565 1.169-3.111 2.262-4.676 3.129-1.527.905-2.941 1.829-4.374 2.433-1.395.659-2.677 1.282-3.808 1.828a6.106 6.106 0 00-.623.227c-7.371-.132-14.611-.264-21.606-.604-11.972-.584-23.341-2.036-33.39-5.317-1.113-.377-2.15-.848-3.243-1.282 12.556-.754 27.602-8.163 41.837-23.944 13.028-14.461 20.494-16.328 20.494-16.328-15.328-11.18-38.293 14.876-53.96 21.89-10.596 4.751-23.775 4.28-31.203 3.488-6.166-6.165-10.408-13.028-12.105-19.703-1.828-7.032-.98-13.612.66-18.703a45.875 45.875 0 015.43-11.274c1.622-2.451 2.621-3.545 2.621-3.545.66-.716.66-1.829 0-2.545a1.897 1.897 0 00-2.659-.094l-.056.037s-1.32 1.226-3.262 3.733c-1.923 2.527-4.676 6.373-6.844 12.029-2.149 5.581-3.676 13.217-1.998 21.739 1.565 8.541 6.655 17.232 13.82 24.548 1.81 1.904 3.601 3.506 5.807 5.448 1.979 1.584 3.921 3.206 6.429 4.808a71.47 71.47 0 007.485 4.355c4.921 6.467 11.274 17.1 9.37 27.075-3.016 15.78-3.639 35.332 16.497 37.84-5.166-1.867-5.109-19.1-3.62-34.164.924-9.332-4.204-19.212-8.239-25.377 3.375.961 6.807 1.791 10.313 2.394.019.019.019.038.038.057a62.604 62.604 0 014.582 8.955c1.659 4.054 3.488 9.126 4.638 15.216.32 1.508.716 3.054.999 4.675.17 1.64.358 3.338.547 5.053.414 3.45.848 7.108.678 10.954 0 3.94 0 8.032.019 12.255.057 4.242.113 8.617.151 13.142.094 2.262-.075 4.524.208 6.862a3992.6 3992.6 0 011.018 7.127c.716 4.808 1.338 9.748 2.187 14.687 1.338 4.808 2.696 9.71 4.072 14.669.754 2.45 1.245 5.015 2.225 7.428.999 2.395 2.017 4.808 3.016 7.221 2.15 4.77 3.79 9.842 6.392 14.461 2.64 4.6 5.279 9.22 7.919 13.839 1.225 2.376 2.733 4.563 4.393 6.636l4.77 6.373c3.205 4.223 6.184 8.598 10.03 12.18 3.639 3.77 7.259 7.504 10.822 11.18 3.771 3.432 7.881 6.448 11.727 9.597zM823.018-72.4c-.189-1.829-.359-3.62-.528-5.355-.283-1.734-.679-3.393-1-5.015-1.169-6.486-3.092-11.99-4.864-16.422a67.113 67.113 0 00-2.432-5.335c1.867.207 3.752.396 5.637.565 9.088 6.656 27.075 21.739 34.032 41.385 9.464 26.753-15.14 29.714-10.615 12.613 0 0-2.715-10.35-7.9-5.77-1.225 1.075-2.545 4.639-2.734 9.24-1.583-5.28-5.731-6.355-9.031-5.921l.057-8.39c.188-4.072-.226-7.919-.622-11.595zM949.49 143.667c-60.163-25.189-83.146-56.788-83.146-56.788s-6.24 29.751 20.25 57.938c26.489 28.187 73.473 19.269 73.473 19.269s-6.787 10.973 6.09 23.284c12.877 12.312 37.443 20.231 37.443 20.231s-9.35 7.447-9.03 18.608c.245 8.315 7.96 17.667-.509 24.397-7.014 5.581-13.65.886-13.65.886 5.712-3.129 3.563-8.71-.924-12.405-4.487-3.715-17.195-.811-13.085 12.537 4.11 13.368 25.604 16.139 40.258 4.997 29.14-22.135 12.82-83.636-57.17-112.954zm38.142-10.502c2.187 1.037 4.883 2.244 8.107 3.243 3.186 1.056 6.901 2.036 11.011 2.64 4.11.716 8.58.98 13.5.98 4.49-.113 9.77-.509 14.87-1.565 5.19-1.074 10.54-2.771 15.71-5.75 2.56-1.509 5.11-3.3 7.33-5.77 2.19-2.451 4.3-5.524 4.91-9.747.77-4.223-1.55-9.389-5.08-11.689-3.43-2.47-7.03-3.092-10.21-3.243-6.43-.208-11.86 1.565-16.82 3.507-4.92 1.998-9.43 4.543-13.33 6.957-1.87 1.055-3.7 2.074-5.47 3.073-1.87.848-3.68 1.659-5.41 2.451-7.09 2.884-13.406 4.506-17.799 5.505-4.449.943-6.976 1.263-6.976 1.263l-7.183.924 7.9 4.563c1.169.584 2.734 1.716 4.94 2.658zm21.498-8.578c1.94-.717 3.95-1.452 6.07-2.225 2.03-.962 4.16-1.961 6.33-2.979 4.02-2.074 8.05-3.959 12.46-5.392 4.34-1.376 9.07-2.357 13.09-1.867 1.98.208 3.71.868 4.5 1.641.85.773.7 1.169.81 2.224 0 2.376-2.96 6.203-6.67 8.541-3.71 2.527-8.13 4.337-12.59 5.581-4.57 1.263-8.87 1.904-13.45 2.357-4.16.264-8.31.339-12.08-.057-3.79-.283-7.22-.943-10.183-1.697-2.319-.547-4.28-1.282-6.034-1.942 4.563-.735 10.667-1.885 17.747-4.185zm14.06-45.551c1.56 14.63-11.69 28.413-11.69 28.413 12.05-6.109 22.74-9.73 27.89-29.564 5.16-19.834-19.03-25.15-16.2 1.15z" fill="#DADADA"/><path d="M1040.69 217.857c-7.98-22.021-18.8-30.242-32.98-35.615 0 0 14.84 19.514 14.69 36.445-.25 30.505 26.26 21.154 18.29-.83zm19.15-.188c-7.69-15.215-16.23-20.231-26.96-22.889 0 0 12.44 12.821 13.8 25.095 2.49 22.078 20.84 13.009 13.16-2.206zm-99.622-81.751s3.262 3.035 9.182 8.088c5.977 4.978 14.442 12.236 25.151 20.249 10.709 8.051 23.489 17.101 38.329 25.415 7.49 4.073 15.35 8.183 24.38 11.049 4.54 1.376 9.33 2.602 15.01 2.526 2.82-.075 5.97-.509 9.14-2.074 3.21-1.527 6.02-4.242 7.66-7.522.54-1.056.67-1.471.9-1.98.43-1.188.62-1.961.81-3.017.32-1.998.21-4.091-.26-5.939-.95-3.733-2.87-6.316-4.7-8.465-3.77-4.223-7.8-6.901-11.82-9.389-8.03-4.865-16.21-8.202-24.11-11.294-15.86-6.014-30.94-10.181-43.93-13.386-12.974-3.262-23.947-5.242-31.583-6.75-7.654-1.414-12.104-1.998-12.104-1.998l-7.975-1.056 5.92 5.543zm43.022 13.744c12.5 4.186 27.08 9.145 42.05 15.423 7.44 3.13 15.02 6.75 21.91 10.935 3.35 2.093 6.61 4.487 8.69 6.92 1.01 1.168 1.67 2.356 1.77 2.96.07.301.04.471.02.641 0 .037-.12.339-.04.188-.21.528-.45 1.131-.45 1.056-.68 1.32-1.96 2.225-5.3 2.394-3.19.095-7.05-.678-10.82-1.828-7.62-2.338-15.24-5.77-22.42-9.446-14.4-7.41-27.45-15.555-38.57-22.587a1314.6 1314.6 0 01-22.63-14.876c6.901 2.112 15.687 4.921 25.79 8.22z" fill="#DADADA"/></g><mask id="b" style="mask-type:alpha" maskUnits="userSpaceOnUse" x="1198" y="15" width="339" height="391"><path d="M1198.77 112.569V301.24l168.94 103.911 168.94-103.911.02-188.671L1367.7 15l-168.93 97.569z" fill="#fff"/></mask><g mask="url(#b)"><path d="M1198.77 112.569V301.24h337.88l.02-188.671L1367.7 15l-168.93 97.569z" fill="#EDEDED"/><path d="M1198.77 305.927V117.255h337.88l.02 188.672-168.97 97.569-168.93-97.569z" fill="#EDEDED"/><path d="M1478.3 329.71c-9.01 24.001 5.39 44.043 18.76 29.638 14.25-15.385 9.39-60.012 18.76-78.017 0-.019-28.51 24.359-37.52 48.379zm-82.52-50.265s29.26 13.123 54.77-25.509c0 0-27-31.505-64.52-2.244-37.52 29.262-27 66.762-82.9 80.28 0 0 31.84 17.553 62.65-1.885 31.51-19.891 30-50.642 30-50.642zm-163.05-79.789c9.44-19.288 11.01-26.999 11.01-26.999s-39.52.999-45.02 25.509c-5.49 24.491 21.02 27.998 34.01 1.49z" fill="#DADADA"/><path d="M1352.26 258.423c34.51-54.016 80.28-63.764 106.53-38.254 26.24 25.509-1.51 52.508-1.51 52.508s36.39-21.003 12.76-57.769c-19.3-30.034-80.65-26.999-110.27-10.878-34.09 18.552-35.51 40.63-35.51 40.63-56.52 1.508-53.52 43.006-53.52 43.006-36.5-33.014-64.76-2.998-64.76-2.998 48.02 84.051 111.78 27.772 146.28-26.245zm-91.14-20.758c0-6.297-3.75-11.651-9.08-14.216.75-3.261 1.73-7.013 3.11-11.048 1.22.321 2.39.754 3.71.754 8.35 0 15.12-6.768 15.12-15.121 0-4.864-2.45-9.012-6.03-11.783 2.64-3.997 5.39-8.089 8.9-11.841.15-.207.37-.377.54-.584 1.79.867 3.74 1.433 5.85 1.433 7.52 0 13.63-6.109 13.63-13.632 0-1.696-.4-3.299-.96-4.807 3.96-2.885 7.97-5.713 12.33-8.07 2.11 1.98 4.9 3.243 8.03 3.243 6.49 0 11.75-5.26 11.75-11.746 0-.207-.12-.377-.12-.584 4.64-1.546 9.13-3.394 13.69-4.695 1.89 2.96 5.04 5.034 8.81 5.034 5.33 0 9.57-3.997 10.33-9.144 1.69-.34 3.41-.735 5.09-.943 3.88-.396 7.37-.735 10.95-1.112 1.49 3.035 4.55 5.185 8.15 5.185 4.09 0 7.43-2.734 8.58-6.448 6.03-.095 11.29.207 15.32.018 6.26 0 9.85.019 9.85.019h.22a2.47 2.47 0 002.47-2.432c.04-1.357-1.05-2.489-2.41-2.526 0 0-3.64-.076-9.99-.189-4.08.113-9.39-.264-15.46-.283-1.17-3.695-4.51-6.429-8.58-6.429-4.43 0-7.96 3.224-8.79 7.41-3.58.301-7.26.603-11.14.924-1.64.169-3.34.546-5.02.829-1.69-3.62-5.31-6.165-9.57-6.165-5.7 0-10.26 4.506-10.52 10.143-4.74 1.282-9.43 3.092-14.26 4.601-2.13-2.942-5.43-4.978-9.35-4.978-6.49 0-11.75 5.26-11.75 11.746 0 .83.31 1.546.48 2.319-4.72 2.451-9.13 5.449-13.47 8.503-2.32-1.81-5.09-3.073-8.25-3.073-7.53 0-13.64 6.109-13.64 13.632 0 2.582.93 4.864 2.17 6.919-.22.264-.53.49-.73.773-4.23 4.393-7.53 9.201-10.69 13.858-.51-.057-.96-.302-1.49-.302-8.35 0-15.12 6.769-15.12 15.121 0 3.865 1.56 7.315 3.94 9.973a116.227 116.227 0 00-4.32 14.16c-7.84.98-13.99 7.391-13.99 15.498 0 8.767 7.11 15.875 15.88 15.875 8.72.056 15.83-7.052 15.83-15.819zm71.14-161.031s-92.03-22.512-116.05-104.036c-19 34.502 0 65.008 0 65.008-14.99 6.938-24.06 43.345 6 55.525 0 0-17.5 10.011-13.01 37.519 4.5 27.508 32.01 36.011 32.01 36.011s5.02-75.038 91.05-90.027z" fill="#DADADA"/><path d="M1480.13-276.821c-2-4.035-3.98-8.032-5.94-11.991-2.2-4.242-4.64-7.466-6.92-11.199-3.03-5.185-6.73-10.031-10.44-14.801-16.92-27.941-50.04-62.425-112.83-70.815-32.24-4.299-64.91 5.713-87.4 32.636-22.89 27.376-37.62 68.534-10.73 105.318 30.26 41.385 87.73 31.863 100.38 6.844 16.59-32.787-5.62-66.026-34.13-69.401-28.5-3.375-41.63 13.122-41.63 13.122 18.39-55.525 70.89-61.897 101.66-56.26 30.75 5.618 65.28 33.013 70.14 61.143 4.53 26.094 20.32 18.948 28.88 15.988.51 1.075 1.02 2.112 1.55 3.206.98 2.111 2.04 4.223 3.07 6.334-7.37-.207-20.74 1.169-20.74 14.235 0 18.006 16.88 35.257 27 69.024 10.13 33.768-7.75 54.469-6.75 60.767 1.96 12.443 19.08 14.593 29.64 15.441l-.39 8.032c-.02.283-.1.566-.12.867-15-11.312-37.55 1.923-32.48 12.048 5.62 11.256 4.13 49.887-9.01 73.153-.16.283-.25.51-.4.773 2.85-12.35 1.38-28.036-11.73-44.043-18-22.002-41.01-27.017-41.01-27.017 30.51-92.517-19.51-142.046-19.51-142.046 3.51 33.504-2 59.013-17.01 166.047-10.78 76.98 15.88 125.077 31.74 146.118-5.51-2.79-10.96-5.732-16.48-8.541-10.58-16.516-33.22-55.62-34.75-90.065 0 0 14.39-19.382 7.88-42.893-6.5-23.511-15.38-36.765-18.87-50.642-18.06 81.26 15.36 148.626 33.07 177.039-.66-.34-1.32-.68-1.98-1.037-24.85-20.551-35.07-36.483-35.07-36.483 4-35.52-15.69-66.554-30.51-84.032-22.51-26.508-25.51-49.02-25.51-49.02-8.84 66.027 28.81 120.175 53.81 148.079-9.44-6.109-18.57-12.67-27.11-19.891-17.32-14.706-31.73-31.6-43.21-51.396-10.86-18.571-18.21-39.763-19.67-60.05-.41-10.18 0-20.249 2.47-29.695 2.53-9.389 6.32-18.212 11.47-25.924 5.3-7.598 11.67-14.065 18.64-19.363 6.94-4.845 15.28-9.182 22.42-11.218 7.54-2.206 14.97-2.489 21.17-.396 6.28 1.942 10.85 6.675 13.58 11.841 2.45 5.524 3.05 10.671 1.39 16.289-1.3 4.356-4.31 8.635-7.67 10.464-7.07 4.129-13.35 0-16.01-3.601-2.77-3.789-3.41-6.58-3.54-6.467-.6-1.772-2.55-2.715-4.32-2.111-1.77.603-2.71 2.545-2.11 4.317.21-.056.64 3.168 4.07 8.541 1.93 2.526 4.62 5.788 9.3 7.806 4.58 2.036 11.06 2.13 16.76-.868 5.73-3.073 10.18-8.39 12.69-15.799 2.22-6.166 2.24-15.253-1.06-22.851-3.39-7.636-9.97-15.008-19-18.364-8.92-3.545-19.16-3.507-28.53-1.018-9.86 2.639-18.06 6.731-26.92 12.406-.42.283-.78.679-1.19.98.17-.697.38-1.225.53-1.961 1.47-6.976 2.28-15.667.26-25.113-1.87-9.427-7.56-19.288-15.69-26.019-3.8-3.242-8.61-6.353-14.21-8.163-5.58-1.773-12.37-1.867-18.12.678-5.77 2.414-10.09 6.769-12.76 11.388-2.64 4.676-3.94 9.729-3.81 14.556.13 4.807 1.58 9.332 3.81 12.764 2.18 3.469 4.94 5.807 7.24 7.296a25.24 25.24 0 005.58 2.753c1.32.452 2 .697 2 .697 4.05 1.32 8.4-.905 9.72-4.958 1.32-4.054-.9-8.409-4.95-9.71.28-.207-6.92-1.753-6.74-9.031-.15-3.639 2.44-8.748 6.4-10.2 1.92-.773 4.18-.905 6.95-.264 2.76.754 5.66 2.338 8.68 4.676 5.73 4.393 9.46 10.539 11.57 17.213 2.04 6.712 2.43 13.802 2.26 19.967-.28 6.071-1.05 11.256-1.67 14.894-2.96 3.074-5.89 6.203-8.51 9.71-6.37 8.918-11.2 19.193-14.48 30.185-3.2 11.049-4.18 22.795-3.92 34.597 1.59 23.718 9.28 46.682 21.55 68.138 11.52 20.4 27.7 40.027 46.12 55.827 18.42 16.101 39.29 28.677 60.05 39.518 2 1.055 3.96 1.96 5.96 2.997-3.32.415-6.73 1.132-10.22 2.018-7.47 1.659-15.12 4.374-22.59 7.428-14.97 6.109-28.54 14.782-38.2 21.833-9.63 7.033-15.46 12.745-15.46 12.745l-.05.057a3.313 3.313 0 00-.14 4.563 3.31 3.31 0 004.66.245s5.62-5.072 15.27-11.52c9.58-6.373 22.99-14.141 37.33-19.269 7.15-2.583 14.43-4.808 21.38-6.033 3.45-.735 6.81-1.32 10.03-1.527 3.21-.32 6.23-.754 9.02-.641 2.79-.02 5.35-.038 7.61-.057.46.038.76.076 1.19.113 11.95 5.864 23.72 11.614 34.88 17.534 19.14 10.106 36.6 21.192 50.55 34.258 1.54 1.452 2.86 3.054 4.32 4.563-21.12-8.39-51.4-7.787-86.79 7.145-32.37 13.669-46.02 11.011-46.02 11.011 16.5 30.015 74.02 4.996 105.03 5.505 20.99.34 42.18 11.2 53.7 18.194 5.37 14.801 7.03 29.262 4.73 41.498-2.37 12.915-8.84 23.021-15.38 30.072-6.6 7.089-13.05 11.557-17.52 14.31-4.52 2.772-6.99 3.771-6.99 3.79a3.4 3.4 0 00-1.94 4.185 3.4 3.4 0 004.26 2.187l.11-.037s3.09-1 8.18-3.601c5.09-2.64 12.54-6.826 20.4-14.424 7.81-7.485 16.14-18.797 19.91-34.031 4-15.159 2.32-33.277-3.81-50.717-1.51-4.525-3.2-8.503-5.31-13.368-2.04-4.11-3.98-8.239-6.83-12.782-2.7-4.45-5.67-8.711-8.9-12.859-3.11-14.367-5.35-36.595 5.41-51.452 17.01-23.511 33.02-55.016 2-74.53 7 7.014-6.26 35.144-20.25 58.655-8.67 14.574-7.84 34.634-5.96 47.813-4.77-4.166-9.74-8.126-15.02-11.821 0-.057-.02-.076-.02-.132-.45-4.035-1-10.238-.64-18.156.41-7.9 1.28-17.61 4.05-28.451.64-2.715 1.17-5.543 1.96-8.409.96-2.81 1.96-5.713 3-8.691 1.98-5.977 4.05-12.256 7.3-18.44 2.99-6.429 6.12-13.122 9.37-20.06 3.16-6.976 6.43-14.178 9.8-21.607 1.6-3.77 3.58-7.353 4.92-11.388 1.25-4.11 2.53-8.258 3.81-12.443 2.51-8.41 5.28-16.95 7.67-25.717 1.51-8.9 3.04-17.949 4.59-27.112.66-4.581 1.81-9.163 2.05-13.839.19-4.694.4-9.389.6-14.14.14-9.465 1.36-19.005.61-28.564-.78-9.54-1.57-19.137-2.36-28.714-.19-4.827-1-9.541-2.11-14.235l-2.92-14.084c-2-9.352-3.53-18.797-7.07-27.621-3.08-8.937-6.13-17.817-9.13-26.584-3.71-8.484-8.11-16.535-11.99-24.661zm-25.94 325.57a1657.35 1657.35 0 00-3.23 9.181c-.86 3.036-1.47 6.071-2.18 8.956-3.06 11.52-4.11 22.003-4.62 30.6-.21 3.94-.21 7.428-.1 10.596a312.14 312.14 0 00-8.78-5.223c-9.77-17.835-27.64-56.279-23.97-93.741 5.02-51.02 47.52-37.01 27.02-12.5 0 0-3.49 19.004 8.5 15.497 2.83-.83 7.73-5.637 11.56-13.009-1.45 9.86 4.51 14.763 10.22 16.61-2.21 4.62-4.43 9.277-6.52 13.67-3.47 6.41-5.75 13.046-7.9 19.363z" fill="#DADADA"/></g><path fill-rule="evenodd" clip-rule="evenodd" d="M752.843 196.198l32.5-56.331 1.657-2.768-1.657-2.796L752.853 78h-68.26l-1.218 2.194-31.502 54.608h-62.797l-31.433-54.485L556.164 78h-68.068L454 137.099l34.096 59.099h65.556L586.43 253h68.192l32.778-56.802h65.443zm-163.767 52.218h62.91l31.399-54.422-31.502-54.608h-62.797l-31.45 54.515 31.44 54.515zM459.291 137.089l31.451 54.515h62.91l31.46-54.515-31.46-54.515h-62.91l-31.451 54.515zm290.916-54.515H687.41l-31.45 54.515 31.45 54.515h62.797l31.451-54.515-31.451-54.515zm-451.364 52.228l32.5 56.331 1.657 2.768-1.657 2.796L298.853 253h-68.26l-1.218-2.194-31.502-54.608h-62.797l-31.433 54.485-1.479 2.317H34.096L0 193.901l34.096-59.099h65.556L132.43 78h68.192l32.778 56.802h65.443zM135.076 82.584h62.91l31.399 54.422-31.502 54.608h-62.797l-31.45-54.515 31.44-54.515zM5.291 193.911l31.45-54.515h62.911l31.46 54.515-31.46 54.515h-62.91l-31.45-54.515zm290.916 54.515H233.41l-31.45-54.515 31.45-54.515h62.797l31.451 54.515-31.451 54.515z" fill="#EDEDED"/></svg>