<svg xmlns="http://www.w3.org/2000/svg" width="61" height="36" fill="none"><path d="M13.304 32.762a5.5 5.5 0 005.392 0l9-5.062a5.5 5.5 0 002.804-4.794v-9.812A5.5 5.5 0 0027.696 8.3l-9-5.062a5.5 5.5 0 00-5.392 0l-9 5.062A5.5 5.5 0 001.5 13.094v9.812A5.5 5.5 0 004.304 27.7l9 5.062z" stroke="#004F9F" stroke-width="3"/><path d="M42.304 32.762a5.5 5.5 0 005.392 0l9-5.062a5.5 5.5 0 002.804-4.794v-9.812A5.5 5.5 0 0056.696 8.3l-9-5.062a5.5 5.5 0 00-5.392 0l-9 5.062a5.5 5.5 0 00-2.804 4.794v9.812a5.5 5.5 0 002.804 4.794l9 5.062z" fill="#004F9F" stroke="#004F9F" stroke-width="3"/></svg>