<svg width="1393" height="622" fill="none" xmlns="http://www.w3.org/2000/svg"><path d="M813.957 554.627V439.815l99.431-57.405 99.432 57.405v114.812l-99.432 57.406-99.431-57.406zm-103.6-179.464V260.352l99.26-57.303 99.601 57.508v114.606l-99.43 57.406-99.431-57.406zm207.218 0V260.557l99.605-57.508 99.26 57.303v114.811l-99.43 57.406-99.435-57.406zM813.957 195.717V81.11l99.431-57.405 99.432 57.406v114.606l-99.432 57.406-99.431-57.406zm99.841-181.429L805.6 76.274v119.443L702 255.532v124.451l103.6 59.815v119.648l107.788 62.226 107.792-62.226V439.798l103.6-59.815V255.532l-103.6-59.815V76.274L913.798 14.288z" fill="#EDEDED"/><mask id="a" style="mask-type:alpha" maskUnits="userSpaceOnUse" x="834" y="46" width="160" height="184"><path d="M834.859 92.338v91.33l79.093 45.665 79.076-45.665v-91.33l-79.076-45.664-79.093 45.664z" fill="#000"/></mask><g mask="url(#a)"><path d="M834.859 92.338v91.33l79.093 45.665 79.076-45.665v-91.33l-79.076-45.664-79.093 45.664z" fill="#EDEDED"/><path d="M982.774 155.999c11.16-5.862 3.657-20.013-15.074-16.219-18.919 3.829-32.898 4.324-32.898 4.324s33.274 19.603 47.972 11.895zM855.982 99.5c2.769 5.895 9.793 8.442 15.689 5.69 5.896-2.768 8.442-9.793 5.691-15.689-2.769-5.896-9.793-8.442-15.689-5.674-5.913 2.752-8.459 9.776-5.691 15.672zm-18.013-24.833c-5.4 2.53-7.725 8.955-5.195 14.356 2.529 5.4 8.955 7.725 14.355 5.195 5.401-2.529 7.725-8.955 5.196-14.355-2.53-5.384-8.955-7.725-14.356-5.196z" fill="#DADADA"/><path d="M803.515 102.08c1.76 1.418 3.521 2.802 5.247 4.187 1.914 1.452 3.691 2.409 5.52 3.623 2.478 1.709 5.195 3.127 7.896 4.512 13.638 9.109 36.026 17.722 66.361 8.186 15.569-4.905 28.284-16.407 32.778-33.428 4.581-17.313 2.513-39.154-17.534-50.16-22.559-12.373-46.656 4.187-47.083 18.252-.564 18.44 16.611 28.814 30.283 24.285s16.133-14.834 16.133-14.834c3.453 29.139-19.055 43.221-34.231 47.203-15.176 3.982-36.693-1.111-44.896-12.869-7.605-10.903-13.279-4.29-16.526-1.128l-1.384-1.128c-.889-.752-1.829-1.487-2.752-2.222 3.401-1.47 9.178-4.938 6.392-10.886-3.828-8.186-15.176-12.442-26.968-25.618-11.793-13.194-8.067-26.404-9.861-29.053-3.538-5.247-11.775-2.58-16.766-.718a345.459 345.459 0 01-1.521-3.743c-.051-.137-.085-.273-.137-.41 9.229 1.948 16.663-8.87 12.203-12.39-4.956-3.914-12.493-21.807-11.468-35.172.017-.154 0-.29.017-.444 1.333 6.22 5.35 13.04 14.715 17.517 12.869 6.17 24.388 3.555 24.388 3.555 5.81 48.553 39.102 60.414 39.102 60.414-8.716-14.493-11.656-27.26-27.601-79.093-11.467-37.291-33.838-53.476-45.511-59.662 3.094.102 6.187.273 9.314.376 8.323 5.264 26.934 18.218 34.967 33.548 0 0-2.41 11.877 5.537 21.174 7.964 9.297 14.817 13.433 19.363 19.005-9.092-40.777-38.624-64.293-52.706-73.437l1.128.052c15.672 4.05 23.704 9.109 23.704 9.109 5.742 16.987 21.294 26.917 31.754 31.702 15.876 7.263 22.029 16.85 22.029 16.85-10.032-31.89-38.675-48.484-55.97-55.85 5.605.77 11.142 1.812 16.56 3.281 11.006 2.991 21.158 7.623 30.591 14.168 8.887 6.118 16.732 14.202 21.722 23.106 2.358 4.529 4.307 9.212 5.195 14.031.855 4.802 1.009 9.622.308 14.22a43.352 43.352 0 01-4.358 12.765c-2.119 3.675-4.99 7.418-7.81 9.878-2.957 2.598-6.272 4.307-9.537 4.683-3.264.462-6.357-.735-8.681-2.495-2.29-2-3.658-4.204-4.102-7.11-.342-2.255.12-4.836 1.265-6.391 2.341-3.384 6.067-2.837 8.049-1.76 2.068 1.127 2.957 2.273 2.991 2.187.649.684 1.726.7 2.41.034.683-.65.7-1.726.034-2.41-.086.069-.974-1.315-3.675-3.024-1.401-.735-3.332-1.641-5.879-1.573-2.512.052-5.486 1.385-7.434 3.965-1.948 2.615-2.837 5.982-2.392 9.878.307 3.282 2.221 7.4 5.349 10.169 3.161 2.751 7.724 4.7 12.544 4.307 4.802-.29 9.451-2.478 13.176-5.606 3.931-3.298 6.768-6.904 9.605-11.365.12-.222.205-.478.325-.7.085.358.085.632.188 1.008.82 3.486 2.29 7.605 5.229 11.467 2.854 3.897 7.537 7.161 12.664 8.494 2.427.667 5.264 1.06 8.203.684 2.923-.393 6.016-1.795 8.101-4.17 2.119-2.325 3.145-5.23 3.384-7.896.205-2.683-.273-5.264-1.367-7.417-1.077-2.153-2.7-3.897-4.444-4.99a12.13 12.13 0 00-4.836-1.778 13.2 13.2 0 00-3.128-.068c-.683.068-1.059.12-1.059.12-2.119.256-3.623 2.204-3.367 4.323a3.892 3.892 0 004.324 3.367c-.086.154 3.52-.684 4.973 2.683.837 1.624.752 4.495-.735 5.999-.718.769-1.709 1.299-3.11 1.606-1.402.24-3.059.137-4.939-.273-3.538-.77-6.546-2.769-8.921-5.366-2.359-2.615-4.051-5.76-5.281-8.597-1.162-2.82-1.914-5.332-2.41-7.126.684-2.017 1.35-4.068 1.795-6.221 1.008-5.418 1.008-11.109.153-16.817-.888-5.708-2.939-11.245-5.588-16.56-5.759-10.442-14.151-19.244-24.302-26.387-9.571-6.82-21.107-12.305-32.848-15.552-11.792-3.401-23.96-4.683-35.718-5.196-1.128-.051-2.222-.051-3.35-.085 1.419-.889 2.82-1.948 4.222-3.094 3.042-2.34 5.947-5.212 8.681-8.186 5.504-5.964 9.827-12.8 12.716-18.047 2.888-5.247 4.306-9.092 4.306-9.092l.017-.034a1.655 1.655 0 00-3.076-1.213s-1.487 3.503-4.495 8.476c-2.99 4.939-7.434 11.314-12.868 16.697-2.701 2.7-5.538 5.247-8.426 7.28-1.418 1.06-2.82 2.051-4.238 2.838-1.385.82-2.666 1.657-3.965 2.204-1.265.598-2.427 1.162-3.452 1.658-.223.068-.359.12-.564.205-6.683-.12-13.245-.24-19.586-.547-10.852-.53-21.157-1.846-30.266-4.82-1.009-.341-1.949-.768-2.94-1.161 11.382-.684 25.02-7.4 37.923-21.705 11.809-13.108 18.577-14.8 18.577-14.8-13.894-10.134-34.71 13.484-48.912 19.842-9.604 4.307-21.55 3.879-28.284 3.161-5.588-5.588-9.434-11.809-10.972-17.859-1.658-6.374-.889-12.339.598-16.953a41.598 41.598 0 014.922-10.22c1.47-2.222 2.376-3.213 2.376-3.213a1.708 1.708 0 000-2.307 1.72 1.72 0 00-2.41-.086l-.051.035s-1.196 1.11-2.957 3.383c-1.743 2.291-4.238 5.777-6.203 10.904-1.949 5.059-3.333 11.98-1.812 19.705 1.418 7.742 6.033 15.62 12.527 22.251 1.641 1.726 3.264 3.179 5.264 4.94 1.794 1.435 3.555 2.905 5.828 4.357a65.03 65.03 0 006.784 3.948c4.461 5.862 10.22 15.5 8.494 24.541-2.734 14.305-3.298 32.027 14.954 34.3-4.683-1.692-4.631-17.312-3.281-30.967.837-8.46-3.811-17.415-7.469-23.003 3.059.871 6.17 1.623 9.349 2.17.017.017.017.034.034.052a56.823 56.823 0 014.153 8.117c1.504 3.675 3.161 8.272 4.204 13.792.29 1.367.649 2.769.906 4.238.153 1.487.324 3.025.495 4.58.376 3.128.769 6.444.616 9.93 0 3.572 0 7.28.017 11.109.051 3.845.102 7.81.136 11.911.086 2.051-.068 4.102.188 6.221.308 2.136.616 4.29.923 6.46.65 4.358 1.214 8.836 1.983 13.313 1.213 4.358 2.444 8.802 3.691 13.297.684 2.221 1.128 4.546 2.017 6.733.906 2.17 1.828 4.358 2.734 6.546 1.948 4.323 3.435 8.92 5.794 13.108 2.392 4.17 4.785 8.357 7.178 12.544 1.11 2.153 2.478 4.136 3.982 6.016l4.323 5.776c2.906 3.828 5.606 7.793 9.092 11.04 3.299 3.418 6.58 6.802 9.81 10.135 3.418 3.11 7.144 5.845 10.63 8.699zM746.024-51.424c-.171-1.658-.325-3.281-.479-4.854-.256-1.572-.615-3.076-.905-4.546-1.06-5.879-2.803-10.869-4.41-14.885a60.754 60.754 0 00-2.204-4.837c1.692.188 3.401.36 5.11.513 8.237 6.033 24.541 19.705 30.847 37.513 8.58 24.25-13.723 26.934-9.621 11.433 0 0-2.461-9.382-7.161-5.23-1.111.975-2.307 4.205-2.478 8.375-1.436-4.785-5.196-5.76-8.186-5.366l.051-7.606c.171-3.691-.205-7.177-.564-10.51zm114.641 195.853c-54.535-22.832-75.367-51.475-75.367-51.475s-5.657 26.968 18.354 52.518c24.012 25.549 66.601 17.466 66.601 17.466s-6.153 9.946 5.52 21.106c11.672 11.16 33.941 18.338 33.941 18.338s-8.477 6.75-8.186 16.868c.222 7.536 7.212 16.013-.462 22.114-6.357 5.059-12.373.804-12.373.804 5.178-2.837 3.23-7.896-.838-11.246-4.067-3.366-15.586-.735-11.86 11.365 3.726 12.117 23.208 14.629 36.487 4.529 26.422-20.064 11.622-75.812-51.817-102.387zm34.573-9.519c1.983.94 4.427 2.034 7.349 2.939 2.888.957 6.255 1.846 9.981 2.393 3.725.649 7.776.889 12.236.889 4.068-.103 8.853-.462 13.484-1.419 4.7-.974 9.554-2.512 14.236-5.212 2.325-1.368 4.632-2.991 6.648-5.23 1.983-2.222 3.897-5.007 4.444-8.835.701-3.829-1.401-8.511-4.597-10.596-3.111-2.239-6.375-2.803-9.263-2.94-5.828-.188-10.75 1.419-15.245 3.179-4.46 1.811-8.545 4.119-12.082 6.306-1.692.957-3.35 1.88-4.956 2.786-1.692.769-3.333 1.504-4.905 2.222-6.426 2.614-12.151 4.084-16.133 4.99-4.034.854-6.324 1.145-6.324 1.145l-6.511.837 7.161 4.136c1.059.53 2.478 1.555 4.477 2.41zm19.483-7.776c1.76-.65 3.589-1.316 5.503-2.017 1.846-.871 3.777-1.777 5.742-2.7 3.641-1.88 7.298-3.589 11.297-4.888 3.931-1.247 8.22-2.136 11.86-1.692 1.795.188 3.367.786 4.085 1.487.769.701.632 1.06.735 2.017 0 2.153-2.683 5.622-6.05 7.742-3.367 2.29-7.366 3.93-11.416 5.058-4.136 1.145-8.033 1.726-12.185 2.137-3.777.239-7.537.307-10.955-.052-3.435-.256-6.546-.854-9.229-1.538-2.102-.495-3.879-1.162-5.469-1.76 4.136-.667 9.673-1.709 16.082-3.794zm12.749-41.29c1.418 13.262-10.596 25.755-10.596 25.755 10.921-5.537 20.611-8.819 25.276-26.797 4.683-17.98-17.244-22.799-14.68 1.042z" fill="#DADADA"/><path d="M943.33 211.679c-7.23-19.961-17.039-27.413-29.891-32.283 0 0 13.45 17.688 13.313 33.035-.222 27.652 23.807 19.175 16.578-.752zm17.364-.171c-6.973-13.792-14.715-18.338-24.439-20.747 0 0 11.279 11.621 12.51 22.747 2.255 20.012 18.884 11.792 11.929-2zm-90.305-74.103s2.957 2.752 8.323 7.332c5.418 4.512 13.091 11.091 22.798 18.355 9.708 7.297 21.295 15.5 34.745 23.037 6.784 3.691 13.911 7.417 22.097 10.015 4.119 1.247 8.46 2.358 13.604 2.29 2.563-.068 5.418-.462 8.289-1.88 2.905-1.384 5.451-3.845 6.938-6.819.496-.957.616-1.333.821-1.794a14.51 14.51 0 00.734-2.735 13.513 13.513 0 00-.239-5.383c-.854-3.384-2.597-5.725-4.255-7.674-3.418-3.828-7.076-6.255-10.716-8.511-7.28-4.409-14.697-7.434-21.858-10.237-14.373-5.451-28.045-9.228-39.82-12.134-11.758-2.956-21.705-4.751-28.626-6.118-6.939-1.282-10.972-1.811-10.972-1.811l-7.229-.958 5.366 5.025zm39 12.459c11.331 3.794 24.541 8.288 38.111 13.979 6.751 2.837 13.621 6.119 19.859 9.913 3.042 1.897 5.998 4.067 7.878 6.272.923 1.059 1.521 2.136 1.607 2.683.068.273.034.427.017.581 0 .034-.103.308-.034.171-.188.478-.41 1.025-.41.957-.616 1.196-1.778 2.017-4.803 2.17-2.888.086-6.392-.615-9.81-1.657-6.904-2.12-13.808-5.23-20.32-8.563-13.057-6.716-24.883-14.099-34.966-20.473a1198.924 1198.924 0 01-20.508-13.485c6.255 1.914 14.219 4.461 23.379 7.452z" fill="#DADADA"/></g><mask id="b" style="mask-type:alpha" maskUnits="userSpaceOnUse" x="1086" y="0" width="307" height="354"><path d="M1086.63 88.442v171.021l153.13 94.189 153.14-94.189.02-171.022L1239.75 0l-153.12 88.442z" fill="#fff"/></mask><g mask="url(#b)"><path d="M1086.63 88.442v171.021h306.27l.02-171.022L1239.75 0l-153.12 88.442z" fill="#EDEDED"/><path d="M1086.63 263.71V92.69h306.27l.02 171.02-153.17 88.442-153.12-88.442z" fill="#EDEDED"/><path d="M1340.01 285.269c-8.17 21.755 4.88 39.922 17 26.865 12.92-13.945 8.51-54.398 17-70.719 0-.017-25.84 22.081-34 43.854zm-74.81-45.563s26.53 11.895 49.65-23.122c0 0-24.47-28.558-58.48-2.034s-24.48 60.516-75.15 72.77c0 0 28.87 15.911 56.79-1.709 28.56-18.03 27.19-45.905 27.19-45.905zm-147.79-72.325c8.56-17.483 9.98-24.473 9.98-24.473s-35.82.906-40.81 23.123c-4.98 22.2 19.05 25.379 30.83 1.35z" fill="#DADADA"/><path d="M1225.76 220.651c31.27-48.963 72.77-57.799 96.56-34.676 23.79 23.123-1.37 47.596-1.37 47.596s32.98-19.038 11.57-52.364c-17.5-27.225-73.11-24.473-99.96-9.861-30.9 16.816-32.18 36.829-32.18 36.829-51.24 1.367-48.52 38.983-48.52 38.983-33.09-29.925-58.7-2.718-58.7-2.718 43.52 76.188 101.32 25.174 132.6-23.789zm-82.62-18.816c0-5.708-3.4-10.562-8.23-12.886.68-2.957 1.57-6.358 2.82-10.015 1.11.291 2.17.684 3.36.684 7.57 0 13.71-6.136 13.71-13.707 0-4.409-2.22-8.169-5.47-10.681 2.39-3.623 4.89-7.332 8.07-10.733.13-.188.34-.341.49-.529 1.63.786 3.39 1.299 5.3 1.299 6.82 0 12.36-5.538 12.36-12.357 0-1.538-.36-2.99-.87-4.358 3.58-2.614 7.22-5.178 11.17-7.314 1.92 1.794 4.45 2.939 7.28 2.939 5.88 0 10.65-4.768 10.65-10.647 0-.188-.1-.342-.1-.53 4.2-1.401 8.27-3.076 12.41-4.255 1.7 2.683 4.56 4.563 7.98 4.563 4.83 0 8.68-3.623 9.36-8.289 1.54-.307 3.09-.666 4.62-.854 3.52-.359 6.68-.667 9.93-1.009 1.35 2.752 4.11 4.7 7.38 4.7 3.71 0 6.73-2.478 7.77-5.845 5.47-.085 10.24.188 13.9.017 5.67 0 8.92.018 8.92.018h.2c1.22 0 2.23-.975 2.24-2.205.04-1.23-.95-2.256-2.18-2.29 0 0-3.3-.069-9.06-.171-3.69.103-8.51-.24-14.02-.256-1.06-3.35-4.08-5.828-7.77-5.828-4.02 0-7.21 2.922-7.97 6.716-3.24.274-6.58.547-10.1.838-1.48.154-3.02.495-4.54.752-1.54-3.282-4.82-5.589-8.68-5.589-5.17 0-9.3 4.085-9.54 9.195-4.29 1.162-8.55 2.802-12.92 4.17-1.93-2.666-4.92-4.512-8.48-4.512-5.88 0-10.64 4.768-10.64 10.647 0 .752.27 1.401.42 2.102-4.27 2.222-8.27 4.939-12.2 7.708-2.1-1.641-4.61-2.786-7.48-2.786-6.82 0-12.36 5.537-12.36 12.356 0 2.342.84 4.41 1.96 6.272-.2.24-.47.445-.66.701-3.83 3.982-6.82 8.34-9.69 12.561-.46-.051-.87-.273-1.35-.273-7.57 0-13.71 6.135-13.71 13.706 0 3.504 1.42 6.631 3.57 9.041a106.367 106.367 0 00-3.91 12.834c-7.11.889-12.68 6.7-12.68 14.049 0 7.947 6.44 14.39 14.39 14.39 7.91.051 14.35-6.392 14.35-14.339zm64.49-145.967s-83.42-20.406-105.19-94.304c-17.23 31.275 0 58.927 0 58.927-13.59 6.29-21.81 39.29 5.43 50.33 0 0-15.86 9.076-11.79 34.01 4.08 24.935 29.02 32.642 29.02 32.642s4.54-68.019 82.53-81.605z" fill="#DADADA"/><path d="M1341.66-264.521c-1.81-3.657-3.6-7.28-5.38-10.869-2-3.846-4.2-6.768-6.27-10.152-2.75-4.7-6.1-9.092-9.47-13.416-15.33-25.327-45.36-56.585-102.27-64.19-29.22-3.897-58.84 5.178-79.23 29.583-20.74 24.815-34.09 62.123-9.72 95.465 27.43 37.513 79.52 28.883 90.99 6.204 15.04-29.72-5.1-59.85-30.94-62.909-25.84-3.059-37.73 11.895-37.73 11.895 16.66-50.33 64.26-56.107 92.15-50.997 27.87 5.093 59.16 29.925 63.57 55.423 4.11 23.653 18.43 17.176 26.19 14.493.46.974.92 1.914 1.4 2.905.89 1.914 1.84 3.828 2.78 5.742-6.68-.188-18.8 1.06-18.8 12.903 0 16.322 15.3 31.959 24.48 62.567 9.17 30.609-7.03 49.374-6.12 55.082 1.78 11.28 17.29 13.228 26.86 13.997-.12 2.427-.24 4.871-.35 7.28-.02.257-.09.513-.11.786-13.6-10.254-34.04 1.744-29.44 10.921 5.09 10.203 3.74 45.22-8.17 66.31-.14.256-.22.461-.36.7 2.58-11.194 1.25-25.413-10.63-39.922-16.32-19.944-37.17-24.49-37.17-24.49 27.65-83.862-17.69-128.757-17.69-128.757 3.18 30.369-1.81 53.492-15.42 150.512-9.77 69.78 14.39 113.376 28.77 132.449-4.99-2.53-9.93-5.195-14.94-7.742-9.59-14.97-30.11-50.416-31.5-81.64 0 0 13.04-17.568 7.15-38.88-5.9-21.31-13.95-33.325-17.11-45.904-16.37 73.659 13.93 134.722 29.97 160.477-.59-.308-1.19-.615-1.79-.94-22.52-18.628-31.79-33.07-31.79-33.07 3.63-32.197-14.22-60.328-27.65-76.17-20.4-24.03-23.12-44.435-23.12-44.435-8.02 59.85 26.11 108.933 48.77 134.226-8.56-5.537-16.83-11.484-24.57-18.03-15.71-13.33-28.77-28.643-39.17-46.588-9.85-16.833-16.51-36.043-17.83-54.432-.37-9.228 0-18.354 2.24-26.917 2.29-8.51 5.73-16.509 10.39-23.499 4.8-6.887 10.58-12.749 16.9-17.551 6.29-4.392 13.85-8.323 20.32-10.169 6.84-1.999 13.57-2.256 19.2-.359 5.69 1.761 9.82 6.05 12.3 10.733 2.22 5.007 2.77 9.673 1.27 14.766-1.18 3.948-3.92 7.827-6.96 9.485-6.41 3.743-12.1 0-14.51-3.264-2.51-3.435-3.09-5.965-3.21-5.862-.55-1.607-2.31-2.461-3.92-1.914a3.086 3.086 0 00-1.91 3.913c.19-.051.58 2.871 3.69 7.742 1.74 2.29 4.19 5.247 8.43 7.075 4.15 1.846 10.03 1.932 15.19-.786 5.2-2.785 9.23-7.605 11.5-14.321 2.02-5.589 2.04-13.826-.96-20.714-3.07-6.921-9.04-13.603-17.22-16.645-8.09-3.213-17.37-3.179-25.86-.923-8.94 2.392-16.37 6.101-24.4 11.245-.38.256-.71.615-1.08.889.15-.632.34-1.111.48-1.778 1.33-6.323 2.07-14.201.24-22.764-1.7-8.545-6.86-17.483-14.22-23.584-3.45-2.94-7.81-5.759-12.89-7.4-5.06-1.607-11.21-1.692-16.42.615-5.23 2.188-9.15 6.136-11.57 10.323-2.39 4.238-3.57 8.818-3.45 13.193.12 4.358 1.43 8.46 3.45 11.57 1.98 3.145 4.48 5.264 6.56 6.614a22.942 22.942 0 005.06 2.495c1.2.41 1.81.633 1.81.633 3.68 1.196 7.62-.821 8.82-4.495a6.972 6.972 0 00-4.5-8.802c.26-.188-6.27-1.589-6.1-8.186-.13-3.298 2.21-7.929 5.8-9.245 1.74-.701 3.79-.821 6.3-.24 2.5.684 5.13 2.119 7.86 4.239 5.2 3.982 8.58 9.553 10.5 15.603 1.84 6.084 2.2 12.51 2.05 18.098-.26 5.503-.96 10.203-1.52 13.502-2.69 2.785-5.33 5.622-7.71 8.801-5.78 8.084-10.15 17.398-13.12 27.361-2.91 10.015-3.8 20.662-3.56 31.36 1.44 21.5 8.41 42.316 19.53 61.764 10.45 18.492 25.11 36.283 41.81 50.605 16.69 14.594 35.61 25.994 54.43 35.82 1.81.957 3.59 1.778 5.4 2.718-3.01.376-6.1 1.025-9.26 1.828-6.77 1.504-13.71 3.965-20.48 6.734-13.57 5.537-25.87 13.398-34.62 19.79-8.74 6.375-14.02 11.553-14.02 11.553l-.05.051a3.005 3.005 0 00-.12 4.136 2.993 2.993 0 004.22.222s5.1-4.597 13.85-10.442c8.68-5.776 20.83-12.817 33.84-17.466 6.47-2.341 13.07-4.358 19.38-5.469 3.12-.666 6.17-1.196 9.09-1.384 2.9-.29 5.64-.683 8.17-.581 2.53-.017 4.85-.034 6.9-.051.41.034.69.068 1.08.102 10.83 5.315 21.5 10.528 31.62 15.894 17.34 9.16 33.17 19.209 45.81 31.053 1.41 1.316 2.6 2.769 3.92 4.136-19.14-7.605-46.59-7.058-78.67 6.477-29.34 12.39-41.72 9.981-41.72 9.981 14.96 27.207 67.1 4.528 95.21 4.99 19.02.308 38.23 10.151 48.68 16.492 4.87 13.416 6.37 26.524 4.29 37.615-2.16 11.707-8.02 20.867-13.95 27.259-5.98 6.426-11.83 10.476-15.88 12.971-4.1 2.513-6.34 3.418-6.34 3.436-1.47.598-2.25 2.256-1.76 3.794a3.096 3.096 0 003.87 1.982l.1-.034s2.8-.906 7.41-3.264c4.62-2.393 11.37-6.187 18.5-13.074 7.07-6.785 14.63-17.039 18.04-30.848 3.63-13.74 2.11-30.164-3.45-45.972-1.37-4.102-2.9-7.708-4.82-12.117-1.84-3.726-3.6-7.469-6.18-11.587-2.45-4.034-5.15-7.896-8.07-11.656-2.82-13.023-4.85-33.172 4.9-46.639 15.42-21.311 29.93-49.869 1.82-67.557 6.34 6.357-5.68 31.856-18.36 53.167-7.86 13.21-7.11 31.395-5.4 43.341-4.32-3.777-8.84-7.366-13.62-10.716 0-.051-.02-.068-.02-.12-.41-3.657-.9-9.28-.58-16.457.38-7.161 1.16-15.963 3.68-25.79.58-2.46 1.05-5.024 1.77-7.621.87-2.547 1.78-5.179 2.72-7.879 1.79-5.418 3.67-11.109 6.61-16.714 2.72-5.828 5.56-11.895 8.5-18.184 2.87-6.323 5.83-12.852 8.88-19.585 1.46-3.418 3.25-6.666 4.47-10.323 1.12-3.726 2.29-7.485 3.45-11.28 2.27-7.622 4.78-15.363 6.95-23.31 1.37-8.067 2.75-16.27 4.16-24.576.59-4.153 1.64-8.306 1.86-12.544.17-4.256.36-8.511.55-12.818.12-8.579 1.23-17.227.54-25.891-.7-8.648-1.42-17.347-2.13-26.029-.17-4.375-.91-8.647-1.92-12.903l-2.65-12.766c-1.81-8.477-3.19-17.039-6.41-25.037-2.78-8.101-5.55-16.15-8.27-24.097-3.36-7.691-7.35-14.988-10.87-22.354zm-23.51 295.113c-1.01 2.854-1.99 5.622-2.92 8.322-.79 2.752-1.34 5.503-1.99 8.118-2.77 10.442-3.72 19.945-4.18 27.738a108.23 108.23 0 00-.09 9.604 288.934 288.934 0 00-7.96-4.734c-8.86-16.167-25.06-51.014-21.73-84.972 4.55-46.246 43.07-33.548 24.49-11.33 0 0-3.16 17.226 7.71 14.047 2.57-.752 7.01-5.11 10.48-11.792-1.32 8.938 4.08 13.382 9.26 15.057-2 4.187-4.01 8.408-5.91 12.39-3.15 5.81-5.21 11.826-7.16 17.552z" fill="#DADADA"/></g><path fill-rule="evenodd" clip-rule="evenodd" d="M682.574 191.723L712 140.933l1.5-2.495-1.5-2.522-29.417-50.764H620.78l-1.103 1.978-28.522 49.236h-56.857l-28.459-49.125-1.339-2.09h-61.629L412 138.438l30.871 53.286h59.355l29.677 51.215 61.741-.001 29.677-51.214h59.253zm-148.276 47.081h56.96l28.428-49.068-28.521-49.237h-56.857l-28.475 49.153 28.465 49.152zM416.791 138.428l28.475 49.153h56.96l28.484-49.153-28.485-49.152h-56.959l-28.475 49.152zm263.397-49.152h-56.857l-28.475 49.152 28.475 49.153h56.857l28.475-49.153-28.475-49.152zm-409.614 47.09L300 187.156l1.5 2.496-1.5 2.521-29.417 50.764H208.78l-1.103-1.978-28.522-49.236h-56.857l-28.459 49.125-1.339 2.089H30.871L0 189.652l30.87-53.286h59.355l29.678-51.214h61.741l29.677 51.214h59.253zm-148.276-47.08h56.96l28.428 49.068-28.521 49.236h-56.857l-28.475-49.153 28.465-49.152zM4.791 189.66l28.475-49.152h56.96l28.484 49.152-28.484 49.153h-56.96L4.791 189.661zm263.397 49.153h-56.857l-28.475-49.153 28.475-49.152h56.857l28.475 49.152-28.475 49.153z" fill="#EDEDED"/></svg>