<svg xmlns="http://www.w3.org/2000/svg" width="61" height="62" fill="none"><path d="M18.696 29.238a5.5 5.5 0 00-5.392 0l-9 5.062A5.5 5.5 0 001.5 39.094v9.812A5.5 5.5 0 004.304 53.7l9 5.062a5.5 5.5 0 005.392 0l9-5.062a5.5 5.5 0 002.804-4.794v-9.812a5.5 5.5 0 00-2.804-4.794l-9-5.062z" fill="#0081C9" stroke="#0081C9" stroke-width="3"/><path d="M31.696 3.238a5.5 5.5 0 00-5.392 0l-9 5.062a5.5 5.5 0 00-2.804 4.794v9.812a5.5 5.5 0 002.804 4.794l9 5.062a5.5 5.5 0 005.392 0l9-5.062a5.5 5.5 0 002.804-4.794v-9.812A5.5 5.5 0 0040.696 8.3l-9-5.062zm16 25a5.5 5.5 0 00-5.392 0l-9 5.062a5.5 5.5 0 00-2.804 4.794v9.812a5.5 5.5 0 002.804 4.794l9 5.062a5.5 5.5 0 005.392 0l9-5.062a5.5 5.5 0 002.804-4.794v-9.812a5.5 5.5 0 00-2.804-4.794l-9-5.062z" stroke="#0081C9" stroke-width="3"/></svg>