<svg xmlns="http://www.w3.org/2000/svg" width="77" height="60" fill="none"><path d="M13.304 27.238a5.5 5.5 0 015.392 0l9 5.062a5.5 5.5 0 012.804 4.794v9.812a5.5 5.5 0 01-2.804 4.794l-9 5.062a5.5 5.5 0 01-5.392 0l-9-5.062A5.5 5.5 0 011.5 46.906v-9.812A5.5 5.5 0 014.304 32.3l9-5.062z" fill="#E30613" stroke="#E30613" stroke-width="3"/><path d="M29.304 3.238a5.5 5.5 0 015.392 0l9 5.062a5.5 5.5 0 012.804 4.794v9.812a5.5 5.5 0 01-2.804 4.794l-9 5.062a5.5 5.5 0 01-5.392 0l-9-5.062a5.5 5.5 0 01-2.804-4.794v-9.812A5.5 5.5 0 0120.304 8.3l9-5.062z" stroke="#E30613" stroke-width="3"/><path d="M58.304 3.238a5.5 5.5 0 015.392 0l9 5.062a5.5 5.5 0 012.804 4.794v9.812a5.5 5.5 0 01-2.804 4.794l-9 5.062a5.5 5.5 0 01-5.392 0l-9-5.062a5.5 5.5 0 01-2.804-4.794v-9.812A5.5 5.5 0 0149.304 8.3l9-5.062z" stroke="#E30613" stroke-width="3"/></svg>