<svg width="1600" height="961" fill="none" xmlns="http://www.w3.org/2000/svg"><g clip-path="url(#clip0_235_34338)"><path d="M1552.12-97.127l-18.69 10.785-18.69-10.785h-28.78l40.42 23.325V119.51l-167.73 96.826-167.71-96.826V-74.123l39.83-23.004h-28.19l-25.73 14.858v209.906l174.77 100.899v201.797l181.81 104.953 55.35-31.961v-16.273l-55.35 31.961-167.73-96.826V228.555l167.73-96.826 55.35 31.961v-16.292l-48.31-27.888V-73.802l40.41-23.325h-28.76z" fill="#EDEDED"/><path d="M1514.66-97.127l18.69 10.785 18.69-10.785h28.78l-40.42 23.325V119.51l167.73 96.826 167.71-96.826V-74.123l-39.83-23.004h28.19l25.73 14.858v209.906l-174.77 100.899v201.797l-181.81 104.953-55.35-31.961v-16.273l55.35 31.961 167.73-96.826V228.555l-167.73-96.826L1478 163.69v-16.292l48.32-27.888V-73.802l-40.42-23.325h28.76z" fill="#EDEDED"/><path d="M1714.02 226.669l-78.83 45.5-78.83-45.5v-91.018l78.83-45.5 78.83 45.5v91.018z" fill="#EDEDED"/><path d="M1709.12-309.126c0 15.142 11.27 27.681 25.87 29.736v158.165l-104 60.038V58.68L1527 118.718v124.903l103.99 60.038v120.075l108.19 62.451 108.19-62.451V303.659l103.98-60.038V118.718l-103.98-60.037V-61.206l-103.99-60.038v-158.164c14.6-2.056 25.88-14.576 25.88-29.736 0-16.575-13.49-30.057-30.06-30.057-16.6.019-30.08 13.501-30.08 30.075zm-173.73 547.901V123.546l99.63-57.511 99.97 57.699v115.022l-99.8 57.605-99.8-57.586zm203.81 237.718l-99.8-57.605V303.659l99.8-57.624 99.8 57.624v115.229l-99.8 57.605zm203.78-352.947v115.229l-99.8 57.605-99.8-57.605V123.753l99.97-57.7 99.63 57.493zM1839-56.36V58.662l-99.8 57.605-99.8-57.605V-56.36l99.8-57.605L1839-56.36zm-78.13-252.766c0 11.955-9.74 21.666-21.67 21.666-11.96 0-21.67-9.73-21.67-21.666 0-11.954 9.73-21.665 21.67-21.665 11.93-.019 21.67 9.711 21.67 21.665z" fill="#EDEDED"/><path d="M972.807 535.173v141.118l122.223 70.56 122.22-70.56V535.173l-122.22-70.56-122.223 70.56z" fill="#81C0E4"/><path d="M887.192 143.976v100.419l87.726 50.194 87.722-50.21V143.976l-87.722-50.193-87.726 50.193z" fill="#EDEDED"/><path opacity=".5" d="M794.5-14.623V86.34l87.158 50.473 87.175-50.473.016-100.947-87.175-50.49L794.5-14.622z" fill="#EDEDED"/><path d="M980.987-14.611l.016 100.939 86.607 50.485 86.62-50.47V-14.61l-86.62-50.485-86.623 50.485zm730.073 500.796l-205.8 118.793.02 237.605 205.78 118.812 205.8-118.812V604.978l-205.8-118.793z" fill="#EDEDED"/><mask id="a" style="mask-type:alpha" maskUnits="userSpaceOnUse" x="1067" y="159" width="334" height="386"><path d="M1067.49 256.085v192.369l166.64 96.204 166.65-96.204V256.085l-166.65-96.204-166.64 96.204z" fill="#000"/></mask><g mask="url(#a)"><path d="M1400.78 256.085l-166.65-96.204-166.64 96.204v192.369l166.64 96.204 166.65-96.204V256.085z" fill="#E30613"/><path d="M1071.51 180.34c-25.1 1.15-23.52 33.017 13.5 42.011 37.38 9.089 63.03 20.006 63.03 20.006s-43.51-63.526-76.53-62.017zm181.12 209.076c0-12.992-10.53-23.514-23.52-23.514s-23.52 10.522-23.52 23.514c0 12.992 10.53 23.513 23.52 23.513 12.98 0 23.52-10.54 23.52-23.513zm11.5 60.019c11.88 0 21.52-9.636 21.52-21.515 0-11.879-9.64-21.496-21.52-21.496-11.88 0-21.52 9.635-21.52 21.496 0 11.879 9.64 21.515 21.52 21.515zm12 16.008c0 9.674 7.84 17.499 17.5 17.499 9.67 0 17.5-7.844 17.5-17.499 0-9.673-7.85-17.498-17.5-17.498-9.66 0-17.5 7.844-17.5 17.498zm34.02 54.513c8.56 0 15.5-6.939 15.5-15.5 0-8.56-6.94-15.499-15.5-15.499-8.56 0-15.5 6.939-15.5 15.499 0 8.561 6.94 15.5 15.5 15.5zm5.5 35.506c7.45 0 13.51-6.053 13.51-13.501 0-7.448-6.04-13.501-13.51-13.501-7.45 0-13.5 6.053-13.5 13.501 0 7.467 6.05 13.501 13.5 13.501z" fill="#C90C0F"/><path d="M1349.49 429.089c-2-4.035-3.98-8.033-5.94-11.993-2.21-4.242-4.64-7.467-6.93-11.2-3.03-5.186-6.73-10.051-10.44-14.821-16.92-27.945-50.05-62.432-112.85-70.823-32.25-4.3-64.93 5.713-87.43 32.639-22.9 27.379-37.62 68.542-10.73 105.33 30.27 41.389 87.75 31.867 100.4 6.845 16.6-32.791-5.62-66.034-34.13-69.409-28.52-3.375-41.64 13.124-41.64 13.124 18.38-55.513 70.91-61.905 101.68-56.267 30.78 5.619 65.29 33.017 70.16 61.15 4.52 26.097 20.33 18.951 28.89 15.99.51 1.075 1.02 2.112 1.54 3.206.98 2.112 2.04 4.224 3.08 6.336-7.38-.208-20.75 1.169-20.75 14.236 0 18.007 16.88 35.261 27.01 69.032 10.13 33.771-7.75 54.475-6.75 60.773 1.96 12.445 19.08 14.595 29.64 15.443l-.39 8.033c-.02.283-.1.565-.12.867-15.01-11.313-37.56 1.905-32.49 12.049 5.62 11.257 4.13 49.893-9.01 73.162-.15.264-.25.509-.4.773 2.85-12.351 1.38-28.039-11.73-44.048-18.01-22.005-41.02-27.021-41.02-27.021 30.52-92.526-19.52-142.061-19.52-142.061 3.51 33.526-1.99 59.019-17.01 166.065-10.78 76.989 15.88 125.091 31.74 146.134-5.5-2.809-10.95-5.732-16.48-8.541-10.58-16.518-33.23-55.626-34.76-90.076 0 0 14.39-19.384 7.89-42.897-6.51-23.514-15.39-36.77-18.88-50.648-18.07 81.27 15.39 148.643 33.08 177.059l-1.98-1.018c-24.86-20.554-35.08-36.487-35.08-36.487 4-35.525-15.69-66.562-30.51-84.041-22.52-26.512-25.52-49.026-25.52-49.026-8.84 66.034 28.82 120.188 53.82 148.095-9.44-6.109-18.57-12.671-27.11-19.893-17.33-14.708-31.74-31.603-43.23-51.401-10.86-18.574-18.21-39.768-19.67-60.057-.41-10.182 0-20.251 2.47-29.698 2.53-9.391 6.32-18.215 11.47-25.927 5.3-7.599 11.67-14.067 18.65-19.365 6.94-4.846 15.28-9.183 22.42-11.22 7.55-2.206 14.98-2.489 21.18-.396 6.28 1.942 10.84 6.675 13.58 11.842 2.45 5.525 3.05 10.672 1.39 16.291-1.3 4.356-4.31 8.636-7.67 10.466-7.07 4.129-13.35 0-16.01-3.602-2.77-3.79-3.41-6.581-3.55-6.468-.6-1.772-2.54-2.715-4.32-2.112a3.397 3.397 0 00-2.11 4.3c.21-.057.64 3.168 4.08 8.541 1.92 2.527 4.62 5.789 9.29 7.807 4.59 2.017 11.07 2.131 16.77-.867 5.73-3.074 10.18-8.391 12.69-15.802 2.23-6.166 2.24-15.254-1.06-22.853-3.39-7.637-9.97-15.01-19.01-18.366-8.92-3.545-19.16-3.507-28.53-1-9.86 2.64-18.06 6.732-26.93 12.408-.41.283-.77.679-1.19.98.17-.697.38-1.225.53-1.961 1.47-6.977 2.28-15.669.27-25.116-1.87-9.428-7.57-19.29-15.69-26.021-3.81-3.244-8.62-6.355-14.22-8.165-5.59-1.773-12.37-1.867-18.13.679-5.77 2.413-10.09 6.769-12.76 11.389-2.64 4.676-3.95 9.73-3.81 14.557.13 4.808 1.58 9.333 3.81 12.765 2.18 3.47 4.94 5.808 7.24 7.298 2.32 1.508 4.28 2.3 5.58 2.752 1.32.453 2 .698 2 .698 4.05 1.32 8.41-.905 9.73-4.959 1.32-4.054-.91-8.41-4.96-9.711.28-.207-6.92-1.753-6.73-9.032-.15-3.639 2.43-8.749 6.39-10.201 1.92-.773 4.19-.905 6.96-.264 2.75.754 5.66 2.338 8.67 4.676 5.74 4.394 9.47 10.541 11.58 17.216 2.04 6.713 2.44 13.802 2.27 19.968-.29 6.072-1.06 11.258-1.68 14.897-2.96 3.073-5.89 6.203-8.51 9.711-6.37 8.918-11.2 19.195-14.48 30.188-3.21 11.05-4.19 22.797-3.92 34.601 1.58 23.721 9.28 46.688 21.55 68.146 11.52 20.402 27.71 40.031 46.13 55.833 18.42 16.121 39.3 28.68 60.06 39.522 2 1.056 3.96 1.961 5.96 2.998-3.32.415-6.73 1.131-10.22 2.018-7.47 1.659-15.12 4.374-22.59 7.429-14.97 6.109-28.55 14.783-38.21 21.835-9.63 7.033-15.46 12.747-15.46 12.747l-.06.056a3.314 3.314 0 00-.13 4.564 3.31 3.31 0 004.66.245s5.62-5.073 15.27-11.521c9.58-6.374 22.99-14.142 37.34-19.271 7.15-2.584 14.43-4.809 21.39-6.034 3.45-.736 6.81-1.32 10.03-1.528 3.21-.32 6.22-.754 9.02-.641 2.79-.018 5.35-.037 7.61-.056.46.038.76.075 1.19.113 11.96 5.864 23.73 11.615 34.89 17.536 19.14 10.126 36.61 21.194 50.56 34.262 1.55 1.451 2.87 3.054 4.32 4.563-21.12-8.391-51.41-7.788-86.81 7.146-32.38 13.671-46.03 10.993-46.03 10.993 16.5 30.019 74.04 4.997 105.06 5.506 20.99.34 42.19 11.201 53.71 18.196 5.37 14.802 7.05 29.265 4.73 41.502-2.37 12.917-8.84 23.024-15.39 30.095-6.6 7.09-13.05 11.558-17.51 14.311-4.53 2.772-7 3.772-7 3.791a3.4 3.4 0 00-1.94 4.185c.58 1.773 2.49 2.754 4.26 2.188l.11-.038s3.09-.999 8.19-3.601c5.09-2.64 12.54-6.826 20.4-14.425 7.81-7.486 16.14-18.8 19.92-34.035 3.99-15.161 2.32-33.281-3.81-50.723-1.51-4.526-3.21-8.504-5.32-13.369-2.04-4.111-3.98-8.24-6.83-12.785-2.7-4.45-5.68-8.711-8.9-12.859-3.11-14.369-5.36-36.6 5.41-51.459 17.01-23.513 33.02-55.022 2-74.538 7 6.996-6.26 35.148-20.25 58.662-8.68 14.557-7.85 34.638-5.96 47.819-4.77-4.168-9.75-8.127-15.03-11.823 0-.038-.02-.076-.02-.132-.45-4.016-1-10.239-.64-18.159.41-7.9 1.28-17.611 4.05-28.453.64-2.716 1.17-5.544 1.96-8.41.97-2.81 1.96-5.713 3-8.693 1.98-5.977 4.06-12.256 7.3-18.441 3-6.43 6.13-13.124 9.37-20.063 3.17-6.977 6.43-14.18 9.81-21.609 1.6-3.771 3.58-7.354 4.92-11.389 1.25-4.111 2.53-8.259 3.81-12.445 2.51-8.41 5.28-16.952 7.68-25.72 1.51-8.9 3.03-17.95 4.58-27.115.66-4.582 1.81-9.164 2.05-13.84.19-4.695.4-9.39.61-14.142.13-9.466 1.36-19.007.6-28.567-.77-9.541-1.56-19.139-2.36-28.718-.18-4.808-1-9.541-2.11-14.236l-2.92-14.085c-2-9.353-3.53-18.8-7.07-27.625-3.08-8.937-6.13-17.819-9.13-26.587-3.72-8.485-8.11-16.555-11.99-24.663zm-25.95 325.587c-1.12 3.149-2.19 6.204-3.23 9.183-.87 3.036-1.47 6.072-2.19 8.957-3.05 11.521-4.11 22.005-4.62 30.603-.2 3.941-.2 7.429-.09 10.597a327.687 327.687 0 00-8.79-5.223c-9.77-17.838-27.65-56.285-23.97-93.752 5-51.025 47.53-37.015 27.01-12.502 0 0-3.49 19.007 8.5 15.5 2.83-.83 7.73-5.638 11.56-13.011-1.45 9.862 4.51 14.764 10.22 16.612-2.2 4.62-4.43 9.278-6.52 13.671-3.43 6.43-5.73 13.048-7.88 19.365zm-41.4-450.301c79.13 87.285 92.54 156.562 92.54 156.562s33.02-43.897 11.26-110.289c-21.76-66.392-105.44-87.794-105.44-87.794s19.52-12.747 7.88-42.766c-11.63-30.018-45.77-61.772-45.77-61.772s21.01-4.997 29.03-23.514c5.96-13.783.53-34.996 19.52-39.522 15.76-3.752 23 8.995 23 8.995-11.75.754-12.5 11.502-7.99 21.005 4.5 9.504 27.51 14.5 31.02-10.503 3.51-25.022-29.51-46.027-62.03-39.013-64.7 13.954-85.09 127.071 6.98 228.611zm-70.47-12.03c-2.79-3.375-6.26-7.411-10.79-11.521-4.41-4.167-9.75-8.599-15.99-12.747-6.17-4.318-13.28-8.165-21.33-11.955-7.45-3.243-16.37-6.637-25.53-8.805-9.3-2.225-19.37-3.526-30.1-2.64-5.34.528-10.86 1.471-16.41 3.828-5.45 2.357-11.26 5.751-15.48 12.181-4.49 6.316-4.66 16.555-.66 23.004 3.71 6.675 9.14 10.446 14.22 13.124 10.37 5.261 20.59 6.524 30.17 7.146 9.56.509 18.92-.226 27.14-1.169 3.86-.283 7.64-.566 11.29-.83 3.7.038 7.28.095 10.72.132 13.82.717 25.38 2.885 33.36 4.62 7.99 1.867 12.39 3.262 12.39 3.262l12.46 3.998-9.41-13.52c-1.45-1.81-3.15-4.865-6.05-8.108zm-41.74-2.433c-3.73-.32-7.6-.66-11.61-.999-4.08.019-8.3.019-12.64.019-8.16.32-16.2.32-24.51-.717-8.15-1.056-16.66-3.092-22.86-6.958-3.09-1.847-5.41-4.28-6.11-6.128-.77-1.923-.23-2.451.4-4.242 1.79-3.885 9.59-7.863 17.44-8.882 8.01-1.282 16.63-.886 24.87.51 8.43 1.414 15.96 3.676 23.8 6.448 7 2.753 13.86 5.827 19.73 9.353a107.673 107.673 0 0115.37 10.578c3.36 2.659 6.01 5.374 8.37 7.769-8.03-2.301-18.91-5.091-32.25-6.751z" fill="#C90C0F"/><path d="M1306.53 162.917c-2.91 7.75-2.19 14.707-.89 20.553 2.85 11.785 8.67 20.515 14.5 28.34 5.92 7.713 12.66 14.444 18.73 20.082 2.71 2.715 5.34 5.355 7.88 7.92 2.36 2.809 4.62 5.525 6.81 8.146 8.39 10.842 14.24 20.967 18.1 28.133 1.79 3.62 3.21 6.449 4.17 8.391.91 1.998 1.38 3.054 1.38 3.054l6.28 13.86 4.9-17.763c.51-2.281 1.79-5.581 2.45-9.937.81-4.337 1.7-9.654 1.98-15.801.4-6.129.4-13.124-.43-20.667-.62-7.58-2.21-15.575-4.51-24.343-2.24-7.787-5.39-16.989-9.64-25.512-4.29-8.693-9.82-17.442-17.59-25.305-3.94-3.903-8.34-7.636-13.96-10.521-5.54-2.791-12.23-5.242-20.55-4.281-8.32.585-17.09 7.788-19.61 15.651zm39.58 14.802c5.96 5.034 11.18 11.69 15.45 18.743 4.35 7.24 7.48 14.236 10.48 22.024 2.41 6.957 4.56 14.104 5.66 20.779 1.32 6.637 1.85 12.86 1.96 18.347.09 2.395-.17 4.601-.26 6.713-3.27-7.053-7.51-15.67-13.53-25.098-2.15-3.092-4.39-6.335-6.71-9.673-2.64-3.168-5.37-6.449-8.18-9.824-5.45-6.09-10.47-12.162-14.9-19.12-4.3-6.826-8.04-14.538-8.89-21.288-.5-3.319-.03-6.28.74-7.392.81-1.207.74-.377 1.83-1.075 2.85-1.131 10.71 1.716 16.35 6.864zm-234.07 175.927c8.64-25.135 40.9-37.505 40.9-37.505-24.38.754-44.65-1.508-68.28 27.002-23.61 28.491 11.86 55.72 27.38 10.503zm77.7-240.471c-3.81 42.124 7.58 63.865 26.66 83.513 0 0-9.33-43.275 3.89-70.88 23.76-49.686-26.76-54.72-30.55-12.633zm68.9 195.669s-3.01-7.448-8.8-20.27c-5.96-12.728-14.24-31.056-25.65-52.401-11.35-21.364-25.35-45.953-43.24-70.937-9.11-12.407-18.84-25.154-31.42-36.75-6.38-5.733-13.3-11.408-22.61-15.632-4.68-2.018-10.17-3.734-16.56-3.62-6.41.056-13.09 2.319-18.29 6.448-1.7 1.301-2.27 1.905-2.98 2.546-1.62 1.622-2.53 2.734-3.64 4.299-2.06 3.036-3.47 6.524-4.11 9.9-1.32 6.825-.17 12.52 1.18 17.423 2.95 9.786 7.51 17.272 12.15 24.418 9.41 14.104 20.23 25.833 30.81 36.939 21.35 21.986 42.83 40.352 61.63 55.55 18.73 15.274 35.16 26.908 46.49 35.204 11.45 8.184 18.26 12.54 18.26 12.54l12.22 7.825-5.44-13.482zm-59.87-55.437c-17.26-16.405-37.28-35.676-56.99-57.417-9.79-10.842-19.41-22.533-27.46-34.657-3.88-6.015-7.39-12.426-8.92-17.97-.77-2.696-.94-5.148-.62-6.185.13-.547.28-.792.45-1.074.04-.057.45-.453.21-.283.73-.717 1.6-1.509 1.54-1.377 2.14-1.64 4.91-2.131 10.51.151 5.28 2.282 11.01 6.524 16.31 11.276 10.67 9.654 20.52 21.119 29.44 32.621 17.88 23.136 32.98 46.461 45.79 66.505a2607.723 2607.723 0 0125.65 41.653c-9.66-8.787-21.9-20.119-35.91-33.243z" fill="#C90C0F"/></g><mask id="b" style="mask-type:alpha" maskUnits="userSpaceOnUse" x="1253" y="456" width="336" height="391"><path d="M1253.95 553.973v195.103l168.97 97.58 165.86-95.751V552.162l-165.86-95.751-168.97 97.562z" fill="#000"/></mask><g mask="url(#b)"><path d="M1253.95 553.973v195.103l168.97 97.58 165.86-95.751V552.162l-165.86-95.751-168.97 97.562z" fill="#0081C9"/><path d="M1464.05 862.024s29.27 13.124 54.79-25.512c0 0-27.01-31.509-64.54-2.244-37.53 29.264-27 66.769-82.92 80.289 0 0 31.85 17.555 62.67-1.886 31.51-19.893 30-50.647 30-50.647zm-163.09-79.78c9.45-19.29 11.02-27.021 11.02-27.021s-39.53.999-45.04 25.512c-5.49 24.513 21.03 28.02 34.02 1.509zm-13.99-288.63c-20.33-14.764-30.15 14.783-10.94 37.222 13.96 16.311 20.44 20.798 20.44 20.798s10.83-43.274-9.5-58.02zm227.11-31.998c6.36 0 11.51-5.148 11.51-11.503 0-6.354-5.15-11.502-11.51-11.502-6.35 0-11.5 5.148-11.5 11.502 0 6.336 5.15 11.503 11.5 11.503z" fill="#0069B4"/><path d="M1420.53 841.018c34.51-54.022 80.3-63.771 106.55-38.259 26.27 25.513-1.51 52.514-1.51 52.514s36.39-21.005 12.76-57.775c-19.31-30.037-80.67-27.001-110.3-10.88-34.09 18.555-35.51 40.635-35.51 40.635-56.54 1.509-53.54 43.011-53.54 43.011-36.51-33.017-64.78-2.998-64.78-2.998 48.04 84.041 111.81 27.775 146.33-26.248zm-91.17-20.76c0-6.317-3.75-11.653-9.09-14.218.76-3.262 1.74-7.014 3.12-11.049 1.22.32 2.39.754 3.71.754 8.36 0 15.13-6.769 15.13-15.123 0-4.864-2.46-9.013-6.04-11.785 2.64-3.997 5.39-8.07 8.9-11.822.17-.208.38-.378.55-.585 1.79.867 3.73 1.433 5.84 1.433 7.53 0 13.64-6.109 13.64-13.633 0-1.697-.4-3.3-.96-4.808 3.96-2.885 7.97-5.732 12.33-8.089 2.11 1.98 4.9 3.243 8.03 3.243 6.49 0 11.75-5.261 11.75-11.747 0-.208-.11-.378-.11-.585 4.64-1.546 9.13-3.394 13.69-4.695 1.89 2.96 5.04 5.016 8.81 5.016 5.34 0 9.58-3.998 10.33-9.146 1.7-.339 3.42-.735 5.09-.942 3.89-.396 7.38-.755 10.96-1.113 1.49 3.036 4.55 5.185 8.15 5.185 4.09 0 7.43-2.734 8.58-6.448 6.03-.095 11.3.207 15.33.019 6.26 0 9.85.018 9.85.018h.22a2.47 2.47 0 002.47-2.432c.04-1.358-1.05-2.489-2.41-2.527 0 0-3.64-.075-10-.188-4.07.113-9.39-.264-15.46-.283-1.17-3.696-4.51-6.43-8.58-6.43-4.43 0-7.96 3.224-8.79 7.41-3.58.302-7.26.604-11.14.924-1.65.17-3.34.547-5.02.83-1.7-3.62-5.32-6.166-9.58-6.166-5.7 0-10.26 4.507-10.52 10.145-4.74 1.263-9.43 3.092-14.26 4.601-2.13-2.942-5.43-4.978-9.36-4.978-6.48 0-11.74 5.26-11.74 11.747 0 .829.3 1.546.47 2.319-4.72 2.433-9.13 5.45-13.47 8.504-2.32-1.81-5.09-3.073-8.26-3.073-7.52 0-13.63 6.109-13.63 13.633 0 2.583.92 4.864 2.17 6.92-.23.264-.53.49-.74.773-4.22 4.393-7.52 9.202-10.69 13.859-.51-.056-.96-.302-1.49-.302-8.36 0-15.13 6.77-15.13 15.123 0 3.865 1.57 7.316 3.95 9.975a116.184 116.184 0 00-4.32 14.161c-7.85.98-14 7.391-14 15.499 0 8.768 7.11 15.877 15.88 15.877 8.73.076 15.84-7.033 15.84-15.801zm71.16-161.069s-92.05-22.514-116.08-104.047c-19.01 34.506 0 65.034 0 65.034-14.99 6.939-24.06 43.35 6 55.531 0 0-17.5 10.013-13.01 37.524 4.5 27.511 32.02 36.015 32.02 36.015s5.02-75.047 91.07-90.057z" fill="#0069B4"/><path d="M1548.42 305.714c-2-4.035-3.98-8.033-5.94-11.993-2.2-4.242-4.64-7.467-6.92-11.2-3.03-5.186-6.73-10.05-10.45-14.821-16.91-27.945-50.05-62.432-112.84-70.823-32.25-4.3-64.93 5.713-87.43 32.639-22.9 27.379-37.63 68.542-10.73 105.33 30.27 41.389 87.75 31.867 100.4 6.845 16.6-32.791-5.62-66.034-34.13-69.409-28.52-3.375-41.64 13.124-41.64 13.124 18.38-55.512 70.9-61.905 101.68-56.267 30.78 5.619 65.29 33.017 70.15 61.15 4.53 26.097 20.33 18.951 28.9 15.99.51 1.075 1.01 2.112 1.54 3.206.98 2.112 2.04 4.224 3.08 6.336-7.38-.208-20.75 1.169-20.75 14.236 0 18.007 16.88 35.261 27.01 69.032 10.12 33.771-7.75 54.475-6.75 60.773 1.96 12.445 19.08 14.595 29.64 15.443l-.39 8.033c-.02.283-.1.565-.12.867-15.01-11.313-37.56 1.924-32.49 12.049 5.62 11.257 4.13 49.893-9.02 73.162-.15.264-.24.509-.39.773 2.85-12.351 1.38-28.039-11.73-44.048-18.01-22.005-41.02-27.021-41.02-27.021 30.51-92.526-19.52-142.061-19.52-142.061 3.51 33.526-2 59.019-17.01 166.065-10.78 76.989 15.88 125.091 31.74 146.135-5.5-2.791-10.96-5.733-16.48-8.542-10.58-16.518-33.23-55.626-34.76-90.076 0 0 14.39-19.384 7.89-42.897-6.51-23.514-15.39-36.77-18.88-50.648-18.07 81.27 15.39 148.643 33.08 177.059l-1.98-1.018c-24.86-20.553-35.08-36.487-35.08-36.487 4-35.525-15.69-66.562-30.51-84.041-22.52-26.512-25.52-49.026-25.52-49.026-8.84 66.034 28.82 120.188 53.82 148.095-9.45-6.109-18.57-12.671-27.12-19.893-17.33-14.707-31.73-31.602-43.22-51.401-10.86-18.574-18.22-39.768-19.67-60.057-.41-10.182 0-20.251 2.47-29.698 2.53-9.391 6.32-18.215 11.47-25.927 5.3-7.599 11.67-14.067 18.65-19.365 6.94-4.846 15.27-9.183 22.42-11.22 7.55-2.206 14.98-2.489 21.18-.396 6.28 1.942 10.84 6.675 13.58 11.842 2.45 5.525 3.05 10.672 1.39 16.291-1.3 4.356-4.32 8.637-7.67 10.466-7.07 4.129-13.35 0-16.01-3.602-2.78-3.79-3.42-6.581-3.55-6.468-.6-1.772-2.54-2.715-4.32-2.111-1.77.603-2.71 2.545-2.11 4.318.21-.057.64 3.167 4.07 8.541 1.93 2.527 4.62 5.789 9.3 7.807 4.58 2.036 11.07 2.131 16.77-.868 5.73-3.073 10.18-8.391 12.69-15.801 2.22-6.166 2.24-15.255-1.06-22.853-3.39-7.637-9.97-15.01-19.01-18.366-8.92-3.545-19.16-3.507-28.53-1-9.86 2.64-18.07 6.732-26.93 12.408-.41.282-.77.678-1.19.98.17-.698.38-1.226.53-1.961 1.47-6.977 2.28-15.669.26-25.116-1.86-9.428-7.56-19.29-15.69-26.022-3.81-3.243-8.61-6.354-14.22-8.164-5.58-1.773-12.37-1.867-18.12.679-5.77 2.413-10.09 6.769-12.77 11.389-2.64 4.676-3.94 9.729-3.8 14.557.13 4.808 1.58 9.333 3.8 12.765 2.19 3.47 4.95 5.808 7.25 7.297 2.32 1.509 4.28 2.301 5.58 2.753 1.32.453 2 .698 2 .698 4.05 1.32 8.41-.905 9.73-4.959 1.32-4.054-.91-8.41-4.96-9.711.28-.207-6.92-1.754-6.73-9.032-.15-3.639 2.43-8.749 6.39-10.201 1.92-.773 4.19-.905 6.96-.264 2.75.754 5.66 2.338 8.67 4.676 5.74 4.394 9.47 10.541 11.58 17.216 2.04 6.713 2.43 13.802 2.26 19.968-.28 6.072-1.05 11.257-1.67 14.897-2.96 3.073-5.89 6.203-8.51 9.71-6.37 8.919-11.2 19.196-14.48 30.189-3.21 11.05-4.19 22.797-3.92 34.601 1.58 23.721 9.27 46.688 21.55 68.127 11.52 20.402 27.7 40.031 46.13 55.833 18.42 16.122 39.3 28.68 60.06 39.522 2 1.056 3.96 1.961 5.96 2.998-3.32.415-6.73 1.131-10.22 2.018-7.47 1.659-15.12 4.374-22.59 7.429-14.98 6.109-28.55 14.783-38.21 21.835-9.64 7.034-15.46 12.747-15.46 12.747l-.06.056a3.314 3.314 0 00-.13 4.564c1.22 1.357 3.3 1.452 4.66.245 0 0 5.62-5.073 15.27-11.521 9.58-6.374 22.99-14.142 37.34-19.271 7.15-2.583 14.43-4.808 21.39-6.034 3.45-.735 6.81-1.32 10.03-1.527 3.21-.321 6.22-.755 9.01-.641 2.8-.019 5.36-.057 7.62-.076.46.038.76.075 1.19.113 11.96 5.864 23.73 11.615 34.89 17.536 19.14 10.126 36.6 21.194 50.56 34.262 1.55 1.452 2.87 3.054 4.32 4.563-21.12-8.391-51.41-7.788-86.81 7.146-32.38 13.671-46.03 10.993-46.03 10.993 16.5 30.019 74.04 4.997 105.06 5.506 20.99.34 42.19 11.201 53.71 18.196 5.37 14.802 7.05 29.265 4.73 41.503-2.37 12.916-8.84 23.023-15.39 30.075-6.6 7.09-13.05 11.559-17.52 14.312-4.52 2.772-6.99 3.771-6.99 3.79a3.416 3.416 0 00-1.95 4.186c.59 1.772 2.49 2.753 4.27 2.187l.11-.038s3.09-.999 8.18-3.601c5.1-2.64 12.55-6.845 20.41-14.425 7.81-7.486 16.14-18.799 19.91-34.035 4-15.16 2.32-33.262-3.81-50.723-1.5-4.525-3.2-8.504-5.31-13.369-2.04-4.11-3.98-8.24-6.83-12.784-2.7-4.45-5.68-8.712-8.9-12.86-3.11-14.368-5.36-36.6 5.41-51.458 17.01-23.514 33.02-55.022 2-74.538 7 6.995-6.26 35.148-20.25 58.661-8.68 14.557-7.85 34.639-5.96 47.819-4.77-4.167-9.75-8.127-15.03-11.823 0-.038-.02-.075-.02-.132-.46-4.016-1-10.239-.64-18.158.41-7.901 1.28-17.612 4.05-28.454.64-2.715 1.17-5.544 1.96-8.41.96-2.809 1.96-5.713 3-8.692 1.98-5.978 4.06-12.257 7.3-18.442 3-6.429 6.13-13.123 9.37-20.062 3.17-6.977 6.43-14.18 9.81-21.609 1.6-3.772 3.58-7.354 4.92-11.39 1.24-4.11 2.53-8.259 3.81-12.445 2.51-8.409 5.28-16.951 7.67-25.7 1.51-8.9 3.04-17.951 4.59-27.115.66-4.582 1.81-9.164 2.05-13.841.19-4.695.4-9.39.61-14.142.13-9.465 1.35-19.007.6-28.548-.77-9.541-1.57-19.139-2.36-28.718-.19-4.808-1-9.541-2.11-14.236l-2.92-14.085c-2-9.353-3.53-18.8-7.07-27.624-3.08-8.938-6.13-17.819-9.13-26.588-3.72-8.485-8.11-16.555-12-24.663zm-25.95 325.587c-1.11 3.149-2.18 6.204-3.22 9.183-.87 3.036-1.47 6.072-2.19 8.957-3.05 11.521-4.11 22.005-4.62 30.603-.21 3.941-.21 7.429-.09 10.597a327.687 327.687 0 00-8.79-5.223c-9.77-17.838-27.65-56.285-23.97-93.752 5-51.025 47.52-37.015 27.01-12.502 0 0-3.49 19.007 8.5 15.5 2.83-.83 7.73-5.638 11.56-13.011-1.45 9.862 4.51 14.765 10.22 16.612-2.2 4.62-4.43 9.278-6.52 13.671-3.45 6.43-5.74 13.048-7.89 19.365z" fill="#0069B4"/></g><path d="M1106.46 554.496h-30.42v35.393h30.42v30.396h35.37v-30.396h30.42v-35.393h-30.42v-30.415h-35.37v30.415z" fill="#EDEDED"/><path d="M1460.26 368.58h-30.42v35.374h30.42v30.414h35.38v-30.414h30.42V368.58h-30.42v-30.415h-35.38v30.415z" fill="#C90C0F"/></g><defs><clipPath id="clip0_235_34338"><path fill="#fff" d="M0 0h1600v961H0z"/></clipPath></defs></svg>