<svg width="698" height="1035" fill="none" xmlns="http://www.w3.org/2000/svg"><path fill-rule="evenodd" clip-rule="evenodd" d="M463.486 598.735l15.713-27.039.801-1.328-.801-1.343L463.491 542h-33.003l-.589 1.053-15.231 26.212h-30.361l-15.197-26.153-.715-1.112h-32.91L319 570.368l16.485 28.367h31.695L383.028 626h32.969l15.848-27.265h31.641zM384.307 623.8h30.416l15.181-26.123-15.231-26.212h-30.361l-15.206 26.167 15.201 26.168zm-62.749-53.437l15.206 26.167h30.416l15.211-26.167-15.211-26.168h-30.416l-15.206 26.168zm140.653-26.168H431.85l-15.206 26.168 15.206 26.167h30.361l15.206-26.167-15.206-26.168z" fill="#EDEDED"/><g opacity=".8" fill="#EDEDED"><path d="M44.061 131.397v47.74L85.762 203l41.701-23.87v-47.733l-41.7-23.863-41.702 23.863z"/><path opacity=".5" d="M0 55.996v47.999l41.431 23.996 41.439-23.996.007-47.992L41.44 32 0 55.996z"/><path d="M88.647 56.002l.008 47.987 41.169 24.002L171 103.997V56.002L129.824 32 88.647 56.002z"/></g><mask id="a" style="mask-type:alpha" maskUnits="userSpaceOnUse" x="403" y="220" width="295" height="341"><path d="M403 305.163v170.293l147.492 85.164L698 475.456V305.163L550.492 220 403 305.163z" fill="#000"/></mask><g mask="url(#a)"><path d="M698 305.163L550.492 220 403 305.163v170.293l147.492 85.164L698 475.456V305.163z" fill="#E30613"/><path d="M406.555 238.111c-22.217 1.018-20.815 29.228 11.952 37.19 33.084 8.046 55.785 17.71 55.785 17.71s-38.509-56.235-67.737-54.9zm160.311 185.082c0-11.501-9.314-20.815-20.815-20.815-11.501 0-20.815 9.314-20.815 20.815 0 11.501 9.314 20.815 20.815 20.815 11.485 0 20.815-9.331 20.815-20.815zm10.183 53.131c10.516 0 19.045-8.529 19.045-19.045 0-10.516-8.529-19.029-19.045-19.029-10.516 0-19.046 8.529-19.046 19.029 0 10.516 8.53 19.045 19.046 19.045zm10.616 14.172c0 8.563 6.944 15.49 15.49 15.49 8.563 0 15.491-6.944 15.491-15.49 0-8.563-6.944-15.49-15.491-15.49-8.546 0-15.49 6.944-15.49 15.49zm30.113 48.257c7.578 0 13.721-6.143 13.721-13.721 0-7.579-6.143-13.721-13.721-13.721-7.579 0-13.721 6.142-13.721 13.721 0 7.578 6.142 13.721 13.721 13.721zm4.874 31.431c6.593 0 11.951-5.358 11.951-11.952 0-6.593-5.341-11.951-11.951-11.951-6.594 0-11.952 5.358-11.952 11.951 0 6.61 5.358 11.952 11.952 11.952z" fill="#C90C0F"/><path d="M652.598 458.313l-5.258-10.616c-1.953-3.756-4.107-6.61-6.126-9.915-2.688-4.59-5.959-8.897-9.248-13.12-14.973-24.738-44.301-55.268-99.886-62.696-28.543-3.805-57.47 5.058-77.384 28.895-20.264 24.237-33.301 60.675-9.498 93.242 26.791 36.639 77.668 28.209 88.869 6.059 14.689-29.028-4.974-58.456-30.213-61.444-25.238-2.988-36.856 11.618-36.856 11.618 16.275-49.142 62.762-54.8 90.004-49.809 27.241 4.974 57.788 29.228 62.095 54.132 4.006 23.102 17.994 16.776 25.572 14.155.451.952.901 1.87 1.369 2.838.868 1.869 1.802 3.739 2.72 5.608-6.526-.183-18.361 1.035-18.361 12.603 0 15.941 14.94 31.214 23.903 61.11 8.964 29.895-6.86 48.223-5.976 53.799 1.736 11.016 16.893 12.919 26.24 13.67-.116 2.371-.233 4.758-.35 7.111-.017.251-.083.501-.1.768-13.287-10.015-33.251 1.686-28.761 10.666 4.974 9.966 3.656 44.168-7.979 64.766-.133.234-.217.45-.35.684 2.52-10.933 1.218-24.821-10.383-38.993-15.941-19.479-36.305-23.919-36.305-23.919 27.008-81.909-17.276-125.759-17.276-125.759 3.104 29.679-1.77 52.246-15.057 147.008-9.547 68.154 14.055 110.735 28.093 129.364-4.874-2.488-9.698-5.075-14.589-7.562-9.364-14.622-29.411-49.242-30.763-79.738 0 0 12.736-17.16 6.977-37.975s-13.621-32.549-16.709-44.835c-15.991 71.943 13.621 131.584 29.278 156.739l-1.752-.901c-22.001-18.195-31.048-32.299-31.048-32.299 3.539-31.448-13.888-58.924-27.008-74.397-19.93-23.469-22.584-43.4-22.584-43.4-7.829 58.456 25.505 106.396 47.639 131.1-8.363-5.408-16.442-11.217-24.003-17.61-15.34-13.02-28.093-27.976-38.258-45.503-9.615-16.441-16.125-35.203-17.41-53.164-.367-9.014 0-17.927 2.186-26.29 2.237-8.313 5.592-16.125 10.149-22.952 4.691-6.727 10.333-12.452 16.509-17.143 6.142-4.29 13.52-8.129 19.847-9.932 6.676-1.953 13.253-2.203 18.745-.35 5.558 1.719 9.598 5.909 12.018 10.483 2.17 4.89 2.704 9.447 1.235 14.422-1.151 3.855-3.822 7.645-6.793 9.264-6.26 3.655-11.818 0-14.172-3.188-2.454-3.356-3.021-5.826-3.138-5.726a3.013 3.013 0 00-3.822-1.869 3.002 3.002 0 00-1.87 3.805c.184-.05.567 2.805 3.605 7.562 1.703 2.237 4.09 5.124 8.23 6.91 4.056 1.787 9.798 1.887 14.839-.767 5.074-2.721 9.014-7.428 11.234-13.988 1.969-5.459 1.986-13.504-.935-20.231-3.005-6.761-8.83-13.287-16.826-16.258-7.895-3.139-16.959-3.105-25.255-.885-8.73 2.337-15.991 5.959-23.836 10.983-.367.251-.685.601-1.052.868.15-.617.334-1.085.468-1.736 1.302-6.176 2.019-13.871.233-22.234-1.652-8.346-6.693-17.076-13.888-23.035-3.371-2.871-7.628-5.625-12.585-7.227-4.941-1.569-10.95-1.653-16.042.601-5.107 2.136-8.93 5.992-11.3 10.082-2.337 4.139-3.489 8.613-3.372 12.886.117 4.256 1.402 8.263 3.372 11.3 1.936 3.072 4.373 5.142 6.41 6.46a22.4 22.4 0 004.941 2.437c1.168.401 1.769.618 1.769.618 3.589 1.168 7.445-.801 8.613-4.39 1.168-3.589-.801-7.445-4.39-8.596.25-.184-6.126-1.553-5.959-7.996-.134-3.222 2.153-7.745 5.659-9.03 1.702-.685 3.705-.802 6.159-.234 2.437.668 5.008 2.07 7.678 4.14 5.075 3.889 8.38 9.33 10.249 15.239 1.803 5.943 2.154 12.219 2.003 17.677-.25 5.375-.934 9.966-1.485 13.187-2.621 2.721-5.208 5.492-7.528 8.597-5.642 7.895-9.916 16.992-12.82 26.724-2.838 9.781-3.706 20.18-3.472 30.63 1.402 20.998 8.213 41.329 19.079 60.325 10.199 18.061 24.521 35.437 40.829 49.425 16.308 14.272 34.787 25.389 53.165 34.987 1.769.935 3.505 1.736 5.274 2.654-2.938.367-5.959 1.002-9.047 1.786-6.61 1.469-13.387 3.873-19.997 6.577-13.254 5.408-25.272 13.087-33.818 19.329-8.53 6.227-13.688 11.284-13.688 11.284l-.05.05a2.931 2.931 0 00-.117 4.04 2.926 2.926 0 004.123.217s4.974-4.49 13.521-10.199c8.479-5.642 20.348-12.519 33.05-17.059 6.327-2.287 12.77-4.257 18.929-5.342 3.055-.651 6.026-1.168 8.88-1.352 2.838-.284 5.509-.668 7.979-.567 2.471-.017 4.741-.034 6.744-.05.4.033.667.066 1.051.1 10.583 5.191 20.999 10.282 30.881 15.523 16.942 8.964 32.399 18.762 44.751 30.33 1.369 1.285 2.538 2.704 3.823 4.039-18.695-7.428-45.503-6.893-76.834 6.327-28.66 12.102-40.745 9.731-40.745 9.731 14.605 26.574 65.533 4.424 92.991 4.874 18.579.301 37.341 9.915 47.54 16.108 4.757 13.104 6.242 25.906 4.189 36.74-2.103 11.434-7.828 20.381-13.62 26.64-5.843 6.277-11.551 10.233-15.507 12.67-4.007 2.453-6.193 3.338-6.193 3.355a3.013 3.013 0 00-1.72 3.705 3.019 3.019 0 003.773 1.937l.1-.034s2.738-.884 7.244-3.188c4.507-2.337 11.101-6.042 18.061-12.769 6.911-6.627 14.289-16.642 17.627-30.13 3.539-13.42 2.053-29.461-3.372-44.902-1.335-4.006-2.837-7.528-4.707-11.834-1.803-3.639-3.522-7.295-6.042-11.317-2.387-3.94-5.025-7.712-7.879-11.385-2.754-12.719-4.741-32.399 4.791-45.552 15.056-20.815 29.227-48.708 1.769-65.984 6.193 6.192-5.542 31.114-17.927 51.929-7.679 12.886-6.944 30.663-5.275 42.331-4.223-3.689-8.63-7.194-13.304-10.466 0-.033-.016-.067-.016-.117a100.253 100.253 0 01-.568-16.074c.367-6.994 1.135-15.591 3.589-25.189.567-2.403 1.035-4.907 1.736-7.444.851-2.487 1.736-5.058 2.654-7.695 1.753-5.292 3.589-10.85 6.46-16.325 2.654-5.692 5.425-11.618 8.296-17.761 2.804-6.176 5.692-12.552 8.68-19.129 1.418-3.338 3.171-6.51 4.356-10.082 1.102-3.639 2.237-7.311 3.372-11.017 2.22-7.444 4.674-15.006 6.794-22.768 1.335-7.878 2.687-15.891 4.056-24.003.584-4.056 1.602-8.112 1.819-12.252.167-4.156.351-8.313.535-12.519.116-8.38 1.201-16.826.534-25.289-.685-8.446-1.386-16.942-2.087-25.422-.167-4.256-.884-8.446-1.869-12.602l-2.588-12.469c-1.769-8.28-3.121-16.642-6.259-24.454-2.721-7.912-5.425-15.774-8.079-23.536-3.289-7.512-7.178-14.656-10.616-21.834zm-22.969 288.223c-.985 2.788-1.936 5.492-2.854 8.129-.768 2.688-1.302 5.375-1.936 7.929-2.704 10.199-3.639 19.48-4.09 27.091a104.911 104.911 0 00-.083 9.381 281.714 281.714 0 00-7.779-4.623c-8.646-15.791-24.471-49.826-21.216-82.993 4.424-45.169 42.065-32.767 23.904-11.067 0 0-3.088 16.825 7.528 13.721 2.504-.735 6.843-4.991 10.232-11.518-1.285 8.73 3.989 13.07 9.047 14.706-1.953 4.089-3.923 8.212-5.775 12.102-3.038 5.692-5.075 11.55-6.978 17.142zM592.99 347.912c70.04 77.268 81.908 138.595 81.908 138.595s29.228-38.86 9.966-97.633c-19.263-58.773-93.326-77.718-93.326-77.718s17.276-11.284 6.977-37.858c-10.299-26.574-40.511-54.683-40.511-54.683s18.594-4.424 25.689-20.815c5.274-12.202.467-30.981 17.276-34.987 13.955-3.322 20.364 7.962 20.364 7.962-10.399.668-11.066 10.182-7.077 18.595 3.989 8.413 24.354 12.836 27.459-9.297 3.104-22.151-26.124-40.746-54.901-34.536-57.271 12.352-75.315 112.488 6.176 202.375zm-62.379-10.65c-2.471-2.988-5.542-6.56-9.548-10.199-3.906-3.688-8.63-7.611-14.155-11.283-5.458-3.823-11.751-7.228-18.879-10.583-6.593-2.871-14.489-5.876-22.601-7.795-8.229-1.97-17.143-3.122-26.641-2.337-4.724.467-9.614 1.302-14.522 3.388-4.824 2.087-9.965 5.091-13.704 10.783-3.973 5.592-4.123 14.656-.584 20.365 3.288 5.909 8.095 9.247 12.586 11.617 9.18 4.657 18.227 5.776 26.707 6.327 8.463.45 16.742-.201 24.02-1.035 3.422-.251 6.76-.501 9.999-.735 3.271.034 6.443.084 9.481.117 12.235.634 22.467 2.554 29.528 4.09 7.078 1.652 10.967 2.887 10.967 2.887l11.033 3.539-8.329-11.968c-1.285-1.602-2.788-4.307-5.358-7.178zm-36.94-2.153c-3.305-.284-6.727-.584-10.282-.885-3.606.017-7.345.017-11.184.017-7.228.284-14.339.284-21.7-.634-7.211-.935-14.739-2.738-20.231-6.16-2.737-1.635-4.79-3.789-5.408-5.425-.684-1.702-.2-2.17.351-3.755 1.585-3.439 8.496-6.961 15.44-7.862 7.094-1.135 14.722-.785 22.017.45 7.461 1.252 14.121 3.255 21.065 5.709 6.193 2.437 12.269 5.158 17.46 8.279a95.33 95.33 0 0113.604 9.365c2.971 2.353 5.325 4.757 7.412 6.877-7.111-2.037-16.743-4.507-28.544-5.976z" fill="#C90C0F"/><path d="M614.573 222.687c-2.571 6.861-1.936 13.02-.785 18.195 2.521 10.432 7.679 18.161 12.837 25.088 5.241 6.827 11.2 12.786 16.575 17.777a2606.05 2606.05 0 016.977 7.011c2.087 2.487 4.09 4.891 6.026 7.211 7.428 9.598 12.603 18.561 16.025 24.904 1.585 3.205 2.837 5.709 3.688 7.428.802 1.77 1.219 2.705 1.219 2.705l5.559 12.268 4.339-15.724c.451-2.019 1.586-4.941 2.17-8.796.718-3.84 1.503-8.547 1.753-13.988.351-5.425.351-11.618-.384-18.295-.551-6.71-1.953-13.788-3.989-21.55-1.987-6.893-4.774-15.039-8.53-22.584-3.806-7.695-8.697-15.44-15.574-22.401-3.488-3.455-7.378-6.76-12.352-9.314-4.907-2.47-10.833-4.64-18.194-3.789-7.362.517-15.123 6.894-17.36 13.854zm35.037 13.104c5.274 4.456 9.898 10.349 13.671 16.592 3.855 6.409 6.626 12.602 9.28 19.496 2.137 6.159 4.04 12.486 5.008 18.395 1.169 5.875 1.636 11.384 1.736 16.241.083 2.12-.15 4.073-.234 5.943-2.887-6.243-6.643-13.872-11.968-22.218-1.903-2.737-3.889-5.608-5.942-8.563-2.337-2.804-4.758-5.708-7.245-8.696-4.824-5.392-9.264-10.767-13.186-16.926-3.806-6.043-7.111-12.87-7.863-18.846-.45-2.937-.033-5.558.651-6.543.718-1.068.651-.334 1.62-.951 2.52-1.002 9.481 1.519 14.472 6.076zM442.427 391.529c7.645-22.251 36.205-33.201 36.205-33.201-21.583.668-39.527-1.335-60.442 23.903-20.899 25.222 10.499 49.325 24.237 9.298zm68.771-212.875c-3.372 37.29 6.711 56.536 23.603 73.929 0 0-8.263-38.308 3.439-62.746 21.032-43.983-23.687-48.44-27.042-11.183zm60.994 173.214s-2.671-6.594-7.796-17.944c-5.274-11.268-12.602-27.492-22.701-46.388-10.049-18.912-22.434-40.679-38.275-62.796-8.062-10.983-16.675-22.267-27.809-32.533-5.642-5.074-11.768-10.098-20.014-13.837-4.14-1.786-8.997-3.305-14.656-3.205-5.675.05-11.584 2.053-16.191 5.708-1.502 1.152-2.003 1.686-2.637 2.254-1.436 1.435-2.237 2.42-3.222 3.806-1.819 2.687-3.071 5.775-3.639 8.763-1.168 6.043-.15 11.084 1.052 15.424 2.604 8.663 6.643 15.29 10.75 21.616 8.329 12.486 17.91 22.868 27.274 32.7 18.896 19.463 37.908 35.721 54.55 49.175 16.576 13.52 31.115 23.819 41.146 31.164 10.133 7.244 16.158 11.1 16.158 11.1l10.817 6.927-4.807-11.934zm-52.998-49.075c-15.273-14.522-33-31.582-50.444-50.828-8.663-9.598-17.176-19.947-24.303-30.68-3.439-5.325-6.544-11-7.896-15.908-.684-2.387-.834-4.556-.55-5.475.116-.484.25-.701.4-.951.034-.05.401-.401.184-.25.651-.635 1.419-1.336 1.369-1.219 1.886-1.452 4.339-1.886 9.297.134 4.674 2.019 9.748 5.775 14.439 9.982 9.448 8.546 18.161 18.695 26.056 28.877 15.824 20.481 29.195 41.129 40.529 58.873a2251.4 2251.4 0 0122.701 36.873c-8.546-7.779-19.38-17.811-31.782-29.428z" fill="#C90C0F"/></g><path fill-rule="evenodd" clip-rule="evenodd" d="M434.134 170.511l31.867 18.544 1.566.945 1.582-.945L501 170.517V131.57l-1.241-.696-30.893-17.973v-35.83l30.823-17.935 1.311-.844V19.454L467.567 0l-33.433 19.454v37.404L402 75.561v38.908l32.134 18.702v37.34zm-29.541-93.44v35.894l30.788 17.915 30.892-17.974v-35.83l-30.84-17.944-30.84 17.938zm62.98-74.052l-30.84 17.945v35.895l30.84 17.95 30.84-17.95V20.963l-30.84-17.945zm30.84 165.988v-35.83l-30.84-17.945-30.84 17.945v35.83l30.84 17.945 30.84-17.945z" fill="#EDEDED"/><path d="M69.058 994.269v-69.751l60.442-34.875 60.442 34.875v69.751L129.5 1029.14l-60.442-34.871zM6.08 885.24v-69.75l60.339-34.813 60.546 34.937v69.626l-60.442 34.876L6.08 885.24zm125.965 0v-69.626l60.547-34.937 60.338 34.813v69.75l-60.442 34.876-60.443-34.876zM69.058 776.222v-69.626l60.442-34.875 60.442 34.875v69.626L129.5 811.098l-60.442-34.876zM129.749 666l-65.772 37.658v72.564L1 812.562v75.606l62.977 36.34v72.689L129.5 1035l65.523-37.803v-72.689L258 888.168v-75.606l-62.977-36.34v-72.564L129.749 666z" fill="#EDEDED"/><mask id="b" style="mask-type:alpha" maskUnits="userSpaceOnUse" x="81" y="685" width="97" height="112"><path d="M81.61 713.408v55.566l48.121 27.784 48.111-27.784v-55.566l-48.111-27.784-48.122 27.784z" fill="#000"/></mask><g mask="url(#b)"><path d="M81.61 713.408v55.566l48.121 27.784 48.111-27.784v-55.566l-48.111-27.784-48.122 27.784z" fill="#EDEDED"/><path d="M171.603 752.14c6.79-3.567 2.226-12.176-9.17-9.868-11.511 2.329-20.016 2.631-20.016 2.631s20.244 11.926 29.186 7.237zm-77.142-34.376c1.684 3.588 5.958 5.137 9.545 3.463 3.588-1.684 5.137-5.958 3.463-9.545-1.685-3.588-5.958-5.137-9.545-3.452a7.158 7.158 0 00-3.463 9.534zm-10.959-15.108a6.567 6.567 0 00-3.161 8.734 6.567 6.567 0 008.734 3.161 6.566 6.566 0 003.161-8.734c-1.539-3.275-5.448-4.7-8.734-3.161z" fill="#DADADA"/><path d="M62.54 719.335c1.07.863 2.141 1.705 3.192 2.547 1.164.884 2.246 1.466 3.358 2.204 1.508 1.04 3.161 1.903 4.804 2.745 8.297 5.543 21.919 10.783 40.375 4.981 9.473-2.984 17.209-9.982 19.943-20.338 2.787-10.533 1.529-23.822-10.668-30.518-13.725-7.528-28.386 2.547-28.646 11.105-.343 11.219 10.107 17.531 18.425 14.775 8.318-2.755 9.816-9.025 9.816-9.025 2.1 17.728-11.594 26.296-20.827 28.719-9.234 2.423-22.325-.676-27.316-7.83-4.627-6.634-8.08-2.61-10.055-.686l-.842-.686c-.54-.458-1.113-.905-1.674-1.352 2.07-.894 5.584-3.005 3.889-6.624-2.33-4.98-9.233-7.569-16.408-15.586-7.175-8.027-4.908-16.065-6-17.677-2.152-3.192-7.164-1.57-10.2-.436-.312-.759-.624-1.518-.925-2.277-.032-.084-.053-.167-.084-.25 5.615 1.185 10.138-5.396 7.424-7.538-3.015-2.382-7.6-13.268-6.977-21.399.01-.094 0-.177.01-.271.812 3.785 3.255 7.934 8.953 10.658 7.83 3.754 14.838 2.163 14.838 2.163 3.536 29.54 23.79 36.757 23.79 36.757-5.302-8.818-7.09-16.585-16.792-48.122-6.977-22.688-20.588-32.535-27.69-36.299 1.883.062 3.764.166 5.667.229 5.064 3.202 16.387 11.084 21.274 20.411 0 0-1.466 7.226 3.37 12.883 4.845 5.656 9.014 8.173 11.78 11.562-5.531-24.809-23.5-39.117-32.067-44.68l.686.032c9.535 2.464 14.422 5.542 14.422 5.542 3.494 10.335 12.956 16.376 19.32 19.288 9.66 4.419 13.403 10.252 13.403 10.252-6.104-19.402-23.531-29.499-34.054-33.98 3.41.468 6.78 1.102 10.076 1.996 6.696 1.82 12.873 4.638 18.612 8.62 5.407 3.722 10.18 8.641 13.216 14.058 1.435 2.755 2.62 5.604 3.161 8.537.52 2.922.613 5.854.187 8.651a26.415 26.415 0 01-2.651 7.767c-1.29 2.236-3.037 4.513-4.752 6.01-1.799 1.581-3.816 2.62-5.802 2.849-1.986.281-3.868-.447-5.282-1.518-1.394-1.217-2.225-2.558-2.496-4.326-.208-1.372.073-2.942.77-3.888 1.424-2.059 3.69-1.726 4.897-1.071 1.258.686 1.799 1.383 1.82 1.331.395.415 1.05.426 1.466.02.416-.395.426-1.05.02-1.466-.052.042-.592-.8-2.235-1.84-.853-.447-2.028-.998-3.577-.957-1.528.031-3.338.842-4.523 2.413-1.185 1.59-1.726 3.639-1.456 6.01.187 1.996 1.352 4.502 3.255 6.186 1.923 1.674 4.7 2.86 7.632 2.621 2.922-.177 5.75-1.508 8.017-3.411 2.391-2.007 4.117-4.201 5.843-6.915.073-.135.125-.291.198-.426.052.218.052.385.114.614.499 2.121 1.394 4.627 3.182 6.977 1.736 2.37 4.586 4.356 7.705 5.167 1.476.406 3.202.645 4.991.416 1.778-.239 3.66-1.091 4.929-2.537 1.289-1.414 1.913-3.182 2.058-4.804.125-1.632-.166-3.202-.831-4.512-.656-1.31-1.643-2.371-2.704-3.037a7.388 7.388 0 00-2.943-1.081 8.08 8.08 0 00-1.902-.042c-.416.042-.645.073-.645.073-1.289.156-2.204 1.342-2.048 2.631a2.367 2.367 0 002.63 2.048c-.052.094 2.142-.416 3.026 1.633.509.988.458 2.734-.447 3.649-.437.468-1.04.791-1.893.978-.852.145-1.861.083-3.005-.166-2.152-.468-3.982-1.685-5.427-3.265-1.435-1.591-2.465-3.505-3.213-5.231a37.243 37.243 0 01-1.466-4.336c.416-1.226.821-2.474 1.091-3.784.614-3.297.614-6.759.094-10.232-.541-3.473-1.788-6.842-3.4-10.076-3.504-6.353-8.61-11.708-14.786-16.054-5.823-4.149-12.841-7.486-19.985-9.462-7.174-2.069-14.578-2.849-21.731-3.161-.687-.031-1.352-.031-2.038-.052.863-.541 1.715-1.185 2.568-1.882 1.85-1.425 3.618-3.171 5.282-4.981 3.348-3.629 5.979-7.788 7.736-10.98 1.757-3.192 2.62-5.532 2.62-5.532l.01-.02a1.007 1.007 0 00-1.87-.739s-.906 2.132-2.736 5.158c-1.82 3.005-4.523 6.883-7.83 10.159-1.642 1.642-3.368 3.192-5.125 4.429-.863.645-1.716 1.248-2.58 1.726-.841.499-1.621 1.009-2.411 1.341-.77.364-1.477.707-2.1 1.009a3.433 3.433 0 00-.344.125c-4.066-.073-8.058-.146-11.916-.333-6.603-.322-12.873-1.123-18.415-2.932-.613-.208-1.185-.468-1.788-.707 6.925-.416 15.222-4.503 23.073-13.206 7.185-7.975 11.302-9.004 11.302-9.004-8.453-6.166-21.118 8.204-29.758 12.072-5.844 2.62-13.112 2.36-17.209 1.923-3.4-3.4-5.74-7.185-6.675-10.865-1.01-3.879-.541-7.508.363-10.315a25.292 25.292 0 012.995-6.218c.894-1.352 1.445-1.955 1.445-1.955a1.04 1.04 0 000-1.404 1.047 1.047 0 00-1.466-.052l-.031.021s-.728.676-1.799 2.059c-1.06 1.393-2.579 3.514-3.774 6.634-1.186 3.078-2.028 7.289-1.102 11.989.863 4.71 3.67 9.503 7.621 13.538.998 1.05 1.986 1.934 3.203 3.005 1.092.873 2.163 1.767 3.546 2.651a39.562 39.562 0 004.128 2.402c2.713 3.567 6.217 9.431 5.167 14.932-1.663 8.703-2.007 19.485 9.099 20.868-2.85-1.029-2.818-10.533-1.997-18.841.51-5.147-2.319-10.595-4.544-13.995 1.861.53 3.754.987 5.688 1.32.01.01.01.021.02.031a34.553 34.553 0 012.527 4.939c.915 2.236 1.924 5.033 2.558 8.391.177.832.395 1.685.551 2.579.094.905.198 1.841.302 2.787.229 1.903.468 3.92.374 6.041 0 2.173 0 4.429.01 6.759.032 2.339.063 4.751.084 7.247.052 1.248-.042 2.495.114 3.785.187 1.3.374 2.61.562 3.93.395 2.652.738 5.376 1.206 8.1.738 2.652 1.487 5.355 2.246 8.09.416 1.352.686 2.766 1.227 4.097.55 1.32 1.112 2.651 1.663 3.982 1.186 2.631 2.09 5.428 3.525 7.975 1.456 2.537 2.912 5.085 4.367 7.632.676 1.31 1.508 2.517 2.423 3.66l2.63 3.515c1.768 2.329 3.411 4.741 5.532 6.717 2.007 2.08 4.004 4.138 5.969 6.166 2.08 1.892 4.346 3.556 6.467 5.293zM27.56 625.94c-.103-1.008-.197-1.996-.29-2.953-.156-.956-.375-1.871-.552-2.766-.644-3.577-1.705-6.613-2.682-9.056a36.918 36.918 0 00-1.341-2.943c1.029.115 2.069.219 3.108.312 5.012 3.671 14.932 11.989 18.769 22.824 5.22 14.754-8.35 16.387-5.854 6.956 0 0-1.498-5.709-4.357-3.182-.676.593-1.404 2.558-1.508 5.095-.873-2.911-3.16-3.504-4.98-3.265l.03-4.627c.105-2.246-.124-4.367-.342-6.395zm69.75 119.161c-33.18-13.892-45.854-31.319-45.854-31.319s-3.442 16.408 11.167 31.953c14.609 15.545 40.521 10.627 40.521 10.627s-3.744 6.051 3.358 12.841c7.102 6.79 20.651 11.157 20.651 11.157s-5.158 4.107-4.981 10.263c.135 4.585 4.388 9.743-.281 13.455-3.868 3.077-7.528.488-7.528.488 3.151-1.726 1.965-4.803-.509-6.841-2.475-2.049-9.483-.448-7.217 6.914 2.267 7.372 14.121 8.901 22.2 2.756 16.075-12.208 7.071-46.126-31.526-62.294zm21.036-5.792c1.206.572 2.693 1.237 4.471 1.788a35.868 35.868 0 006.072 1.456c2.267.395 4.731.541 7.445.541 2.475-.063 5.386-.281 8.204-.863 2.859-.593 5.813-1.529 8.662-3.172 1.414-.832 2.817-1.819 4.044-3.181 1.206-1.352 2.371-3.047 2.704-5.376.426-2.329-.853-5.178-2.797-6.447-1.893-1.362-3.879-1.705-5.636-1.788-3.546-.115-6.54.863-9.275 1.934-2.714 1.102-5.199 2.506-7.351 3.837-1.03.582-2.038 1.143-3.016 1.694-1.029.468-2.027.915-2.984 1.352-3.909 1.591-7.393 2.485-9.815 3.036-2.454.52-3.848.697-3.848.697l-3.961.51 4.356 2.516c.645.322 1.508.946 2.725 1.466zm11.853-4.731c1.071-.395 2.184-.801 3.348-1.227 1.123-.53 2.298-1.081 3.494-1.643 2.215-1.144 4.44-2.184 6.873-2.974 2.392-.759 5.002-1.3 7.216-1.029 1.092.114 2.049.478 2.485.904.468.427.385.645.448 1.227 0 1.311-1.633 3.421-3.681 4.711-2.049 1.393-4.482 2.391-6.946 3.077-2.516.697-4.887 1.051-7.414 1.3-2.298.146-4.585.187-6.665-.031a32.542 32.542 0 01-5.615-.936c-1.279-.301-2.36-.707-3.327-1.071 2.516-.405 5.885-1.04 9.784-2.308zm7.757-25.121c.863 8.068-6.447 15.669-6.447 15.669 6.644-3.369 12.54-5.365 15.378-16.304 2.849-10.938-10.491-13.871-8.931.635z" fill="#DADADA"/><path d="M147.605 786.016c-4.398-12.144-10.367-16.678-18.186-19.641 0 0 8.183 10.762 8.1 20.099-.135 16.824 14.484 11.666 10.086-.458zm10.564-.103c-4.242-8.392-8.952-11.157-14.869-12.623 0 0 6.863 7.07 7.612 13.839 1.372 12.176 11.489 7.175 7.257-1.216zm-54.942-45.086s1.799 1.674 5.064 4.461c3.296 2.745 7.964 6.748 13.871 11.167 5.906 4.44 12.955 9.431 21.139 14.017 4.128 2.245 8.463 4.512 13.444 6.093 2.506.759 5.147 1.435 8.277 1.393 1.559-.042 3.296-.281 5.043-1.144a9.257 9.257 0 004.221-4.149c.302-.582.375-.811.499-1.091.24-.655.344-1.082.448-1.664a8.236 8.236 0 00-.146-3.275c-.52-2.059-1.58-3.484-2.589-4.669-2.08-2.329-4.305-3.806-6.52-5.178-4.429-2.683-8.942-4.523-13.299-6.229-8.744-3.316-17.063-5.614-24.227-7.382-7.154-1.799-13.205-2.891-17.416-3.723-4.222-.779-6.676-1.102-6.676-1.102l-4.398-.582 3.265 3.057zm23.728 7.58c6.894 2.308 14.931 5.043 23.187 8.506 4.108 1.726 8.288 3.722 12.083 6.03 1.851 1.155 3.649 2.475 4.793 3.816.562.645.926 1.3.978 1.633.041.166.02.26.01.354 0 .02-.062.187-.021.103-.114.292-.249.624-.249.583-.375.728-1.082 1.227-2.922 1.32-1.757.052-3.889-.374-5.969-1.008-4.2-1.29-8.401-3.182-12.363-5.21-7.944-4.086-15.139-8.578-21.274-12.456a733.682 733.682 0 01-12.477-8.204c3.805 1.164 8.651 2.714 14.224 4.533z" fill="#DADADA"/></g></svg>