<svg width="752" height="3822" fill="none" xmlns="http://www.w3.org/2000/svg"><path d="M650.532 3745.35c-20.012 53.3 11.973 97.8 41.656 65.81 31.651-34.16 20.849-133.26 41.657-173.24 0-.04-63.301 54.09-83.313 107.43zm-183.245-111.61s64.976 29.14 121.62-56.65c0 0-59.952-69.96-143.264-4.98-83.313 64.98-59.952 148.25-184.084 178.26 0 0 70.711 38.98 139.119-4.18 69.958-44.17 66.609-112.45 66.609-112.45zm-362.053-177.18c20.975-42.83 24.45-59.95 24.45-59.95s-87.75 2.22-99.975 56.64c-12.183 54.39 46.68 62.17 75.525 3.31zm-31.069-640.8c-45.132-32.78-66.944 32.83-24.282 82.65 30.98 36.21 45.382 46.17 45.382 46.17s24.031-96.08-21.1-128.82zm-36.671-969.52c-55.724 2.55-52.207 73.3 29.976 93.27 82.978 20.18 139.915 44.42 139.915 44.42s-96.584-141.04-169.891-137.69zm402.036 464.2c0-28.84-23.361-52.2-52.206-52.2-28.846 0-52.207 23.36-52.207 52.2 0 28.85 23.361 52.21 52.207 52.21 28.845 0 52.206-23.36 52.206-52.21zm25.539 133.26c26.376 0 47.769-21.39 47.769-47.77 0-26.37-21.393-47.72-47.769-47.72-26.375 0-47.768 21.39-47.768 47.72.042 26.38 21.435 47.77 47.768 47.77zm26.671 35.55c0 21.47 17.417 38.85 38.852 38.85 21.477 0 38.851-17.42 38.851-38.85 0-21.48-17.416-38.86-38.851-38.86-21.477 0-38.852 17.42-38.852 38.86zm75.523 121.03c19.007 0 34.414-15.41 34.414-34.41 0-19.01-15.407-34.42-34.414-34.42s-34.413 15.41-34.413 34.42c0 19 15.406 34.41 34.413 34.41zm12.226 78.88c16.537 0 29.976-13.44 29.976-29.98s-13.397-29.98-29.976-29.98c-16.537 0-29.975 13.44-29.975 29.98s13.397 29.98 29.975 29.98zm-1.131 65.51c14.109 0 25.539-11.42 25.539-25.53 0-14.11-11.43-25.54-25.539-25.54-14.108 0-25.538 11.43-25.538 25.54s11.43 25.53 25.538 25.53z" fill="#DADADA"/><path d="M370.664 3587.06c76.614-119.95 178.264-141.59 236.541-84.95 58.277 56.64-3.349 116.6-3.349 116.6s80.801-46.64 28.343-128.28c-42.87-66.69-179.102-59.95-244.873-24.16-75.693 41.2-78.833 90.22-78.833 90.22-125.514 3.35-118.857 95.5-118.857 95.5-81.052-73.31-143.809-6.66-143.809-6.66 106.632 186.64 248.222 61.67 324.837-58.27zm-202.382-46.1c0-13.98-8.332-25.87-20.18-31.56 1.675-7.25 3.852-15.58 6.908-24.54 2.721.71 5.317 1.68 8.248 1.68 18.546 0 33.576-15.03 33.576-33.58 0-10.8-5.443-20.01-13.397-26.17 5.861-8.87 11.973-17.96 19.76-26.29.335-.46.838-.83 1.214-1.29 3.978 1.92 8.29 3.18 12.979 3.18 16.704 0 30.269-13.57 30.269-30.27 0-3.77-.879-7.33-2.135-10.68 8.792-6.4 17.709-12.68 27.38-17.92 4.689 4.4 10.885 7.2 17.835 7.2 14.402 0 26.082-11.68 26.082-26.08 0-.46-.251-.84-.251-1.3 10.299-3.43 20.263-7.53 30.395-10.42 4.186 6.57 11.178 11.18 19.551 11.18 11.848 0 21.268-8.88 22.942-20.31 3.768-.75 7.578-1.63 11.304-2.09 8.624-.88 16.37-1.63 24.324-2.47 3.307 6.74 10.09 11.51 18.086 11.51 9.085 0 16.495-6.07 19.049-14.32 13.397-.2 25.078.47 34.037.05 13.899 0 21.854.04 21.854.04h.502c2.973 0 5.443-2.39 5.485-5.4.083-3.02-2.345-5.53-5.359-5.61 0 0-8.08-.17-22.189-.42-9.043.25-20.849-.59-34.33-.63-2.596-8.2-10.006-14.28-19.049-14.28-9.838 0-17.667 7.16-19.509 16.46-7.955.67-16.119 1.34-24.743 2.05-3.642.38-7.41 1.21-11.136 1.84-3.768-8.04-11.806-13.69-21.268-13.69-12.644 0-22.775 10.01-23.361 22.53-10.509 2.84-20.933 6.86-31.651 10.21-4.731-6.53-12.057-11.05-20.765-11.05-14.402 0-26.083 11.68-26.083 26.08 0 1.84.67 3.43 1.047 5.15-10.466 5.44-20.263 12.1-29.892 18.88-5.15-4.02-11.304-6.82-18.337-6.82-16.705 0-30.269 13.56-30.269 30.27 0 5.73 2.051 10.8 4.814 15.36-.502.59-1.172 1.09-1.632 1.72-9.378 9.75-16.705 20.43-23.738 30.77-1.131-.13-2.136-.67-3.308-.67-18.546 0-33.576 15.03-33.576 33.58 0 8.58 3.475 16.24 8.75 22.14-4.396 11.64-7.41 22.32-9.587 31.44-17.417 2.18-31.065 16.41-31.065 34.42 0 19.46 15.784 35.25 35.251 35.25 19.384.12 35.168-15.66 35.168-35.13zm157.959-357.57s-204.347-49.99-257.684-231.02c-42.2 76.62 0 144.35 0 144.35-33.283 15.41-53.42 96.25 13.314 123.3 0 0-38.852 22.23-28.888 83.31 10.006 61.08 71.088 79.97 71.088 79.97s11.136-166.63 202.17-199.91z" fill="#DADADA"/><path d="M654.598 2398.53l-13.188-26.63c-4.898-9.42-10.299-16.58-15.364-24.87-6.741-11.51-14.946-22.27-23.194-32.86-37.554-62.05-111.112-138.62-250.525-157.25-71.59-9.54-144.144 12.69-194.089 72.47-50.826 60.79-83.523 152.18-23.822 233.86 67.194 91.9 194.801 70.76 222.893 15.2 36.842-72.8-12.476-146.61-75.777-154.11-63.301-7.49-92.439 29.14-92.439 29.14 40.819-123.29 157.415-137.44 225.74-124.93 68.283 12.48 144.939 73.31 155.74 135.77 10.048 57.95 45.132 42.08 64.139 35.51 1.13 2.38 2.261 4.69 3.433 7.11 2.177 4.69 4.521 9.38 6.824 14.07-16.37-.46-46.052 2.6-46.052 31.61 0 39.98 37.47 78.29 59.951 153.27 22.482 74.98-17.206 120.95-14.988 134.93 4.354 27.63 42.368 32.41 65.813 34.29-.293 5.95-.586 11.93-.879 17.84-.042.62-.209 1.25-.251 1.92-33.325-25.12-83.397 4.27-72.135 26.75 12.476 25 9.169 110.78-20.012 162.44-.334.63-.544 1.13-.879 1.72 6.322-27.42 3.057-62.25-26.04-97.8-39.982-48.86-91.058-59.99-91.058-59.99 67.739-205.44-43.331-315.42-43.331-315.42 7.787 74.4-4.438 131.04-37.763 368.71-23.947 170.94 35.251 277.74 70.46 324.46-12.225-6.19-24.324-12.72-36.591-18.96-23.487-36.68-73.767-123.51-77.159-200 0 0 31.944-43.03 17.5-95.24-14.443-52.21-34.162-81.64-41.907-112.45-40.108 180.44 34.12 330.03 73.432 393.12-1.465-.76-2.93-1.51-4.395-2.3-55.18-45.64-77.871-81.02-77.871-81.02 8.876-78.87-34.832-147.78-67.739-186.59-49.987-58.86-56.644-108.85-56.644-108.85-19.635 146.61 63.971 266.85 119.485 328.81-20.975-13.56-41.238-28.13-60.203-44.17-38.475-32.65-70.46-70.16-95.956-114.12-24.115-41.24-40.443-88.3-43.666-133.35-.921-22.6 0-44.96 5.484-65.93 5.61-20.85 14.025-40.45 25.454-57.57 11.765-16.87 25.915-31.23 41.406-43 15.406-10.75 33.911-20.38 49.778-24.91 16.746-4.89 33.241-5.52 47.015-.87 13.941 4.31 24.073 14.82 30.144 26.29 5.442 12.26 6.782 23.69 3.098 36.17-2.889 9.67-9.588 19.17-17.04 23.23-15.699 9.17-29.641 0-35.544-7.99-6.154-8.42-7.578-14.61-7.871-14.36-1.339-3.94-5.651-6.03-9.587-4.69-3.935 1.34-6.028 5.65-4.689 9.59.461-.13 1.424 7.03 9.043 18.96 4.271 5.61 10.257 12.85 20.64 17.33 10.173 4.53 24.575 4.74 37.219-1.92 12.727-6.83 22.607-18.63 28.175-35.09 4.94-13.69 4.982-33.86-2.344-50.74-7.536-16.95-22.147-33.32-42.201-40.77-19.802-7.87-42.535-7.79-63.343-2.26-21.895 5.86-40.107 14.94-59.784 27.54-.921.63-1.717 1.51-2.638 2.18.377-1.55.838-2.72 1.173-4.35 3.265-15.49 5.066-34.79.586-55.77-4.145-20.93-16.788-42.83-34.832-57.77-8.457-7.2-19.133-14.11-31.567-18.13-12.393-3.94-27.464-4.15-40.233 1.51-12.811 5.35-22.399 15.03-28.343 25.28-5.862 10.39-8.75 21.61-8.457 32.32.293 10.68 3.516 20.73 8.456 28.35 4.857 7.7 10.97 12.89 16.077 16.2 5.15 3.35 9.504 5.11 12.392 6.11 2.931 1.01 4.438 1.55 4.438 1.55 9.001 2.93 18.672-2.01 21.603-11.01 2.93-9-2.01-18.67-11.01-21.56.627-.46-15.366-3.9-14.947-20.06-.335-8.08 5.4-19.42 14.192-22.65 4.271-1.71 9.295-2 15.449-.58 6.112 1.67 12.56 5.19 19.258 10.38 12.727 9.76 21.017 23.4 25.706 38.22 4.521 14.91 5.401 30.65 5.024 44.34-.628 13.48-2.345 24.99-3.726 33.07-6.573 6.83-13.063 13.78-18.882 21.57-14.151 19.8-24.868 42.61-32.153 67.02-7.117 24.54-9.294 50.62-8.708 76.83 3.517 52.66 20.598 103.66 47.853 151.3 25.58 45.3 61.501 88.88 102.403 123.96 40.903 35.76 87.249 63.68 133.343 87.75 4.438 2.35 8.792 4.36 13.229 6.66-7.368.92-14.946 2.51-22.691 4.48-16.579 3.68-33.576 9.71-50.155 16.5-33.241 13.56-63.385 32.82-84.82 48.48-21.393 15.61-34.33 28.3-34.33 28.3l-.126.12c-2.763 2.72-2.93 7.2-.293 10.13 2.722 3.02 7.327 3.23 10.341.55 0 0 12.476-11.26 33.911-25.58 21.268-14.15 51.035-31.4 82.895-42.79 15.867-5.73 32.027-10.67 47.476-13.39 7.661-1.64 15.113-2.94 22.272-3.4 7.117-.71 13.816-1.67 20.012-1.42 6.196-.04 11.89-.08 16.914-.12 1.005.08 1.674.16 2.637.25 26.543 13.02 52.667 25.79 77.452 38.93 42.494 22.44 81.261 47.06 112.242 76.07 3.433 3.23 6.364 6.78 9.587 10.13-46.889-18.63-114.126-17.29-192.708 15.87-71.883 30.35-102.194 24.45-102.194 24.45 36.632 66.65 164.365 11.09 233.234 12.22 46.597.76 93.654 24.87 119.234 40.41 11.931 32.86 15.616 64.97 10.508 92.14-5.275 28.68-19.635 51.12-34.162 66.78-14.653 15.74-28.972 25.66-38.894 31.77-10.048 6.16-15.532 8.38-15.532 8.42-3.6 1.46-5.526 5.53-4.312 9.29 1.298 3.94 5.526 6.12 9.462 4.86l.251-.08s6.866-2.22 18.17-8c11.303-5.86 27.84-15.16 45.298-32.03 17.333-16.62 35.837-41.74 44.21-75.57 8.876-33.66 5.15-73.89-8.456-112.61-3.35-10.05-7.117-18.89-11.806-29.69-4.522-9.12-8.834-18.29-15.156-28.38-5.987-9.88-12.602-19.34-19.761-28.55-6.907-31.91-11.89-81.27 12.016-114.26 37.763-52.2 73.307-122.16 4.438-165.49 15.532 15.57-13.9 78.04-44.964 130.24-19.258 32.36-17.416 76.91-13.23 106.17-10.592-9.25-21.644-18.04-33.367-26.25 0-.12-.041-.16-.041-.29-1.005-8.96-2.219-22.73-1.424-40.32.921-17.54 2.847-39.1 9.001-63.17 1.424-6.03 2.596-12.31 4.354-18.67a3638.93 3638.93 0 016.657-19.3c4.396-13.27 9.001-27.22 16.202-40.95a55148.25 55148.25 0 0120.807-44.54c7.034-15.49 14.276-31.49 21.77-47.98 3.559-8.37 7.955-16.33 10.927-25.29 2.763-9.13 5.61-18.34 8.457-27.63 5.568-18.67 11.723-37.64 17.04-57.1 3.349-19.77 6.74-39.86 10.173-60.21 1.465-10.17 4.019-20.34 4.563-30.73.419-10.42.879-20.85 1.34-31.4.293-21.01 3.014-42.2 1.34-63.42-1.717-21.19-3.475-42.5-5.233-63.76-.419-10.72-2.219-21.19-4.689-31.61l-6.49-31.28c-4.437-20.76-7.828-41.74-15.699-61.33-6.824-19.84-13.607-39.56-20.263-59.03-8.248-18.84-18.003-36.72-26.627-54.76zm-57.607 722.94a4330.38 4330.38 0 00-7.159 20.39c-1.926 6.74-3.266 13.48-4.857 19.88-6.782 25.58-9.127 48.86-10.257 67.95-.46 8.75-.46 16.49-.209 23.53a702.757 702.757 0 00-19.51-11.6c-21.686-39.6-61.375-124.97-53.211-208.16 11.136-113.28 105.502-82.18 59.994-27.75 0 0-7.745 42.2 18.881 34.41 6.28-1.84 17.165-12.52 25.664-28.89-3.224 21.9 10.006 32.78 22.691 36.89-4.898 10.25-9.838 20.6-14.486 30.35-7.703 14.23-12.769 28.97-17.541 43zm-91.939-999.84c175.668 193.79 205.435 347.61 205.435 347.61s73.307-97.46 24.994-244.87c-48.313-147.41-234.072-194.93-234.072-194.93s43.331-28.3 17.5-94.95c-25.831-66.65-101.608-137.15-101.608-137.15s46.638-11.1 64.431-52.21c13.23-30.6 1.172-77.7 43.331-87.75 35-8.33 51.077 19.97 51.077 19.97-26.083 1.67-27.757 25.54-17.751 46.64 10.005 21.1 61.081 32.19 68.869-23.32 7.787-55.56-65.52-102.2-137.697-86.62-143.641 30.98-188.856 282.17 15.491 507.58zm-156.413-26.71c-6.196-7.5-13.899-16.46-23.947-25.58-9.796-9.25-21.644-19.09-35.502-28.3-13.69-9.59-29.474-18.13-47.35-26.55-16.537-7.2-36.34-14.73-56.686-19.55-20.64-4.94-42.997-7.83-66.818-5.86-11.848 1.17-24.115 3.27-36.423 8.5-12.1 5.23-24.994 12.77-34.372 27.05-9.964 14.02-10.34 36.75-1.465 51.07 8.247 14.82 20.304 23.2 31.566 29.14 23.027 11.68 45.718 14.49 66.986 15.87 21.226 1.13 41.991-.5 60.245-2.6 8.582-.63 16.955-1.25 25.077-1.84 8.206.08 16.16.21 23.78.29 30.687 1.59 56.351 6.41 74.06 10.26 17.751 4.14 27.506 7.24 27.506 7.24l27.673 8.88-20.891-30.02c-3.265-3.98-6.991-10.76-13.439-18zm-92.649-5.4c-8.289-.71-16.871-1.47-25.789-2.22-9.043.04-18.421.04-28.05.04-18.128.71-35.963.71-54.425-1.59-18.086-2.34-36.968-6.87-50.742-15.45-6.866-4.1-12.015-9.5-13.564-13.61-1.717-4.27-.502-5.44.88-9.42 3.976-8.62 21.309-17.45 38.725-19.71 17.793-2.85 36.925-1.97 55.221 1.13 18.714 3.14 35.418 8.16 52.835 14.31 15.532 6.12 30.771 12.94 43.791 20.77 13.23 7.49 24.617 15.66 34.121 23.49 7.452 5.9 13.355 11.93 18.588 17.25-17.835-5.07-42.033-11.27-71.591-14.99z" fill="#DADADA"/><path d="M559.225 1807.55c-6.448 17.21-4.857 32.66-1.968 45.64 6.322 26.16 19.258 45.55 32.195 62.92 13.146 17.12 28.092 32.07 41.572 44.59 6.029 6.03 11.848 11.89 17.5 17.58 5.233 6.24 10.257 12.27 15.114 18.09 18.63 24.07 31.609 46.55 40.191 62.46 3.977 8.04 7.117 14.32 9.252 18.63 2.01 4.44 3.057 6.78 3.057 6.78l13.941 30.77 10.885-39.43c1.13-5.07 3.977-12.4 5.442-22.07 1.801-9.63 3.768-21.43 4.396-35.08.88-13.61.88-29.14-.963-45.89-1.381-16.83-4.898-34.58-10.005-54.04-4.983-17.29-11.974-37.72-21.394-56.65-9.545-19.3-21.812-38.72-39.061-56.18-8.75-8.67-18.504-16.96-30.98-23.36-12.309-6.2-27.171-11.64-45.634-9.51-18.505 1.3-37.972 17.34-43.54 34.75zm87.876 32.87c13.23 11.17 24.826 25.95 34.288 41.61 9.671 16.08 16.621 31.61 23.277 48.9 5.359 15.45 10.132 31.32 12.56 46.14 2.931 14.73 4.103 28.55 4.354 40.73.209 5.32-.377 10.22-.586 14.91-7.243-15.66-16.663-34.79-30.018-55.73-4.772-6.86-9.754-14.06-14.904-21.47-5.861-7.04-11.932-14.32-18.17-21.82-12.099-13.52-23.235-27-33.074-42.45-9.545-15.15-17.835-32.28-19.719-47.27-1.13-7.36-.083-13.94 1.633-16.41 1.801-2.68 1.633-.83 4.061-2.38 6.322-2.51 23.78 3.85 36.298 15.24zm-519.637 390.64c19.175-55.8 90.807-83.27 90.807-83.27-54.133 1.68-99.138-3.35-151.596 59.96-52.458 63.21 26.334 123.67 60.789 23.31zm172.488-533.95c-8.457 93.53 16.83 141.8 59.198 185.42 0 0-20.723-96.08 8.625-157.37 52.751-110.32-59.408-121.45-67.823-28.05zm-69.876-31.86c2.051 68.37 24.492 101.11 58.989 128.95 0 0-23.361-67.7-7.494-114.59 28.552-84.36-53.546-82.69-51.495-14.36zm222.853 466.3s-6.699-16.54-19.552-45.01c-13.229-28.25-31.608-68.95-56.937-116.34-25.203-47.43-56.268-102.03-95.998-157.5-20.221-27.55-41.824-55.85-69.749-81.6-14.15-12.72-29.515-25.32-50.197-34.7-10.383-4.48-22.565-8.29-36.758-8.04-14.234.13-29.055 5.15-40.61 14.32-3.768 2.89-5.024 4.23-6.615 5.65-3.6 3.6-5.61 6.07-8.08 9.54-4.563 6.75-7.703 14.49-9.126 21.98-2.93 15.16-.377 27.8 2.637 38.69 6.531 21.73 16.663 38.35 26.962 54.21 20.891 31.32 44.922 57.36 68.408 82.02 47.392 48.81 95.078 89.59 136.818 123.34 41.573 33.91 78.038 59.74 103.199 78.16 25.412 18.17 40.526 27.84 40.526 27.84l27.129 17.37-12.057-29.93zm-132.966-123.08c-38.307-36.43-82.769-79.21-126.518-127.49-21.729-24.07-43.08-50.03-60.957-76.95-8.624-13.35-16.411-27.59-19.802-39.89-1.717-5.99-2.094-11.43-1.382-13.74.293-1.21.628-1.75 1.005-2.38.083-.13 1.005-1.01.46-.63 1.633-1.59 3.559-3.35 3.433-3.06 4.731-3.64 10.885-4.73 23.319.34 11.723 5.06 24.45 14.48 36.214 25.03 23.696 21.44 45.55 46.89 65.353 72.43 39.689 51.37 73.223 103.16 101.65 147.66a5674.294 5674.294 0 0156.937 92.48c-21.393-19.51-48.564-44.67-79.712-73.8zm330.569-417.74c-20.012 53.29 11.973 97.8 41.656 65.81 31.651-34.16 20.849-133.26 41.657-173.24 0-.04-63.301 54.09-83.313 107.43z" fill="#DADADA"/><path d="M467.287 1479.11s64.976 29.14 121.62-56.64c0 0-59.952-69.96-143.264-4.98-83.313 64.97-59.952 148.24-184.084 178.26 0 0 70.711 38.98 139.119-4.18 69.958-44.17 66.609-112.46 66.609-112.46zm-362.053-177.17c20.975-42.83 24.45-59.95 24.45-59.95s-87.75 2.22-99.975 56.64c-12.183 54.43 46.68 62.21 75.525 3.31z" fill="#DADADA"/><path d="M370.664 1432.48c76.614-119.95 178.264-141.59 236.541-84.95 58.319 56.65-3.349 116.6-3.349 116.6s80.801-46.64 28.343-128.28c-42.87-66.69-179.102-59.99-244.873-24.16-75.693 41.2-78.833 90.22-78.833 90.22-125.514 3.35-118.857 95.5-118.857 95.5-81.052-73.31-143.809-6.66-143.809-6.66 106.632 186.6 248.222 61.63 324.837-58.27zm-202.382-46.14c0-14.03-8.332-25.87-20.18-31.57 1.675-7.24 3.852-15.57 6.908-24.53 2.721.71 5.317 1.67 8.248 1.67 18.546 0 33.576-15.03 33.576-33.57 0-10.8-5.443-20.01-13.397-26.17 5.861-8.87 11.973-17.92 19.76-26.25.335-.46.838-.84 1.214-1.3 3.978 1.93 8.29 3.19 12.979 3.19 16.704 0 30.269-13.57 30.269-30.27 0-3.77-.879-7.33-2.135-10.68 8.792-6.4 17.709-12.73 27.38-17.92 4.689 4.4 10.885 7.2 17.835 7.2 14.402 0 26.082-11.68 26.082-26.08 0-.46-.251-.84-.251-1.3 10.299-3.43 20.263-7.53 30.395-10.42 4.186 6.57 11.178 11.14 19.551 11.14 11.848 0 21.268-8.88 22.942-20.31 3.768-.71 7.578-1.63 11.304-2.09 8.624-.88 16.37-1.64 24.324-2.47 3.307 6.74 10.09 11.51 18.086 11.51 9.085 0 16.495-6.07 19.049-14.28 13.397-.21 25.078.46 34.037.05 13.899 0 21.854.04 21.854.04h.502c2.973 0 5.443-2.39 5.485-5.4.083-3.06-2.345-5.53-5.359-5.61 0 0-8.08-.17-22.189-.42-9.043.25-20.849-.59-34.33-.67-2.596-8.21-10.006-14.24-19.049-14.24-9.838 0-17.667 7.16-19.509 16.46-7.955.67-16.119 1.34-24.743 2.05-3.642.38-7.41 1.21-11.136 1.84-3.768-8.04-11.806-13.69-21.268-13.69-12.644 0-22.775 10.01-23.361 22.52-10.509 2.81-20.933 6.87-31.651 10.22-4.731-6.53-12.057-11.05-20.765-11.05-14.402 0-26.083 11.68-26.083 26.08 0 1.84.67 3.43 1.047 5.15-10.466 5.44-20.263 12.1-29.892 18.88-5.15-4.02-11.304-6.82-18.337-6.82-16.705 0-30.269 13.56-30.269 30.27 0 5.73 2.051 10.8 4.814 15.36-.502.59-1.172 1.09-1.632 1.72-9.378 9.75-16.705 20.43-23.738 30.77-1.131-.13-2.136-.67-3.308-.67-18.546 0-33.576 15.03-33.576 33.57 0 8.59 3.475 16.21 8.75 22.15-4.396 11.64-7.41 22.27-9.587 31.44-17.417 2.14-31.065 16.41-31.065 34.42 0 19.46 15.784 35.25 35.251 35.25 19.384.12 35.168-15.7 35.168-35.17zm157.959-357.58S121.894 978.777 68.557 797.749c-42.2 76.614 0 144.353 0 144.353-33.283 15.407-53.42 96.248 13.314 123.298 0 0-38.852 22.23-28.888 83.31 10.006 61.08 71.088 79.96 71.088 79.96s11.136-166.58 202.17-199.91z" fill="#DADADA"/><path d="M654.598 243.907L641.41 217.28c-4.898-9.42-10.299-16.579-15.364-24.868-6.741-11.513-14.946-22.273-23.194-32.865C565.298 97.502 491.74 20.93 352.327 2.299c-71.59-9.545-144.144 12.686-194.089 72.47-50.826 60.789-83.523 152.182-23.822 233.862 67.194 91.896 194.801 70.753 222.893 15.197 36.842-72.804-12.476-146.614-75.777-154.107-63.301-7.494-92.439 29.138-92.439 29.138C229.912 75.564 346.508 61.414 414.833 73.932c68.283 12.476 144.939 73.307 155.74 135.77 10.048 57.943 45.132 42.075 64.139 35.503 1.13 2.386 2.261 4.688 3.433 7.117 2.177 4.689 4.521 9.378 6.824 14.067-16.37-.461-46.052 2.595-46.052 31.608 0 39.982 37.47 78.289 59.951 153.271 22.482 74.981-17.206 120.95-14.988 134.933 4.354 27.632 42.368 32.404 65.813 34.288-.293 5.945-.586 11.932-.879 17.835-.042.628-.209 1.256-.251 1.926-33.325-25.12-83.397 4.228-72.135 26.752 12.476 24.994 9.169 110.777-20.012 162.439-.334.586-.544 1.131-.879 1.717 6.322-27.422 3.057-62.255-26.04-97.799-39.982-48.857-91.058-59.993-91.058-59.993 67.739-205.436-43.331-315.417-43.331-315.417 7.787 74.437-4.438 131.04-37.763 368.712-23.947 170.938 35.251 277.739 70.46 324.459-12.225-6.2-24.324-12.73-36.591-18.96-23.487-36.679-73.767-123.55-77.159-199.997 0 0 31.944-43.038 17.5-95.245-14.443-52.207-34.162-81.638-41.907-112.451-40.108 180.441 34.12 330.027 73.432 393.123-1.465-.76-2.93-1.51-4.395-2.26-55.18-45.638-77.871-81.015-77.871-81.015 8.876-78.833-34.832-147.786-67.739-186.596-49.987-58.863-56.644-108.851-56.644-108.851-19.635 146.614 63.971 266.853 119.485 328.814-20.975-13.564-41.238-28.134-60.203-44.168-38.475-32.656-70.46-70.209-95.956-114.126-24.115-41.238-40.443-88.295-43.666-133.343-.921-22.607 0-44.964 5.484-65.938 5.61-20.85 14.025-40.443 25.454-57.566 11.765-16.872 25.915-31.232 41.406-42.996 15.406-10.76 33.911-20.389 49.778-24.91 16.746-4.898 33.241-5.526 47.015-.879 13.941 4.312 24.073 14.82 30.144 26.291 5.442 12.267 6.782 23.696 3.098 36.172-2.889 9.671-9.588 19.175-17.04 23.236-15.699 9.169-29.641 0-35.544-7.996-6.154-8.415-7.578-14.612-7.871-14.36-1.339-3.936-5.651-5.987-9.587-4.689-3.935 1.339-6.028 5.652-4.689 9.545.461-.126 1.424 7.033 9.043 18.965 4.271 5.61 10.257 12.853 20.64 17.333 10.173 4.521 24.575 4.731 37.219-1.926 12.727-6.824 22.607-18.63 28.175-35.084 4.94-13.69 4.982-33.869-2.344-50.741-7.536-16.956-22.147-33.325-42.201-40.777-19.802-7.871-42.535-7.787-63.343-2.261-21.895 5.861-40.107 14.988-59.784 27.548-.921.669-1.717 1.507-2.638 2.177.377-1.549.838-2.722 1.173-4.354 3.265-15.491 5.066-34.791.586-55.766-4.145-20.932-16.788-42.828-34.832-57.774-8.457-7.201-19.133-14.109-31.567-18.128-12.393-3.894-27.464-4.145-40.233 1.507-12.811 5.359-22.399 15.03-28.343 25.287-5.862 10.383-8.75 21.603-8.457 32.32.293 10.676 3.516 20.724 8.456 28.343 4.857 7.704 10.97 12.895 16.077 16.202 5.15 3.35 9.504 5.108 12.392 6.113 2.931 1.005 4.438 1.549 4.438 1.549 9.001 2.931 18.672-2.01 21.603-11.011 2.93-9.001-2.01-18.672-11.01-21.561.627-.46-15.366-3.893-14.947-20.053-.335-8.08 5.4-19.426 14.192-22.65 4.271-1.716 9.295-2.009 15.449-.586 6.112 1.675 12.56 5.191 19.258 10.383 12.727 9.755 21.017 23.403 25.706 38.223 4.521 14.904 5.401 30.646 5.024 44.336-.628 13.481-2.345 24.994-3.726 33.074-6.573 6.824-13.063 13.774-18.882 21.561-14.151 19.802-24.868 42.619-32.153 67.069-7.117 24.533-9.294 50.616-8.708 76.824 3.517 52.667 20.598 103.659 47.853 151.302 25.58 45.299 61.501 88.882 102.403 123.965 40.903 35.795 87.249 63.676 133.343 87.746 4.438 2.35 8.792 4.36 13.229 6.66-7.368.92-14.946 2.51-22.691 4.48-16.579 3.69-33.576 9.71-50.155 16.5-33.241 13.56-63.385 32.82-84.82 48.48-21.393 15.61-34.33 28.3-34.33 28.3l-.126.12c-2.763 2.72-2.93 7.2-.293 10.14 2.722 3.01 7.327 3.22 10.341.54 0 0 12.476-11.26 33.911-25.54 21.268-14.15 51.035-31.4 82.895-42.79 15.867-5.69 32.027-10.67 47.476-13.39 7.661-1.64 15.113-2.93 22.272-3.39 7.117-.72 13.816-1.68 20.012-1.43 6.196-.04 11.89-.12 16.914-.16 1.005.08 1.674.16 2.637.25 26.543 13.02 52.667 25.79 77.452 38.93 42.494 22.48 81.261 47.06 112.242 76.07 3.433 3.23 6.364 6.78 9.587 10.13-47.057-18.59-114.293-17.29-192.833 15.87-71.884 30.35-102.195 24.41-102.195 24.41 36.633 66.65 164.365 11.13 233.234 12.22 46.597.76 93.654 24.87 119.234 40.4 11.932 32.87 15.616 64.98 10.509 92.15-5.275 28.68-19.636 51.12-34.163 66.78-14.653 15.74-28.971 25.66-38.893 31.77-10.048 6.16-15.532 8.38-15.532 8.42-3.601 1.46-5.527 5.52-4.313 9.29 1.298 3.94 5.527 6.11 9.462 4.86l.251-.09s6.866-2.21 18.17-7.99c11.304-5.86 27.841-15.16 45.299-32.03 17.332-16.62 35.837-41.74 44.21-75.57 8.876-33.66 5.149-73.85-8.457-112.62-3.349-10.04-7.117-18.88-11.806-29.68-4.522-9.13-8.834-18.29-15.156-28.38-5.986-9.88-12.601-19.35-19.76-28.56-6.908-31.9-11.89-81.26 12.015-114.25 37.763-52.21 73.307-122.163 4.438-165.494 15.532 15.532-13.899 78.038-44.964 130.204-19.258 32.32-17.416 76.91-13.229 106.17-10.592-9.25-21.645-18.04-33.367-26.25 0-.08-.042-.17-.042-.29-1.005-8.92-2.219-22.74-1.424-40.32.921-17.54 2.847-39.1 9.002-63.13 1.423-6.03 2.595-12.35 4.353-18.717a4085.565 4085.565 0 016.657-19.3c4.396-13.271 9.001-27.213 16.202-40.945 6.657-14.276 13.607-29.138 20.808-44.587 7.033-15.49 14.276-31.483 21.77-47.978 3.558-8.373 7.954-16.286 10.927-25.287 2.763-9.127 5.61-18.337 8.457-27.631 5.568-18.672 11.722-37.638 17.039-57.105a83892.98 83892.98 0 0010.173-60.203c1.466-10.173 4.02-20.347 4.564-30.73.418-10.424.879-20.891 1.34-31.399.293-21.017 3.014-42.201 1.339-63.427a38992.516 38992.516 0 00-5.233-63.761c-.419-10.676-2.219-21.184-4.689-31.609l-6.489-31.274c-4.438-20.765-7.829-41.74-15.7-61.333-6.824-19.844-13.606-39.563-20.263-59.031-8.122-18.756-17.877-36.632-26.501-54.676zm-57.607 722.938a4629.95 4629.95 0 00-7.159 20.388c-1.926 6.741-3.266 13.477-4.857 19.887-6.782 25.58-9.127 48.86-10.257 67.95-.46 8.75-.46 16.49-.209 23.53a702.757 702.757 0 00-19.51-11.6c-21.686-39.61-61.375-124.97-53.211-208.157 11.136-113.289 105.502-82.183 59.994-27.757 0 0-7.745 42.201 18.881 34.414 6.28-1.842 17.165-12.518 25.664-28.888-3.224 21.896 10.006 32.781 22.691 36.884-4.898 10.257-9.838 20.598-14.486 30.353-7.703 14.234-12.769 28.971-17.541 42.996z" fill="#DADADA"/></svg>