<svg width="375" height="144" fill="none" xmlns="http://www.w3.org/2000/svg"><g clip-path="url(#clip0_404_806)"><path fill="#EDEDED" d="M0 0h375v144H0z"/><g clip-path="url(#clip1_404_806)"><path d="M400.933 18.738l-16.599 9.583-16.6-9.583V-.43l16.6-9.583L400.933-.43v19.168z" fill="#fff"/><path d="M399.896-94.103c0 3.19 2.375 5.83 5.449 6.263v33.31l-21.901 12.644v25.245L361.547-3.997v26.305l21.897 12.644v25.289l22.782 13.152 22.783-13.152V34.952l21.897-12.644V-3.997L429.009-16.64v-25.25l-21.897-12.644v-33.31c3.074-.433 5.448-3.07 5.448-6.263 0-3.49-2.839-6.33-6.33-6.33-3.494.004-6.334 2.844-6.334 6.334zm-36.582 115.39V-2.98l20.98-12.112 21.051 12.151v24.224l-21.016 12.132-21.015-12.127zm42.916 50.065L385.215 59.22V34.952l21.015-12.136 21.016 12.136V59.22L406.23 71.352zM449.143-2.98v24.268l-21.016 12.131-21.015-12.131V-2.938l21.051-12.151 20.98 12.108zm-21.897-37.89v24.225L406.23-4.513l-21.015-12.132V-40.87l21.015-12.132 21.016 12.132zm-16.453-53.233a4.568 4.568 0 01-4.563 4.563 4.569 4.569 0 01-4.563-4.563 4.569 4.569 0 014.563-4.562 4.566 4.566 0 014.563 4.563z" fill="#fff"/><path d="M366.842-49.455l-3.935 2.271-3.935-2.271h-6.06l8.51 4.912V-3.83l-35.32 20.392L290.787-3.83v-40.78l8.387-4.845h-5.937l-5.417 3.13V-2.12l36.801 21.25v42.5l38.286 22.103 11.655-6.731v-3.428l-11.655 6.731-35.32-20.391v-40.78l35.32-20.392 11.655 6.731v-3.43L364.388-3.83v-40.713l8.51-4.912h-6.056z" fill="#fff"/><path d="M244.852 83.71v29.72l25.737 14.86 25.737-14.86V83.71l-25.737-14.86-25.737 14.86z" fill="#81C0E4"/><path d="M226.82 1.323V22.47l18.473 10.571 18.473-10.574V1.323L245.293-9.248 226.82 1.322zm173.486 72.07L356.969 98.41l.004 50.04 43.333 25.023 43.337-25.023V98.41l-43.337-25.018z" fill="#fff"/><mask id="a" style="mask-type:alpha" maskUnits="userSpaceOnUse" x="264" y="4" width="71" height="82"><path d="M264.789 24.933v40.514l35.089 20.26 35.093-20.26V24.932l-35.093-20.26-35.089 20.26z" fill="#000"/></mask><g mask="url(#a)"><path d="M334.971 24.933L299.878 4.672l-35.089 20.26v40.515l35.089 20.26 35.093-20.26V24.932z" fill="#E30613"/><path d="M265.635 8.98c-5.286.242-4.952 6.954 2.843 8.848 7.871 1.914 13.272 4.213 13.272 4.213s-9.162-13.379-16.115-13.06zm38.136 44.033a4.95 4.95 0 00-4.952-4.953 4.95 4.95 0 00-4.952 4.953 4.95 4.95 0 004.952 4.952 4.956 4.956 0 004.952-4.952zm2.424 12.64a4.528 4.528 0 100-9.058 4.53 4.53 0 00-4.531 4.527 4.532 4.532 0 004.531 4.53zm2.524 3.372a3.685 3.685 0 107.37 0 3.685 3.685 0 00-7.37 0zm7.17 11.48a3.265 3.265 0 100-6.53 3.265 3.265 0 000 6.53zm1.157 7.478a2.843 2.843 0 10.001-5.687 2.843 2.843 0 00-.001 5.687z" fill="#C90C0F"/><path d="M324.167 61.368l-1.251-2.526c-.465-.893-.977-1.572-1.457-2.359-.64-1.092-1.418-2.116-2.2-3.121-3.563-5.885-10.54-13.148-23.764-14.916-6.791-.905-13.673 1.204-18.41 6.874-4.821 5.767-7.923 14.435-2.26 22.183 6.374 8.717 18.478 6.712 21.143 1.442 3.494-6.906-1.184-13.907-7.188-14.618-6.005-.71-8.768 2.764-8.768 2.764 3.871-11.691 14.931-13.037 21.412-11.85 6.481 1.183 13.748 6.953 14.773 12.878.953 5.496 4.281 3.991 6.084 3.368.107.226.214.445.325.675.207.445.429.89.647 1.334-1.552-.043-4.368.247-4.368 2.999 0 3.792 3.554 7.426 5.687 14.538 2.132 7.112-1.632 11.473-1.422 12.8.413 2.62 4.019 3.073 6.243 3.251l-.083 1.692c-.004.06-.02.12-.024.183-3.161-2.383-7.911.4-6.843 2.537 1.184 2.371.87 10.508-1.898 15.408-.032.056-.051.108-.083.163.599-2.601.29-5.905-2.47-9.276-3.793-4.635-8.638-5.691-8.638-5.691 6.426-19.486-4.11-29.919-4.11-29.919.739 7.061-.421 12.43-3.582 34.974-2.271 16.215 3.344 26.345 6.684 30.777-1.16-.592-2.307-1.207-3.471-1.799-2.228-3.479-6.997-11.715-7.319-18.97 0 0 3.03-4.083 1.66-9.035-1.37-4.952-3.24-7.744-3.975-10.666-3.804 17.115 3.24 31.304 6.965 37.289l-.417-.215c-5.234-4.328-7.386-7.684-7.386-7.684.842-7.481-3.304-14.018-6.425-17.699-4.742-5.584-5.373-10.325-5.373-10.325-1.863 13.907 6.068 25.312 11.333 31.189-1.989-1.286-3.911-2.668-5.71-4.189-3.65-3.098-6.684-6.656-9.102-10.826-2.287-3.911-3.836-8.375-4.142-12.648-.087-2.144 0-4.265.52-6.254.532-1.978 1.331-3.837 2.415-5.46a18.209 18.209 0 013.927-4.08c1.462-1.02 3.217-1.933 4.722-2.362 1.588-.465 3.153-.524 4.46-.083 1.322.409 2.283 1.405 2.859 2.494.516 1.163.643 2.247.294 3.43-.274.918-.91 1.82-1.617 2.205-1.489.87-2.811 0-3.371-.759-.584-.798-.719-1.386-.747-1.362a.715.715 0 00-1.354.46c.044-.011.135.668.858 1.8.405.532.973 1.219 1.958 1.644.965.425 2.331.448 3.53-.183 1.207-.647 2.144-1.767 2.673-3.328.468-1.298.472-3.213-.223-4.813-.715-1.608-2.101-3.161-4.003-3.868-1.878-.746-4.034-.738-6.008-.21-2.077.556-3.804 1.417-5.671 2.613-.087.06-.163.143-.25.206.036-.147.079-.258.111-.413.31-1.47.481-3.3.056-5.29-.393-1.985-1.593-4.062-3.304-5.48-.802-.683-1.815-1.338-2.995-1.72-1.175-.372-2.605-.392-3.816.144-1.215.508-2.124 1.425-2.688 2.398-.556.985-.83 2.05-.802 3.066.027 1.013.333 1.966.802 2.689a5.03 5.03 0 001.525 1.537 5.4 5.4 0 001.175.58c.278.095.421.146.421.146a1.627 1.627 0 002.049-1.044 1.62 1.62 0 00-1.044-2.045c.059-.044-1.458-.37-1.418-1.903-.032-.766.512-1.842 1.346-2.148.405-.163.882-.19 1.466-.055.579.158 1.191.492 1.826.984 1.208.926 1.994 2.22 2.439 3.626.429 1.414.512 2.907.476 4.206a25.447 25.447 0 01-.353 3.137c-.624.647-1.239 1.306-1.791 2.045-1.342 1.878-2.359 4.043-3.05 6.358-.675 2.327-.882 4.801-.826 7.287.334 4.995 1.954 9.832 4.539 14.352 2.426 4.296 5.834 8.43 9.713 11.758 3.88 3.395 8.276 6.04 12.649 8.324.42.222.833.413 1.254.631-.698.087-1.417.238-2.152.425-1.573.349-3.185.921-4.757 1.565-3.153 1.286-6.013 3.113-8.046 4.598-2.029 1.481-3.256 2.685-3.256 2.685l-.012.012a.696.696 0 00.953 1.012s1.183-1.068 3.216-2.426c2.018-1.342 4.841-2.978 7.863-4.059 1.505-.544 3.038-1.012 4.504-1.27.726-.155 1.433-.278 2.112-.322.675-.068 1.311-.159 1.899-.135l1.604-.012c.095.008.159.016.25.024 2.518 1.235 4.996 2.446 7.347 3.693 4.03 2.133 7.708 4.464 10.646 7.216.326.305.604.643.91.961-4.448-1.768-10.826-1.64-18.279 1.505-6.819 2.879-9.694 2.315-9.694 2.315 3.475 6.322 15.591 1.052 22.123 1.159 4.42.072 8.884 2.359 11.31 3.833 1.132 3.117 1.485 6.163.997 8.74-.5 2.72-1.863 4.849-3.241 6.338a17.563 17.563 0 01-3.689 3.014c-.953.584-1.473.794-1.473.798a.717.717 0 00-.409.882c.123.373.524.58.897.461l.024-.008s.651-.211 1.724-.759c1.072-.556 2.641-1.437 4.296-3.038 1.645-1.576 3.4-3.959 4.194-7.168.842-3.192.488-7.009-.802-10.682-.318-.953-.675-1.791-1.12-2.816-.429-.865-.838-1.735-1.438-2.692a28.153 28.153 0 00-1.874-2.708c-.655-3.026-1.128-7.708 1.14-10.838 3.582-4.952 6.953-11.587.421-15.698 1.473 1.474-1.319 7.403-4.265 12.355-1.827 3.065-1.652 7.295-1.255 10.07a37.565 37.565 0 00-3.165-2.489c0-.008-.004-.016-.004-.028a23.836 23.836 0 01-.135-3.824c.087-1.664.27-3.71.854-5.993.135-.572.246-1.167.413-1.771.202-.592.413-1.203.631-1.831.417-1.259.854-2.581 1.537-3.884.631-1.354 1.29-2.763 1.974-4.225l2.065-4.551c.337-.794.754-1.549 1.036-2.398.262-.866.532-1.74.802-2.621.528-1.772 1.112-3.57 1.616-5.417.318-1.874.64-3.781.965-5.711.139-.965.382-1.93.433-2.914.04-.99.084-1.978.127-2.979.028-1.993.286-4.003.127-6.016-.162-2.01-.329-4.03-.496-6.048-.04-1.013-.21-2.01-.445-2.998l-.615-2.967c-.421-1.97-.743-3.96-1.489-5.818-.648-1.882-1.291-3.752-1.922-5.599-.783-1.787-1.708-3.487-2.526-5.194zm-5.464 68.57c-.235.663-.461 1.306-.68 1.934-.182.639-.309 1.278-.46 1.886-.644 2.426-.866 4.634-.973 6.445-.044.83-.044 1.565-.02 2.232a66.263 66.263 0 00-1.851-1.1c-2.057-3.757-5.821-11.854-5.047-19.745 1.052-10.746 10.007-7.795 5.687-2.632 0 0-.735 4.003 1.791 3.264.595-.175 1.628-1.188 2.434-2.74-.306 2.077.949 3.109 2.153 3.498l-1.375 2.879c-.722 1.355-1.207 2.748-1.659 4.079zm-8.715-94.835c16.663 18.383 19.487 32.973 19.487 32.973s6.953-9.245 2.371-23.227c-4.583-13.983-22.203-18.49-22.203-18.49s4.11-2.685 1.66-9.007c-2.45-6.322-9.638-13.01-9.638-13.01s4.424-1.052 6.111-4.951c1.255-2.903.112-7.37 4.111-8.324 3.319-.79 4.844 1.894 4.844 1.894-2.474.16-2.633 2.423-1.683 4.424.949 2.002 5.793 3.054 6.532-2.212.739-5.27-6.215-9.693-13.061-8.216-13.625 2.939-17.918 26.762 1.469 48.146zm-14.842-2.533c-.588-.71-1.319-1.56-2.272-2.427a25.356 25.356 0 00-3.368-2.684c-1.298-.91-2.795-1.72-4.491-2.518-1.568-.683-3.447-1.397-5.377-1.854-1.958-.469-4.078-.743-6.338-.556-1.124.111-2.287.31-3.455.806-1.147.496-2.37 1.211-3.26 2.565-.945 1.33-.981 3.487-.139 4.845.782 1.406 1.926 2.2 2.994 2.764 2.184 1.108 4.337 1.374 6.354 1.505 2.013.107 3.983-.047 5.715-.246.814-.06 1.608-.12 2.378-.175.779.008 1.533.02 2.256.028 2.911.15 5.345.608 7.025.973 1.684.393 2.609.687 2.609.687l2.625.842-1.982-2.847c-.305-.382-.663-1.025-1.274-1.708zm-8.789-.512c-.786-.068-1.6-.14-2.446-.21-.858.003-1.747.003-2.661.003-1.719.068-3.411.068-5.162-.15-1.716-.223-3.507-.652-4.813-1.466-.651-.39-1.14-.902-1.287-1.29-.163-.406-.047-.517.084-.894.377-.818 2.021-1.656 3.673-1.87 1.688-.27 3.503-.187 5.238.107 1.775.297 3.36.774 5.012 1.358 1.473.58 2.918 1.227 4.153 1.97a22.723 22.723 0 013.237 2.227c.707.56 1.267 1.132 1.763 1.636-1.692-.484-3.983-1.072-6.791-1.421z" fill="#C90C0F"/><path d="M315.129 5.312c-.612 1.632-.461 3.097-.187 4.328.6 2.482 1.827 4.32 3.054 5.969 1.247 1.624 2.664 3.042 3.943 4.23.572.57 1.124 1.127 1.66 1.667.497.592.973 1.163 1.434 1.715 1.767 2.284 2.998 4.416 3.812 5.925.377.763.675 1.359.878 1.768l.29.643 1.322 2.919 1.032-3.741c.108-.48.378-1.175.517-2.093.17-.913.357-2.033.417-3.328.083-1.29.083-2.764-.092-4.352-.131-1.596-.464-3.28-.949-5.127-.472-1.64-1.135-3.578-2.029-5.373-.905-1.83-2.069-3.673-3.705-5.33-.83-.821-1.755-1.607-2.939-2.215-1.167-.588-2.577-1.104-4.328-.901-1.752.123-3.598 1.64-4.13 3.296zm8.335 3.117c1.255 1.06 2.355 2.462 3.253 3.947.917 1.525 1.576 2.998 2.207 4.639.509 1.465.962 2.97 1.192 4.376.278 1.398.389 2.708.413 3.864.02.504-.036.969-.056 1.414-.687-1.486-1.58-3.3-2.847-5.286l-1.414-2.037c-.556-.668-1.132-1.358-1.723-2.07-1.148-1.282-2.204-2.56-3.138-4.026-.905-1.438-1.691-3.062-1.87-4.484-.107-.698-.008-1.322.155-1.556.171-.254.155-.08.385-.227.6-.238 2.256.362 3.443 1.446zM274.168 45.48c1.819-5.294 8.614-7.899 8.614-7.899-5.135.159-9.404-.318-14.38 5.687-4.972 6 2.498 11.734 5.766 2.212zm16.361-50.645c-.802 8.872 1.596 13.45 5.615 17.588 0 0-1.965-9.113.818-14.927 5.004-10.464-5.635-11.524-6.433-2.66zm14.509 41.21s-.636-1.569-1.855-4.27c-1.255-2.68-2.998-6.54-5.401-11.035-2.39-4.5-5.337-9.678-9.105-14.94-1.919-2.613-3.968-5.297-6.616-7.74-1.343-1.207-2.8-2.402-4.762-3.292-.985-.424-2.14-.786-3.487-.762a6.391 6.391 0 00-3.852 1.358c-.357.274-.476.401-.627.536a6.27 6.27 0 00-.766.906 5.67 5.67 0 00-.866 2.085c-.278 1.437-.036 2.636.25 3.669.62 2.06 1.581 3.637 2.557 5.143 1.982 2.97 4.262 5.44 6.489 7.779 4.496 4.63 9.019 8.498 12.978 11.7 3.943 3.216 7.402 5.666 9.789 7.413 2.41 1.724 3.844 2.641 3.844 2.641l2.573 1.648-1.143-2.84zm-12.609-11.676c-3.633-3.454-7.851-7.513-12.001-12.092-2.061-2.283-4.086-4.745-5.782-7.299-.818-1.266-1.556-2.617-1.878-3.784-.163-.568-.198-1.084-.131-1.303.028-.115.06-.167.095-.226.008-.012.096-.095.044-.06.155-.15.338-.317.326-.29.448-.345 1.032-.448 2.212.032 1.111.48 2.319 1.374 3.435 2.375 2.247 2.033 4.32 4.448 6.199 6.87 3.764 4.873 6.945 9.785 9.642 14.006a531.998 531.998 0 015.4 8.773 754.36 754.36 0 01-7.561-7.002z" fill="#C90C0F"/></g><mask id="b" style="mask-type:alpha" maskUnits="userSpaceOnUse" x="304" y="67" width="71" height="83"><path d="M304.055 87.669v41.089l35.581 20.551 34.927-20.165V87.288l-34.927-20.166-35.581 20.547z" fill="#000"/></mask><g mask="url(#b)"><path d="M304.055 87.669v41.089l35.581 20.551 34.927-20.165V87.288l-34.927-20.166-35.581 20.547z" fill="#0081C9"/><path d="M348.296 152.546s6.163 2.763 11.536-5.373c0 0-5.687-6.636-13.59-.473-7.902 6.163-5.686 14.062-17.461 16.909 0 0 6.708 3.697 13.196-.397 6.636-4.19 6.319-10.666 6.319-10.666zm-34.344-16.803c1.99-4.062 2.319-5.69 2.319-5.69s-8.323.21-9.483 5.373c-1.155 5.162 4.428 5.901 7.164.317zm-2.947-60.786c-4.281-3.11-6.35 3.114-2.303 7.84 2.938 3.434 4.304 4.38 4.304 4.38s2.28-9.114-2.001-12.22zm47.824-6.739a2.422 2.422 0 100-4.844 2.422 2.422 0 000 4.844z" fill="#0069B4"/><path d="M339.132 148.122c7.267-11.378 16.909-13.431 22.437-8.058 5.532 5.373-.317 11.06-.317 11.06s7.664-4.424 2.688-12.168c-4.066-6.326-16.988-5.686-23.227-2.291-7.18 3.908-7.478 8.558-7.478 8.558-11.905.317-11.274 9.058-11.274 9.058-7.688-6.954-13.641-.631-13.641-.631 10.115 17.699 23.545 5.849 30.812-5.528zm-19.195-4.372c0-1.33-.79-2.454-1.914-2.994.159-.687.366-1.478.655-2.327.259.067.505.158.783.158a3.184 3.184 0 003.185-3.184c0-1.025-.517-1.899-1.271-2.482.556-.842 1.136-1.7 1.874-2.49.036-.044.08-.08.115-.123.378.182.787.301 1.231.301a2.873 2.873 0 002.872-2.871c0-.357-.084-.695-.203-1.012.834-.608 1.68-1.208 2.597-1.704a2.464 2.464 0 001.692.683 2.474 2.474 0 002.474-2.474c0-.044-.024-.079-.024-.123.977-.326 1.922-.715 2.883-.989.397.624 1.061 1.056 1.855 1.056 1.124 0 2.017-.841 2.176-1.926.357-.071.719-.154 1.072-.198.818-.084 1.553-.159 2.307-.234.314.639.957 1.092 1.716 1.092.862 0 1.565-.576 1.807-1.359 1.271-.019 2.379.044 3.228.004 1.319 0 2.073.004 2.073.004h.048a.522.522 0 00.012-1.044s-.767-.016-2.105-.04c-.858.024-1.977-.055-3.256-.059-.246-.779-.949-1.354-1.807-1.354-.933 0-1.676.679-1.851 1.56-.754.064-1.529.127-2.347.195-.345.036-.702.115-1.056.175a2.23 2.23 0 00-2.017-1.299c-1.2 0-2.161.949-2.216 2.136-.997.267-1.986.652-3.002.969-.449-.619-1.144-1.048-1.97-1.048a2.474 2.474 0 00-2.474 2.474c0 .175.063.326.099.489-.993.512-1.922 1.147-2.835 1.791-.489-.382-1.072-.648-1.74-.648a2.873 2.873 0 00-2.871 2.871c0 .544.195 1.025.457 1.458-.048.055-.111.103-.155.163-.889.925-1.584 1.938-2.252 2.918-.107-.012-.202-.063-.313-.063a3.184 3.184 0 00-3.185 3.185c0 .814.329 1.541.83 2.1a24.576 24.576 0 00-.91 2.983c-1.652.206-2.946 1.556-2.946 3.264a3.344 3.344 0 003.344 3.344c1.838.016 3.335-1.481 3.335-3.328zm14.983-33.922s-19.384-4.742-24.443-21.913c-4.003 7.267 0 13.697 0 13.697-3.157 1.461-5.067 9.129 1.263 11.695 0 0-3.685 2.108-2.74 7.902.949 5.794 6.743 7.585 6.743 7.585s1.056-15.805 19.177-18.966z" fill="#0069B4"/><path d="M366.065 35.384l-1.251-2.525c-.464-.894-.977-1.573-1.457-2.36-.639-1.091-1.418-2.116-2.2-3.12-3.562-5.886-10.54-13.149-23.763-14.916-6.791-.905-13.673 1.203-18.411 6.874-4.821 5.766-7.922 14.435-2.259 22.183 6.373 8.717 18.477 6.711 21.142 1.441 3.495-6.905-1.183-13.907-7.188-14.617-6.004-.711-8.768 2.764-8.768 2.764 3.872-11.692 14.932-13.038 21.412-11.85 6.481 1.183 13.749 6.953 14.773 12.878.953 5.496 4.281 3.991 6.084 3.368.107.226.214.444.326.675.206.444.429.89.647 1.334-1.553-.044-4.368.246-4.368 2.998 0 3.793 3.554 7.426 5.686 14.539 2.133 7.112-1.632 11.472-1.421 12.799.413 2.62 4.019 3.073 6.242 3.252l-.083 1.692c-.004.06-.02.119-.024.182-3.161-2.382-7.91.406-6.842 2.538 1.183 2.37.869 10.508-1.898 15.408-.032.056-.052.107-.084.163.6-2.601.29-5.905-2.47-9.277-3.792-4.634-8.637-5.69-8.637-5.69 6.425-19.487-4.11-29.92-4.11-29.92.738 7.062-.421 12.43-3.582 34.975-2.272 16.214 3.343 26.345 6.683 30.776-1.159-.587-2.307-1.207-3.471-1.799-2.227-3.478-6.997-11.715-7.318-18.97 0 0 3.03-4.082 1.659-9.034-1.37-4.952-3.24-7.744-3.975-10.667-3.804 17.116 3.241 31.305 6.966 37.289l-.417-.214c-5.234-4.329-7.387-7.684-7.387-7.684.842-7.482-3.304-14.018-6.425-17.7-4.741-5.583-5.373-10.325-5.373-10.325-1.862 13.907 6.068 25.313 11.334 31.19-1.99-1.287-3.912-2.669-5.711-4.19-3.649-3.097-6.683-6.655-9.102-10.825-2.287-3.912-3.836-8.375-4.142-12.648-.087-2.145 0-4.265.521-6.255.532-1.977 1.33-3.836 2.414-5.46a18.19 18.19 0 013.928-4.079c1.461-1.02 3.216-1.933 4.721-2.362 1.589-.465 3.153-.525 4.46-.084 1.322.41 2.283 1.406 2.859 2.494.516 1.164.644 2.248.294 3.431-.274.918-.909 1.819-1.616 2.204-1.489.87-2.812 0-3.372-.758-.583-.798-.718-1.386-.746-1.362a.716.716 0 00-1.354.465c.043-.013.135.666.857 1.798.405.532.973 1.22 1.958 1.644.965.43 2.331.449 3.53-.182 1.208-.648 2.145-1.768 2.673-3.328.469-1.299.473-3.213-.222-4.813-.715-1.609-2.101-3.161-4.003-3.868-1.879-.747-4.035-.739-6.009-.21-2.077.555-3.804 1.417-5.67 2.612-.088.06-.163.143-.251.207.036-.147.08-.258.112-.413.309-1.47.48-3.3.055-5.29-.393-1.985-1.592-4.062-3.304-5.48-.802-.683-1.815-1.338-2.994-1.72-1.176-.373-2.605-.393-3.816.144-1.216.508-2.125 1.425-2.689 2.398-.556.985-.83 2.05-.802 3.066.028 1.012.334 1.965.802 2.688a5.051 5.051 0 001.525 1.537c.489.318.902.485 1.176.58.278.095.42.147.42.147a1.627 1.627 0 002.05-1.045 1.62 1.62 0 00-1.045-2.045c.06-.043-1.457-.369-1.418-1.902-.031-.766.513-1.843 1.347-2.148.405-.163.881-.19 1.465-.056.58.159 1.191.492 1.827.985 1.207.925 1.993 2.22 2.438 3.626.429 1.413.512 2.907.477 4.205a25.617 25.617 0 01-.354 3.137c-.623.648-1.239 1.307-1.791 2.045-1.342 1.879-2.359 4.043-3.05 6.358-.675 2.327-.881 4.801-.826 7.287.334 4.996 1.954 9.833 4.539 14.348 2.427 4.297 5.834 8.43 9.714 11.759 3.88 3.395 8.276 6.04 12.648 8.323.421.223.834.413 1.255.632-.699.087-1.418.238-2.153.425-1.572.349-3.184.921-4.757 1.564-3.153 1.287-6.012 3.114-8.046 4.599-2.029 1.481-3.256 2.684-3.256 2.684l-.012.012a.696.696 0 00.953 1.013s1.184-1.068 3.217-2.426c2.017-1.343 4.841-2.979 7.863-4.059 1.505-.544 3.038-1.013 4.503-1.271.727-.155 1.434-.278 2.113-.321.675-.068 1.31-.159 1.898-.135.588-.004 1.128-.012 1.604-.016.096.008.159.016.251.023 2.517 1.236 4.995 2.447 7.346 3.694 4.031 2.132 7.708 4.463 10.647 7.215.325.306.603.644.909.961-4.447-1.767-10.825-1.64-18.279 1.505-6.818 2.879-9.694 2.316-9.694 2.316 3.475 6.322 15.591 1.052 22.124 1.159 4.42.072 8.883 2.359 11.31 3.832 1.131 3.118 1.485 6.164.996 8.741-.5 2.72-1.862 4.849-3.24 6.334a17.588 17.588 0 01-3.689 3.014c-.953.584-1.474.794-1.474.798a.718.718 0 00-.409.882.718.718 0 00.898.46l.024-.008s.651-.21 1.723-.758c1.072-.556 2.641-1.442 4.297-3.038 1.644-1.577 3.399-3.959 4.193-7.168.842-3.193.489-7.005-.802-10.682-.317-.953-.675-1.791-1.12-2.816-.428-.866-.837-1.735-1.437-2.692a28.177 28.177 0 00-1.875-2.709c-.655-3.026-1.127-7.708 1.14-10.837 3.582-4.952 6.954-11.588.421-15.698 1.473 1.473-1.318 7.402-4.265 12.354-1.827 3.066-1.652 7.295-1.255 10.071a37.619 37.619 0 00-3.165-2.49c0-.008-.004-.016-.004-.028a23.944 23.944 0 01-.135-3.824c.088-1.664.27-3.709.854-5.992.135-.572.246-1.168.413-1.771.203-.592.413-1.204.631-1.831.417-1.259.854-2.581 1.537-3.884l1.974-4.225c.667-1.47 1.354-2.987 2.065-4.551.338-.794.754-1.549 1.036-2.399.263-.865.533-1.74.803-2.62.528-1.772 1.112-3.57 1.616-5.413.318-1.875.639-3.78.965-5.71.139-.966.381-1.93.433-2.916.039-.989.083-1.977.127-2.978.028-1.994.286-4.003.127-6.012-.163-2.01-.33-4.031-.497-6.048-.039-1.013-.21-2.01-.444-2.999l-.616-2.966c-.421-1.97-.742-3.96-1.489-5.818-.647-1.882-1.291-3.753-1.922-5.6-.782-1.786-1.708-3.486-2.526-5.194zm-5.464 68.57c-.234.664-.461 1.307-.679 1.934-.183.64-.31 1.279-.461 1.887-.643 2.426-.865 4.634-.973 6.445-.043.83-.043 1.565-.02 2.232a63.858 63.858 0 00-1.85-1.1c-2.057-3.757-5.822-11.854-5.047-19.745 1.052-10.746 10.007-7.795 5.686-2.633 0 0-.734 4.003 1.791 3.264.596-.174 1.628-1.187 2.435-2.74-.306 2.077.949 3.11 2.152 3.499l-1.374 2.88c-.727 1.353-1.207 2.747-1.66 4.077z" fill="#0069B4"/></g><path d="M272.991 87.78h-6.405v7.453h6.405v6.401h7.45v-6.402h6.406V87.78h-6.406v-6.405h-7.45v6.406z" fill="#fff"/><path d="M347.499 48.625h-6.405v7.45h6.405v6.406h7.45v-6.406h6.406v-7.45h-6.406V42.22h-7.45v6.405z" fill="#C90C0F"/><path d="M87.45 157.948v-29.784l25.794-14.892 25.794 14.892v29.784l-25.794 14.892-25.794-14.892zm-26.876-46.556V81.608l25.75-14.866 25.838 14.919v29.731l-25.794 14.892-25.794-14.892zm53.756 0V81.661l25.839-14.919 25.749 14.866v29.784l-25.794 14.892-25.794-14.892zM87.45 64.84V35.11l25.794-14.893 25.794 14.892V64.84l-25.794 14.892L87.45 64.84zm25.9-47.066l-28.068 16.08V64.84L58.406 80.357v32.285l26.876 15.517v31.039l27.962 16.142 27.962-16.142v-31.039l26.876-15.517V80.357L141.206 64.84V33.855l-27.856-16.08z" fill="#fff"/><mask id="c" style="mask-type:alpha" maskUnits="userSpaceOnUse" x="92" y="26" width="42" height="48"><path d="M92.875 38.022v23.693l20.518 11.846 20.514-11.846V38.022l-20.514-11.846-20.518 11.846z" fill="#000"/></mask><g mask="url(#c)"><path d="M92.875 38.022v23.693l20.518 11.846 20.514-11.846V38.022l-20.514-11.846-20.518 11.846z" fill="#fff"/><path d="M131.242 54.537c2.895-1.521.948-5.192-3.911-4.208-4.908.993-8.534 1.122-8.534 1.122s8.632 5.085 12.445 3.086zM98.353 39.88a3.067 3.067 0 004.07 1.476 3.067 3.067 0 001.476-4.07 3.06 3.06 0 00-4.07-1.472 3.052 3.052 0 00-1.476 4.065zm-4.67-6.443a2.8 2.8 0 102.375 5.072 2.8 2.8 0 00-2.375-5.072z" fill="#EDEDED"/><path d="M84.742 40.549c.457.368.914.727 1.361 1.086.497.377.958.625 1.432.94.643.444 1.348.811 2.049 1.17 3.538 2.364 9.345 4.598 17.215 2.124 4.039-1.272 7.337-4.256 8.503-8.672 1.188-4.49.652-10.157-4.548-13.012-5.853-3.21-12.104 1.086-12.215 4.735-.146 4.784 4.31 7.475 7.856 6.3 3.547-1.175 4.186-3.848 4.186-3.848.895 7.559-4.944 11.212-8.881 12.245-3.937 1.033-9.518-.288-11.646-3.338-1.973-2.829-3.445-1.113-4.288-.293l-.359-.293c-.23-.195-.474-.385-.713-.576.882-.381 2.38-1.281 1.658-2.824-.993-2.124-3.937-3.228-6.996-6.646-3.06-3.422-2.093-6.85-2.558-7.537-.918-1.36-3.055-.67-4.35-.186-.133-.324-.266-.647-.394-.971-.014-.035-.023-.07-.036-.106 2.394.505 4.323-2.301 3.166-3.215-1.286-1.015-3.241-5.657-2.975-9.124.004-.04 0-.075.004-.115.346 1.614 1.388 3.383 3.818 4.544 3.338 1.6 6.326.923 6.326.923 1.508 12.595 10.144 15.672 10.144 15.672-2.261-3.76-3.024-7.072-7.16-20.518C82.366-.66 76.563-4.86 73.535-6.464c.802.027 1.604.071 2.416.098 2.159 1.365 6.987 4.726 9.07 8.703 0 0-.624 3.081 1.437 5.493 2.066 2.412 3.844 3.485 5.023 4.93C89.123 2.182 81.461-3.919 77.808-6.29l.293.013c4.066 1.05 6.15 2.363 6.15 2.363C85.74.493 89.773 3.068 92.487 4.31c4.118 1.884 5.714 4.371 5.714 4.371C95.6.408 88.17-3.897 83.682-5.807c1.455.2 2.891.47 4.297.85 2.855.777 5.488 1.978 7.936 3.676 2.305 1.587 4.34 3.684 5.635 5.994.611 1.175 1.117 2.39 1.347 3.64.222 1.246.262 2.496.08 3.689a11.237 11.237 0 01-1.13 3.312c-.55.953-1.295 1.924-2.026 2.562-.767.674-1.627 1.117-2.474 1.215-.847.12-1.65-.19-2.252-.647-.595-.52-.95-1.091-1.064-1.845-.09-.585.03-1.254.328-1.658.607-.878 1.573-.736 2.088-.457.536.293.767.59.776.568a.438.438 0 00.625.009.438.438 0 00.008-.625c-.022.017-.252-.342-.953-.785-.363-.19-.864-.426-1.525-.408-.651.013-1.423.36-1.928 1.029-.506.678-.736 1.551-.621 2.562.08.852.576 1.92 1.388 2.638.82.714 2.004 1.22 3.254 1.117 1.246-.075 2.452-.643 3.418-1.454 1.02-.855 1.756-1.79 2.492-2.948.031-.058.053-.124.084-.182.022.093.022.164.049.262.212.904.594 1.973 1.356 2.975.741 1.01 1.955 1.857 3.286 2.203.629.173 1.365.275 2.128.177.758-.102 1.56-.465 2.101-1.081.55-.603.816-1.357.878-2.049.053-.696-.071-1.365-.355-1.924a3.262 3.262 0 00-1.152-1.294 3.152 3.152 0 00-1.255-.461 3.43 3.43 0 00-.812-.018c-.177.018-.274.03-.274.03a1.01 1.01 0 00-.874 1.123c.071.55.572.94 1.122.873-.022.04.913-.177 1.29.696.217.421.195 1.166-.191 1.556-.186.2-.443.337-.806.417-.364.062-.794.035-1.282-.071-.917-.2-1.698-.718-2.314-1.392-.612-.678-1.051-1.494-1.37-2.23a15.915 15.915 0 01-.625-1.849c.177-.523.35-1.055.465-1.614.262-1.405.262-2.882.04-4.362-.23-1.481-.762-2.918-1.449-4.296-1.495-2.71-3.671-4.992-6.305-6.846-2.483-1.769-5.475-3.192-8.521-4.034-3.06-.882-6.216-1.215-9.266-1.348-.293-.013-.576-.013-.869-.022.368-.23.732-.505 1.095-.802.79-.608 1.543-1.353 2.252-2.124 1.428-1.547 2.55-3.32 3.299-4.682.75-1.361 1.117-2.358 1.117-2.358l.005-.01a.43.43 0 00-.798-.314s-.386.909-1.167 2.199c-.775 1.281-1.928 2.935-3.338 4.331-.7.7-1.436 1.362-2.186 1.889a9.902 9.902 0 01-1.1.736c-.358.213-.69.43-1.028.572a85.2 85.2 0 00-.895.43 1.424 1.424 0 00-.147.053c-1.733-.03-3.436-.062-5.08-.142-2.816-.137-5.489-.479-7.852-1.25-.262-.089-.505-.2-.763-.301 2.953-.178 6.491-1.92 9.838-5.63 3.064-3.401 4.82-3.84 4.82-3.84-3.605-2.63-9.005 3.498-12.69 5.147-2.49 1.117-5.59 1.006-7.337.82-1.45-1.45-2.447-3.063-2.846-4.633-.43-1.654-.23-3.2.155-4.398.39-1.201.9-2.084 1.277-2.651.381-.576.616-.834.616-.834a.443.443 0 000-.598.446.446 0 00-.625-.022l-.013.009s-.31.288-.767.877c-.452.595-1.1 1.499-1.61 2.829-.505 1.312-.864 3.108-.47 5.112.369 2.008 1.566 4.052 3.25 5.772.426.448.847.825 1.366 1.281.465.373.922.754 1.512 1.131.563.377 1.148.714 1.76 1.024 1.157 1.52 2.651 4.021 2.203 6.367-.709 3.71-.855 8.308 3.88 8.898-1.215-.44-1.202-4.492-.852-8.034.218-2.194-.988-4.518-1.937-5.967.794.226 1.6.42 2.425.563.005.004.005.009.009.013.275.448.683 1.153 1.077 2.106.39.953.82 2.146 1.09 3.578.076.354.17.718.236 1.1.04.385.084.784.129 1.187.097.812.199 1.672.16 2.576 0 .927 0 1.889.004 2.882.013.998.026 2.026.035 3.09.022.532-.018 1.064.049 1.614l.24 1.676c.168 1.13.314 2.292.513 3.454.315 1.13.634 2.283.958 3.449.177.576.293 1.179.523 1.747.235.563.475 1.13.71 1.697.505 1.122.89 2.315 1.502 3.401.621 1.082 1.242 2.168 1.863 3.254a9.424 9.424 0 001.033 1.56l1.121 1.5c.754.992 1.454 2.021 2.359 2.863.856.887 1.707 1.765 2.545 2.63.886.806 1.853 1.516 2.757 2.256zM69.828.728c-.044-.43-.084-.852-.124-1.26-.067-.407-.16-.798-.235-1.179-.275-1.525-.727-2.82-1.144-3.861-.19-.475-.386-.887-.572-1.255.44.049.882.093 1.326.133 2.137 1.565 6.366 5.112 8.002 9.731 2.226 6.291-3.56 6.987-2.496 2.966 0 0-.638-2.434-1.857-1.356-.289.252-.599 1.09-.643 2.172-.373-1.241-1.348-1.494-2.124-1.392l.013-1.973c.045-.958-.053-1.862-.146-2.726zM99.57 51.535c-14.148-5.923-19.552-13.353-19.552-13.353s-1.468 6.996 4.761 13.624c6.23 6.628 17.278 4.53 17.278 4.53s-1.597 2.581 1.432 5.476c3.028 2.895 8.804 4.757 8.804 4.757s-2.199 1.751-2.123 4.376c.057 1.955 1.871 4.154-.12 5.737-1.649 1.312-3.21.208-3.21.208 1.344-.736.838-2.048-.217-2.917-1.055-.873-4.043-.19-3.077 2.948.967 3.144 6.021 3.795 9.466 1.175 6.854-5.205 3.014-19.667-13.443-26.56zm8.965-2.47c.514.244 1.148.528 1.906.763.749.248 1.623.479 2.589.62.967.169 2.018.231 3.175.231 1.055-.026 2.296-.12 3.498-.368 1.219-.253 2.478-.652 3.693-1.352.603-.355 1.201-.776 1.724-1.357.515-.576 1.011-1.299 1.153-2.292.182-.993-.363-2.208-1.192-2.749-.807-.58-1.654-.727-2.403-.762-1.512-.049-2.789.368-3.955.824-1.157.47-2.217 1.069-3.135 1.636-.438.249-.868.488-1.285.723-.439.2-.865.39-1.273.576a26.704 26.704 0 01-4.185 1.295c-1.046.222-1.64.297-1.64.297l-1.689.217 1.857 1.073c.275.138.643.404 1.162.625zm5.054-2.017l1.428-.523c.478-.226.979-.461 1.489-.7.945-.488 1.893-.932 2.931-1.269 1.019-.323 2.132-.554 3.077-.438.465.048.873.203 1.059.385.2.182.164.275.191.523 0 .559-.696 1.459-1.57 2.009-.873.594-1.91 1.02-2.961 1.312-1.073.297-2.084.448-3.161.554-.98.062-1.955.08-2.842-.013a13.868 13.868 0 01-2.394-.4 11.117 11.117 0 01-1.419-.456 27.182 27.182 0 004.172-.984zm3.316-10.711c.368 3.44-2.749 6.681-2.749 6.681 2.833-1.436 5.347-2.288 6.557-6.952 1.215-4.664-4.473-5.914-3.808.27z" fill="#EDEDED"/><path d="M121.012 68.981c-1.875-5.178-4.42-7.111-7.754-8.375 0 0 3.489 4.59 3.453 8.57-.057 7.174 6.176 4.975 4.301-.195zm4.508-.044c-1.809-3.578-3.818-4.757-6.34-5.382 0 0 2.926 3.015 3.245 5.9.585 5.192 4.899 3.06 3.095-.518zm-23.425-19.224s.767.713 2.159 1.902c1.406 1.17 3.396 2.877 5.915 4.761 2.518 1.893 5.524 4.021 9.013 5.977 1.76.957 3.609 1.924 5.732 2.598 1.069.323 2.195.611 3.529.594.665-.018 1.406-.12 2.151-.488a3.954 3.954 0 001.8-1.77c.128-.247.159-.345.212-.465a3.73 3.73 0 00.191-.709 3.51 3.51 0 00-.062-1.396c-.222-.878-.674-1.486-1.104-1.991-.887-.993-1.835-1.623-2.78-2.208-1.888-1.144-3.812-1.929-5.67-2.656-3.729-1.414-7.275-2.394-10.33-3.147-3.05-.767-5.631-1.233-7.426-1.588-1.8-.332-2.847-.47-2.847-.47l-1.875-.248 1.392 1.304zm10.117 3.232c2.94.984 6.367 2.15 9.887 3.626 1.751.736 3.534 1.587 5.152 2.572.789.492 1.556 1.055 2.044 1.627.239.275.394.554.416.696.018.07.009.11.005.15 0 .01-.027.08-.009.045a1.884 1.884 0 01-.106.248c-.16.31-.462.523-1.246.563-.75.022-1.658-.16-2.545-.43-1.791-.55-3.582-1.357-5.271-2.221-3.388-1.742-6.456-3.658-9.071-5.311a311.736 311.736 0 01-5.321-3.498 358.34 358.34 0 016.065 1.933z" fill="#EDEDED"/></g><mask id="d" style="mask-type:alpha" maskUnits="userSpaceOnUse" x="158" y="14" width="80" height="92"><path d="M158.188 37.012v44.365l39.726 24.435 39.726-24.434.004-44.366-39.733-22.944-39.723 22.944z" fill="#fff"/></mask><g mask="url(#d)"><path d="M158.188 37.012v44.365h79.452l.004-44.365-39.733-22.944-39.723 22.944z" fill="#fff"/><path d="M158.187 82.48V38.114h79.453l.004 44.366-39.733 22.943-39.724-22.943z" fill="#fff"/><path d="M223.918 88.073c-2.119 5.643 1.268 10.356 4.412 6.969 3.351-3.618 2.207-14.112 4.411-18.346 0-.004-6.703 5.728-8.823 11.377zm-19.405-11.82s6.88 3.086 12.879-5.999c0 0-6.349-7.408-15.171-.527-8.823 6.88-6.349 15.699-19.494 18.878 0 0 7.488 4.127 14.732-.444 7.408-4.677 7.054-11.908 7.054-11.908zM166.171 57.49c2.222-4.535 2.59-6.348 2.59-6.348s-9.293.235-10.588 5.998c-1.29 5.76 4.944 6.584 7.998.35z" fill="#EDEDED"/><path d="M194.282 71.31c8.113-12.702 18.878-14.995 25.049-8.996 6.172 5.998-.354 12.347-.354 12.347s8.556-4.939 3.001-13.584c-4.54-7.063-18.966-6.349-25.931-2.558-8.016 4.362-8.349 9.554-8.349 9.554-13.291.355-12.586 10.113-12.586 10.113-8.583-7.763-15.229-.705-15.229-.705 11.292 19.764 26.286 6.53 34.399-6.171zm-21.434-4.882c0-1.481-.883-2.74-2.137-3.343.177-.767.408-1.65.731-2.598.288.075.563.177.874.177a3.555 3.555 0 003.555-3.556c0-1.143-.576-2.119-1.418-2.77.62-.94 1.268-1.902 2.092-2.785.036-.048.089-.088.129-.137.421.204.878.337 1.374.337a3.208 3.208 0 003.206-3.206 3.19 3.19 0 00-.227-1.13c.932-.678 1.876-1.343 2.9-1.898a2.751 2.751 0 001.889.763 2.763 2.763 0 002.762-2.762c0-.049-.027-.089-.027-.138 1.091-.363 2.146-.798 3.219-1.103.443.696 1.184 1.183 2.07 1.183 1.255 0 2.252-.94 2.43-2.15.399-.08.802-.173 1.197-.222.913-.093 1.733-.173 2.576-.261.35.714 1.068 1.219 1.915 1.219.962 0 1.747-.643 2.017-1.516 1.419-.022 2.656.049 3.605.004 1.472 0 2.314.005 2.314.005h.053a.583.583 0 00.013-1.166s-.855-.018-2.349-.045c-.958.027-2.208-.062-3.636-.066-.275-.87-1.059-1.512-2.017-1.512-1.042 0-1.871.758-2.066 1.742l-2.62.218c-.386.04-.785.128-1.18.195a2.49 2.49 0 00-2.252-1.45c-1.339 0-2.412 1.06-2.474 2.385-1.112.302-2.216.727-3.351 1.082-.501-.692-1.277-1.17-2.199-1.17a2.763 2.763 0 00-2.762 2.762c0 .195.071.363.11.545-1.108.576-2.145 1.281-3.165 2-.545-.426-1.197-.723-1.942-.723a3.207 3.207 0 00-3.205 3.205c0 .607.217 1.144.51 1.627-.054.062-.125.115-.173.182-.993 1.033-1.769 2.164-2.514 3.259-.12-.014-.226-.071-.35-.071a3.556 3.556 0 00-3.556 3.555c0 .91.368 1.72.927 2.346a27.35 27.35 0 00-1.016 3.33c-1.844.23-3.289 1.737-3.289 3.643a3.733 3.733 0 003.733 3.733c2.052.014 3.724-1.658 3.724-3.72zm16.727-37.866s-21.64-5.294-27.288-24.464c-4.469 8.113 0 15.286 0 15.286-3.524 1.632-5.657 10.193 1.41 13.057 0 0-4.114 2.354-3.059 8.822 1.059 6.469 7.528 8.468 7.528 8.468s1.179-17.645 21.409-21.17z" fill="#EDEDED"/><path d="M224.347-54.553l-1.396-2.82c-.519-.997-1.091-1.755-1.627-2.633-.714-1.22-1.583-2.359-2.456-3.48-3.977-6.57-11.767-14.68-26.53-16.653-7.582-1.01-15.265 1.344-20.554 7.675-5.382 6.437-8.845 16.115-2.523 24.765 7.116 9.732 20.629 7.493 23.604 1.61 3.902-7.71-1.321-15.526-8.024-16.32-6.704-.794-9.79 3.086-9.79 3.086 4.323-13.057 16.67-14.556 23.906-13.23 7.231 1.321 15.349 7.763 16.492 14.378 1.064 6.136 4.78 4.456 6.792 3.76.12.252.24.496.364.753.231.497.479.993.723 1.49-1.734-.049-4.877.275-4.877 3.347 0 4.234 3.968 8.29 6.349 16.231 2.38 7.94-1.823 12.808-1.588 14.29.461 2.925 4.487 3.43 6.97 3.63l-.093 1.889c-.005.066-.022.133-.027.204-3.529-2.66-8.831.452-7.639 2.833 1.321 2.647.971 11.73-2.119 17.202-.035.066-.058.12-.093.182.669-2.904.324-6.593-2.758-10.357-4.234-5.174-9.643-6.353-9.643-6.353 7.174-21.755-4.588-33.402-4.588-33.402.824 7.878-.47 13.877-3.999 39.046-2.536 18.101 3.733 29.411 7.461 34.359-1.294-.656-2.575-1.348-3.875-2.008-2.487-3.884-7.811-13.08-8.17-21.18 0 0 3.382-4.557 1.853-10.085-1.53-5.529-3.618-8.646-4.438-11.909-4.247 19.109 3.613 34.95 7.776 41.63-.155-.079-.31-.159-.465-.243-5.844-4.832-8.247-8.579-8.247-8.579.94-8.352-3.688-15.65-7.173-19.76-5.294-6.233-5.998-11.527-5.998-11.527-2.08 15.526 6.774 28.26 12.653 34.82-2.221-1.436-4.367-2.979-6.376-4.677-4.074-3.458-7.461-7.43-10.161-12.085-2.554-4.367-4.283-9.35-4.624-14.121-.098-2.394 0-4.761.58-6.983.595-2.208 1.486-4.282 2.696-6.096a20.31 20.31 0 014.385-4.553c1.631-1.14 3.591-2.159 5.271-2.638 1.774-.519 3.52-.585 4.979-.093 1.476.457 2.549 1.57 3.192 2.784.576 1.3.718 2.51.328 3.83-.306 1.025-1.015 2.031-1.804 2.461-1.663.971-3.139 0-3.764-.846-.652-.892-.803-1.548-.834-1.521a.8.8 0 00-1.512.519c.049-.014.151.745.958 2.008.452.594 1.086 1.361 2.186 1.835 1.077.48 2.602.501 3.941-.203 1.348-.723 2.394-1.973 2.984-3.716.523-1.45.527-3.586-.248-5.373-.798-1.796-2.346-3.53-4.469-4.318-2.097-.834-4.505-.825-6.708-.24-2.319.62-4.248 1.583-6.331 2.918-.098.066-.182.16-.28.23.04-.164.089-.288.125-.461.345-1.64.536-3.684.062-5.905-.439-2.217-1.778-4.536-3.689-6.119-.896-.762-2.026-1.494-3.343-1.92-1.312-.416-2.908-.438-4.26.16-1.357.568-2.372 1.592-3.002 2.678-.621 1.1-.927 2.288-.895 3.423.031 1.13.372 2.194.895 3.001a5.627 5.627 0 001.703 1.716 5.96 5.96 0 001.312.647c.31.107.47.164.47.164a1.815 1.815 0 002.287-1.166 1.808 1.808 0 00-1.166-2.283c.067-.049-1.627-.412-1.582-2.124-.036-.855.572-2.057 1.503-2.398.452-.182.984-.213 1.636-.062.647.177 1.33.55 2.039 1.1 1.348 1.032 2.226 2.478 2.722 4.047.479 1.578.572 3.245.532 4.695a28.49 28.49 0 01-.394 3.503c-.696.722-1.384 1.458-2 2.283-1.498 2.097-2.633 4.513-3.405 7.098-.753 2.598-.984 5.36-.922 8.135.372 5.578 2.181 10.978 5.068 16.023 2.708 4.797 6.512 9.412 10.844 13.127 4.331 3.787 9.239 6.744 14.12 9.293.47.248.931.461 1.401.705a19.84 19.84 0 00-2.403.474c-1.755.39-3.555 1.029-5.311 1.747-3.52 1.437-6.712 3.476-8.982 5.134-2.266 1.654-3.636 2.997-3.636 2.997l-.013.013a.777.777 0 001.064 1.13s1.321-1.192 3.591-2.708c2.253-1.498 5.405-3.325 8.779-4.53 1.68-.608 3.391-1.131 5.027-1.42.812-.173 1.601-.31 2.359-.359.753-.075 1.463-.177 2.119-.15l1.791-.014.279.027c2.811 1.379 5.578 2.73 8.202 4.123 4.5 2.376 8.606 4.983 11.887 8.056.363.34.673.718 1.015 1.072-4.966-1.972-12.086-1.83-20.408 1.68-7.612 3.215-10.822 2.59-10.822 2.59 3.88 7.058 17.406 1.175 24.699 1.294 4.935.08 9.918 2.634 12.627 4.279 1.263 3.48 1.654 6.88 1.113 9.758-.559 3.037-2.08 5.413-3.618 7.071a19.617 19.617 0 01-4.119 3.365c-1.064.652-1.645.887-1.645.891a.8.8 0 00-.456.985.801.801 0 001.002.514l.026-.009s.727-.235 1.924-.847c1.198-.62 2.949-1.605 4.797-3.391 1.836-1.76 3.796-4.42 4.682-8.003.94-3.564.546-7.825-.895-11.926-.355-1.064-.754-2-1.251-3.143-.478-.967-.935-1.938-1.604-3.006a31.702 31.702 0 00-2.093-3.024c-.732-3.378-1.259-8.605 1.272-12.099 3.999-5.528 7.763-12.937.47-17.525 1.645 1.649-1.472 8.264-4.761 13.792-2.04 3.427-1.845 8.145-1.401 11.244a41.793 41.793 0 00-3.534-2.78c0-.013-.004-.018-.004-.031a26.614 26.614 0 01-.151-4.27c.098-1.857.302-4.14.953-6.69.151-.638.275-1.303.461-1.977.226-.66.461-1.343.705-2.044.466-1.405.953-2.882 1.716-4.336.705-1.512 1.441-3.086 2.203-4.717.745-1.64 1.512-3.334 2.306-5.08.377-.888.842-1.73 1.157-2.679.293-.966.594-1.942.896-2.926.589-1.977 1.241-3.985 1.804-6.047.355-2.093.714-4.22 1.077-6.375.156-1.078.426-2.155.484-3.255.044-1.104.093-2.207.141-3.325.031-2.225.32-4.469.142-6.716-.181-2.244-.368-4.5-.554-6.753-.044-1.135-.235-2.243-.496-3.347l-.688-3.312c-.47-2.199-.829-4.42-1.662-6.495a3923.7 3923.7 0 01-2.146-6.25c-.873-1.996-1.906-3.89-2.82-5.8zm-6.1 76.557c-.262.74-.514 1.46-.758 2.16-.204.713-.346 1.427-.515 2.105-.718 2.71-.966 5.174-1.086 7.196a28.515 28.515 0 00-.022 2.492c-.683-.422-1.37-.83-2.066-1.229-2.296-4.194-6.499-13.233-5.635-22.043 1.179-11.997 11.173-8.703 6.353-2.94 0 0-.82 4.47 2 3.645.665-.195 1.818-1.325 2.718-3.059-.342 2.319 1.059 3.472 2.403 3.906l-1.534 3.214c-.816 1.508-1.353 3.068-1.858 4.553z" fill="#EDEDED"/></g></g><mask id="e" style="mask-type:alpha" maskUnits="userSpaceOnUse" x="-150" y="-112" width="424" height="369"><path d="M167.762 256.193L273.927 72.31l-105.74-183.62-211.918.219-106.177 183.837 105.752 183.665 211.918-.219z" fill="#004F9F"/></mask><g mask="url(#e)"><path d="M167.762 256.193L273.927 72.31l-105.74-183.62-211.918.219-106.177 183.837 105.752 183.665 211.918-.219z" fill="#004F9F"/><g opacity=".1" fill="#0081C9"><path d="M174.061 119.113c-7.795 0-14.108 6.313-14.108 14.108 0 7.795 6.313 14.108 14.108 14.108 7.795 0 14.108-6.313 14.108-14.108 0-7.795-6.313-14.108-14.108-14.108zm36.011-6.902c0-7.127-5.781-12.909-12.909-12.909-7.127 0-12.897 5.782-12.897 12.909 0 7.128 5.781 12.909 12.897 12.909 7.128-.011 12.909-5.792 12.909-12.909zm9.607-7.206c5.804 0 10.499-4.707 10.499-10.5 0-5.803-4.707-10.498-10.499-10.498-5.804 0-10.499 4.706-10.499 10.499 0 5.804 4.706 10.499 10.499 10.499zm32.702-20.41a9.3 9.3 0 00-9.3-9.3 9.3 9.3 0 100 18.6 9.3 9.3 0 009.3-9.3zm21.312-3.304a8.1 8.1 0 10-8.1 8.1c4.469 0 8.1-3.62 8.1-8.1z"/><path d="M197.859 60.995l-7.195 3.564c-2.546 1.324-4.481 2.783-6.721 4.152-3.111 1.822-6.019 4.039-8.881 6.268-16.767 10.148-37.459 30.026-42.494 67.7-2.579 19.347 3.428 38.953 19.584 52.45 16.427 13.735 41.125 22.571 63.198 6.438 24.833-18.159 19.12-52.643 4.107-60.234-19.675-9.956-39.621 3.371-41.646 20.478-2.025 17.106 7.875 24.98 7.875 24.98-33.319-11.031-37.143-42.539-33.76-61.003 3.371-18.452 19.81-39.168 36.69-42.087 15.658-2.715 11.37-12.196 9.594-17.332.645-.305 1.267-.61 1.923-.928 1.267-.588 2.534-1.222 3.801-1.844-.124 4.424.702 12.445 8.542 12.445 10.805 0 21.157-10.126 41.419-16.2 20.263-6.076 32.685 4.649 36.464 4.05 7.467-1.177 8.757-11.45 9.266-17.786l4.82.238c.169.011.339.056.52.068-6.788 9.005 1.154 22.537 7.229 19.493 6.755-3.371 29.936-2.477 43.897 5.408.17.09.306.147.464.238-7.41-1.709-16.823-.826-26.429 7.037-13.203 10.804-16.212 24.607-16.212 24.607-55.516-18.306-85.237 11.709-85.237 11.709 20.105-2.104 35.412 1.2 99.639 10.205 46.194 6.472 75.055-9.526 87.681-19.04-1.675 3.303-3.44 6.573-5.125 9.888-9.911 6.347-33.375 19.934-54.045 20.851 0 0-11.631-8.633-25.739-4.729-14.108 3.903-22.061 9.231-30.388 11.324 48.761 10.839 89.185-9.22 106.235-19.844-.204.396-.408.792-.623 1.188-12.332 14.912-21.892 21.044-21.892 21.044-21.314-2.399-39.937 9.413-50.424 18.305-15.907 13.508-29.416 15.307-29.416 15.307 39.621 5.306 72.113-17.287 88.857-32.289-3.665 5.668-7.602 11.144-11.935 16.269-8.825 10.397-18.962 19.041-30.841 25.931-11.144 6.517-23.861 10.929-36.034 11.8-6.11.249-12.151 0-17.819-1.482-5.634-1.516-10.929-3.79-15.556-6.879a51.831 51.831 0 01-11.619-11.189c-2.908-4.163-5.51-9.164-6.732-13.452-1.324-4.525-1.493-8.983-.238-12.705 1.166-3.767 4.005-6.505 7.105-8.146 3.315-1.47 6.404-1.832 9.775-.837 2.614.781 5.182 2.591 6.279 4.605 2.478 4.242 0 8.01-2.161 9.605-2.274 1.663-3.948 2.048-3.88 2.127a2.043 2.043 0 00-1.267 2.591 2.043 2.043 0 002.591 1.267c-.034-.125 1.9-.385 5.125-2.444 1.516-1.154 3.473-2.772 4.683-5.577 1.222-2.75 1.279-6.641-.52-10.058-1.844-3.44-5.035-6.11-9.481-7.614-3.699-1.335-9.152-1.347-13.712.633-4.582 2.037-9.005 5.985-11.019 11.404-2.127 5.352-2.105 11.495-.611 17.118 1.584 5.917 4.039 10.838 7.444 16.156.17.249.407.464.588.713-.418-.102-.735-.227-1.176-.317-4.186-.883-9.402-1.369-15.07-.159-5.657 1.12-11.574 4.537-15.613 9.413-1.946 2.286-3.812 5.171-4.899 8.531-1.063 3.349-1.12 7.421.408 10.872 1.448 3.462 4.061 6.053 6.833 7.659 2.806 1.584 5.838 2.365 8.734 2.286 2.885-.079 5.601-.951 7.66-2.286a14.373 14.373 0 004.378-4.344 15.257 15.257 0 001.652-3.349c.271-.792.418-1.199.418-1.199a4.634 4.634 0 00-2.975-5.838 4.618 4.618 0 00-5.827 2.976c-.124-.17-1.052 4.152-5.419 4.039-2.183.09-5.249-1.46-6.12-3.836-.464-1.154-.544-2.511-.159-4.174.453-1.652 1.403-3.395 2.806-5.205 2.636-3.439 6.324-5.679 10.329-6.946 4.028-1.222 8.282-1.46 11.981-1.358 3.643.17 6.755.634 8.938 1.007 1.844 1.776 3.722 3.53 5.827 5.102 5.351 3.824 11.517 6.721 18.113 8.689 6.629 1.924 13.678 2.512 20.76 2.353 14.233-.95 28.013-5.566 40.888-12.931 12.241-6.913 24.018-16.62 33.499-27.673 9.662-11.053 17.208-23.578 23.713-36.034.634-1.199 1.177-2.376 1.799-3.575.249 1.991.679 4.039 1.211 6.132.996 4.48 2.625 9.073 4.458 13.554 3.665 8.983 8.869 17.128 13.101 22.921 4.22 5.781 7.648 9.277 7.648 9.277l.034.034a1.982 1.982 0 002.885-2.715s-3.044-3.372-6.913-9.164c-3.824-5.747-8.485-13.791-11.563-22.401-1.55-4.288-2.885-8.655-3.62-12.83-.441-2.07-.792-4.084-.916-6.019-.193-1.923-.453-3.733-.385-5.408-.011-1.674-.023-3.213-.034-4.57.023-.272.045-.453.068-.713 3.518-7.173 6.969-14.232 10.522-20.93 6.064-11.483 12.716-21.96 20.556-30.332.872-.928 1.833-1.72 2.738-2.59-5.034 12.67-4.672 30.84 4.288 52.076 8.203 19.425 6.607 27.616 6.607 27.616 18.012-9.899 2.998-44.417 3.304-63.028.204-12.592 6.72-25.308 10.918-32.22 8.881-3.225 17.558-4.22 24.901-2.84 7.75 1.425 13.814 5.305 18.045 9.231a50.064 50.064 0 018.587 10.51c1.663 2.716 2.263 4.198 2.274 4.198a2.043 2.043 0 002.512 1.165 2.044 2.044 0 001.312-2.557l-.023-.067s-.599-1.856-2.16-4.91c-1.584-3.055-4.096-7.524-8.655-12.242-4.492-4.684-11.28-9.684-20.421-11.947-9.097-2.399-19.969-1.392-30.434 2.285-2.715.905-5.102 1.924-8.021 3.19-2.467 1.222-4.944 2.388-7.671 4.096a80.812 80.812 0 00-7.716 5.34c-8.621 1.867-21.96 3.213-30.875-3.247-14.108-10.205-33.013-19.81-44.722-1.199 4.208-4.197 21.088 3.756 35.196 12.15 8.746 5.205 20.783 4.707 28.692 3.576a106.531 106.531 0 00-7.094 9.017c-.034 0-.045.011-.079.011-2.421.272-6.144.6-10.895.385-4.741-.25-10.567-.77-17.073-2.433-1.629-.384-3.326-.701-5.045-1.176a1060.22 1060.22 0 01-5.216-1.8c-3.586-1.187-7.354-2.432-11.065-4.377-3.858-1.8-7.874-3.677-12.037-5.623-4.186-1.901-8.508-3.858-12.966-5.883-2.263-.962-4.412-2.15-6.833-2.953-2.467-.747-4.956-1.516-7.467-2.286-5.046-1.504-10.171-3.167-15.432-4.604-5.34-.905-10.771-1.822-16.269-2.75-2.749-.395-5.498-1.086-8.304-1.233-2.817-.113-5.634-.237-8.485-.362-5.68-.079-11.404-.814-17.14-.362-5.725.464-11.484.94-17.231 1.414-2.896.114-5.725.6-8.542 1.268l-8.451 1.753c-5.612 1.2-11.28 2.116-16.575 4.243-5.362 1.844-10.691 3.677-15.952 5.476-5.091 2.228-9.922 4.864-14.798 7.195zm195.363 15.568c1.89.667 3.723 1.312 5.51 1.934 1.822.52 3.643.883 5.374 1.313 6.913 1.832 13.203 2.466 18.362 2.772 2.365.124 4.458.124 6.358.056a191.534 191.534 0 00-3.133 5.272c-10.703 5.86-33.772 16.586-56.252 14.38-30.614-3.01-22.208-28.51-7.501-16.213 0 0 11.404 2.093 9.3-5.102-.498-1.697-3.383-4.639-7.806-6.935 5.917.87 8.858-2.704 9.967-6.132 2.772 1.323 5.566 2.658 8.202 3.914 3.847 2.082 7.829 3.45 11.619 4.74zm-270.188 24.844c52.371-47.472 93.937-55.516 93.937-55.516s-26.338-19.81-66.173-6.755c-39.836 13.056-52.677 63.255-52.677 63.255s-7.647-11.71-25.659-4.73C54.451 104.643 35.4 125.12 35.4 125.12s-3-12.603-14.11-17.412c-8.27-3.575-20.998-.316-23.714-11.71-2.251-9.457 5.397-13.802 5.397-13.802.453 7.049 6.901 7.501 12.603 4.797 5.702-2.704 8.7-16.506-6.301-18.61-15.013-2.105-27.617 17.705-23.408 37.21 8.372 38.817 76.254 51.035 137.166-4.186zm-7.218 42.267c-2.025 1.675-4.446 3.756-6.912 6.471a72.389 72.389 0 00-7.648 9.594c-2.591 3.7-4.9 7.965-7.173 12.796-1.946 4.469-3.983 9.82-5.284 15.319-1.335 5.577-2.115 11.619-1.584 18.056.317 3.202.883 6.517 2.297 9.843 1.414 3.27 3.45 6.754 7.309 9.289 3.79 2.692 9.933 2.794 13.802.396 4.005-2.229 6.268-5.488 7.875-8.531 3.156-6.222 3.914-12.354 4.287-18.102.306-5.736-.135-11.347-.701-16.28-.17-2.319-.339-4.582-.498-6.777.023-2.217.057-4.367.079-6.426.43-8.293 1.731-15.228 2.772-20.014 1.12-4.797 1.957-7.433 1.957-7.433l2.399-7.478-8.112 5.645c-1.075.883-2.908 1.89-4.865 3.632zm-1.459 25.037c-.193 2.24-.396 4.56-.6 6.969.011 2.444.011 4.978.011 7.58.193 4.899.193 9.719-.429 14.708-.634 4.888-1.856 9.99-4.175 13.712-1.109 1.856-2.568 3.247-3.677 3.666-1.154.464-1.471.136-2.546-.238-2.33-1.075-4.718-5.758-5.328-10.465-.77-4.808-.532-9.978.305-14.922.849-5.058 2.206-9.572 3.869-14.278 1.652-4.198 3.496-8.316 5.612-11.834a64.615 64.615 0 016.347-9.221c1.595-2.014 3.224-3.609 4.661-5.023-1.369 4.819-3.043 11.359-4.05 19.346z"/><path d="M38.159 86.767c4.65 1.742 8.824 1.313 12.331.532 7.071-1.709 12.31-5.204 17.005-8.7 4.627-3.553 8.666-7.592 12.049-11.235 1.629-1.629 3.213-3.202 4.752-4.729 1.685-1.414 3.314-2.772 4.887-4.084 6.505-5.035 12.581-8.542 16.88-10.861 2.172-1.075 3.869-1.923 5.034-2.5 1.2-.543 1.833-.826 1.833-.826l8.316-3.768-10.658-2.941c-1.369-.306-3.349-1.075-5.962-1.471-2.602-.486-5.793-1.018-9.48-1.188a71.407 71.407 0 00-12.4.26c-4.549.374-9.346 1.324-14.606 2.704-4.673 1.346-10.194 3.236-15.308 5.782-5.215 2.579-10.465 5.894-15.182 10.555-2.342 2.365-4.582 5-6.313 8.372-1.675 3.326-3.146 7.343-2.569 12.332.351 5 4.684 10.261 9.39 11.766zm8.88-23.747c3.021-3.575 7.015-6.71 11.246-9.266 4.345-2.613 8.542-4.491 13.215-6.29 4.174-1.448 8.462-2.738 12.467-3.395a63.141 63.141 0 0111.008-1.176c1.437-.057 2.761.102 4.028.158-4.231 1.958-9.401 4.503-15.058 8.112-1.856 1.29-3.802 2.636-5.804 4.028-1.9 1.584-3.87 3.224-5.895 4.91-3.654 3.27-7.297 6.279-11.471 8.938-4.096 2.58-8.723 4.82-12.774 5.328-1.99.306-3.767.023-4.434-.44-.725-.487-.227-.442-.645-1.098-.68-1.709 1.04-6.426 4.118-9.81zM8.31 156.833c25.276 2.285 38.32-4.548 50.109-15.998 0 0-25.965 5.6-42.528-2.33-29.811-14.256-32.82 16.054-7.58 18.328zm117.404-41.34s-4.468 1.81-12.162 5.283c-7.636 3.575-18.633 8.542-31.44 15.387-12.819 6.81-27.572 15.205-42.562 25.942-7.444 5.464-15.092 11.302-22.05 18.848-3.44 3.824-6.845 7.976-9.38 13.565-1.21 2.806-2.24 6.098-2.172 9.934.034 3.846 1.392 7.851 3.87 10.974.78 1.018 1.142 1.357 1.527 1.787.973.973 1.64 1.516 2.58 2.184a16.148 16.148 0 005.94 2.466c4.095.792 7.512.102 10.453-.713 5.872-1.764 10.363-4.502 14.651-7.286 8.463-5.645 15.5-12.139 22.163-18.486 13.192-12.807 24.212-25.693 33.33-36.973 9.164-11.234 16.145-21.088 21.123-27.888 4.91-6.867 7.523-10.951 7.523-10.951l4.696-7.332-8.09 3.259zm-33.262 35.932c-9.843 10.352-21.405 22.367-34.45 34.189-6.505 5.872-13.52 11.642-20.794 16.473-3.61 2.331-7.456 4.435-10.782 5.351-1.618.464-3.088.566-3.71.374-.329-.079-.476-.17-.646-.272-.034-.022-.271-.271-.17-.124-.43-.442-.904-.962-.825-.928-.985-1.278-1.279-2.941.09-6.302 1.37-3.167 3.915-6.607 6.766-9.786 5.792-6.403 12.671-12.309 19.572-17.66 13.882-10.726 27.877-19.788 39.903-27.47a1523.102 1523.102 0 0124.992-15.386c-5.272 5.781-12.071 13.123-19.946 21.541zm-112.89-89.333C-6.036 67.5 5.991 58.856-2.653 50.835c-9.232-8.553-36.011-5.634-46.816-11.257-.011 0 14.617 17.106 29.031 22.514zm-42.759 75.632C-95.61 117.02-101.46 89.55-86.152 73.802c15.307-15.76 31.508.905 31.508.905s-12.603-21.836-34.665-7.66c-18.022 11.585-16.212 48.4-6.528 66.174 11.133 20.455 24.381 21.303 24.381 21.303.905 33.918 25.806 32.12 25.806 32.12-19.81 21.903-1.798 38.862-1.798 38.862 50.424-28.816 16.653-67.079-15.749-87.782z"/></g></g></g><defs><clipPath id="clip0_404_806"><path fill="#fff" d="M0 0h375v144H0z"/></clipPath><clipPath id="clip1_404_806"><path fill="#fff" transform="translate(40 -29)" d="M0 0h334.606v202.39H0z"/></clipPath></defs></svg>