<svg width="1920" height="144" fill="none" xmlns="http://www.w3.org/2000/svg"><g clip-path="url(#clip0_404_276)"><path fill="#EDEDED" d="M0 0h1920v144H0z"/><mask id="a" style="mask-type:alpha" maskUnits="userSpaceOnUse" x="-94" y="-260" width="1020" height="665"><path d="M670.504 403.82L925.982 71.945 671.527-259.454l-509.963.395L-93.944 72.734l254.485 331.481 509.963-.395z" fill="#004F9F"/></mask><g mask="url(#a)"><path d="M670.504 403.82L925.982 71.945 671.527-259.454l-509.963.395L-93.944 72.734l254.485 331.481 509.963-.395z" fill="#004F9F"/><g opacity=".1" fill="#0081C9"><path d="M772.331 143.959c0-12.864-13.912-23.298-31.064-23.298s-31.037 10.434-31.037 23.298c0 12.864 13.912 23.298 31.037 23.298 17.152-.021 31.064-10.455 31.064-23.298zm23.114-13.007c13.966 0 25.265-8.494 25.265-18.949 0-10.475-11.326-18.948-25.265-18.948-13.967 0-25.265 8.494-25.265 18.948 0 10.475 11.325 18.949 25.265 18.949zm78.708-36.835c0-9.27-10.019-16.785-22.379-16.785-12.361 0-22.38 7.515-22.38 16.785s10.019 16.784 22.38 16.784c12.36 0 22.379-7.514 22.379-16.784zm51.294-5.963c0-8.065-8.739-14.62-19.493-14.62-10.754 0-19.493 6.534-19.493 14.62 0 8.066 8.739 14.62 19.493 14.62 10.754 0 19.493-6.534 19.493-14.62z"/><path d="M742.952 51.523l-17.315 6.432c-6.126 2.389-10.781 5.023-16.172 7.493-7.487 3.288-14.484 7.29-21.372 11.313-40.348 18.316-90.143 54.192-102.258 122.187-6.207 34.916 8.249 70.302 47.127 94.662 39.531 24.789 98.964 40.736 152.081 11.619 59.759-32.773 46.011-95.01 9.883-108.711-47.345-17.969-95.344 6.085-100.217 36.958-4.873 30.874 18.949 45.086 18.949 45.086-80.179-19.909-89.381-76.776-81.24-110.1 8.113-33.303 47.671-70.69 88.291-75.958 37.68-4.9 27.362-22.012 23.087-31.282 1.552-.552 3.05-1.103 4.629-1.675 3.049-1.061 6.098-2.205 9.147-3.328-.299 7.984 1.688 22.461 20.556 22.461 26 0 50.911-18.275 99.671-29.24 48.761-10.965 78.654 8.392 87.748 7.31 17.968-2.123 21.072-20.664 22.297-32.099 3.866.143 7.759.286 11.598.43.409.02.818.101 1.248.122-16.331 16.253 2.78 40.674 17.4 35.182 16.26-6.085 72.04-4.472 105.64 9.76.4.163.73.265 1.11.429-17.83-3.084-40.48-1.49-63.6 12.7-31.77 19.5-39.01 44.412-39.01 44.412-133.595-33.038-205.116 21.133-205.116 21.133 48.38-3.798 85.215 2.165 239.776 18.418 111.16 11.68 180.61-17.193 210.99-34.365-4.03 5.962-8.27 11.863-12.33 17.846-23.85 11.455-80.31 35.978-130.05 37.632 0 0-27.99-15.579-61.94-8.535-33.95 7.045-53.09 16.662-73.129 20.44 117.339 19.561 214.619-16.642 255.649-35.815-.49.714-.98 1.429-1.5 2.144-29.68 26.912-52.68 37.979-52.68 37.979-51.29-4.329-96.11 16.989-121.35 33.038-38.27 24.38-70.781 27.627-70.781 27.627 95.341 9.576 173.531-31.2 213.831-58.276-8.82 10.23-18.3 20.113-28.73 29.363-21.23 18.765-45.63 34.365-74.21 46.8-26.82 11.761-57.42 19.725-86.71 21.297-14.71.449-29.245 0-42.885-2.675-13.558-2.736-26.3-6.84-37.435-12.415-10.971-5.737-20.31-12.639-27.96-20.194-6.997-7.514-13.259-16.539-16.199-24.278-3.186-8.168-3.594-16.213-.572-22.931 2.804-6.799 9.638-11.741 17.098-14.701 7.977-2.655 15.409-3.308 23.522-1.511 6.289 1.408 12.469 4.676 15.11 8.31 5.963 7.657 0 14.457-5.2 17.336-5.472 3.001-9.501 3.696-9.338 3.839-2.559.653-3.92 2.756-3.049 4.675.871 1.92 3.675 2.941 6.234 2.287-.081-.224 4.574-.694 12.333-4.41 3.649-2.083 8.359-5.003 11.272-10.067 2.94-4.961 3.076-11.986-1.253-18.152-4.437-6.207-12.115-11.026-22.815-13.742-8.902-2.409-22.025-2.43-32.997 1.143-11.026 3.676-21.671 10.802-26.517 20.583-5.118 9.658-5.064 20.745-1.47 30.894 3.811 10.679 9.719 19.561 17.914 29.158.408.449.98.837 1.416 1.286-1.008-.183-1.77-.408-2.832-.571-10.073-1.593-22.624-2.471-36.264-.286-13.612 2.021-27.851 8.188-37.571 16.988-4.682 4.125-9.175 9.332-11.788 15.396-2.56 6.044-2.696 13.395.98 19.623 3.485 6.248 9.774 10.924 16.444 13.824 6.752 2.858 14.048 4.267 21.018 4.124 6.942-.143 13.476-1.715 18.431-4.124 5.01-2.369 8.386-5.35 10.537-7.841 2.178-2.512 3.321-4.635 3.974-6.044.654-1.43 1.008-2.165 1.008-2.165 1.906-4.39-1.307-9.107-7.16-10.536-5.854-1.429-12.143.98-14.022 5.37-.299-.306-2.531 7.494-13.04 7.29-5.255.163-12.633-2.634-14.729-6.922-1.117-2.083-1.307-4.533-.381-7.535 1.089-2.981 3.375-6.125 6.751-9.392 6.344-6.208 15.219-10.251 24.857-12.538 9.692-2.205 19.929-2.634 28.832-2.45 8.766.306 16.253 1.143 21.508 1.817 4.437 3.206 8.957 6.371 14.021 9.209 12.877 6.902 27.715 12.129 43.588 15.682 15.954 3.471 32.919 4.533 49.959 4.247 34.25-1.715 67.41-10.046 98.39-23.339 29.46-12.476 57.8-29.995 80.62-49.945 23.25-19.949 41.41-42.553 57.06-65.034 1.52-2.165 2.83-4.288 4.33-6.452.6 3.593 1.63 7.289 2.91 11.067 2.4 8.085 6.32 16.376 10.73 24.461 8.82 16.213 21.34 30.915 31.53 41.369 10.15 10.434 18.4 16.744 18.4 16.744l.08.061c1.77 1.348 4.68 1.43 6.59.143 1.96-1.327 2.1-3.573.35-5.043 0 0-7.32-6.085-16.63-16.54-9.2-10.373-20.42-24.891-27.83-40.429-3.72-7.739-6.94-15.621-8.71-23.155-1.06-3.737-1.9-7.372-2.2-10.863-.47-3.472-1.09-6.739-.93-9.761-.03-3.022-.05-5.799-.08-8.249.05-.49.11-.817.16-1.286 8.47-12.946 16.77-25.687 25.32-37.775 14.6-20.726 30.6-39.634 49.47-54.744 2.1-1.674 4.41-3.103 6.59-4.676-12.12 22.87-11.24 55.662 10.32 93.989 19.74 35.059 15.9 49.843 15.9 49.843 43.34-17.867 7.21-80.165 7.95-113.755.49-22.726 16.17-45.677 26.27-58.153 21.37-5.82 42.25-7.616 59.92-5.125 18.65 2.573 33.25 9.577 43.43 16.662 10.23 7.147 16.69 14.13 20.66 18.97 4 4.9 5.45 7.575 5.47 7.575.96 1.756 3.6 2.695 6.05 2.103 2.56-.633 3.97-2.695 3.16-4.615l-.06-.122s-1.44-3.35-5.2-8.862c-3.81-5.514-9.85-13.579-20.83-22.094-10.8-8.453-27.14-17.478-49.14-21.562-21.89-4.329-48.05-2.512-73.23 4.125-6.54 1.633-12.28 3.47-19.31 5.758-5.93 2.205-11.89 4.308-18.46 7.391-6.42 2.92-12.57 6.147-18.56 9.638-20.75 3.37-52.85 5.8-74.3-5.86-33.95-18.418-79.44-35.754-107.62-2.164 10.13-7.576 50.75 6.779 84.7 21.93 21.04 9.392 50.01 8.494 69.04 6.452-6.02 5.166-11.74 10.557-17.07 16.274-.08 0-.11.02-.19.02-5.83.49-14.79 1.082-26.22.695-11.41-.45-25.43-1.389-41.08-4.39-3.92-.695-8.01-1.267-12.15-2.124-4.05-1.041-8.24-2.124-12.55-3.247-8.63-2.144-17.69-4.39-26.62-7.902-9.29-3.247-18.95-6.636-28.97-10.148-10.07-3.43-20.47-6.963-31.2-10.618-5.45-1.736-10.62-3.88-16.44-5.33-5.94-1.347-11.93-2.736-17.97-4.124-12.15-2.716-24.48-5.717-37.14-8.31a64103.28 64103.28 0 00-39.15-4.962c-6.61-.715-13.23-1.96-19.98-2.226-6.781-.204-13.56-.429-20.421-.653-13.667-.143-27.443-1.47-41.246-.654-13.776.837-27.634 1.695-41.465 2.552-6.969.205-13.776 1.083-20.555 2.287l-20.337 3.165c-13.504 2.165-27.144 3.819-39.885 7.658-12.905 3.328-25.728 6.636-38.388 9.882-12.251 4.023-23.876 8.78-35.611 12.987zm470.128 28.096a4108.7 4108.7 0 0013.26 3.492c4.38.94 8.76 1.593 12.93 2.369 16.63 3.307 31.77 4.45 44.19 5.002 5.69.225 10.72.225 15.3.102a334.26 334.26 0 00-7.54 9.515c-25.76 10.578-81.27 29.935-135.37 25.953-73.67-5.431-53.44-51.456-18.05-29.26 0 0 27.44 3.777 22.38-9.21-1.2-3.062-8.14-8.371-18.78-12.516 14.23 1.572 21.31-4.88 23.98-11.067 6.67 2.389 13.4 4.798 19.74 7.065 9.26 3.757 18.84 6.228 27.96 8.555zm-650.197 44.839C688.909 38.78 788.935 24.262 788.935 24.262s-63.38-35.753-159.241-12.19c-95.86 23.564-126.761 114.163-126.761 114.163s-18.404-21.134-61.747-8.536c-43.343 12.599-89.19 49.557-89.19 49.557s-7.215-22.746-33.95-31.424c-19.902-6.453-50.53-.572-57.064-21.134-5.418-17.07 12.986-24.911 12.986-24.911 1.089 12.721 16.608 13.538 30.329 8.657 13.722-4.88 20.937-29.79-15.164-33.589-36.128-3.798-66.457 31.956-56.329 67.158 20.146 70.058 183.498 92.11 330.079-7.555z"/><path d="M358.642 98.037c11.19 3.144 21.236 2.368 29.676.96 17.016-3.084 29.621-9.394 40.92-15.703 11.135-6.412 20.854-13.701 28.995-20.276 3.92-2.94 7.732-5.779 11.434-8.535 4.057-2.552 7.977-5.003 11.762-7.371 15.654-9.087 30.274-15.417 40.62-19.603 5.227-1.94 9.311-3.47 12.115-4.512 2.886-.98 4.41-1.49 4.41-1.49l20.011-6.8-25.646-5.31c-3.294-.55-8.059-1.94-14.348-2.654-6.262-.878-13.939-1.837-22.815-2.144-8.848-.429-18.949-.429-29.839.47-10.944.674-22.488 2.389-35.148 4.88-11.244 2.43-24.53 5.84-36.835 10.434-12.551 4.656-25.184 10.638-36.537 19.051-5.635 4.268-11.026 9.025-15.191 15.11-4.03 6.003-7.569 13.252-6.181 22.257.844 9.025 11.272 18.52 22.597 21.236zm21.372-42.86c7.269-6.452 16.88-12.108 27.062-16.723 10.455-4.717 20.555-8.107 31.799-11.353 10.047-2.614 20.365-4.941 30.003-6.126 9.583-1.43 18.567-2 26.49-2.123 3.458-.102 6.643.183 9.692.286-10.182 3.532-22.624 8.126-36.237 14.64-4.465 2.328-9.148 4.758-13.966 7.27-4.574 2.858-9.311 5.819-14.185 8.861-8.794 5.901-17.56 11.333-27.606 16.13-9.856 4.656-20.991 8.7-30.738 9.618-4.791.552-9.066.041-10.672-.796-1.742-.878-.544-.796-1.552-1.98-1.633-3.084 2.505-11.599 9.91-17.704zm-162.373-1.674c34.658 9.76 63.599-5.84 42.799-20.317-22.216-15.437-86.659-10.169-112.659-20.317-.027 0 35.175 30.874 69.86 40.634zm-72.583 89.374s18.949-31.69-36.836-59.317c0 0-45.493 29.24-3.239 69.873 42.253 40.634 96.404 29.241 115.925 89.783 0 0 25.347-34.488-2.723-67.852-28.722-34.121-73.127-32.487-73.127-32.487z"/><path d="M114.729 190.004c-78-37.367-92.076-86.944-55.24-115.368 36.835-28.443 75.822 1.634 75.822 1.634s-30.329-39.41-83.418-13.824c-43.37 20.91-39.014 87.353-15.71 119.431 26.79 36.918 58.671 38.449 58.671 38.449 2.178 61.216 62.101 57.969 62.101 57.969-47.671 39.532-4.329 70.14-4.329 70.14 121.344-52.008 40.076-121.065-37.897-158.431zM84.726 288.71c-9.12 0-16.825 4.063-20.528 9.842-4.71-.817-10.127-1.879-15.954-3.369.463-1.327 1.09-2.593 1.09-4.023 0-9.045-9.775-16.376-21.835-16.376-7.024 0-13.014 2.655-17.016 6.534-5.772-2.858-11.653-5.84-17.07-9.637-.3-.164-.545-.409-.844-.593 1.252-1.939 2.069-4.043 2.069-6.33 0-8.147-8.821-14.762-19.684-14.762-2.45 0-4.765.428-6.943 1.041-4.165-4.288-8.276-8.637-11.652-13.354 2.858-2.287 4.683-5.309 4.683-8.699 0-7.024-7.596-12.721-16.962-12.721-.3 0-.544.123-.844.123-2.232-5.023-4.9-9.883-6.779-14.824 4.274-2.042 7.242-5.452 7.242-9.536 0-5.779-5.772-10.373-13.204-11.189-.463-1.838-1.062-3.696-1.362-5.514-.571-4.206-1.061-7.983-1.606-11.863 4.383-1.613 7.487-4.921 7.487-8.821 0-4.431-3.947-8.045-9.284-9.291-.136-6.534.3-12.231.028-16.6 0-6.779.027-10.659.027-10.659v-.245c0-1.45-1.552-2.655-3.512-2.675-1.988-.041-3.594 1.143-3.648 2.614 0 0-.11 3.94-.273 10.822.164 4.41-.38 10.168-.435 16.743-5.337 1.266-9.257 4.88-9.257 9.291 0 4.798 4.656 8.617 10.7 9.515.435 3.88.87 7.861 1.334 12.068.245 1.776.79 3.614 1.198 5.431-5.228 1.838-8.903 5.758-8.903 10.373 0 6.167 6.507 11.108 14.647 11.394 1.824 5.125 4.465 10.209 6.643 15.437-4.247 2.307-7.187 5.88-7.187 10.127 0 7.025 7.596 12.722 16.961 12.722 1.198 0 2.233-.327 3.349-.511 3.539 5.105 7.868 9.883 12.278 14.579-2.613 2.512-4.437 5.513-4.437 8.944 0 8.147 8.82 14.763 19.683 14.763 3.73 0 7.025-1.001 9.992-2.349.381.245.708.572 1.116.797 6.344 4.574 13.286 8.147 20.011 11.577-.082.552-.436 1.042-.436 1.613 0 9.046 9.774 16.376 21.835 16.376 5.581 0 10.536-1.694 14.402-4.267 7.569 2.144 14.484 3.614 20.447 4.676 1.388 8.494 10.672 15.151 22.379 15.151 12.66 0 22.923-7.698 22.923-17.193.082-9.454-10.209-17.152-22.869-17.152z"/><path d="M-658.196 51.523l-17.315 6.432c-6.126 2.389-10.782 5.023-16.172 7.493-7.487 3.288-14.484 7.29-21.372 11.313-40.348 18.315-90.143 54.192-102.258 122.187-6.208 34.916 8.249 70.302 47.127 94.662 39.531 24.789 98.964 40.736 152.08 11.619 59.76-32.773 46.011-95.01 9.883-108.711-47.345-17.969-95.343 6.085-100.216 36.958-4.874 30.874 18.949 45.085 18.949 45.085-80.179-19.908-89.381-76.775-81.241-110.099 8.113-33.303 47.672-70.69 88.292-75.958 37.68-4.9 27.361-22.012 23.087-31.282 1.552-.552 3.049-1.103 4.628-1.675 3.049-1.061 6.099-2.205 9.148-3.328-.3 7.984 1.688 22.461 20.555 22.461 26 0 50.911-18.275 99.672-29.24 48.76-10.965 78.654 8.392 87.747 7.31 17.969-2.124 21.073-20.664 22.298-32.099 3.866.143 7.759.286 11.598.43.408.02.816.101 1.252.122-16.335 16.253 2.75 40.674 17.397 35.182 16.254-6.085 72.038-4.472 105.634 9.76.381.163.735.265 1.117.429-17.833-3.084-40.485-1.491-63.599 12.7-31.772 19.5-39.014 44.412-39.014 44.412-133.594-33.038-205.115 21.133-205.115 21.133 48.406-3.798 85.215 2.165 239.773 18.418 111.161 11.68 180.613-17.193 210.996-34.365-4.029 5.962-8.276 11.863-12.333 17.846-23.849 11.455-80.342 35.978-130.055 37.632 0 0-27.988-15.579-61.938-8.535-33.95 7.045-53.089 16.662-73.127 20.44 117.341 19.561 214.617-16.642 255.646-35.815l-1.47 2.144c-29.676 26.912-52.681 37.979-52.681 37.979-51.266-4.329-96.106 16.989-121.344 33.038-38.278 24.38-70.785 27.627-70.785 27.627 95.343 9.576 173.534-31.2 213.827-58.276-8.821 10.23-18.295 20.113-28.722 29.363-21.236 18.765-45.657 34.365-74.217 46.8-26.817 11.761-57.418 19.725-86.712 21.297-14.702.449-29.24 0-42.88-2.675-13.558-2.736-26.3-6.84-37.435-12.415-10.972-5.737-20.31-12.639-27.96-20.194-6.997-7.514-13.259-16.539-16.199-24.278-3.186-8.168-3.594-16.213-.572-22.931 2.804-6.799 9.638-11.741 17.097-14.701 7.977-2.655 15.41-3.308 23.523-1.511 6.289 1.408 12.469 4.676 15.11 8.31 5.962 7.657 0 14.457-5.2 17.336-5.472 3.001-9.502 3.696-9.338 3.839-2.559.653-3.894 2.756-3.05 4.675.872 1.92 3.676 2.941 6.208 2.287-.082-.224 4.574-.694 12.333-4.41 3.648-2.083 8.358-5.003 11.271-10.067 2.941-4.961 3.077-11.986-1.252-18.152-4.438-6.207-12.115-11.026-22.815-13.742-8.903-2.409-22.025-2.43-32.997 1.143-11.026 3.676-21.671 10.802-26.518 20.583-5.118 9.658-5.063 20.745-1.47 30.894 3.812 10.679 9.747 19.561 17.915 29.158.435.449.98.837 1.415 1.286-1.007-.183-1.769-.408-2.831-.571-10.074-1.593-22.624-2.471-36.264-.286-13.613 2.021-27.852 8.188-37.571 16.988-4.683 4.125-9.175 9.332-11.789 15.396-2.532 6.044-2.695 13.395.98 19.623 3.485 6.248 9.774 10.924 16.444 13.824 6.752 2.858 14.049 4.267 21.018 4.124 6.943-.143 13.477-1.715 18.432-4.124 5.009-2.369 8.385-5.35 10.536-7.841 2.178-2.512 3.322-4.635 3.975-6.044.653-1.43 1.007-2.165 1.007-2.165 1.906-4.39-1.306-9.107-7.16-10.536-5.853-1.429-12.142.98-14.021 5.37-.299-.306-2.532 7.494-13.041 7.29-5.254.163-12.632-2.634-14.729-6.922-1.116-2.083-1.307-4.533-.381-7.535 1.089-2.981 3.376-6.125 6.752-9.393 6.343-6.207 15.219-10.25 24.857-12.537 9.692-2.205 19.929-2.634 28.831-2.45 8.767.306 16.254 1.143 21.508 1.817 4.438 3.206 8.957 6.371 14.021 9.209 12.878 6.902 27.716 12.129 43.615 15.682 15.954 3.471 32.916 4.533 49.959 4.247 34.249-1.715 67.41-10.046 98.392-23.339 29.458-12.476 57.799-29.995 80.614-49.945 23.278-19.949 41.41-42.553 57.064-65.034 1.525-2.165 2.832-4.288 4.329-6.453.599 3.594 1.634 7.29 2.913 11.068 2.396 8.085 6.317 16.376 10.727 24.461 8.821 16.213 21.345 30.915 31.527 41.369 10.155 10.434 18.404 16.744 18.404 16.744l.082.061c1.77 1.348 4.683 1.43 6.589.143 1.96-1.327 2.096-3.573.353-5.043 0 0-7.323-6.085-16.607-16.54-9.202-10.373-20.419-24.891-27.824-40.429-3.703-7.739-6.943-15.621-8.712-23.155-1.062-3.737-1.906-7.372-2.206-10.863-.462-3.472-1.089-6.739-.925-9.761-.027-3.022-.082-5.799-.109-8.249.054-.49.109-.817.163-1.286 8.467-12.946 16.771-25.687 25.32-37.775 14.62-20.726 30.601-39.634 49.468-54.744 2.097-1.674 4.41-3.104 6.589-4.676-12.088 22.951-11.244 55.744 10.318 94.05C-9.635 187.677-13.5 202.46-13.5 202.46c43.343-17.867 7.242-80.165 7.95-113.754.49-22.727 16.172-45.678 26.273-58.154 21.371-5.82 42.253-7.616 59.923-5.125C99.294 28 113.887 35.004 124.069 42.09c10.237 7.147 16.689 14.13 20.664 18.97 4.002 4.9 5.445 7.575 5.472 7.575.953 1.756 3.594 2.695 6.044 2.103 2.56-.633 3.975-2.695 3.158-4.615l-.054-.122s-1.443-3.349-5.2-8.862c-3.812-5.513-9.856-13.579-20.827-22.093-10.809-8.454-27.144-17.48-49.142-21.563-21.89-4.329-48.026-2.511-73.236 4.125-6.534 1.633-12.279 3.471-19.303 5.758-5.935 2.205-11.897 4.308-18.459 7.392-6.425 2.92-12.578 6.146-18.567 9.637-20.746 3.37-52.845 5.8-74.298-5.86-33.95-18.418-79.444-35.754-107.622-2.164 10.101-7.576 50.748 6.779 84.671 21.93 21.018 9.392 50.013 8.494 69.043 6.452-6.016 5.166-11.734 10.557-17.07 16.274-.055 0-.109.02-.19.02-5.8.49-14.784 1.083-26.219.695-11.407-.45-25.428-1.389-41.055-4.39-3.921-.695-8.032-1.266-12.17-2.124a3157.416 3157.416 0 01-12.551-3.247c-8.63-2.144-17.696-4.39-26.626-7.902-9.284-3.246-18.949-6.636-28.995-10.148-10.074-3.43-20.474-6.963-31.201-10.618-5.445-1.735-10.59-3.88-16.444-5.33-5.935-1.347-11.924-2.735-17.968-4.124-12.143-2.716-24.476-5.717-37.136-8.31-12.85-1.634-25.918-3.288-39.15-4.962-6.615-.715-13.231-1.96-19.983-2.226-6.779-.204-13.585-.429-20.419-.653-13.667-.143-27.443-1.47-41.246-.654-13.776.837-27.634 1.695-41.465 2.553-6.942.204-13.776 1.082-20.555 2.287l-20.337 3.165c-13.504 2.164-27.144 3.818-39.885 7.657-12.905 3.328-25.728 6.636-38.388 9.882-12.197 3.962-23.822 8.72-35.556 12.926zm470.127 28.096c4.546 1.205 8.957 2.369 13.258 3.492 4.384.94 8.767 1.593 12.932 2.368 16.635 3.308 31.772 4.452 44.187 5.003 5.69.225 10.727.225 15.301.102a340.587 340.587 0 00-7.542 9.515c-25.755 10.577-81.267 29.935-135.364 25.953-73.672-5.431-53.443-51.456-18.05-29.26 0 0 27.443 3.777 22.379-9.21-1.198-3.062-8.14-8.371-18.786-12.516 14.239 1.572 21.318-4.88 23.986-11.067 6.67 2.389 13.395 4.798 19.738 7.065 9.257 3.757 18.84 6.228 27.961 8.555z"/></g></g><g clip-path="url(#clip1_404_276)"><path d="M1988.71-360.86c0 8.663 6.45 15.837 14.8 17.013v90.491l-59.49 34.349v68.58l-59.49 34.35v71.46l59.49 34.35v68.7l61.89 35.73 61.89-35.73v-68.7l59.49-34.35v-71.46l-59.49-34.35v-68.591l-59.49-34.349v-90.491c8.35-1.176 14.81-8.339 14.81-17.013 0-9.483-7.72-17.196-17.2-17.196-9.49.01-17.21 7.724-17.21 17.207zm-99.38 313.471v-65.926l57-32.904 57.18 33.012V-47.4l-57.09 32.958-57.09-32.947zm116.59 136.006l-57.09-32.958v-65.926l57.09-32.969 57.09 32.97v65.925l-57.09 32.958zm116.58-201.932v65.926l-57.09 32.958-57.1-32.958v-65.808l57.19-33.011 57 32.893zm-59.49-102.93v65.808l-57.09 32.957-57.09-32.957v-65.808l57.09-32.958 57.09 32.958zm-44.69-144.615c0 6.839-5.57 12.395-12.4 12.395-6.84 0-12.4-5.566-12.4-12.395 0-6.84 5.57-12.396 12.4-12.396 6.83-.011 12.4 5.556 12.4 12.396z" fill="#fff"/><path d="M1898.9-239.569l-10.69 6.17-10.69-6.17h-16.46l23.11 13.345v110.6l-95.95 55.397-95.93-55.397v-110.784l22.78-13.161h-16.13l-14.71 8.501v120.093l99.97 57.728V62.208l104.01 60.046 31.66-18.285v-9.31l-31.66 18.285-95.95-55.397V-53.236l95.95-55.398 31.66 18.286v-9.32l-27.64-15.956v-110.6l23.12-13.345h-16.45z" fill="#fff"/><path d="M1567.5 122.19v80.738l69.92 40.369 69.92-40.369V122.19l-69.92-40.37-69.92 40.37z" fill="#81C0E4"/><path d="M1989.82 94.162l-117.73 67.965.01 135.942 117.72 67.976 117.74-67.976V162.127l-117.74-67.965z" fill="#fff"/><mask id="b" style="mask-type:alpha" maskUnits="userSpaceOnUse" x="1621" y="-93" width="192" height="221"><path d="M1621.67-37.485v110.06l95.32 55.042 95.34-55.041V-37.486l-95.34-55.041-95.32 55.04z" fill="#000"/></mask><g mask="url(#b)"><path d="M1812.33-37.485l-95.34-55.041-95.32 55.04V72.576l95.32 55.042 95.34-55.041V-37.486z" fill="#E30613"/><path d="M1727.57 38.798c0-7.433-6.02-13.452-13.45-13.452s-13.45 6.02-13.45 13.452c0 7.434 6.02 13.453 13.45 13.453 7.42 0 13.45-6.03 13.45-13.453zm6.59 34.338c6.79 0 12.31-5.513 12.31-12.31 0-6.796-5.52-12.298-12.31-12.298-6.8 0-12.31 5.513-12.31 12.299 0 6.796 5.51 12.31 12.31 12.31zm6.86 9.161c0 5.534 4.48 10.011 10.01 10.011 5.53 0 10.01-4.488 10.01-10.011 0-5.535-4.49-10.012-10.01-10.012-5.53 0-10.01 4.488-10.01 10.012zm19.46 31.188a8.868 8.868 0 100-17.736 8.868 8.868 0 100 17.736zm3.15 20.313c4.26 0 7.72-3.463 7.72-7.724a7.721 7.721 0 00-7.72-7.724c-4.26 0-7.72 3.463-7.72 7.724a7.72 7.72 0 007.72 7.724z" fill="#C90C0F"/><path d="M1782.98 61.496l-3.39-6.861c-1.27-2.427-2.66-4.272-3.96-6.408-1.74-2.967-3.85-5.75-5.98-8.48-9.68-15.988-28.63-35.72-64.56-40.52-18.44-2.46-37.14 3.269-50.01 18.674-13.1 15.665-21.52 39.215-6.14 60.263 17.32 23.68 50.2 18.232 57.44 3.916 9.49-18.76-3.22-37.78-19.53-39.711-16.31-1.931-23.82 7.508-23.82 7.508 10.52-31.76 40.56-35.417 58.17-32.192 17.61 3.215 37.35 18.89 40.13 34.987 2.59 14.93 11.63 10.842 16.53 9.148.29.615.58 1.208.88 1.834.57 1.208 1.17 2.416 1.76 3.625-4.22-.12-11.86.669-11.86 8.145 0 10.302 9.65 20.173 15.44 39.495 5.8 19.322-4.43 31.167-3.86 34.77 1.12 7.12 10.92 8.35 16.96 8.836-.07 1.532-.15 3.074-.23 4.596-.01.161-.05.323-.06.496-8.59-6.473-21.49 1.089-18.59 6.893 3.22 6.441 2.36 28.546-5.15 41.858-.09.151-.15.292-.23.443 1.63-7.067.79-16.042-6.71-25.201-10.3-12.59-23.47-15.46-23.47-15.46 17.46-52.937-11.16-81.278-11.16-81.278 2.01 19.182-1.15 33.767-9.73 95.012-6.17 44.048 9.08 71.568 18.15 83.608-3.15-1.608-6.26-3.28-9.42-4.887-6.06-9.451-19.01-31.825-19.89-51.535 0 0 8.23-11.091 4.51-24.543-3.72-13.453-8.8-21.037-10.8-28.977-10.33 46.497 8.81 85.043 18.93 101.3l-1.14-.582c-14.22-11.759-20.06-20.875-20.06-20.875 2.28-20.325-8.98-38.082-17.46-48.083-12.88-15.168-14.59-28.049-14.59-28.049-5.06 37.78 16.48 68.763 30.78 84.73-5.4-3.495-10.62-7.25-15.51-11.382-9.91-8.414-18.16-18.081-24.73-29.408-6.21-10.626-10.42-22.752-11.25-34.36-.23-5.826 0-11.587 1.42-16.992 1.44-5.372 3.61-10.421 6.56-14.833a49.413 49.413 0 0110.66-11.08c3.97-2.772 8.74-5.254 12.83-6.419 4.32-1.262 8.57-1.424 12.12-.226 3.59 1.111 6.2 3.819 7.76 6.775 1.41 3.161 1.75 6.106.8 9.321-.74 2.492-2.47 4.941-4.39 5.987-4.04 2.363-7.64 0-9.16-2.061-1.58-2.168-1.95-3.765-2.03-3.7-.34-1.014-1.45-1.553-2.47-1.208a1.936 1.936 0 00-1.2 2.46c.11-.033.36 1.812 2.33 4.887 1.1 1.445 2.64 3.312 5.31 4.466 2.63 1.154 6.34 1.219 9.6-.496 3.27-1.759 5.82-4.801 7.26-9.041 1.27-3.528 1.28-8.727-.61-13.075-1.94-4.369-5.71-8.587-10.87-10.508-5.11-2.028-10.96-2.006-16.33-.572-5.64 1.511-10.33 3.852-15.4 7.099-.24.162-.44.388-.68.561.1-.399.22-.701.3-1.122.84-3.991 1.31-8.965.15-14.37-1.07-5.394-4.32-11.036-8.97-14.887-2.18-1.856-4.93-3.636-8.14-4.672-3.19-1.014-7.07-1.068-10.36.389-3.31 1.38-5.78 3.873-7.31 6.516-1.51 2.675-2.25 5.566-2.18 8.328.08 2.751.91 5.34 2.18 7.304a13.743 13.743 0 004.14 4.175c1.33.863 2.45 1.316 3.2 1.575.75.259 1.14.399 1.14.399a4.425 4.425 0 005.57-2.837 4.408 4.408 0 00-2.84-5.556c.16-.119-3.96-1.003-3.85-5.168-.09-2.082 1.39-5.005 3.66-5.836 1.1-.442 2.39-.518 3.98-.151 1.57.431 3.23 1.338 4.96 2.675 3.28 2.514 5.42 6.031 6.62 9.85 1.17 3.841 1.4 7.897 1.3 11.425-.16 3.473-.61 6.44-.96 8.522-1.7 1.759-3.37 3.55-4.87 5.556-3.64 5.103-6.41 10.983-8.28 17.272-1.84 6.322-2.4 13.043-2.25 19.796.91 13.572 5.31 26.712 12.33 38.989 6.6 11.672 15.85 22.903 26.39 31.943 10.54 9.224 22.48 16.409 34.36 22.612 1.15.604 2.27 1.122 3.41 1.716-1.9.237-3.85.647-5.85 1.154-4.27.949-8.65 2.503-12.92 4.25-8.57 3.496-16.33 8.458-21.86 12.493-5.51 4.024-8.84 7.293-8.84 7.293l-.04.032a1.896 1.896 0 00-.07 2.611c.7.777 1.89.831 2.66.14 0 0 3.22-2.902 8.74-6.591 5.48-3.647 13.15-8.091 21.36-11.026 4.09-1.478 8.26-2.751 12.24-3.452 1.97-.421 3.89-.755 5.74-.874 1.83-.183 3.56-.431 5.15-.367 1.6-.01 3.07-.021 4.36-.032.26.022.43.043.68.065 6.84 3.355 13.57 6.645 19.96 10.033 10.95 5.793 20.94 12.126 28.92 19.602.89.83 1.64 1.747 2.47 2.611-12.08-4.801-29.41-4.456-49.66 4.088-18.52 7.822-26.33 6.29-26.33 6.29 9.44 17.174 42.35 2.859 60.1 3.15 12.01.194 24.13 6.408 30.73 10.41 3.07 8.469 4.03 16.744 2.7 23.745-1.36 7.39-5.06 13.173-8.8 17.218a47.763 47.763 0 01-10.02 8.188c-2.59 1.586-4 2.158-4 2.169a1.953 1.953 0 00-1.12 2.395c.34 1.014 1.43 1.575 2.44 1.251l.07-.022s1.77-.571 4.68-2.06c2.91-1.51 7.17-3.905 11.67-8.253 4.47-4.283 9.24-10.756 11.39-19.473 2.29-8.673 1.33-19.041-2.17-29.02-.87-2.589-1.84-4.865-3.05-7.648-1.16-2.352-2.27-4.715-3.9-7.315-1.54-2.546-3.25-4.984-5.09-7.357-1.78-8.221-3.07-20.94 3.09-29.441 9.73-13.453 18.89-31.48 1.15-42.646 4 4.003-3.59 20.109-11.59 33.562-4.96 8.329-4.49 19.818-3.41 27.359-2.73-2.384-5.58-4.65-8.6-6.764 0-.022-.01-.043-.01-.076a65.21 65.21 0 01-.37-10.389c.24-4.52.74-10.076 2.32-16.279.37-1.554.67-3.172 1.13-4.812.55-1.607 1.12-3.268 1.71-4.973 1.13-3.42 2.32-7.012 4.18-10.551 1.71-3.679 3.5-7.508 5.36-11.478 1.81-3.992 3.68-8.113 5.61-12.364.91-2.157 2.05-4.207 2.81-6.516.72-2.351 1.45-4.725 2.18-7.12 1.44-4.811 3.02-9.698 4.39-14.715.87-5.092 1.74-10.27 2.62-15.513.38-2.622 1.04-5.243 1.18-7.919.11-2.686.23-5.372.35-8.091.07-5.415.77-10.874.34-16.344-.44-5.459-.89-10.95-1.35-16.43-.11-2.751-.57-5.459-1.21-8.145l-1.67-8.059c-1.14-5.351-2.02-10.756-4.04-15.805-1.76-5.113-3.51-10.194-5.22-15.211-2.13-4.855-4.64-9.472-6.87-14.11zm-14.84 186.279c-.64 1.802-1.25 3.549-1.85 5.254-.49 1.737-.84 3.474-1.25 5.124-1.74 6.592-2.35 12.59-2.64 17.51-.12 2.254-.12 4.25-.05 6.062a204.554 204.554 0 00-5.03-2.988c-5.59-10.205-15.82-32.202-13.71-53.639 2.86-29.192 27.18-21.177 15.45-7.152 0 0-2 10.874 4.86 8.868 1.62-.475 4.42-3.226 6.61-7.444-.83 5.642 2.58 8.447 5.85 9.504-1.26 2.643-2.53 5.308-3.73 7.822-1.96 3.678-3.28 7.465-4.51 11.079zM1744.46-9.856c45.27 49.938 52.94 89.574 52.94 89.574s18.89-25.115 6.44-63.1-60.32-50.23-60.32-50.23 11.17-7.292 4.51-24.467c-6.65-17.175-26.18-35.342-26.18-35.342s12.02-2.86 16.6-13.453c3.41-7.886.3-20.023 11.17-22.612 9.02-2.147 13.16 5.146 13.16 5.146-6.72.431-7.15 6.581-4.57 12.018 2.57 5.437 15.74 8.296 17.74-6.009 2.01-14.316-16.88-26.334-35.48-22.321-37.01 7.984-48.68 72.702 3.99 130.796zm-97.31 28.189c4.94-14.381 23.4-21.458 23.4-21.458-13.95.432-25.55-.863-39.06 15.449-13.51 16.3 6.78 31.879 15.66 6.009zM1731.01-7.3s-1.72-4.26-5.03-11.597c-3.41-7.282-8.15-17.768-14.68-29.98-6.49-12.223-14.5-26.29-24.73-40.585-5.21-7.099-10.78-14.391-17.98-21.026-3.64-3.28-7.6-6.527-12.93-8.944-2.68-1.154-5.82-2.136-9.47-2.071-3.67.033-7.49 1.327-10.47 3.69-.97.744-1.29 1.089-1.7 1.456-.93.928-1.45 1.564-2.08 2.46a15.412 15.412 0 00-2.36 5.664c-.75 3.905-.09 7.163.68 9.968 1.69 5.599 4.3 9.882 6.95 13.97 5.38 8.07 11.58 14.78 17.63 21.135 12.21 12.578 24.5 23.086 35.25 31.781 10.72 8.739 20.11 15.395 26.6 20.142 6.55 4.682 10.44 7.174 10.44 7.174l6.99 4.477-3.11-7.713zm-34.25-31.717c-9.87-9.385-21.33-20.41-32.6-32.85-5.6-6.203-11.1-12.891-15.71-19.828-2.22-3.442-4.23-7.11-5.1-10.281-.44-1.543-.54-2.945-.36-3.539.08-.313.16-.453.26-.615.02-.032.26-.259.12-.162.42-.409.92-.863.89-.787 1.21-.939 2.8-1.219 6 .086 3.02 1.306 6.3 3.733 9.34 6.452 6.1 5.523 11.73 12.082 16.84 18.663 10.22 13.237 18.86 26.582 26.19 38.05 5.85 9.3 10.82 17.434 14.67 23.83-5.52-5.026-12.52-11.51-20.54-19.019z" fill="#C90C0F"/></g><mask id="c" style="mask-type:alpha" maskUnits="userSpaceOnUse" x="1728" y="77" width="192" height="224"><path d="M1728.33 132.945V244.57l96.66 55.828 94.89-54.782V131.909l-94.89-54.782-96.66 55.818z" fill="#000"/></mask><g mask="url(#c)"><path d="M1728.33 132.945V244.57l96.66 55.828 94.89-54.782V131.909l-94.89-54.782-96.66 55.818z" fill="#0081C9"/><path d="M1747.22 98.412c-11.63-8.447-17.25 8.458-6.26 21.296 7.99 9.332 11.7 11.899 11.7 11.899s6.19-24.758-5.44-33.195zm129.92-18.307c3.64 0 6.58-2.945 6.58-6.58a6.576 6.576 0 00-6.58-6.582 6.582 6.582 0 00-6.58 6.581c0 3.625 2.95 6.58 6.58 6.58zm-64.96 113.038s-52.66-12.881-66.4-59.529c-10.88 19.743 0 37.209 0 37.209-8.58 3.97-13.77 24.802 3.43 31.771 0 0-10.01 5.728-7.45 21.468 2.58 15.74 18.32 20.605 18.32 20.605s2.87-42.936 52.1-51.524z" fill="#0069B4"/><path d="M1896.79-9.092c-1.14-2.308-2.28-4.595-3.4-6.861-1.26-2.427-2.65-4.272-3.96-6.408-1.74-2.967-3.85-5.75-5.98-8.48-9.67-15.988-28.63-35.72-64.55-40.52-18.45-2.46-37.15 3.269-50.02 18.674-13.09 15.665-21.52 39.215-6.13 60.263 17.31 23.68 50.19 18.232 57.43 3.916 9.5-18.76-3.21-37.78-19.52-39.711-16.32-1.931-23.82 7.508-23.82 7.508 10.51-31.76 40.56-35.417 58.16-32.191 17.61 3.215 37.35 18.89 40.14 34.986 2.59 14.93 11.63 10.842 16.52 9.148.3.615.59 1.208.89 1.834.56 1.208 1.16 2.416 1.76 3.625-4.22-.119-11.87.669-11.87 8.145 0 10.303 9.66 20.174 15.45 39.495 5.79 19.322-4.43 31.167-3.86 34.77 1.12 7.12 10.91 8.35 16.96 8.836-.08 1.532-.16 3.075-.23 4.596-.01.162-.05.323-.07.496-8.58-6.473-21.49 1.1-18.58 6.894 3.21 6.44 2.36 28.545-5.16 41.858-.09.151-.14.291-.23.442 1.63-7.066.79-16.042-6.71-25.201-10.3-12.59-23.46-15.46-23.46-15.46 17.45-52.937-11.17-81.278-11.17-81.278 2.01 19.182-1.14 33.767-9.73 95.012-6.17 44.048 9.09 71.568 18.16 83.608-3.15-1.597-6.27-3.28-9.43-4.887-6.05-9.451-19.01-31.825-19.88-51.535 0 0 8.23-11.09 4.51-24.543-3.73-13.453-8.81-21.037-10.8-28.977-10.34 46.497 8.8 85.043 18.92 101.301-.38-.195-.75-.389-1.13-.583-14.22-11.759-20.07-20.875-20.07-20.875 2.29-20.325-8.97-38.082-17.45-48.083-12.88-15.168-14.6-28.05-14.6-28.05-5.06 37.781 16.48 68.765 30.79 84.731-5.41-3.495-10.63-7.25-15.51-11.381-9.92-8.415-18.16-18.081-24.73-29.409-6.21-10.626-10.42-22.752-11.25-34.36-.24-5.826 0-11.587 1.41-16.992 1.45-5.372 3.61-10.42 6.56-14.833 3.03-4.348 6.68-8.048 10.67-11.08 3.97-2.772 8.74-5.254 12.83-6.419 4.31-1.262 8.56-1.424 12.11-.226 3.59 1.111 6.2 3.819 7.77 6.775 1.4 3.16 1.75 6.106.8 9.32-.75 2.493-2.47 4.942-4.39 5.988-4.05 2.363-7.64 0-9.16-2.06-1.59-2.169-1.96-3.766-2.03-3.7a1.951 1.951 0 00-2.47-1.209 1.949 1.949 0 00-1.21 2.47c.12-.032.37 1.813 2.33 4.887 1.1 1.446 2.64 3.313 5.32 4.467 2.62 1.165 6.33 1.219 9.59-.497 3.28-1.758 5.83-4.8 7.26-9.04 1.27-3.528 1.28-8.727-.6-13.075-1.95-4.37-5.71-8.588-10.88-10.508-5.1-2.028-10.96-2.006-16.32-.572-5.64 1.51-10.34 3.852-15.41 7.099-.23.162-.44.388-.68.561.1-.4.22-.701.31-1.122.84-3.992 1.3-8.965.15-14.37-1.07-5.394-4.33-11.036-8.98-14.887-2.18-1.856-4.93-3.636-8.13-4.672-3.2-1.014-7.08-1.068-10.37.389-3.3 1.38-5.77 3.873-7.3 6.516-1.51 2.675-2.26 5.566-2.18 8.328.07 2.751.9 5.34 2.18 7.304a13.636 13.636 0 004.14 4.175c1.33.863 2.45 1.316 3.19 1.575.76.259 1.15.399 1.15.399a4.41 4.41 0 005.56-2.837 4.403 4.403 0 00-2.83-5.556c.16-.119-3.96-1.004-3.86-5.168-.08-2.082 1.4-5.005 3.66-5.836 1.1-.442 2.4-.518 3.98-.151 1.58.431 3.24 1.338 4.96 2.675 3.28 2.514 5.42 6.03 6.63 9.85 1.16 3.84 1.39 7.897 1.29 11.425-.16 3.473-.6 6.44-.96 8.522-1.69 1.759-3.36 3.55-4.86 5.556-3.65 5.103-6.41 10.982-8.29 17.272-1.83 6.322-2.39 13.043-2.24 19.796.9 13.572 5.31 26.712 12.33 38.978 6.59 11.673 15.85 22.903 26.39 31.943 10.54 9.224 22.48 16.409 34.36 22.612 1.14.605 2.26 1.122 3.41 1.716-1.9.237-3.86.647-5.85 1.154-4.27.949-8.65 2.503-12.93 4.251-8.56 3.495-16.33 8.458-21.85 12.492-5.51 4.024-8.85 7.293-8.85 7.293l-.03.032a1.896 1.896 0 00-.08 2.611c.7.777 1.89.831 2.67.14 0 0 3.21-2.902 8.74-6.591 5.48-3.647 13.15-8.091 21.36-11.026 4.09-1.478 8.25-2.751 12.23-3.452 1.98-.421 3.9-.755 5.74-.874 1.83-.183 3.56-.431 5.16-.366 1.59-.011 3.06-.033 4.36-.044.25.022.43.044.68.065 6.83 3.355 13.57 6.646 19.95 10.033 10.95 5.793 20.94 12.126 28.93 19.602.88.831 1.64 1.748 2.47 2.611-12.09-4.801-29.41-4.456-49.66 4.089-18.52 7.821-26.33 6.289-26.33 6.289 9.43 17.175 42.35 2.859 60.1 3.15 12 .194 24.13 6.408 30.72 10.411 3.08 8.468 4.04 16.743 2.71 23.745-1.36 7.389-5.06 13.172-8.8 17.207a47.77 47.77 0 01-10.03 8.188c-2.59 1.586-4 2.157-4 2.168a1.948 1.948 0 00-1.11 2.395 1.948 1.948 0 002.44 1.252l.06-.022s1.77-.572 4.68-2.06c2.92-1.511 7.18-3.917 11.68-8.253 4.46-4.283 9.23-10.756 11.39-19.473 2.29-8.674 1.33-19.03-2.18-29.02-.86-2.589-1.83-4.866-3.04-7.649-1.17-2.352-2.28-4.714-3.91-7.314a75.698 75.698 0 00-5.09-7.358c-1.78-8.22-3.06-20.94 3.1-29.441 9.73-13.453 18.89-31.479 1.14-42.645 4 4.002-3.58 20.109-11.59 33.562-4.96 8.328-4.48 19.817-3.41 27.358a100.457 100.457 0 00-8.59-6.764c0-.021-.01-.043-.01-.075a64.027 64.027 0 01-.37-10.389c.24-4.52.73-10.076 2.32-16.28.37-1.553.67-3.171 1.12-4.811.55-1.608 1.12-3.269 1.72-4.973 1.13-3.42 2.32-7.013 4.17-10.551 1.72-3.679 3.51-7.509 5.36-11.479l5.61-12.363c.92-2.158 2.05-4.207 2.82-6.516.71-2.352 1.44-4.725 2.18-7.12 1.43-4.812 3.02-9.699 4.39-14.705.86-5.092 1.73-10.27 2.62-15.513.38-2.621 1.04-5.243 1.18-7.918.1-2.687.22-5.373.34-8.091.08-5.416.78-10.875.35-16.334-.45-5.458-.9-10.95-1.35-16.43-.11-2.751-.57-5.459-1.21-8.145l-1.67-8.059c-1.15-5.35-2.02-10.756-4.05-15.804-1.76-5.114-3.5-10.195-5.22-15.212-2.13-4.854-4.64-9.472-6.86-14.11zm-14.85 186.279c-.63 1.802-1.25 3.55-1.84 5.254-.5 1.737-.84 3.474-1.25 5.124-1.75 6.592-2.35 12.59-2.65 17.51-.11 2.254-.11 4.25-.05 6.063a170.702 170.702 0 00-5.03-2.989c-5.58-10.205-15.81-32.202-13.71-53.638 2.86-29.193 27.19-21.178 15.45-7.153 0 0-2 10.874 4.87 8.868 1.61-.475 4.42-3.226 6.61-7.444-.83 5.642 2.58 8.447 5.85 9.504-1.27 2.644-2.54 5.308-3.74 7.822-1.97 3.679-3.28 7.465-4.51 11.079z" fill="#0069B4"/></g><path d="M1643.96 133.245h-17.41v20.249h17.41v17.391h20.23v-17.391h17.41v-20.249h-17.41v-17.401h-20.23v17.401z" fill="#fff"/><path d="M1846.35 26.876h-17.4v20.238h17.4v17.402h20.24V47.114h17.4V26.875h-17.4v-17.4h-20.24v17.4z" fill="#C90C0F"/><path d="M1139.9 323.868v-80.912l70.07-40.457 70.08 40.457v80.912l-70.08 40.456-70.07-40.456zm-73.01-126.475V116.48l69.95-40.383 70.19 40.528v80.768l-70.07 40.456-70.07-40.456zm146.03 0v-80.768l70.2-40.528 69.95 40.383v80.913L1283 237.849l-70.08-40.456zM1139.9 70.93V-9.838l70.07-40.456 70.08 40.456v80.767l-70.08 40.457-70.07-40.456zm70.36-127.86l-76.25 43.683V70.93L1061 113.084v87.705l73.01 42.154v84.321l75.96 43.853 75.97-43.853v-84.321l73.01-42.154v-87.705l-73.01-42.154v-84.177l-75.68-43.684z" fill="#fff"/><mask id="d" style="mask-type:alpha" maskUnits="userSpaceOnUse" x="1154" y="-35" width="113" height="130"><path d="M1154.63-1.926v64.364l55.74 32.182 55.73-32.182V-1.926l-55.73-32.181-55.74 32.181z" fill="#000"/></mask><g mask="url(#d)"><path d="M1154.63-1.926v64.364l55.74 32.182 55.73-32.182V-1.926l-55.73-32.181-55.74 32.181z" fill="#fff"/><path d="M1258.87 42.938c7.87-4.13 2.58-14.103-10.62-11.43-13.33 2.698-23.18 3.048-23.18 3.048s23.45 13.814 33.8 8.382zM1169.52 3.12a8.332 8.332 0 0011.06 4.01c4.15-1.95 5.95-6.9 4.01-11.056-1.95-4.155-6.9-5.95-11.06-3.998-4.16 1.939-5.96 6.889-4.01 11.044zm-12.69-17.5a7.596 7.596 0 00-3.66 10.117 7.6 7.6 0 0010.11 3.661 7.596 7.596 0 003.66-10.117c-1.78-3.793-6.31-5.444-10.11-3.661z" fill="#EDEDED"/><path d="M1132.54 4.939c1.24 1 2.48 1.975 3.7 2.95 1.35 1.024 2.6 1.699 3.89 2.554 1.75 1.204 3.66 2.204 5.56 3.18 9.62 6.419 25.39 12.49 46.77 5.769 10.97-3.457 19.93-11.563 23.1-23.559 3.23-12.2 1.77-27.593-12.36-35.35-15.89-8.72-32.88 2.952-33.18 12.864-.39 12.995 11.71 20.306 21.35 17.115 9.63-3.192 11.37-10.455 11.37-10.455 2.43 20.535-13.43 30.46-24.13 33.266-10.69 2.806-25.86-.783-31.64-9.07-5.36-7.683-9.36-3.022-11.65-.794-.32-.265-.65-.53-.97-.795-.63-.53-1.29-1.048-1.94-1.566 2.4-1.035 6.47-3.48 4.5-7.672-2.69-5.769-10.69-8.768-19-18.054-8.31-9.298-5.69-18.608-6.95-20.475-2.49-3.697-8.3-1.819-11.82-.506-.36-.879-.72-1.758-1.07-2.637l-.09-.29c6.5 1.374 11.74-6.25 8.6-8.731-3.5-2.758-8.81-15.369-8.09-24.787.02-.109 0-.205.02-.313.93 4.384 3.77 9.19 10.37 12.345 9.06 4.348 17.18 2.505 17.18 2.505 4.1 34.217 27.56 42.576 27.56 42.576-6.14-10.213-8.21-19.21-19.45-55.74-8.08-26.28-23.85-37.686-32.08-42.046 2.18.072 4.36.193 6.57.265 5.86 3.709 18.98 12.839 24.64 23.642 0 0-1.7 8.371 3.9 14.923 5.62 6.552 10.45 9.467 13.65 13.393-6.41-28.737-27.22-45.31-37.14-51.753l.79.036c11.04 2.854 16.71 6.419 16.71 6.419 4.04 11.972 15 18.97 22.37 22.342 11.19 5.119 15.53 11.876 15.53 11.876-7.07-22.475-27.26-34.17-39.45-39.361 3.95.542 7.86 1.277 11.67 2.313 7.76 2.108 14.92 5.372 21.56 9.984 6.27 4.312 11.79 10.01 15.31 16.284 1.66 3.192 3.04 6.492 3.66 9.888.61 3.385.71 6.781.22 10.021a30.826 30.826 0 01-3.07 8.997c-1.5 2.59-3.52 5.227-5.51 6.961-2.08 1.831-4.42 3.035-6.72 3.3-2.3.326-4.48-.517-6.11-1.758-1.62-1.41-2.58-2.963-2.9-5.01-.24-1.59.09-3.409.9-4.505 1.65-2.385 4.27-2 5.67-1.24 1.46.795 2.08 1.602 2.11 1.541.45.482 1.21.494 1.69.024.49-.457.5-1.216.03-1.698-.06.048-.69-.927-2.59-2.132-.99-.517-2.35-1.156-4.14-1.108-1.77.036-3.87.976-5.24 2.795-1.38 1.842-2 4.215-1.69 6.961.22 2.313 1.57 5.215 3.77 7.166 2.23 1.94 5.44 3.312 8.84 3.035 3.39-.204 6.66-1.746 9.29-3.95 2.77-2.325 4.77-4.866 6.77-8.01.08-.156.14-.337.22-.493.06.253.06.445.14.71.58 2.457 1.61 5.36 3.68 8.082 2.01 2.746 5.31 5.047 8.93 5.986 1.71.47 3.71.747 5.78.482 2.06-.277 4.24-1.265 5.71-2.94 1.49-1.637 2.21-3.685 2.38-5.564.15-1.89-.19-3.709-.96-5.227-.76-1.517-1.9-2.746-3.13-3.517a8.569 8.569 0 00-3.41-1.252 9.347 9.347 0 00-2.21-.048c-.48.048-.74.084-.74.084a2.737 2.737 0 00-2.38 3.047 2.751 2.751 0 003.05 2.373c-.06.108 2.48-.482 3.51 1.89.59 1.145.53 3.168-.52 4.228-.51.542-1.21.916-2.19 1.133-.99.168-2.16.096-3.48-.193-2.5-.542-4.62-1.951-6.29-3.782-1.66-1.843-2.86-4.059-3.72-6.058a43.314 43.314 0 01-1.7-5.023c.48-1.42.95-2.866 1.26-4.384.71-3.818.71-7.828.11-11.851-.62-4.023-2.07-7.925-3.94-11.67-4.05-7.36-9.97-13.563-17.12-18.597-6.75-4.806-14.88-8.672-23.15-10.96-8.31-2.397-16.89-3.3-25.17-3.661-.8-.037-1.57-.037-2.36-.061 1-.626 1.98-1.373 2.97-2.18 2.14-1.65 4.19-3.673 6.12-5.769 3.88-4.203 6.92-9.021 8.96-12.718 2.04-3.698 3.03-6.408 3.03-6.408l.02-.024c.21-.578-.06-1.24-.64-1.481a1.163 1.163 0 00-1.53.626s-1.05 2.469-3.17 5.974c-2.11 3.481-5.24 7.973-9.07 11.767-1.9 1.903-3.9 3.697-5.94 5.131-1 .746-1.98 1.445-2.98 1.999-.98.578-1.88 1.168-2.8 1.554-.89.421-1.71.819-2.43 1.168-.16.048-.25.084-.4.144-4.71-.084-9.33-.168-13.8-.385-7.65-.373-14.91-1.301-21.33-3.396-.71-.241-1.37-.542-2.07-.819 8.02-.482 17.63-5.215 26.72-15.296 8.33-9.238 13.1-10.431 13.1-10.431-9.8-7.142-24.47 9.503-34.47 13.984-6.77 3.035-15.19 2.734-19.94 2.228-3.94-3.939-6.65-8.323-7.73-12.586-1.17-4.493-.63-8.696.42-11.948a29.417 29.417 0 013.47-7.202c1.04-1.566 1.68-2.265 1.68-2.265.42-.457.42-1.168 0-1.626a1.214 1.214 0 00-1.7-.06l-.04.024s-.84.783-2.08 2.385c-1.23 1.614-2.99 4.071-4.37 7.684-1.38 3.565-2.35 8.443-1.28 13.887 1 5.456 4.25 11.008 8.83 15.681 1.15 1.217 2.3 2.241 3.71 3.481 1.26 1.012 2.5 2.048 4.1 3.071a45.312 45.312 0 004.79 2.783c3.14 4.131 7.2 10.924 5.98 17.295-1.93 10.081-2.32 22.57 10.54 24.172-3.3-1.192-3.26-12.2-2.31-21.824.59-5.961-2.69-12.272-5.27-16.211 2.16.614 4.35 1.144 6.59 1.53.01.012.01.024.03.036a40.58 40.58 0 012.92 5.721c1.06 2.589 2.23 5.829 2.97 9.719.2.964.45 1.952.63 2.987.11 1.048.23 2.132.35 3.228.27 2.204.55 4.54.44 6.998 0 2.517 0 5.13.01 7.828.04 2.71.07 5.505.1 8.395.06 1.445-.05 2.89.13 4.384.21 1.506.43 3.023.65 4.553.46 3.071.85 6.227 1.4 9.382.85 3.072 1.72 6.203 2.6 9.37.48 1.566.79 3.204 1.42 4.746.64 1.53 1.29 3.071 1.93 4.613 1.37 3.047 2.42 6.287 4.08 9.238 1.68 2.938 3.37 5.89 5.06 8.84.78 1.518 1.74 2.915 2.8 4.24l3.05 4.07c2.05 2.698 3.95 5.493 6.41 7.781 2.32 2.409 4.63 4.794 6.91 7.142 2.41 2.192 5.04 4.12 7.49 6.13zm-40.51-108.181c-.12-1.168-.23-2.312-.34-3.42-.18-1.108-.44-2.168-.64-3.204-.75-4.143-1.97-7.66-3.11-10.49a42.198 42.198 0 00-1.55-3.409c1.19.133 2.4.253 3.6.362 5.81 4.251 17.3 13.886 21.74 26.436 6.05 17.091-9.67 18.982-6.78 8.058 0 0-1.74-6.612-5.05-3.686-.78.687-1.62 2.963-1.74 5.902-1.02-3.372-3.67-4.059-5.77-3.782l.03-5.36c.12-2.601-.14-5.058-.39-7.407zm80.79 138.027c-38.43-16.091-53.11-36.277-53.11-36.277s-3.99 19.005 12.93 37.011c16.92 18.006 46.94 12.31 46.94 12.31s-4.34 7.01 3.89 14.874c8.22 7.865 23.92 12.923 23.92 12.923s-5.98 4.758-5.77 11.888c.15 5.311 5.08 11.285-.33 15.585-4.48 3.565-8.72.566-8.72.566 3.65-1.999 2.28-5.565-.59-7.925-2.86-2.373-10.98-.518-8.36 8.009 2.63 8.539 16.36 10.31 25.72 3.192 18.62-14.14 8.19-53.428-36.52-72.156zm24.37-6.709c1.39.662 3.12 1.433 5.18 2.072 2.03.674 4.4 1.3 7.03 1.686 2.62.457 5.48.626 8.62.626 2.87-.072 6.24-.325 9.51-1 3.31-.686 6.73-1.77 10.03-3.673 1.64-.964 3.26-2.108 4.68-3.685 1.4-1.566 2.75-3.53 3.13-6.227.5-2.698-.98-5.998-3.23-7.468-2.2-1.577-4.5-1.975-6.53-2.071-4.11-.133-7.58 1-10.75 2.24-3.14 1.277-6.02 2.903-8.51 4.444-1.19.675-2.36 1.325-3.49 1.963-1.2.542-2.35 1.06-3.46 1.566-4.53 1.843-8.56 2.879-11.37 3.517-2.84.602-4.46.807-4.46.807l-4.59.59 5.05 2.915c.75.373 1.75 1.096 3.16 1.698zm13.73-5.48c1.24-.458 2.53-.927 3.87-1.421 1.31-.614 2.67-1.253 4.05-1.903 2.57-1.325 5.14-2.53 7.96-3.445 2.77-.879 5.8-1.505 8.36-1.192 1.27.132 2.37.554 2.88 1.048.54.494.45.746.52 1.42 0 1.518-1.89 3.963-4.27 5.457-2.37 1.614-5.19 2.77-8.04 3.565-2.92.807-5.66 1.216-8.59 1.506-2.66.168-5.31.216-7.72-.037a37.64 37.64 0 01-6.5-1.084c-1.48-.349-2.74-.819-3.86-1.24 2.92-.47 6.82-1.205 11.34-2.674zm8.98-29.099c1 9.347-7.47 18.15-7.47 18.15 7.7-3.901 14.53-6.214 17.82-18.884 3.3-12.67-12.16-16.067-10.35.734z" fill="#EDEDED"/><path d="M1231.08 82.178c-5.1-14.067-12.01-19.319-21.07-22.751 0 0 9.48 12.465 9.38 23.281-.15 19.487 16.78 13.514 11.69-.53zm12.24-.121c-4.92-9.72-10.37-12.923-17.23-14.621 0 0 7.95 8.19 8.82 16.03 1.59 14.104 13.31 8.31 8.41-1.409zm-63.65-52.223s2.09 1.94 5.87 5.167c3.82 3.18 9.22 7.817 16.06 12.935 6.85 5.143 15.01 10.924 24.49 16.236 4.78 2.601 9.8 5.227 15.57 7.058 2.91.879 5.97 1.662 9.59 1.614 1.81-.049 3.82-.326 5.84-1.325 2.05-.976 3.84-2.71 4.89-4.806.35-.674.44-.94.58-1.265a10 10 0 00.52-1.927c.2-1.276.13-2.613-.17-3.794-.6-2.384-1.83-4.034-3-5.407-2.41-2.698-4.99-4.409-7.55-5.998-5.13-3.108-10.36-5.24-15.41-7.215-10.12-3.842-19.76-6.504-28.06-8.551-8.28-2.084-15.29-3.348-20.17-4.312-4.89-.903-7.73-1.277-7.73-1.277l-5.1-.674 3.78 3.54zm27.49 8.78c7.98 2.674 17.29 5.842 26.86 9.852 4.75 2 9.59 4.312 13.99 6.986 2.14 1.337 4.23 2.866 5.55 4.42.65.747 1.08 1.505 1.14 1.89.04.194.02.302.01.41 0 .025-.07.217-.03.12-.13.338-.29.724-.29.675-.43.843-1.25 1.421-3.38 1.53-2.04.06-4.5-.434-6.91-1.168-4.87-1.494-9.74-3.686-14.32-6.035-9.21-4.733-17.54-9.936-24.65-14.428a843.298 843.298 0 01-14.45-9.503c4.41 1.349 10.02 3.143 16.48 5.251z" fill="#EDEDED"/></g><mask id="e" style="mask-type:alpha" maskUnits="userSpaceOnUse" x="1332" y="-67" width="216" height="250"><path d="M1332.06-4.672v120.526l107.92 66.379 107.92-66.379.02-120.526L1439.98-67 1332.06-4.672z" fill="#fff"/></mask><g mask="url(#e)"><path d="M1332.06-4.672v120.526h215.84l.02-120.526L1439.98-67 1332.06-4.672z" fill="#fff"/><path d="M1332.06 118.848V-1.678h215.84l.02 120.526-107.94 62.328-107.92-62.328z" fill="#fff"/><path d="M1510.63 134.041c-5.76 15.332 3.44 28.135 11.98 18.933 9.11-9.828 6-38.336 11.99-49.838 0-.012-18.21 15.561-23.97 30.905zm-52.72-32.11s18.69 8.382 34.99-16.296c0 0-17.25-20.126-41.22-1.433-23.96 18.692-17.24 42.648-52.95 51.284 0 0 20.34 11.213 40.02-1.205 20.12-12.706 19.16-32.35 19.16-32.35zM1353.75 50.96c6.04-12.321 7.04-17.247 7.04-17.247s-25.25.638-28.76 16.295c-3.51 15.646 13.42 17.886 21.72.952z" fill="#EDEDED"/><path d="M1430.11 88.502c22.04-34.507 51.29-40.733 68.05-24.438 16.77 16.296-.96 33.543-.96 33.543s23.25-13.417 8.15-36.903c-12.33-19.186-51.52-17.247-70.44-6.95-21.78 11.852-22.68 25.956-22.68 25.956-36.11.963-34.19 27.472-34.19 27.472-23.32-21.09-41.38-1.915-41.38-1.915 30.68 53.693 71.41 17.741 93.45-16.765zm-58.22-13.26c0-4.023-2.4-7.443-5.8-9.081.48-2.084 1.1-4.48 1.98-7.058.79.205 1.53.482 2.38.482 5.33 0 9.66-4.324 9.66-9.66 0-3.107-1.57-5.757-3.86-7.527 1.69-2.554 3.45-5.167 5.69-7.564.09-.132.24-.24.35-.373 1.14.554 2.38.915 3.73.915 4.8 0 8.71-3.902 8.71-8.708 0-1.084-.26-2.107-.62-3.071 2.53-1.843 5.1-3.65 7.88-5.155 1.35 1.265 3.13 2.072 5.13 2.072 4.14 0 7.5-3.36 7.5-7.504 0-.132-.07-.24-.07-.373 2.96-.988 5.83-2.168 8.75-3 1.2 1.892 3.21 3.217 5.62 3.217 3.41 0 6.12-2.554 6.6-5.842 1.08-.217 2.18-.47 3.25-.602 2.48-.253 4.71-.47 7-.71.95 1.939 2.9 3.312 5.2 3.312 2.62 0 4.75-1.747 5.48-4.12 3.86-.06 7.22.133 9.79.013 4 0 6.29.012 6.29.012h.15c.85 0 1.56-.687 1.57-1.554.03-.867-.67-1.59-1.54-1.614 0 0-2.32-.048-6.38-.12-2.6.072-6-.17-9.88-.181-.74-2.36-2.88-4.107-5.48-4.107-2.83 0-5.08 2.06-5.61 4.733-2.29.193-4.64.386-7.12.59-1.05.109-2.13.35-3.2.53-1.09-2.312-3.4-3.938-6.12-3.938-3.64 0-6.55 2.878-6.72 6.48-3.02.819-6.02 1.975-9.11 2.938-1.36-1.879-3.46-3.18-5.97-3.18-4.14 0-7.5 3.361-7.5 7.504 0 .53.19.988.3 1.482-3.01 1.565-5.83 3.48-8.6 5.431-1.48-1.156-3.25-1.963-5.28-1.963-4.8 0-8.71 3.902-8.71 8.708 0 1.65.6 3.108 1.39 4.42-.14.169-.34.314-.47.494-2.7 2.806-4.81 5.878-6.83 8.853-.32-.037-.61-.193-.95-.193a9.656 9.656 0 00-9.66 9.66c0 2.468 1 4.672 2.52 6.37a74.011 74.011 0 00-2.76 9.046c-5.01.626-8.94 4.721-8.94 9.9 0 5.6 4.54 10.141 10.14 10.141 5.58.036 10.12-4.504 10.12-10.105zm45.45-102.87s-58.79-14.38-74.14-66.459c-12.14 22.04 0 41.528 0 41.528-9.57 4.432-15.36 27.69 3.83 35.47 0 0-11.17 6.395-8.31 23.968 2.88 17.572 20.45 23.004 20.45 23.004s3.21-47.935 58.17-57.51z" fill="#EDEDED"/><path d="M1511.8-253.418c-1.28-2.578-2.55-5.131-3.8-7.66-1.41-2.71-2.96-4.77-4.42-7.155-1.94-3.312-4.3-6.407-6.67-9.454-10.8-17.85-31.97-39.878-72.07-45.238-20.6-2.746-41.47 3.649-55.84 20.848-14.62 17.488-24.03 43.781-6.85 67.279 19.33 26.437 56.04 20.354 64.12 4.372 10.6-20.945-3.59-42.179-21.8-44.335-18.21-2.155-26.59 8.383-26.59 8.383 11.74-35.47 45.28-39.541 64.94-35.939 19.64 3.589 41.7 21.089 44.8 39.059 2.89 16.669 12.99 12.104 18.45 10.213.33.686.65 1.349.99 2.047.63 1.349 1.3 2.698 1.97 4.047-4.71-.132-13.25.747-13.25 9.094 0 11.502 10.78 22.522 17.24 44.093 6.47 21.571-4.95 34.796-4.31 38.818 1.25 7.949 12.19 9.322 18.94 9.864-.09 1.711-.17 3.433-.26 5.131-.01.181-.06.361-.07.554-9.59-7.226-23.99 1.229-20.75 7.696 3.59 7.191 2.64 31.87-5.76 46.731-.1.181-.16.326-.25.494 1.82-7.889.88-17.909-7.49-28.135-11.51-14.055-26.2-17.259-26.2-17.259 19.49-59.1-12.46-90.74-12.46-90.74 2.24 21.402-1.28 37.698-10.87 106.072-6.89 49.176 10.14 79.9 20.27 93.342-3.52-1.782-7-3.661-10.52-5.456-6.76-10.55-21.23-35.53-22.2-57.535 0 0 9.19-12.381 5.03-27.4-4.15-15.019-9.83-23.486-12.05-32.35-11.54 51.91 9.81 94.943 21.12 113.094-.42-.217-.84-.434-1.26-.663-15.88-13.128-22.41-23.305-22.41-23.305 2.56-22.691-10.02-42.516-19.48-53.681-14.38-16.934-16.3-31.314-16.3-31.314-5.65 42.178 18.41 76.769 34.38 94.594-6.04-3.902-11.87-8.093-17.32-12.706-11.07-9.395-20.27-20.186-27.61-32.833-6.94-11.863-11.63-25.401-12.56-38.36-.27-6.504 0-12.935 1.58-18.97 1.61-5.998 4.03-11.634 7.32-16.56 3.38-4.854 7.46-8.985 11.91-12.37 4.43-3.095 9.76-5.865 14.32-7.166 4.82-1.409 9.56-1.59 13.53-.253 4.01 1.241 6.92 4.264 8.67 7.564 1.56 3.529 1.95 6.817.89 10.406-.83 2.782-2.76 5.516-4.9 6.685-4.52 2.637-8.53 0-10.23-2.301-1.77-2.421-2.18-4.203-2.26-4.131a2.18 2.18 0 00-2.76-1.349c-1.13.385-1.73 1.626-1.35 2.758.13-.036.41 2.024 2.6 5.456 1.23 1.614 2.95 3.698 5.94 4.986 2.93 1.301 7.07 1.361 10.71-.554 3.66-1.963 6.5-5.359 8.1-10.093 1.42-3.938 1.44-9.743-.67-14.597-2.17-4.878-6.37-9.587-12.14-11.731-5.7-2.264-12.24-2.24-18.22-.65-6.3 1.686-11.54 4.299-17.2 7.925-.27.18-.5.433-.76.626.11-.446.24-.783.34-1.253.94-4.456 1.45-10.008.16-16.042-1.19-6.022-4.83-12.322-10.02-16.621-2.43-2.072-5.5-4.059-9.08-5.215-3.56-1.133-7.9-1.193-11.57.433-3.69 1.542-6.45 4.324-8.16 7.275-1.68 2.987-2.51 6.215-2.43 9.298.09 3.071 1.01 5.962 2.43 8.154a15.335 15.335 0 004.63 4.661c1.48.963 2.73 1.469 3.56 1.758.85.289 1.28.446 1.28.446 2.59.843 5.37-.578 6.22-3.168a4.918 4.918 0 00-3.17-6.202c.18-.133-4.42-1.121-4.3-5.77-.1-2.324 1.55-5.588 4.08-6.515 1.23-.494 2.67-.579 4.45-.169 1.75.482 3.61 1.493 5.54 2.987 3.66 2.806 6.04 6.733 7.39 10.996 1.3 4.288 1.55 8.816 1.45 12.755-.18 3.878-.68 7.19-1.08 9.515-1.89 1.963-3.75 3.962-5.43 6.202-4.07 5.697-7.15 12.261-9.25 19.283-2.05 7.058-2.67 14.561-2.5 22.101 1.01 15.152 5.92 29.821 13.76 43.527 7.36 13.032 17.7 25.57 29.46 35.663 11.77 10.286 25.1 18.32 38.36 25.245 1.28.674 2.53 1.252 3.81 1.914-2.12.265-4.3.723-6.53 1.29-4.77 1.06-9.66 2.793-14.43 4.745-9.56 3.902-18.23 9.442-24.4 13.947-6.15 4.492-9.87 8.141-9.87 8.141l-.04.037c-.8.782-.84 2.071-.08 2.914.78.867 2.1.928 2.97.157 0 0 3.59-3.24 9.76-7.36 6.11-4.07 14.68-9.032 23.84-12.308 4.57-1.65 9.22-3.071 13.66-3.854 2.21-.47 4.35-.843 6.41-.976 2.05-.205 3.97-.482 5.76-.41 1.78-.011 3.42-.023 4.86-.035.29.024.48.048.76.072 7.64 3.745 15.15 7.419 22.28 11.2 12.23 6.456 23.38 13.538 32.29 21.885.99.927 1.83 1.951 2.76 2.915-13.49-5.36-32.83-4.975-55.44 4.564-20.68 8.732-29.4 7.034-29.4 7.034 10.54 19.174 47.29 3.192 67.1 3.517 13.4.217 26.94 7.154 34.3 11.623 3.43 9.454 4.49 18.692 3.02 26.509-1.51 8.25-5.64 14.706-9.82 19.21a53.502 53.502 0 01-11.19 9.141c-2.89 1.771-4.47 2.409-4.47 2.421a2.17 2.17 0 00-1.24 2.674 2.174 2.174 0 002.72 1.397l.07-.024s1.98-.638 5.23-2.3c3.25-1.686 8.01-4.36 13.03-9.214 4.99-4.782 10.31-12.008 12.72-21.74 2.55-9.683 1.48-21.258-2.43-32.398-.97-2.89-2.05-5.432-3.4-8.54-1.3-2.625-2.54-5.263-4.36-8.165a85.478 85.478 0 00-5.68-8.214c-1.99-9.178-3.42-23.378 3.45-32.869 10.87-15.019 21.09-35.145 1.28-47.61 4.47 4.48-4 22.45-12.94 37.469-5.54 9.31-5.01 22.125-3.8 30.544-3.05-2.662-6.23-5.191-9.6-7.552 0-.036-.01-.048-.01-.084-.29-2.578-.64-6.54-.41-11.599.26-5.046.82-11.249 2.59-18.174.41-1.735.74-3.541 1.25-5.372.61-1.794 1.25-3.65 1.91-5.552 1.27-3.818 2.59-7.829 4.67-11.78 1.91-4.106 3.91-8.382 5.98-12.814 2.02-4.457 4.11-9.057 6.26-13.803 1.03-2.409 2.29-4.697 3.15-7.274.79-2.626 1.61-5.276 2.43-7.95 1.6-5.371 3.37-10.827 4.9-16.428.97-5.685 1.94-11.466 2.93-17.319.42-2.927 1.16-5.854 1.31-8.841.12-2.999.25-5.998.39-9.033.08-6.046.86-12.14.38-18.246-.49-6.095-1-12.225-1.5-18.344-.12-3.083-.64-6.094-1.35-9.093l-1.87-8.997c-1.28-5.974-2.25-12.008-4.52-17.645-1.96-5.708-3.91-11.381-5.82-16.982-2.38-5.42-5.18-10.562-7.66-15.753zm-16.58 207.977c-.71 2.012-1.39 3.963-2.06 5.866-.55 1.939-.94 3.878-1.39 5.72-1.96 7.36-2.63 14.056-2.95 19.548a70.663 70.663 0 00-.06 6.77 212.106 212.106 0 00-5.62-3.337c-6.24-11.394-17.65-35.952-15.31-59.883 3.21-32.592 30.36-23.643 17.26-7.986 0 0-2.22 12.14 5.44 9.9 1.8-.53 4.93-3.6 7.38-8.31-.93 6.3 2.88 9.43 6.53 10.611-1.41 2.95-2.83 5.926-4.17 8.732-2.22 4.095-3.67 8.335-5.05 12.37z" fill="#EDEDED"/></g></g></g><defs><clipPath id="clip0_404_276"><path fill="#fff" d="M0 0h1920v144H0z"/></clipPath><clipPath id="clip1_404_276"><path fill="#fff" transform="translate(1011 -184)" d="M0 0h909v549.819H0z"/></clipPath></defs></svg>