<svg width="1440" height="144" fill="none" xmlns="http://www.w3.org/2000/svg"><g clip-path="url(#clip0_404_452)"><path fill="#EDEDED" d="M0 0h1440v144H0z"/><mask id="a" style="mask-type:alpha" maskUnits="userSpaceOnUse" x="-71" y="-260" width="766" height="665"><path d="M502.879 403.82L694.487 71.945 503.646-259.454l-382.472.395-191.63 331.792 190.863 331.481 382.472-.395z" fill="#004F9F"/></mask><g mask="url(#a)"><path d="M502.879 403.82L694.487 71.945 503.646-259.454l-382.472.395-191.63 331.792 190.863 331.481 382.472-.395z" fill="#004F9F"/><g opacity=".1" fill="#0081C9"><path d="M579.25 143.959c0-12.864-10.435-23.298-23.299-23.298-12.864 0-23.277 10.434-23.277 23.298 0 12.864 10.434 23.298 23.277 23.298 12.864-.021 23.299-10.455 23.299-23.298zm17.335-13.007c10.475 0 18.949-8.494 18.949-18.949 0-10.475-8.495-18.949-18.949-18.949-10.475 0-18.949 8.495-18.949 18.949 0 10.475 8.494 18.949 18.949 18.949zm59.032-36.835c0-9.27-7.515-16.785-16.785-16.785s-16.784 7.515-16.784 16.785 7.514 16.784 16.784 16.784 16.785-7.514 16.785-16.784zm38.469-5.963c0-8.065-6.555-14.62-14.62-14.62-8.066 0-14.62 6.535-14.62 14.62 0 8.066 6.554 14.62 14.62 14.62 8.065 0 14.62-6.534 14.62-14.62z"/><path d="M557.217 51.523l-12.986 6.432c-4.595 2.389-8.086 5.023-12.129 7.493-5.615 3.288-10.863 7.29-16.029 11.312-30.261 18.316-67.607 54.192-76.694 122.188-4.655 34.916 6.187 70.302 35.346 94.662 29.648 24.789 74.223 40.736 114.06 11.618 44.82-32.772 34.508-95.009 7.412-108.71-35.509-17.969-71.507 6.085-75.162 36.958-3.655 30.874 14.211 45.085 14.211 45.085-60.134-19.908-67.035-76.775-60.93-110.099 6.085-33.303 35.754-70.69 66.219-75.958 28.26-4.901 20.521-22.012 17.315-31.282 1.164-.552 2.287-1.103 3.471-1.675 2.287-1.062 4.574-2.205 6.861-3.328-.224 7.984 1.266 22.46 15.417 22.46 19.5 0 38.183-18.274 74.753-29.24 36.571-10.964 58.991 8.393 65.811 7.31 13.476-2.123 15.804-20.663 16.723-32.098l8.699.429c.306.02.612.102.939.122-12.252 16.254 2.082 40.675 13.047 35.182 12.191-6.084 54.029-4.471 79.226 9.76.307.164.552.266.837.43-13.374-3.084-30.363-1.491-47.698 12.7-23.829 19.5-29.261 44.411-29.261 44.411-100.196-33.038-153.836 21.134-153.836 21.134 36.284-3.798 63.911 2.164 179.83 18.418 83.37 11.68 135.459-17.193 158.247-34.365-3.022 5.962-6.208 11.863-9.25 17.846-17.887 11.455-60.236 35.978-97.542 37.632 0 0-20.99-15.579-46.453-8.535-25.462 7.045-39.817 16.662-54.845 20.44 88.006 19.561 160.963-16.642 191.734-35.815-.367.714-.735 1.429-1.123 2.143-22.257 26.913-39.511 37.98-39.511 37.98-38.469-4.329-72.079 16.988-91.007 33.038-28.709 24.38-53.089 27.627-53.089 27.627 71.507 9.576 130.15-31.201 160.37-58.276-6.615 10.23-13.721 20.113-21.542 29.362-15.927 18.765-34.222 34.365-55.662 46.801-20.113 11.761-43.064 19.724-65.034 21.297-11.027.449-21.93 0-32.16-2.675-10.169-2.736-19.725-6.841-28.076-12.415-8.229-5.738-15.233-12.639-20.971-20.194-5.247-7.514-9.944-16.54-12.149-24.279-2.389-8.167-2.695-16.212-.429-22.93 2.103-6.8 7.228-11.741 12.823-14.702 5.983-2.654 11.557-3.308 17.642-1.511 4.717 1.409 9.352 4.676 11.333 8.311 4.472 7.657 0 14.456-3.9 17.336-4.104 3.001-7.126 3.695-7.004 3.838-1.919.654-2.94 2.757-2.287 4.676.654 1.92 2.757 2.941 4.676 2.287-.061-.224 3.431-.694 9.25-4.41 2.736-2.083 6.269-5.003 8.453-10.067 2.206-4.962 2.308-11.986-.939-18.152-3.328-6.208-9.086-11.027-17.111-13.742-6.677-2.41-16.519-2.43-24.748 1.143-8.269 3.676-16.253 10.802-19.888 20.582-3.839 9.659-3.798 20.746-1.103 30.894 2.859 10.68 7.29 19.562 13.436 29.159.306.449.735.837 1.062 1.286-.756-.184-1.327-.408-2.124-.572-7.555-1.592-16.968-2.47-27.198-.286-10.209 2.022-20.888 8.189-28.178 16.989-3.512 4.125-6.881 9.332-8.841 15.396-1.92 6.044-2.022 13.395.735 19.623 2.613 6.248 7.33 10.924 12.333 13.823 5.064 2.859 10.536 4.268 15.763 4.125 5.207-.143 10.108-1.715 13.824-4.125 3.757-2.368 6.289-5.349 7.902-7.841 1.634-2.511 2.491-4.635 2.981-6.044.49-1.429.756-2.164.756-2.164 1.429-4.39-.98-9.107-5.37-10.536-4.39-1.43-9.107.98-10.516 5.37-.225-.306-1.899 7.494-9.781 7.29-3.941.163-9.474-2.634-11.047-6.922-.837-2.083-.98-4.533-.285-7.535.816-2.981 2.532-6.126 5.063-9.393 4.758-6.207 11.415-10.25 18.643-12.537 7.269-2.205 14.947-2.634 21.624-2.45 6.575.306 12.19 1.143 16.131 1.817 3.328 3.206 6.718 6.371 10.515 9.209 9.659 6.902 20.787 12.129 32.691 15.682 11.966 3.471 24.687 4.533 37.469 4.247 25.687-1.715 50.558-10.046 73.794-23.339 22.094-12.476 43.35-29.996 60.461-49.945 17.438-19.949 31.057-42.553 42.798-65.034 1.144-2.165 2.124-4.288 3.247-6.453.449 3.594 1.225 7.29 2.185 11.067 1.797 8.086 4.737 16.376 8.045 24.462 6.615 16.213 16.008 30.915 23.645 41.369 7.616 10.434 13.803 16.744 13.803 16.744l.061.061a3.577 3.577 0 005.209-4.901s-5.494-6.084-12.478-16.539c-6.901-10.373-15.314-24.891-20.868-40.43-2.797-7.738-5.207-15.62-6.534-23.155-.796-3.736-1.429-7.371-1.654-10.863-.347-3.471-.817-6.738-.694-9.76-.021-3.022-.041-5.799-.061-8.249.04-.49.081-.817.122-1.287 6.35-12.945 12.578-25.687 18.99-37.775 10.944-20.725 22.947-39.633 37.097-54.743 1.58-1.674 3.31-3.104 4.95-4.676-9.09 22.87-8.44 55.662 7.73 93.989 14.81 35.059 11.93 49.842 11.93 49.842 32.51-17.866 5.41-80.165 5.96-113.754.37-22.726 12.13-45.677 19.71-58.153 16.02-5.82 31.69-7.616 44.94-5.125 13.98 2.573 24.93 9.576 32.57 16.662 7.67 7.146 12.51 14.13 15.49 18.969 3.01 4.9 4.09 7.575 4.11 7.575.71 1.756 2.69 2.696 4.53 2.103 1.92-.632 2.98-2.695 2.37-4.614l-.04-.123s-1.08-3.348-3.9-8.862c-2.86-5.513-7.39-13.578-15.62-22.093-8.11-8.453-20.36-17.478-36.86-21.562-16.41-4.33-36.04-2.512-54.92 4.124-4.91 1.634-9.21 3.471-14.48 5.758-4.45 2.206-8.92 4.309-13.85 7.392-4.81 2.92-9.43 6.146-13.92 9.638-15.56 3.37-39.635 5.799-55.725-5.86-25.463-18.418-59.583-35.754-80.716-2.165 7.595-7.575 38.061 6.78 63.523 21.93 15.784 9.393 37.51 8.495 51.783 6.453-4.513 5.166-8.801 10.556-12.803 16.274-.061 0-.082.02-.143.02-4.37.49-11.088 1.082-19.664.694-8.555-.449-19.071-1.388-30.812-4.39-2.94-.694-6.003-1.266-9.107-2.123a1916.452 1916.452 0 01-9.413-3.247c-6.473-2.144-13.272-4.39-19.97-7.902-6.962-3.247-14.211-6.636-21.725-10.148-7.555-3.43-15.355-6.963-23.401-10.618-4.083-1.736-7.963-3.88-12.333-5.33-4.451-1.347-8.943-2.736-13.476-4.124-9.107-2.716-18.357-5.718-27.852-8.31-9.637-1.634-19.439-3.288-29.362-4.963-4.962-.714-9.924-1.96-14.988-2.225-5.084-.204-10.168-.429-15.314-.654-10.25-.143-20.582-1.47-30.935-.653-10.332.837-20.725 1.695-31.098 2.552-5.227.204-10.332 1.082-15.416 2.287l-15.253 3.165c-10.128 2.165-20.358 3.819-29.914 7.657-9.679 3.329-19.296 6.636-28.791 9.883-9.188 4.023-17.907 8.78-26.708 12.986zm352.595 28.096a2256.75 2256.75 0 009.944 3.492c3.288.939 6.575 1.592 9.699 2.368 12.476 3.308 23.829 4.452 33.14 5.003 4.268.225 8.045.225 11.476.102a343.664 343.664 0 00-5.656 9.515c-19.317 10.577-60.951 29.935-101.523 25.953-55.254-5.432-40.083-51.456-13.538-29.26 0 0 20.582 3.777 16.784-9.21-.898-3.062-6.105-8.371-14.089-12.516 10.679 1.572 15.988-4.88 17.989-11.068 5.003 2.39 10.046 4.799 14.804 7.066 6.942 3.757 14.13 6.227 20.97 8.555zm-487.647 44.839C516.685 38.78 591.704 24.262 591.704 24.262s-47.535-35.753-119.43-12.19c-71.896 23.564-95.071 114.163-95.071 114.163s-13.803-21.134-46.31-8.536C298.386 130.298 264 167.256 264 167.256s-5.411-22.746-25.462-31.424c-14.927-6.453-37.898-.572-42.799-21.134-4.063-17.07 9.74-24.911 9.74-24.911.817 12.721 12.456 13.538 22.747 8.657 10.291-4.88 15.702-29.79-11.373-33.589-27.096-3.798-49.843 31.956-42.247 67.158 15.11 70.058 137.624 92.11 247.559-7.555z"/><path d="M268.983 98.037c8.392 3.144 15.927 2.368 22.257.96 12.761-3.084 22.215-9.394 30.689-15.703 8.352-6.412 15.641-13.701 21.746-20.276 2.941-2.94 5.799-5.779 8.576-8.535 3.043-2.553 5.983-5.003 8.821-7.371 11.741-9.087 22.706-15.417 30.466-19.603 3.92-1.94 6.983-3.47 9.086-4.512 2.164-.98 3.308-1.49 3.308-1.49l15.008-6.8-19.235-5.31c-2.471-.55-6.044-1.94-10.761-2.654-4.696-.878-10.454-1.837-17.111-2.144-6.636-.429-14.211-.429-22.379.47-8.208.674-16.866 2.389-26.361 4.88-8.433 2.43-18.397 5.84-27.627 10.434-9.413 4.656-18.887 10.638-27.402 19.051-4.227 4.268-8.27 9.025-11.394 15.11-3.022 6.003-5.676 13.252-4.635 22.257.633 9.025 8.454 18.52 16.948 21.236zm16.029-42.86c5.452-6.452 12.66-12.108 20.296-16.723 7.841-4.717 15.417-8.107 23.85-11.353 7.534-2.614 15.273-4.941 22.501-6.126 7.188-1.43 13.926-2 19.868-2.123 2.593-.102 4.982.183 7.269.286-7.637 3.532-16.968 8.126-27.178 14.64-3.348 2.328-6.86 4.758-10.474 7.27-3.431 2.858-6.984 5.819-10.639 8.861-6.595 5.901-13.17 11.332-20.705 16.13-7.391 4.656-15.743 8.7-23.053 9.618-3.593.552-6.799.041-8.004-.796-1.307-.878-.408-.796-1.164-1.98-1.225-3.084 1.879-11.599 7.433-17.704zm-121.779-1.674c25.993 9.76 47.699-5.84 32.099-20.317-16.662-15.437-64.994-10.169-84.494-20.317-.021 0 26.381 30.874 52.395 40.634zm-54.437 89.374s14.211-31.69-27.627-59.317c0 0-34.12 29.24-2.43 69.873 31.69 40.634 72.304 29.241 86.944 89.783 0 0 19.01-34.488-2.042-67.852-21.542-34.121-54.845-32.487-54.845-32.487z"/><path d="M86.048 190.004c-58.5-37.367-69.057-86.944-41.43-115.368 27.627-28.443 56.867 1.634 56.867 1.634S78.738 36.86 38.921 62.446C6.394 83.356 9.661 149.8 27.14 181.877c20.092 36.918 44.003 38.449 44.003 38.449 1.633 61.216 46.575 57.969 46.575 57.969-35.753 39.532-3.246 70.14-3.246 70.14 91.007-52.008 30.056-121.065-28.424-158.431zm-22.5 98.706c-6.84 0-12.62 4.063-15.396 9.842-3.533-.817-7.596-1.879-11.966-3.369.347-1.327.817-2.593.817-4.023 0-9.045-7.33-16.376-16.376-16.376-5.268 0-9.76 2.655-12.762 6.534-4.329-2.858-8.74-5.84-12.803-9.637-.224-.164-.408-.409-.633-.593.94-1.939 1.552-4.043 1.552-6.33 0-8.147-6.615-14.762-14.763-14.762-1.837 0-3.573.428-5.207 1.041-3.124-4.288-6.207-8.637-8.739-13.354 2.144-2.287 3.512-5.309 3.512-8.699 0-7.024-5.697-12.721-12.72-12.721-.225 0-.41.123-.634.123-1.674-5.023-3.675-9.883-5.084-14.824 3.206-2.042 5.431-5.452 5.431-9.536 0-5.779-4.328-10.373-9.903-11.189-.347-1.838-.796-3.696-1.02-5.514-.43-4.206-.797-7.983-1.206-11.863 3.288-1.613 5.616-4.921 5.616-8.821 0-4.431-2.961-8.045-6.963-9.291-.102-6.534.224-12.231.02-16.6 0-6.779.02-10.659.02-10.659v-.245a2.675 2.675 0 00-2.633-2.675c-1.491-.041-2.696 1.143-2.737 2.614 0 0-.081 3.94-.204 10.822.123 4.41-.286 10.168-.327 16.743-4.002 1.266-6.942 4.88-6.942 9.291 0 4.798 3.492 8.617 8.025 9.515.326 3.88.653 7.861 1 12.068.184 1.776.592 3.614.899 5.431-3.92 1.838-6.677 5.758-6.677 10.373 0 6.167 4.88 11.108 10.985 11.394 1.368 5.125 3.349 10.209 4.982 15.437-3.185 2.307-5.39 5.88-5.39 10.127 0 7.025 5.697 12.722 12.72 12.722.9 0 1.675-.327 2.512-.511 2.655 5.105 5.901 9.883 9.21 14.579-1.961 2.512-3.33 5.513-3.33 8.944 0 8.147 6.617 14.763 14.764 14.763 2.797 0 5.268-1.001 7.494-2.349.285.245.53.572.837.797 4.757 4.574 9.964 8.147 15.008 11.577-.061.552-.327 1.042-.327 1.613 0 9.046 7.33 16.376 16.376 16.376 4.186 0 7.902-1.694 10.802-4.267a124.868 124.868 0 0015.334 4.676c1.042 8.494 8.005 15.151 16.785 15.151 9.495 0 17.193-7.698 17.193-17.193.06-9.454-7.657-17.152-17.152-17.152z"/><path d="M-493.646 51.523l-12.986 6.432c-4.595 2.389-8.086 5.023-12.129 7.493-5.616 3.288-10.863 7.29-16.029 11.313-30.261 18.315-67.607 54.192-76.694 122.187-4.655 34.916 6.187 70.302 35.345 94.662 29.649 24.789 74.223 40.736 114.061 11.619 44.819-32.773 34.508-95.01 7.412-108.711-35.509-17.969-71.507 6.085-75.162 36.958-3.655 30.874 14.211 45.085 14.211 45.085-60.134-19.908-67.035-76.775-60.93-110.099 6.085-33.303 35.754-70.69 66.219-75.958 28.26-4.9 20.521-22.012 17.315-31.282 1.164-.552 2.287-1.103 3.471-1.675 2.287-1.061 4.574-2.205 6.861-3.328-.225 7.984 1.266 22.461 15.416 22.461 19.5 0 38.184-18.275 74.754-29.24 36.571-10.965 58.991 8.392 65.811 7.31 13.476-2.124 15.804-20.664 16.723-32.099 2.899.143 5.819.286 8.698.43.307.02.613.101.94.122-12.252 16.253 2.062 40.674 13.047 35.182 12.19-6.085 54.029-4.472 79.226 9.76.286.163.551.265.837.429-13.374-3.084-30.363-1.491-47.699 12.7-23.829 19.5-29.26 44.412-29.26 44.412-100.196-33.038-153.837 21.133-153.837 21.133 36.305-3.798 63.912 2.165 179.83 18.418 83.371 11.68 135.46-17.193 158.248-34.365-3.022 5.962-6.208 11.863-9.25 17.846-17.887 11.455-60.257 35.978-97.542 37.632 0 0-20.991-15.579-46.453-8.535-25.462 7.045-39.817 16.662-54.845 20.44 88.005 19.561 160.962-16.642 191.734-35.815l-1.103 2.144c-22.256 26.912-39.51 37.979-39.51 37.979-38.449-4.329-72.079 16.989-91.008 33.038-28.709 24.38-53.089 27.627-53.089 27.627 71.507 9.576 130.15-31.2 160.37-58.276-6.615 10.23-13.721 20.113-21.542 29.363-15.926 18.765-34.242 34.365-55.662 46.8-20.112 11.761-43.063 19.725-65.034 21.297-11.026.449-21.93 0-32.16-2.675-10.169-2.736-19.725-6.84-28.076-12.415-8.229-5.737-15.233-12.639-20.971-20.194-5.247-7.514-9.944-16.539-12.149-24.278-2.389-8.168-2.695-16.213-.429-22.931 2.104-6.799 7.229-11.741 12.824-14.701 5.982-2.655 11.557-3.308 17.642-1.511 4.716 1.408 9.351 4.676 11.332 8.31 4.472 7.657 0 14.457-3.9 17.336-4.104 3.001-7.126 3.696-7.004 3.839-1.919.653-2.92 2.756-2.287 4.675a3.673 3.673 0 004.656 2.287c-.061-.224 3.43-.694 9.25-4.41 2.736-2.083 6.268-5.003 8.453-10.067 2.205-4.961 2.308-11.986-.939-18.152-3.328-6.207-9.087-11.026-17.111-13.742-6.677-2.409-16.519-2.43-24.748 1.143-8.27 3.676-16.254 10.802-19.888 20.583-3.839 9.658-3.798 20.745-1.103 30.894 2.859 10.679 7.31 19.561 13.436 29.158.327.449.735.837 1.062 1.286-.756-.183-1.327-.408-2.124-.571-7.555-1.593-16.968-2.471-27.198-.286-10.209 2.021-20.889 8.188-28.178 16.988-3.512 4.125-6.881 9.332-8.842 15.396-1.899 6.044-2.021 13.395.736 19.623 2.613 6.248 7.33 10.924 12.333 13.824 5.064 2.858 10.536 4.267 15.763 4.124 5.207-.143 10.107-1.715 13.824-4.124 3.757-2.369 6.289-5.35 7.902-7.841 1.633-2.512 2.491-4.635 2.981-6.044.49-1.43.756-2.165.756-2.165 1.429-4.39-.981-9.107-5.371-10.536-4.39-1.429-9.106.98-10.515 5.37-.225-.306-1.899 7.494-9.781 7.29-3.941.163-9.475-2.634-11.047-6.922-.837-2.083-.98-4.533-.286-7.535.817-2.981 2.532-6.125 5.064-9.393 4.758-6.207 11.414-10.25 18.643-12.537 7.269-2.205 14.947-2.634 21.624-2.45 6.574.306 12.19 1.143 16.131 1.817 3.328 3.206 6.717 6.371 10.515 9.209 9.658 6.902 20.787 12.129 32.712 15.682 11.965 3.471 24.686 4.533 37.468 4.247 25.687-1.715 50.558-10.046 73.795-23.339 22.093-12.476 43.349-29.995 60.46-49.945 17.458-19.949 31.057-42.553 42.798-65.034 1.144-2.165 2.124-4.288 3.247-6.453.449 3.594 1.225 7.29 2.185 11.068 1.797 8.085 4.737 16.376 8.045 24.461 6.616 16.213 16.008 30.915 23.645 41.369 7.616 10.434 13.803 16.744 13.803 16.744l.062.061a3.584 3.584 0 004.941.143 3.579 3.579 0 00.265-5.043s-5.492-6.085-12.455-16.54c-6.902-10.373-15.314-24.891-20.868-40.429-2.777-7.739-5.207-15.621-6.534-23.155-.797-3.737-1.43-7.372-1.654-10.863-.347-3.472-.817-6.739-.695-9.761-.02-3.022-.06-5.799-.081-8.249.04-.49.081-.817.122-1.286 6.35-12.946 12.578-25.687 18.99-37.775 10.965-20.726 22.95-39.634 37.101-54.744 1.572-1.674 3.308-3.104 4.942-4.676-9.067 22.951-8.433 55.744 7.738 94.05 14.804 35.06 11.905 49.843 11.905 49.843 32.507-17.867 5.431-80.165 5.962-113.754.368-22.727 12.129-45.678 19.704-58.154 16.03-5.82 31.69-7.616 44.942-5.125C74.472 28 85.416 35.004 93.053 42.09c7.677 7.147 12.517 14.13 15.498 18.97 3.001 4.9 4.084 7.575 4.104 7.575a3.686 3.686 0 004.533 2.103c1.919-.633 2.981-2.695 2.369-4.615l-.041-.122s-1.082-3.349-3.9-8.862c-2.859-5.513-7.392-13.579-15.62-22.093-8.107-8.454-20.358-17.48-36.857-21.563-16.417-4.329-36.02-2.511-54.927 4.125-4.9 1.633-9.21 3.471-14.477 5.758-4.452 2.205-8.923 4.308-13.844 7.392-4.82 2.92-9.434 6.146-13.926 9.637-15.56 3.37-39.633 5.8-55.723-5.86-25.463-18.418-59.583-35.754-80.717-2.164 7.576-7.576 38.061 6.779 63.503 21.93 15.764 9.392 37.51 8.494 51.783 6.452-4.513 5.166-8.8 10.557-12.803 16.274-.04 0-.081.02-.143.02-4.349.49-11.087 1.083-19.663.695-8.556-.45-19.072-1.389-30.792-4.39-2.94-.695-6.024-1.266-9.127-2.124a1881.1 1881.1 0 01-9.413-3.247c-6.473-2.144-13.273-4.39-19.97-7.902-6.963-3.246-14.212-6.636-21.746-10.148-7.555-3.43-15.356-6.963-23.401-10.618-4.083-1.735-7.943-3.88-12.333-5.33-4.451-1.347-8.943-2.735-13.476-4.124-9.107-2.716-18.357-5.717-27.852-8.31-9.637-1.634-19.439-3.288-29.362-4.962-4.962-.715-9.924-1.96-14.988-2.226-5.084-.204-10.189-.429-15.314-.653-10.25-.143-20.582-1.47-30.935-.654-10.332.837-20.725 1.695-31.098 2.553-5.207.204-10.332 1.082-15.416 2.287l-15.253 3.165c-10.128 2.164-20.358 3.818-29.914 7.657-9.679 3.328-19.296 6.636-28.791 9.882-9.148 3.962-17.866 8.72-26.667 12.926zm352.595 28.096a2256.75 2256.75 0 009.944 3.492c3.288.94 6.575 1.593 9.699 2.368 12.476 3.308 23.83 4.452 33.14 5.003 4.268.225 8.045.225 11.476.102a343.854 343.854 0 00-5.656 9.515c-19.317 10.577-60.951 29.935-101.524 25.953-55.253-5.431-40.082-51.456-13.537-29.26 0 0 20.582 3.777 16.784-9.21-.898-3.062-6.105-8.371-14.089-12.516 10.679 1.572 15.988-4.88 17.989-11.067 5.003 2.389 10.046 4.798 14.804 7.065 6.942 3.757 14.13 6.228 20.97 8.555z"/></g></g><g clip-path="url(#clip1_404_452)"><path d="M1508.71-360.86c0 8.663 6.46 15.837 14.81 17.013v90.491l-59.5 34.349v68.58l-59.49 34.35v71.46l59.49 34.35v68.7l61.89 35.73 61.89-35.73v-68.7l59.49-34.35v-71.46l-59.49-34.35v-68.591l-59.48-34.349v-90.491c8.35-1.176 14.8-8.339 14.8-17.013 0-9.483-7.72-17.196-17.2-17.196-9.49.01-17.21 7.724-17.21 17.207zm-99.38 313.471v-65.926l57-32.904 57.19 33.012V-47.4l-57.1 32.958-57.09-32.947zm116.59 136.006l-57.09-32.958v-65.926l57.09-32.969 57.09 32.97v65.925l-57.09 32.958zm116.58-201.932v65.926l-57.09 32.958-57.09-32.958v-65.808l57.18-33.011 57 32.893zm-59.49-102.93v65.808l-57.09 32.957-57.09-32.957v-65.808l57.09-32.958 57.09 32.958zm-44.69-144.615c0 6.839-5.57 12.395-12.4 12.395-6.84 0-12.39-5.566-12.39-12.395 0-6.84 5.56-12.396 12.39-12.396 6.83-.011 12.4 5.556 12.4 12.396z" fill="#fff"/><path d="M1418.9-239.569l-10.69 6.17-10.69-6.17h-16.46l23.12 13.345v110.6l-95.95 55.397-95.94-55.397v-110.784l22.78-13.161h-16.13l-14.71 8.501v120.093l99.97 57.728V62.208l104.01 60.046 31.66-18.285v-9.31l-31.66 18.285-95.95-55.397V-53.236l95.95-55.398 31.66 18.286v-9.32l-27.64-15.956v-110.6l23.12-13.345h-16.45z" fill="#fff"/><path d="M1087.5 122.19v80.738l69.92 40.369 69.92-40.369V122.19l-69.92-40.37-69.92 40.37z" fill="#81C0E4"/><path d="M1509.82 94.162l-117.73 67.965.01 135.942 117.72 67.976 117.74-67.976V162.127l-117.74-67.965z" fill="#fff"/><mask id="b" style="mask-type:alpha" maskUnits="userSpaceOnUse" x="1141" y="-93" width="192" height="221"><path d="M1141.67-37.485v110.06l95.32 55.042 95.34-55.041V-37.486l-95.34-55.041-95.32 55.04z" fill="#000"/></mask><g mask="url(#b)"><path d="M1332.33-37.485l-95.34-55.041-95.32 55.04V72.576l95.32 55.042 95.34-55.041V-37.486z" fill="#E30613"/><path d="M1247.57 38.798c0-7.433-6.02-13.452-13.45-13.452s-13.45 6.02-13.45 13.452c0 7.434 6.02 13.453 13.45 13.453 7.42 0 13.45-6.03 13.45-13.453zm6.59 34.338c6.79 0 12.31-5.513 12.31-12.31 0-6.796-5.52-12.298-12.31-12.298-6.8 0-12.31 5.513-12.31 12.299 0 6.796 5.51 12.31 12.31 12.31zm6.86 9.16c0 5.535 4.49 10.012 10.01 10.012 5.53 0 10.01-4.488 10.01-10.012 0-5.534-4.49-10.01-10.01-10.01s-10.01 4.487-10.01 10.01zm19.46 31.189a8.868 8.868 0 100-17.736 8.868 8.868 0 100 17.736zm3.15 20.313c4.26 0 7.72-3.463 7.72-7.724a7.721 7.721 0 00-7.72-7.724c-4.26 0-7.73 3.463-7.73 7.724 0 4.272 3.47 7.724 7.73 7.724z" fill="#C90C0F"/><path d="M1302.98 61.496c-1.14-2.309-2.27-4.596-3.4-6.861-1.26-2.427-2.65-4.272-3.96-6.408-1.73-2.967-3.85-5.75-5.97-8.48-9.68-15.988-28.63-35.72-64.56-40.52-18.45-2.46-37.14 3.269-50.01 18.674-13.1 15.665-21.52 39.215-6.14 60.263 17.31 23.68 50.2 18.232 57.44 3.916 9.49-18.76-3.22-37.78-19.53-39.711-16.31-1.931-23.82 7.508-23.82 7.508 10.52-31.76 40.56-35.417 58.17-32.192 17.6 3.215 37.35 18.89 40.13 34.987 2.59 14.93 11.63 10.842 16.53 9.148.29.615.58 1.208.88 1.834.56 1.208 1.17 2.416 1.76 3.625-4.22-.12-11.87.669-11.87 8.145 0 10.302 9.66 20.173 15.45 39.495 5.8 19.322-4.43 31.167-3.86 34.77 1.12 7.12 10.92 8.35 16.96 8.836-.08 1.532-.15 3.074-.23 4.596-.01.161-.05.323-.06.496-8.59-6.473-21.49 1.089-18.59 6.893 3.21 6.441 2.36 28.546-5.16 41.858-.08.151-.14.292-.22.443 1.63-7.067.78-16.042-6.71-25.201-10.31-12.59-23.47-15.46-23.47-15.46 17.46-52.937-11.16-81.278-11.16-81.278 2 19.182-1.15 33.767-9.73 95.012-6.18 44.048 9.08 71.568 18.15 83.608-3.15-1.608-6.27-3.28-9.43-4.887-6.05-9.451-19.01-31.825-19.88-51.535 0 0 8.23-11.091 4.51-24.543-3.72-13.453-8.8-21.037-10.8-28.977-10.33 46.497 8.8 85.043 18.92 101.3-.37-.194-.75-.388-1.13-.582-14.22-11.759-20.07-20.875-20.07-20.875 2.29-20.325-8.97-38.082-17.45-48.083-12.88-15.168-14.6-28.049-14.6-28.049-5.06 37.78 16.49 68.763 30.79 84.73-5.4-3.495-10.62-7.25-15.51-11.382-9.92-8.414-18.16-18.081-24.73-29.408-6.21-10.626-10.42-22.752-11.25-34.36-.24-5.826 0-11.587 1.41-16.992 1.45-5.372 3.62-10.421 6.56-14.833 3.03-4.348 6.68-8.048 10.67-11.08 3.97-2.772 8.74-5.254 12.83-6.419 4.32-1.262 8.57-1.424 12.11-.226 3.6 1.111 6.21 3.819 7.77 6.775 1.4 3.161 1.75 6.106.8 9.321-.74 2.492-2.47 4.941-4.39 5.987-4.05 2.363-7.64 0-9.16-2.061-1.59-2.168-1.95-3.765-2.03-3.7-.34-1.014-1.45-1.553-2.47-1.208a1.95 1.95 0 00-1.21 2.46c.12-.033.37 1.812 2.33 4.887 1.1 1.445 2.65 3.312 5.32 4.466 2.62 1.154 6.34 1.219 9.59-.496 3.28-1.759 5.83-4.801 7.26-9.041 1.28-3.528 1.29-8.727-.6-13.075-1.94-4.369-5.71-8.587-10.87-10.508-5.11-2.028-10.97-2.006-16.33-.572-5.64 1.511-10.33 3.852-15.4 7.099-.24.162-.45.388-.68.561.09-.399.21-.701.3-1.122.84-3.991 1.31-8.965.15-14.37-1.07-5.394-4.33-11.036-8.98-14.887-2.17-1.856-4.93-3.636-8.13-4.672-3.19-1.014-7.08-1.068-10.37.389-3.3 1.38-5.77 3.873-7.3 6.516-1.51 2.675-2.26 5.566-2.18 8.328.08 2.751.91 5.34 2.18 7.304a13.743 13.743 0 004.14 4.175c1.33.863 2.45 1.316 3.2 1.575.75.259 1.14.399 1.14.399a4.425 4.425 0 005.57-2.837 4.408 4.408 0 00-2.84-5.556c.16-.119-3.96-1.003-3.85-5.168-.09-2.082 1.39-5.005 3.65-5.836 1.1-.442 2.4-.518 3.99-.151 1.57.431 3.23 1.338 4.96 2.675 3.28 2.514 5.41 6.031 6.62 9.85 1.17 3.841 1.39 7.897 1.3 11.425-.17 3.473-.61 6.44-.96 8.522-1.7 1.759-3.37 3.55-4.87 5.556-3.65 5.103-6.41 10.983-8.28 17.272-1.84 6.322-2.4 13.043-2.25 19.796.91 13.572 5.31 26.712 12.33 38.989 6.59 11.672 15.85 22.903 26.39 31.943 10.54 9.224 22.48 16.409 34.36 22.612 1.14.604 2.27 1.122 3.41 1.716-1.9.237-3.85.647-5.85 1.154-4.27.949-8.65 2.503-12.92 4.25-8.57 3.496-16.34 8.458-21.86 12.493-5.51 4.024-8.85 7.293-8.85 7.293l-.03.032a1.896 1.896 0 00-.07 2.611c.7.777 1.88.831 2.66.14 0 0 3.22-2.902 8.74-6.591 5.48-3.647 13.15-8.091 21.36-11.026 4.09-1.478 8.25-2.751 12.23-3.452 1.98-.421 3.9-.755 5.74-.874 1.84-.183 3.56-.431 5.16-.367 1.6-.01 3.06-.021 4.36-.032.26.022.43.043.68.065 6.84 3.355 13.57 6.645 19.96 10.033 10.95 5.793 20.94 12.126 28.92 19.602.88.83 1.64 1.747 2.47 2.611-12.08-4.801-29.41-4.456-49.66 4.088-18.52 7.822-26.33 6.29-26.33 6.29 9.44 17.174 42.35 2.859 60.1 3.15 12.01.194 24.13 6.408 30.72 10.41 3.08 8.469 4.04 16.744 2.71 23.745-1.36 7.39-5.06 13.173-8.8 17.218a48.018 48.018 0 01-10.02 8.188c-2.59 1.586-4.01 2.158-4.01 2.169a1.957 1.957 0 00-1.11 2.395c.34 1.014 1.43 1.575 2.44 1.251l.07-.022s1.76-.571 4.68-2.06c2.91-1.51 7.17-3.905 11.67-8.253 4.47-4.283 9.24-10.756 11.39-19.473 2.29-8.673 1.33-19.041-2.18-29.02-.86-2.589-1.83-4.865-3.04-7.648-1.16-2.352-2.28-4.715-3.9-7.315a77.464 77.464 0 00-5.1-7.357c-1.78-8.221-3.06-20.94 3.1-29.441 9.73-13.453 18.89-31.48 1.14-42.646 4.01 4.003-3.58 20.109-11.58 33.562-4.97 8.329-4.49 19.818-3.41 27.359-2.73-2.384-5.58-4.65-8.6-6.764 0-.022-.01-.043-.01-.076a65.21 65.21 0 01-.37-10.389c.24-4.52.74-10.076 2.32-16.279.37-1.554.67-3.172 1.12-4.812.55-1.607 1.13-3.268 1.72-4.973 1.13-3.42 2.32-7.012 4.17-10.551 1.72-3.679 3.51-7.508 5.37-11.478 1.81-3.992 3.67-8.113 5.61-12.364.91-2.157 2.05-4.207 2.81-6.516.71-2.351 1.45-4.725 2.18-7.12 1.44-4.811 3.02-9.698 4.39-14.715.86-5.092 1.74-10.27 2.62-15.513.38-2.622 1.04-5.243 1.18-7.919.11-2.686.23-5.372.34-8.091.08-5.415.78-10.874.35-16.344-.44-5.459-.9-10.95-1.35-16.43-.11-2.751-.57-5.459-1.21-8.145l-1.67-8.059c-1.14-5.351-2.02-10.756-4.05-15.805-1.75-5.113-3.5-10.194-5.22-15.211-2.12-4.855-4.64-9.472-6.86-14.11zm-14.84 186.279c-.64 1.802-1.25 3.549-1.85 5.254-.49 1.737-.84 3.474-1.25 5.124-1.75 6.592-2.35 12.59-2.64 17.51a69.58 69.58 0 00-.06 6.062 186.852 186.852 0 00-5.02-2.988c-5.59-10.205-15.82-32.202-13.71-53.639 2.85-29.192 27.18-21.177 15.44-7.152 0 0-1.99 10.874 4.87 8.868 1.62-.475 4.42-3.226 6.61-7.444-.83 5.642 2.58 8.447 5.85 9.504-1.26 2.643-2.54 5.308-3.73 7.822-1.97 3.678-3.28 7.465-4.51 11.079zM1264.46-9.856c45.27 49.938 52.94 89.574 52.94 89.574s18.89-25.115 6.44-63.1-60.32-50.23-60.32-50.23 11.17-7.292 4.51-24.467c-6.66-17.175-26.18-35.342-26.18-35.342s12.02-2.86 16.6-13.453c3.41-7.886.3-20.023 11.17-22.612 9.01-2.147 13.16 5.146 13.16 5.146-6.72.431-7.16 6.581-4.58 12.018s15.74 8.296 17.75-6.009c2.01-14.316-16.88-26.334-35.48-22.321-37.02 7.984-48.68 72.702 3.99 130.796zm-97.31 28.189c4.94-14.381 23.4-21.458 23.4-21.458-13.95.432-25.55-.863-39.07 15.449-13.5 16.3 6.79 31.879 15.67 6.009zM1251.02-7.3s-1.73-4.26-5.04-11.597c-3.41-7.282-8.15-17.768-14.67-29.98-6.5-12.223-14.5-26.29-24.74-40.585-5.21-7.099-10.78-14.391-17.97-21.026-3.65-3.28-7.61-6.527-12.94-8.944-2.68-1.154-5.81-2.136-9.47-2.071-3.67.033-7.49 1.327-10.47 3.69-.97.744-1.29 1.089-1.7 1.456-.93.928-1.45 1.564-2.08 2.46a15.222 15.222 0 00-2.35 5.664c-.76 3.905-.1 7.163.68 9.968 1.68 5.599 4.29 9.882 6.94 13.97 5.39 8.07 11.58 14.78 17.63 21.135 12.21 12.578 24.5 23.086 35.26 31.781 10.71 8.739 20.11 15.395 26.59 20.142 6.55 4.682 10.44 7.174 10.44 7.174l6.99 4.477-3.1-7.713zm-34.26-31.717c-9.87-9.385-21.32-20.41-32.6-32.85-5.6-6.203-11.1-12.891-15.71-19.828-2.22-3.442-4.23-7.11-5.1-10.281-.44-1.543-.54-2.945-.35-3.539.07-.313.16-.453.25-.615.03-.032.26-.259.12-.162.42-.409.92-.863.89-.787 1.22-.939 2.8-1.219 6.01.086 3.02 1.306 6.3 3.733 9.33 6.452 6.1 5.523 11.74 12.082 16.84 18.663 10.23 13.237 18.87 26.582 26.19 38.05 5.85 9.3 10.82 17.434 14.67 23.83-5.52-5.026-12.52-11.51-20.54-19.019z" fill="#C90C0F"/></g><mask id="c" style="mask-type:alpha" maskUnits="userSpaceOnUse" x="1248" y="77" width="192" height="224"><path d="M1248.33 132.945V244.57l96.66 55.828 94.89-54.782V131.909l-94.89-54.782-96.66 55.818z" fill="#000"/></mask><g mask="url(#c)"><path d="M1248.33 132.945V244.57l96.66 55.828 94.89-54.782V131.909l-94.89-54.782-96.66 55.818z" fill="#0081C9"/><path d="M1267.22 98.412c-11.63-8.447-17.25 8.458-6.26 21.296 7.99 9.332 11.7 11.899 11.7 11.899s6.19-24.758-5.44-33.195zm129.92-18.307c3.64 0 6.58-2.945 6.58-6.58a6.576 6.576 0 00-6.58-6.582 6.582 6.582 0 00-6.58 6.581c0 3.625 2.95 6.58 6.58 6.58zm-64.96 113.038s-52.66-12.881-66.4-59.529c-10.88 19.743 0 37.209 0 37.209-8.58 3.97-13.77 24.802 3.43 31.771 0 0-10.01 5.728-7.45 21.468 2.58 15.74 18.32 20.605 18.32 20.605s2.87-42.936 52.1-51.524z" fill="#0069B4"/><path d="M1416.79-9.092c-1.14-2.308-2.28-4.595-3.4-6.861-1.26-2.427-2.65-4.272-3.96-6.408-1.74-2.967-3.85-5.75-5.98-8.48-9.67-15.988-28.63-35.72-64.55-40.52-18.45-2.46-37.15 3.269-50.02 18.674-13.09 15.665-21.52 39.215-6.13 60.263 17.31 23.68 50.19 18.232 57.43 3.916 9.5-18.76-3.21-37.78-19.52-39.711-16.32-1.931-23.82 7.508-23.82 7.508 10.51-31.76 40.56-35.417 58.16-32.191 17.61 3.215 37.35 18.89 40.14 34.986 2.59 14.93 11.63 10.842 16.52 9.148.3.615.59 1.208.89 1.834.56 1.208 1.16 2.416 1.76 3.625-4.22-.119-11.87.669-11.87 8.145 0 10.303 9.66 20.174 15.45 39.495 5.79 19.322-4.43 31.167-3.86 34.77 1.12 7.12 10.91 8.35 16.96 8.836-.08 1.532-.16 3.075-.23 4.596-.01.162-.05.323-.07.496-8.58-6.473-21.49 1.1-18.58 6.894 3.21 6.44 2.36 28.545-5.16 41.858-.09.151-.14.291-.23.442 1.63-7.066.79-16.042-6.71-25.201-10.3-12.59-23.46-15.46-23.46-15.46 17.45-52.937-11.17-81.278-11.17-81.278 2.01 19.182-1.14 33.767-9.73 95.012-6.17 44.048 9.09 71.568 18.16 83.608-3.15-1.597-6.27-3.28-9.43-4.887-6.05-9.451-19.01-31.825-19.88-51.535 0 0 8.23-11.09 4.51-24.543-3.73-13.453-8.81-21.037-10.8-28.977-10.34 46.497 8.8 85.043 18.92 101.301-.38-.195-.75-.389-1.13-.583-14.22-11.759-20.07-20.875-20.07-20.875 2.29-20.325-8.97-38.082-17.45-48.083-12.88-15.168-14.6-28.05-14.6-28.05-5.06 37.781 16.48 68.765 30.79 84.731-5.41-3.495-10.63-7.25-15.51-11.381-9.92-8.415-18.16-18.081-24.73-29.409-6.21-10.626-10.42-22.752-11.25-34.36-.24-5.826 0-11.587 1.41-16.992 1.45-5.372 3.61-10.42 6.56-14.833 3.03-4.348 6.68-8.048 10.67-11.08 3.97-2.772 8.74-5.254 12.83-6.419 4.31-1.262 8.56-1.424 12.11-.226 3.59 1.111 6.2 3.819 7.77 6.775 1.4 3.16 1.75 6.106.8 9.32-.75 2.493-2.47 4.942-4.39 5.988-4.05 2.363-7.64 0-9.16-2.06-1.59-2.169-1.96-3.766-2.03-3.7a1.951 1.951 0 00-2.47-1.209 1.949 1.949 0 00-1.21 2.47c.12-.032.37 1.813 2.33 4.887 1.1 1.446 2.64 3.313 5.32 4.467 2.62 1.165 6.33 1.219 9.59-.497 3.28-1.758 5.83-4.8 7.26-9.04 1.27-3.528 1.28-8.727-.6-13.075-1.95-4.37-5.71-8.588-10.88-10.508-5.1-2.028-10.96-2.006-16.32-.572-5.64 1.51-10.34 3.852-15.41 7.099-.23.162-.44.388-.68.561.1-.4.22-.701.31-1.122.84-3.992 1.3-8.965.15-14.37-1.07-5.394-4.33-11.036-8.98-14.887-2.18-1.856-4.93-3.636-8.13-4.672-3.2-1.014-7.08-1.068-10.37.389-3.3 1.38-5.77 3.873-7.3 6.516-1.51 2.675-2.26 5.566-2.18 8.328.07 2.751.9 5.34 2.18 7.304a13.636 13.636 0 004.14 4.175c1.33.863 2.45 1.316 3.19 1.575.76.259 1.15.399 1.15.399a4.41 4.41 0 005.56-2.837 4.403 4.403 0 00-2.83-5.556c.16-.119-3.96-1.004-3.86-5.168-.08-2.082 1.4-5.005 3.66-5.836 1.1-.442 2.4-.518 3.98-.151 1.58.431 3.24 1.338 4.96 2.675 3.28 2.514 5.42 6.03 6.63 9.85 1.16 3.84 1.39 7.897 1.29 11.425-.16 3.473-.6 6.44-.96 8.522-1.69 1.759-3.36 3.55-4.86 5.556-3.65 5.103-6.41 10.982-8.29 17.272-1.83 6.322-2.39 13.043-2.24 19.796.9 13.572 5.31 26.712 12.33 38.978 6.59 11.673 15.85 22.903 26.39 31.943 10.54 9.224 22.48 16.409 34.36 22.612 1.14.605 2.26 1.122 3.41 1.716-1.9.237-3.86.647-5.85 1.154-4.27.949-8.65 2.503-12.93 4.251-8.56 3.495-16.33 8.458-21.85 12.492-5.51 4.024-8.85 7.293-8.85 7.293l-.03.032a1.896 1.896 0 00-.08 2.611c.7.777 1.89.831 2.67.14 0 0 3.21-2.902 8.74-6.591 5.48-3.647 13.15-8.091 21.36-11.026 4.09-1.478 8.25-2.751 12.23-3.452 1.98-.421 3.9-.755 5.74-.874 1.83-.183 3.56-.431 5.16-.366 1.59-.011 3.06-.033 4.36-.044.25.022.43.044.68.065 6.83 3.355 13.57 6.646 19.95 10.033 10.95 5.793 20.94 12.126 28.93 19.602.88.831 1.64 1.748 2.47 2.611-12.09-4.801-29.41-4.456-49.66 4.089-18.52 7.821-26.33 6.289-26.33 6.289 9.43 17.175 42.35 2.859 60.1 3.15 12 .194 24.13 6.408 30.72 10.411 3.08 8.468 4.04 16.743 2.71 23.745-1.36 7.389-5.06 13.172-8.8 17.207a47.77 47.77 0 01-10.03 8.188c-2.59 1.586-4 2.157-4 2.168a1.948 1.948 0 00-1.11 2.395 1.948 1.948 0 002.44 1.252l.06-.022s1.77-.572 4.68-2.06c2.92-1.511 7.18-3.917 11.68-8.253 4.46-4.283 9.23-10.756 11.39-19.473 2.29-8.674 1.33-19.03-2.18-29.02-.86-2.589-1.83-4.866-3.04-7.649-1.17-2.352-2.28-4.714-3.91-7.314a75.698 75.698 0 00-5.09-7.358c-1.78-8.22-3.06-20.94 3.1-29.441 9.73-13.453 18.89-31.479 1.14-42.645 4 4.002-3.58 20.109-11.59 33.562-4.96 8.328-4.48 19.817-3.41 27.358a100.457 100.457 0 00-8.59-6.764c0-.021-.01-.043-.01-.075a64.027 64.027 0 01-.37-10.389c.24-4.52.73-10.076 2.32-16.28.37-1.553.67-3.171 1.12-4.811.55-1.608 1.12-3.269 1.72-4.973 1.13-3.42 2.32-7.013 4.17-10.551 1.72-3.679 3.51-7.509 5.36-11.479l5.61-12.363c.92-2.158 2.05-4.207 2.82-6.516.71-2.352 1.44-4.725 2.18-7.12 1.43-4.812 3.02-9.699 4.39-14.705.86-5.092 1.73-10.27 2.62-15.513.38-2.621 1.04-5.243 1.18-7.918.1-2.687.22-5.373.34-8.091.08-5.416.78-10.875.35-16.334-.45-5.458-.9-10.95-1.35-16.43-.11-2.751-.57-5.459-1.21-8.145l-1.67-8.059c-1.15-5.35-2.02-10.756-4.05-15.804-1.76-5.114-3.5-10.195-5.22-15.212-2.13-4.854-4.64-9.472-6.86-14.11zm-14.85 186.279c-.63 1.802-1.25 3.55-1.84 5.254-.5 1.737-.84 3.474-1.25 5.124-1.75 6.592-2.35 12.59-2.65 17.51-.11 2.254-.11 4.25-.05 6.063a170.702 170.702 0 00-5.03-2.989c-5.58-10.205-15.81-32.202-13.71-53.638 2.86-29.193 27.19-21.178 15.45-7.153 0 0-2 10.874 4.87 8.868 1.61-.475 4.42-3.226 6.61-7.444-.83 5.642 2.58 8.447 5.85 9.504-1.27 2.644-2.54 5.308-3.74 7.822-1.97 3.679-3.28 7.465-4.51 11.079z" fill="#0069B4"/></g><path d="M1163.96 133.245h-17.41v20.249h17.41v17.391h20.23v-17.391h17.41v-20.249h-17.41v-17.401h-20.23v17.401z" fill="#fff"/><path d="M1366.35 26.876h-17.4v20.238h17.4v17.402h20.24V47.114h17.4V26.875h-17.4v-17.4h-20.24v17.4z" fill="#C90C0F"/><path d="M659.901 323.868v-80.912l70.073-40.457 70.072 40.457v80.912l-70.072 40.456-70.073-40.456zM586.89 197.393V116.48l69.952-40.383 70.193 40.528v80.768l-70.073 40.456-70.072-40.456zm146.034 0v-80.768l70.193-40.528 69.953 40.383v80.913l-70.073 40.456-70.073-40.456zM659.901 70.93V-9.838l70.073-40.456 70.072 40.456v80.767l-70.072 40.457-70.073-40.456zm70.362-127.86l-76.252 43.683V70.93L581 113.084v87.705l73.011 42.154v84.321l75.963 43.853 75.962-43.853v-84.321l73.011-42.154v-87.705L805.936 70.93v-84.177L730.263-56.93z" fill="#fff"/><mask id="d" style="mask-type:alpha" maskUnits="userSpaceOnUse" x="674" y="-35" width="113" height="130"><path d="M674.631-1.926v64.364l55.74 32.182 55.728-32.182V-1.926l-55.728-32.181-55.74 32.181z" fill="#000"/></mask><g mask="url(#d)"><path d="M674.631-1.926v64.364l55.74 32.182 55.728-32.182V-1.926l-55.728-32.181-55.74 32.181z" fill="#fff"/><path d="M778.873 42.938c7.865-4.13 2.578-14.103-10.623-11.43-13.332 2.698-23.185 3.048-23.185 3.048s23.45 13.814 33.808 8.382zM689.518 3.12c1.951 4.155 6.901 5.95 11.056 4.01 4.156-1.95 5.95-6.9 4.011-11.056-1.951-4.155-6.901-5.95-11.056-3.998a8.292 8.292 0 00-4.011 11.044zm-12.695-17.5a7.606 7.606 0 00-3.661 10.117 7.607 7.607 0 0010.117 3.661 7.606 7.606 0 003.661-10.117c-1.782-3.793-6.311-5.444-10.117-3.661z" fill="#EDEDED"/><path d="M652.542 4.939c1.241 1 2.481 1.975 3.698 2.95 1.349 1.024 2.601 1.699 3.89 2.554 1.746 1.204 3.661 2.204 5.564 3.18 9.612 6.419 25.389 12.49 46.768 5.769 10.972-3.457 19.933-11.563 23.1-23.559 3.228-12.2 1.771-27.593-12.357-35.35-15.898-8.72-32.88 2.952-33.182 12.864-.397 12.995 11.707 20.306 21.343 17.115 9.635-3.192 11.369-10.455 11.369-10.455 2.433 20.535-13.429 30.46-24.124 33.266-10.695 2.806-25.859-.783-31.64-9.07-5.36-7.683-9.358-3.022-11.647-.794l-.975-.795c-.626-.53-1.289-1.048-1.939-1.566 2.396-1.035 6.467-3.48 4.504-7.672-2.698-5.769-10.695-8.768-19.005-18.054-8.311-9.298-5.685-18.608-6.95-20.475-2.493-3.697-8.298-1.819-11.815-.506-.361-.879-.723-1.758-1.072-2.637-.036-.097-.06-.193-.096-.29 6.503 1.374 11.743-6.25 8.599-8.731-3.493-2.758-8.804-15.369-8.081-24.787.012-.109 0-.205.012-.313.939 4.384 3.769 9.19 10.37 12.345 9.069 4.348 17.186 2.505 17.186 2.505 4.095 34.217 27.557 42.576 27.557 42.576-6.142-10.213-8.214-19.21-19.451-55.74-8.081-26.28-23.847-37.686-32.073-42.046 2.18.072 4.36.193 6.564.265 5.865 3.709 18.981 12.839 24.642 23.642 0 0-1.698 8.371 3.902 14.923 5.613 6.552 10.443 9.467 13.646 13.393-6.407-28.737-27.219-45.31-37.144-51.753l.795.036c11.045 2.854 16.705 6.419 16.705 6.419 4.047 11.972 15.007 18.97 22.378 22.342 11.189 5.119 15.525 11.876 15.525 11.876-7.07-22.475-27.256-34.17-39.444-39.361 3.95.542 7.852 1.277 11.67 2.313 7.757 2.108 14.911 5.372 21.559 9.984 6.263 4.312 11.792 10.01 15.308 16.284 1.662 3.192 3.036 6.492 3.662 9.888.602 3.385.71 6.781.217 10.021a30.54 30.54 0 01-3.072 8.997c-1.493 2.59-3.517 5.227-5.504 6.961-2.083 1.831-4.42 3.035-6.72 3.3-2.301.326-4.481-.517-6.119-1.758-1.614-1.41-2.577-2.963-2.89-5.01-.241-1.59.084-3.409.891-4.505 1.65-2.385 4.276-2 5.673-1.24 1.457.795 2.083 1.602 2.107 1.541a1.19 1.19 0 001.699.024 1.19 1.19 0 00.024-1.698c-.061.048-.687-.927-2.59-2.132-.987-.517-2.348-1.156-4.143-1.108-1.77.036-3.866.976-5.239 2.795-1.373 1.842-2 4.215-1.686 6.961.216 2.313 1.565 5.215 3.769 7.166 2.229 1.94 5.444 3.312 8.841 3.035 3.384-.204 6.66-1.746 9.286-3.95 2.77-2.325 4.769-4.866 6.769-8.01.084-.156.144-.337.228-.493.061.253.061.445.133.71.578 2.457 1.614 5.36 3.685 8.082 2.012 2.746 5.312 5.047 8.925 5.986 1.71.47 3.71.747 5.781.482 2.06-.277 4.24-1.265 5.709-2.94 1.494-1.637 2.216-3.685 2.385-5.564.144-1.89-.193-3.709-.964-5.227-.758-1.517-1.903-2.746-3.131-3.517a8.55 8.55 0 00-3.409-1.252 9.297 9.297 0 00-2.204-.048c-.481.048-.746.084-.746.084-1.494.18-2.554 1.554-2.373 3.047a2.743 2.743 0 003.047 2.373c-.06.108 2.481-.482 3.505 1.89.59 1.145.53 3.168-.518 4.228-.506.542-1.204.916-2.192 1.133-.988.168-2.156.096-3.481-.193-2.493-.542-4.613-1.951-6.287-3.782-1.662-1.843-2.854-4.059-3.721-6.058a43.472 43.472 0 01-1.699-5.023c.482-1.42.952-2.866 1.265-4.384.711-3.818.711-7.828.108-11.851-.626-4.023-2.071-7.925-3.938-11.67-4.059-7.36-9.973-13.563-17.127-18.597-6.744-4.806-14.874-8.672-23.148-10.96-8.311-2.397-16.886-3.3-25.173-3.661-.795-.037-1.565-.037-2.36-.061.999-.626 1.987-1.373 2.975-2.18 2.143-1.65 4.191-3.673 6.118-5.769 3.878-4.203 6.925-9.021 8.961-12.718 2.035-3.698 3.035-6.408 3.035-6.408l.012-.024a1.166 1.166 0 00-2.168-.855s-1.048 2.469-3.168 5.974c-2.107 3.481-5.239 7.973-9.069 11.767-1.903 1.903-3.902 3.697-5.938 5.131-.999.746-1.987 1.445-2.986 1.999-.976.578-1.879 1.168-2.795 1.554-.891.421-1.71.819-2.433 1.168a3.87 3.87 0 00-.397.144c-4.709-.084-9.334-.168-13.803-.385-7.648-.373-14.91-1.301-21.33-3.396-.71-.241-1.373-.542-2.071-.819 8.021-.482 17.632-5.215 26.726-15.296 8.322-9.238 13.092-10.431 13.092-10.431-9.792-7.142-24.462 9.503-34.471 13.984-6.769 3.035-15.187 2.734-19.933 2.228-3.938-3.939-6.648-8.323-7.732-12.586-1.168-4.493-.626-8.696.422-11.948a29.244 29.244 0 013.468-7.202c1.036-1.566 1.674-2.265 1.674-2.265a1.202 1.202 0 000-1.626 1.212 1.212 0 00-1.698-.06l-.036.024s-.843.783-2.084 2.385c-1.228 1.614-2.987 4.071-4.372 7.684-1.373 3.565-2.348 8.443-1.276 13.887.999 5.456 4.251 11.008 8.828 15.681 1.156 1.217 2.3 2.241 3.71 3.481 1.264 1.012 2.505 2.048 4.107 3.071a45.894 45.894 0 004.781 2.783c3.144 4.131 7.203 10.924 5.986 17.295-1.927 10.081-2.324 22.57 10.539 24.172-3.3-1.192-3.264-12.2-2.313-21.824.59-5.961-2.686-12.272-5.263-16.211 2.156.614 4.348 1.144 6.588 1.53.012.012.012.024.024.036a39.929 39.929 0 012.927 5.721c1.06 2.589 2.228 5.829 2.963 9.719.204.964.457 1.952.638 2.987.108 1.048.229 2.132.349 3.228.265 2.204.542 4.54.434 6.998 0 2.517 0 5.13.012 7.828.036 2.71.072 5.505.096 8.395.061 1.445-.048 2.89.133 4.384.217 1.506.433 3.023.65 4.553.458 3.071.855 6.227 1.397 9.382.855 3.072 1.723 6.203 2.602 9.37.482 1.566.795 3.204 1.421 4.746.638 1.53 1.289 3.071 1.927 4.613 1.373 3.047 2.421 6.287 4.083 9.238 1.686 2.938 3.372 5.89 5.059 8.84.782 1.518 1.746 2.915 2.806 4.24l3.047 4.07c2.047 2.698 3.95 5.493 6.407 7.781 2.325 2.409 4.637 4.794 6.914 7.142 2.409 2.192 5.034 4.12 7.491 6.13zm-40.516-108.181c-.121-1.168-.229-2.312-.337-3.42-.181-1.108-.434-2.168-.639-3.204-.746-4.143-1.975-7.66-3.107-10.49a42.839 42.839 0 00-1.554-3.409c1.193.133 2.397.253 3.601.362 5.806 4.251 17.296 13.886 21.74 26.436 6.046 17.091-9.671 18.982-6.781 8.058 0 0-1.734-6.612-5.046-3.686-.783.687-1.626 2.963-1.747 5.902-1.011-3.372-3.661-4.059-5.769-3.782l.036-5.36c.121-2.601-.144-5.058-.397-7.407zm80.791 138.027c-38.432-16.091-53.114-36.277-53.114-36.277s-3.987 19.005 12.935 37.011c16.922 18.006 46.936 12.31 46.936 12.31s-4.336 7.01 3.89 14.874c8.226 7.865 23.92 12.923 23.92 12.923s-5.974 4.758-5.769 11.888c.156 5.311 5.082 11.285-.325 15.585-4.481 3.565-8.72.566-8.72.566 3.649-1.999 2.276-5.565-.59-7.925-2.867-2.373-10.985-.518-8.359 8.009 2.626 8.539 16.356 10.31 25.714 3.192 18.62-14.14 8.19-53.428-36.518-72.156zm24.367-6.709c1.397.662 3.119 1.433 5.178 2.072a41.75 41.75 0 007.034 1.686c2.626.457 5.48.626 8.624.626 2.866-.072 6.239-.325 9.503-1 3.312-.686 6.732-1.77 10.032-3.673 1.638-.964 3.264-2.108 4.685-3.685 1.398-1.566 2.747-3.53 3.132-6.227.494-2.698-.988-5.998-3.24-7.468-2.192-1.577-4.492-1.975-6.528-2.071-4.107-.133-7.576 1-10.743 2.24-3.144 1.277-6.022 2.903-8.515 4.444-1.193.675-2.361 1.325-3.493 1.963-1.192.542-2.349 1.06-3.457 1.566-4.528 1.843-8.563 2.879-11.369 3.517-2.843.602-4.457.807-4.457.807l-4.589.59 5.047 2.915c.747.373 1.746 1.096 3.156 1.698zm13.73-5.48c1.24-.458 2.529-.927 3.878-1.421 1.301-.614 2.662-1.253 4.047-1.903 2.565-1.325 5.143-2.53 7.961-3.445 2.77-.879 5.793-1.505 8.359-1.192 1.264.132 2.372.554 2.878 1.048.542.494.446.746.518 1.42 0 1.518-1.891 3.963-4.264 5.457-2.372 1.614-5.191 2.77-8.045 3.565-2.915.807-5.661 1.216-8.588 1.506-2.661.168-5.311.216-7.72-.037a37.69 37.69 0 01-6.504-1.084c-1.481-.349-2.734-.819-3.854-1.24 2.915-.47 6.817-1.205 11.334-2.674zm8.984-29.099c1 9.347-7.467 18.15-7.467 18.15 7.696-3.901 14.525-6.214 17.813-18.884 3.3-12.67-12.153-16.067-10.346.734z" fill="#EDEDED"/><path d="M751.075 82.178c-5.095-14.067-12.008-19.319-21.065-22.751 0 0 9.478 12.465 9.382 23.281-.156 19.487 16.778 13.514 11.683-.53zm12.237-.121c-4.914-9.72-10.37-12.923-17.223-14.621 0 0 7.949 8.19 8.816 16.03 1.59 14.104 13.309 8.31 8.407-1.409zm-63.641-52.223s2.083 1.94 5.865 5.167c3.818 3.18 9.226 7.817 16.067 12.935 6.841 5.143 15.007 10.924 24.486 16.236 4.781 2.601 9.803 5.227 15.573 7.058 2.902.879 5.961 1.662 9.587 1.614 1.806-.049 3.818-.326 5.841-1.325a10.728 10.728 0 004.89-4.806c.349-.674.434-.94.578-1.265.277-.758.398-1.252.518-1.927a9.524 9.524 0 00-.169-3.794c-.602-2.384-1.83-4.034-2.999-5.407-2.408-2.698-4.986-4.409-7.551-5.998-5.131-3.108-10.358-5.24-15.405-7.215-10.129-3.842-19.764-6.504-28.062-8.551-8.287-2.084-15.296-3.348-20.174-4.312-4.89-.903-7.733-1.277-7.733-1.277l-5.094-.674 3.782 3.54zm27.484 8.78c7.985 2.674 17.296 5.842 26.859 9.852 4.757 2 9.599 4.312 13.995 6.986 2.144 1.337 4.227 2.866 5.552 4.42.651.747 1.072 1.505 1.132 1.89.048.194.024.302.012.41 0 .025-.072.217-.024.12-.132.338-.289.724-.289.675-.433.843-1.252 1.421-3.384 1.53-2.036.06-4.505-.434-6.914-1.168-4.865-1.494-9.731-3.686-14.32-6.035-9.202-4.733-17.536-9.936-24.642-14.428a849.031 849.031 0 01-14.453-9.503c4.408 1.349 10.021 3.143 16.476 5.251z" fill="#EDEDED"/></g><mask id="e" style="mask-type:alpha" maskUnits="userSpaceOnUse" x="852" y="-67" width="216" height="250"><path d="M852.062-4.672v120.526l107.922 66.379 107.916-66.379.02-120.526L959.978-67 852.062-4.672z" fill="#fff"/></mask><g mask="url(#e)"><path d="M852.062-4.672v120.526H1067.9l.02-120.526L959.978-67 852.062-4.672z" fill="#fff"/><path d="M852.062 118.848V-1.678H1067.9l.02 120.526-107.942 62.328-107.916-62.328z" fill="#fff"/><path d="M1030.63 134.041c-5.76 15.332 3.44 28.135 11.98 18.933 9.11-9.828 6-38.336 11.99-49.838 0-.012-18.21 15.561-23.97 30.905zm-52.719-32.11s18.693 8.382 34.989-16.296c0 0-17.248-20.126-41.215-1.433-23.968 18.692-17.248 42.648-52.958 51.284 0 0 20.342 11.213 40.022-1.205 20.126-12.706 19.162-32.35 19.162-32.35zM873.754 50.96c6.034-12.321 7.034-17.247 7.034-17.247s-25.244.638-28.761 16.295c-3.505 15.646 13.429 17.886 21.727.952z" fill="#EDEDED"/><path d="M950.114 88.502c22.041-34.507 51.286-40.733 68.046-24.438 16.77 16.296-.96 33.543-.96 33.543s23.25-13.417 8.15-36.903c-12.33-19.186-51.521-17.247-70.442-6.95-21.776 11.852-22.679 25.956-22.679 25.956-36.108.963-34.193 27.472-34.193 27.472-23.318-21.09-41.372-1.915-41.372-1.915 30.676 53.693 71.41 17.741 93.45-16.765zm-58.221-13.26c0-4.023-2.397-7.443-5.805-9.081a71.67 71.67 0 011.987-7.058c.783.205 1.53.482 2.373.482a9.658 9.658 0 009.659-9.66c0-3.107-1.566-5.757-3.854-7.527 1.686-2.554 3.445-5.167 5.685-7.564.096-.132.241-.24.349-.373 1.144.554 2.385.915 3.734.915 4.805 0 8.708-3.902 8.708-8.708 0-1.084-.253-2.107-.615-3.071 2.53-1.843 5.095-3.65 7.877-5.155 1.349 1.265 3.132 2.072 5.131 2.072a7.504 7.504 0 007.503-7.504c0-.132-.072-.24-.072-.373 2.963-.988 5.83-2.168 8.744-3 1.205 1.892 3.216 3.217 5.625 3.217 3.408 0 6.118-2.554 6.6-5.842 1.084-.217 2.18-.47 3.252-.602 2.481-.253 4.709-.47 6.997-.71.952 1.939 2.903 3.312 5.204 3.312 2.613 0 4.745-1.747 5.48-4.12 3.854-.06 7.214.133 9.791.013 3.999 0 6.288.012 6.288.012h.144c.855 0 1.566-.687 1.578-1.554a1.584 1.584 0 00-1.542-1.614s-2.324-.048-6.383-.12c-2.602.072-5.998-.17-9.876-.181-.747-2.36-2.879-4.107-5.48-4.107-2.831 0-5.083 2.06-5.613 4.733-2.288.193-4.637.386-7.118.59-1.048.109-2.132.35-3.204.53-1.084-2.312-3.396-3.938-6.118-3.938-3.638 0-6.552 2.878-6.721 6.48-3.023.819-6.022 1.975-9.105 2.938-1.361-1.879-3.469-3.18-5.974-3.18a7.505 7.505 0 00-7.504 7.504c0 .53.193.988.302 1.482-3.011 1.565-5.83 3.48-8.6 5.431-1.481-1.156-3.252-1.963-5.275-1.963-4.806 0-8.708 3.902-8.708 8.708 0 1.65.59 3.108 1.385 4.42-.145.169-.337.314-.47.494-2.698 2.806-4.805 5.878-6.829 8.853-.325-.037-.614-.193-.951-.193a9.659 9.659 0 00-9.66 9.66c0 2.468 1 4.672 2.518 6.37a74.344 74.344 0 00-2.759 9.046c-5.01.626-8.936 4.721-8.936 9.9 0 5.6 4.54 10.141 10.141 10.141 5.576.036 10.117-4.504 10.117-10.105zm45.442-102.87s-58.787-14.38-74.131-66.459c-12.141 22.04 0 41.528 0 41.528-9.575 4.432-15.368 27.69 3.83 35.47 0 0-11.177 6.395-8.311 23.968 2.879 17.572 20.451 23.004 20.451 23.004s3.204-47.935 58.161-57.51z" fill="#EDEDED"/><path d="M1031.8-253.418c-1.28-2.578-2.54-5.131-3.8-7.66-1.41-2.71-2.96-4.77-4.42-7.155-1.94-3.312-4.3-6.407-6.67-9.454-10.8-17.85-31.964-39.878-72.071-45.238-20.596-2.746-41.468 3.649-55.837 20.848-14.621 17.488-24.028 43.781-6.853 67.279 19.331 26.437 56.042 20.354 64.123 4.372 10.599-20.945-3.589-42.179-21.8-44.335-18.21-2.155-26.593 8.383-26.593 8.383 11.743-35.47 45.286-39.541 64.942-35.939 19.644 3.589 41.699 21.089 44.799 39.059 2.9 16.669 12.99 12.104 18.46 10.213.32.686.65 1.349.98 2.047.63 1.349 1.3 2.698 1.97 4.047-4.71-.132-13.25.747-13.25 9.094 0 11.502 10.78 22.522 17.25 44.093 6.46 21.571-4.95 34.796-4.32 38.818 1.26 7.949 12.19 9.322 18.94 9.864-.09 1.711-.17 3.433-.26 5.131-.01.181-.06.361-.07.554-9.58-7.226-23.99 1.229-20.75 7.696 3.59 7.191 2.64 31.87-5.76 46.731-.09.181-.15.326-.25.494 1.82-7.889.88-17.909-7.49-28.135-11.5-14.055-26.197-17.259-26.197-17.259 19.487-59.1-12.466-90.74-12.466-90.74 2.24 21.402-1.276 37.698-10.864 106.072-6.889 49.176 10.142 79.9 20.271 93.342-3.517-1.782-6.998-3.661-10.527-5.456-6.757-10.55-21.222-35.53-22.197-57.535 0 0 9.189-12.381 5.034-27.4-4.155-15.019-9.828-23.486-12.056-32.35-11.538 51.91 9.816 94.943 21.125 113.094-.421-.217-.843-.434-1.264-.663-15.874-13.128-22.402-23.305-22.402-23.305 2.553-22.691-10.021-42.516-19.488-53.681-14.38-16.934-16.295-31.314-16.295-31.314-5.649 42.178 18.403 76.769 34.374 94.594-6.034-3.902-11.864-8.093-17.32-12.706-11.068-9.395-20.27-20.186-27.605-32.833-6.937-11.863-11.634-25.401-12.562-38.36-.265-6.504 0-12.935 1.578-18.97 1.614-5.998 4.035-11.634 7.323-16.56 3.384-4.854 7.455-8.985 11.911-12.37 4.433-3.095 9.756-5.865 14.321-7.166 4.817-1.409 9.563-1.59 13.525-.253 4.011 1.241 6.926 4.264 8.672 7.564 1.566 3.529 1.951 6.817.891 10.406-.831 2.782-2.758 5.516-4.902 6.685-4.516 2.637-8.527 0-10.225-2.301-1.771-2.421-2.18-4.203-2.264-4.131a2.176 2.176 0 00-2.758-1.349 2.174 2.174 0 00-1.349 2.758c.132-.036.409 2.024 2.601 5.456 1.229 1.614 2.951 3.698 5.938 4.986 2.927 1.301 7.07 1.361 10.707-.554 3.661-1.963 6.504-5.359 8.106-10.093 1.421-3.938 1.433-9.743-.675-14.597-2.168-4.878-6.371-9.587-12.14-11.731-5.697-2.264-12.237-2.24-18.223-.65-6.299 1.686-11.538 4.299-17.199 7.925-.265.18-.494.433-.759.626.109-.446.241-.783.338-1.253.939-4.456 1.457-10.008.168-16.042-1.192-6.022-4.829-12.322-10.02-16.621-2.433-2.072-5.505-4.059-9.082-5.215-3.565-1.133-7.901-1.193-11.574.433-3.686 1.542-6.444 4.324-8.154 7.275-1.686 2.987-2.517 6.215-2.433 9.298.084 3.071 1.012 5.962 2.433 8.154a15.303 15.303 0 004.625 4.661 16.217 16.217 0 003.565 1.758c.843.289 1.277.446 1.277.446a4.933 4.933 0 006.214-3.168 4.915 4.915 0 00-3.167-6.202c.18-.133-4.42-1.121-4.3-5.77-.096-2.324 1.554-5.588 4.083-6.515 1.229-.494 2.674-.579 4.444-.169 1.759.482 3.613 1.493 5.541 2.987 3.661 2.806 6.046 6.733 7.395 10.996 1.3 4.288 1.553 8.816 1.445 12.755-.181 3.878-.675 7.19-1.072 9.515-1.891 1.963-3.758 3.962-5.432 6.202-4.071 5.697-7.154 12.261-9.25 19.283-2.047 7.058-2.673 14.561-2.505 22.101 1.012 15.152 5.926 29.821 13.767 43.527 7.358 13.032 17.692 25.57 29.459 35.663 11.767 10.286 25.1 18.32 38.361 25.245 1.277.674 2.529 1.252 3.806 1.914-2.12.265-4.3.723-6.528 1.29-4.77 1.06-9.659 2.793-14.429 4.745-9.563 3.902-18.235 9.442-24.401 13.947-6.155 4.492-9.876 8.141-9.876 8.141l-.037.037a2.114 2.114 0 00-.084 2.914 2.111 2.111 0 002.975.157s3.589-3.24 9.756-7.36c6.118-4.07 14.682-9.032 23.847-12.308 4.565-1.65 9.214-3.071 13.658-3.854 2.204-.47 4.348-.843 6.408-.976 2.047-.205 3.974-.482 5.757-.41 1.782-.011 3.42-.023 4.865-.035.29.024.482.048.759.072 7.636 3.745 15.152 7.419 22.282 11.2 12.226 6.456 23.376 13.538 32.286 21.885.99.927 1.83 1.951 2.76 2.915-13.49-5.36-32.83-4.975-55.437 4.564-20.68 8.732-29.4 7.034-29.4 7.034 10.539 19.174 47.286 3.192 67.097 3.517 13.41.217 26.94 7.154 34.3 11.623 3.44 9.454 4.5 18.692 3.03 26.509-1.52 8.25-5.65 14.706-9.83 19.21a53.502 53.502 0 01-11.19 9.141c-2.89 1.771-4.47 2.409-4.47 2.421a2.17 2.17 0 00-1.24 2.674 2.174 2.174 0 002.72 1.397l.07-.024s1.98-.638 5.23-2.3c3.25-1.686 8.01-4.36 13.03-9.214 4.99-4.782 10.31-12.008 12.72-21.74 2.56-9.683 1.48-21.258-2.43-32.398-.96-2.89-2.05-5.432-3.4-8.54-1.3-2.625-2.54-5.263-4.36-8.165a85.478 85.478 0 00-5.68-8.214c-1.99-9.178-3.42-23.378 3.45-32.869 10.87-15.019 21.09-35.145 1.28-47.61 4.47 4.48-4 22.45-12.93 37.469-5.54 9.31-5.01 22.125-3.81 30.544-3.05-2.662-6.23-5.191-9.6-7.552 0-.036-.01-.048-.01-.084-.29-2.578-.64-6.54-.41-11.599.26-5.046.82-11.249 2.59-18.174.41-1.735.75-3.541 1.25-5.372.62-1.794 1.25-3.65 1.92-5.552 1.26-3.818 2.59-7.829 4.66-11.78 1.91-4.106 3.91-8.382 5.98-12.814 2.03-4.457 4.11-9.057 6.27-13.803 1.02-2.409 2.28-4.697 3.14-7.274.79-2.626 1.61-5.276 2.43-7.95 1.6-5.371 3.37-10.827 4.9-16.428.97-5.685 1.94-11.466 2.93-17.319.42-2.927 1.16-5.854 1.31-8.841.12-2.999.26-5.998.39-9.033.08-6.046.87-12.14.38-18.246-.49-6.095-1-12.225-1.5-18.344-.12-3.083-.64-6.094-1.35-9.093l-1.87-8.997c-1.27-5.974-2.25-12.008-4.51-17.645a4883.11 4883.11 0 01-5.83-16.982c-2.38-5.42-5.18-10.562-7.66-15.753zm-16.58 207.977c-.71 2.012-1.39 3.963-2.05 5.866-.56 1.939-.94 3.878-1.4 5.72-1.95 7.36-2.63 14.056-2.95 19.548a70.663 70.663 0 00-.06 6.77 197.12 197.12 0 00-5.62-3.337c-6.234-11.394-17.652-35.952-15.304-59.883 3.204-32.592 30.354-23.643 17.264-7.986 0 0-2.23 12.14 5.43 9.9 1.8-.53 4.94-3.6 7.38-8.31-.93 6.3 2.88 9.43 6.53 10.611-1.41 2.95-2.83 5.926-4.17 8.732-2.21 4.095-3.67 8.335-5.05 12.37z" fill="#EDEDED"/></g></g></g><defs><clipPath id="clip0_404_452"><path fill="#fff" d="M0 0h1440v144H0z"/></clipPath><clipPath id="clip1_404_452"><path fill="#fff" transform="translate(531 -184)" d="M0 0h909v549.819H0z"/></clipPath></defs></svg>