<svg width="25" height="25" fill="none" xmlns="http://www.w3.org/2000/svg"><path d="M0 10.855a5.532 5.532 0 015.524-5.524 5.532 5.532 0 015.524 5.524c0 .343-.033.686-.1 1.008a7.342 7.342 0 00-2.878-.576c-2.69 0-5.037 1.439-6.343 3.575A5.496 5.496 0 010 10.856zm9.277 7.871c0-1.782.63-3.42 1.682-4.705a5.453 5.453 0 00-2.878-.819 5.532 5.532 0 00-5.524 5.524 5.532 5.532 0 005.524 5.524 5.453 5.453 0 002.878-.82 7.402 7.402 0 01-1.682-4.704zm10.007-.432a7.435 7.435 0 01-6.354-3.586 5.525 5.525 0 00-1.738 4.007 5.532 5.532 0 005.524 5.524 5.532 5.532 0 005.524-5.524 5.05 5.05 0 00-.1-1.007 7.488 7.488 0 01-2.867.575m.543-12.94c0 .143.022.276.022.42 0 3.487-2.414 6.42-5.657 7.218a5.525 5.525 0 005.092 3.387 5.532 5.532 0 005.524-5.524c0-2.867-2.192-5.225-4.993-5.502M12.4.25a5.513 5.513 0 00-5.093 3.387c3.244.797 5.668 3.731 5.668 7.218 0 .144 0 .277-.01.42a5.528 5.528 0 004.97-5.501A5.532 5.532 0 0012.41.25" fill="#A50F2D"/></svg>