<svg width="362" height="693" fill="none" xmlns="http://www.w3.org/2000/svg"><path fill-rule="evenodd" clip-rule="evenodd" d="M117.499 621.916l116.524 67.636 5.726 3.448 5.784-3.448L362 621.938V479.883l-4.539-2.536-112.96-65.557V281.104l112.706-65.414 4.793-3.078V70.956L239.749 0l-122.25 70.956v136.428L0 275.598V417.51l117.499 68.214v136.192zM9.483 281.104v130.922l112.576 65.343 112.96-65.558V281.125l-112.768-65.45L9.483 281.104zM239.77 11.012l-112.768 65.45v130.922l112.768 65.472 112.768-65.472V76.462L239.77 11.012zm112.768 605.42V485.745l-112.768-65.45-112.768 65.45v130.687l112.768 65.45 112.768-65.45z" fill="#EDEDED"/></svg>