<svg width="1160" height="1116" fill="none" xmlns="http://www.w3.org/2000/svg"><mask id="a" style="mask-type:alpha" maskUnits="userSpaceOnUse" x="193" y="111" width="774" height="893"><path d="M966.451 780.185L579.509 1003.59 193.124 781.079l.46-445.934 386.845-223.427 386.482 222.533-.46 445.934z" fill="#004F9F"/></mask><g mask="url(#a)"><path d="M966.451 780.185L579.509 1003.59 193.124 781.079l.46-445.934 386.845-223.427 386.482 222.533-.46 445.934z" fill="#004F9F"/><g opacity=".1" fill="#0081C9"><path d="M906.614 529.477c31.687 1.452 29.687 41.686-17.046 53.042-47.186 11.475-79.563 25.259-79.563 25.259s54.923-80.206 96.609-78.301zM677.995 793.449c0-16.403 13.284-29.687 29.687-29.687s29.688 13.284 29.688 29.687-13.285 29.688-29.688 29.688-29.687-13.285-29.687-29.688zm-14.523 75.778c-14.998 0-27.164-12.166-27.164-27.164 0-14.998 12.166-27.14 27.164-27.14 14.998 0 27.164 12.165 27.164 27.14-.024 14.998-12.189 27.164-27.164 27.164zm-15.164 20.212c0 12.213-9.904 22.093-22.093 22.093-12.213 0-22.093-9.904-22.093-22.093 0-12.213 9.903-22.093 22.093-22.093 12.213 0 22.093 9.903 22.093 22.093zm-42.948 68.826c-10.809 0-19.57-8.761-19.57-19.569 0-10.809 8.761-19.57 19.57-19.57 10.808 0 19.569 8.761 19.569 19.57 0 10.808-8.761 19.569-19.569 19.569zm-6.952 44.855c-9.403 0-17.045-7.644-17.045-17.048 0-9.404 7.618-17.046 17.045-17.046 9.404 0 17.046 7.642 17.046 17.046s-7.618 17.048-17.046 17.048z"/><path d="M555.698 843.539l7.499-15.141c2.786-5.357 5.857-9.428 8.737-14.141 3.833-6.547 8.499-12.666 13.189-18.689 21.355-35.282 63.184-78.825 142.462-89.419 40.71-5.428 81.967 7.214 110.369 41.21 28.902 34.568 47.495 86.539 13.546 132.986-38.21 52.256-110.774 40.234-126.748 8.642-20.951-41.401 7.094-83.372 43.09-87.634 35.996-4.261 52.566 16.57 52.566 16.57-23.212-70.112-89.514-78.158-128.367-71.04-38.829 7.094-82.42 41.686-88.562 77.206-5.714 32.949-25.664 23.926-36.473 20.188-.642 1.357-1.285 2.667-1.952 4.048-1.238 2.666-2.571 5.332-3.88 7.999 9.308-.262 26.187 1.476 26.187 17.974 0 22.736-21.307 44.519-34.091 87.157-12.785 42.635 9.784 68.775 8.523 76.735-2.476 15.71-24.093 18.42-37.425 19.49.167 3.38.333 6.79.5 10.15.024.35.119.71.143 1.09 18.95-14.28 47.423 2.43 41.019 15.21-7.094 14.22-5.214 63 11.38 92.37.19.36.31.65.5.98-3.595-15.59-1.738-35.4 14.808-55.61 22.736-27.79 51.78-34.12 51.78-34.12-38.52-116.819 24.64-179.36 24.64-179.36-4.428 42.305 2.524 74.516 21.474 209.67 13.618 97.2-20.045 157.93-40.067 184.5 6.952-3.52 13.832-7.23 20.808-10.78 13.355-20.86 41.947-70.23 43.876-113.73 0 0-18.165-24.47-9.951-54.16 8.213-29.69 19.426-46.42 23.83-63.94 22.807 102.6-19.402 187.67-41.757 223.54.833-.43 1.666-.85 2.499-1.31 31.378-25.95 44.282-46.06 44.282-46.06-5.047-44.86 19.807-84.04 38.519-106.11 28.426-33.47 32.211-61.9 32.211-61.9 11.166 83.37-36.377 151.75-67.945 186.98 11.927-7.71 23.45-16 34.234-25.12 21.879-18.56 40.068-39.9 54.566-64.89 13.713-23.45 22.998-50.21 24.831-75.83.524-12.85 0-25.57-3.119-37.49-3.19-11.86-7.975-23-14.474-32.74-6.69-9.59-14.737-17.76-23.546-24.449-8.761-6.118-19.283-11.594-28.306-14.165-9.523-2.786-18.903-3.143-26.735-.5-7.928 2.452-13.689 8.428-17.142 14.951-3.094 6.973-3.856 13.473-1.761 20.573 1.642 5.5 5.452 10.9 9.689 13.21 8.928 5.21 16.856 0 20.212-4.55 3.5-4.78 4.309-8.31 4.476-8.16.762-2.24 3.214-3.43 5.452-2.67 2.238.76 3.428 3.21 2.666 5.45-.262-.07-.809 4-5.142 10.79-2.428 3.19-5.833 7.3-11.737 9.85-5.785 2.57-13.975 2.69-21.164-1.09-7.238-3.88-12.856-10.6-16.022-19.95-2.81-7.79-2.833-19.263 1.333-28.857 4.285-9.642 12.594-18.951 23.997-23.188 11.261-4.476 24.188-4.429 36.02-1.286 12.451 3.333 22.807 8.499 33.997 15.665.523.357.976.857 1.5 1.238-.215-.881-.477-1.548-.667-2.476-1.857-8.809-2.881-19.784-.333-31.711 2.356-11.904 9.546-24.355 19.807-32.854 4.809-4.094 10.88-8.023 17.951-10.308 7.046-2.238 15.617-2.357 22.878.857 7.285 3.047 12.737 8.547 16.117 14.379 3.333 5.905 4.976 12.285 4.809 18.379-.166 6.071-1.999 11.785-4.809 16.118-2.761 4.38-6.237 7.332-9.141 9.213-2.929 1.905-5.405 2.904-7.047 3.476-1.667.571-2.524.881-2.524.881-5.118 1.666-10.618-1.143-12.284-6.261-1.667-5.119 1.142-10.618 6.261-12.261-.357-.262 8.737-2.214 8.499-11.404.191-4.594-3.071-11.046-8.071-12.879-2.428-.976-5.285-1.143-8.784-.334-3.476.953-7.142 2.953-10.952 5.905-7.237 5.547-11.951 13.308-14.617 21.735-2.571 8.476-3.071 17.427-2.857 25.212.357 7.666 1.333 14.213 2.119 18.808 3.738 3.883 7.428 7.833 10.737 12.263 8.047 11.26 14.141 24.23 18.284 38.11 4.047 13.95 5.285 28.78 4.951 43.69-1.999 29.95-11.713 58.94-27.211 86.04-14.546 25.76-34.972 50.54-58.232 70.49-23.259 20.33-49.614 36.21-75.825 49.9-2.524 1.33-5 2.47-7.523 3.78 4.19.53 8.499 1.43 12.903 2.55 9.428 2.1 19.093 5.52 28.521 9.38 18.903 7.71 36.044 18.67 48.233 27.57 12.165 8.88 19.522 16.09 19.522 16.09l.071.07a4.19 4.19 0 01.167 5.77c-1.548 1.71-4.166 1.83-5.881.31 0 0-7.094-6.41-19.283-14.55-12.094-8.05-29.021-17.86-47.138-24.33-9.023-3.26-18.212-6.07-26.997-7.62-4.357-.93-8.595-1.67-12.666-1.93-4.047-.4-7.856-.95-11.379-.81-3.524-.02-6.762-.04-9.618-.07-.572.05-.953.1-1.5.14-15.094 7.41-29.949 14.67-44.043 22.14-24.164 12.77-46.21 26.76-63.827 43.26-1.952 1.84-3.618 3.86-5.452 5.76 26.664-10.59 64.898-9.83 109.584 9.03 40.877 17.26 58.113 13.9 58.113 13.9-20.831 37.9-93.466 6.31-132.629 6.95-26.497.43-53.256 14.14-67.802 22.97-6.785 18.69-8.88 36.95-5.976 52.4 3 16.31 11.166 29.07 19.427 37.98 8.332 8.95 16.474 14.59 22.116 18.07 5.714 3.5 8.833 4.76 8.833 4.78 2.047.83 3.142 3.14 2.452 5.29-.738 2.23-3.143 3.47-5.38 2.76l-.143-.05s-3.905-1.26-10.333-4.55c-6.427-3.33-15.831-8.62-25.759-18.21-9.856-9.45-20.378-23.73-25.14-42.97-5.047-19.14-2.928-42.02 4.809-64.04 1.905-5.72 4.047-10.74 6.714-16.88 2.571-5.19 5.023-10.4 8.618-16.14 3.404-5.62 7.166-11 11.237-16.24 3.928-18.14 6.761-46.21-6.833-64.97-21.474-29.69-41.686-69.47-2.523-94.11-8.833 8.86 7.904 44.38 25.568 74.07 10.952 18.4 9.904 43.73 7.523 60.37 6.023-5.26 12.309-10.26 18.975-14.93 0-.07.023-.09.023-.16.572-5.1 1.262-12.93.81-22.93-.524-9.97-1.619-22.23-5.119-35.92-.809-3.43-1.476-7-2.476-10.62-1.214-3.55-2.476-7.21-3.785-10.98-2.5-7.54-5.119-15.47-9.213-23.28-3.786-8.12-7.738-16.57-11.832-25.33-4-8.81-8.119-17.9-12.38-27.28-2.024-4.76-4.523-9.29-6.214-14.38-1.571-5.19-3.19-10.43-4.809-15.72-3.166-10.61-6.666-21.4-9.689-32.47-1.905-11.23-3.833-22.66-5.785-34.23-.833-5.79-2.286-11.57-2.595-17.48-.238-5.92-.5-11.85-.762-17.85-.167-11.95-1.714-24-.762-36.07.976-12.05 1.976-24.164 2.976-36.258.238-6.094 1.262-12.046 2.666-17.974l3.69-17.784c2.524-11.808 4.452-23.736 8.928-34.877 3.881-11.285 7.737-22.498 11.523-33.568 4.69-10.713 10.237-20.879 15.141-31.14zm32.758 411.101c1.405 3.97 2.762 7.83 4.071 11.59 1.095 3.84 1.857 7.67 2.762 11.31 3.857 14.55 5.19 27.78 5.833 38.64.262 4.98.262 9.38.119 13.38 3.666-2.26 7.356-4.45 11.094-6.59 12.332-22.53 34.901-71.07 30.259-118.37-6.333-64.43-59.994-46.74-34.116-15.79 0 0 4.404 24-10.737 19.57-3.571-1.05-9.761-7.12-14.593-16.42 1.833 12.45-5.69 18.64-12.904 20.97 2.785 5.83 5.595 11.71 8.237 17.26 4.381 8.09 7.261 16.47 9.975 24.45zm52.281-568.56c-99.895 110.202-116.821 197.669-116.821 197.669s-41.686-55.422-14.213-139.247c27.473-83.824 133.105-110.845 133.105-110.845s-24.64-16.094-9.951-53.995c14.688-37.9 57.779-77.991 57.779-77.991s-26.521-6.309-36.639-29.688c-7.523-17.403-.666-44.186-24.64-49.899-19.903-4.738-29.045 11.356-29.045 11.356 14.832.952 15.784 14.522 10.095 26.521-5.69 11.998-34.735 18.307-39.163-13.261-4.428-31.592 37.258-58.113 78.301-49.257 81.682 17.618 107.394 160.46-8.808 288.637zm88.943-15.19c3.524-4.261 7.904-9.356 13.618-14.546 5.57-5.261 12.308-10.856 20.188-16.093 7.785-5.452 16.76-10.309 26.926-15.094 9.404-4.095 20.664-8.38 32.234-11.118 11.737-2.809 24.45-4.452 37.997-3.333 6.737.667 13.712 1.857 20.712 4.833 6.88 2.976 14.212 7.261 19.545 15.379 5.666 7.976 5.88 20.903.833 29.045-4.69 8.428-11.546 13.189-17.95 16.57-13.094 6.642-25.997 8.237-38.091 9.022-12.071.643-23.879-.285-34.259-1.476-4.88-.357-9.642-.714-14.26-1.047-4.666.047-9.19.119-13.522.167-17.451.904-32.045 3.642-42.115 5.832-10.094 2.357-15.641 4.119-15.641 4.119l-15.737 5.047 11.88-17.07c1.857-2.261 3.976-6.118 7.642-10.237zm52.685-3.071c4.714-.405 9.594-.833 14.665-1.262 5.142.024 10.475.024 15.951.024 10.308.405 20.45.405 30.949-.904 10.285-1.334 21.022-3.905 28.854-8.785 3.904-2.333 6.833-5.404 7.713-7.738.977-2.428.286-3.094-.5-5.356-2.261-4.904-12.117-9.928-22.021-11.213-10.118-1.619-20.998-1.119-31.401.643-10.642 1.785-20.141 4.642-30.045 8.142-8.832 3.475-17.498 7.356-24.902 11.808a136 136 0 00-19.403 13.356c-4.237 3.356-7.594 6.785-10.57 9.808 10.142-2.881 23.902-6.404 40.71-8.523z"/><path d="M609.93 507.48c3.667 9.784 2.762 18.569 1.119 25.949-3.595 14.88-10.951 25.902-18.307 35.782-7.476 9.737-15.975 18.236-23.641 25.355a3755.776 3755.776 0 00-9.951 9.999c-2.976 3.547-5.833 6.975-8.594 10.284-10.594 13.689-17.975 26.474-22.855 35.52-2.262 4.571-4.047 8.142-5.261 10.594a876.797 876.797 0 00-1.738 3.857l-7.928 17.498-6.19-22.426c-.643-2.881-2.262-7.047-3.095-12.546-1.024-5.476-2.142-12.189-2.5-19.95-.5-7.738-.5-16.57.548-26.093.786-9.57 2.785-19.665 5.69-30.735 2.833-9.832 6.809-21.45 12.165-32.211 5.428-10.975 12.404-22.021 22.212-31.949 4.976-4.928 10.523-9.642 17.617-13.284 7-3.523 15.451-6.618 25.95-5.404 10.523.738 21.593 9.856 24.759 19.76zm-49.971 18.688c-7.523 6.357-14.117 14.76-19.498 23.664-5.499 9.142-9.451 17.975-13.236 27.807-3.048 8.785-5.762 17.808-7.142 26.235-1.667 8.38-2.333 16.237-2.476 23.164-.119 3.024.214 5.809.333 8.476 4.119-8.904 9.475-19.784 17.07-31.687 2.714-3.905 5.547-8 8.475-12.213 3.333-4 6.785-8.142 10.332-12.404 6.88-7.69 13.213-15.355 18.808-24.14 5.428-8.618 10.141-18.355 11.213-26.878.643-4.19.047-7.928-.929-9.333-1.023-1.523-.928-.476-2.309-1.357-3.595-1.428-13.522 2.191-20.641 8.666zm295.494 222.143c-10.904-31.735-51.638-47.353-51.638-47.353 30.783.953 56.375-1.904 86.205 34.092 29.831 35.949-14.974 70.326-34.567 13.261zm-98.085-303.634c4.809 53.184-9.571 80.634-33.664 105.441 0 0 11.785-54.637-4.904-89.491-29.997-62.731 33.782-69.064 38.568-15.95zm39.734-18.118c-1.167 38.877-13.928 57.494-33.545 73.325 0 0 13.285-38.496 4.262-65.159-16.237-47.972 30.449-47.019 29.283-8.166zM670.376 691.722s3.809-9.404 11.118-25.593c7.523-16.07 17.974-39.21 32.377-66.16 14.332-26.973 31.997-58.017 54.59-89.562 11.499-15.665 23.783-31.758 39.662-46.4 8.047-7.237 16.784-14.403 28.545-19.736 5.904-2.547 12.832-4.713 20.902-4.57 8.095.071 16.523 2.928 23.093 8.142 2.143 1.642 2.857 2.404 3.762 3.213 2.047 2.048 3.19 3.452 4.595 5.428 2.595 3.833 4.38 8.238 5.189 12.499 1.667 8.618.215 15.808-1.499 21.998-3.714 12.356-9.476 21.807-15.332 30.83-11.88 17.808-25.545 32.616-38.901 46.638-26.949 27.759-54.066 50.947-77.801 70.135-23.641 19.284-44.376 33.973-58.684 44.448-14.451 10.332-23.046 15.832-23.046 15.832l-15.427 9.88 6.857-17.022zm75.611-69.993c21.783-20.712 47.067-45.043 71.945-72.492 12.356-13.689 24.497-28.45 34.663-43.758 4.904-7.594 9.332-15.689 11.261-22.688.976-3.404 1.19-6.499.785-7.808-.166-.691-.357-1-.571-1.357-.048-.072-.572-.572-.262-.358-.929-.904-2.024-1.904-1.952-1.737-2.691-2.072-6.19-2.691-13.261.19-6.666 2.881-13.903 8.237-20.593 14.237-13.475 12.189-25.902 26.663-37.163 41.186-22.569 29.211-41.638 58.66-57.803 83.967a3215.031 3215.031 0 00-32.378 52.59c12.166-11.094 27.617-25.402 45.329-41.972zm-187.98-237.546c11.38 30.306-6.808 55.613-23.687 37.424-17.998-19.426-11.856-75.778-23.688-98.513 0-.024 35.996 30.758 47.375 61.089z"/><path d="M662.211 320.713s-36.948 16.57-69.159-32.211c0 0 34.091-39.781 81.467-2.833 47.376 36.949 34.092 84.301 104.68 101.37 0 0-40.21 22.165-79.111-2.38-39.781-25.117-37.877-63.946-37.877-63.946zm205.883-100.751c-11.928-24.355-13.904-34.092-13.904-34.092s49.9 1.262 56.852 32.211c6.928 30.949-26.545 35.377-42.948 1.881z"/><path d="M717.157 294.193c-43.566-68.207-101.37-80.516-134.509-48.305-33.163 32.211 1.904 66.303 1.904 66.303s-45.947-26.521-16.117-72.945c24.378-37.925 101.846-34.115 139.247-13.737 43.043 23.427 44.829 51.305 44.829 51.305 71.373 1.904 67.588 54.303 67.588 54.303 46.09-41.686 81.777-3.785 81.777-3.785-60.636 106.108-141.152 35.044-184.719-33.139zm115.083-26.236c0-7.975 4.738-14.713 11.475-17.95-.952-4.119-2.19-8.857-3.928-13.951-1.547.404-3.023.952-4.69.952-10.546 0-19.093-8.547-19.093-19.093 0-6.143 3.095-11.38 7.618-14.88-3.333-5.047-6.809-10.189-11.237-14.927-.19-.262-.476-.476-.69-.738-2.262 1.095-4.714 1.81-7.38 1.81-9.499 0-17.213-7.714-17.213-17.213 0-2.142.5-4.166 1.214-6.071-4.999-3.642-10.07-7.237-15.569-10.189-2.667 2.5-6.19 4.095-10.142 4.095-8.19 0-14.832-6.642-14.832-14.832 0-.262.143-.476.143-.738-5.857-1.952-11.523-4.285-17.284-5.928-2.381 3.738-6.357 6.333-11.118 6.333-6.737 0-12.094-5.047-13.046-11.547-2.143-.404-4.309-.928-6.428-1.19-4.904-.5-9.309-.929-13.832-1.405-1.881 3.833-5.737 6.547-10.285 6.547-5.166 0-9.379-3.452-10.832-8.118-7.618-.119-14.26.262-19.355.024-7.904 0-12.427.024-12.427.024h-.286a3.12 3.12 0 01-3.119-3.071c-.047-1.738 1.334-3.143 3.048-3.191 0 0 4.595-.095 12.617-.238 5.143.143 11.856-.333 19.522-.381 1.476-4.666 5.69-8.094 10.832-8.094 5.595 0 10.047 4.071 11.094 9.356 4.524.381 9.166.762 14.07 1.167 2.072.214 4.214.69 6.333 1.047 2.143-4.571 6.714-7.785 12.094-7.785 7.19 0 12.951 5.69 13.284 12.809 5.976 1.595 11.904 3.904 17.999 5.808 2.69-3.713 6.856-6.285 11.808-6.285 8.189 0 14.832 6.643 14.832 14.832 0 1.048-.381 1.952-.596 2.928 5.952 3.095 11.523 6.881 16.999 10.737 2.928-2.285 6.427-3.88 10.427-3.88 9.499 0 17.213 7.713 17.213 17.212 0 3.262-1.167 6.143-2.738 8.738.285.333.666.618.928.976 5.333 5.547 9.499 11.617 13.499 17.498.643-.072 1.214-.381 1.881-.381 10.546 0 19.093 8.547 19.093 19.093 0 4.881-1.976 9.213-4.976 12.594a145.476 145.476 0 015.452 17.879c9.904 1.214 17.665 9.332 17.665 19.569 0 11.071-8.976 20.046-20.046 20.046-11.022.071-19.998-8.928-19.998-19.998zM742.417 64.621S858.619 36.195 888.949-66.746c23.997 43.567 0 82.087 0 82.087 18.926 8.76 30.377 54.732-7.571 70.111 0 0 22.093 12.642 16.427 47.376-5.69 34.735-40.424 45.472-40.424 45.472s-6.333-94.729-114.964-113.679z"/><path d="M555.698-381.689l7.5-15.141c2.785-5.357 5.856-9.428 8.737-14.141 3.833-6.547 8.499-12.666 13.189-18.689 21.355-35.282 63.184-78.825 142.461-89.419 40.71-5.428 81.968 7.214 110.369 41.21 28.902 34.568 47.495 86.538 13.547 132.986-38.211 52.256-110.774 40.234-126.749 8.642-20.95-41.401 7.095-83.372 43.091-87.634 35.996-4.261 52.566 16.57 52.566 16.57-23.212-70.112-89.515-78.159-128.368-71.04-38.829 7.094-82.42 41.686-88.562 77.206-5.714 32.949-25.664 23.926-36.472 20.188-.643 1.357-1.286 2.667-1.952 4.047-1.238 2.667-2.572 5.333-3.881 8 9.309-.262 26.188 1.476 26.188 17.974 0 22.736-21.308 44.519-34.092 87.157-12.784 42.639 9.785 68.779 8.523 76.73-2.476 15.713-24.093 18.427-37.425 19.498l.5 10.142c.024.357.119.714.143 1.095 18.951-14.284 47.424 2.405 41.02 15.213-7.095 14.213-5.214 62.993 11.379 92.371.191.333.31.643.5.976-3.594-15.593-1.738-35.4 14.808-55.613 22.736-27.783 51.781-34.115 51.781-34.115-38.52-116.821 24.64-179.362 24.64-179.362-4.428 42.328 2.523 74.516 21.474 209.668C704.23-9.966 670.567 50.766 650.546 77.334c6.951-3.523 13.832-7.237 20.807-10.784 13.356-20.855 41.948-70.255 43.876-113.726 0 0-18.164-24.474-9.951-54.161 8.213-29.688 19.427-46.424 23.831-63.946 22.807 102.608-19.403 187.67-41.758 223.548l2.5-1.286c31.378-25.95 44.281-46.066 44.281-46.066-5.047-44.829 19.807-84.039 38.52-106.108 28.425-33.473 32.211-61.898 32.211-61.898 11.165 83.372-36.377 151.746-67.946 186.98 11.928-7.713 23.45-15.998 34.235-25.116 21.879-18.57 40.067-39.925 54.566-64.898 13.712-23.45 22.997-50.209 24.83-75.826.524-12.855 0-25.568-3.118-37.496-3.191-11.856-7.976-22.997-14.475-32.734-6.69-9.595-14.737-17.76-23.545-24.45-8.761-6.119-19.284-11.594-28.307-14.165-9.523-2.786-18.902-3.143-26.735-.5-7.928 2.452-13.689 8.427-17.141 14.95-3.095 6.976-3.857 13.475-1.762 20.57 1.643 5.499 5.452 10.903 9.69 13.213 8.927 5.213 16.855 0 20.212-4.547 3.5-4.786 4.309-8.309 4.476-8.166.761-2.238 3.213-3.405 5.451-2.667 2.238.762 3.429 3.214 2.667 5.428-.262-.071-.81 4-5.143 10.785-2.428 3.19-5.832 7.309-11.736 9.856-5.785 2.571-13.975 2.69-21.165-1.095-7.237-3.881-12.856-10.594-16.022-19.95-2.809-7.785-2.833-19.26 1.333-28.855 4.286-9.641 12.594-18.95 23.998-23.188 11.26-4.475 24.188-4.428 36.02-1.285 12.451 3.333 22.807 8.523 33.996 15.665.524.381.976.857 1.5 1.238-.214-.881-.476-1.548-.667-2.476-1.857-8.809-2.88-19.784-.333-31.711 2.357-11.904 9.547-24.355 19.807-32.854 4.809-4.095 10.88-8.023 17.951-10.308 7.047-2.214 15.617-2.357 22.879.857 7.285 3.047 12.736 8.547 16.117 14.379 3.333 5.904 4.976 12.285 4.809 18.379-.167 6.071-2 11.785-4.809 16.118-2.762 4.38-6.238 7.332-9.142 9.213-2.928 1.905-5.404 2.904-7.047 3.476-1.666.571-2.523.881-2.523.881-5.119 1.666-10.618-1.143-12.285-6.262-1.666-5.118 1.143-10.617 6.261-12.26-.357-.262 8.738-2.214 8.5-11.404.19-4.594-3.072-11.046-8.071-12.879-2.428-.976-5.285-1.143-8.785-.334-3.476.953-7.142 2.952-10.951 5.905-7.237 5.547-11.951 13.308-14.618 21.735-2.571 8.476-3.071 17.427-2.856 25.212.357 7.666 1.333 14.213 2.118 18.808 3.738 3.88 7.428 7.832 10.737 12.26 8.047 11.261 14.142 24.236 18.284 38.139 4.047 13.951 5.285 28.783 4.952 43.686-2 29.949-11.713 58.946-27.211 86.038-14.547 25.76-34.973 50.543-58.232 70.493-23.26 20.355-49.614 36.21-75.826 49.9-2.523 1.333-4.999 2.475-7.523 3.785 4.19.524 8.499 1.428 12.904 2.547 9.427 2.095 19.093 5.523 28.52 9.38 18.903 7.714 36.044 18.665 48.233 27.569 12.166 8.88 19.522 16.093 19.522 16.093l.072.072a4.179 4.179 0 01.166 5.761c-1.547 1.714-4.166 1.833-5.88.309 0 0-7.094-6.404-19.284-14.522-12.094-8.047-29.021-17.855-47.138-24.33-9.023-3.238-18.212-6.071-26.997-7.619-4.356-.928-8.594-1.666-12.665-1.928-4.047-.405-7.856-.953-11.38-.81-3.523-.023-6.761-.071-9.618-.095-.571.048-.952.095-1.5.143-15.093 7.404-29.949 14.665-44.043 22.14-24.164 12.785-46.209 26.76-63.826 43.258-1.953 1.833-3.619 3.857-5.452 5.761 26.759-10.57 64.993-9.832 109.655 9.023 40.877 17.26 58.113 13.879 58.113 13.879-20.831 37.901-93.466 6.333-132.629 6.952-26.497.429-53.256 14.141-67.802 22.974-6.785 18.688-8.88 36.948-5.976 52.399 3 16.308 11.166 29.068 19.427 37.972 8.332 8.952 16.474 14.594 22.116 18.07 5.714 3.499 8.833 4.761 8.833 4.785 2.047.833 3.142 3.143 2.452 5.285-.738 2.238-3.143 3.476-5.38 2.762l-.143-.048s-3.905-1.262-10.333-4.547c-6.428-3.333-15.831-8.618-25.759-18.212-9.856-9.452-20.379-23.736-25.14-42.972-5.047-19.141-2.928-41.996 4.809-64.041 1.905-5.714 4.047-10.737 6.714-16.879 2.571-5.19 5.023-10.404 8.618-16.141 3.404-5.619 7.166-10.999 11.237-16.237 3.928-18.141 6.761-46.209-6.833-64.969-21.474-29.687-41.686-69.469-2.524-94.11-8.832 8.833 7.904 44.377 25.569 74.04 10.951 18.38 9.904 43.734 7.523 60.375 6.023-5.261 12.308-10.261 18.974-14.927 0-.047.024-.095.024-.166.572-5.071 1.262-12.927.81-22.926-.524-9.976-1.619-22.236-5.119-35.901-.809-3.429-1.476-7.023-2.476-10.642a2252.441 2252.441 0 00-3.785-10.975c-2.5-7.547-5.119-15.475-9.213-23.284-3.786-8.118-7.738-16.57-11.833-25.354-3.999-8.809-8.118-17.903-12.379-27.283-2.024-4.761-4.524-9.26-6.214-14.38-1.571-5.19-3.19-10.427-4.809-15.712-3.166-10.618-6.666-21.402-9.689-32.473a43949.502 43949.502 0 01-5.785-34.234c-.834-5.785-2.286-11.57-2.595-17.474-.238-5.928-.5-11.88-.762-17.856-.167-11.951-1.714-23.997-.762-36.067.976-12.047 1.976-24.164 2.976-36.258.238-6.071 1.262-12.047 2.666-17.975l3.69-17.784c2.524-11.808 4.452-23.735 8.928-34.877a20608.72 20608.72 0 0011.523-33.568c4.618-10.665 10.165-20.831 15.069-31.092zm32.759 411.1c1.405 3.976 2.761 7.832 4.071 11.594 1.095 3.833 1.857 7.666 2.762 11.308 3.856 14.546 5.189 27.783 5.832 38.639.262 4.976.262 9.38.119 13.38a401.197 401.197 0 0111.094-6.595c12.332-22.521 34.901-71.064 30.259-118.368-6.333-64.422-59.994-46.734-34.115-15.785 0 0 4.404 23.998-10.737 19.57-3.571-1.048-9.761-7.119-14.594-16.427 1.833 12.451-5.69 18.64-12.903 20.974 2.785 5.833 5.594 11.713 8.237 17.26 4.38 8.094 7.261 16.474 9.975 24.45z"/></g></g></svg>