<svg width="748" height="864" fill="none" xmlns="http://www.w3.org/2000/svg"><mask id="a" style="mask-type:alpha" maskUnits="userSpaceOnUse" x="0" y="0" width="748" height="864"><path d="M0 215.897V633.38l373.824 229.928L747.649 633.38l.041-417.483L373.803 0 0 215.897z" fill="#fff"/></mask><g mask="url(#a)"><path d="M0 215.897V633.38h747.649l.041-417.483L373.803 0 0 215.897z" fill="#EDEDED"/><path d="M0 643.75V226.266h747.649l.041 417.484-373.887 215.896L0 643.75z" fill="#EDEDED"/><path d="M618.529 696.377c-19.942 53.108 11.931 97.456 41.51 65.582 31.54-34.043 20.776-132.792 41.511-172.634 0-.041-63.08 53.902-83.021 107.052zM435.924 585.154s64.748 29.036 121.194-56.446c0 0-59.742-69.713-142.763-4.965-83.021 64.748-59.742 147.728-183.439 177.64 0 0 70.464 38.841 138.633-4.172 69.712-44.013 66.375-112.057 66.375-112.057zM75.137 408.599c20.901-42.679 24.364-59.742 24.364-59.742s-87.443 2.211-99.625 56.446c-12.14 54.193 46.517 61.953 75.261 3.296z" fill="#DADADA"/><path d="M339.636 538.636c76.346-119.525 177.64-141.094 235.713-84.648 58.074 56.446-3.337 116.188-3.337 116.188s80.518-46.476 28.244-127.828c-42.72-66.459-178.475-59.742-244.016-24.072-75.428 41.052-78.557 89.905-78.557 89.905-125.074 3.338-118.44 95.161-118.44 95.161-80.769-73.05-143.305-6.633-143.305-6.633 106.258 185.984 247.352 61.452 323.698-58.073zm-201.67-45.932c0-13.934-8.302-25.782-20.109-31.456 1.669-7.218 3.838-15.52 6.884-24.448 2.712.709 5.298 1.669 8.219 1.669 18.481 0 33.458-14.977 33.458-33.459 0-10.763-5.423-19.942-13.35-26.074 5.841-8.845 11.932-17.898 19.692-26.2.333-.459.834-.834 1.21-1.293 3.963 1.919 8.26 3.171 12.933 3.171 16.646 0 30.162-13.518 30.162-30.163 0-3.755-.876-7.301-2.127-10.639 8.761-6.383 17.647-12.641 27.284-17.855 4.673 4.38 10.847 7.175 17.773 7.175 14.351 0 25.991-11.639 25.991-25.991 0-.459-.251-.834-.251-1.293 10.263-3.421 20.192-7.51 30.288-10.388 4.172 6.55 11.139 11.139 19.483 11.139 11.807 0 21.193-8.845 22.862-20.234 3.755-.751 7.551-1.627 11.264-2.086 8.595-.876 16.313-1.627 24.239-2.461 3.296 6.716 10.055 11.472 18.023 11.472 9.053 0 16.437-6.049 18.982-14.268 13.35-.208 24.99.459 33.918.042 13.851 0 21.777.042 21.777.042h.501c2.962 0 5.424-2.378 5.465-5.382.084-3.004-2.336-5.507-5.34-5.59 0 0-8.052-.167-22.111-.417-9.011.25-20.776-.585-34.21-.626-2.586-8.177-9.971-14.226-18.982-14.226-9.804 0-17.605 7.133-19.441 16.395-7.927.668-16.062 1.335-24.656 2.044-3.63.376-7.384 1.21-11.097 1.836-3.755-8.01-11.765-13.642-21.194-13.642-12.599 0-22.695 9.971-23.279 22.445-10.472 2.837-20.86 6.842-31.54 10.179-4.714-6.508-12.015-11.014-20.692-11.014-14.352 0-25.992 11.64-25.992 25.991 0 1.836.668 3.421 1.043 5.132-10.429 5.423-20.192 12.057-29.787 18.815-5.132-4.005-11.264-6.8-18.273-6.8-16.646 0-30.163 13.517-30.163 30.163 0 5.715 2.044 10.764 4.798 15.311-.501.584-1.168 1.084-1.627 1.71-9.345 9.721-16.646 20.359-23.655 30.664-1.126-.125-2.128-.668-3.296-.668-18.482 0-33.459 14.978-33.459 33.459 0 8.553 3.463 16.187 8.72 22.07-4.381 11.597-7.385 22.236-9.554 31.331-17.355 2.169-30.956 16.354-30.956 34.293 0 19.399 15.728 35.127 35.128 35.127 19.316.126 35.044-15.603 35.044-35.002zM295.372 136.38S91.741 86.568 38.591-93.826c-42.053 76.346 0 143.848 0 143.848-33.167 15.352-53.234 95.912 13.266 122.863 0 0-38.715 22.152-28.786 83.021 9.97 60.868 70.84 79.683 70.84 79.683s11.096-166.042 201.461-199.209z" fill="#DADADA"/><path d="M622.576-645.728l-13.142-26.533c-4.881-9.387-10.263-16.521-15.311-24.782-6.717-11.472-14.894-22.194-23.112-32.749-37.422-61.828-110.723-138.132-249.648-156.697-71.34-9.512-143.639 12.641-193.41 72.215-50.647 60.577-83.23 151.65-23.738 233.044 66.959 91.573 194.119 70.505 222.113 15.144 36.713-72.55-12.432-146.101-75.512-153.568-63.079-7.468-92.116 29.036-92.116 29.036 40.676-122.863 156.864-136.964 224.95-124.49 68.044 12.432 144.432 73.05 155.195 135.295 10.013 57.74 44.974 41.928 63.914 35.378 1.126 2.378 2.253 4.673 3.421 7.092 2.169 4.673 4.506 9.345 6.8 14.018-16.312-.459-45.891 2.587-45.891 31.498 0 39.842 37.339 78.015 59.742 152.734 22.403 74.719-17.147 120.527-14.935 134.461 4.338 27.534 42.219 32.29 65.582 34.168-.292 5.924-.584 11.89-.876 17.772-.042.626-.209 1.252-.25 1.919-33.209-25.031-83.105 4.255-71.883 26.659 12.433 24.906 9.137 110.389-19.941 161.87-.334.626-.543 1.127-.876 1.71 6.299-27.325 3.045-62.036-25.95-97.455-39.841-48.687-90.739-59.784-90.739-59.784 67.502-204.716-43.179-314.312-43.179-314.312 7.759 74.135-4.422 130.581-37.631 367.42C362.29 5.675 421.281 112.1 456.366 158.659c-12.182-6.175-24.238-12.683-36.462-18.899-23.405-36.546-73.509-123.071-76.889-199.292 0 0 31.832-42.887 17.439-94.911s-34.043-81.353-41.761-112.058c-39.967 179.81 34.001 328.872 73.176 391.743-1.46-.751-2.921-1.502-4.381-2.295-54.986-45.474-77.598-80.726-77.598-80.726 8.845-78.6-34.71-147.269-67.501-185.942-49.813-58.658-56.446-108.47-56.446-108.47-19.566 146.1 63.747 265.918 119.066 327.662-20.901-13.517-41.093-28.035-59.992-44.014-38.34-32.54-70.213-69.921-95.62-113.726-24.03-41.094-40.301-87.986-43.513-132.876-.918-22.528 0-44.806 5.465-65.707 5.59-20.776 13.976-40.301 25.365-57.364 11.723-16.813 25.824-31.123 41.261-42.846 15.352-10.722 33.792-20.317 49.604-24.823 16.687-4.881 33.125-5.507 46.85-.876 13.893 4.297 23.989 14.769 30.038 26.2 5.424 12.224 6.758 23.613 3.087 36.045-2.878 9.637-9.554 19.108-16.98 23.154-15.644 9.137-29.537 0-35.419-7.968-6.133-8.386-7.551-14.56-7.843-14.31-1.335-3.921-5.632-6.007-9.554-4.672-3.921 1.335-6.007 5.632-4.672 9.554.459-.126 1.418 7.008 9.011 18.898 4.255 5.591 10.221 12.808 20.567 17.272 10.138 4.506 24.49 4.714 37.089-1.919 12.682-6.8 22.528-18.565 28.077-34.961 4.923-13.642 4.964-33.751-2.337-50.563-7.509-16.897-22.069-33.209-42.052-40.635-19.733-7.843-42.387-7.76-63.121-2.253-21.82 5.841-39.968 14.894-59.576 27.451-.917.626-1.71 1.502-2.628 2.17.376-1.544.835-2.712 1.168-4.339 3.254-15.436 5.048-34.669.585-55.57-4.131-20.859-16.73-42.678-34.711-57.572-8.427-7.176-19.066-14.06-31.456-18.065-12.35-3.921-27.368-4.13-40.092 1.502-12.766 5.34-22.32 14.977-28.244 25.199-5.84 10.346-8.72 21.527-8.427 32.207.292 10.638 3.504 20.651 8.427 28.244 4.84 7.676 10.93 12.849 16.02 16.145 5.131 3.338 9.47 5.09 12.349 6.091a314.454 314.454 0 014.422 1.544c8.97 2.92 18.607-2.003 21.527-10.972 2.92-8.97-2.002-18.607-10.972-21.486.626-.459-15.31-3.88-14.894-19.983-.334-8.052 5.382-19.358 14.143-22.57 4.255-1.711 9.262-2.003 15.395-.585 6.09 1.669 12.515 5.174 19.19 10.347 12.683 9.72 20.943 23.321 25.616 38.089 4.505 14.852 5.382 30.539 5.006 44.181-.626 13.434-2.336 24.906-3.713 32.958-6.55 6.8-13.016 13.726-18.815 21.485-14.101 19.734-24.781 42.471-32.04 66.793-7.093 24.447-9.262 50.438-8.678 76.555 3.504 52.482 20.526 103.296 47.685 150.772 25.49 45.14 61.285 88.57 102.045 123.531 40.76 35.628 86.943 63.455 132.876 87.443 4.422 2.337 8.76 4.339 13.183 6.634-7.343.918-14.894 2.503-22.612 4.464-16.521 3.671-33.459 9.679-49.979 16.437-33.125 13.517-63.163 32.708-84.524 48.311-21.318 15.561-34.209 28.202-34.209 28.202l-.126.125c-2.753 2.712-2.92 7.176-.292 10.096 2.712 3.004 7.301 3.213 10.305.543 0 0 12.432-11.223 33.793-25.491 21.193-14.101 50.855-31.289 82.604-42.637 15.811-5.715 31.915-10.638 47.309-13.35 7.635-1.627 15.061-2.92 22.195-3.379 7.092-.71 13.767-1.669 19.942-1.419 6.174-.041 11.848-.083 16.854-.125 1.001.084 1.669.167 2.628.25 26.45 12.975 52.483 25.699 77.181 38.799 42.345 22.362 80.977 46.893 111.849 75.804 3.421 3.212 6.341 6.758 9.553 10.096-46.725-18.565-113.726-17.23-192.033 15.812-71.632 30.246-101.836 24.364-101.836 24.364 36.504 66.416 163.789 11.055 232.417 12.182 46.434.751 93.326 24.781 118.816 40.259 11.89 32.749 15.562 64.748 10.472 91.823-5.257 28.578-19.566 50.94-34.043 66.543-14.602 15.686-28.87 25.573-38.757 31.664-10.013 6.133-15.478 8.344-15.478 8.386-3.588 1.46-5.507 5.507-4.297 9.262 1.293 3.921 5.507 6.09 9.429 4.839l.25-.084s6.842-2.211 18.106-7.968c11.264-5.841 27.743-15.102 45.14-31.915 17.272-16.563 35.712-41.594 44.055-75.303 8.845-33.542 5.132-73.634-8.427-112.224-3.337-10.013-7.092-18.816-11.764-29.579-4.506-9.095-8.803-18.232-15.103-28.286-5.966-9.846-12.557-19.274-19.691-28.453-6.884-31.789-11.849-80.976 11.973-113.851 37.631-52.024 73.05-121.737 4.422-164.916 15.478 15.52-13.851 77.765-44.806 129.788-19.191 32.249-17.355 76.639-13.183 105.8-10.555-9.22-21.569-17.981-33.251-26.158 0-.125-.041-.167-.041-.292-1.001-8.928-2.211-22.653-1.419-40.175.918-17.481 2.837-38.966 8.97-62.955 1.419-6.007 2.587-12.265 4.339-18.606a3776.492 3776.492 0 016.633-19.233c4.381-13.225 8.97-27.117 16.146-40.801 6.633-14.226 13.558-29.037 20.734-44.39 7.009-15.435 14.226-31.372 21.694-47.81 3.546-8.343 7.926-16.27 10.889-25.198 2.753-9.095 5.59-18.273 8.427-27.535 5.548-18.606 11.681-37.505 16.98-56.904 3.337-19.692 6.716-39.717 10.137-59.993 1.46-10.137 4.005-20.275 4.548-30.622.417-10.388.876-20.776 1.335-31.289.292-20.943 3.003-42.053 1.335-63.204-1.711-21.11-3.463-42.345-5.215-63.539-.417-10.68-2.211-21.11-4.673-31.498l-6.466-31.164c-4.422-20.693-7.802-41.594-15.645-61.119-6.8-19.774-13.559-39.424-20.192-58.823-8.219-18.774-17.939-36.588-26.533-54.569zM565.17 74.678a4795.78 4795.78 0 00-7.134 20.318c-1.919 6.716-3.254 13.433-4.839 19.816-6.759 25.491-9.095 48.686-10.222 67.71a263.488 263.488 0 00-.208 23.447 700.195 700.195 0 00-19.441-11.557c-21.611-39.466-61.161-124.531-53.025-207.427 11.097-112.892 105.132-81.895 59.783-27.66 0 0-7.718 42.053 18.816 34.293 6.258-1.836 17.104-12.474 25.573-28.786-3.212 21.819 9.971 32.666 22.612 36.754-4.881 10.222-9.804 20.526-14.435 30.247-7.676 14.184-12.724 28.87-17.48 42.845z" fill="#DADADA"/></g></svg>