<svg width="136" height="27" fill="none" xmlns="http://www.w3.org/2000/svg"><mask id="a" style="mask-type:luminance" maskUnits="userSpaceOnUse" x="0" y="0" width="136" height="27"><path d="M135.099.311H.879v26.412H135.1V.311z" fill="#fff"/></mask><g mask="url(#a)"><path d="M.88 7.59A3.797 3.797 0 014.672 3.8a3.797 3.797 0 013.791 3.79c0 .236-.023.471-.068.692a5.1 5.1 0 00-6.33 2.06A3.773 3.773 0 01.88 7.589zm6.367 5.403a5.08 5.08 0 011.155-3.23 3.743 3.743 0 00-1.975-.562 3.797 3.797 0 00-3.792 3.792 3.797 3.797 0 003.792 3.792c.722 0 1.398-.206 1.975-.563a5.08 5.08 0 01-1.155-3.23zm6.87-.296a5.104 5.104 0 01-4.362-2.462 3.793 3.793 0 00-1.193 2.75 3.797 3.797 0 003.792 3.792 3.797 3.797 0 003.791-3.792c0-.235-.023-.463-.068-.691a5.14 5.14 0 01-1.968.395m.372-8.883c0 .1.015.19.015.29a5.11 5.11 0 01-3.883 4.953 3.792 3.792 0 003.496 2.325A3.797 3.797 0 0017.9 7.583a3.801 3.801 0 00-3.426-3.777M9.39.311a3.784 3.784 0 00-3.495 2.325c2.226.547 3.89 2.56 3.89 4.954 0 .1 0 .19-.007.29a3.794 3.794 0 00-.38-7.57" fill="#A50F2D"/><path d="M24.58 4.323a.877.877 0 00-.426.144c-.046.046-.13.22-.145.585-.015.32-.015 2.272-.03 4.066 0 1.436.03 2.461.03 2.849.015.965.061 1.246.973 1.482.319.06.44.19.44.334 0 .13-.265.22-.486.22-.41 0-1.307-.09-2.006-.09-.456 0-1.23.06-1.717.06-.365 0-.585-.076-.585-.25 0-.107.22-.236.38-.282.775-.19.965-.426 1.01-1.147.046-.631.092-1.657.092-2.462 0-.502 0-4.035-.03-4.49-.046-.556-.13-.806-.996-.913-.205-.03-.365-.144-.365-.235 0-.13.144-.22.334-.251.092-.015.38-.015.525-.015 1.01 0 2.302-.13 3.009-.13 1.512 0 2.538.282 3.183.912a3 3 0 01.912 2.128c0 1.292-.585 1.983-1.04 2.378-.411.35-1.277.707-1.893.707-.174 0-.615-.03-.82-.114-.22-.091-.335-.175-.335-.312 0-.06.114-.16.236-.16h.235c.662 0 1.642-.79 1.642-2.423 0-1.261-.851-2.584-2.143-2.584m16.132 4.438c0 2.067-.881 3.404-1.983 4.285-.896.692-2.241 1.133-3.45 1.133-1.656 0-3.107-.631-4.095-1.687-.851-.912-1.353-2.158-1.353-3.61 0-1.922.851-3.153 2.037-4.095.707-.555 2.036-1.132 3.358-1.132 3.48 0 5.502 2.583 5.502 5.106m-7.66-3.754c-.54.525-1.101 1.657-1.101 3.534 0 2.424 1.481 5.06 3.784 5.06.866 0 1.405-.44 1.61-.646.662-.66 1.216-2.013 1.216-3.708 0-1.246-.486-3.138-1.641-4.194-.54-.471-1.39-.851-2.082-.851-.691 0-1.42.44-1.778.805m17.058-1.101c.38.09.776.19 1.133.235.106 0 .235.19.235.426.015.44.046.995.076 1.45.015.328-.091.601-.266.601-.076 0-.22-.19-.304-.425-.16-.487-.395-.912-.66-1.117-.677-.57-1.483-.912-2.334-.912-2.507 0-3.685 1.983-3.685 4.384 0 1.056.19 1.968.54 2.667.866 1.733 2.302 2.348 3.533 2.348.205 0 .98-.03 1.527-.364.585-.335 1.01-.79 1.376-1.437.19-.35.296-.486.425-.486.175 0 .175.41.13.585a7.112 7.112 0 01-.472 1.375c-.045.145-.327.396-.57.502-.22.076-1.307.456-2.758.456-2.333 0-3.99-1.041-4.635-1.778-.6-.692-1.322-1.793-1.322-3.549 0-1.907 1.071-3.244 1.732-3.784 1.338-1.101 2.964-1.42 4.255-1.42.722 0 1.482.113 2.052.25m3.214-.083c.38 0 1.131.076 1.625.076s1.39-.061 1.763-.061c.32 0 .487.076.487.22 0 .145-.236.22-.41.266-.616.175-.738.25-.791.958-.03.585-.015 2.347-.015 3.092 0 .06.045.16.106.16.851-.061 1.376-.335 1.938-1.246.44-.722.76-1.323 1.155-1.938.63-1.041 1.39-1.702 2.234-1.702.54 0 .82.22.82.66 0 .145-.114.411-.205.51-.129.144-.266.175-.456.144-.175-.03-.38-.076-.54-.076-.926 0-1.337.661-1.777 1.353-.441.691-.79 1.246-1.026 1.58a.188.188 0 000 .13c.365.691 1.763 2.917 2.462 3.83 1.04 1.367 1.451 1.48 2.287 1.67.091.031.25.092.25.176 0 .144-.09.235-.318.296-.22.06-.586.076-.943.076-1.39 0-2.066-.22-2.682-1.041-.585-.722-1.246-1.748-1.968-2.903-.524-.835-.73-1.101-1.23-1.117-.077 0-.092.114-.107.19 0 1.277.045 2.933.06 3.518.016.312.092.555.79.722.282.076.457.19.457.312 0 .144-.266.235-.517.235-.35 0-1.436-.03-1.922-.03-.487 0-1.277.06-1.778.06-.236 0-.426-.128-.426-.235 0-.144.13-.22.471-.296.76-.175.927-.395.98-1.353.03-.79.03-1.877.03-3.563 0-1.847-.03-2.447-.045-3.01-.015-.736-.16-.942-.706-1.101-.41-.106-.525-.22-.525-.334 0-.145.251-.22.471-.22m20.608 4.923c0 2.067-.881 3.404-1.99 4.285-.897.692-2.235 1.133-3.45 1.133-1.657 0-3.108-.631-4.096-1.687-.85-.912-1.352-2.158-1.352-3.61 0-1.922.85-3.153 2.036-4.095.707-.555 2.036-1.132 3.359-1.132 3.48 0 5.5 2.583 5.5 5.106m-7.658-3.754c-.54.525-1.102 1.657-1.102 3.534 0 2.424 1.481 5.06 3.784 5.06a2.26 2.26 0 001.61-.646c.662-.66 1.216-2.013 1.216-3.708 0-1.246-.486-3.138-1.64-4.194-.54-.471-1.391-.851-2.083-.851-.691 0-1.42.44-1.778.805m11.891 3.405c1.072 0 3.154-.061 4.81-.061.06 0 .13-.16.144-.395.03-.205.03-2.052-.03-2.667-.06-.57-.144-.722-.775-.897-.22-.06-.456-.16-.456-.319 0-.106.16-.205.517-.205.205 0 1.375.045 1.785.045.502 0 1.497-.06 1.687-.06.304 0 .487.076.487.205 0 .16-.145.25-.502.35-.57.128-.661.38-.691.835-.076.745-.13 2.158-.13 4.4 0 1.542.046 2.363.061 2.887.015.615.175.661.806.866.28.091.44.205.44.335 0 .174-.22.22-.501.22-.266 0-1.117-.046-1.596-.046-.35 0-1.61.076-1.922.076-.38 0-.532-.076-.532-.22 0-.144.205-.266.425-.334.775-.205.806-.327.882-1.497.045-.63.06-2.113.03-2.538 0-.144-.06-.205-.129-.205-1.261 0-4.49-.046-4.81-.015-.076.015-.205.144-.205.235-.03.585 0 2.272.015 2.774.015.744.114.98.752 1.162.335.091.555.22.555.395.015.16-.296.205-.501.205-.114 0-1.421-.045-1.968-.045-.365 0-1.163.06-1.702.06-.41 0-.555-.075-.555-.205 0-.174.175-.265.44-.35.692-.19.837-.364.912-1.025.061-.63.145-2.979.145-5.136 0-.472.03-1.338 0-1.968-.03-.525-.175-.692-.692-.851-.364-.114-.54-.22-.54-.35 0-.16.206-.22.487-.22.426 0 1.292.06 1.702.06.661 0 1.376-.045 1.748-.045.327 0 .517.06.517.205 0 .175-.206.266-.532.35-.661.144-.707.44-.73 1.086-.03.57-.09 2.394-.045 2.698.015.129.076.205.19.205m16.807-4.598c.114 0 .205.076.205.175-.03.456-.015 1.467 0 2.006.016.205-.09.502-.22.502s-.281-.076-.38-.441c-.205-.692-.486-1.421-1.071-1.482-.487-.06-1.672-.045-1.999-.03-.311 0-.395.09-.395.25-.06.821-.06 2.242-.06 3.298s.015 3.214.015 4.331c.015.677.266.836.995 1.011.236.076.41.19.41.311 0 .122-.19.236-.47.236-.396 0-1.353-.076-1.954-.076-.6 0-1.572.091-1.892.091-.25 0-.425-.144-.425-.22 0-.175.19-.281.471-.35.676-.16.745-.425.775-.79.046-.486.175-1.436.175-4.521 0-1.466 0-2.424-.03-2.834-.03-.517-.145-.707-.76-.851-.35-.091-.472-.19-.472-.35 0-.114.22-.205.456-.205.692 0 1.307.046 1.938.046h2.052c2.082 0 2.462-.061 2.644-.114m5.379.509a.879.879 0 00-.425.144c-.046.046-.13.22-.145.585-.015.32-.015 2.272-.03 4.066 0 1.436.03 2.461.03 2.849.016.965.061 1.246.981 1.482.319.06.44.19.44.334 0 .13-.266.22-.486.22-.41 0-1.307-.09-1.998-.09-.456 0-1.231.06-1.718.06-.364 0-.585-.076-.585-.25 0-.107.22-.236.38-.282.775-.19.958-.426 1.01-1.147.046-.631.092-1.657.092-2.462 0-.502 0-4.035-.03-4.49-.046-.556-.13-.806-.996-.913-.205-.03-.364-.144-.364-.235 0-.13.144-.22.334-.251.091-.015.38-.015.517-.015 1.01 0 2.302-.13 3.009-.13 1.512 0 2.537.282 3.183.912.737.73.912 1.58.912 2.128 0 1.292-.585 1.983-1.041 2.378-.41.35-1.276.707-1.892.707-.175 0-.615-.03-.821-.114-.22-.091-.334-.175-.334-.312 0-.06.114-.16.236-.16h.235c.661 0 1.641-.79 1.641-2.423 0-1.261-.851-2.584-2.142-2.584m10.934-.402c.517 0 1.163-.061 1.383-.091.061-.016.175.09.19.205.015.281.015 1.375.015 1.687 0 .22-.114.44-.251.44-.136 0-.266-.235-.296-.395-.205-.881-.646-1.117-1.011-1.185-.296-.046-.98-.114-2.188-.091-.061 0-.19.06-.205.44-.031.396-.076 2.584-.061 3.45 0 .046.061.16.16.16h1.261c1.117 0 1.087-.061 1.391-.76.091-.236.205-.41.349-.41.129 0 .175.265.16.44-.031.441-.061.722-.061 1.087 0 .425.03.676.061 1.071.015.281-.076.471-.206.471-.129 0-.25-.19-.303-.35-.206-.69-.411-.805-1.026-.85-.502-.046-1.087-.046-1.573-.046-.061 0-.205.16-.205.19-.061.44-.046 1.672-.031 2.188.016.38 0 .965.061 1.292.046.145.19.35.35.38.25.046.744.091 1.276.091.471 0 1.056 0 1.451-.144.472-.175.897-.555 1.247-1.17.22-.41.364-.555.486-.555.159 0 .144.334.129.456 0 .13-.456 1.573-.6 1.831-.046.114-.297.205-.38.205-.175 0-4.065-.076-5.251-.076-1.056 0-1.231.076-1.8.076-.297 0-.54-.045-.54-.205 0-.144.205-.25.471-.319.806-.19 1.011-.35 1.072-1.2.045-.662.129-1.862.129-3.815 0-1.953.015-2.583-.016-3.04-.03-.57-.159-.88-.835-1.01-.335-.06-.502-.129-.502-.281 0-.144.266-.236.486-.236.738 0 2.037.046 2.85.046h2.363v.023zm11.307-.015c.38.09.775.19 1.132.235.106 0 .236.19.236.426.015.44.045.995.075 1.45.016.328-.098.601-.265.601-.076 0-.221-.19-.297-.425-.159-.487-.395-.912-.661-1.117-.676-.57-1.482-.912-2.333-.912-2.507 0-3.685 1.983-3.685 4.384 0 1.056.19 1.968.54 2.667.866 1.733 2.302 2.348 3.533 2.348.205 0 .98-.03 1.527-.364.585-.335 1.011-.79 1.376-1.437.19-.35.296-.486.425-.486.175 0 .175.41.129.585a7.12 7.12 0 01-.471 1.375c-.045.145-.327.396-.57.502-.22.076-1.307.456-2.758.456-2.333 0-3.989-1.041-4.635-1.778-.6-.692-1.322-1.793-1.322-3.549 0-1.907 1.071-3.244 1.732-3.784 1.338-1.101 2.964-1.42 4.255-1.42.722 0 1.482.113 2.052.25m10.721-.007c.38.09.775.19 1.132.235.107 0 .236.19.236.426.015.44.045.995.076 1.45.015.328-.091.601-.266.601-.076 0-.22-.19-.296-.425-.16-.487-.396-.912-.662-1.117-.676-.57-1.481-.912-2.332-.912-2.508 0-3.686 1.983-3.686 4.384 0 1.056.19 1.968.54 2.667.866 1.733 2.302 2.348 3.533 2.348.205 0 .98-.03 1.528-.364.585-.335 1.01-.79 1.375-1.437.19-.35.296-.486.425-.486.175 0 .175.41.13.585a7.071 7.071 0 01-.472 1.375c-.045.145-.326.396-.569.502-.221.076-1.307.456-2.759.456-2.332 0-3.989-1.041-4.635-1.778-.6-.692-1.322-1.793-1.322-3.549 0-1.907 1.072-3.244 1.733-3.784 1.337-1.101 2.963-1.42 4.255-1.42.722 0 1.481.113 2.051.25M25.825 19.163c.274 0 .844-.023.942-.023.16 0 .266.046.266.114 0 .076-.083.137-.273.182-.365.091-.388.167-.418.426-.038.35-.046.896-.046 1.808 0 .82.015 1.854.023 2.135.008.335.106.38.433.464.114.03.236.099.236.167 0 .091-.114.137-.266.137-.145 0-.661-.038-.92-.038-.197 0-.805.045-.98.045-.205 0-.296-.053-.296-.129 0-.076.121-.137.235-.16.41-.098.441-.19.479-.812a84.24 84.24 0 00.015-1.9 47.539 47.539 0 00-.023-1.915c0-.106-.075-.152-.121-.152-.608 0-2.166-.023-2.394 0-.045 0-.114.069-.121.13-.023.22-.046 1.147-.046 2.051 0 .904.008 1.71.008 1.922 0 .403.068.525.418.631.175.053.296.122.296.19.008.084-.16.137-.273.137-.061 0-.768-.023-1.064-.023-.198 0-.608.046-.89.046-.235 0-.318-.061-.318-.13 0-.09.167-.144.265-.167.388-.083.441-.212.464-.577.015-.304.076-1.208.076-2.257 0-.707.015-1.216 0-1.535-.015-.289-.114-.403-.372-.463-.198-.054-.29-.122-.29-.19 0-.084.115-.122.267-.122.228 0 .699.023.927.023h3.746l.015-.015zm4.886 2.417c.228.265.418.653.418 1.116a1.8 1.8 0 01-.73 1.474 2.14 2.14 0 01-1.306.433 3.29 3.29 0 01-.418-.022c-.03-.008-.069.076-.069.121-.007.38.008 1.094.03 1.284.024.228.07.357.411.456.167.053.228.122.228.175 0 .076-.137.114-.236.114-.235 0-.82-.046-1.132-.046-.212 0-.326.023-.684.023-.144 0-.25-.053-.25-.129 0-.053.083-.122.22-.152.403-.084.448-.19.479-.691.007-.297.023-.98.023-1.84 0-.569.007-1.519-.008-1.838-.008-.182-.038-.213-.06-.235-.153-.122-.32-.267-.32-.305 0-.038.091-.159.182-.197.168-.053.639-.198.867-.334a.497.497 0 01.167-.076c.03 0 .099.076.099.121-.016.152-.016.266-.023.403 0 .03.045.068.068.06.152-.098.38-.22.502-.273.144-.06.341-.121.585-.121.342 0 .73.212.957.478zm-1.998.129s-.084.129-.091.22c-.054.372-.054 1.064-.038 1.512 0 .152.038.296.083.387.182.312.517.487.7.487.09 0 .19-.023.288-.099.44-.32.509-1.056.509-1.284 0-.228-.046-.661-.357-1.01a1.013 1.013 0 00-.638-.312c-.16 0-.35.045-.456.099zm6.801 1.139a1.78 1.78 0 01-.752 1.444c-.35.243-.783.349-1.17.349-.388 0-.859-.175-1.17-.44-.365-.297-.639-.837-.639-1.308 0-.592.266-1.048.585-1.314a2.11 2.11 0 011.36-.494c.851 0 1.794.661 1.794 1.77m-2.371-1.299c-.198.182-.35.555-.35 1.117 0 .281.03.6.1.813.181.593.57.881.926.881.084 0 .243-.068.373-.22.182-.22.311-.668.311-1.155 0-.357-.076-.912-.342-1.284-.152-.197-.372-.342-.608-.342-.144 0-.28.06-.418.19m5.889-.243a.366.366 0 01.144.304c0 .152-.28.395-.334.395-.076 0-.213-.06-.387-.212-.228-.183-.41-.365-.67-.365-.09 0-.235.053-.364.19-.213.22-.334.646-.334 1.033 0 .555.228.844.273.89.16.22.464.455.927.455.243 0 .525-.099.813-.281.046-.023.107 0 .107.068 0 .084-.069.198-.137.266-.289.304-.783.57-1.307.57a1.608 1.608 0 01-1.337-.676 1.947 1.947 0 01-.282-.988c0-.66.343-1.147.852-1.474.296-.213.858-.365 1.2-.365.259 0 .676.069.836.19zm1.382 3.252c-.098 0-.212-.023-.212-.099 0-.068.06-.121.205-.16.228-.06.357-.12.372-.28.015-.251.046-.798.046-1.421v-1.003s-.016-.076-.069-.084a8.57 8.57 0 00-.387-.015c-.258 0-.365.243-.449.486-.068.16-.136.236-.205.236-.076 0-.114-.152-.098-.281.007-.289.06-.524.06-.714-.007-.054.061-.13.1-.13.037 0 .09.03.151.061.06.023.335.046.532.046h1.664c.205 0 .517-.023.585-.053.06-.023.122-.054.16-.054.038 0 .076.076.076.13-.023.243-.016.448-.008.737.008.167-.076.273-.152.273-.06 0-.099-.053-.144-.22-.069-.312-.213-.517-.433-.517-.167 0-.365.008-.426.015-.045.008-.06.076-.068.13-.008.235 0 .683 0 1.07 0 .624.007.981.03 1.217.023.243.084.296.32.364.136.046.197.1.197.137 0 .068-.122.137-.213.137-.289 0-.63-.023-.813-.023-.182 0-.547.023-.82.023m6.336-2.993c.228.265.418.653.418 1.116a1.8 1.8 0 01-.73 1.474 2.14 2.14 0 01-1.306.433 3.29 3.29 0 01-.418-.022c-.03-.008-.069.076-.069.121-.007.38.008 1.094.03 1.284.024.228.07.357.411.456.167.053.228.122.228.175 0 .076-.137.114-.235.114-.236 0-.821-.046-1.133-.046-.213 0-.326.023-.684.023-.144 0-.25-.053-.25-.129 0-.053.083-.122.22-.152.403-.084.448-.19.479-.691.007-.297.022-.98.022-1.84 0-.569.008-1.519-.007-1.838-.008-.182-.038-.213-.06-.235-.153-.122-.32-.267-.32-.305 0-.038.091-.159.182-.197.168-.053.639-.198.867-.334a.497.497 0 01.167-.076c.03 0 .099.076.099.121-.016.152-.016.266-.023.403 0 .03.045.068.068.06.152-.098.38-.22.502-.273.144-.06.342-.121.585-.121.342 0 .73.212.957.478zm-1.998.129s-.084.129-.091.22c-.054.372-.054 1.064-.038 1.512 0 .152.038.296.083.387.182.312.517.487.7.487.09 0 .19-.023.288-.099.44-.32.509-1.056.509-1.284 0-.228-.046-.661-.357-1.01a1.012 1.012 0 00-.638-.312c-.16 0-.35.045-.456.099zm5.433-.169c.099.138.19.35.19.73 0 .335-.03 1.345-.03 1.436 0 .236.167.342.311.342.046 0 .213-.068.296-.098.023-.016.03-.008.054.007.015.03.022.091.022.122 0 .16-.402.577-.873.577-.244 0-.51-.076-.639-.41-.007-.03-.06-.053-.076-.03a4.287 4.287 0 01-.668.357c-.092.03-.266.068-.373.068-.311 0-.653-.38-.653-.859 0-.152.068-.311.152-.433.083-.121.228-.167.304-.205.19-.076.957-.289 1.155-.35.106-.03.152-.09.152-.129.007-.075.023-.547.015-.653-.008-.205-.19-.547-.57-.547-.122 0-.213.015-.273.06-.03.016-.054.107-.054.388a.102.102 0 01-.03.076c-.06.061-.684.342-.745.342-.053 0-.114-.068-.114-.122 0-.243.19-.478.715-.813.311-.205.729-.311.85-.311.517 0 .753.273.882.456zm-.79 2.478s.068-.13.068-.16c.015-.121.03-.478.03-.752 0-.038-.03-.083-.06-.083-.145 0-.532.129-.692.22-.098.076-.152.122-.152.342 0 .372.304.547.464.547.076 0 .243-.053.334-.099m5.79.54c-.213 0-.63-.03-.813-.03-.183 0-.44.015-.684.015-.106 0-.228-.03-.228-.13 0-.076.091-.114.236-.152.151-.03.235-.136.243-.205.015-.144.023-.44.023-1.01 0-.061-.023-.1-.069-.1h-1.11c-.06.009-.075.047-.083.168-.007.144 0 .6.015.813.008.198.061.296.206.334.136.046.212.1.212.152 0 .054-.068.137-.243.137-.06 0-.433-.023-.623-.023-.273 0-.638.023-.783.023-.144 0-.212-.076-.212-.144 0-.053.076-.114.212-.145.198-.053.236-.113.274-.197.038-.13.053-.502.053-1.148 0-.645 0-.987-.008-1.147-.007-.205-.03-.266-.288-.342-.13-.045-.198-.099-.198-.16 0-.083.099-.113.213-.113.205 0 .547.023.73.023.273 0 .387-.023.653-.023.137 0 .213.038.213.114 0 .053-.046.098-.167.152-.213.076-.236.136-.244.288-.007.266-.007.768-.007.851.007.023.03.069.068.069h1.125s.076-.046.076-.076a16.42 16.42 0 000-.836c-.008-.205-.076-.243-.213-.296-.099-.046-.205-.084-.205-.168 0-.068.099-.09.22-.09.152 0 .433.022.646.022.281 0 .471-.023.7-.023.143 0 .227.046.227.107 0 .083-.084.121-.19.152-.281.083-.273.16-.296.372-.008.076-.008.562-.008 1.018a22 22 0 00.023 1.125c.008.22.137.266.334.342.137.045.198.098.198.16 0 .083-.122.128-.213.128m3.527-3.267a.366.366 0 01.144.304c0 .152-.281.395-.334.395-.077 0-.213-.06-.388-.212-.228-.183-.41-.365-.669-.365-.09 0-.235.053-.364.19-.213.22-.335.646-.335 1.033 0 .555.228.844.274.89.16.22.463.455.927.455.243 0 .524-.099.813-.281.045-.023.106 0 .106.068 0 .084-.068.198-.137.266a1.88 1.88 0 01-1.306.57 1.608 1.608 0 01-1.338-.676 1.947 1.947 0 01-.281-.988c0-.66.342-1.147.851-1.474.296-.213.859-.365 1.2-.365.259 0 .677.069.836.19zm1.39 3.252c-.1 0-.213-.023-.213-.099 0-.068.06-.121.205-.16.228-.06.357-.12.373-.28.015-.251.045-.798.045-1.421v-1.003s-.015-.076-.068-.084a8.57 8.57 0 00-.388-.015c-.258 0-.365.243-.448.486-.069.16-.137.236-.205.236-.076 0-.114-.152-.1-.281.008-.289.062-.524.062-.714-.008-.054.06-.13.099-.13.038 0 .09.03.151.061.061.023.335.046.532.046h1.664c.206 0 .517-.023.585-.053.061-.023.122-.054.16-.054.038 0 .076.076.076.13-.023.243-.015.448-.008.737.008.167-.076.273-.152.273-.06 0-.098-.053-.144-.22-.068-.312-.213-.517-.433-.517-.167 0-.365.008-.425.015-.046.008-.061.076-.069.13-.008.235 0 .683 0 1.07 0 .624.008.981.03 1.217.023.243.084.296.32.364.136.046.197.1.197.137 0 .068-.121.137-.213.137-.288 0-.63-.023-.813-.023-.182 0-.547.023-.82.023m5.623-1.9c-.046.008-.015.046.015.061.152.046.342.137.41.19a.68.68 0 01.304.6c0 .456-.341.76-.706.89-.32.12-.737.136-1.087.136-.19 0-.372-.008-.593-.008-.273 0-.615.016-.911.023-.122.008-.22-.068-.22-.137 0-.076.098-.106.212-.129.296-.076.304-.197.32-.402.022-.183.03-.456.03-1.125 0-.334.007-.63-.008-.957-.008-.213-.03-.282-.32-.365-.098-.023-.19-.091-.19-.198 0-.045.031-.083.183-.083s.502.023.669.023c.167 0 .874-.046 1.147-.046.532 0 1.246.137 1.246.805 0 .403-.25.585-.509.707m-1.071-1.23c-.122 0-.198.022-.228.052-.023.023-.046.076-.053.19a10.5 10.5 0 000 .851c.007.069.045.084.091.084.144 0 .41-.008.547-.06a.524.524 0 00.342-.518c0-.228-.205-.592-.699-.592m.57 1.58a1.222 1.222 0 00-.547-.144c-.099 0-.152 0-.228.015-.03.008-.053.046-.061.099-.015.083-.015.41-.008.691 0 .16.016.297.092.418.068.091.243.198.334.198.41 0 .714-.342.714-.73 0-.258-.144-.433-.296-.547zm5.516-.167a1.78 1.78 0 01-.753 1.444c-.35.243-.782.349-1.17.349-.387 0-.858-.175-1.17-.44-.365-.297-.638-.837-.638-1.308 0-.592.266-1.048.585-1.314a2.11 2.11 0 011.36-.494c.851 0 1.793.661 1.793 1.77m-2.37-1.299c-.198.182-.35.555-.35 1.117 0 .281.03.6.099.813.174.593.57.881.927.881.083 0 .243-.068.372-.22.183-.22.312-.668.312-1.155 0-.357-.076-.912-.342-1.284-.152-.197-.373-.342-.608-.342-.145 0-.281.06-.418.19m5.394 2.987a.335.335 0 00-.22.083c-.197.182-.235.593-.273.92-.023.197-.091.265-.16.265-.084 0-.137-.129-.144-.227-.03-.343-.053-1.019-.069-1.224-.007-.06.038-.106.069-.106.099 0 .205-.008.304-.023.03-.008.083-.023.114-.076.16-.372.645-1.588.911-2.318.016-.053.054-.144.076-.227.023-.092.137-.206.365-.418.06-.069.122-.1.167-.1.046 0 .1.07.213.358.243.707.805 2.325.95 2.644.023.069.076.137.152.137.114.023.266.023.38.023.03 0 .06.045.053.098-.023.22-.198.67-.25 1.163-.024.198-.122.304-.206.304-.083 0-.13-.084-.13-.281v-.274c0-.501-.166-.714-.402-.714h-1.907l.007-.008zm.722-2.28c-.015-.06-.06-.03-.076 0-.182.509-.585 1.603-.66 1.884-.008.03.007.076.037.076.137 0 1.17.015 1.292-.007.03-.008.053-.03.046-.061a36.95 36.95 0 00-.639-1.892zm6.125.585a1.78 1.78 0 01-.751 1.444c-.35.243-.783.349-1.17.349-.388 0-.86-.175-1.17-.44-.366-.297-.64-.837-.64-1.308 0-.592.267-1.048.586-1.314a2.11 2.11 0 011.36-.494c.851 0 1.793.661 1.793 1.77m-2.37-1.299c-.198.182-.35.555-.35 1.117 0 .281.03.6.099.813.182.593.57.881.927.881.083 0 .243-.068.372-.22.183-.22.312-.668.312-1.155 0-.357-.076-.912-.342-1.284-.152-.197-.373-.342-.608-.342-.144 0-.281.06-.418.19m5.539 1.117c-.046.008-.015.046.015.061.152.046.342.137.41.19a.68.68 0 01.304.6c0 .456-.342.76-.706.89-.327.12-.737.136-1.087.136-.19 0-.372-.008-.593-.008-.273 0-.615.016-.911.023-.122.008-.22-.068-.22-.137 0-.076.098-.106.212-.129.296-.076.304-.197.32-.402.022-.183.03-.456.03-1.125 0-.334.007-.63-.008-.957-.008-.213-.03-.282-.32-.365-.098-.023-.19-.091-.19-.198 0-.045.031-.083.183-.083s.502.023.669.023c.167 0 .874-.046 1.147-.046.532 0 1.246.137 1.246.805 0 .403-.25.585-.509.707m-1.071-1.23c-.122 0-.198.022-.228.052-.023.023-.046.076-.053.19-.008.122-.016.722 0 .851.007.069.045.084.09.084.145 0 .411-.008.548-.06a.524.524 0 00.342-.518c0-.228-.205-.592-.7-.592m.57 1.58a1.222 1.222 0 00-.546-.144c-.1 0-.152 0-.228.015-.03.008-.053.046-.061.099-.015.083-.015.41-.008.691 0 .16.016.297.091.418.069.091.244.198.335.198.41 0 .714-.342.714-.73 0-.258-.144-.433-.296-.547zm4.477-1.573c.197.19.319.449.319.745 0 .06-.084.205-.183.205h-1.854c-.045 0-.083.023-.09.06a1.141 1.141 0 00-.039.305c0 .19.107.577.266.79.213.274.57.426.942.426.373 0 .6-.084.768-.297.03-.053.076-.098.114-.098.038 0 .076.06.076.113a.433.433 0 01-.069.213c-.265.41-.66.737-1.36.737-.98 0-1.572-.737-1.572-1.71 0-.683.372-1.36 1.079-1.679.212-.098.47-.16.698-.16.342 0 .684.138.912.358m-1.755.6c-.008.046.023.084.06.084.221.007.487 0 .913 0 .144 0 .296-.084.296-.289 0-.235-.236-.517-.471-.517-.357 0-.692.335-.79.722m5.964-.47c.228.265.418.653.418 1.116a1.8 1.8 0 01-.73 1.474 2.14 2.14 0 01-1.306.433 3.29 3.29 0 01-.418-.022c-.03-.008-.069.076-.069.121-.007.38.008 1.094.03 1.284.023.228.07.357.411.456.167.053.228.122.228.175 0 .076-.137.114-.236.114-.235 0-.82-.046-1.132-.046-.212 0-.326.023-.684.023-.144 0-.243-.053-.243-.129 0-.053.084-.122.22-.152.396-.084.449-.19.48-.691.007-.297.022-.98.022-1.84 0-.569.008-1.519-.007-1.838-.008-.182-.038-.213-.061-.235-.152-.122-.32-.267-.32-.305 0-.038.092-.159.183-.197.167-.053.638-.198.866-.334a.497.497 0 01.167-.076c.03 0 .1.076.1.121-.016.152-.016.266-.024.403 0 .03.046.068.069.06.152-.098.38-.22.501-.273.145-.06.342-.121.585-.121.342 0 .73.212.958.478m-1.999.13s-.083.129-.09.22c-.054.372-.054 1.064-.039 1.512 0 .152.038.296.084.387.182.312.516.487.699.487.091 0 .19-.023.288-.099.441-.32.51-1.056.51-1.284 0-.228-.046-.661-.358-1.01a1.013 1.013 0 00-.638-.312c-.16 0-.35.045-.456.099zm3.108-.533c.16 0 .456.023.714.023.205 0 .479-.023.73-.023.083 0 .197.038.197.091 0 .069-.06.137-.197.168-.289.076-.259.197-.274.304a26.78 26.78 0 00-.015 1.542c.008.053.03.06.068.023.335-.372.821-.927 1.155-1.3.091-.098.13-.197.13-.235v-.106c0-.122-.03-.183-.244-.251-.053-.015-.144-.076-.144-.137 0-.068.076-.114.213-.114.182 0 .41.023.66.023.244-.008.442-.03.662-.03.152 0 .213.053.213.113 0 .069-.061.122-.206.16-.235.076-.273.19-.28.296 0 .069-.008.38-.008.745 0 .502.015 1.14.023 1.436.007.274.182.32.334.357.137.03.205.114.205.16s-.099.13-.197.13c-.213 0-.48-.024-.738-.024-.22 0-.516.023-.82.023-.107 0-.213-.046-.213-.13 0-.068.06-.113.205-.144.198-.06.289-.174.296-.288.016-.228.046-.555.046-1.642 0-.045-.03-.053-.06-.015-.388.433-.905.996-1.209 1.36-.03.046-.083.114-.083.183v.129c0 .114.06.198.22.25.099.023.198.084.198.137 0 .084-.115.152-.22.152-.084 0-.563-.015-.76-.015-.282 0-.487.023-.639.023-.076 0-.236-.015-.236-.122 0-.068.084-.129.22-.16.214-.06.282-.136.305-.235.015-.121.023-.28.023-.699 0-.767 0-1.39-.008-1.565-.008-.197-.06-.243-.281-.334-.152-.061-.198-.122-.198-.168 0-.075.076-.113.213-.113m8.07.106c0 .076-.069.16-.206.19-.288.076-.288.175-.296.288 0 .069-.015.426-.015.912 0 .51.007.98.015 1.277.008.273.152.296.304.35.137.045.213.113.213.174 0 .061-.114.122-.221.122-.06 0-.737-.023-.919-.023-.281 0-.41.023-.562.023-.13 0-.243-.046-.243-.13 0-.075.075-.113.205-.144.197-.053.296-.16.311-.25.015-.107.015-.76.015-1.011 0-.053-.022-.069-.045-.069-.13 0-.274.122-.456.373-.22.289-.372.524-.57.79-.236.312-.486.486-1.033.486-.061 0-.251.008-.35-.022-.06-.016-.16-.054-.16-.122s.076-.084.152-.114c.206-.06.38-.152.882-.813.22-.281.448-.51.57-.578.015-.007.015-.022 0-.022-.585-.13-.882-.456-.882-.844 0-.456.281-.92 1.482-.92.388 0 .859.024 1.147.016.168 0 .327-.008.441-.008.091.008.221.016.221.076m-1.399.365c0-.076-.022-.167-.06-.167-.061-.015-.069-.023-.198-.023-.365 0-.691.205-.691.6 0 .464.41.7.911.707.038 0 .046-.023.046-.06a24.9 24.9 0 00-.008-1.057z" fill="#fff"/></g></svg>