<svg width="175" height="35" fill="none" xmlns="http://www.w3.org/2000/svg"><mask id="a" style="mask-type:luminance" maskUnits="userSpaceOnUse" x="0" y="0" width="175" height="35"><path d="M174.065.263H.558v34.143h173.507V.263z" fill="#fff"/></mask><g mask="url(#a)"><path d="M.558 9.673A4.91 4.91 0 015.46 4.771c2.7 0 4.901 2.2 4.901 4.902 0 .304-.03.609-.088.894a6.513 6.513 0 00-2.554-.511c-2.387 0-4.47 1.277-5.629 3.173A4.877 4.877 0 01.558 9.673zm8.231 6.984c0-1.582.56-3.035 1.494-4.175a4.838 4.838 0 00-2.554-.727 4.909 4.909 0 00-4.902 4.902c0 2.701 2.2 4.901 4.902 4.901.933 0 1.807-.265 2.554-.727a6.568 6.568 0 01-1.494-4.174zm8.88-.383a6.597 6.597 0 01-5.638-3.183 4.903 4.903 0 00-1.542 3.556 4.91 4.91 0 004.901 4.902 4.91 4.91 0 004.902-4.902c0-.304-.03-.6-.089-.894-.785.324-1.64.51-2.544.51m.482-11.482c0 .128.02.246.02.373a6.605 6.605 0 01-5.02 6.405 4.902 4.902 0 004.518 3.006 4.91 4.91 0 004.902-4.902c0-2.544-1.945-4.636-4.43-4.882M11.559.263a4.892 4.892 0 00-4.518 3.006c2.878.707 5.03 3.31 5.03 6.404 0 .128 0 .245-.01.373a4.905 4.905 0 004.41-4.882c0-2.7-2.2-4.901-4.902-4.901" fill="#A50F2D"/><path d="M31.195 5.449c-.187 0-.471.118-.55.187-.059.059-.167.284-.187.756-.02.413-.02 2.937-.039 5.255 0 1.857.04 3.183.04 3.684.019 1.247.078 1.61 1.257 1.915.412.079.57.246.57.432 0 .167-.345.285-.63.285-.53 0-1.689-.118-2.592-.118-.59 0-1.592.079-2.22.079-.472 0-.757-.098-.757-.324 0-.138.285-.305.491-.364 1.002-.245 1.248-.55 1.307-1.483a50.07 50.07 0 00.118-3.183c0-.648 0-5.215-.04-5.805-.059-.717-.167-1.041-1.286-1.178-.266-.04-.472-.187-.472-.305 0-.167.187-.285.432-.324.118-.02.491-.02.678-.02 1.306 0 2.976-.167 3.89-.167 1.955 0 3.28.364 4.116 1.179a3.881 3.881 0 011.178 2.75c0 1.67-.756 2.564-1.346 3.075-.53.452-1.65.913-2.445.913-.226 0-.796-.039-1.061-.147-.285-.118-.432-.226-.432-.403 0-.078.147-.206.304-.206h.305c.854 0 2.121-1.022 2.121-3.133 0-1.631-1.1-3.34-2.77-3.34m20.854 5.736c0 2.672-1.14 4.401-2.564 5.54-1.159.894-2.897 1.464-4.46 1.464-2.14 0-4.017-.815-5.294-2.18-1.1-1.18-1.748-2.79-1.748-4.666 0-2.485 1.1-4.077 2.632-5.295.914-.717 2.633-1.463 4.342-1.463 4.499 0 7.112 3.34 7.112 6.6m-9.902-4.852c-.697.678-1.424 2.141-1.424 4.568 0 3.133 1.916 6.542 4.892 6.542a2.93 2.93 0 002.082-.835c.855-.855 1.572-2.603 1.572-4.794 0-1.61-.629-4.057-2.122-5.422-.697-.609-1.797-1.1-2.691-1.1-.894 0-1.837.57-2.299 1.041m22.052-1.424c.49.118 1.002.245 1.463.304.138 0 .305.246.305.55.02.57.059 1.287.098 1.876.02.423-.118.776-.344.776-.098 0-.285-.245-.393-.55-.206-.628-.51-1.178-.854-1.444-.874-.736-1.916-1.178-3.016-1.178-3.241 0-4.764 2.563-4.764 5.667 0 1.366.246 2.544.698 3.448 1.12 2.24 2.976 3.035 4.567 3.035.265 0 1.267-.039 1.974-.471.757-.432 1.307-1.022 1.778-1.857.246-.451.383-.628.55-.628.226 0 .226.53.167.756-.098.51-.422 1.405-.609 1.778-.058.186-.422.51-.736.648-.285.098-1.69.59-3.566.59-3.015 0-5.157-1.346-5.992-2.299-.776-.894-1.709-2.318-1.709-4.587 0-2.466 1.385-4.194 2.24-4.892 1.728-1.424 3.83-1.837 5.5-1.837.934 0 1.916.148 2.653.325m4.155-.109c.49 0 1.463.099 2.102.099.638 0 1.797-.079 2.279-.079.412 0 .628.099.628.285 0 .187-.304.285-.53.344-.796.226-.953.324-1.022 1.238-.04.756-.02 3.035-.02 3.997 0 .079.06.207.138.207 1.1-.079 1.778-.432 2.505-1.611.57-.933.982-1.71 1.493-2.505.815-1.346 1.797-2.2 2.888-2.2.697 0 1.06.285 1.06.854 0 .187-.147.53-.265.658-.167.187-.343.226-.589.187-.226-.04-.491-.098-.697-.098-1.199 0-1.73.854-2.299 1.748-.57.894-1.021 1.611-1.326 2.043a.243.243 0 000 .167c.472.894 2.279 3.772 3.183 4.951 1.345 1.768 1.876 1.915 2.956 2.16.118.04.324.119.324.227 0 .186-.118.304-.412.383-.285.078-.757.098-1.218.098-1.798 0-2.672-.285-3.468-1.345-.756-.934-1.61-2.26-2.544-3.753-.677-1.08-.943-1.424-1.59-1.444-.1 0-.119.148-.138.246 0 1.65.059 3.791.078 4.548.02.402.118.717 1.022.933.363.098.59.245.59.403 0 .186-.345.304-.669.304-.452 0-1.856-.04-2.485-.04-.629 0-1.65.08-2.299.08-.304 0-.55-.168-.55-.305 0-.187.167-.285.61-.383.982-.226 1.198-.511 1.267-1.749.039-1.021.039-2.426.039-4.606 0-2.387-.04-3.163-.06-3.89-.019-.953-.205-1.218-.913-1.424-.53-.138-.677-.285-.677-.433 0-.186.324-.285.609-.285m26.639 6.365c0 2.672-1.14 4.401-2.574 5.54-1.159.894-2.888 1.464-4.46 1.464-2.14 0-4.017-.815-5.294-2.18-1.1-1.18-1.748-2.79-1.748-4.666 0-2.485 1.1-4.077 2.632-5.295.914-.717 2.633-1.463 4.342-1.463 4.499 0 7.111 3.34 7.111 6.6m-9.9-4.852c-.698.678-1.425 2.141-1.425 4.568 0 3.133 1.915 6.542 4.892 6.542a2.93 2.93 0 002.082-.835c.855-.855 1.572-2.603 1.572-4.794 0-1.61-.629-4.057-2.122-5.422-.697-.609-1.798-1.1-2.691-1.1-.894 0-1.837.57-2.299 1.041m15.372 4.401c1.385 0 4.077-.079 6.218-.079.078 0 .167-.206.187-.51.039-.266.039-2.653-.04-3.448-.078-.737-.186-.934-1.002-1.16-.285-.078-.589-.206-.589-.412 0-.138.206-.265.668-.265.265 0 1.778.059 2.308.059.649 0 1.935-.079 2.181-.079.393 0 .628.098.628.265 0 .207-.186.324-.648.452-.737.167-.854.491-.894 1.08-.098.963-.167 2.79-.167 5.688 0 1.994.059 3.055.079 3.733.02.795.226.854 1.041 1.12.364.117.57.265.57.431 0 .226-.285.285-.648.285-.344 0-1.444-.059-2.063-.059-.452 0-2.083.099-2.485.099-.491 0-.688-.099-.688-.285 0-.187.265-.344.55-.432 1.002-.266 1.041-.423 1.14-1.935.059-.816.078-2.731.039-3.281 0-.187-.079-.265-.167-.265-1.631 0-5.805-.06-6.218-.02-.098.02-.265.187-.265.304-.039.757 0 2.937.02 3.586.019.962.147 1.267.972 1.503.432.117.717.284.717.51.02.207-.383.266-.648.266-.148 0-1.837-.06-2.544-.06-.472 0-1.503.08-2.2.08-.531 0-.718-.099-.718-.266 0-.226.226-.344.57-.452.894-.245 1.08-.471 1.179-1.326.078-.815.186-3.85.186-6.64 0-.609.04-1.729 0-2.544-.039-.678-.226-.894-.893-1.1-.472-.148-.698-.285-.698-.452 0-.206.265-.285.629-.285.55 0 1.67.079 2.2.079.855 0 1.778-.06 2.259-.06.423 0 .668.08.668.266 0 .226-.265.344-.687.452-.855.186-.914.57-.943 1.404-.04.737-.118 3.095-.059 3.488.019.167.098.265.245.265M122.221 4.8c.148 0 .265.099.265.227-.039.589-.019 1.895 0 2.593.02.265-.117.648-.284.648-.167 0-.364-.098-.492-.57-.265-.893-.628-1.836-1.385-1.915-.628-.079-2.16-.059-2.583-.04-.403 0-.511.119-.511.325-.078 1.06-.078 2.898-.078 4.263 0 1.365.019 4.155.019 5.599.02.874.344 1.08 1.287 1.306.305.098.531.246.531.403 0 .157-.246.304-.609.304-.511 0-1.749-.098-2.525-.098-.776 0-2.033.118-2.446.118-.324 0-.55-.187-.55-.285 0-.226.246-.363.609-.452.875-.206.963-.55 1.002-1.021.059-.629.226-1.857.226-5.845 0-1.895 0-3.133-.039-3.664-.039-.667-.187-.913-.982-1.1-.452-.118-.609-.245-.609-.451 0-.148.284-.266.589-.266.894 0 1.689.06 2.505.06h2.652c2.691 0 3.182-.08 3.418-.148m6.955.658c-.187 0-.472.118-.551.187-.058.059-.167.284-.186.756-.02.413-.02 2.937-.039 5.255 0 1.857.039 3.183.039 3.684.019 1.247.078 1.61 1.267 1.915.413.079.57.246.57.432 0 .167-.344.285-.629.285-.53 0-1.689-.118-2.583-.118-.59 0-1.592.079-2.22.079-.472 0-.757-.098-.757-.324 0-.138.285-.305.492-.364 1.001-.245 1.237-.55 1.306-1.483a50.07 50.07 0 00.118-3.183c0-.648 0-5.215-.039-5.805-.059-.717-.167-1.041-1.287-1.178-.265-.04-.472-.187-.472-.305 0-.167.187-.285.432-.324.118-.02.492-.02.668-.02 1.307 0 2.977-.167 3.89-.167 1.955 0 3.281.364 4.116 1.179A3.881 3.881 0 01134.5 8.7c0 1.67-.757 2.564-1.346 3.075-.531.452-1.65.913-2.446.913-.226 0-.796-.039-1.061-.147-.285-.118-.432-.226-.432-.403 0-.078.147-.206.305-.206h.304c.855 0 2.122-1.022 2.122-3.133 0-1.631-1.1-3.34-2.77-3.34m14.134-.521c.668 0 1.503-.078 1.788-.118.079-.02.226.118.246.266.019.363.019 1.778.019 2.18 0 .285-.147.57-.324.57-.177 0-.344-.304-.383-.51-.265-1.14-.835-1.445-1.306-1.533-.384-.059-1.268-.147-2.829-.118-.079 0-.246.079-.266.57-.039.51-.098 3.34-.078 4.46 0 .058.078.206.206.206h1.631c1.444 0 1.404-.08 1.797-.983.118-.304.265-.53.452-.53.167 0 .226.344.206.57-.039.57-.078.933-.078 1.404 0 .55.039.874.078 1.385.02.364-.098.61-.265.61s-.324-.246-.393-.453c-.265-.893-.53-1.04-1.326-1.1-.648-.059-1.405-.059-2.033-.059-.079 0-.265.206-.265.246-.079.57-.059 2.16-.04 2.829.02.49 0 1.247.079 1.67.059.186.245.451.452.49.324.06.962.119 1.65.119.609 0 1.365 0 1.876-.187.609-.226 1.159-.717 1.611-1.513.285-.53.471-.717.629-.717.206 0 .186.432.167.59 0 .167-.59 2.033-.776 2.367-.059.147-.383.265-.491.265-.226 0-5.256-.098-6.788-.098-1.365 0-1.591.098-2.328.098-.383 0-.697-.059-.697-.265 0-.187.265-.324.609-.413 1.041-.245 1.306-.451 1.385-1.552.059-.854.167-2.406.167-4.93 0-2.525.019-3.34-.02-3.93-.039-.736-.206-1.14-1.08-1.306-.433-.079-.649-.167-.649-.364 0-.186.344-.304.629-.304.953 0 2.632.059 3.683.059h3.055v.03zm14.617-.019c.491.118 1.002.245 1.463.304.138 0 .305.246.305.55.019.57.059 1.287.098 1.876.02.423-.128.776-.344.776-.098 0-.285-.245-.383-.55-.206-.628-.511-1.178-.854-1.444-.875-.736-1.916-1.178-3.016-1.178-3.241 0-4.764 2.563-4.764 5.667 0 1.366.246 2.544.697 3.448 1.12 2.24 2.977 3.035 4.568 3.035.265 0 1.267-.039 1.974-.471.757-.432 1.307-1.022 1.778-1.857.246-.451.383-.628.55-.628.226 0 .226.53.167.756-.098.51-.422 1.405-.609 1.778-.059.186-.422.51-.736.648-.285.098-1.69.59-3.566.59-3.016 0-5.157-1.346-5.992-2.299-.776-.894-1.709-2.318-1.709-4.587 0-2.466 1.385-4.194 2.24-4.892 1.728-1.424 3.83-1.837 5.5-1.837.933 0 1.916.148 2.652.325m13.86-.01c.491.118 1.002.245 1.463.304.138 0 .305.246.305.55.019.57.059 1.287.098 1.876.02.423-.118.776-.344.776-.098 0-.285-.245-.383-.55-.206-.628-.511-1.178-.854-1.444-.875-.736-1.916-1.178-3.016-1.178-3.241 0-4.764 2.563-4.764 5.667 0 1.366.246 2.544.697 3.448 1.12 2.24 2.977 3.035 4.568 3.035.265 0 1.267-.039 1.974-.471.757-.432 1.307-1.022 1.778-1.857.246-.451.383-.628.55-.628.226 0 .226.53.167.756-.098.51-.422 1.405-.609 1.778-.059.186-.422.51-.736.648-.285.098-1.69.59-3.566.59-3.016 0-5.157-1.346-5.992-2.299-.776-.894-1.709-2.318-1.709-4.587 0-2.466 1.385-4.194 2.24-4.892 1.728-1.424 3.83-1.837 5.5-1.837.933 0 1.916.148 2.652.325M32.806 24.633c.353 0 1.09-.03 1.218-.03.206 0 .344.06.344.148 0 .098-.108.176-.354.235-.472.118-.501.217-.54.55-.05.452-.06 1.16-.06 2.338 0 1.061.02 2.397.03 2.76.01.433.138.492.56.6.148.039.305.127.305.216 0 .118-.148.177-.344.177-.187 0-.855-.05-1.189-.05-.255 0-1.04.06-1.267.06-.265 0-.383-.07-.383-.168s.157-.176.305-.206c.53-.128.57-.245.618-1.05.01-.217.02-1.337.02-2.457a61.53 61.53 0 00-.03-2.475c0-.137-.098-.196-.157-.196-.785 0-2.799-.03-3.094 0-.059 0-.147.088-.157.167-.03.285-.059 1.483-.059 2.652s.01 2.21.01 2.485c0 .52.088.678.54.815.226.069.383.157.383.246.01.108-.206.177-.353.177-.079 0-.992-.03-1.375-.03-.256 0-.786.059-1.15.059-.304 0-.412-.078-.412-.167 0-.118.216-.187.344-.216.5-.108.57-.275.599-.747.02-.392.098-1.561.098-2.917 0-.913.02-1.572 0-1.984-.02-.373-.147-.52-.481-.6-.256-.068-.374-.156-.374-.245 0-.108.148-.157.344-.157.295 0 .904.03 1.199.03h4.842l.02-.02zm6.316 3.123c.294.344.54.845.54 1.444 0 .806-.354 1.454-.943 1.906-.619.481-1.306.56-1.69.56a4.24 4.24 0 01-.54-.03c-.039-.01-.088.099-.088.158-.01.49.01 1.414.04 1.66.029.294.088.461.53.589.216.069.294.157.294.226 0 .098-.176.147-.304.147-.305 0-1.061-.059-1.464-.059-.275 0-.422.03-.884.03-.187 0-.324-.069-.324-.167 0-.069.108-.157.285-.197.52-.108.58-.245.619-.894.01-.383.03-1.267.03-2.377 0-.736.009-1.964-.01-2.377-.01-.235-.05-.275-.08-.304-.196-.157-.412-.344-.412-.393 0-.05.118-.206.236-.256.216-.068.825-.255 1.12-.432a.644.644 0 01.216-.098c.04 0 .127.098.127.157-.02.197-.02.344-.029.52 0 .04.059.09.088.08.197-.128.492-.285.649-.354a1.92 1.92 0 01.756-.157c.442 0 .943.275 1.238.618zm-2.584.168s-.108.166-.117.284c-.07.482-.07 1.376-.05 1.955 0 .197.05.383.108.501.236.403.668.629.904.629.118 0 .246-.03.373-.128.57-.413.658-1.365.658-1.66 0-.295-.058-.855-.461-1.306-.246-.276-.648-.403-.825-.403a1.49 1.49 0 00-.59.128zm8.792 1.473c0 .933-.57 1.6-.973 1.866-.451.314-1.011.452-1.512.452-.501 0-1.11-.226-1.513-.57-.471-.383-.825-1.08-.825-1.69 0-.766.344-1.355.756-1.699a2.73 2.73 0 011.759-.638c1.1 0 2.318.854 2.318 2.289m-3.065-1.68c-.255.235-.452.717-.452 1.444 0 .363.04.776.128 1.05.236.767.736 1.14 1.198 1.14.108 0 .315-.088.481-.285.236-.285.403-.864.403-1.493 0-.461-.098-1.178-.442-1.66-.196-.255-.481-.442-.786-.442-.186 0-.363.079-.54.246m7.613-.314a.473.473 0 01.186.393c0 .196-.363.51-.432.51-.098 0-.275-.078-.5-.275-.296-.235-.531-.471-.865-.471-.118 0-.305.069-.472.245-.275.285-.432.835-.432 1.336 0 .717.295 1.09.354 1.15.206.284.599.589 1.198.589.314 0 .678-.128 1.051-.364.059-.029.137 0 .137.089 0 .108-.088.255-.176.344-.374.393-1.012.736-1.69.736-.805 0-1.414-.412-1.729-.874a2.518 2.518 0 01-.363-1.277c0-.854.442-1.483 1.1-1.905.383-.275 1.11-.472 1.552-.472.334 0 .874.088 1.08.246zm1.787 4.204c-.127 0-.275-.03-.275-.128 0-.088.079-.157.266-.206.294-.079.461-.157.48-.364.02-.324.06-1.031.06-1.837v-1.296s-.02-.098-.089-.108c-.147-.01-.412-.02-.5-.02-.334 0-.472.314-.58.629-.089.206-.177.304-.265.304-.099 0-.148-.196-.128-.363.01-.373.079-.678.079-.923-.01-.07.078-.167.127-.167.05 0 .118.039.197.078.078.03.432.06.687.06h2.152c.265 0 .667-.03.756-.07.078-.03.157-.068.206-.068.05 0 .098.098.098.167-.03.314-.02.58-.01.952.01.216-.098.354-.196.354-.078 0-.128-.069-.187-.285-.088-.403-.275-.668-.56-.668-.215 0-.47.01-.55.02-.059.01-.078.098-.088.167-.01.304 0 .884 0 1.385 0 .805.01 1.267.04 1.571.029.315.107.384.412.472.177.059.255.128.255.177 0 .088-.157.177-.275.177-.373 0-.815-.03-1.05-.03-.236 0-.708.03-1.062.03m8.192-3.871c.295.344.54.845.54 1.444 0 .806-.353 1.454-.943 1.906-.618.481-1.306.56-1.69.56a4.24 4.24 0 01-.54-.03c-.039-.01-.088.099-.088.158-.01.49.01 1.414.04 1.66.029.294.088.461.53.589.216.069.295.157.295.226 0 .098-.177.147-.305.147-.304 0-1.06-.059-1.463-.059-.275 0-.423.03-.884.03-.187 0-.325-.069-.325-.167 0-.069.108-.157.285-.197.52-.108.58-.245.62-.894a99.88 99.88 0 00.029-2.377c0-.736.01-1.964-.01-2.377-.01-.235-.05-.275-.079-.304-.196-.157-.412-.344-.412-.393 0-.05.117-.206.235-.256.216-.068.825-.255 1.12-.432a.644.644 0 01.216-.098c.04 0 .128.098.128.157-.02.197-.02.344-.03.52 0 .04.06.09.089.08.196-.128.491-.285.648-.354a1.93 1.93 0 01.757-.157c.442 0 .943.275 1.237.618zm-2.583.168s-.108.166-.118.284c-.069.482-.069 1.376-.05 1.955 0 .197.05.383.109.501.236.403.668.629.903.629.118 0 .246-.03.374-.128.57-.413.658-1.365.658-1.66 0-.295-.059-.855-.462-1.306-.245-.276-.648-.403-.825-.403-.206 0-.452.059-.59.128zm7.023-.217c.128.177.246.452.246.943 0 .432-.04 1.739-.04 1.857 0 .304.217.442.403.442.06 0 .275-.089.383-.128.03-.02.04-.01.069.01.02.039.03.118.03.157 0 .206-.521.746-1.13.746-.314 0-.658-.098-.825-.53-.01-.04-.079-.069-.098-.04-.276.197-.727.403-.865.462-.118.04-.344.089-.481.089-.403 0-.845-.491-.845-1.11 0-.197.089-.403.197-.56.108-.157.294-.216.392-.265.246-.099 1.238-.373 1.494-.452.137-.04.196-.118.196-.167.01-.098.03-.707.02-.845-.01-.265-.246-.707-.737-.707-.157 0-.275.02-.354.078-.039.02-.068.138-.068.502a.13.13 0 01-.04.098c-.078.078-.884.442-.962.442-.07 0-.148-.089-.148-.157 0-.315.246-.62.924-1.052.402-.265.943-.402 1.1-.402.668 0 .972.353 1.14.59zm-1.021 3.202s.088-.167.088-.206a11 11 0 00.04-.972c0-.05-.04-.108-.08-.108-.186 0-.687.167-.893.284-.128.099-.197.158-.197.442 0 .482.393.708.6.708.098 0 .314-.07.432-.128m7.484.698c-.274 0-.814-.04-1.05-.04-.236 0-.57.02-.884.02-.138 0-.295-.04-.295-.167 0-.098.118-.148.305-.197.196-.039.304-.176.314-.265.02-.186.03-.57.03-1.306 0-.079-.03-.128-.09-.128h-1.433c-.079.01-.098.059-.108.216-.01.187 0 .776.02 1.051.01.256.078.383.265.432.176.06.275.128.275.197s-.089.177-.315.177c-.078 0-.56-.03-.805-.03-.354 0-.825.03-1.012.03-.186 0-.275-.099-.275-.187 0-.069.098-.147.275-.187.255-.068.305-.147.354-.255.049-.167.069-.648.069-1.483 0-.835 0-1.277-.01-1.483-.01-.266-.04-.344-.374-.442-.167-.06-.255-.128-.255-.207 0-.108.128-.147.275-.147.265 0 .707.03.943.03.354 0 .501-.03.845-.03.177 0 .275.05.275.147 0 .069-.06.128-.216.197-.275.098-.305.177-.315.373-.01.344-.01.992-.01 1.1.01.03.04.088.089.088h1.454s.098-.058.098-.098c.01-.294.01-.953 0-1.08-.01-.265-.098-.314-.275-.383-.128-.06-.265-.108-.265-.216 0-.089.127-.118.285-.118.196 0 .56.03.835.03.363 0 .608-.03.903-.03.187 0 .295.059.295.137 0 .108-.108.157-.246.197-.363.108-.353.206-.383.481-.01.098-.01.727-.01 1.316 0 .59.01 1.11.03 1.454.01.285.177.344.432.442.177.059.255.128.255.206 0 .108-.157.167-.275.167m4.558-4.223a.473.473 0 01.187.393c0 .196-.364.51-.432.51-.099 0-.275-.078-.501-.275-.295-.235-.53-.471-.865-.471-.118 0-.304.069-.471.245-.275.285-.432.835-.432 1.336 0 .717.294 1.09.353 1.15.207.284.6.589 1.199.589.314 0 .677-.128 1.05-.364.06-.029.138 0 .138.089 0 .108-.088.255-.177.344-.373.393-1.011.736-1.69.736-.805 0-1.414-.412-1.728-.874a2.518 2.518 0 01-.363-1.277c0-.854.442-1.483 1.1-1.905.383-.275 1.11-.472 1.552-.472.334 0 .874.088 1.08.246zm1.798 4.204c-.128 0-.276-.03-.276-.128 0-.088.079-.157.266-.206.294-.079.461-.157.481-.364.02-.324.059-1.031.059-1.837v-1.296s-.02-.098-.089-.108c-.147-.01-.412-.02-.5-.02-.334 0-.472.314-.58.629-.088.206-.177.304-.265.304-.098 0-.147-.196-.128-.363.01-.373.079-.678.079-.923-.01-.07.078-.167.127-.167.05 0 .118.039.197.078.078.03.432.06.687.06h2.152c.265 0 .668-.03.756-.07.079-.03.157-.068.206-.068.05 0 .098.098.098.167-.029.314-.02.58-.01.952.01.216-.098.354-.196.354-.078 0-.127-.069-.186-.285-.089-.403-.276-.668-.56-.668-.216 0-.472.01-.55.02-.06.01-.079.098-.089.167-.01.304 0 .884 0 1.385 0 .805.01 1.267.04 1.571.029.315.108.384.412.472.177.059.255.128.255.177 0 .088-.157.177-.275.177-.373 0-.815-.03-1.05-.03-.236 0-.708.03-1.061.03m7.268-2.457c-.059.01-.02.06.02.08.196.058.442.176.53.245.167.128.393.324.393.776 0 .59-.442.982-.913 1.15-.413.156-.953.176-1.405.176-.246 0-.481-.01-.766-.01-.354 0-.796.02-1.179.03-.157.01-.285-.089-.285-.177 0-.098.128-.138.275-.167.383-.098.393-.256.413-.52.03-.236.04-.59.04-1.454 0-.433.009-.816-.01-1.238-.01-.275-.04-.363-.413-.472-.128-.029-.246-.117-.246-.255 0-.059.04-.108.236-.108.196 0 .648.03.864.03.217 0 1.13-.06 1.484-.06.687 0 1.61.177 1.61 1.042 0 .52-.324.756-.658.913M83 27.56c-.157 0-.255.03-.294.069-.03.03-.06.098-.069.245-.01.158-.02.933 0 1.1.01.089.059.108.118.108.186 0 .53-.01.707-.078.285-.108.442-.354.442-.668 0-.295-.265-.766-.904-.766m.737 2.043c-.167-.108-.5-.187-.707-.187-.128 0-.197 0-.295.02-.04.01-.069.059-.078.128-.02.108-.02.53-.01.893 0 .207.02.384.118.54.088.119.314.256.432.256.53 0 .923-.442.923-.943 0-.334-.186-.56-.383-.707zm7.13-.216c0 .933-.57 1.6-.972 1.866-.452.314-1.012.452-1.513.452-.5 0-1.11-.226-1.512-.57-.472-.383-.826-1.08-.826-1.69 0-.766.344-1.355.757-1.699a2.73 2.73 0 011.758-.638c1.1 0 2.318.854 2.318 2.289m-3.064-1.68c-.256.235-.452.717-.452 1.444 0 .363.039.776.127 1.05.226.767.737 1.14 1.199 1.14.108 0 .314-.088.481-.285.236-.285.403-.864.403-1.493 0-.461-.098-1.178-.442-1.66-.197-.255-.482-.442-.786-.442-.187 0-.363.079-.54.246m6.974 3.86a.433.433 0 00-.285.108c-.255.236-.304.766-.354 1.189-.029.255-.117.343-.206.343-.108 0-.177-.166-.186-.294-.04-.442-.07-1.316-.089-1.582-.01-.078.05-.137.089-.137.127 0 .265-.01.392-.03.04-.01.108-.029.148-.098.206-.481.835-2.053 1.178-2.996.02-.069.07-.186.099-.294.03-.118.177-.266.471-.54.079-.089.157-.128.216-.128.06 0 .128.088.275.461.315.914 1.042 3.006 1.228 3.419.03.088.098.176.197.176.147.03.343.03.49.03.04 0 .08.059.07.128-.03.285-.256.864-.325 1.502-.03.256-.157.393-.265.393-.108 0-.167-.108-.167-.363v-.354c0-.648-.216-.923-.52-.923h-2.466l.01-.01zm.933-2.947c-.02-.078-.078-.039-.098 0-.236.659-.756 2.073-.855 2.436-.01.04.01.099.05.099.176 0 1.512.02 1.67-.01.038-.01.068-.04.058-.079-.088-.324-.687-2.121-.825-2.446zm7.917.757c0 .933-.57 1.6-.972 1.866-.452.314-1.012.452-1.513.452-.501 0-1.11-.226-1.513-.57-.471-.383-.825-1.08-.825-1.69 0-.766.344-1.355.757-1.699a2.73 2.73 0 011.758-.638c1.1 0 2.318.854 2.318 2.289m-3.065-1.68c-.255.235-.452.717-.452 1.444 0 .363.04.776.128 1.05.236.767.737 1.14 1.199 1.14.108 0 .314-.088.481-.285.236-.285.403-.864.403-1.493 0-.461-.099-1.178-.442-1.66-.197-.255-.482-.442-.786-.442-.187 0-.364.079-.54.246m7.16 1.443c-.059.01-.019.06.02.08.196.058.442.176.53.245.167.128.393.324.393.776 0 .59-.442.982-.913 1.15-.423.156-.953.176-1.405.176-.245 0-.481-.01-.766-.01-.354 0-.796.02-1.179.03-.157.01-.285-.089-.285-.177 0-.098.128-.138.275-.167.383-.098.393-.256.413-.52.029-.236.039-.59.039-1.454 0-.433.01-.816-.01-1.238-.009-.275-.039-.363-.412-.472-.128-.029-.246-.117-.246-.255 0-.059.04-.108.236-.108.196 0 .648.03.864.03.217 0 1.13-.06 1.484-.06.687 0 1.611.177 1.611 1.042 0 .52-.325.756-.659.913m-1.385-1.591c-.157 0-.255.03-.294.069-.03.03-.059.098-.069.245-.01.158-.02.933 0 1.1.01.089.059.108.118.108.187 0 .53-.01.707-.078.285-.108.442-.354.442-.668 0-.295-.265-.766-.904-.766m.737 2.043c-.167-.108-.501-.187-.707-.187-.128 0-.197 0-.295.02-.039.01-.069.059-.078.128-.02.108-.02.53-.01.893 0 .207.019.384.118.54.088.119.314.256.432.256.53 0 .923-.442.923-.943 0-.334-.186-.56-.383-.707zm5.786-2.033c.255.245.412.58.412.962 0 .079-.108.265-.236.265h-2.396c-.059 0-.108.03-.118.079a1.45 1.45 0 00-.049.393c0 .245.137.746.343 1.021.275.354.737.55 1.218.55.482 0 .776-.108.993-.383.039-.068.098-.127.147-.127.049 0 .098.078.098.147a.558.558 0 01-.088.275c-.344.53-.855.953-1.759.953-1.267 0-2.033-.953-2.033-2.21a2.36 2.36 0 011.395-2.171c.275-.128.609-.206.904-.206.442 0 .884.177 1.178.461m-2.269.776c-.009.06.03.108.079.108.285.01.629 0 1.179 0 .186 0 .383-.108.383-.373 0-.304-.305-.668-.609-.668-.462 0-.894.432-1.022.933m7.711-.609c.294.344.54.845.54 1.444 0 .806-.354 1.454-.943 1.906-.619.481-1.306.56-1.689.56-.197 0-.403-.01-.541-.03-.039-.01-.088.099-.088.158-.01.49.01 1.414.039 1.66.03.294.089.461.531.589.216.069.294.157.294.226 0 .098-.176.147-.304.147-.305 0-1.061-.059-1.464-.059-.275 0-.422.03-.884.03-.186 0-.314-.069-.314-.167 0-.069.108-.157.285-.197.511-.108.579-.245.619-.894a99.88 99.88 0 00.029-2.377c0-.736.01-1.964-.01-2.377-.01-.235-.049-.275-.078-.304-.197-.157-.413-.344-.413-.393 0-.05.118-.206.236-.256.216-.068.825-.255 1.12-.432a.64.64 0 01.216-.098c.039 0 .127.098.127.157-.019.197-.019.344-.029.52 0 .04.059.09.088.08.197-.128.491-.285.649-.354a1.92 1.92 0 01.756-.157c.442 0 .943.275 1.238.618m-2.584.168s-.108.166-.118.284c-.068.482-.068 1.376-.049 1.955 0 .197.049.383.108.501.236.403.668.629.904.629.118 0 .246-.03.373-.128.57-.413.658-1.365.658-1.66 0-.295-.059-.855-.461-1.306-.246-.276-.649-.403-.825-.403a1.49 1.49 0 00-.59.128zm4.018-.688c.206 0 .589.03.923.03.265 0 .619-.03.943-.03.108 0 .256.05.256.118 0 .088-.079.177-.256.216-.373.098-.334.255-.353.393-.03.619-.03 1.483-.02 1.994.01.069.039.078.088.03.433-.482 1.061-1.199 1.493-1.68.118-.128.167-.256.167-.305v-.137c0-.157-.039-.236-.314-.324-.069-.02-.187-.099-.187-.177 0-.089.099-.148.275-.148.236 0 .531.03.855.03.314-.01.57-.04.855-.04.196 0 .275.07.275.148 0 .088-.079.157-.266.206-.304.098-.353.246-.363.383 0 .089-.01.491-.01.963 0 .648.02 1.473.03 1.856.009.354.235.413.432.462.177.04.265.147.265.206 0 .06-.128.167-.255.167-.275 0-.619-.03-.953-.03-.285 0-.668.03-1.061.03-.138 0-.275-.059-.275-.167 0-.088.079-.147.265-.186.256-.079.373-.226.383-.374.02-.294.059-.717.059-2.121 0-.06-.039-.07-.078-.02-.501.56-1.169 1.287-1.562 1.758-.039.06-.108.148-.108.236v.167c0 .147.078.255.285.324.127.03.255.108.255.177 0 .108-.147.196-.285.196-.108 0-.727-.02-.982-.02-.364 0-.629.03-.825.03-.098 0-.305-.02-.305-.157 0-.088.108-.167.285-.206.275-.079.364-.177.393-.305.02-.157.03-.363.03-.903 0-.992 0-1.798-.01-2.024-.01-.255-.079-.314-.364-.432-.196-.079-.255-.157-.255-.216 0-.098.098-.148.275-.148m10.431.138c0 .098-.088.206-.265.245-.373.099-.373.226-.383.373 0 .089-.02.55-.02 1.18 0 .657.01 1.266.02 1.65.01.353.197.382.393.451.177.06.275.148.275.226 0 .079-.147.157-.285.157-.078 0-.953-.03-1.188-.03-.364 0-.531.03-.727.03-.167 0-.315-.059-.315-.167 0-.098.099-.147.266-.186.255-.069.383-.206.402-.324.02-.138.02-.983.02-1.307 0-.069-.029-.088-.059-.088-.167 0-.354.157-.589.481-.285.373-.482.678-.737 1.022-.304.402-.629.628-1.336.628-.078 0-.324.01-.452-.03-.078-.019-.206-.068-.206-.156 0-.089.098-.108.196-.148.266-.078.492-.196 1.14-1.05.285-.364.579-.659.737-.747.019-.01.019-.03 0-.03-.757-.167-1.14-.589-1.14-1.09 0-.59.364-1.189 1.916-1.189.501 0 1.11.03 1.483.02.216 0 .422-.01.57-.01.117.01.284.02.284.099m-1.807.471c0-.098-.029-.216-.079-.216-.078-.02-.088-.03-.255-.03-.471 0-.894.266-.894.776 0 .6.531.904 1.179.914.049 0 .059-.03.059-.079.01-.343 0-.972-.01-1.365z" fill="#1B1B1B"/></g></svg>