<?xml version="1.0" encoding="utf-8"?><svg viewBox="0 0 93 105" xmlns="http://www.w3.org/2000/svg" xmlns:xlink="http://www.w3.org/1999/xlink"><style>:root>svg{display:none}:root>svg:target{display:block}</style><svg fill="none" viewBox="0 0 24 24" id="icon-arrow-more" xmlns="http://www.w3.org/2000/svg"><path d="M14.475 12l-7.35-7.35a1.17 1.17 0 01-.363-.888 1.26 1.26 0 01.388-.887c.25-.25.546-.375.887-.375.342 0 .638.125.888.375l7.675 7.7c.2.2.35.425.45.675.1.25.15.5.15.75s-.05.5-.15.75c-.1.25-.25.475-.45.675l-7.7 7.7c-.25.25-.542.37-.875.363a1.246 1.246 0 01-.875-.388 1.213 1.213 0 01-.375-.888c0-.341.125-.637.375-.887L14.475 12z" fill="currentColor"/></svg><svg fill="none" viewBox="0 0 25 25" id="icon-arrow-more-bold" xmlns="http://www.w3.org/2000/svg"><path d="M13.397 12.25l-3.9-3.9a.948.948 0 01-.275-.7c0-.284.091-.517.275-.7a.948.948 0 01.7-.275c.283 0 .516.091.7.275l4.6 4.6c.1.1.17.208.212.325.042.117.063.242.063.375s-.021.258-.063.375a.877.877 0 01-.212.325l-4.6 4.6a.949.949 0 01-.7.275.948.948 0 01-.7-.275.948.948 0 01-.275-.7c0-.284.091-.517.275-.7l3.9-3.9z" fill="currentColor"/></svg><svg fill="none" viewBox="0 0 64 65" id="icon-arrow-next" xmlns="http://www.w3.org/2000/svg"><path fill="#fff" d="M22 12.77h20v36H22z"/><path d="M33.8 32.77l-6.333 6.333c-.49.489-.733 1.1-.733 1.833 0 .734.244 1.367.733 1.9.533.534 1.167.8 1.9.8.733 0 1.366-.266 1.9-.8l8.2-8.2c.533-.533.8-1.155.8-1.866 0-.711-.267-1.334-.8-1.867L31.2 22.636c-.533-.533-1.155-.788-1.866-.766-.712.022-1.334.3-1.867.833a2.813 2.813 0 00-.767 1.867c-.022.71.233 1.333.767 1.866L33.8 32.77zM32 59.436c-3.689 0-7.155-.7-10.4-2.1-3.244-1.4-6.067-3.3-8.467-5.7-2.4-2.4-4.3-5.222-5.7-8.466-1.4-3.245-2.1-6.711-2.1-10.4 0-3.69.7-7.156 2.1-10.4 1.4-3.245 3.3-6.067 5.7-8.467 2.4-2.4 5.223-4.3 8.467-5.7 3.245-1.4 6.711-2.1 10.4-2.1 3.69 0 7.156.7 10.4 2.1 3.245 1.4 6.067 3.3 8.467 5.7 2.4 2.4 4.3 5.222 5.7 8.467 1.4 3.244 2.1 6.71 2.1 10.4 0 3.689-.7 7.155-2.1 10.4-1.4 3.244-3.3 6.066-5.7 8.466-2.4 2.4-5.222 4.3-8.467 5.7-3.244 1.4-6.71 2.1-10.4 2.1z" fill="currentColor"/><path d="M33.8 32.77l-6.333 6.333c-.49.489-.733 1.1-.733 1.833 0 .734.244 1.367.733 1.9.533.534 1.167.8 1.9.8.733 0 1.366-.266 1.9-.8l8.2-8.2c.533-.533.8-1.155.8-1.866 0-.711-.267-1.334-.8-1.867L31.2 22.636c-.533-.533-1.155-.788-1.866-.766-.712.022-1.334.3-1.867.833a2.813 2.813 0 00-.767 1.867c-.022.71.233 1.333.767 1.866L33.8 32.77zM32 59.436c-3.689 0-7.155-.7-10.4-2.1-3.244-1.4-6.067-3.3-8.467-5.7-2.4-2.4-4.3-5.222-5.7-8.466-1.4-3.245-2.1-6.711-2.1-10.4 0-3.69.7-7.156 2.1-10.4 1.4-3.245 3.3-6.067 5.7-8.467 2.4-2.4 5.223-4.3 8.467-5.7 3.245-1.4 6.711-2.1 10.4-2.1 3.69 0 7.156.7 10.4 2.1 3.245 1.4 6.067 3.3 8.467 5.7 2.4 2.4 4.3 5.222 5.7 8.467 1.4 3.244 2.1 6.71 2.1 10.4 0 3.689-.7 7.155-2.1 10.4-1.4 3.244-3.3 6.066-5.7 8.466-2.4 2.4-5.222 4.3-8.467 5.7-3.244 1.4-6.71 2.1-10.4 2.1z" fill="currentColor"/></svg><svg fill="none" viewBox="0 0 64 65" id="icon-arrow-prev" xmlns="http://www.w3.org/2000/svg"><path fill="#fff" d="M22 12.77h20v36H22z"/><path d="M30.2 32.77l6.333 6.333c.49.489.733 1.1.733 1.833 0 .734-.244 1.367-.733 1.9-.533.534-1.166.8-1.9.8-.733 0-1.367-.266-1.9-.8l-8.2-8.2c-.533-.533-.8-1.155-.8-1.866 0-.711.267-1.334.8-1.867l8.267-8.267c.533-.533 1.155-.788 1.867-.766.71.022 1.333.3 1.866.833.49.533.745 1.156.767 1.867.022.71-.233 1.333-.767 1.866L30.2 32.77zM32 59.436c3.689 0 7.155-.7 10.4-2.1 3.244-1.4 6.067-3.3 8.467-5.7 2.4-2.4 4.3-5.222 5.7-8.466 1.4-3.245 2.1-6.711 2.1-10.4 0-3.69-.7-7.156-2.1-10.4-1.4-3.245-3.3-6.067-5.7-8.467-2.4-2.4-5.223-4.3-8.467-5.7-3.245-1.4-6.711-2.1-10.4-2.1-3.69 0-7.156.7-10.4 2.1-3.245 1.4-6.067 3.3-8.467 5.7-2.4 2.4-4.3 5.222-5.7 8.467-1.4 3.244-2.1 6.71-2.1 10.4 0 3.689.7 7.155 2.1 10.4 1.4 3.244 3.3 6.066 5.7 8.466 2.4 2.4 5.222 4.3 8.467 5.7 3.244 1.4 6.71 2.1 10.4 2.1z" fill="currentColor"/></svg><svg fill="none" viewBox="0 0 24 24" id="icon-member" xmlns="http://www.w3.org/2000/svg"><path d="M15.55 20.4l-3.45-3.45 1.4-1.4 2.05 2.05 5.05-5.05 1.4 1.4-6.45 6.45zM10 12c-1.1 0-2.042-.392-2.825-1.175C6.392 10.042 6 9.1 6 8s.392-2.042 1.175-2.825C7.958 4.392 8.9 4 10 4s2.042.392 2.825 1.175C13.608 5.958 14 6.9 14 8s-.392 2.042-1.175 2.825C12.042 11.608 11.1 12 10 12zm2.85 1.3L9.2 16.95 12.25 20H2v-2.8c0-.55.142-1.067.425-1.55.283-.483.675-.85 1.175-1.1.85-.433 1.808-.8 2.875-1.1C7.542 13.15 8.717 13 10 13c.5 0 .988.025 1.463.075.475.05.937.125 1.387.225z" fill="currentColor"/></svg><svg fill="none" viewBox="0 0 32 33" id="icon-ok" xmlns="http://www.w3.org/2000/svg"><path d="M16 32.25c8.837 0 16-7.163 16-16s-7.163-16-16-16-16 7.163-16 16 7.163 16 16 16z" fill="currentColor"/><path d="M15.016 20.338c-1.55-.162-2.949-.546-4.145-1.48-.15-.117-.302-.23-.438-.364-.524-.504-.577-1.08-.162-1.673.354-.509.949-.645 1.569-.353.119.06.233.13.342.208a6.793 6.793 0 007.533.069c.214-.174.461-.303.727-.378a1.147 1.147 0 011.318.525c.327.535.324 1.055-.08 1.47a6.055 6.055 0 01-2.19 1.416c-.804.288-1.64.476-2.488.558.127.14.182.207.269.287 1.15 1.158 2.307 2.311 3.454 3.471a1.141 1.141 0 01.259 1.345 1.36 1.36 0 01-1.273.799 1.24 1.24 0 01-.81-.415c-.868-.875-1.754-1.733-2.605-2.624-.247-.258-.363-.209-.585.015-.875.909-1.764 1.787-2.656 2.667a1.116 1.116 0 01-1.346.242 1.36 1.36 0 01-.785-1.253c.026-.324.177-.625.421-.84 1.142-1.138 2.28-2.277 3.415-3.416.076-.078.15-.16.256-.276z" fill="#fff"/><path d="M15.96 16.374a5.062 5.062 0 11.06-10.125 5.062 5.062 0 01-.06 10.125zm2.515-5.068a2.477 2.477 0 10-1.516 2.293 2.47 2.47 0 001.516-2.293z" fill="#fff"/></svg><svg fill="none" viewBox="0 0 24 24" id="icon-partner" xmlns="http://www.w3.org/2000/svg"><path d="M12 9L8.5 5.5 12 2l3.5 3.5L12 9zM1 20v-4c0-.567.196-1.042.587-1.425A1.947 1.947 0 013 14h3.275c.333 0 .65.083.95.25.3.167.542.392.725.675a5.158 5.158 0 001.788 1.525c.708.367 1.462.55 2.262.55.817 0 1.58-.183 2.287-.55a4.933 4.933 0 001.763-1.525c.217-.283.47-.508.762-.675.292-.167.596-.25.913-.25H21c.567 0 1.042.192 1.425.575.383.383.575.858.575 1.425v4h-7v-2.275A6.81 6.81 0 0112 19a6.673 6.673 0 01-2.1-.337A7.035 7.035 0 018 17.7V20H1zm3-7a2.893 2.893 0 01-2.125-.875A2.893 2.893 0 011 10c0-.85.292-1.563.875-2.138S3.167 7 4 7c.85 0 1.563.287 2.138.862S7 9.15 7 10c0 .833-.287 1.542-.862 2.125S4.85 13 4 13zm16 0a2.893 2.893 0 01-2.125-.875A2.893 2.893 0 0117 10c0-.85.292-1.563.875-2.138S19.167 7 20 7c.85 0 1.563.287 2.137.862C22.712 8.438 23 9.15 23 10c0 .833-.288 1.542-.863 2.125S20.85 13 20 13z" fill="currentColor"/></svg><svg fill="none" viewBox="0 0 93 105" id="icon-play" xmlns="http://www.w3.org/2000/svg"><path d="M86.955 42.333c8.012 4.616 8.012 16.178 0 20.795L17.99 102.864C9.991 107.474 0 101.7 0 92.467V12.994C0 3.761 9.991-2.013 17.991 2.597l68.964 39.736z" fill="#fff"/></svg><svg fill="none" viewBox="0 0 24 24" id="icon-schedule" xmlns="http://www.w3.org/2000/svg"><path d="M13 11.6V8a.967.967 0 00-.287-.713A.968.968 0 0012 7a.968.968 0 00-.713.287A.967.967 0 0011 8v3.975c0 .133.025.263.075.388.05.125.125.237.225.337l3.3 3.3a.948.948 0 00.7.275A.948.948 0 0016 16a.948.948 0 00.275-.7.948.948 0 00-.275-.7l-3-3zM12 22a9.738 9.738 0 01-3.9-.788 10.099 10.099 0 01-3.175-2.137c-.9-.9-1.612-1.958-2.137-3.175A9.738 9.738 0 012 12c0-1.383.263-2.683.788-3.9a10.099 10.099 0 012.137-3.175c.9-.9 1.958-1.612 3.175-2.137A9.738 9.738 0 0112 2c1.383 0 2.683.263 3.9.788a10.098 10.098 0 013.175 2.137c.9.9 1.613 1.958 2.137 3.175A9.738 9.738 0 0122 12a9.738 9.738 0 01-.788 3.9 10.098 10.098 0 01-2.137 3.175c-.9.9-1.958 1.613-3.175 2.137A9.738 9.738 0 0112 22z" fill="currentColor"/></svg><svg fill="none" viewBox="0 0 32 33" id="icon-tg" xmlns="http://www.w3.org/2000/svg"><path d="M16 32.83c8.837 0 16-7.164 16-16 0-8.837-7.163-16-16-16s-16 7.163-16 16c0 8.836 7.163 16 16 16z" fill="currentColor"/><path fill-rule="evenodd" clip-rule="evenodd" d="M7.243 16.66c4.664-2.032 7.774-3.372 9.33-4.02 4.444-1.847 5.367-2.168 5.969-2.179.132-.002.428.03.62.186.284.23.286.732.254 1.063-.24 2.53-1.282 8.67-1.812 11.503-.225 1.2-.666 1.601-1.094 1.64-.929.086-1.635-.613-2.535-1.203-1.408-.923-2.203-1.498-3.57-2.399-1.58-1.04-.556-1.613.344-2.548.236-.244 4.33-3.968 4.41-4.306.01-.042.018-.2-.075-.283-.094-.083-.232-.055-.332-.032-.14.032-2.39 1.519-6.748 4.46-.639.44-1.217.653-1.736.642-.57-.013-1.67-.323-2.487-.589-1.002-.326-1.798-.498-1.729-1.051.036-.288.433-.583 1.19-.884z" fill="#fff"/></svg><svg fill="none" viewBox="0 0 32 33" id="icon-vk" xmlns="http://www.w3.org/2000/svg"><path d="M16 32.83c8.837 0 16-7.164 16-16 0-8.837-7.163-16-16-16s-16 7.163-16 16c0 8.836 7.163 16 16 16z" fill="currentColor"/><path fill-rule="evenodd" clip-rule="evenodd" d="M8.667 10.83H6.333c-.666 0-.8.313-.8.659 0 .618.791 3.683 3.684 7.737 1.929 2.769 4.646 4.27 7.119 4.27 1.483 0 1.667-.334 1.667-.908v-2.092c0-.667.14-.8.61-.8.346 0 .94.173 2.324 1.508 1.583 1.582 1.844 2.292 2.734 2.292h2.334c.666 0 1-.334.808-.991-.211-.656-.966-1.607-1.97-2.735-.543-.642-1.359-1.335-1.606-1.68-.346-.446-.247-.643 0-1.039 0 0 2.843-4.005 3.14-5.364.148-.495 0-.858-.706-.858h-2.334c-.593 0-.867.314-1.015.66 0 0-1.187 2.892-2.868 4.771-.544.544-.791.717-1.088.717-.149 0-.363-.173-.363-.668v-4.622c0-.593-.172-.858-.667-.858h-3.668c-.37 0-.593.275-.593.536 0 .563.84.692.927 2.275v3.436c0 .753-.136.89-.433.89-.791 0-2.716-2.906-3.857-6.23-.224-.646-.448-.907-1.045-.907z" fill="#fff"/></svg><svg fill="none" viewBox="0 0 32 33" id="icon-youtube" xmlns="http://www.w3.org/2000/svg"><path d="M16 32.25c8.837 0 16-7.163 16-16s-7.163-16-16-16-16 7.163-16 16 7.163 16 16 16z" fill="currentColor"/><path d="M21.236 10.231H10.764A3.185 3.185 0 007.58 13.42v5.663a3.186 3.186 0 003.185 3.187h10.472a3.185 3.185 0 003.185-3.187v-5.663a3.186 3.186 0 00-3.185-3.188zm-7.455 8.6V13.67l4.438 2.581-4.438 2.581z" fill="#fff"/></svg></svg>