<?xml version="1.0" encoding="utf-8"?><svg viewBox="0 0 93 105" xmlns="http://www.w3.org/2000/svg" xmlns:xlink="http://www.w3.org/1999/xlink"><style>:root>svg{display:none}:root>svg:target{display:block}</style><svg fill="none" viewBox="0 0 24 25" id="icon-accordeon-blue" xmlns="http://www.w3.org/2000/svg"><mask id="aa" style="mask-type:alpha" maskUnits="userSpaceOnUse" x="0" y="0" width="24" height="25"><path fill="#D9D9D9" d="M0 .781h24v24H0z"/></mask><g mask="url(#aa)"><path d="M13.601 12.781l-4.6-4.6 1.4-1.4 6 6-6 6-1.4-1.4 4.6-4.6z" fill="#004F9F"/></g></svg><svg fill="none" viewBox="0 0 24 25" id="icon-accordeon-white" xmlns="http://www.w3.org/2000/svg"><mask id="ba" style="mask-type:alpha" maskUnits="userSpaceOnUse" x="0" y="0" width="24" height="25"><path fill="#D9D9D9" d="M0 .781h24v24H0z"/></mask><g mask="url(#ba)"><path d="M13.6 12.781L9 8.181l1.4-1.4 6 6-6 6-1.4-1.4 4.6-4.6z" fill="#fff"/></g></svg><svg fill="none" viewBox="0 0 16 16" id="icon-arrow-breadcrumb" xmlns="http://www.w3.org/2000/svg"><mask id="ca" style="mask-type:alpha" maskUnits="userSpaceOnUse" x="0" y="0" width="16" height="16"><path fill="#D9D9D9" d="M0 0h16v16H0z"/></mask><g mask="url(#ca)"><path d="M8.4 8L5.333 4.933 6.267 4l4 4-4 4-.934-.933L8.4 8z" fill="#9E9E9E"/></g></svg><svg fill="none" viewBox="0 0 24 24" id="icon-arrow-more" xmlns="http://www.w3.org/2000/svg"><path d="M14.475 12l-7.35-7.35a1.17 1.17 0 01-.363-.888 1.26 1.26 0 01.388-.887c.25-.25.546-.375.887-.375.342 0 .638.125.888.375l7.675 7.7c.2.2.35.425.45.675.1.25.15.5.15.75s-.05.5-.15.75c-.1.25-.25.475-.45.675l-7.7 7.7c-.25.25-.542.37-.875.363a1.246 1.246 0 01-.875-.388 1.213 1.213 0 01-.375-.888c0-.341.125-.637.375-.887L14.475 12z" fill="currentColor"/></svg><svg fill="none" viewBox="0 0 24 25" id="icon-arrow-more-bold" xmlns="http://www.w3.org/2000/svg"><path d="M12.6 12.23L8 7.63l1.4-1.4 6 6-6 6-1.4-1.4 4.6-4.6z" fill="currentColor"/></svg><svg fill="none" viewBox="0 0 64 65" id="icon-arrow-next" xmlns="http://www.w3.org/2000/svg"><path fill="#fff" d="M22 12.77h20v36H22z"/><path d="M33.8 32.77l-6.333 6.333c-.49.489-.733 1.1-.733 1.833 0 .734.244 1.367.733 1.9.533.534 1.167.8 1.9.8.733 0 1.366-.266 1.9-.8l8.2-8.2c.533-.533.8-1.155.8-1.866 0-.711-.267-1.334-.8-1.867L31.2 22.636c-.533-.533-1.155-.788-1.866-.766-.712.022-1.334.3-1.867.833a2.813 2.813 0 00-.767 1.867c-.022.71.233 1.333.767 1.866L33.8 32.77zM32 59.436c-3.689 0-7.155-.7-10.4-2.1-3.244-1.4-6.067-3.3-8.467-5.7-2.4-2.4-4.3-5.222-5.7-8.466-1.4-3.245-2.1-6.711-2.1-10.4 0-3.69.7-7.156 2.1-10.4 1.4-3.245 3.3-6.067 5.7-8.467 2.4-2.4 5.223-4.3 8.467-5.7 3.245-1.4 6.711-2.1 10.4-2.1 3.69 0 7.156.7 10.4 2.1 3.245 1.4 6.067 3.3 8.467 5.7 2.4 2.4 4.3 5.222 5.7 8.467 1.4 3.244 2.1 6.71 2.1 10.4 0 3.689-.7 7.155-2.1 10.4-1.4 3.244-3.3 6.066-5.7 8.466-2.4 2.4-5.222 4.3-8.467 5.7-3.244 1.4-6.71 2.1-10.4 2.1z" fill="currentColor"/><path d="M33.8 32.77l-6.333 6.333c-.49.489-.733 1.1-.733 1.833 0 .734.244 1.367.733 1.9.533.534 1.167.8 1.9.8.733 0 1.366-.266 1.9-.8l8.2-8.2c.533-.533.8-1.155.8-1.866 0-.711-.267-1.334-.8-1.867L31.2 22.636c-.533-.533-1.155-.788-1.866-.766-.712.022-1.334.3-1.867.833a2.813 2.813 0 00-.767 1.867c-.022.71.233 1.333.767 1.866L33.8 32.77zM32 59.436c-3.689 0-7.155-.7-10.4-2.1-3.244-1.4-6.067-3.3-8.467-5.7-2.4-2.4-4.3-5.222-5.7-8.466-1.4-3.245-2.1-6.711-2.1-10.4 0-3.69.7-7.156 2.1-10.4 1.4-3.245 3.3-6.067 5.7-8.467 2.4-2.4 5.223-4.3 8.467-5.7 3.245-1.4 6.711-2.1 10.4-2.1 3.69 0 7.156.7 10.4 2.1 3.245 1.4 6.067 3.3 8.467 5.7 2.4 2.4 4.3 5.222 5.7 8.467 1.4 3.244 2.1 6.71 2.1 10.4 0 3.689-.7 7.155-2.1 10.4-1.4 3.244-3.3 6.066-5.7 8.466-2.4 2.4-5.222 4.3-8.467 5.7-3.244 1.4-6.71 2.1-10.4 2.1z" fill="currentColor"/></svg><svg fill="none" viewBox="0 0 64 65" id="icon-arrow-prev" xmlns="http://www.w3.org/2000/svg"><path fill="#fff" d="M22 12.77h20v36H22z"/><path d="M30.2 32.77l6.333 6.333c.49.489.733 1.1.733 1.833 0 .734-.244 1.367-.733 1.9-.533.534-1.166.8-1.9.8-.733 0-1.367-.266-1.9-.8l-8.2-8.2c-.533-.533-.8-1.155-.8-1.866 0-.711.267-1.334.8-1.867l8.267-8.267c.533-.533 1.155-.788 1.867-.766.71.022 1.333.3 1.866.833.49.533.745 1.156.767 1.867.022.71-.233 1.333-.767 1.866L30.2 32.77zM32 59.436c3.689 0 7.155-.7 10.4-2.1 3.244-1.4 6.067-3.3 8.467-5.7 2.4-2.4 4.3-5.222 5.7-8.466 1.4-3.245 2.1-6.711 2.1-10.4 0-3.69-.7-7.156-2.1-10.4-1.4-3.245-3.3-6.067-5.7-8.467-2.4-2.4-5.223-4.3-8.467-5.7-3.245-1.4-6.711-2.1-10.4-2.1-3.69 0-7.156.7-10.4 2.1-3.245 1.4-6.067 3.3-8.467 5.7-2.4 2.4-4.3 5.222-5.7 8.467-1.4 3.244-2.1 6.71-2.1 10.4 0 3.689.7 7.155 2.1 10.4 1.4 3.244 3.3 6.066 5.7 8.466 2.4 2.4 5.222 4.3 8.467 5.7 3.244 1.4 6.71 2.1 10.4 2.1z" fill="currentColor"/></svg><svg fill="none" viewBox="0 0 24 24" id="icon-assignment" xmlns="http://www.w3.org/2000/svg"><path d="M5 21c-.55 0-1.02-.196-1.413-.587A1.926 1.926 0 013 19V5c0-.55.196-1.02.587-1.413A1.926 1.926 0 015 3h4.2c.217-.6.58-1.083 1.088-1.45A2.857 2.857 0 0112 1c.633 0 1.204.183 1.713.55.508.367.87.85 1.087 1.45H19c.55 0 1.02.196 1.413.587C20.803 3.98 21 4.45 21 5v14c0 .55-.196 1.02-.587 1.413A1.926 1.926 0 0119 21H5zm3-4h5c.283 0 .52-.096.713-.288A.968.968 0 0014 16a.968.968 0 00-.287-.713A.968.968 0 0013 15H8a.967.967 0 00-.713.287A.968.968 0 007 16c0 .283.096.52.287.712.192.192.43.288.713.288zm0-4h8c.283 0 .52-.096.712-.287A.968.968 0 0017 12a.968.968 0 00-.288-.713A.968.968 0 0016 11H8a.967.967 0 00-.713.287A.968.968 0 007 12c0 .283.096.52.287.713.192.191.43.287.713.287zm0-4h8c.283 0 .52-.096.712-.287A.967.967 0 0017 8a.967.967 0 00-.288-.713A.968.968 0 0016 7H8a.968.968 0 00-.713.287A.968.968 0 007 8c0 .283.096.52.287.713.192.191.43.287.713.287zm4-4.75a.728.728 0 00.75-.75.728.728 0 00-.75-.75.728.728 0 00-.75.75.728.728 0 00.75.75z" fill="currentColor"/></svg><svg fill="none" viewBox="0 0 6 9" id="icon-caret-menu-white" xmlns="http://www.w3.org/2000/svg"><path d="M3.4 4.025L.335.96l.933-.934 4 4-4 4-.933-.933 3.067-3.067z" fill="#fff"/></svg><svg fill="none" viewBox="0 0 24 25" id="icon-caret-select-blue" xmlns="http://www.w3.org/2000/svg"><mask id="ja" style="mask-type:alpha" maskUnits="userSpaceOnUse" x="0" y="0" width="24" height="25"><path fill="#D9D9D9" d="M0 .5h24v24H0z"/></mask><g mask="url(#ja)"><path d="M12 15.875l-6-6 1.4-1.4 4.6 4.6 4.6-4.6 1.4 1.4-6 6z" fill="#004F9F"/></g></svg><svg fill="none" viewBox="0 0 24 25" id="icon-caret-select-white" xmlns="http://www.w3.org/2000/svg"><mask id="ka" style="mask-type:alpha" maskUnits="userSpaceOnUse" x="0" y="0" width="24" height="25"><path fill="#D9D9D9" d="M0 .5h24v24H0z"/></mask><g mask="url(#ka)"><path d="M12 15.875l-6-6 1.4-1.4 4.6 4.6 4.6-4.6 1.4 1.4-6 6z" fill="#fff"/></g></svg><svg fill="none" viewBox="0 0 32 33" id="icon-close" xmlns="http://www.w3.org/2000/svg"><path d="M6.668 7.004l18.665 18.665M6.667 25.67L25.332 7.003" stroke="currentColor" stroke-width="2" stroke-linecap="round" stroke-linejoin="round"/></svg><svg fill="none" viewBox="0 0 24 24" id="icon-email" xmlns="http://www.w3.org/2000/svg"><path d="M4 20c-.55 0-1.02-.196-1.413-.587A1.926 1.926 0 012 18V6c0-.55.196-1.02.587-1.412A1.926 1.926 0 014 4h16c.55 0 1.02.196 1.413.588.391.391.587.862.587 1.412v12c0 .55-.196 1.02-.587 1.413A1.926 1.926 0 0120 20H4zm8-7.175a1.04 1.04 0 00.525-.15L19.6 8.25a.827.827 0 00.4-.725.815.815 0 00-.425-.75c-.283-.167-.575-.158-.875.025L12 11 5.3 6.8c-.3-.183-.592-.188-.875-.013-.283.176-.425.421-.425.738 0 .167.033.313.1.438s.167.22.3.287l7.075 4.425a1.04 1.04 0 00.525.15z" fill="currentColor"/></svg><svg fill="none" viewBox="0 0 24 24" id="icon-list" xmlns="http://www.w3.org/2000/svg"><path d="M10 19a.967.967 0 01-.713-.288A.968.968 0 019 18c0-.283.096-.52.287-.712A.967.967 0 0110 17h10c.283 0 .52.096.712.288.192.191.288.429.288.712s-.096.52-.288.712A.968.968 0 0120 19H10zm0-6a.967.967 0 01-.713-.287A.968.968 0 019 12c0-.283.096-.52.287-.713A.967.967 0 0110 11h10c.283 0 .52.096.712.287.192.192.288.43.288.713s-.096.52-.288.713A.968.968 0 0120 13H10zm0-6a.968.968 0 01-.713-.287A.968.968 0 019 6c0-.283.096-.52.287-.713A.968.968 0 0110 5h10c.283 0 .52.096.712.287.192.192.288.43.288.713s-.096.52-.288.713A.968.968 0 0120 7H10zM5 20c-.55 0-1.02-.196-1.413-.587A1.926 1.926 0 013 18c0-.55.196-1.02.587-1.413A1.926 1.926 0 015 16c.55 0 1.02.196 1.412.587C6.804 16.98 7 17.45 7 18s-.196 1.02-.588 1.413A1.926 1.926 0 015 20zm0-6c-.55 0-1.02-.196-1.413-.588A1.926 1.926 0 013 12c0-.55.196-1.02.587-1.412A1.926 1.926 0 015 10c.55 0 1.02.196 1.412.588.392.391.588.862.588 1.412 0 .55-.196 1.02-.588 1.412A1.926 1.926 0 015 14zm0-6c-.55 0-1.02-.196-1.413-.588A1.926 1.926 0 013 6c0-.55.196-1.02.587-1.412A1.926 1.926 0 015 4c.55 0 1.02.196 1.412.588C6.804 4.979 7 5.45 7 6c0 .55-.196 1.02-.588 1.412A1.926 1.926 0 015 8z" fill="currentColor"/></svg><svg fill="none" viewBox="0 0 24 24" id="icon-location" xmlns="http://www.w3.org/2000/svg"><path d="M12 21.325a2.07 2.07 0 01-.7-.125 1.84 1.84 0 01-.625-.375A39.112 39.112 0 017.8 17.9c-.833-.95-1.53-1.87-2.087-2.762-.559-.892-.984-1.75-1.276-2.575C4.146 11.738 4 10.95 4 10.2c0-2.5.804-4.492 2.412-5.975C8.021 2.742 9.883 2 12 2s3.98.742 5.587 2.225C19.197 5.708 20 7.7 20 10.2c0 .75-.146 1.538-.438 2.363-.291.824-.716 1.683-1.274 2.574A21.678 21.678 0 0116.2 17.9a39.112 39.112 0 01-2.875 2.925 1.84 1.84 0 01-.625.375 2.07 2.07 0 01-.7.125zM12 12c.55 0 1.02-.196 1.412-.588.392-.391.588-.862.588-1.412 0-.55-.196-1.02-.588-1.412A1.926 1.926 0 0012 8c-.55 0-1.02.196-1.412.588A1.926 1.926 0 0010 10c0 .55.196 1.02.588 1.412.391.392.862.588 1.412.588z" fill="currentColor"/></svg><svg fill="none" viewBox="0 0 24 24" id="icon-member" xmlns="http://www.w3.org/2000/svg"><path d="M15.55 20.4l-3.45-3.45 1.4-1.4 2.05 2.05 5.05-5.05 1.4 1.4-6.45 6.45zM10 12c-1.1 0-2.042-.392-2.825-1.175C6.392 10.042 6 9.1 6 8s.392-2.042 1.175-2.825C7.958 4.392 8.9 4 10 4s2.042.392 2.825 1.175C13.608 5.958 14 6.9 14 8s-.392 2.042-1.175 2.825C12.042 11.608 11.1 12 10 12zm2.85 1.3L9.2 16.95 12.25 20H2v-2.8c0-.55.142-1.067.425-1.55.283-.483.675-.85 1.175-1.1.85-.433 1.808-.8 2.875-1.1C7.542 13.15 8.717 13 10 13c.5 0 .988.025 1.463.075.475.05.937.125 1.387.225z" fill="currentColor"/></svg><svg fill="none" viewBox="0 0 32 33" id="icon-ok" xmlns="http://www.w3.org/2000/svg"><path d="M16 32.25c8.837 0 16-7.163 16-16s-7.163-16-16-16-16 7.163-16 16 7.163 16 16 16z" fill="currentColor"/><path d="M15.016 20.338c-1.55-.162-2.949-.546-4.145-1.48-.15-.117-.302-.23-.438-.364-.524-.504-.577-1.08-.162-1.673.354-.509.949-.645 1.569-.353.119.06.233.13.342.208a6.793 6.793 0 007.533.069c.214-.174.461-.303.727-.378a1.147 1.147 0 011.318.525c.327.535.324 1.055-.08 1.47a6.055 6.055 0 01-2.19 1.416c-.804.288-1.64.476-2.488.558.127.14.182.207.269.287 1.15 1.158 2.307 2.311 3.454 3.471a1.141 1.141 0 01.259 1.345 1.36 1.36 0 01-1.273.799 1.24 1.24 0 01-.81-.415c-.868-.875-1.754-1.733-2.605-2.624-.247-.258-.363-.209-.585.015-.875.909-1.764 1.787-2.656 2.667a1.116 1.116 0 01-1.346.242 1.36 1.36 0 01-.785-1.253c.026-.324.177-.625.421-.84 1.142-1.138 2.28-2.277 3.415-3.416.076-.078.15-.16.256-.276z" fill="#fff"/><path d="M15.96 16.374a5.062 5.062 0 11.06-10.125 5.062 5.062 0 01-.06 10.125zm2.515-5.068a2.477 2.477 0 10-1.516 2.293 2.47 2.47 0 001.516-2.293z" fill="#fff"/></svg><svg fill="none" viewBox="0 0 24 24" id="icon-partner" xmlns="http://www.w3.org/2000/svg"><path d="M12 9L8.5 5.5 12 2l3.5 3.5L12 9zM1 20v-4c0-.567.196-1.042.587-1.425A1.947 1.947 0 013 14h3.275c.333 0 .65.083.95.25.3.167.542.392.725.675a5.158 5.158 0 001.788 1.525c.708.367 1.462.55 2.262.55.817 0 1.58-.183 2.287-.55a4.933 4.933 0 001.763-1.525c.217-.283.47-.508.762-.675.292-.167.596-.25.913-.25H21c.567 0 1.042.192 1.425.575.383.383.575.858.575 1.425v4h-7v-2.275A6.81 6.81 0 0112 19a6.673 6.673 0 01-2.1-.337A7.035 7.035 0 018 17.7V20H1zm3-7a2.893 2.893 0 01-2.125-.875A2.893 2.893 0 011 10c0-.85.292-1.563.875-2.138S3.167 7 4 7c.85 0 1.563.287 2.138.862S7 9.15 7 10c0 .833-.287 1.542-.862 2.125S4.85 13 4 13zm16 0a2.893 2.893 0 01-2.125-.875A2.893 2.893 0 0117 10c0-.85.292-1.563.875-2.138S19.167 7 20 7c.85 0 1.563.287 2.137.862C22.712 8.438 23 9.15 23 10c0 .833-.288 1.542-.863 2.125S20.85 13 20 13z" fill="currentColor"/></svg><svg fill="none" viewBox="0 0 24 24" id="icon-phone" xmlns="http://www.w3.org/2000/svg"><path d="M19.95 21c-2.083 0-4.142-.454-6.175-1.363-2.033-.908-3.883-2.195-5.55-3.862-1.667-1.667-2.954-3.517-3.862-5.55C3.454 8.192 3 6.133 3 4.05c0-.3.1-.55.3-.75.2-.2.45-.3.75-.3H8.1a.93.93 0 01.625.237.914.914 0 01.325.563l.65 3.5c.033.267.025.492-.025.675-.05.183-.142.342-.275.475L6.975 10.9c.333.617.73 1.213 1.188 1.787.458.575.962 1.13 1.512 1.663.517.517 1.058.996 1.625 1.438.567.441 1.167.845 1.8 1.212l2.35-2.35a1.4 1.4 0 01.588-.338 1.61 1.61 0 01.712-.062l3.45.7c.233.067.425.188.575.363A.88.88 0 0121 15.9v4.05c0 .3-.1.55-.3.75-.2.2-.45.3-.75.3z" fill="currentColor"/></svg><svg fill="none" viewBox="0 0 93 105" id="icon-play" xmlns="http://www.w3.org/2000/svg"><path d="M86.955 42.333c8.012 4.616 8.012 16.178 0 20.795L17.99 102.864C9.991 107.474 0 101.7 0 92.467V12.994C0 3.761 9.991-2.013 17.991 2.597l68.964 39.736z" fill="#fff"/></svg><svg fill="none" viewBox="0 0 24 24" id="icon-schedule" xmlns="http://www.w3.org/2000/svg"><path d="M13 11.6V8a.967.967 0 00-.287-.713A.968.968 0 0012 7a.968.968 0 00-.713.287A.967.967 0 0011 8v3.975c0 .133.025.263.075.388.05.125.125.237.225.337l3.3 3.3a.948.948 0 00.7.275A.948.948 0 0016 16a.948.948 0 00.275-.7.948.948 0 00-.275-.7l-3-3zM12 22a9.738 9.738 0 01-3.9-.788 10.099 10.099 0 01-3.175-2.137c-.9-.9-1.612-1.958-2.137-3.175A9.738 9.738 0 012 12c0-1.383.263-2.683.788-3.9a10.099 10.099 0 012.137-3.175c.9-.9 1.958-1.612 3.175-2.137A9.738 9.738 0 0112 2c1.383 0 2.683.263 3.9.788a10.098 10.098 0 013.175 2.137c.9.9 1.613 1.958 2.137 3.175A9.738 9.738 0 0122 12a9.738 9.738 0 01-.788 3.9 10.098 10.098 0 01-2.137 3.175c-.9.9-1.958 1.613-3.175 2.137A9.738 9.738 0 0112 22z" fill="currentColor"/></svg><svg fill="none" viewBox="0 0 24 25" id="icon-search" xmlns="http://www.w3.org/2000/svg"><path d="M19.6 21.337l-6.3-6.3a6.096 6.096 0 01-3.8 1.3c-1.817 0-3.354-.629-4.612-1.887C3.629 13.19 3 11.654 3 9.837c0-1.817.63-3.354 1.888-4.612C6.146 3.966 7.683 3.337 9.5 3.337c1.817 0 3.354.63 4.613 1.888C15.37 6.483 16 8.02 16 9.837a6.096 6.096 0 01-1.3 3.8l6.3 6.3-1.4 1.4zm-10.1-7c1.25 0 2.313-.437 3.188-1.312C13.562 12.15 14 11.087 14 9.837c0-1.25-.438-2.312-1.313-3.187-.874-.875-1.937-1.313-3.187-1.313-1.25 0-2.313.438-3.188 1.313S5 8.587 5 9.837c0 1.25.438 2.313 1.313 3.188S8.25 14.337 9.5 14.337z" fill="currentColor"/></svg><svg fill="none" viewBox="0 0 32 33" id="icon-tg" xmlns="http://www.w3.org/2000/svg"><path d="M16 32.83c8.837 0 16-7.164 16-16 0-8.837-7.163-16-16-16s-16 7.163-16 16c0 8.836 7.163 16 16 16z" fill="currentColor"/><path fill-rule="evenodd" clip-rule="evenodd" d="M7.243 16.66c4.664-2.032 7.774-3.372 9.33-4.02 4.444-1.847 5.367-2.168 5.969-2.179.132-.002.428.03.62.186.284.23.286.732.254 1.063-.24 2.53-1.282 8.67-1.812 11.503-.225 1.2-.666 1.601-1.094 1.64-.929.086-1.635-.613-2.535-1.203-1.408-.923-2.203-1.498-3.57-2.399-1.58-1.04-.556-1.613.344-2.548.236-.244 4.33-3.968 4.41-4.306.01-.042.018-.2-.075-.283-.094-.083-.232-.055-.332-.032-.14.032-2.39 1.519-6.748 4.46-.639.44-1.217.653-1.736.642-.57-.013-1.67-.323-2.487-.589-1.002-.326-1.798-.498-1.729-1.051.036-.288.433-.583 1.19-.884z" fill="#fff"/></svg><svg fill="none" viewBox="0 0 32 33" id="icon-vk" xmlns="http://www.w3.org/2000/svg"><path d="M16 32.83c8.837 0 16-7.164 16-16 0-8.837-7.163-16-16-16s-16 7.163-16 16c0 8.836 7.163 16 16 16z" fill="currentColor"/><path fill-rule="evenodd" clip-rule="evenodd" d="M8.667 10.83H6.333c-.666 0-.8.313-.8.659 0 .618.791 3.683 3.684 7.737 1.929 2.769 4.646 4.27 7.119 4.27 1.483 0 1.667-.334 1.667-.908v-2.092c0-.667.14-.8.61-.8.346 0 .94.173 2.324 1.508 1.583 1.582 1.844 2.292 2.734 2.292h2.334c.666 0 1-.334.808-.991-.211-.656-.966-1.607-1.97-2.735-.543-.642-1.359-1.335-1.606-1.68-.346-.446-.247-.643 0-1.039 0 0 2.843-4.005 3.14-5.364.148-.495 0-.858-.706-.858h-2.334c-.593 0-.867.314-1.015.66 0 0-1.187 2.892-2.868 4.771-.544.544-.791.717-1.088.717-.149 0-.363-.173-.363-.668v-4.622c0-.593-.172-.858-.667-.858h-3.668c-.37 0-.593.275-.593.536 0 .563.84.692.927 2.275v3.436c0 .753-.136.89-.433.89-.791 0-2.716-2.906-3.857-6.23-.224-.646-.448-.907-1.045-.907z" fill="#fff"/></svg><svg fill="none" viewBox="0 0 32 33" id="icon-youtube" xmlns="http://www.w3.org/2000/svg"><path d="M16 32.25c8.837 0 16-7.163 16-16s-7.163-16-16-16-16 7.163-16 16 7.163 16 16 16z" fill="currentColor"/><path d="M21.236 10.231H10.764A3.185 3.185 0 007.58 13.42v5.663a3.186 3.186 0 003.185 3.187h10.472a3.185 3.185 0 003.185-3.187v-5.663a3.186 3.186 0 00-3.185-3.188zm-7.455 8.6V13.67l4.438 2.581-4.438 2.581z" fill="#fff"/></svg></svg>